<svg
   version="1.1"
   id="Calque_1"
   x="0px"
   y="0px"
   width="304.172px"
   height="724.051px"
   viewBox="0 0 304.172 724.051"
   xml:space="preserve"
   sodipodi:docname="zones.svg"
   inkscape:version="0.92.3 (2405546, 2018-03-11)"><metadata
   id="metadata33"><rdf:RDF><cc:Work
       rdf:about=""><dc:format>image/svg+xml</dc:format><dc:type
         rdf:resource="http://purl.org/dc/dcmitype/StillImage" /></cc:Work></rdf:RDF></metadata><defs
   id="defs31">
			</defs><sodipodi:namedview
   pagecolor="#ffffff"
   bordercolor="#666666"
   borderopacity="1"
   objecttolerance="10"
   gridtolerance="10"
   guidetolerance="10"
   inkscape:pageopacity="0"
   inkscape:pageshadow="2"
   inkscape:window-width="1853"
   inkscape:window-height="1025"
   id="namedview29"
   showgrid="false"
   inkscape:zoom="0.92190851"
   inkscape:cx="85.623741"
   inkscape:cy="372.07227"
   inkscape:window-x="67"
   inkscape:window-y="27"
   inkscape:window-maximized="1"
   inkscape:current-layer="Calque_1" />
<path
   d="m 17.381,683.051 c -0.667,0 -1.333,0 -2,0 -0.736,0 -1.608,0.688 -1.5,1.5 2.375,17.922 5.928,39.5 28.252,39.5 4.87,0 9.206,-1.477 12.309,-5.439 1.696,-2.166 3.01,-4.938 4.521,-7.271 1.028,-1.588 1.582,-3.092 3.837,-1.844 1.876,1.039 3.48,2.586 5.082,3.995 3.318,2.922 6.917,6.058 11.5,6.56 7.081,0.776 13.964,-0.744 20.767,-2.594 11.515,-3.131 24.227,-4.321 33.294,-12.846 2.123,-1.995 1.865,-6.146 -0.037,-8.121 -3.974,-4.127 -10.201,-4.871 -15.648,-4.814 -3.152,0.033 -6.303,0.406 -9.454,0.527 -4.638,0.18 -7.295,-0.878 -9.562,-4.995 -2.229,-4.047 -1.977,-9.01 -6.946,-10.366 -4.851,-1.324 -7.631,2.531 -10.585,5.627 -2.461,2.578 -5.074,5.272 -8.828,5.582 -3.619,0.298 -7.101,-2.647 -9.899,-4.547 -4.091,-2.778 -8.523,-4.251 -13.5,-3.362 -3.899,0.696 -7.527,1.944 -11.18,-0.15 -2.988,-1.714 -5.054,-9.021 -6.562,-12.017 -6.481,-12.878 -17.46,-24.938 -16.655,-40.091 0.365,-6.866 3.149,-13.506 6.636,-19.328 1.85,-3.089 4.101,-6.459 7.214,-8.376 3.847,-2.37 10.014,-0.932 14.043,0.096 8.32,2.12 13.667,7.94 11.707,16.752 -0.681,3.062 -2.266,5.873 -3.91,8.507 -1.478,2.365 -3.458,3.52 -3.337,6.331 0.421,9.752 9.489,17.61 18.148,20.4 6.173,1.989 13.284,1.714 19.666,3.044 4.17,0.869 11.786,5.206 15.69,1.302 0.952,-0.951 2.089,-3.322 2.268,-4.717 0.897,-7.016 8.438,-5.304 11.537,-1.073 5.583,7.622 1.834,15.703 -3.926,21.669 -2.673,2.769 -3.151,6.971 -1.049,10.151 2.27,3.434 7.522,3.703 11.129,3.185 5.915,-0.852 11.958,-3.438 17.982,-2.289 1.805,0.344 4.798,1.812 4.994,3.981 0.091,1.009 -0.134,2.146 0.166,3.135 0.734,2.429 2.239,4.085 4.212,5.666 8.101,6.489 17.464,1.258 22.921,-5.552 3.703,-4.62 6.758,-9.011 8.3,-14.818 1.336,-5.033 -3.392,-12.091 -5.798,-16.176 -1.687,-2.861 -3.775,-5.497 -5.236,-8.479 -1.495,-3.056 -1.128,-6.861 -1.599,-10.179 -0.832,-5.865 -3.416,-11.415 -6.696,-16.286 -4.537,-6.737 -14.955,-17.535 -23.983,-16.187 -6.061,0.906 -10.548,4.285 -15.54,7.613 -2.552,1.701 -5.549,2.74 -8.189,4.315 -2.927,1.745 -5.638,3.864 -8.398,5.856 -4.723,3.41 -11.202,7.96 -17.355,6.61 -6.435,-1.411 -7.894,-12.596 -5.239,-17.387 2.836,-5.12 9.889,-5.55 14.932,-6.768 4.332,-1.047 8.583,-2.403 12.522,-4.512 3.183,-1.704 5.813,-4.234 7.604,-7.358 1.179,-2.056 3.393,-8.495 1.441,-10.523 -7.253,-7.542 -21.851,3.809 -28.984,6.49 -3.438,1.292 -9.175,3.187 -12.656,1.507 -3.851,-1.857 -5.268,-6.72 -5.13,-10.605 0.232,-6.576 5.564,-11.754 5.084,-18.331 -0.658,-9.029 -14.006,-11.773 -19.436,-5.061 -2.924,3.615 -2.253,7.626 -2.222,12.022 0.093,12.941 -15.199,2.699 -20.891,1.035 -2.568,-0.752 -5.495,-0.947 -8.157,-0.917 -4.202,0.048 -5.794,1.055 -8.053,-3.012 -4.435,-7.985 -2.067,-17.144 2.678,-24.312 7.877,-11.902 -5.346,-27.036 9.393,-36.293 5.588,-3.511 12.665,-4.359 18.981,-5.781 3.995,-0.899 8.883,-2.923 12.381,0.45 3.324,3.204 3.47,8.008 2.751,12.229 -0.454,2.664 -1.416,5.253 -2.331,7.785 -0.995,2.751 -0.971,4.905 -0.971,7.854 0,3.186 5.309,4.637 7.717,4.115 11.214,-2.429 11.163,-14.756 15.036,-23.18 3.066,-6.667 8.797,-8.378 15.729,-7.142 7.255,1.293 12.678,6.772 19.619,8.652 7.171,1.942 7.912,10.627 6.126,16.615 -1.845,6.188 -6.865,11.406 -12.318,14.596 -3.014,1.763 -6.601,2.352 -9.969,3.063 -1.801,0.381 -5.099,0.817 -6.5,2.219 -3.386,3.386 -4.115,7.287 -2.773,11.952 2.59,9.011 12.673,9.813 19.416,5.078 4.282,-3.008 9.385,-5.066 14.61,-5.511 2.684,-0.228 5.287,0.343 7.652,1.599 1.473,0.783 2.609,2.086 3.579,3.403 0.741,1.009 2.208,6.506 0.783,7.503 -7.813,5.47 -0.709,16.204 5.706,18.852 4.243,1.752 10.789,1.548 14.845,-0.521 4.259,-2.171 6.977,-8.762 8.418,-12.965 1.545,-4.504 2.377,-10.604 0.767,-15.154 -1.167,-3.299 -4.217,-6.561 -3.636,-10.277 0.758,-4.848 5.42,-6.019 9.439,-5.18 3.546,0.739 4.006,6.766 4.551,9.644 0.729,3.85 0.7,7.817 0.461,11.71 -0.521,8.431 -3.473,16.675 -6.969,24.281 -2.111,4.593 -5.592,8.815 -5.219,14.101 0.286,4.042 3.347,7.39 6.095,10.057 3.447,3.345 7.41,6.081 10.6,9.7 3.896,4.423 2.184,11.264 7.478,14.997 8.149,5.747 17.936,0.173 25.01,-4.571 4.501,-3.018 8.407,-6.435 11.544,-10.88 1.274,-1.805 2.719,-3.162 3.151,-5.358 0.676,-3.43 0.849,-7.077 1.284,-10.552 1.638,-13.055 -1.37,-24.978 -11.557,-33.768 -5.106,-4.407 -11.057,-8.271 -7.708,-15.866 2.356,-5.346 9.159,-6.994 14.397,-7.194 2.603,-0.1 5.166,0.363 7.658,1.065 2.588,0.73 2.768,7.49 3.269,9.521 0.646,2.623 1.662,5.125 2.762,7.584 0.709,1.588 2.169,5.739 4.05,6.257 9.097,2.503 16.084,-8.146 18.845,-15.048 2.823,-7.059 5.647,-14.117 8.471,-21.176 2.787,-6.969 5.583,-13.883 5.583,-21.481 0,-11.375 -3.004,-22.588 -15.576,-25.097 -10.899,-2.175 -18.453,6.472 -23.469,14.849 -3.128,5.223 -5.649,11.011 -10.134,15.252 -1.417,1.341 -3.117,2.329 -4.938,2.999 -6.065,2.23 -1.982,-6.074 -1.937,-6.346 0.369,-2.174 0.454,-4.1 -0.344,-6.188 -1.125,-2.944 -4.171,-4.444 -6.901,-5.539 -2.836,-1.137 -8.071,-3.446 -11.052,-1.545 -3.356,2.141 -5.649,8.523 -5.649,12.373 0,5.356 -4.928,7.146 -9.496,6.224 -3.581,-0.723 -6.947,-4.168 -8.029,-7.634 -1.96,-6.271 1.238,-13.673 1.646,-20.047 0.32,-5.002 -1.71,-9.266 -4.832,-13.016 -1.632,-1.959 -3.611,-3.648 -5.473,-5.382 -1.88,-1.752 -3.382,-4.02 -5.256,-5.706 -3.764,-3.388 -7.435,-4.285 -12.067,-1.984 -4.501,2.234 -5.081,8.428 -5.521,12.795 -0.35,3.47 -0.074,7.022 0.01,10.5 0.062,2.562 -0.808,8.2 -5.367,6.952 -2.236,-0.612 -3.844,-2.285 -5.067,-4.144 -2.544,-3.862 -2.45,-8.886 -4.752,-12.815 -2.521,-4.305 -9.104,-6.001 -13.396,-7.443 -5.74,-1.929 -11.694,2.655 -17.395,-0.382 -5.102,-2.719 -5.766,-10.371 -5.974,-15.42 -0.164,-3.964 1.925,-7.756 3.543,-11.241 1.482,-3.192 2.427,-6.642 5.684,-8.462 7.291,-4.074 16.939,-2.6 23.056,2.688 8.486,7.337 21.218,6.735 29.314,-0.77 3.621,-3.355 6.239,-7.604 7.42,-12.392 0.521,-2.109 0.562,-4.529 0.181,-6.652 -0.338,-1.884 -0.966,-3.475 -1.163,-5.417 -0.112,-1.098 0.242,-2.486 -0.27,-3.509 -2.539,-5.079 -4.512,-8.862 -9.686,-11.575 -5.25,-2.753 -11.892,-2.486 -16.894,-5.614 -6.213,-3.886 -9.957,-12.999 -4.655,-18.993 3.116,-3.522 5.292,-6.024 10.339,-6.658 4.142,-0.521 8.443,0.037 12.6,0.098 5.402,0.078 14.658,6.518 15,12.5 0.256,4.482 5.277,5.913 8.932,7.278 3.239,1.21 6.306,2.258 9.002,4.505 2.546,2.123 2.372,5.249 3.771,7.974 3.366,6.557 7.547,12.728 9.332,19.965 2.354,9.544 -5.247,11.947 -11.971,15.627 -4.271,2.338 -7.244,6.538 -8.992,10.967 -3.518,8.911 2.747,19.25 9.696,24.552 4.13,3.151 8.706,5.384 13.517,7.292 3.948,1.566 11.179,5.33 15.332,3.854 9.093,-3.233 15.784,-10.681 15.962,-20.537 0.144,-7.949 4.854,-15.042 13.417,-13.647 2.671,0.436 5.136,1.683 7.404,3.101 4.105,2.565 3.235,6.3 5.303,9.828 2.484,4.241 8.727,6.089 12.818,8.162 2.632,1.334 5.005,3.106 6.808,5.438 1.104,1.426 3.521,2.741 5.325,2.972 4.097,0.524 7.872,-2.513 10.139,-5.696 1.475,-2.07 2.733,-4.251 3.672,-6.621 1.011,-2.551 2.035,-6.771 0.979,-9.409 -1.532,-3.831 -7.032,-4.173 -9.964,-6.646 -3.808,-3.214 -0.658,-5.38 2.116,-7.709 2.303,-1.935 4.217,-4.039 5.91,-6.518 5.739,-8.4 4.848,-19.555 2.312,-28.863 -0.612,-2.25 -1.611,-2.339 -3.375,-3.907 -1.859,-1.654 -3.259,-3.828 -4.724,-5.818 -2.42,-3.288 -5.023,-6.127 -9.033,-7.327 -2.213,-0.662 -4.163,0.016 -6.317,0.575 -1.898,0.492 -3.754,0.851 -5.712,1.054 -1.318,0.138 -1.883,-1.824 -2.387,-2.671 -2.577,-4.328 -5.698,-8.182 -10.201,-10.576 -2.966,-1.577 -6.902,-2.743 -9.354,0.078 -2.205,2.537 -2.436,5.1 -6.687,5.534 -3.845,0.393 -6.474,-4.701 -7.735,-7.563 -1.012,-2.298 -0.46,-4.427 -1.704,-6.552 -1.339,-2.29 -1.297,-5.102 -1.949,-7.659 -1.262,-4.952 -4.694,-9.062 -8.94,-11.741 -5.232,-3.302 -10.521,-0.189 -15.9,1.44 -7.525,2.279 -15.077,4.235 -23.001,4.064 -8.195,-0.177 -15.456,-4.775 -22.749,-8.023 -6.724,-2.994 -13.544,-5.789 -20.183,-8.971 -4.724,-2.263 -4.128,-7.204 -1.837,-11.074 2.107,-3.561 7.267,-5.416 10.914,-6.755 7.193,-2.644 14.544,-1.868 21.657,0.512 5.419,1.813 24.933,11.729 25.413,-0.25 0.417,-10.391 -10.987,-16.124 -19.386,-18.8 -14.674,-4.675 -30.815,3.625 -44.872,-4.729 -1.667,-0.991 -3.175,1.604 -1.514,2.591 12.463,7.407 27.312,3.36 40.982,4.058 6.946,0.355 14.525,4.442 19.096,9.538 2.778,3.097 4.882,10.656 -1.627,9.758 -3.82,-0.527 -7.263,-1.407 -10.896,-2.704 -6.03,-2.152 -11.705,-4.388 -18.169,-4.694 -6.278,-0.297 -12.373,1.828 -17.887,4.626 -7.718,3.918 -12.723,15.464 -3.39,20.513 5.918,3.201 12.415,5.555 18.572,8.259 6.604,2.899 13.031,6.75 20.075,8.422 6.168,1.465 12.672,0.663 18.798,-0.562 3.651,-0.73 7.235,-1.823 10.8,-2.887 4.355,-1.3 9.256,-3.967 13.588,-1.742 3.402,1.747 5.71,5.174 7.12,8.61 1.017,2.476 0.721,5.125 1.455,7.61 0.222,0.751 0.816,1.463 1.239,2.103 0.746,1.129 0.367,2.485 0.678,3.693 0.694,2.704 2.022,5.194 3.666,7.438 1.958,2.673 5.832,5.421 9.363,4.287 1.848,-0.594 3.562,-1.375 4.974,-2.723 0.576,-0.55 0.973,-1.38 1.362,-2.057 1.664,-2.886 4.002,-2.135 6.513,-1.059 5.361,2.297 8.402,8.178 11.148,12.972 0.255,0.445 0.775,0.762 1.295,0.743 6.233,-0.219 12.419,-3.88 17.558,1.059 3.315,3.186 5.184,7.655 8.892,10.485 3.687,2.814 3.426,11.277 3.317,15.488 -0.177,6.878 -3.167,12.978 -8.147,17.633 -2.963,2.77 -7.521,3.845 -6.4,8.664 0.859,3.696 5.656,6.483 8.883,7.617 2.213,0.778 3.398,0.988 3.398,3.554 0,2.637 -0.281,4.74 -1.356,7.169 -1.409,3.184 -3.465,6.104 -6.319,8.136 -4.163,2.964 -7.047,-1.174 -9.676,-3.661 -2.122,-2.009 -5.158,-3.375 -7.764,-4.621 -2.991,-1.431 -5.86,-2.749 -8.35,-4.997 -1.632,-1.473 -1.88,-5.18 -2.81,-7.211 -1.902,-4.152 -7.164,-6.395 -11.253,-7.606 -9.329,-2.768 -17.354,3.802 -18.32,13.292 -0.323,3.176 -0.092,6.103 -1.127,9.209 -0.989,2.971 -3.237,5.368 -5.549,7.371 -1.826,1.581 -6.361,4.822 -8.896,4.096 -3.143,-0.902 -6.264,-1.868 -9.354,-2.935 -11.078,-3.824 -26.443,-12.623 -24.43,-26.635 1.001,-6.963 6.436,-10.608 12.208,-13.376 4.628,-2.22 8.616,-5.286 9.838,-10.482 1.122,-4.774 -1.297,-10.414 -3.2,-14.65 -1.331,-2.963 -3.008,-5.78 -4.587,-8.614 -0.978,-1.754 -1.962,-3.511 -2.703,-5.382 -0.626,-1.581 -0.678,-3.357 -1.558,-4.858 -2.353,-4.018 -7.159,-5.902 -11.291,-7.4 -1.99,-0.721 -7.846,-2.066 -8.004,-4.843 -0.137,-2.394 -1.461,-4.348 -2.721,-6.357 -6.08,-9.701 -19.816,-11.002 -30.078,-8.961 -9.728,1.935 -16.189,12.795 -12.396,22.067 1.641,4.012 4.81,7.276 8.438,9.546 4.889,3.058 11.808,2.843 17.015,5.573 3.516,1.844 5.004,5.003 6.697,8.389 1.197,2.396 0.636,5.569 1.599,8.142 2.799,7.479 -3.796,16.334 -9.646,20.186 -7.33,4.824 -16.864,2.694 -23.113,-2.707 -4.113,-3.556 -9.194,-5.066 -14.544,-4.691 -4.486,0.313 -9.857,0.579 -13.295,4.018 -4.042,4.042 -6.293,11.337 -7.999,16.731 -2.246,7.105 0.873,17.864 7.033,22.073 3.677,2.513 8.989,1.566 13.068,0.809 4.268,-0.792 7.149,0.682 11.043,2.173 4.104,1.571 5.753,3.825 6.988,7.777 1.215,3.887 2.3,7.609 4.856,10.847 1.775,2.249 6.944,5.403 9.812,3.386 4.196,-2.952 4.8,-6.668 4.683,-11.499 -0.096,-3.987 -0.191,-7.893 0.428,-11.852 1.142,-7.299 7.589,-10.835 12.85,-4.56 3.485,4.158 7.996,7.347 11.251,11.702 4.746,6.35 1.833,14.43 0.847,21.494 -1.34,9.592 4.021,18.973 14.579,18.725 3.495,-0.082 7.083,-2.366 8.427,-5.611 1.065,-2.57 0.718,-5.339 1.662,-8 0.723,-2.036 1.862,-5.608 4.61,-5.883 1.322,-0.132 3.097,0.716 4.355,1.083 2.295,0.668 4.608,1.419 6.506,2.926 2.924,2.322 1.512,5.906 0.526,8.829 -1.05,3.114 0.092,7.704 4.136,7.601 10.552,-0.269 15.679,-13.686 20.187,-21.214 3.623,-6.051 8.413,-11.52 15.805,-12.323 3.3,-0.358 6.532,0.677 9.379,2.255 4.534,2.514 5.896,7.346 7.135,12.016 1.949,7.354 -0.245,16.604 -2.98,23.443 -3.059,7.646 -6.117,15.294 -9.177,22.941 -2.305,5.762 -4.808,11.816 -10.329,15.202 -3.78,2.318 -5.894,1.328 -7.803,-2.197 -1.91,-3.53 -3.017,-7.411 -3.851,-11.312 -0.922,-4.314 -1.134,-7.578 -5.77,-8.885 -4.364,-1.231 -9.084,-1.064 -13.466,-0.064 -7.81,1.782 -13.205,8.286 -12.081,16.392 0.697,5.033 5.851,8.044 9.387,10.993 6.579,5.487 10.623,13.315 11.216,21.902 0.224,3.24 -0.169,6.53 -0.538,9.744 -0.369,3.22 -0.209,9.5 -2.303,12.045 -1.867,2.269 -3.403,4.727 -5.465,6.851 -2.718,2.801 -6.119,4.912 -9.354,7.056 -4.657,3.088 -10.184,5.671 -15.898,4.521 -7.739,-1.556 -5.788,-10.525 -9.65,-15.38 -2.973,-3.737 -6.839,-6.584 -10.391,-9.734 -1.898,-1.685 -3.616,-3.51 -4.96,-5.672 -2.38,-3.828 -0.618,-7.347 1.287,-10.897 6.462,-12.041 10.753,-25.419 9.703,-39.198 -0.336,-4.422 -0.929,-10.48 -3.991,-13.914 -2.434,-2.728 -7.221,-2.271 -10.315,-1.394 -4.457,1.262 -5.571,4.354 -6.215,8.472 -0.346,2.214 0.271,3.76 1.447,5.581 2.382,3.687 3.196,7.265 2.974,11.588 -0.338,6.559 -4.127,18.148 -11.929,18.963 -3.592,0.375 -7.813,-0.068 -10.984,-1.793 -3.511,-1.91 -7.102,-9.205 -2.966,-12.386 2.912,-2.24 2.512,-7.469 0.964,-10.515 -1.941,-3.817 -5.63,-6.249 -9.69,-7.241 -3.962,-0.968 -8.279,-0.082 -12.068,1.142 -2.029,0.655 -3.973,1.607 -5.853,2.601 -2.668,1.41 -4.902,3.904 -8.073,3.959 -4.221,0.073 -6.599,0.565 -9.113,-3.499 -1.838,-2.971 -2.14,-7.627 0.433,-10.199 2.318,-2.318 7.711,-2.531 10.756,-3.274 2.888,-0.705 5.486,-1.972 7.961,-3.588 7.725,-5.042 13.588,-14.602 12.448,-23.99 -0.418,-3.442 -2.583,-8.402 -5.729,-10.244 -2.728,-1.599 -6.026,-2.016 -8.851,-3.637 -3.055,-1.754 -6.161,-3.345 -9.409,-4.706 -9.449,-3.96 -19.021,-2.297 -23.834,7.06 -2.271,4.415 -2.469,9.475 -4.446,13.919 -1.46,3.283 -4.195,6.298 -7.565,7.615 -6.981,2.729 -4.979,-6.098 -3.831,-9.275 2.786,-7.706 4.579,-21.065 -5.717,-24.275 -4.717,-1.471 -11.356,1.434 -15.912,2.408 -6.326,1.353 -12.354,3.028 -17.668,6.843 -10.089,7.241 -5.288,20.081 -6.022,30.344 -0.296,4.138 -3.528,7.671 -5.155,11.339 -0.962,2.169 -1.644,4.585 -1.885,6.949 -0.636,6.239 0.876,11.846 4.248,17.104 1.314,2.05 1.617,2.128 4.004,2.055 3.23,-0.099 6.07,-0.166 9.289,0.053 7.147,0.486 12.37,6.446 19.519,6.069 3.951,-0.209 6.804,-2.992 7.87,-6.603 0.65,-2.202 0.305,-4.757 0.21,-7.003 -0.232,-5.511 3.618,-8.401 8.776,-8.714 7.129,-0.433 7.705,7.268 5.654,12.067 -1.038,2.428 -2.042,4.851 -2.848,7.367 -1.474,4.6 -1.375,10.087 1.709,14.034 3.033,3.881 6.043,5.226 10.958,4.53 6.719,-0.952 12.681,-3.702 18.662,-6.775 2.871,-1.476 5.704,-2.597 8.805,-3.479 1.26,-0.358 6.14,-1.488 6.223,1.283 0.042,1.408 -0.207,2.793 -0.529,4.155 -1.261,5.331 -6.246,8.486 -10.961,10.441 -4.009,1.663 -8.324,2.587 -12.542,3.54 -3.791,0.857 -9.721,2.024 -11.8,5.828 -3.869,7.079 -3.041,17.25 4.048,22.154 8.243,5.702 20.473,-4.938 26.641,-9.34 5.211,-3.719 11.034,-6.209 16.363,-9.763 2.882,-1.921 5.558,-3.312 8.96,-4.106 4.325,-1.01 8.018,1.815 11.393,4.109 5.325,3.62 9.638,8.583 12.835,14.134 1.626,2.823 2.701,5.9 3.535,9.036 0.9,3.384 0.257,7.16 1.245,10.431 1.781,5.898 6.046,10.75 8.897,16.169 2.145,4.074 3.83,7.981 2.115,12.534 -1.733,4.604 -4.638,8.089 -7.676,11.881 -4.264,5.319 -10.439,7.962 -16.862,4.59 -3.681,-1.933 -3.426,-5.252 -4.362,-8.655 -0.554,-2.014 -2.637,-3.278 -4.309,-4.286 -3.751,-2.263 -8.686,-1.474 -12.728,-0.703 -2.76,0.526 -5.473,1.261 -8.239,1.762 -6.212,1.123 -13.847,-2.593 -7.344,-9.329 7.455,-7.722 8.594,-18.22 1.315,-26.508 -2.324,-2.647 -6.64,-4.204 -9.926,-2.398 -1.43,0.786 -3.253,1.871 -4.136,3.305 -2.178,3.535 -1.663,8.866 -7.92,6.637 -13.108,-4.67 -28.667,-1.591 -38.628,-12.812 -2.403,-2.706 -3.912,-6.201 -4.368,-9.769 -0.206,-1.612 2.871,-4.728 3.665,-5.999 2.8,-4.484 4.511,-9.758 3.984,-15.06 -1.116,-11.231 -14.942,-14.552 -24.206,-14.756 -10.988,-0.241 -17.157,13.774 -20.02,22.507 -1.768,5.392 -2.226,11.177 -1.517,16.785 0.803,6.355 4.144,11.747 7.257,17.205 3.508,6.151 7.164,12.205 10.35,18.534 2.402,4.773 3.546,11.269 9.531,12.915 2.408,0.662 5.067,0.094 7.464,-0.335 4.524,-0.808 8.033,-1.18 12.251,1.018 4.728,2.462 8.104,6.005 13.683,6.371 4.418,0.29 8.17,-3.604 10.95,-6.461 1.213,-1.248 8.116,-8.765 9.604,-3.641 0.767,2.641 2.02,5.298 3.215,7.773 5.548,11.488 20.484,4.117 30.328,7.038 3.463,1.028 7.491,4.24 3.728,7.777 -1.37,1.288 -2.987,2.251 -4.597,3.193 -2.929,1.714 -6.236,2.735 -9.476,3.677 -6.625,1.925 -13.449,3.318 -20.131,5.044 -8.273,2.137 -16.859,3.434 -23.908,-2.266 -4.217,-3.41 -7.04,-7.136 -12.712,-7.136 -0.513,0 -1.049,0.282 -1.295,0.743 -3.649,6.826 -7.258,14.257 -15.953,14.257 -6.754,0 -12.007,-1.617 -16.498,-6.84 -6.679,-7.77 -7.471,-19.975 -8.754,-29.66 -0.5,0.5 -1,1 -1.5,1.5 0.667,0 1.333,0 2,0 1.932,-0.005 1.932,-3.005 -0.002,-3.005 z"
   id="path2"
   inkscape:connector-curvature="0"
   style="fill:#00ff00" /><path
   d="m 280.441,427.491 c -6.834,-5.618 -14,-10.028 -22.817,-6.234 -7.662,3.297 -8.858,15.586 -18.928,13.639 -4.458,-0.861 -5.043,-7.529 -5.609,-11.09 -0.709,-4.45 -1.339,-7.826 -4.265,-11.445 -3.779,-4.675 -8.143,-7.972 -9.565,-14.105 -1.166,-5.025 -0.779,-10.148 -2.43,-15.102 -0.608,-1.826 -3.506,-1.044 -2.893,0.797 1.485,4.457 1.555,9.128 2.188,13.745 0.667,4.859 2.912,8.623 6.321,12.044 4.545,4.562 6.784,8.599 7.751,14.864 0.518,3.36 1.033,7.258 3.193,10.029 4.403,5.65 11.77,3.943 16.212,-0.543 3.061,-3.091 5.134,-7.013 8.647,-9.678 6.714,-5.092 14.9,0.948 20.073,5.2 1.483,1.218 3.619,-0.892 2.122,-2.121 z"
   id="path6"
   inkscape:connector-curvature="0"
   style="fill:#00ff00" /><path
   d="m 278.441,371.612 c 4.648,-4.323 11.893,-6.003 15.81,-10.91 2.997,-3.755 2.902,-10.115 2.499,-14.608 -0.192,-2.145 -1.413,-4.238 -2.369,-6.116 -2.094,-4.115 -1.701,-7.448 -0.918,-11.778 0.83,-4.589 1.245,-10.833 -2.021,-14.709 -7.105,-8.433 -17.263,1.313 -20.871,8.272 -3.466,6.683 -10.354,9.322 -16.34,13.455 -5.96,4.114 -12.621,8.555 -17.99,1.4 -2.434,-3.242 -3.808,-7.207 -5.564,-10.824 -1.759,-3.624 -1.998,-7.764 -2.849,-11.642 -0.775,-3.537 -3.089,-6.355 -3.449,-10.15 -1.071,-11.282 6.153,-23.542 18.402,-23.27 8.05,0.18 13.653,6.394 17.556,12.654 2.397,3.847 9.069,2.494 12.695,1.647 3.068,-0.716 6.025,-2.008 8.961,-3.129 2.196,-0.838 5.101,-1.178 7.108,-2.354 3.415,-2 3.178,-9.78 3.278,-13.199 0.305,-10.335 -4.47,-21.229 -13.028,-27.243 -4.212,-2.959 -9.554,-4.579 -14.616,-3.587 -7.056,1.382 -13.42,6.392 -20.11,8.935 -3.407,1.295 -6.968,2.119 -10.583,2.548 -2.774,0.33 -5.535,-0.113 -8.286,0.272 -3.815,0.535 -7.469,6.188 -9.58,9.007 -3.002,4.008 -5.444,9.178 -10.558,10.78 -2.546,0.797 -5.85,-0.423 -8.487,-0.589 -5.135,-0.324 -8.002,-3.396 -10.901,-7.28 -6.38,-8.544 -17.253,-11.927 -25.07,-19.051 -5.479,-4.992 -7.389,-11.439 -6.241,-18.689 1.267,-7.999 9.269,-14.04 15.893,-17.749 7.399,-4.144 14.123,-1.535 21.175,1.78 3.217,1.512 5.708,4.139 7.678,7.03 1.882,2.763 2.345,6.144 4.136,8.88 5.106,7.804 17.973,4.897 22.703,-1.494 3.936,-5.317 2.508,-11.918 7.375,-16.851 6.286,-6.371 13.396,-2.704 18.439,2.685 2.988,3.192 5.537,6.863 9.029,9.552 2.249,1.732 7.771,5.223 10.793,3.557 8.314,-4.585 9.603,-13.34 7.801,-21.99 -0.905,-4.345 -2.714,-8.854 -5.263,-12.488 -2.016,-2.875 -4.676,-5.293 -5.918,-8.647 -1.066,-2.877 -0.981,-6.173 -1.622,-9.17 -2.147,-10.055 -17.393,-13.707 -25.643,-10.28 -4.566,1.896 -7.457,6.461 -9.407,10.773 -1.038,2.293 -1.799,4.716 -2.622,7.091 -0.501,1.447 -2.452,8.057 -5.847,4.488 -1.142,-1.199 -2.149,-2.539 -3.196,-3.818 -2.346,-2.867 -4.9,-5.533 -8.774,-5.74 -4.064,-0.217 -6.729,3.517 -7.136,7.042 -0.118,1.02 0.127,2.173 0.265,3.181 0.339,2.49 -2.03,9.712 -5.1,5.507 -1.709,-2.343 -3.113,-4.953 -4.625,-7.425 -2.67,-4.368 -5.666,-9.086 -9.931,-12.077 -3.959,-2.777 -8.135,-4.028 -12.964,-3.703 -5.354,0.359 -8.103,3.855 -10.527,8.215 -3.211,5.775 -4.99,12.002 -11.373,15.12 -5.393,2.634 -11.034,5.043 -15.232,9.479 -3.321,3.508 -2.634,11.212 -2.262,15.54 0.639,7.419 2.974,14.593 3.952,21.966 0.691,5.205 -6.091,12.769 -9.371,16.048 -2.26,2.259 -4.981,3.876 -8.016,4.831 -3.989,1.254 -6.628,-0.3 -9.931,-2.272 -6.844,-4.086 -12.699,-10.109 -11.446,-18.708 1.024,-7.028 6.738,-13.924 12.187,-17.96 3.097,-2.294 2.647,-8.601 2.196,-11.858 -0.947,-6.831 -4.528,-12.815 -3.131,-19.935 2.041,-10.398 15.212,-16.083 22.376,-22.606 4.001,-3.644 5.111,-7.871 6.71,-12.793 2,-6.158 5.753,-11.807 11.148,-15.453 5.294,-3.579 14.146,-5.057 18.939,-0.133 3.778,3.88 5.36,9.948 8.607,14.305 4.677,6.275 13.642,8.294 18.232,1.088 2.513,-3.943 4.068,-8.391 7.451,-11.739 5.572,-5.517 10.982,2.096 16.315,3.151 8.332,1.649 13.696,-5.9 12.594,-13.511 -0.7,-4.828 -3.129,-8.457 -5.078,-12.818 -2.863,-6.408 -6.533,-12.606 -10.679,-18.277 -2.562,-3.504 -6.708,-7.859 -11.438,-7.844 -5.67,0.017 -8.554,3.148 -11.986,7.147 -1.794,2.09 -2.864,4.893 -4.309,7.225 -2.067,3.338 -5.326,4.539 -9.049,4.788 -2.392,0.161 -4.834,-0.164 -7.215,-0.362 -4.076,-0.339 -6.6,-1.9 -9.997,-3.902 -5.382,-3.172 -18.466,2.309 -21.156,-4.835 -2.513,-6.674 3.722,-12.407 8.066,-16.46 2.313,-2.158 4.437,-4.519 7.56,-5.432 4.149,-1.212 7.753,-1.07 12.009,-0.455 3.491,0.504 12.382,2.722 15.138,-0.524 7.193,-8.473 7.072,-19.21 3.452,-29.263 -1.647,-4.576 -4.087,-9.493 -7.548,-12.954 -2.744,-2.744 -6.779,-8.168 -11.363,-7.29 -2.707,0.519 -8.883,-1 -10.418,-3.237 -1.25,-1.824 -1.641,-4.221 -2.527,-6.229 -1.76,-3.986 -4.745,-6.676 -8.664,-8.498 -9.09,-4.226 -16.355,0.018 -19.605,8.857 -1.923,5.229 -1.806,11.549 -0.833,16.952 0.475,2.641 2.867,4.557 3.068,7.201 0.356,4.695 -1.996,9.228 -4.435,13.051 -2.096,3.285 -5.597,8.394 -10.039,7.663 -2.821,-0.464 -4.75,-2.825 -6.173,-5.087 -2.759,-4.387 -3.782,-9.799 -5.529,-14.625 -1.143,-3.156 0.46,-7.214 0.812,-10.394 0.424,-3.836 0.912,-7.153 2.188,-10.808 1.574,-4.508 0.324,-9.987 -1.456,-14.201 C 101.045,5.876 90.639,-0.841 81.982,1.404 79.94,1.933 78.135,4.768 76.848,6.213 74.887,8.416 73.144,10.813 71.491,13.25 68.674,17.402 65.563,29.049 59.982,30.107 55.325,30.99 51.904,28.765 50.827,24.154 50.413,22.382 48.69,21.951 47.985,20.227 46.277,16.05 45.82,11.44 43.909,7.333 40.512,0.035 32.619,-1.708 25.476,1.627 10.295,8.715 11.462,31.394 13.614,45.121 15.588,57.71 -1.062,65.637 0.695,78.18 c 0.861,6.146 2.237,10.929 4.918,16.48 3.263,6.757 1.783,16.723 -0.648,23.477 -1.206,3.348 -3.312,5.941 -4.104,9.444 -0.649,2.869 -0.064,6.067 0.02,8.97 0.185,6.405 3.152,10.619 5.354,16.51 1.39,3.718 0.791,7.488 -0.261,11.179 -0.717,2.517 -1.276,5.856 -2.592,8.106 -2.67,4.565 -2.326,10.691 -2.891,15.894 -1.077,9.91 -1.22,24.695 8.661,30.482 8.488,4.971 17.476,4.384 23.377,-3.66 6.149,-8.383 7.528,-21.249 2.804,-30.43 -1.76,-3.419 -4.586,-6.054 -5.957,-9.687 -1.321,-3.502 -0.166,-8.071 0.93,-11.488 2.093,-6.53 5.654,-12.462 7.585,-19.066 4.075,-13.932 -7.403,-24.112 -8.097,-37.515 -0.386,-7.461 1.68,-14.881 4.562,-21.688 2.963,-6.998 7.067,-15.358 13.782,-19.342 5.63,-3.341 16.518,-5.458 21.405,-0.198 4.754,5.118 8.705,15.604 6.545,22.466 -3.042,9.662 -18.888,11.669 -18.392,22.473 0.428,9.334 6.857,12.946 15.759,12.761 4.876,-0.102 9.185,-2.75 12.999,-5.583 5.316,-3.949 8.744,-10.102 14.085,-13.841 6.992,-4.894 7.87,9.894 7.999,13.145 0.129,3.273 0.599,5.904 -0.894,9.033 -2.021,4.234 -6.69,6.321 -10.909,7.584 -2.66,0.796 -5.843,-0.01 -8.605,0.064 -2.215,0.06 -4.429,0.449 -6.586,0.923 -4.633,1.018 -8.881,3.324 -12.447,6.409 -3.317,2.871 -5.407,6.873 -6.558,11.042 -1.098,3.977 -1.788,11.071 0.048,14.853 5.265,10.845 15.367,11.877 25.882,8.557 2.543,-0.803 3.997,-2.63 5.188,0.133 1.237,2.87 1.833,5.476 1.335,8.643 -1.239,7.88 -11.712,7.979 -17.894,8.153 -3.741,0.105 -5.103,-1.122 -8.317,-2.36 -2.49,-0.959 -5.318,-1.536 -7.892,-0.604 -3.241,1.174 -5.119,4.643 -5.382,7.925 -0.834,10.403 5.483,15.554 14.773,18.333 2.888,0.864 11.548,2.311 7.76,7.458 -2.093,2.843 -4.1,5.952 -5.379,9.257 -2.26,5.838 -2.356,11.172 0.426,16.834 0.854,1.736 3.44,0.215 2.591,-1.514 -4.109,-8.362 0.077,-16.138 4.953,-23.064 2.624,-3.727 1.304,-7.229 -2.492,-9.475 -5.065,-2.996 -11.282,-2.669 -16.057,-6.5 -4.187,-3.358 -6.409,-16.774 1.8,-16.689 2.86,0.03 4.708,1.729 7.195,2.759 2.189,0.907 5.38,0.658 7.657,0.594 4.506,-0.127 11.323,-0.451 14.973,-3.41 5.447,-4.415 6.338,-15.25 1.18,-20.408 -0.875,-0.876 -1.823,-0.745 -2.904,-0.497 -2.935,0.673 -5.76,2.052 -8.712,2.781 -7.349,1.813 -17.557,-1.488 -18.389,-10.334 -1.259,-13.389 5.447,-23.344 18.676,-26.25 5.215,-1.146 10.37,0.36 15.471,-1.167 5.198,-1.557 9.478,-4.893 11.816,-9.795 1.829,-3.834 0.752,-8.729 0.532,-12.811 -0.224,-4.152 -1.02,-8.158 -3.966,-11.248 -2.978,-3.125 -6.391,-2.34 -9.586,-0.103 -2.163,1.514 -3.79,3.981 -5.537,5.937 -2.604,2.917 -5.41,5.624 -8.552,7.958 -4.973,3.693 -10.268,5.086 -16.301,3.713 -3.024,-0.688 -5.416,-2.49 -6.391,-5.483 -1.507,-4.627 0.693,-8.182 4.163,-10.985 C 72.208,97.658 81.426,91.933 79.531,81.517 78.662,76.74 76.893,69.182 73.443,65.491 69.024,60.763 66.318,59.548 59.679,59.718 c -5.359,0.138 -11.166,1.924 -15.454,5.154 -5.183,3.905 -8.182,10.079 -11.04,15.75 -5.608,11.128 -8.509,24.03 -4.299,36.061 2.236,6.388 6.702,12.616 7.087,19.504 0.427,7.625 -3.785,14.948 -6.703,21.704 -2.169,5.024 -3.811,10.398 -3.204,15.92 0.809,7.352 8.815,11.545 8.815,19.315 0,6.758 -0.455,12.238 -3.641,18.314 -3.815,7.276 -9.652,8.546 -17.071,6.178 C -1.282,212.686 3.256,190.83 4.591,178.69 c 0.291,-2.645 1.531,-4.352 2.236,-6.739 0.82,-2.774 1.654,-5.559 2.448,-8.344 1.585,-5.565 0.422,-10.653 -2.037,-15.729 -3.201,-6.607 -4.765,-13.834 -3.096,-21.213 0.679,-3.003 3.179,-6.237 4.262,-9.245 1.117,-3.102 1.53,-6.424 1.768,-9.693 C 10.574,102.183 9.966,96.794 7.552,91.795 5.963,88.504 5.061,85.514 4.455,81.923 3.539,76.496 3.985,73.04 6.802,68.309 c 1.728,-2.903 3.251,-6.307 5.64,-8.696 1.8,-1.8 2.098,-4.038 2.986,-6.411 1.94,-5.184 0.889,-9.176 0.376,-14.48 -0.879,-9.09 -0.636,-19.233 3.721,-27.471 2.112,-3.994 5.578,-6.671 9.926,-7.792 6.881,-1.772 10.79,1.847 12.804,8.017 1.294,3.965 2.057,8.03 3.831,11.833 0.216,0.462 1.249,1.085 1.501,1.279 0.717,0.551 0.838,2.194 1.162,3.034 0.734,1.903 2.222,3.251 3.875,4.351 2.706,1.8 7.73,1.88 10.514,0.25 4.916,-2.879 6.538,-9.844 9.168,-14.58 1.856,-3.342 4.199,-6.401 6.664,-9.31 3.137,-3.703 5.679,-4.729 10.371,-3.632 6.803,1.59 11.749,7.337 13.562,13.859 1.779,6.398 -1.829,12.28 -2.09,18.624 -0.126,3.066 -1.025,6.084 -1.21,9.161 -0.164,2.73 0.917,5.214 1.731,7.756 2.163,6.751 5.135,17.429 13.884,17.89 4.437,0.233 7.389,-3.251 9.897,-6.506 3.977,-5.16 6.764,-10.732 6.886,-17.333 0.045,-2.457 -1.306,-3.937 -2.559,-5.957 -1.701,-2.744 -1.185,-8.222 -1.014,-11.335 0.48,-8.74 5.298,-16.146 14.653,-13.742 5.741,1.475 8.528,5.668 10.404,10.929 1.164,3.263 3.07,6.621 6.894,7.006 2.227,0.224 4.688,1.657 6.973,1.22 4.213,-0.807 7.291,3.665 9.871,6.245 4.743,4.744 7.41,12.108 8.73,18.534 0.693,3.377 0.626,6.875 0.007,10.25 -0.516,2.81 -2.338,8.288 -5.48,9.277 -6.677,2.103 -14.498,-1.47 -21.425,-0.823 -5.1,0.477 -7.918,2.991 -11.473,6.255 -3.487,3.202 -7.556,6.715 -9.335,11.245 -1.659,4.223 -1.132,8.033 0.836,12.054 2.338,4.777 11.591,2.743 15.545,2.743 6.212,0 9.97,4.765 16.02,5.083 4.929,0.259 9.753,1.089 14.46,-0.852 4.562,-1.88 6.542,-6.683 8.825,-10.679 1.725,-3.018 4.581,-5.819 7.844,-6.977 5.797,-2.058 10.761,5.068 13.447,8.965 3.665,5.315 6.717,11.069 9.343,16.946 2.363,5.288 5.891,10.429 3.295,16.449 -1.64,3.805 -5.986,4.407 -9.585,3.695 -1.532,-0.303 -3.815,-2.835 -5.535,-3.529 -3.899,-1.573 -7.52,-1.873 -11.114,0.561 -3.212,2.174 -5.122,6.116 -6.89,9.424 -1.104,2.066 -2.183,4.026 -3.684,5.839 -2.944,3.555 -8.857,-0.306 -11.003,-2.566 -6.868,-7.237 -7.066,-18.942 -19.105,-19.417 -9.986,-0.394 -18.024,6.104 -22.732,14.381 -2.71,4.766 -3.26,10.413 -6.146,15.019 -3.187,5.085 -9.623,8.496 -14.271,12.083 -7.828,6.039 -12.876,12.796 -11.684,23.04 0.685,5.882 3.665,11.135 3.531,17.16 -0.095,4.275 -2.992,5.246 -5.279,7.935 -2.075,2.44 -3.994,4.985 -5.719,7.683 -2.569,4.018 -4.486,9.166 -3.832,13.997 0.834,6.162 4.541,10.463 9.208,14.318 3.309,2.734 7.617,5.5 11.974,5.646 4.701,0.157 9.008,-2.406 12.491,-5.287 3.871,-3.201 6.747,-7.699 9.087,-12.078 0.633,-1.184 2.451,-3.899 2.305,-5.34 -0.354,-3.508 -0.969,-6.948 -1.683,-10.399 -1.568,-7.578 -3.451,-15.131 -2.225,-22.906 1.179,-7.479 11.268,-10.519 17.165,-13.399 4.501,-2.198 7.001,-7.252 9.073,-11.505 1.467,-3.01 2.863,-6.201 5.119,-8.723 2.994,-3.349 9.331,-2.292 12.878,-0.786 5.633,2.393 9.168,8.081 12.253,13.052 2.166,3.49 3.888,8.595 8.193,9.778 2.355,0.647 6.763,-0.891 7.173,-3.711 0.375,-2.576 0.028,-4.903 -0.269,-7.477 -0.293,-2.543 1.161,-4.491 3.489,-5.313 2.243,-0.792 4.331,1.55 5.657,2.921 2.805,2.901 4.451,7.215 8.898,7.341 4.752,0.133 6.037,-5.422 7.224,-8.847 2.631,-7.593 6.085,-15.184 15.225,-15.819 3.869,-0.269 7.671,1.537 10.907,3.436 4.619,2.71 5.415,6.01 6.054,10.986 0.744,5.8 3.631,9.178 7.073,13.704 3.379,4.442 5.126,10.627 5.617,16.115 0.383,4.276 -1.455,14.265 -7.536,14.002 -5.765,-0.25 -9.977,-5.748 -13.401,-9.735 -6.148,-7.157 -13.091,-12.766 -22.475,-7.306 -3.509,2.042 -7.076,6.493 -7.596,10.593 -0.549,4.34 -1.181,7.422 -4.47,10.501 -3.605,3.375 -9.024,3.767 -13.279,1.596 -3.176,-1.62 -3.934,-5.232 -5.315,-8.203 -1.04,-2.235 -2.549,-4.202 -4.165,-6.042 -3.436,-3.911 -9.784,-6.956 -14.687,-8.298 -10.752,-2.945 -22.421,4.462 -28.777,12.877 -6.616,8.759 -5.647,20.348 1.287,28.489 7.269,8.534 19.895,11.104 26.349,20.237 2.698,3.818 5.397,7.038 10.114,8.385 2.644,0.755 5.784,0.688 8.496,1.093 1.809,0.27 3.842,0.047 5.521,-0.694 3.666,-1.616 6.045,-4.679 8.313,-7.866 1.498,-2.104 2.904,-4.243 4.592,-6.205 0.794,-0.922 1.683,-1.777 2.504,-2.675 2.4,-2.624 4.275,-2.616 7.579,-2.568 6.112,0.088 12.126,-1.747 17.72,-4.035 6.845,-2.8 14.79,-9.661 22.505,-7.59 14.893,3.999 20.201,21.036 17.665,34.691 -0.74,3.988 -2.47,3.99 -5.983,5.222 -2.992,1.049 -5.912,2.274 -8.932,3.25 -3.359,1.085 -9.251,2.651 -11.557,-1.046 -1.869,-3 -3.477,-5.01 -6.194,-7.398 -7.291,-6.407 -17.885,-7.556 -25.717,-1.524 -6.973,5.37 -9.573,15.018 -8.773,23.447 0.212,2.229 0.888,4.256 1.794,6.298 1.515,3.412 2.255,6.664 2.943,10.315 0.881,4.665 3.495,9.415 5.719,13.583 1.715,3.213 4.055,6.221 7.444,7.73 4.212,1.875 8.521,-0.472 12.128,-2.557 3.885,-2.245 7.427,-5.064 11.236,-7.434 3.631,-2.259 6.295,-3.441 8.795,-7.071 2.795,-4.056 4.349,-7.767 8.405,-10.836 2.516,-1.903 5.57,-3.083 8.394,-0.762 2.984,2.454 2.939,7.981 2.474,11.448 -0.486,3.618 -1.418,6.97 -0.942,10.644 0.578,4.468 4.008,7.632 3.997,12.385 -0.013,5.802 -0.821,10.004 -6.246,13.023 -4.026,2.241 -7.919,4.375 -11.312,7.531 -1.417,1.316 0.71,3.432 2.124,2.117 z"
   id="path10"
   inkscape:connector-curvature="0"
   style="fill:#00ff00" /><path
   d="M 10.381,3.551 C 11.821,4.843 9.502,9.5 9.353,11.104 8.794,17.089 8.613,23.146 8.436,29.157 8.32,33.157 7.417,37.051 7.327,41.076 7.24,44.881 7.748,48.721 7.211,52.508 6.708,56.053 5.427,59.422 5.304,63.035 5.111,68.64 5.436,74.074 4.655,79.677 c -1.921,13.792 -2.27,27.843 -3.497,41.72 -0.802,9.07 -1.846,18.228 -1.801,27.417 0.035,7.211 0.238,14.467 0.047,21.676 -0.052,1.929 -0.456,3.527 -0.801,5.425 -0.596,3.279 -0.227,6.75 -0.219,10.058 0.008,3.432 -0.004,6.864 -0.004,10.297 0,5.296 -1.748,13.963 1.758,18.388 0.696,0.878 1.525,1.151 2.271,2.064 0.881,1.079 1.047,2.635 1.845,3.797 2.023,2.945 5.83,4.597 9.253,5.081 4.8,0.677 10.214,-0.048 15.088,-0.048 4.166,0 8.428,-0.261 12.589,-0.075 4.492,0.201 9.036,2.252 13.507,2.793 5.691,0.689 11.053,1.281 16.812,1.281 8.372,0 16.745,0 25.117,0 7.692,0 15.385,0 23.077,0 3.638,0 7.274,0 10.912,0 7.503,0 14.61,-1.099 22.089,-1.774 16.954,-1.531 34.216,-1.144 51.112,0.076 6.551,0.473 13.184,-0.541 19.729,0.049 9.618,0.867 19.332,1.768 28.997,1.708 2.613,-0.016 5.234,-0.063 7.849,-0.031 3.897,0.047 5.792,-1.107 9.293,-2.793 2.903,-1.397 4.09,-2.393 5.625,-5.303 3.339,-6.33 4.921,-11.58 4.146,-18.828 -0.269,-2.514 -1.362,-4.662 -2.146,-7.094 -2.512,-7.798 -4.985,-15.597 -8.279,-23.117 -1.273,-2.907 -3.096,-5.485 -4.559,-8.31 -4.243,-8.194 -7.294,-17.014 -11.396,-25.31 -2.274,-4.6 -4.613,-9.031 -7.866,-13.051 -2.206,-2.393 -4.328,-4.857 -6.365,-7.396 -2.14,-3.137 -4.175,-6.339 -6.106,-9.607 -2.444,-3.546 -5.391,-6.743 -8.054,-10.12 -3.573,-4.534 -6.366,-9.709 -10.273,-13.982 -2.749,-3.006 -6.093,-5.045 -8.717,-8.18 -3.953,-4.719 -7.181,-10.218 -11.419,-14.699 -3.896,-4.121 -8.964,-6.993 -12.875,-11.173 -3.249,-3.473 -5.804,-7.427 -10.287,-9.361 -8.116,-3.502 -12.031,-11.845 -18.137,-17.756 -4.999,-4.841 -10.773,-7.448 -17.593,-8.443 -2.588,-0.377 -5.006,-1.314 -7.572,-1.808 -2.84,-0.546 -5.503,-0.725 -8.255,-1.644 C 115.969,10.408 112.874,9.718 109.104,9.258 104.709,8.723 100.139,9.032 95.801,8.333 93.05,7.889 91.019,7.491 88.182,7.548 83.516,7.642 79.834,6.829 75.336,5.574 71.983,4.639 68.621,2.594 65.117,2.503 62.734,2.441 60.582,1.805 58.295,1.8 57.511,1.904 56.726,2.008 55.941,2.112 54.134,1.913 52.371,1.532 50.647,0.968 50.226,1.117 49.841,1.331 49.493,1.61 48.533,1.661 47.589,1.548 46.658,1.274 44.453,1.008 43.286,1.441 41.263,1.602 38.454,1.826 36.025,0.559 33.283,0.474 31.844,0.429 31.203,1.03 29.991,1.084 27.567,1.192 25.745,0.772 23.286,1.584 22.423,1.869 21.307,2.397 20.432,2.604 19.148,2.906 17.86,2.326 16.551,2.723 16.494,2.999 16.437,3.276 16.38,3.552"
   id="clickable-path-1"
   inkscape:connector-curvature="0"
   style="fill:none"
   inkscape:label="#path16" /><path
   d="m 56.381,226.551 c 2.188,0.277 3.496,1.671 4.797,3.249 4.057,4.92 8.037,10.052 11.449,15.449 1.748,2.766 3.241,5.649 4.729,8.555 1.578,3.08 3.826,5.707 5.387,8.787 3.734,7.368 6.506,15.179 10.909,22.251 3.564,5.725 6.317,11.646 8.726,17.944 2.793,7.302 6.282,14.479 8.861,21.836 2.264,6.456 3.492,13.573 5.188,20.232 1.164,4.566 2.299,9.369 2.935,14.026 0.528,3.873 3.126,5.977 5.868,8.587 4.653,4.431 9.074,5.089 14.866,7.058 6.993,2.376 13.903,3.654 21.218,4.801 2.366,0.37 4.759,1.107 7.149,1.273 4.616,0.321 9.258,-0.16 13.895,0.175 9.49,0.686 19.033,0.558 28.449,2.055 2.812,0.447 5.78,0.345 8.551,0.917 3.342,0.689 6.123,1.821 9.641,1.881 7.448,0.125 14.932,-0.043 22.382,-0.071 5.627,-0.022 11.021,1.043 16.609,0.992 4.591,-0.041 9.003,0.29 13.465,-1 2.669,-0.771 6.057,-1.42 7.923,-3.584 4.325,-5.016 4.8,-11.318 5.781,-17.549 1.471,-9.329 3.108,-18.666 3.271,-28.165 0.126,-7.355 -0.75,-14.535 -1.08,-21.865 -0.321,-7.151 -2.111,-14.148 -1.964,-21.307 0.149,-7.298 0.295,-15.914 -1.707,-23.055 -2.111,-7.534 -2.263,-16.015 -5.022,-23.362 -1.333,-3.547 -4.642,-6.444 -6.326,-9.962 -1.5,-3.133 -3.643,-5.339 -6.723,-6.941 -2.557,-1.331 -4.025,-0.048 -6.847,-0.18 -4.298,-0.201 -8.472,-0.026 -12.781,-0.026 -10.396,0 -20.791,0 -31.187,0 -13.769,0 -27.339,0.5 -41.108,0.5 -4.159,0 -8.322,-0.304 -12.48,-0.273 -3.651,0.027 -7.171,0.818 -10.808,0.926 -6.406,0.19 -12.713,0.903 -19.13,0.909 -5.812,0.005 -11.673,0.126 -17.453,-0.528 -1.616,-0.183 -3.598,-1.05 -5.225,-0.649 -0.976,0.488 -1.908,1.041 -2.798,1.674 -1.965,0.565 -3.962,0.743 -5.993,0.542 -7.972,-0.802 -16.392,-2.132 -24.487,-1.123 -1.155,0.144 -1.917,0.635 -3.028,0.851 -2.392,0.465 -6.402,-0.448 -8.772,-1.075 -2.498,-0.662 -4.488,-0.759 -7.128,-0.755"
   id="clickable-path-2"
   inkscape:connector-curvature="0"
   style="fill:none"
   inkscape:label="#path18" /><path
   d="m 126.381,371.551 c -0.071,3.314 -1.183,5.493 -1.806,8.758 -0.864,4.521 -1.797,8.474 -3.097,12.925 -1.502,5.145 -3.124,10.207 -4.827,15.291 -1.717,5.125 -3.082,10.848 -5.47,15.706 -1.966,4 -4.695,7.735 -6.827,11.665 -2.1,3.87 -4.834,7.086 -7.719,10.378 -3.631,4.142 -5.698,9.065 -8.768,13.548 -2.773,4.049 -2.656,7.948 -3.71,12.685 -1.037,4.664 -3.311,9.728 -0.87,14.24 2.624,4.854 5.638,11.357 10.071,14.74 6.677,5.096 15.748,6.153 23.193,9.667 8.18,3.86 14.75,10.303 22.754,14.419 7.856,4.041 16.148,7.159 24.119,10.954 9.006,4.286 16.975,10.486 25.13,16.146 4.248,2.948 8.237,5.176 12.946,7.305 5.928,2.679 10.7,6.469 16.986,8.373 4.606,1.396 9.263,2.646 13.839,4.175 3,1.002 5.985,2.207 9.019,3.098 3.464,1.018 6.81,0.445 10.222,1.147 3.724,0.766 8.259,1.595 12.013,0.372 5.946,-1.938 9.822,-7.258 12.578,-12.559 4.129,-7.942 8.765,-15.502 12.071,-23.868 1.522,-3.852 2.283,-7.861 3.351,-11.851 1.932,-7.221 4.625,-14.176 6.578,-21.396 2.766,-10.219 8.046,-20.367 9.146,-30.944 0.324,-3.123 -0.142,-6.162 0.021,-9.266 0.141,-2.685 0.842,-5.369 1.055,-8.069 0.851,-10.775 1.684,-21.631 0.774,-32.566 -0.369,-4.434 -0.394,-9.081 -0.948,-13.485 -0.501,-3.974 -2.391,-7.065 -3.604,-10.777 -0.888,-2.717 -1.25,-5.514 -2.271,-8.217 -0.55,-1.456 -0.424,-3.408 -0.924,-4.682 -0.436,-1.111 -1.785,-2.614 -2.98,-2.963 -0.93,-0.271 -2.035,0.103 -3.048,-0.167 -1.43,-0.382 -1.446,-0.632 -2.905,-0.585 -2.176,0.068 -3.35,1.132 -5.924,0.604 -1.92,-0.394 -3.208,-0.743 -5.121,-0.797 -2.973,-0.085 -5.914,-0.05 -8.854,-0.25 -2.474,-0.168 -0.566,-0.314 -3.013,0.023 -2.764,0.382 -4.837,-0.007 -7.56,-0.535 -5.53,-1.073 -11.145,-1.179 -16.696,-2.017 -7.54,-1.137 -15.247,0.216 -22.855,-0.955 -5.189,-0.798 -9.955,-2.236 -15.285,-2.318 -4.947,-0.076 -9.911,0.048 -14.859,0.048 -4.735,0 -9.517,0.184 -14.249,0.026 -1.514,-0.05 -2.626,-0.233 -4.092,-0.503 -1.493,-0.274 -3.645,-1.077 -5.118,-1.104 -2.501,-0.045 -5.068,0.989 -7.673,0.655 -2.253,-0.289 -4.334,-1.393 -6.574,-1.876 -2.412,-0.521 -3.775,-0.315 -5.908,-0.396 -3.669,-0.137 -7.3,-1.897 -10.754,-2.583 -1.936,-0.385 -3.133,0.348 -5.141,-0.61 -2.421,-1.154 -2.478,-1.966 -3.418,-4.61"
   id="clickable-path-3"
   inkscape:connector-curvature="0"
   style="fill:none"
   inkscape:label="#path20" /><path
   d="m 11.381,512.551 c 0,33.396 0,66.794 0,100.19 0,10.802 0.052,21.604 -0.023,32.406 -0.059,8.533 1.75,17.026 2.075,25.542 0.282,7.394 -0.055,14.869 -0.052,22.272 10e-4,3.485 -0.446,7.364 0.199,10.827 0.602,3.226 1.594,5.527 1.774,8.952 0.337,6.407 1.729,9.771 7.436,12.734 3.803,1.976 6.559,5.739 10.588,7.272 3.095,1.179 7.655,1.336 10.905,0.625 3.461,-0.757 6.475,-1.74 10.072,-2.119 6.705,-0.708 13.631,0.093 20.262,-0.851 10.688,-1.521 21.045,-5.314 31.497,-7.876 9.009,-2.207 18.272,-3.544 27.251,-5.859 7.524,-1.939 14.684,-5.973 21.607,-9.402 7.744,-3.836 15.565,-7.387 23.451,-10.914 14.292,-6.394 25.706,-15.089 36.392,-26.372 6.521,-6.886 12.57,-13.588 16.965,-22.04 2.596,-4.992 3.833,-10.033 5.743,-15.259 3.943,-10.791 9.074,-20.794 11.929,-32.007 1.092,-4.29 1.981,-8.63 2.726,-12.988 0.292,-1.705 0.765,-4.366 0.045,-6.007 -10.042,-1.598 -19.455,-6.641 -28.753,-10.454 -5.634,-2.311 -11.28,-4.009 -16.544,-7.15 -8.725,-5.208 -18.664,-7.546 -27.512,-12.472 -7.278,-4.053 -14.789,-7.122 -22.198,-10.836 -5.805,-2.91 -11.441,-6.529 -17.127,-9.684 -5.102,-2.831 -9.329,-6.825 -14.576,-9.448 -6.448,-3.224 -12.984,-6.785 -19.21,-10.413 -3.956,-2.306 -8.454,-4.169 -12.651,-5.894 -4.209,-1.729 -7.584,-4.521 -11.509,-6.574 -2.439,-1.276 -5.163,-1.718 -7.766,-2.426 -1.423,-0.387 -2.728,-1.262 -4.17,-1.602 -2.844,-0.668 -5.271,0.519 -8.043,0.824 -5.315,0.586 -10.05,1.599 -15.497,1.251 -4.08,-0.261 -7.967,1.122 -11.771,2.726 -3.804,1.604 -7.653,3.854 -11.536,4.82 -1.374,0.343 -3.239,0.428 -4.683,0.657 -1.959,0.312 -5.812,3.422 -7.383,2.692 1.362,-1.049 2.725,-2.098 4.087,-3.146"
   id="clickable-path-4"
   inkscape:connector-curvature="0"
   style="fill:none"
   inkscape:label="#path22" />
</svg>