<svg xmlns="http://www.w3.org/2000/svg" xmlns:xlink="http://www.w3.org/1999/xlink" version="1.2" baseProfile="tiny" x="0px" y="0px" viewBox="0 0 287.551 665.891" xml:space="preserve" style="zoom: 1;"><g id="playlists"><path fill="#FFFFFF" d="M176.177,535.814c-0.694,0.367-1.394,0.746-2.093,1.129c0.592-0.214,1.159-0.476,1.688-0.813 C175.92,536.036,176.042,535.918,176.177,535.814z"></path><path fill="#FFFFFF" d="M76.645,498.334c0.76-0.247,1.429-0.592,2.008-1.038c0.578-0.443,1.042-1.015,1.392-1.713 c0.349-0.695,0.524-1.561,0.524-2.595s-0.175-1.843-0.524-2.425c-0.35-0.581-0.814-0.999-1.392-1.255 c-0.579-0.253-1.248-0.381-2.008-0.377c-0.761,0.005-1.378,0.073-2.2,0.208l-5.394,0.915v9.766l5.394-0.915 C75.267,498.772,75.884,498.582,76.645,498.334z"></path><polygon fill="#FFFFFF" points="131.595,482.185 131.503,482.201 127.258,494.854 135.703,493.467"></polygon><path fill="#FFFFFF" d="M213.202,458.546c-0.052-1.812-0.57-2.891-1.197-4.568c-0.758-2.032-0.994-4.475-1.984-6.401 c-0.545-1.06-1.489-1.767-2.111-2.773c-1.396-2.259-2.633-4.735-5.029-5.959c-1.719-0.879-3.568-1.121-5.239-2.245 c-1.917-1.288-3.878-2.317-5.531-3.899c-1.542-1.476-3.449-2.213-5.208-3.335c-3.319-2.116-7.93-1.832-11.717-2.158 c-4.434-0.382-8.875-0.572-13.318-0.851c-0.872,0.756-1.781,1.439-2.93,2.031c-0.948,0.489-1.197,0.787-2.08,1.621 c-1.002,0.948-2.29,1.201-3.281,2.019c-0.607,0.5-0.908,1.309-1.633,1.667c-0.811,0.402-2.005,0.341-2.895,0.736 c-0.743,0.33-1.462,0.924-2.254,1.126c-0.76,0.193-1.505-0.028-2.264,0.186c-0.978,0.276-0.892,0.675-1.541,1.139 c-0.889,0.635-1.497-0.043-2.416,0.29c-0.255,2.379-2.421,1.337-3.93,2.069c-0.618,0.3-1.127,0.781-1.741,1.1 c-1.326,0.687-2.71,0.75-4.128,1.089c-2.087,0.498-3.308,2.136-5.354,2.692c-1.16,0.315-0.888,0.324-1.771,1.094 c-1.055,1.113-2.306,1.926-3.75,2.437c-0.988,0.321-1.966,0.675-2.932,1.058c-1.404,0.913-1.835,2.589-3.353,3.496 c-1.173,0.7-2.154,0.897-3.162,1.849c-1.406,1.326-2.112,3.182-3.046,4.841c-0.918,1.63-1.816,2.369-2.946,3.732 c-0.797,0.962-1.493,1.999-2.001,3.094c-0.564,1.217-1.437,2.286-1.954,3.513c-0.288,0.682-0.307,1.362-0.695,2.047 c-0.686,1.211-1.552,1.91-2.002,3.233c-0.621,1.826-1.815,2.643-2.943,4.181c-0.454,0.618-0.71,1.216-1.241,1.69l5.431-0.9v26.562 l16-2.61v6.025l-23,3.787v-32.021c0,0.027-0.105,0.041-0.14,0.075c-0.714,0.719-0.4,0.721-1.451,1.326 c-1.503,0.864-3.542,2.194-5.396,2.564c0.829,0.801,1.441,1.756,1.831,2.876c0.411,1.181,0.615,2.44,0.615,3.778 c0,1.309-0.207,2.628-0.618,3.958c-0.411,1.33-1.065,2.557-1.963,3.677c-0.897,1.121-2.062,2.095-3.491,2.924 c-1.431,0.829-2.992,1.41-5.03,1.745l-7.356,1.237v11.685l-8,1.177v-28.007c-1,0.241-2.137,0.629-3.316,0.778 c-0.853,0.107-1.261-0.261-2.067-0.205c-0.821,0.057-1.661,0.562-2.483,0.702c-1.606,0.275-2.921,0.757-4.461,1.138 c-0.987,0.245-1.524-0.388-2.412-0.272c-0.885,0.114-1.868,1.251-2.745,1.588c-0.934,0.358-2.168,0.507-3.124,0.879 c-3.732,7.374-2.647,18.814,0.196,25.953c3.275,8.222,9.927,13.338,15.677,19.714c1.848,2.049,3.735,4.186,4.735,6.386v-19.022 l8-1.178v26.562l16-2.61v6.025l-16.228,2.628c0.417,0.847,0.714,1.698,1.125,2.559c4.797,10.033,11.45,16.673,21.563,21.492 c9.512,4.533,20.997,6.991,31.332,3.75c3.587-1.125,6.804-2.757,9.795-4.732c2.225-3.226,4.41-6.493,6.605-9.732 c2.849-4.206,3.851-9.419,7.034-13.437c2.672-3.372,5.34-7.467,8.717-10.183c2.861-2.3,6.332-3.904,9.398-5.99 c-0.976-0.234-1.882-0.57-2.699-1.032c-1.293-0.731-2.32-1.765-3.081-3.101s-1.126-3.01-1.095-5.021l6.937-1.142 c0,1.095,0.197,1.993,0.593,2.686c0.396,0.697,0.92,1.227,1.575,1.592c0.654,0.363,1.422,0.587,2.305,0.671 c0.882,0.083,1.795,0.046,2.738-0.108c0.639-0.105,1.323-0.27,2.054-0.496c0.126-0.039,0.242-0.096,0.365-0.141 c0.699-0.383,1.398-0.762,2.093-1.129c0.454-0.35,0.864-0.738,1.193-1.203c0.426-0.601,0.64-1.314,0.64-2.135 c0-0.883-0.281-1.553-0.845-2.006c-0.563-0.456-1.301-0.792-2.214-1.008c-0.912-0.214-1.947-0.363-3.104-0.447 s-2.327-0.196-3.515-0.336c-1.218-0.103-2.403-0.282-3.56-0.533c-1.156-0.25-2.19-0.65-3.104-1.201 c-0.913-0.549-1.65-1.304-2.213-2.26c-0.563-0.957-0.845-2.182-0.845-3.674c0-1.673,0.357-3.184,1.073-4.533 c0.715-1.351,1.649-2.532,2.807-3.544c1.155-1.01,2.464-1.834,3.924-2.469c1.461-0.635,2.922-1.074,4.382-1.314 c1.704-0.279,3.339-0.358,4.906-0.234c1.567,0.123,2.959,0.51,4.177,1.161c1.217,0.653,2.183,1.581,2.898,2.788 c0.714,1.206,1.072,2.752,1.072,4.639l-6.938,1.14c-0.062-0.964-0.268-1.736-0.617-2.317c-0.35-0.582-0.813-1.007-1.391-1.278 c-0.578-0.27-1.24-0.419-1.986-0.449c-0.745-0.029-1.559,0.028-2.441,0.173c-0.578,0.095-1.156,0.252-1.734,0.467 c-0.578,0.219-1.104,0.517-1.574,0.898c-0.473,0.383-0.859,0.826-1.164,1.333c-0.305,0.506-0.457,1.108-0.457,1.809 c0,0.639,0.121,1.138,0.365,1.492c0.244,0.355,0.723,0.643,1.438,0.858c0.714,0.219,1.703,0.391,2.966,0.518 s2.913,0.282,4.952,0.464c0.608,0.021,1.452,0.104,2.534,0.245c1.078,0.142,2.152,0.476,3.217,1.001 c1.064,0.524,1.985,1.309,2.762,2.354c0.664,0.894,1.026,2.092,1.121,3.559c4.067-3.604,7.527-8.043,9.004-12.843 c1.136-3.692,1.687-7.42,3.045-11.071c0.614-1.652,1.483-3.197,2.014-4.88c0.668-2.12,1.045-4.479,1.438-6.676 c0.36-2.02,0.638-4.229,1.676-6.03c1.658-2.875,4.019-5.312,5.883-8.032c3.375-4.925,5.125-11.103,5.228-17.057 C213.217,461.651,213.245,460.073,213.202,458.546z M127.944,474.75l7.348-1.206l12.186,30.585l-7.439,1.222l-2.464-6.852 l-12.186,2.003l-2.555,7.677l-7.212,1.185L127.944,474.75z M96.051,554.843l-7,1.179v-32.588l7-1.177V554.843z M126.574,544.259 c-0.578,1.373-1.438,2.617-2.579,3.733s-2.556,2.07-4.245,2.864c-1.688,0.794-3.644,1.375-5.865,1.739 c-1.796,0.295-3.537,0.36-5.226,0.197s-3.18-0.61-4.473-1.341c-1.294-0.73-2.32-1.765-3.081-3.101 c-0.761-1.335-1.126-3.009-1.095-5.022l6.937-1.14c0,1.096,0.198,1.991,0.594,2.687c0.395,0.695,0.92,1.226,1.574,1.59 s1.422,0.587,2.305,0.671c0.883,0.084,1.795,0.046,2.739-0.108c0.639-0.104,1.323-0.27,2.054-0.497 c0.73-0.226,1.415-0.544,2.054-0.953c0.639-0.41,1.171-0.915,1.598-1.519c0.425-0.602,0.639-1.314,0.639-2.135 c0-0.883-0.282-1.552-0.844-2.006c-0.564-0.456-1.301-0.791-2.214-1.006c-0.913-0.216-1.947-0.364-3.104-0.447 c-1.157-0.086-2.328-0.197-3.514-0.338c-1.218-0.103-2.404-0.282-3.56-0.533c-1.157-0.25-2.191-0.65-3.104-1.201 c-0.913-0.549-1.651-1.304-2.213-2.261c-0.563-0.956-0.845-2.181-0.845-3.673c0-1.673,0.357-3.184,1.073-4.534 c0.714-1.349,1.65-2.53,2.807-3.542c1.156-1.011,2.464-1.835,3.925-2.469c1.46-0.637,2.921-1.075,4.382-1.315 c1.703-0.28,3.339-0.357,4.906-0.235c1.567,0.123,2.959,0.511,4.176,1.163c1.216,0.652,2.183,1.581,2.898,2.787 c0.714,1.206,1.073,2.752,1.073,4.638l-6.938,1.14c-0.062-0.962-0.267-1.734-0.616-2.317c-0.35-0.581-0.814-1.006-1.392-1.277 c-0.579-0.27-1.24-0.42-1.985-0.45c-0.746-0.028-1.56,0.029-2.442,0.173c-0.579,0.097-1.157,0.252-1.734,0.468 c-0.578,0.218-1.104,0.518-1.575,0.898c-0.472,0.383-0.86,0.826-1.164,1.333c-0.305,0.505-0.457,1.108-0.457,1.809 c0,0.639,0.121,1.138,0.365,1.493c0.243,0.354,0.722,0.642,1.438,0.857c0.715,0.218,1.704,0.391,2.966,0.518 c1.262,0.129,2.914,0.282,4.953,0.465c0.608,0.021,1.453,0.102,2.533,0.245c1.08,0.141,2.152,0.475,3.218,1 c1.064,0.524,1.985,1.31,2.761,2.354c0.776,1.043,1.164,2.479,1.164,4.304C127.442,541.456,127.152,542.886,126.574,544.259z M156.051,518.411l-10,1.604v26.564l-7,1.177v-26.563l-10,1.605v-6.024l27-4.388V518.411z M162.051,489.149v12.505l-7,1.178 v-12.688l-11.797-17.935l8.113-1.32l7.662,11.619l7.597-14.116l7.753-1.312L162.051,489.149z"></path></g><g id="articles"><g><path fill="#FFFFFF" d="M218.186,28.699c-1.257-1.093-3.141-1.392-5.654-1.392h-12.48v14h12.48c2.514,0,4.397-0.792,5.654-1.909 c1.256-1.116,1.885-2.924,1.885-5.437C220.071,31.542,219.442,29.793,218.186,28.699z"></path><path fill="#FFFFFF" d="M261.637,158.602c-0.535-0.978-1.245-1.748-2.129-2.307c-0.885-0.559-1.896-0.955-3.036-1.188 c-1.141-0.232-2.386-0.35-3.734-0.35c-0.884,0-1.769,0.094-2.652,0.279c-0.884,0.187-1.688,0.512-2.408,0.977 c-0.722,0.465-1.315,1.047-1.78,1.745c-0.465,0.698-0.697,1.582-0.697,2.652c0,0.978,0.186,1.77,0.559,2.374 c0.371,0.605,1.104,1.164,2.198,1.675c1.093,0.512,2.605,1.024,4.537,1.536c1.931,0.513,4.455,1.164,7.573,1.954 c0.931,0.187,2.223,0.524,3.874,1.012c1.651,0.489,3.292,1.269,4.921,2.339c0.246,0.161,0.477,0.347,0.711,0.524 c0.152-0.154,0.312-0.315,0.493-0.503c2.152-2.241,1.442-5.526,2.244-8.316c0.068-0.239,0.159-0.699,0.244-0.699h-9.975 C262.486,161.307,262.172,159.579,261.637,158.602z"></path><polygon fill="#FFFFFF" points="160.949,30.307 160.809,30.307 154.317,49.307 167.231,49.307"></polygon><path fill="#FFFFFF" d="M273.023987,142.171005 c-0.307,-0.987 -0.515,-2.142 -0.983,-3.077 c-0.535,-1.067 -1.371,-2.046 -1.864,-3.185 c-0.412,-0.95 -0.875,-1.603 -1.123,-3.603 h-29.002 v-49 h11 v40 h20.357 c0.898,-2 1.766,-5.078 2.655,-7.665 c0.906,-2.635 0.56,-5.905 0.309,-8.676 c-0.127,-1.397 -0.554,-2.659 -0.698,-4.065 c-0.179,-1.757 -0.34,-3.354 -0.846,-5.047 c-0.619,-2.078 -0.909,-4.739 -0.56,-6.895 c0.271,-1.667 1.209,-3.092 1.817,-4.633 c1.36,-3.449 1.986,-7.577 2.189,-11.265 c0.101,-1.822 -0.247,-3.267 -0.561,-5.036 c-0.358,-2.022 -0.266,-4.133 -0.324,-6.175 c-0.074,-2.529 -0.554,-4.486 -1.139,-6.878 c-0.535,-2.181 -1.49,-4.51 -2.627,-6.444 c-0.625,-1.065 -1.426,-1.843 -1.952,-2.954 c-0.688,-1.454 -0.806,-3.063 -0.793,-4.645 c0.006,-0.884 0.199,-1.207 0.456,-2.088 c0.271,-0.935 0.318,-1.675 0.524,-2.614 c0.397,-1.811 1.351,-3.716 1.913,-5.485 c0.566,-1.786 0.819,-3.433 0.754,-5.433 h-11.477 v41 h-11 v-41 h-15 v-9 h35.028 c-0.169,-1 -0.361,-0.996 -0.612,-1.456 c-0.937,-1.713 -2.645,-2.644 -3.813,-4.132 c-1.588,-2.019 -2.713,-4.439 -4.279,-6.45 c-1.822,-2.338 -5.317,-3.368 -7.94,-4.451 c-5.156,-2.13 -12.861,-2.759 -17.856,0.152 c-0.745,0.434 -1.228,1.095 -1.935,1.539 c-0.647,0.406 -1.41,0.444 -2.101,0.701 c-1.577,0.588 -2.774,0.622 -4.52,0.688 c-2.546,0.095 -4.84,0.342 -7.318,0.801 c-2.889,0.536 -5.442,0.585 -8.18,1.847 c-2.296,1.059 -5.074,1.467 -6.945,3.221 c-0.742,0.696 -1.403,1.655 -1.942,2.506 c-0.699,1.103 -1.115,2.979 -2.395,3.553 c-0.511,-0.515 -0.968,-0.326 -1.547,-0.591 c-0.694,-0.318 -1.025,-0.721 -1.787,-0.991 c-1.168,-0.415 -2.288,-0.632 -3.366,-1.294 c-1.076,-0.661 -2.015,-1.466 -3.22,-1.912 c-3.341,-1.237 -8.257,-0.508 -11.106,1.445 c-1.323,0.907 -2.404,2.093 -3.666,3.075 c-1.132,0.881 -2.39,1.585 -3.55,2.431 c-1.202,0.875 -2.51,1.674 -3.453,2.844 c-0.146,0.181 -0.275,0.464 -0.409,0.655 l17.101,45.819 h-11.377 l-3.77,-11 h-18.637 l-3.908,11 h-11.029 l13.812,-36.613 c-0.009,0.004 -0.02,-0.037 -0.028,-0.033 c-2.31,0.948 -4.855,1.973 -6.59,3.825 c-0.991,1.058 -1.612,2.373 -2.593,3.426 c-0.893,0.957 -2.062,1.566 -2.958,2.527 c-3.952,4.235 -5.774,10.469 -7.079,15.926 c-0.571,2.385 -0.441,4.837 -0.726,7.264 c-0.38,3.258 -0.827,6.648 -1.578,9.844 c-0.771,3.277 -2.049,6.531 -2.032,9.914 c0.005,1.052 -0.093,2.265 0.028,3.3 c0.261,2.249 2.072,4.396 2.871,6.472 c1.659,4.304 3.692,7.657 6.626,11.273 c2.614,3.223 4.96,6.524 8.284,9.085 c4.004,3.086 7.646,6.931 12.005,9.538 c1.009,0.604 1.999,0.779 2.861,1.462 c1.393,1.105 2.533,2.673 3.91,3.836 c0.777,0.656 1.653,0.967 2.437,1.57 c1.181,0.911 2.092,2.145 3.265,3.091 c1.268,1.023 2.492,2.081 3.652,3.23 c0.996,0.987 1.772,2.311 2.896,3.16 c2.598,1.966 5.575,3.453 7.502,6.244 c1.45,2.102 2.673,4.401 4.202,6.464 c2.744,3.704 2.766,8.26 3.766,12.762 v-18.57 h37 v9 h-26 v11 h24 v9 h-24 v12 h27 v9 h-19.127 c6.322,4 12.785,8.173 20.441,9.134 c5.225,0.656 10.612,0.639 15.896,-0.072 l6.97,-1.385 c6.579,-1.748 12.775,-4.74 18.04,-9.1 c0.232,-0.422 0.441,-0.862 0.611,-1.329 c0.131,-0.908 0.047,-1.924 -0.058,-2.93 c-0.645,0.813 -1.384,1.567 -2.229,2.255 c-1.745,1.42 -3.909,2.524 -6.491,3.315 c-2.583,0.791 -5.574,1.187 -8.97,1.187 c-2.747,0 -5.41,-0.338 -7.993,-1.012 c-2.582,-0.674 -4.863,-1.733 -6.84,-3.176 c-1.979,-1.442 -3.549,-3.488 -4.712,-5.722 s-1.722,-5.166 -1.675,-8.166 h10.609 c0,2 0.303,3.303 0.908,4.466 c0.604,1.164 1.406,2.21 2.407,2.931 c1.001,0.722 2.175,1.308 3.525,1.658 c1.349,0.349 2.745,0.549 4.188,0.549 c0.977,0 2.023,-0.068 3.141,-0.232 c1.117,-0.162 2.164,-0.469 3.141,-0.935 c0.978,-0.465 1.791,-1.102 2.443,-1.917 c0.651,-0.814 0.977,-1.848 0.977,-3.104 c0,-1.349 -0.43,-2.442 -1.291,-3.28 c-0.861,-0.838 -1.988,-1.536 -3.385,-2.094 c-1.396,-0.558 -2.979,-1.046 -4.746,-1.465 c-1.77,-0.419 -3.561,-0.884 -5.375,-1.396 c-1.862,-0.465 -3.678,-1.036 -5.445,-1.71 c-1.769,-0.674 -3.35,-1.546 -4.746,-2.618 c-1.396,-1.07 -2.525,-2.408 -3.386,-4.014 c-0.861,-1.605 -1.291,-3.548 -1.291,-5.828 c0,-2.559 0.546,-4.782 1.641,-6.666 c1.093,-1.885 2.523,-3.455 4.293,-4.712 c1.768,-1.256 3.769,-2.187 6.003,-2.792 c2.233,-0.604 4.467,-0.907 6.701,-0.907 c2.605,0 5.105,0.291 7.503,0.873 c2.396,0.583 4.525,1.525 6.388,2.827 c1.859,1.304 3.338,2.967 4.432,4.991 c0.905,1.675 1.414,3.664 1.57,5.93 c0.352,-0.825 0.705,-1.649 0.924,-2.516 c0.28,-1.105 0.37,-1.732 0.909,-2.85 c0.813,-1.688 0.81,-4.228 0.326,-6.071 C274.648987,147.018997 273.765991,144.559998 273.023987,142.171005  z M179.050995,132.307007 h-11 v-49 h11 V132.307007  z M230.332001,121.851997 c-1.163,2.513 -2.699,4.703 -4.606,6.471 c-1.909,1.769 -4.143,3.143 -6.701,4.073 c-2.561,0.93 -5.375,1.408 -8.446,1.408 c-3.816,0 -7.248,-0.657 -10.296,-1.983 s-5.619,-3.148 -7.713,-5.476 c-2.094,-2.327 -3.699,-5.059 -4.816,-8.2 c-1.116,-3.141 -1.675,-6.526 -1.675,-10.156 c0,-3.723 0.559,-7.177 1.675,-10.365 c1.117,-3.187 2.723,-5.967 4.816,-8.34 c2.094,-2.374 4.665,-4.234 7.713,-5.584 c3.048,-1.349 6.479,-2.024 10.296,-2.024 c2.745,0 5.341,0.396 7.783,1.187 c2.442,0.792 4.63,1.944 6.562,3.456 c1.93,1.513 3.525,3.232 4.781,5.465 c1.256,2.234 2.047,4.525 2.373,7.525 h-10.609 c-0.188,-1 -0.605,-2.255 -1.257,-3.302 c-0.652,-1.047 -1.466,-1.889 -2.443,-2.681 c-0.977,-0.791 -2.083,-1.368 -3.315,-1.812 c-1.233,-0.441 -2.525,-0.644 -3.874,-0.644 c-2.467,0 -4.562,0.487 -6.282,1.44 c-1.722,0.955 -3.118,2.238 -4.188,3.844 c-1.071,1.605 -1.85,3.435 -2.339,5.481 c-0.488,2.048 -0.732,4.167 -0.732,6.354 c0,2.094 0.244,4.131 0.732,6.108 c0.489,1.978 1.268,3.758 2.339,5.339 c1.069,1.583 2.466,2.852 4.188,3.805 c1.721,0.954 3.815,1.431 6.282,1.431 c3.351,0 5.968,-1.122 7.853,-3.17 c1.885,-2.047 3.037,-4.195 3.455,-8.195 h10.61 C232.216003,116.306999 231.494995,119.337997 230.332001,121.851997  z M221.537003,68.306999 c-0.605,-2 -0.978,-3.553 -1.117,-5.741 c-0.14,-2.187 -0.349,-4.324 -0.628,-6.326 c-0.373,-2.605 -1.164,-4.71 -2.373,-5.921 c-1.211,-1.21 -3.188,-2.012 -5.934,-2.012 h-11.434 v20 h-10 v-50 h26.389 c2.234,0 4.246,0.355 6.039,1.076 c1.791,0.722 3.326,1.708 4.606,2.963 c1.279,1.257 2.257,2.709 2.932,4.361 c0.674,1.652 1.013,3.432 1.013,5.339 c0,2.932 -0.663,5.468 -1.896,7.608 c-1.233,2.141 -3.083,3.769 -6.083,4.886 v0.14 c1,0.373 2.511,0.942 3.396,1.71 c0.884,0.768 1.628,1.675 2.187,2.723 c0.559,1.047 0.977,2.199 1.232,3.455 s0.436,2.513 0.529,3.769 c0.046,0.792 0.096,1.722 0.143,2.792 c0.046,1.071 0.129,2.164 0.246,3.28 c0.115,1.117 0.303,2.263 0.559,3.263 c0.256,1.001 0.641,1.635 1.153,2.635 H221.537003  z "></path></g></g><g id="entrevues"><g><path fill="#FFFFFF" d="M101.052,165.586c1-0.224,1.872-1.004,2.616-2.342c0.717-1.288,0.902-2.41,0.557-3.365 c-0.345-0.954-1.187-1.803-2.525-2.548l-6.395-3.555l-4.155,7.473l6.395,3.555C98.883,165.549,100.053,165.809,101.052,165.586z"></path><path fill="#FFFFFF" d="M204.55014,217.373108 c-0.003,-0.98 -0.006,-1.96 -0.001,-2.94 c0.009,-1.811 -0.239,-2.914 -0.725,-4.657 c-0.03,-0.11 -0.058,-0.229 -0.088,-0.342 c-1.77,-4.437 -5.249,-7.072 -8.78,-10.213 c-2.955,-2.629 -6.513,-5.9 -8.414,-9.389 c-1.997,-3.665 -4.261,-7.189 -5.366,-11.235 c-0.458,-1.675 -1.108,-3.541 -1.136,-5.265 c-0.022,-1.457 0.133,-2.933 -0.1,-4.371 c-0.711,-4.386 0.624,-10.69 -2.826,-14.236 l-5.386,-2.994 L159.701141,173.367096 l-5.838,-3.245 l12.029,-21.637 l-7.956,-4.423 l1.843,-3.314 c-0.982,-0.621 -1.98,-1.205 -2.993,-1.792 l-13.926,25.049 l-5.837,-3.245 l-1.163,-23.91 l-0.074,-0.041 l-9.879,17.77 l-5.465,-3.038 L135.199142,124.997101 l5.799,3.225 l1.179,23.967 l0.074,0.041 l8.979,-16.149 c-0.799,-0.586 -1.59,-1.382 -2.287,-1.9 c-1.109,-0.825 -2.099,-1.659 -3.314,-2.291 c-0.824,-0.429 -1.043,-0.438 -1.76,-1.21 c-1.248,-1.345 -2.151,-2.94 -3.205,-4.428 c-0.869,-1.227 -1.987,-2.132 -2.94,-3.273 c-1.435,-1.715 -3.449,-2.505 -5.549,-3.416 c-2.415,-1.046 -4.438,-3.206 -6.895,-4.073 c-0.831,-0.293 -1.394,0.015 -2.175,-0.196 c-1.104,-0.297 -2.421,-2.294 -3.394,-2.959 c-3.841,-2.626 -5.076,-7.198 -6.058,-11.601 c-0.488,-2.19 -0.135,-4.827 -0.104,-7.072 c0.009,-0.626 0.044,-1.255 0.042,-1.883 c-3.25,-7.06 -8.888,-14.196 -17.813,-11.703 c-6.219,1.737 -9.912,7.24 -12.294,12.93 c-2.154,5.144 -3.007,10.858 -5.422,15.863 c0.096,0.648 0.442,0.815 0.528,1.418 c0.194,1.375 -1.438,1.751 -2.304,2.391 c-0.424,0.313 -0.857,0.618 -1.287,0.926 c-3.655,4.251 -8.853,6.919 -13.34,10.181 c-2.616,1.901 -4.562,4.144 -6.218,6.614 c-0.302,0.6 -0.612,1.195 -0.937,1.805 c-0.573,1.077 -0.477,1.826 -0.461,3.07 c0.021,1.745 -0.189,3.636 -0.016,5.379 c0.16,1.606 0.663,3.061 0.571,4.712 c-0.125,2.267 -2.017,3.659 -3.167,5.42 c-1.361,2.085 -2.354,4.123 -3.251,6.47 c-1.244,3.249 -1.621,5.842 -1.627,9.242 c-0.003,1.484 0.021,2.969 -0.008,4.453 c-0.042,2.155 0.192,3.231 1.51,4.987 c1.646,2.194 1.833,4.679 3.829,6.72 c1.378,1.409 2.679,2.737 3.862,4.332 c0.938,1.264 1.291,2.045 2.579,2.801 c1.871,1.098 3.453,1.388 5.015,3.07 c0.126,0.136 0.245,0.28 0.364,0.424 l7.646,-13.752 l5.837,3.245 l-8.632,15.526 l-0.545,0.981 c-0.399,0.718 -0.73,1.459 -0.992,2.222 c-0.262,0.763 -0.344,1.521 -0.243,2.275 c0.101,0.753 0.411,1.493 0.931,2.221 c0.521,0.727 1.376,1.421 2.566,2.083 c2.032,1.129 3.692,1.469 4.989,1.031 c0.032,-0.011 0.066,-0.016 0.098,-0.028 c1.31,-0.489 2.516,-1.724 3.618,-3.707 l9.177,-16.506 l5.837,3.244 l-9.177,16.507 c-1.999,3.594 -4.487,5.706 -7.466,6.337 c-0.062,0.013 -0.125,0.017 -0.187,0.029 c2.468,4.212 6.082,8.069 9.771,11.082 c2.744,2.241 5.332,2.907 8.513,4.327 c2.495,1.113 4.701,2.611 7.123,3.832 c2.781,1.402 6.203,1.887 9.52,1.826 c-0.432,-0.602 -0.803,-1.23 -1.106,-1.886 c-0.627,-1.354 -0.92,-2.799 -0.878,-4.333 s0.53,-3.113 1.464,-4.734 l5.651,3.142 c-0.496,0.892 -0.756,1.738 -0.777,2.537 c-0.023,0.799 0.125,1.538 0.445,2.219 c0.319,0.68 0.787,1.312 1.403,1.899 c0.131,0.125 0.28,0.231 0.418,0.349 c0.509,0.434 1.052,0.833 1.657,1.168 c0.521,0.29 1.102,0.557 1.745,0.8 c0.643,0.244 1.293,0.388 1.952,0.429 c0.659,0.042 1.281,-0.058 1.87,-0.299 c0.587,-0.241 1.068,-0.696 1.44,-1.365 c0.4,-0.719 0.494,-1.429 0.284,-2.13 c-0.007,-0.023 -0.018,-0.045 -0.025,-0.068 c-0.216,-0.679 -0.598,-1.361 -1.158,-2.049 c-0.579,-0.711 -1.276,-1.439 -2.094,-2.186 c-0.818,-0.747 -1.635,-1.524 -2.449,-2.335 c-0.854,-0.799 -1.652,-1.64 -2.393,-2.523 c-0.743,-0.883 -1.327,-1.815 -1.754,-2.8 c-0.426,-0.983 -0.631,-2.03 -0.614,-3.14 c0.016,-1.11 0.362,-2.272 1.037,-3.487 c0.758,-1.362 1.707,-2.385 2.848,-3.063 c1.141,-0.68 2.367,-1.093 3.682,-1.24 c1.313,-0.146 2.655,-0.048 4.024,0.291 c1.369,0.339 2.648,0.84 3.838,1.501 c1.387,0.771 2.634,1.667 3.738,2.687 c1.104,1.02 1.959,2.151 2.565,3.397 c0.604,1.245 0.898,2.568 0.882,3.97 c-0.017,1.401 -0.453,2.872 -1.306,4.408 l-5.651,-3.141 c0.391,-0.821 0.589,-1.571 0.594,-2.25 c0.004,-0.679 -0.146,-1.298 -0.452,-1.857 c-0.306,-0.56 -0.728,-1.069 -1.266,-1.53 c-0.538,-0.462 -1.167,-0.893 -1.885,-1.293 c-0.471,-0.261 -0.97,-0.473 -1.495,-0.636 c-0.527,-0.163 -1.051,-0.227 -1.573,-0.192 c-0.521,0.035 -1.01,0.168 -1.464,0.402 c-0.455,0.234 -0.84,0.636 -1.157,1.207 c-0.289,0.52 -0.425,0.997 -0.405,1.429 c0.019,0.432 0.243,0.946 0.674,1.543 c0.431,0.597 1.085,1.316 1.962,2.161 c0.877,0.844 2.028,1.939 3.456,3.283 c0.44,0.375 1.027,0.938 1.763,1.687 c0.735,0.749 1.377,1.65 1.928,2.703 c0.411,0.785 0.696,1.64 0.857,2.565 c0.119,-0.004 0.238,-0.013 0.357,-0.017 c5.002,-0.147 9.773,0.473 14.71,1.124 c2.199,0.29 4.171,0.662 6.127,1.75 c1.55,0.862 2.087,2.076 2.995,3.623 c1.635,2.785 3.113,4.912 6.029,6.439 c0.756,0.396 1.784,0.701 2.593,1.079 c2.177,1.018 3.938,2.713 6.55,2.619 c2.025,-0.073 4.979,-1.254 6.807,-2.15 c2.668,-1.31 3.896,-3.767 6.146,-5.494 c2.637,-2.024 5.609,-3.597 8.025,-5.867 c0.823,-0.773 1.635,-1.335 2.439,-2.1 c0.889,-0.845 2.129,-1.02 2.938,-1.988 c0.523,-0.626 0.686,-1.276 0.965,-2.002 c0.505,-1.313 1.242,-2.67 1.9,-3.938 c0.543,-1.045 1.174,-1.848 1.396,-3.046 c0.183,-0.978 -0.053,-2.197 -0.193,-3.318 C204.305145,219.1651 204.451141,218.287094 204.55014,217.373108  z M111.109146,111.604103 l19.852,11.037 l-2.728,4.907 l-14.016,-7.792 l-3.163,5.688 l12.863,7.151 l-2.521,4.536 l-12.862,-7.15 l-3.617,6.505 l14.313,7.958 l-2.729,4.907 l-20.15,-11.202 L111.109146,111.604103  z M88.836143,165.411102 l-5.766,10.371 l-5.836,-3.244 l14.756,-26.544 l14.313,7.958 c1.19,0.661 2.154,1.449 2.896,2.363 c0.741,0.915 1.265,1.896 1.575,2.944 c0.31,1.049 0.399,2.113 0.27,3.192 c-0.13,1.08 -0.477,2.128 -1.042,3.144 c-0.868,1.561 -1.948,2.73 -3.238,3.504 c-1.291,0.775 -2.845,1.048 -4.663,0.814 l-0.041,0.075 c0.608,0.598 1.035,1.232 1.278,1.903 c0.243,0.67 0.359,1.367 0.347,2.09 c-0.013,0.723 -0.137,1.457 -0.372,2.202 c-0.237,0.746 -0.516,1.466 -0.837,2.163 c-0.21,0.436 -0.46,0.944 -0.753,1.529 c-0.292,0.583 -0.572,1.19 -0.841,1.819 c-0.27,0.629 -0.483,1.248 -0.644,1.856 c-0.16,0.609 -0.208,1.175 -0.14,1.698 l-5.837,-3.245 c0.146,-1.022 0.505,-2.135 1.08,-3.342 c0.573,-1.206 1.081,-2.383 1.525,-3.532 c0.573,-1.498 0.716,-2.749 0.43,-3.751 c-0.286,-1.002 -1.161,-1.91 -2.623,-2.723 L88.836143,165.411102  z M116.132141,210.856094 l-14.016,-7.792 l-3.162,5.688 l12.863,7.151 l-2.521,4.537 l-12.863,-7.151 l-3.617,6.505 l14.313,7.958 l-2.729,4.907 l-20.15,-11.202 l14.758,-26.544 l19.852,11.037 L116.132141,210.856094  z M131.641144,181.908096 l-2.522,4.534 l-12.863,-7.151 l-3.617,6.506 l14.313,7.958 l-2.727,4.908 l-20.15,-11.203 l14.757,-26.543 l19.853,11.037 l-2.728,4.907 l-14.016,-7.792 l-3.162,5.688 L131.641144,181.908096  z M140.507141,207.715103 l-6.58,-3.659 l6.168,-31.319 l5.985,3.328 l-4.464,21.949 l0.074,0.041 l16.36,-15.333 l6.023,3.348 L140.507141,207.715103  z "></path></g></g><g id="podcasts"><g><path fill="#FFFFFF" d="M85.134,249.72c-0.171,0.574-0.281,1.167-0.331,1.777c-0.05,0.61,0.006,1.195,0.169,1.753 c0.163,0.559,0.425,1.056,0.79,1.493c0.363,0.437,0.893,0.758,1.587,0.964c0.634,0.188,1.186,0.222,1.649,0.097 c0.466-0.125,0.969-0.493,1.513-1.105c0.543-0.61,1.168-1.495,1.874-2.649c0.706-1.155,1.616-2.668,2.731-4.541 c0.301-0.569,0.769-1.343,1.404-2.321c0.202-0.311,0.43-0.612,0.669-0.91c-1.009-0.488-2.01-0.771-3.062-1.342 c-0.499-0.271-0.958-0.544-1.405-0.821l-0.794,2.67c-0.985-0.227-1.847-0.261-2.584-0.103c-0.738,0.16-1.374,0.472-1.907,0.938 c-0.534,0.466-0.986,1.048-1.356,1.742C85.71,248.059,85.394,248.845,85.134,249.72z"></path><path fill="#FFFFFF" d="M34.344,296.758c-0.531-0.536-1.311-0.957-2.338-1.262c-1.027-0.306-1.911-0.379-2.648-0.221 c-0.739,0.159-1.366,0.474-1.884,0.945c-0.518,0.471-0.95,1.065-1.296,1.785c-0.345,0.72-0.639,1.487-0.881,2.304l-1.645,5.53 l9.701,2.884l1.644-5.53c0.243-0.816,0.417-1.62,0.52-2.412c0.104-0.791,0.068-1.525-0.109-2.204 C35.23,297.902,34.876,297.295,34.344,296.758z"></path><path fill="#FFFFFF" d="M62.893,231.268c-1.104-0.822-2.547-1.498-4.33-2.028c-1.633-0.485-3.153-0.764-4.562-0.837 c-1.409-0.074-2.689,0.113-3.841,0.56c-1.153,0.446-2.157,1.192-3.009,2.238c-0.854,1.046-1.542,2.445-2.062,4.197l-1.509,5.077 l20.397,6.064l1.886-6.346c0.305-1.026,0.436-2.073,0.392-3.14c-0.045-1.065-0.34-2.09-0.887-3.076 C64.822,232.992,63.997,232.09,62.893,231.268z"></path><path fill="#FFFFFF" d="M55.081,266.835c-0.82-1-1.825-1.851-3.016-2.549c-1.19-0.699-2.464-1.251-3.825-1.655 c-1.42-0.422-2.842-0.673-4.266-0.75c-1.424-0.079-2.761,0.075-4.01,0.46c-1.25,0.386-2.35,1.045-3.301,1.979 c-0.952,0.934-1.667,2.202-2.143,3.803c-0.476,1.601-0.57,3.054-0.284,4.356c0.287,1.302,0.848,2.456,1.684,3.461 c0.836,1.006,1.872,1.863,3.107,2.576c1.235,0.713,2.562,1.28,3.983,1.703c1.359,0.404,2.729,0.64,4.107,0.703 c1.379,0.065,2.686-0.096,3.919-0.487c1.234-0.389,2.328-1.051,3.279-1.985c0.953-0.934,1.666-2.202,2.141-3.804 c0.477-1.601,0.572-3.053,0.285-4.355C56.457,268.987,55.902,267.836,55.081,266.835z"></path><path fill="#FFFFFF" d="M160.508,255.818c-2.038-2.589-4.389-5.065-6.987-7.209c-0.462-0.242-0.901-0.515-1.333-0.913 c-0.861-0.796-1.613-1.139-2.648-1.753c-0.309-0.183-0.545-0.416-0.764-0.658c-0.291-0.17-0.577-0.351-0.873-0.511 c-0.766-0.414-1.545-0.759-2.328-1.072c-0.729-0.039-1.492-0.011-2.038,0.08c-0.505,0.084-0.802,0.443-1.351,0.55 c-0.555,0.109-1.167-0.039-1.705-0.133c-1.042-0.183-1.669-0.457-2.747-0.291c-0.255,0.04-0.957,0.339-1.273,0.4 c-1.889,0.368-3.897,0.275-5.798,0.609c-2.774,0.488-5.646,0.937-8.477,0.891c-2.841-0.046-5.552,0.667-8.355,0.624 c0.559,1.384,0.849,2.965,0.863,4.751c0.016,1.831-0.305,3.849-0.961,6.054c-0.53,1.784-1.263,3.448-2.2,4.995 c-0.936,1.548-2.064,2.824-3.382,3.829c-1.32,1.007-2.816,1.672-4.491,1.996c-1.676,0.325-3.505,0.175-5.492-0.448l2.048-6.891 c1.088,0.323,2.069,0.402,2.942,0.233c0.872-0.167,1.639-0.506,2.3-1.018c0.662-0.509,1.235-1.169,1.724-1.979 c0.485-0.808,0.869-1.681,1.148-2.619c0.189-0.634,0.338-1.33,0.447-2.086c0.11-0.757,0.108-1.497-0.004-2.222 c-0.114-0.724-0.372-1.376-0.775-1.958c-0.404-0.58-1.014-0.991-1.83-1.233c-0.876-0.261-1.669-0.192-2.38,0.205 c-0.709,0.397-1.38,0.995-2.013,1.794c-0.632,0.799-1.254,1.732-1.869,2.8c-0.613,1.068-1.261,2.141-1.944,3.22 c-0.662,1.12-1.382,2.188-2.161,3.206c-0.78,1.019-1.651,1.877-2.617,2.578c-0.965,0.699-2.052,1.174-3.26,1.423 c-1.209,0.249-2.553,0.153-4.035-0.287c-1.661-0.495-2.999-1.279-4.012-2.352c-1.013-1.074-1.757-2.307-2.23-3.698 c-0.475-1.39-0.693-2.87-0.654-4.437c0.039-1.567,0.273-3.076,0.705-4.527c0.503-1.692,1.175-3.26,2.016-4.704 c0.841-1.444,1.863-2.645,3.069-3.602c0.782-0.621,1.639-1.093,2.556-1.446c-0.967-0.893-1.981-1.725-3.2-2.025 c-0.908-0.224-1.673-0.202-2.613-0.551c-0.7-0.261-1.388-0.518-2.102-0.749c-0.795-0.257-1.582-0.495-2.347-0.837 c-1.191-0.533-2.301-1.816-3.553-2.089c-0.667-0.146-1.029-0.049-1.659-0.237c0.378,0.983,0.651,2.022,0.804,3.125 c0.289,2.076,0.062,4.353-0.674,6.829l-4.15,13.962l-32.365-9.623l4.151-13.961c0.62-2.085,1.53-3.927,2.729-5.527 c1.2-1.6,2.659-2.861,4.379-3.78c1.722-0.918,3.689-1.452,5.903-1.6c2.216-0.147,4.667,0.178,7.357,0.978 c2.038,0.606,3.86,1.41,5.493,2.387c-0.592-1.146-1.266-2.203-1.865-3.36c-1.103-2.131-0.634-4.536-1.927-6.624 c-1.242-2.006-2.707-3.808-4.163-5.654c-1.289-1.633-2.724-3.106-3.989-4.765c-1.555-2.038-4.223-3.024-6.283-4.485 c-1.227-0.87-2.583-2.657-4.065-2.511c-0.586,0.058-1.258,0.417-2.002,0.421c-1.281,0.007-2.457-0.513-3.708-0.547 c-0.792-0.021-1.79,0.208-2.477,0.544c-1.365,0.669-2.205,1.954-3.538,2.687c-0.788,0.434-0.992,0.422-1.686,1.058 c-2.868,2.629-2.945,6.872-3.874,10.481c-0.196,0.761-0.185,1.548-0.352,2.276c-0.187,0.812-0.686,1.441-1.024,2.2 c-0.727,1.632-0.274,3.285-1.088,4.9c-0.638,1.266-1.723,2.249-2.404,3.341c-0.988,1.587-2.036,3.409-3.019,5.071 c-1.159,1.959-0.191,4.374,0.036,6.437c0.065,0.593,0.098,1.361,0.108,1.94c0.298,0.093,0.403,0.288,0.316,0.585 c-0.222,0.261-0.487,0.466-0.793,0.615c-1.614,1.353-3.015,2.313-4.34,3.964c-2.056,2.562-4.421,5.031-5.823,8.054 c-0.913,1.968-0.98,2.988-0.98,5.123c0,3.448,0.684,7.893-0.613,11.16c-1.263,3.183-2.69,6.119-3.835,9.336 c-0.977,2.744-2.25,5.307-2.089,8.271c0.077,1.413,0.658,2.587,0.952,3.932c0.173,0.791-0.166,1.752,0.161,2.476 c2.062-0.174,2.065,2.721,2.313,4.147c0.154,0.884-0.043,1.063,0.574,1.572c0.438,0.361,1.091,0.391,1.547,0.792 c1.176,1.033,1.049,2.654,0.988,4.063c-0.083,1.924-0.245,3.958-0.471,5.865c-0.149,1.26-0.51,2.103-0.553,3.482 c-0.042,1.35,0.042,2.706,0.028,4.057c-0.027,2.49,0.833,4.281,1.49,6.666c0.47,1.708,0.615,3.993,1.974,5.314 c0.767,0.746,2.135,1.286,3.123,1.647c1.389,0.508,2.747,0.407,4.186,0.587c1.691,0.211,3.167,0.387,4.874,0.377 c0.65-0.003,1.842,0.219,2.483,0.063c1.031-0.25,1.222-0.845,1.88-1.576c1.108-1.231,2.379-1.639,3.699-2.583 c3.23-2.312,7.45-3.445,11.424-2.928c1.856,0.242,3.811,0.697,5.637,1.153c2.223,0.555,3.118,1.268,4.726,2.875 c3.888,3.884,6.39,9.637,11.577,12.006c4.621,2.111,9.253,4.305,14.324,5.078c3.699,0.563,8.852,1.233,12.464-0.076 c1.11-0.402,2.199-0.515,3.274-0.984c1.002-0.437,1.89-1.119,2.922-1.535c2.623-1.058,5.085-0.989,7.829-0.99 c3.037-0.001,6.307-0.337,9.208,0.389c4.213,1.054,9.505-0.43,13.368-1.954c2.504-0.988,4.217-3.761,6.018-5.677 c1.112-1.184,2.409-2.155,3.392-3.398c0.535-0.677,1.077-1.37,1.621-2.068l-26.066-7.749l-2.883,9.701l-5.983-1.78l7.882-26.516 l5.983,1.779l-2.883,9.7l26.381,7.844l-1.875,6.307c0.288-0.371,0.576-0.741,0.865-1.112c0.552-0.71,0.843-1.317,1.556-1.85 c0.534-0.114,1.007-0.355,1.418-0.724c0.324-0.398,0.689-0.753,1.095-1.067c0.65-0.349,1.369-0.198,2.04-0.435 c0.523-0.185,0.952-0.586,1.475-0.777c1.017-0.373,2.117-0.649,3.133-1.091c2.6-3.88,4.561-7.93,6.861-12.139 c0.002-0.128,0.008-0.255,0.006-0.384c-0.021-1.309,0.297-2.262,0.525-3.51c0.176-0.958-0.172-2.031-0.035-3 c0.168-1.195,1.057-1.682,1.973-2.554c1.529-1.456,2.764-3.499,3.671-5.418c2.042-4.324,0.317-9.164-0.634-13.516l3.027-8.001 C165.111,265.68,164.3,260.636,160.508,255.818z M48.371,320.935l-32.364-9.623l4.339-14.596c0.602-2.024,1.408-3.66,2.42-4.905 c1.012-1.245,2.133-2.17,3.365-2.774c1.233-0.604,2.528-0.925,3.888-0.966c1.361-0.039,2.706,0.139,4.035,0.534 c1.3,0.387,2.516,0.97,3.648,1.75c1.133,0.781,2.05,1.762,2.751,2.94c0.703,1.179,1.138,2.566,1.304,4.161 c0.167,1.597-0.05,3.407-0.652,5.431l-2.224,7.479l11.604,3.45L48.371,320.935z M54.071,286.663 c-1.916,0.912-4.001,1.426-6.257,1.545c-2.256,0.119-4.561-0.172-6.919-0.873c-2.417-0.719-4.553-1.749-6.407-3.09 s-3.351-2.92-4.487-4.738c-1.138-1.818-1.85-3.847-2.138-6.086c-0.288-2.24-0.063-4.599,0.674-7.077 c0.746-2.508,1.848-4.613,3.308-6.318c1.46-1.703,3.164-3.006,5.109-3.907c1.945-0.902,4.061-1.408,6.347-1.518 c2.285-0.11,4.637,0.194,7.055,0.913c2.356,0.701,4.448,1.717,6.272,3.048c1.824,1.332,3.29,2.902,4.396,4.712 c1.108,1.809,1.799,3.824,2.077,6.044c0.276,2.221,0.042,4.584-0.703,7.092c-0.737,2.479-1.831,4.579-3.28,6.303 C57.668,284.436,55.986,285.753,54.071,286.663z M95.338,319.11c-0.736,2.479-1.83,4.579-3.279,6.302 c-1.45,1.724-3.132,3.041-5.047,3.951c-1.917,0.911-4.002,1.425-6.257,1.544c-2.255,0.119-4.562-0.172-6.918-0.873 c-2.417-0.719-4.555-1.748-6.409-3.089c-1.854-1.341-3.35-2.92-4.487-4.738c-1.137-1.818-1.85-3.846-2.137-6.086 c-0.289-2.24-0.064-4.599,0.673-7.077c0.53-1.782,1.288-3.392,2.273-4.825c0.985-1.434,2.156-2.631,3.51-3.594 c1.356-0.961,2.88-1.635,4.572-2.019c1.693-0.385,3.509-0.405,5.445-0.06l-2.049,6.89c-0.852-0.122-1.68-0.072-2.485,0.149 c-0.806,0.222-1.56,0.572-2.263,1.054c-0.702,0.482-1.315,1.081-1.841,1.796c-0.524,0.715-0.918,1.512-1.178,2.388 c-0.477,1.602-0.571,3.053-0.284,4.355c0.287,1.303,0.847,2.457,1.685,3.461c0.835,1.005,1.872,1.863,3.106,2.576 c1.236,0.713,2.564,1.28,3.983,1.702c1.359,0.405,2.73,0.639,4.108,0.705c1.378,0.063,2.685-0.098,3.919-0.488 c1.234-0.389,2.328-1.051,3.279-1.985c0.952-0.933,1.666-2.201,2.141-3.803c0.646-2.176,0.488-4.073-0.478-5.692 s-2.497-2.889-4.591-3.808l2.048-6.89c1.971,0.784,3.66,1.796,5.067,3.037c1.407,1.241,2.501,2.652,3.281,4.231 c0.779,1.58,1.225,3.292,1.335,5.133C96.172,315.198,95.931,317.115,95.338,319.11z M106.486,278.96l-7.936,0.305l-3.599,12.103 l6.453,4.682l-2.129,7.162L70.55,281.35l2.169-7.298l35.964-2.48L106.486,278.96z M147.682,295.634 c-0.53,1.784-1.264,3.449-2.2,4.996c-0.937,1.547-2.064,2.823-3.384,3.828c-1.317,1.007-2.814,1.672-4.49,1.996 c-1.676,0.324-3.506,0.174-5.491-0.448l2.049-6.891c1.086,0.323,2.067,0.401,2.939,0.233c0.873-0.167,1.64-0.507,2.301-1.018 c0.662-0.51,1.235-1.17,1.723-1.979c0.486-0.809,0.869-1.682,1.148-2.619c0.188-0.635,0.337-1.331,0.447-2.087 c0.109-0.757,0.108-1.497-0.006-2.222c-0.113-0.724-0.371-1.376-0.773-1.957c-0.404-0.581-1.014-0.993-1.829-1.235 c-0.877-0.261-1.67-0.192-2.38,0.206c-0.71,0.397-1.381,0.995-2.014,1.794c-0.631,0.799-1.254,1.732-1.867,2.799 c-0.613,1.067-1.261,2.141-1.944,3.221c-0.661,1.119-1.381,2.188-2.161,3.206s-1.652,1.877-2.616,2.577 c-0.966,0.7-2.053,1.174-3.261,1.424c-1.209,0.249-2.554,0.153-4.035-0.287c-1.661-0.494-2.999-1.278-4.012-2.352 c-1.012-1.074-1.756-2.307-2.23-3.698c-0.476-1.39-0.693-2.871-0.654-4.438c0.039-1.567,0.273-3.076,0.704-4.527 c0.503-1.691,1.174-3.26,2.016-4.704c0.839-1.444,1.863-2.645,3.068-3.602c1.206-0.956,2.571-1.595,4.096-1.915 c1.525-0.319,3.226-0.201,5.099,0.356l-2.048,6.89c-0.984-0.226-1.846-0.261-2.583-0.103c-0.739,0.159-1.374,0.472-1.908,0.938 c-0.533,0.467-0.986,1.048-1.357,1.744c-0.37,0.695-0.686,1.481-0.947,2.357c-0.171,0.574-0.281,1.167-0.332,1.777 c-0.049,0.61,0.008,1.194,0.169,1.752c0.163,0.559,0.426,1.056,0.791,1.493c0.362,0.438,0.893,0.759,1.587,0.966 c0.634,0.188,1.185,0.221,1.649,0.095c0.464-0.124,0.969-0.493,1.513-1.104c0.544-0.611,1.167-1.494,1.873-2.649 c0.706-1.155,1.615-2.669,2.731-4.542c0.301-0.568,0.77-1.341,1.405-2.319c0.636-0.979,1.459-1.893,2.469-2.744 c1.009-0.852,2.21-1.489,3.603-1.914c1.393-0.425,2.995-0.368,4.809,0.172c1.481,0.44,2.77,1.137,3.867,2.088 c1.1,0.951,1.941,2.13,2.527,3.537c0.585,1.409,0.885,3.027,0.898,4.856C148.658,291.411,148.337,293.43,147.682,295.634z"></path><polygon fill="#FFFFFF" points="92.694,279.547 79.606,280.096 79.579,280.187 90.201,287.933"></polygon></g></g><g id="listes"><g><path fill="#FFFFFF" d="M118.192,436.286c-1.383,0.439-2.746,0.928-4.067,1.516c-0.805,0.358-1.583,0.742-2.348,1.139 c0.003,0.001,0.007,0.002,0.01,0.003c1.114,0.289,2.266,0.433,3.457,0.433c0.807,0,1.671-0.066,2.593-0.201 s1.786-0.395,2.593-0.778c0.807-0.384,1.479-0.912,2.017-1.585c0.509-0.636,0.769-1.442,0.795-2.406 c-1.092,0.182-2.19,0.319-3.296,0.405C118.953,434.887,118.378,435.534,118.192,436.286z"></path><path fill="#FFFFFF" d="M161.728,367.859c-2.892-6.275-6.097-13.228-13.464-15.027c-5.669-1.385-11.497-0.805-17.263-0.579 c-6.14,0.239-12.188-0.013-18.267,0.237c-1.359,0.283-2.742,0.458-4.022,0.968c-0.951,0.377-1.94,0.648-2.928,0.921 c0.827,0.819,1.542,1.769,2.114,2.827c0.902,1.67,1.354,4.102,1.354,6.102h-8.758c-0.078-1-0.337-2.27-0.778-3.076 c-0.442-0.807-1.028-1.453-1.757-1.913c-0.73-0.461-1.565-0.793-2.506-0.986c-0.718-0.146-1.502-0.222-2.321-0.257 c-0.232,0.01-0.458,0.143-0.662,0.115c-0.025-0.003-0.047,0.117-0.071,0.117c-0.01,0-0.018,0-0.028,0 c-0.73,0-1.46-0.057-2.189,0.096c-0.73,0.155-1.393,0.356-1.988,0.74c-0.596,0.384-1.085,0.83-1.469,1.406 c-0.385,0.576-0.576,1.289-0.576,2.173c0,0.807,0.153,1.452,0.461,1.951c0.307,0.5,0.912,0.956,1.815,1.378 c0.902,0.423,2.151,0.844,3.745,1.266c1.593,0.424,3.678,0.96,6.252,1.612c0.768,0.153,1.834,0.432,3.198,0.836 c1.363,0.403,2.717,1.046,4.062,1.929c1.344,0.884,2.506,2.065,3.486,3.544s1.469,3.37,1.469,5.675 c0,1.883-0.365,3.63-1.095,5.244c-0.73,1.613-1.815,3.006-3.255,4.177c-1.44,1.173-3.227,2.084-5.358,2.737 c-2.132,0.652-4.601,0.979-7.404,0.979c-2.268,0-4.466-0.278-6.598-0.835c-2.132-0.556-4.014-1.431-5.646-2.621 c-1.633-1.19-2.93-2.79-3.89-4.634c-0.96-1.846-1.421-3.652-1.383-6.652h8.758c0,2,0.25,2.639,0.749,3.598 c0.499,0.961,1.161,1.78,1.988,2.375c0.826,0.596,1.795,1.058,2.91,1.346c1.114,0.288,2.266,0.441,3.458,0.441 c0.806,0,1.67-0.061,2.592-0.195c0.922-0.134,1.786-0.392,2.593-0.775c0.807-0.385,1.478-0.911,2.017-1.583 c0.538-0.672,0.807-1.527,0.807-2.563c0-1.114-0.356-2.017-1.066-2.707c-0.711-0.692-1.642-1.269-2.794-1.729 c-1.153-0.461-2.459-0.864-3.918-1.209c-1.46-0.347-2.938-0.73-4.437-1.153c-1.537-0.383-3.035-0.854-4.494-1.411 c-1.46-0.557-2.766-1.277-3.918-2.161c-1.152-0.883-2.084-1.987-2.795-3.312c-0.711-1.325-1.066-2.929-1.066-4.812 c0-2.044,0.432-3.823,1.278-5.346c-0.328,0.021-0.657,0.043-0.98,0.058c-2.001,0.09-3.61,0.096-5.61-0.114 c-0.401-0.042-1.025-0.084-1.025-0.128v35.383h-9v-36.98c-1-0.148-1.13-0.311-1.563-0.489c-4.171-1.72-8.047-4.37-11.814-6.818 c-2.098-1.36-3.482-3.101-5.37-4.692c-2.187-1.846-4.485-5.582-7.53-5.72c-3.112-0.14-5.667,1.267-8.423,2.672 c-3.881,1.977-8.34,1.629-12.367,3.129c-0.738,0.274-1.379,0.564-2.165,0.638c-0.536,0.05-0.95-0.053-1.46,0.159 c-0.795,0.328-2.703,1.678-3.236,2.321c-1.969,2.369-4.013,4.013-3.833,7.423c0.195,3.707,0.755,7.543,2.592,10.778 c0.985,1.735,0.598,4.096-0.355,5.844c-0.658,1.206-1.192,1.627-1.489,2.976c-0.31,1.41-0.789,2.736-0.796,4.198 c-0.008,1.949,0.213,3.939,0.299,5.889c0.097,2.162,0.065,4.346,0.391,6.488c0.263,1.726,6.45,24.829,7.027,28.106 c0.373,2.108,1.006,4.608,1.707,6.617c1.207,3.459,4.211,6.223,6.212,9.208c1.238,1.847,2.291,3.365,2.432,5.591 c0.12,1.87,0.138,3.632-0.139,5.486c-0.424,2.848-1.387,5.611-1.82,8.442c-0.236,1.545-0.107,3.065,0.744,4.399 c0.704,0.677,1.206,1.482,1.506,2.418c0.601,1.857,0.552,3.3,1.96,4.767c0.962,1.003,2.199,1.752,3.155,2.737 c0.583,0.6,0.655,1.012,1.165,1.714c1.217,1.668,3.261,2.083,4.937,3.044c2.466,1.413,4.227,3.598,6.978,4.257 c2.346,0.564,4.746,1.271,7.094,1.821c1.939,0.455,3.708,0.355,5.689,0.267c1.48-0.067,3.168,0.087,4.599-0.317 c1.388-0.392,2.188-1.194,3.708-1.148c3.03,0.092,5.971-0.204,9.001-0.762c4.739-0.874,8.339-3.211,12.414-5.598 c1.306-0.765,3.136-1.327,4.207-2.427c0.707-0.725,0.942-1.711,1.477-2.515c0.605-0.158,0.946-0.564,1.023-1.212 c0.104-0.331,0.207-0.662,0.311-0.992c0.615-1.088,1.472-1.967,2.102-3.087c1.441-2.558,3.27-5.457,4.133-8.298 c0.656-2.165,1.08-2.479,2.915-3.64c0.899-0.57,1.462-1.367,2.158-2.17c0.888-1.026,1.818-1.973,2.79-2.851 c-0.612-0.332-1.206-0.687-1.76-1.091c-1.633-1.189-2.93-2.939-3.89-4.783c-0.96-1.844-1.421-3.8-1.383-6.8h8.758 c0,2,0.249,2.786,0.749,3.746c0.499,0.961,1.161,1.854,1.988,2.449c0.823,0.594,1.789,1.092,2.899,1.38 c0.765-0.396,1.542-0.752,2.348-1.11c1.321-0.588,2.684-1.062,4.067-1.501c0.187-0.752,0.761-1.391,1.755-1.468 c1.105-0.086,2.204-0.221,3.296-0.402c0.001-0.054,0.011-0.101,0.011-0.155c0-1.114-0.355-2.016-1.066-2.707 c-0.711-0.691-1.642-1.267-2.794-1.728c-1.152-0.462-2.458-0.864-3.918-1.21c-1.46-0.346-2.938-0.729-4.437-1.152 c-1.537-0.384-3.035-0.854-4.494-1.412c-1.46-0.557-2.766-1.276-3.918-2.16c-1.153-0.884-2.084-1.988-2.795-3.313 c-0.711-1.325-1.066-2.929-1.066-4.812c0-2.112,0.451-3.946,1.354-5.502c0.902-1.556,2.083-2.853,3.543-3.89 c1.459-1.037,3.111-1.805,4.955-2.305c1.844-0.499,3.688-0.749,5.531-0.749c2.151,0,4.215,0.24,6.194,0.72 c1.978,0.481,3.735,1.259,5.272,2.334c1.536,1.076,2.756,2.324,3.659,3.994c0.902,1.672,1.354,3.953,1.354,5.953h-8.758 c-0.077-1-0.336-2.121-0.778-2.928c-0.442-0.807-1.028-1.378-1.757-1.839c-0.73-0.461-1.565-0.756-2.506-0.948 c-0.942-0.191-1.969-0.272-3.083-0.272c-0.73,0-1.46,0.086-2.189,0.238c-0.73,0.154-1.393,0.427-1.988,0.812 c-0.596,0.384-1.086,0.865-1.47,1.442c-0.384,0.575-0.576,1.306-0.576,2.189c0,0.807,0.153,1.46,0.461,1.96 c0.307,0.5,0.912,0.961,1.815,1.384c0.902,0.423,2.151,0.845,3.745,1.267c1.593,0.424,3.678,0.961,6.251,1.614 c0.768,0.153,1.834,0.432,3.198,0.835c1.363,0.403,2.717,1.047,4.062,1.931c1.344,0.883,2.506,2.064,3.486,3.543 c0.794,1.199,1.249,2.683,1.399,4.424c4.805-1.895,9.37-4.586,13.557-7.758c0.967-0.818,1.942-1.61,2.94-2.367 c3.429-2.901,6.562-6.089,9.296-9.374c5.039-6.052,10.249-13.245,10.188-21.484C167.863,382.834,165.098,375.176,161.728,367.859z M27.051,351.307h9v33h20v8h-29V351.307z M58.051,412.307h-12v33h-10v-33h-12v-8h34V412.307z M94.051,445.307h-31v-41h30v8h-21v8 h20v7h-20v11h22V445.307z"></path></g></g><g id="infos"><g><polygon fill="#FFFFFF" points="215.075,525.307 215.051,525.269 215.051,525.307"></polygon><polygon fill="#FFFFFF" points="250.107,525.307 250.051,525.217 250.051,525.307"></polygon><path fill="#FFFFFF" d="M271.051,616.903c0-4.6-1.037-8.932-1.002-13.564c0.018-2.386-0.189-4.717-0.621-7.066 c-0.135-0.734-0.188-1.585-0.325-2.29c-0.255-1.311-1.222-2.273-1.494-3.588c-0.181-0.872-0.027-1.718-0.167-2.583 c-0.133-0.826-0.373-1.478-0.402-2.368c-0.061-1.826,0.011-3.67,0.012-5.499c0.002-2.745,0.382-5.017,1.137-7.612 c0.451-1.553,0.697-3.462,0.889-5.063c0.059-0.489-0.041-1.049-0.037-1.541c0.014-1.605,0.473-3.142,0.537-4.747 c0.127-3.123,0.421-6.755-0.139-9.809c-0.247-1.35-0.892-2.592-1.263-3.906c-0.419-1.482-0.472-3.037-0.733-4.548 c-0.296-1.32-0.56-2.646-0.792-3.979c-0.036-0.976-0.108-1.948-0.22-2.918c-0.43-1.809-0.378-3.502-0.379-5.431 c-0.001-2.854-0.18-5.766,0.113-8.605c0.555-5.39,2.023-10.639,2.787-16.018c0.188-1.322,0.037-2.609,0.088-3.929 c0.082-2.13,0.52-4.208,0.547-6.349c-0.229-1.309-0.47-2.652-0.733-4.011c-0.135-0.381-0.271-0.764-0.4-1.161 c-0.528-1.627-0.729-4.035-1.487-5.584c-0.589-1.205-1.69-2.247-2.33-3.466c-0.794-1.512-1.565-2.729-2.586-4.083 c-1.248-1.656-2.756-2.842-4.4-4.154c-1.459-1.166-2.786-1.975-4.471-2.792c-2.818-1.366-5.953-3.171-9.162-3.468 c-1.611-0.148-3.223-0.051-4.838-0.135c-0.576,0.129-1.14-0.328-1.695,0.672h0.568v29h-7v-25.99c0,0.288-0.47,0.59-0.748,0.909 c-5.044,5.788-7.947,13.247-12.646,19.379c-5.197,6.78-6.936,14.091-8.258,22.392c-0.121,0.75-0.221,1.693-0.343,2.511 l5.995,9.762v-19.962h6v29h-6.308l-7.175-11.336c-0.857,3.176-2.284,6.271-4.391,8.391c-0.311,0.312-0.127,0.724-1.127,1.022 v1.923h-2.805c-1.732,2-3.629,2.26-5.613,2.963c-1.13,1.588-2.053,3.506-3.969,4.366c-1.137,0.512-1.764,0.306-2.727,1.329 c-1.158,1.229-1.701,1.59-3.228,2.3c-0.579,0.27-0.659,0.607-1.659,0.934v3.108h-3.967c-1.152,0-2.322,1.458-3.597,2.114 c-0.973,0.501-1.952,0.507-2.761,1.265c-0.935,0.879-1.697,1.621-2.508,2.621h10.832v6h-12v12h-7v-8.837 c-2,2.661-3.319,6.11-5.158,9.008c-1.315,2.072-3.031,3.631-4.402,5.604c-0.531,0.763-1.027,1.037-1.602,1.686 c-0.576,0.65-0.861,1.663-1.331,2.397c-1.749,2.736-4.373,5.089-5.677,8.049c-0.744,1.688-0.974,2.301-2.434,3.36 c-0.766,0.598-1.531,1.193-2.298,1.788c-0.603,0.339-1.228,0.629-1.875,0.872c-1.159,0.773-1.551,2.562-2.195,3.7 c-0.767,1.357-1.814,2.522-2.541,3.896c-0.649,1.227-1.462,1.895-2.263,3.006c-1.14,1.582-1.445,4.009-1.645,5.879 c-0.246,2.307-0.057,4.653-0.077,6.97c-0.007,0.82-0.049,1.555,0.109,2.368c0.108,0.557,0.169,2.161,0.488,2.65 c0.217,0.333,0.604,0.432,0.876,0.674c1.025,0.911,1.171,1.387,1.548,2.896c0.435,1.741,0.327,4.79,1.887,6.044 c0.904,0.727,2.17,0.844,3.142,1.48c0.794,0.521,1.495,1.251,2.082,1.984c0.65,0.811,1.267,1.675,1.791,2.572 c0.412,0.707,0.02,1.01,1.034,1.354c0.831,0.281,1.976,0.073,2.823,0.172c1.639,0.189,3.458,0.614,4.965,1.318 c1.148,0.537,1.714,1.497,2.649,2.219c0.922,0.712,2.317,0.939,3.396,1.279c0.923,0.29,1.799,0.762,2.729,1.013 c1.312,0.354,2.871,0.937,4.218,1.114c1.77,0.234,3.467-0.026,5.256,0.428c2.154,0.546,4.217,1.418,6.186,2.436 c2.858,1.477,6.1,2.52,8.848,4.105c1.608,0.928,3.081,2.406,4.57,3.516c1.754,1.306,3.914,2.563,5.9,3.525 c2.26,1.095,5.078,1.108,7.495,1.484c2.031,0.316,4.142,0.839,6.206,0.415c1.109-0.229,2.239-0.654,3.336-0.937 c0.807-0.207,1.567-0.394,2.401-0.477c1.466-0.146,2.718-0.644,4.14-0.927c2.318-0.461,4.797-0.099,7.166-0.474 c1.707-0.271,3.51-0.112,5.236-0.111c2.543,0.001,5.028-0.105,7.542,0.363c2.161,0.402,4.299,0.885,6.518,0.646 c0.807-0.087,1.116-0.172,1.962-0.476c2.275-0.818,4.598-1.076,6.682-2.396c4.385-2.776,9.273-6.042,12.357-10.283 c1.982-2.727,4.877-5.798,5.416-9.207c0.315-1.99-0.058-4.106,0.006-6.106c0.069-2.191,1.016-3.877,1.426-5.988 c0.445-2.29,1.055-4.704,1.109-7.026C271.092,620.527,271.051,618.711,271.051,616.903z M183.478,644.595 c-0.524,1.159-1.304,2.159-2.339,3.001s-2.318,1.497-3.85,1.967c-1.531,0.469-3.305,0.703-5.319,0.703 c-1.628,0-3.208-0.2-4.739-0.6c-1.532-0.4-2.885-1.028-4.057-1.884c-1.174-0.855-2.105-2.188-2.795-3.514 c-0.689-1.324-1.021-2.962-0.993-4.962h6.292c0,1,0.18,2.079,0.538,2.769s0.835,1.37,1.429,1.798 c0.593,0.428,1.289,0.806,2.09,1.013s1.628,0.341,2.484,0.341c0.579,0,1.199-0.033,1.862-0.13 c0.662-0.097,1.283-0.275,1.862-0.551c0.58-0.276,1.062-0.651,1.449-1.135c0.387-0.482,0.58-1.095,0.58-1.84 c0-0.801-0.256-1.448-0.767-1.945c-0.511-0.496-1.18-0.909-2.007-1.241c-0.828-0.33-1.768-0.62-2.815-0.869 c-1.05-0.248-2.111-0.523-3.188-0.827c-1.104-0.275-2.181-0.614-3.229-1.015c-1.049-0.399-1.986-0.917-2.814-1.552 s-1.497-1.429-2.008-2.381s-0.766-2.104-0.766-3.456c0-1.518,0.324-2.836,0.973-3.953c0.648-1.118,1.497-2.05,2.546-2.795 s2.235-1.297,3.56-1.655c1.325-0.358,2.65-0.538,3.975-0.538c1.545,0,3.028,0.173,4.45,0.518c1.421,0.345,2.684,0.904,3.788,1.676 c1.104,0.773,1.979,1.98,2.628,3.182c0.647,1.199,0.973,2.588,0.973,4.588h-6.292c-0.056-1-0.242-1.836-0.559-2.414 c-0.318-0.58-0.738-1.146-1.263-1.478s-1.125-0.62-1.801-0.759c-0.677-0.138-1.415-0.235-2.214-0.235 c-0.525,0-1.05,0.042-1.574,0.152c-0.523,0.11-1,0.297-1.428,0.572c-0.428,0.276-0.779,0.618-1.056,1.032 s-0.413,0.937-0.413,1.571c0,0.579,0.109,1.048,0.33,1.406c0.221,0.359,0.656,0.689,1.305,0.992 c0.648,0.305,1.545,0.607,2.69,0.911c1.145,0.304,2.642,0.689,4.491,1.159c0.552,0.11,1.318,0.311,2.297,0.6 c0.98,0.29,1.953,0.753,2.919,1.387c0.966,0.636,1.801,1.484,2.505,2.546c0.703,1.062,1.055,2.422,1.055,4.078 C184.264,642.18,184.002,643.436,183.478,644.595z M188.032,602.682c-0.662,1.862-1.615,3.484-2.856,4.864 s-2.76,2.463-4.554,3.249c-1.794,0.787-3.836,1.18-6.126,1.18c-2.263,0-4.299-0.393-6.106-1.18 c-1.808-0.786-3.332-1.869-4.574-3.249c-1.241-1.38-2.193-3.002-2.855-4.864c-0.662-1.863-0.994-3.87-0.994-6.023 c0-2.207,0.332-4.256,0.994-6.146s1.614-3.54,2.855-4.947c1.242-1.407,2.767-2.511,4.574-3.312c1.808-0.8,3.844-1.2,6.106-1.2 c2.29,0,4.332,0.4,6.126,1.2c1.794,0.801,3.312,1.904,4.554,3.312s2.194,3.057,2.856,4.947s0.993,3.939,0.993,6.146 C189.025,598.812,188.694,600.819,188.032,602.682z M196.051,543.307h21v6h-14v6h12v6h-12v12h-7V543.307z M218.51,644.595 c-0.524,1.159-1.304,2.159-2.339,3.001c-1.034,0.842-2.317,1.497-3.85,1.967c-1.532,0.469-3.306,0.703-5.319,0.703 c-1.629,0-3.208-0.2-4.74-0.6c-1.531-0.4-2.884-1.028-4.057-1.884s-2.104-2.188-2.794-3.514c-0.69-1.324-1.021-2.962-0.993-4.962 h6.292c0,1,0.179,2.079,0.538,2.769c0.358,0.689,0.834,1.37,1.428,1.798s1.29,0.806,2.091,1.013 c0.8,0.207,1.628,0.341,2.483,0.341c0.58,0,1.201-0.033,1.863-0.13s1.283-0.275,1.863-0.551c0.579-0.276,1.062-0.651,1.448-1.135 c0.386-0.482,0.579-1.095,0.579-1.84c0-0.801-0.255-1.448-0.766-1.945c-0.511-0.496-1.18-0.909-2.008-1.241 c-0.828-0.33-1.766-0.62-2.814-0.869c-1.049-0.248-2.111-0.523-3.188-0.827c-1.104-0.275-2.18-0.614-3.229-1.015 c-1.049-0.399-1.987-0.917-2.815-1.552c-0.827-0.635-1.497-1.429-2.007-2.381c-0.512-0.952-0.767-2.104-0.767-3.456 c0-1.518,0.324-2.836,0.974-3.953c0.647-1.118,1.496-2.05,2.545-2.795s2.235-1.297,3.561-1.655 c1.324-0.358,2.648-0.538,3.974-0.538c1.546,0,3.028,0.173,4.45,0.518c1.421,0.345,2.684,0.904,3.787,1.676 c1.104,0.773,1.98,1.98,2.629,3.182c0.648,1.199,0.973,2.588,0.973,4.588h-6.292c-0.056-1-0.241-1.836-0.559-2.414 c-0.317-0.58-0.739-1.146-1.263-1.478c-0.524-0.331-1.125-0.62-1.801-0.759c-0.676-0.138-1.414-0.235-2.215-0.235 c-0.524,0-1.049,0.042-1.572,0.152c-0.525,0.11-1.001,0.297-1.429,0.572c-0.429,0.276-0.78,0.618-1.056,1.032 s-0.414,0.937-0.414,1.571c0,0.579,0.11,1.048,0.332,1.406c0.22,0.359,0.654,0.689,1.303,0.992 c0.648,0.305,1.546,0.607,2.691,0.911c1.145,0.304,2.643,0.689,4.491,1.159c0.552,0.11,1.317,0.311,2.298,0.6 c0.979,0.29,1.951,0.753,2.918,1.387c0.966,0.636,1.801,1.484,2.504,2.546c0.704,1.062,1.057,2.422,1.057,4.078 C219.297,642.18,219.034,643.436,218.51,644.595z M223.064,602.682c-0.663,1.862-1.614,3.484-2.856,4.864s-2.76,2.463-4.553,3.249 c-1.795,0.787-3.837,1.18-6.127,1.18c-2.264,0-4.299-0.393-6.105-1.18c-1.809-0.786-3.333-1.869-4.574-3.249 c-1.242-1.38-2.194-3.002-2.857-4.864c-0.662-1.863-0.992-3.87-0.992-6.023c0-2.207,0.33-4.256,0.992-6.146 c0.663-1.891,1.615-3.54,2.857-4.947c1.241-1.407,2.766-2.511,4.574-3.312c1.807-0.8,3.842-1.2,6.105-1.2 c2.29,0,4.332,0.4,6.127,1.2c1.793,0.801,3.311,1.904,4.553,3.312s2.193,3.057,2.856,4.947c0.662,1.891,0.993,3.939,0.993,6.146 C224.057,598.812,223.726,600.819,223.064,602.682z M231.051,505.307h6.72l12.28,19.91v-19.91h6v29h-6.275l-12.295-19h-0.43v19h-6 V505.307z M231.051,543.307h21v6h-14v6h12v6h-12v12h-7V543.307z M253.542,644.595c-0.524,1.159-1.304,2.159-2.339,3.001 s-2.318,1.497-3.85,1.967c-1.531,0.469-3.305,0.703-5.319,0.703c-1.628,0-3.208-0.2-4.739-0.6c-1.532-0.4-2.885-1.028-4.057-1.884 c-1.174-0.855-2.105-2.188-2.795-3.514c-0.689-1.324-1.021-2.962-0.993-4.962h6.292c0,1,0.18,2.079,0.538,2.769 s0.835,1.37,1.429,1.798c0.593,0.428,1.289,0.806,2.09,1.013s1.628,0.341,2.484,0.341c0.579,0,1.199-0.033,1.862-0.13 c0.662-0.097,1.283-0.275,1.862-0.551c0.58-0.276,1.062-0.651,1.449-1.135c0.387-0.482,0.58-1.095,0.58-1.84 c0-0.801-0.256-1.448-0.767-1.945c-0.511-0.496-1.18-0.909-2.007-1.241c-0.828-0.33-1.768-0.62-2.815-0.869 c-1.05-0.248-2.111-0.523-3.188-0.827c-1.104-0.275-2.181-0.614-3.229-1.015c-1.049-0.399-1.986-0.917-2.814-1.552 s-1.497-1.429-2.008-2.381s-0.766-2.104-0.766-3.456c0-1.518,0.324-2.836,0.973-3.953c0.648-1.118,1.497-2.05,2.546-2.795 s2.235-1.297,3.56-1.655c1.325-0.358,2.65-0.538,3.975-0.538c1.545,0,3.028,0.173,4.45,0.518c1.421,0.345,2.684,0.904,3.788,1.676 c1.104,0.773,1.979,1.98,2.628,3.182c0.647,1.199,0.973,2.588,0.973,4.588h-6.292c-0.056-1-0.242-1.836-0.559-2.414 c-0.318-0.58-0.738-1.146-1.263-1.478s-1.125-0.62-1.801-0.759c-0.677-0.138-1.415-0.235-2.214-0.235 c-0.525,0-1.05,0.042-1.574,0.152c-0.523,0.11-1,0.297-1.428,0.572c-0.428,0.276-0.779,0.618-1.056,1.032 s-0.413,0.937-0.413,1.571c0,0.579,0.109,1.048,0.33,1.406c0.221,0.359,0.656,0.689,1.305,0.992 c0.648,0.305,1.545,0.607,2.69,0.911c1.145,0.304,2.642,0.689,4.491,1.159c0.552,0.11,1.318,0.311,2.297,0.6 c0.98,0.29,1.953,0.753,2.919,1.387c0.966,0.636,1.801,1.484,2.505,2.546c0.703,1.062,1.055,2.422,1.055,4.078 C254.329,642.18,254.067,643.436,253.542,644.595z M258.096,602.682c-0.662,1.862-1.615,3.484-2.856,4.864 s-2.76,2.463-4.554,3.249c-1.794,0.787-3.836,1.18-6.126,1.18c-2.263,0-4.299-0.393-6.106-1.18 c-1.808-0.786-3.332-1.869-4.574-3.249c-1.241-1.38-2.193-3.002-2.855-4.864c-0.662-1.863-0.994-3.87-0.994-6.023 c0-2.207,0.332-4.256,0.994-6.146s1.614-3.54,2.855-4.947c1.242-1.407,2.767-2.511,4.574-3.312c1.808-0.8,3.844-1.2,6.106-1.2 c2.29,0,4.332,0.4,6.126,1.2c1.794,0.801,3.312,1.904,4.554,3.312s2.194,3.057,2.856,4.947s0.993,3.939,0.993,6.146 C259.089,598.812,258.758,600.819,258.096,602.682z"></path><path fill="#FFFFFF" d="M215.737,589.642c-0.635-0.952-1.463-1.71-2.483-2.276c-1.021-0.565-2.263-0.849-3.726-0.849 s-2.705,0.283-3.726,0.849c-1.021,0.566-1.85,1.324-2.483,2.276c-0.636,0.952-1.098,2.036-1.387,3.25 c-0.291,1.215-0.436,2.47-0.436,3.767c0,1.242,0.145,2.45,0.436,3.622c0.289,1.174,0.751,2.229,1.387,3.167 c0.634,0.938,1.462,1.69,2.483,2.256c1.021,0.566,2.263,0.849,3.726,0.849s2.704-0.282,3.726-0.849 c1.021-0.565,1.849-1.317,2.483-2.256c0.635-0.938,1.098-1.993,1.387-3.167c0.29-1.172,0.435-2.38,0.435-3.622 c0-1.297-0.145-2.552-0.435-3.767C216.834,591.678,216.372,590.594,215.737,589.642z"></path><path fill="#FFFFFF" d="M250.769,589.642c-0.636-0.952-1.463-1.71-2.483-2.276c-1.021-0.565-2.264-0.849-3.726-0.849 c-1.464,0-2.705,0.283-3.726,0.849c-1.021,0.566-1.85,1.324-2.484,2.276s-1.097,2.036-1.387,3.25 c-0.289,1.215-0.434,2.47-0.434,3.767c0,1.242,0.145,2.45,0.434,3.622c0.29,1.174,0.752,2.229,1.387,3.167 c0.635,0.938,1.463,1.69,2.484,2.256c1.021,0.566,2.262,0.849,3.726,0.849c1.462,0,2.704-0.282,3.726-0.849 c1.021-0.565,1.848-1.317,2.483-2.256c0.635-0.938,1.097-1.993,1.387-3.167c0.29-1.172,0.435-2.38,0.435-3.622 c0-1.297-0.145-2.552-0.435-3.767C251.866,591.678,251.404,590.594,250.769,589.642z"></path><path fill="#FFFFFF" d="M180.705,589.642c-0.636-0.952-1.463-1.71-2.483-2.276c-1.021-0.565-2.264-0.849-3.726-0.849 c-1.464,0-2.705,0.283-3.726,0.849c-1.021,0.566-1.85,1.324-2.484,2.276s-1.097,2.036-1.387,3.25 c-0.289,1.215-0.434,2.47-0.434,3.767c0,1.242,0.145,2.45,0.434,3.622c0.29,1.174,0.752,2.229,1.387,3.167 c0.635,0.938,1.463,1.69,2.484,2.256c1.021,0.566,2.262,0.849,3.726,0.849c1.462,0,2.704-0.282,3.726-0.849 c1.021-0.565,1.848-1.317,2.483-2.256c0.635-0.938,1.097-1.993,1.387-3.167c0.29-1.172,0.435-2.38,0.435-3.622 c0-1.297-0.145-2.552-0.435-3.767C181.801,591.678,181.339,590.594,180.705,589.642z"></path></g></g><view id="view1"></view></svg>