<?xml version="1.0" encoding="utf-8"?>
<!-- Generator: Adobe Illustrator 16.0.0, SVG Export Plug-In . SVG Version: 6.00 Build 0)  -->
<svg version="1.2" baseProfile="tiny" id="Calque_1"
	 xmlns="http://www.w3.org/2000/svg" xmlns:xlink="http://www.w3.org/1999/xlink" x="0px" y="0px" width="34px" height="169px"
	 viewBox="0 0 34 169" xml:space="preserve">
<path fill="#7E2D22" d="M20,29.5v-2.281c0.4-0.072,0.793-0.167,1.184-0.267c0.277-0.07,0.549-0.152,0.82-0.236
	c0.19-0.059,0.381-0.117,0.569-0.183c0.269-0.093,0.531-0.196,0.793-0.303c0.183-0.074,0.366-0.148,0.546-0.229
	c0.256-0.115,0.509-0.237,0.759-0.364c0.176-0.089,0.351-0.18,0.522-0.275c0.244-0.134,0.482-0.275,0.719-0.421
	c0.169-0.104,0.336-0.211,0.5-0.321c0.229-0.152,0.453-0.31,0.674-0.473c0.162-0.12,0.321-0.243,0.479-0.368
	c0.211-0.168,0.42-0.339,0.622-0.517c0.155-0.136,0.307-0.276,0.457-0.418c0.192-0.181,0.382-0.364,0.565-0.554
	c0.148-0.153,0.291-0.311,0.434-0.469c0.172-0.192,0.344-0.385,0.508-0.585c0.139-0.169,0.271-0.345,0.403-0.52
	c0.152-0.201,0.305-0.402,0.448-0.61c0.129-0.188,0.25-0.381,0.371-0.574c0.132-0.208,0.264-0.414,0.387-0.627
	c0.117-0.206,0.225-0.418,0.335-0.629c0.109-0.211,0.222-0.421,0.323-0.638c0.105-0.225,0.197-0.457,0.292-0.688
	c0.089-0.213,0.181-0.423,0.261-0.641c0.09-0.247,0.165-0.5,0.244-0.752c0.065-0.21,0.138-0.417,0.195-0.631
	c0.074-0.273,0.131-0.553,0.19-0.831c0.044-0.201,0.097-0.399,0.132-0.604c0.058-0.318,0.094-0.643,0.133-0.966
	c0.02-0.171,0.051-0.338,0.066-0.511C33.977,11.517,34,11.011,34,10.5V0h-7v10.5c0,0.268-0.012,0.534-0.033,0.797
	c-0.007,0.088-0.02,0.174-0.029,0.262c-0.019,0.173-0.037,0.345-0.064,0.516c-0.016,0.105-0.039,0.209-0.059,0.313
	c-0.029,0.149-0.058,0.297-0.093,0.444c-0.026,0.112-0.059,0.222-0.089,0.333c-0.038,0.135-0.076,0.269-0.119,0.402
	c-0.037,0.115-0.077,0.228-0.118,0.341c-0.046,0.124-0.091,0.246-0.142,0.368c-0.047,0.116-0.098,0.23-0.148,0.344
	c-0.052,0.113-0.105,0.225-0.16,0.335c-0.059,0.117-0.119,0.233-0.182,0.347c-0.055,0.101-0.113,0.2-0.172,0.298
	c-0.07,0.119-0.143,0.236-0.218,0.352c-0.057,0.087-0.116,0.171-0.176,0.256c-0.085,0.122-0.169,0.242-0.259,0.36
	c-0.053,0.068-0.109,0.134-0.163,0.201c-0.103,0.127-0.206,0.255-0.315,0.378c-0.033,0.037-0.068,0.071-0.102,0.108
	c-0.604,0.656-1.291,1.231-2.049,1.708c-0.016,0.01-0.031,0.021-0.047,0.032c-0.17,0.105-0.344,0.203-0.52,0.298
	c-0.043,0.023-0.084,0.048-0.127,0.07c-0.166,0.086-0.334,0.166-0.504,0.243c-0.039,0.018-0.074,0.038-0.113,0.055v-0.003
	c-0.326,0.143-0.657,0.275-1,0.383V6.5c0-1.761-1.306-3.205-3-3.45c-1.694,0.245-3,1.688-3,3.45V20.04
	c-0.343-0.108-0.674-0.24-1-0.383v0.003c-0.039-0.017-0.075-0.037-0.113-0.055c-0.17-0.077-0.339-0.156-0.504-0.243
	c-0.043-0.022-0.085-0.047-0.128-0.07c-0.175-0.095-0.349-0.193-0.519-0.298c-0.017-0.01-0.032-0.021-0.049-0.032
	c-0.757-0.477-1.444-1.052-2.047-1.708c-0.033-0.037-0.068-0.071-0.102-0.108c-0.109-0.123-0.212-0.25-0.315-0.378
	c-0.054-0.067-0.11-0.133-0.163-0.201c-0.09-0.118-0.175-0.238-0.259-0.36c-0.06-0.085-0.119-0.169-0.176-0.256
	c-0.075-0.115-0.147-0.233-0.217-0.352c-0.059-0.099-0.117-0.198-0.172-0.298c-0.063-0.114-0.123-0.23-0.182-0.347
	c-0.055-0.11-0.108-0.222-0.16-0.335c-0.052-0.114-0.102-0.228-0.149-0.344c-0.05-0.122-0.096-0.245-0.141-0.369
	c-0.041-0.112-0.082-0.225-0.119-0.338c-0.043-0.133-0.081-0.268-0.119-0.403c-0.03-0.11-0.062-0.22-0.089-0.332
	c-0.035-0.146-0.063-0.295-0.092-0.444c-0.02-0.104-0.043-0.208-0.06-0.313c-0.027-0.17-0.045-0.343-0.064-0.516
	c-0.009-0.088-0.022-0.174-0.03-0.262C7.012,11.034,7,10.769,7,10.5V0H0v10.5c0,0.511,0.024,1.016,0.068,1.516
	c0.016,0.172,0.046,0.34,0.067,0.511c0.039,0.324,0.075,0.648,0.132,0.966c0.036,0.204,0.088,0.402,0.132,0.604
	c0.06,0.278,0.116,0.558,0.19,0.831c0.058,0.214,0.13,0.421,0.196,0.631c0.079,0.252,0.154,0.505,0.244,0.752
	c0.08,0.217,0.172,0.428,0.26,0.641c0.095,0.23,0.187,0.462,0.292,0.688c0.101,0.217,0.214,0.427,0.323,0.638
	c0.11,0.211,0.217,0.424,0.335,0.629c0.123,0.213,0.255,0.42,0.386,0.627c0.122,0.193,0.242,0.386,0.372,0.574
	c0.144,0.208,0.296,0.409,0.448,0.61c0.132,0.175,0.265,0.351,0.404,0.52c0.164,0.2,0.335,0.393,0.508,0.585
	c0.142,0.158,0.285,0.316,0.433,0.469c0.184,0.189,0.374,0.373,0.566,0.554c0.15,0.142,0.302,0.282,0.457,0.418
	c0.203,0.177,0.411,0.349,0.622,0.517c0.157,0.125,0.316,0.249,0.479,0.368c0.22,0.163,0.445,0.32,0.673,0.473
	c0.165,0.11,0.332,0.217,0.5,0.321c0.236,0.146,0.476,0.287,0.719,0.421c0.172,0.095,0.347,0.186,0.522,0.275
	c0.25,0.127,0.502,0.25,0.759,0.364c0.18,0.081,0.362,0.155,0.545,0.229c0.262,0.106,0.525,0.209,0.793,0.303
	c0.188,0.065,0.379,0.124,0.57,0.183c0.271,0.083,0.543,0.166,0.819,0.236c0.391,0.099,0.783,0.195,1.184,0.267V29.5v23v2.281
	c-0.401,0.072-0.793,0.167-1.184,0.267c-0.276,0.07-0.548,0.152-0.819,0.236c-0.191,0.059-0.382,0.117-0.57,0.183
	c-0.268,0.093-0.531,0.196-0.793,0.303c-0.183,0.074-0.366,0.148-0.545,0.229c-0.257,0.115-0.509,0.237-0.76,0.365
	c-0.175,0.089-0.349,0.179-0.521,0.274c-0.244,0.135-0.484,0.276-0.721,0.422c-0.168,0.104-0.335,0.21-0.499,0.32
	c-0.229,0.153-0.453,0.31-0.674,0.473c-0.162,0.12-0.321,0.243-0.479,0.368c-0.211,0.168-0.419,0.339-0.622,0.517
	c-0.155,0.136-0.307,0.276-0.457,0.418c-0.192,0.181-0.382,0.364-0.566,0.554C4.643,59.862,4.5,60.02,4.358,60.178
	c-0.172,0.192-0.344,0.385-0.508,0.585c-0.139,0.169-0.271,0.345-0.404,0.52c-0.152,0.201-0.305,0.402-0.448,0.61
	c-0.129,0.188-0.25,0.381-0.372,0.574c-0.131,0.208-0.264,0.414-0.386,0.627c-0.118,0.206-0.225,0.418-0.335,0.629
	c-0.109,0.211-0.222,0.421-0.323,0.638c-0.104,0.225-0.197,0.457-0.292,0.687c-0.088,0.213-0.181,0.424-0.26,0.642
	c-0.09,0.247-0.165,0.5-0.244,0.752c-0.066,0.21-0.138,0.418-0.196,0.632c-0.074,0.273-0.13,0.553-0.19,0.831
	c-0.044,0.201-0.096,0.399-0.132,0.604c-0.057,0.318-0.093,0.643-0.132,0.966c-0.021,0.171-0.051,0.338-0.067,0.511
	C0.024,70.484,0,70.99,0,71.5v24c0,0.51,0.024,1.016,0.068,1.516c0.03,0.34,0.082,0.672,0.131,1.006
	c0.021,0.141,0.032,0.283,0.057,0.424c0.166,0.945,0.41,1.863,0.726,2.748c0.021,0.057,0.047,0.111,0.068,0.17
	c0.142,0.381,0.291,0.76,0.458,1.129c0.044,0.096,0.097,0.188,0.142,0.281c0.155,0.326,0.313,0.65,0.488,0.963
	c0.057,0.104,0.124,0.199,0.183,0.301c0.175,0.299,0.351,0.598,0.543,0.885c0.067,0.1,0.144,0.195,0.213,0.293
	c0.196,0.279,0.394,0.559,0.605,0.824c0.077,0.096,0.161,0.186,0.239,0.281c0.217,0.26,0.435,0.52,0.666,0.766
	c0.084,0.09,0.175,0.174,0.261,0.262c0.236,0.242,0.474,0.482,0.724,0.709c0.092,0.084,0.19,0.16,0.284,0.242
	c0.254,0.221,0.51,0.439,0.777,0.645c0.1,0.078,0.205,0.148,0.306,0.223c0.271,0.199,0.542,0.396,0.825,0.578
	c0.108,0.07,0.221,0.135,0.331,0.201c0.284,0.176,0.569,0.348,0.864,0.506c0.118,0.064,0.24,0.121,0.36,0.182
	c0.293,0.15,0.589,0.297,0.892,0.428c0.13,0.059,0.264,0.107,0.395,0.16c0.3,0.123,0.602,0.242,0.91,0.348
	c0.143,0.049,0.29,0.09,0.435,0.135c0.303,0.096,0.607,0.186,0.917,0.264c0.374,0.094,0.749,0.184,1.132,0.252v2.281v23v2.281
	c-0.401,0.072-0.793,0.168-1.184,0.268c-0.276,0.07-0.548,0.152-0.819,0.236c-0.191,0.059-0.382,0.117-0.57,0.182
	c-0.268,0.094-0.531,0.197-0.793,0.303c-0.183,0.074-0.366,0.148-0.545,0.229c-0.257,0.115-0.509,0.238-0.76,0.365
	c-0.175,0.088-0.349,0.18-0.521,0.273c-0.244,0.135-0.484,0.277-0.721,0.424c-0.168,0.104-0.335,0.209-0.499,0.32
	c-0.229,0.152-0.453,0.309-0.674,0.473c-0.162,0.119-0.321,0.242-0.479,0.367c-0.211,0.168-0.419,0.34-0.622,0.518
	c-0.155,0.135-0.307,0.275-0.457,0.418c-0.192,0.18-0.382,0.363-0.566,0.553c-0.148,0.152-0.291,0.311-0.433,0.469
	c-0.172,0.191-0.344,0.385-0.508,0.586c-0.139,0.17-0.271,0.344-0.404,0.52c-0.152,0.201-0.305,0.402-0.448,0.609
	c-0.129,0.188-0.25,0.381-0.372,0.574c-0.131,0.207-0.264,0.414-0.386,0.627c-0.118,0.207-0.225,0.418-0.335,0.631
	c-0.109,0.211-0.222,0.42-0.323,0.637c-0.104,0.225-0.197,0.457-0.292,0.688c-0.088,0.213-0.181,0.424-0.26,0.641
	c-0.09,0.248-0.165,0.5-0.244,0.752c-0.066,0.211-0.138,0.418-0.196,0.633c-0.074,0.271-0.13,0.553-0.19,0.83
	c-0.044,0.201-0.096,0.4-0.132,0.604c-0.057,0.318-0.093,0.643-0.132,0.967c-0.021,0.17-0.051,0.338-0.067,0.51
	C0.024,155.485,0,155.991,0,156.5V169h7v-12.5c0-0.268,0.012-0.533,0.033-0.797c0.007-0.088,0.021-0.174,0.03-0.262
	c0.019-0.172,0.037-0.346,0.064-0.516c0.017-0.105,0.04-0.209,0.06-0.314c0.029-0.148,0.057-0.297,0.092-0.443
	c0.027-0.111,0.059-0.221,0.089-0.332c0.038-0.135,0.076-0.27,0.119-0.402c0.037-0.115,0.078-0.227,0.119-0.34
	c0.045-0.123,0.091-0.246,0.141-0.369c0.047-0.115,0.098-0.229,0.149-0.344c0.051-0.111,0.104-0.223,0.16-0.334
	c0.059-0.117,0.119-0.232,0.182-0.348c0.055-0.1,0.113-0.199,0.172-0.299c0.07-0.117,0.142-0.234,0.217-0.35
	c0.057-0.088,0.116-0.172,0.176-0.258c0.084-0.121,0.169-0.242,0.259-0.359c0.052-0.068,0.108-0.133,0.163-0.201
	c0.103-0.127,0.206-0.254,0.315-0.377c0.033-0.037,0.068-0.072,0.102-0.107c0.603-0.656,1.291-1.232,2.047-1.709
	c0.017-0.01,0.032-0.021,0.049-0.033c0.169-0.104,0.343-0.201,0.519-0.297c0.043-0.023,0.085-0.047,0.128-0.07
	c0.165-0.086,0.333-0.166,0.504-0.242c0.038-0.018,0.074-0.039,0.113-0.055v0.002c0.326-0.143,0.657-0.273,1-0.383V160.5
	c0,1.762,1.306,3.205,3,3.449c1.694-0.244,3-1.688,3-3.449v-13.539c0.343,0.109,0.674,0.24,1,0.383v-0.002
	c0.039,0.016,0.074,0.037,0.113,0.055c0.17,0.076,0.338,0.156,0.504,0.242c0.043,0.023,0.084,0.047,0.127,0.07
	c0.176,0.096,0.35,0.193,0.52,0.299c0.016,0.01,0.031,0.02,0.047,0.031c0.758,0.477,1.445,1.053,2.049,1.709
	c0.033,0.035,0.068,0.07,0.102,0.107c0.109,0.123,0.213,0.25,0.315,0.377c0.054,0.068,0.11,0.133,0.163,0.201
	c0.09,0.117,0.174,0.238,0.259,0.359c0.06,0.086,0.119,0.17,0.176,0.258c0.075,0.115,0.147,0.232,0.218,0.35
	c0.059,0.1,0.117,0.199,0.172,0.299c0.062,0.115,0.123,0.23,0.182,0.348c0.055,0.111,0.108,0.223,0.16,0.334
	c0.051,0.115,0.102,0.229,0.148,0.346c0.051,0.121,0.096,0.244,0.142,0.367c0.041,0.113,0.081,0.225,0.118,0.34
	c0.043,0.133,0.081,0.268,0.119,0.402c0.03,0.111,0.062,0.221,0.089,0.332c0.035,0.146,0.063,0.295,0.093,0.443
	c0.02,0.105,0.043,0.209,0.059,0.314c0.027,0.17,0.046,0.344,0.064,0.516c0.01,0.088,0.022,0.174,0.029,0.262
	C26.988,155.967,27,156.233,27,156.5V169h7v-12.5c0-0.51-0.023-1.016-0.068-1.516c-0.016-0.172-0.047-0.34-0.066-0.51
	c-0.039-0.324-0.075-0.648-0.133-0.967c-0.035-0.203-0.088-0.402-0.132-0.604c-0.06-0.277-0.116-0.559-0.19-0.83
	c-0.058-0.215-0.13-0.422-0.195-0.633c-0.08-0.252-0.154-0.504-0.244-0.752c-0.08-0.217-0.173-0.428-0.261-0.641
	c-0.095-0.23-0.188-0.463-0.292-0.688c-0.102-0.217-0.214-0.426-0.323-0.637c-0.11-0.213-0.218-0.424-0.335-0.631
	c-0.123-0.213-0.255-0.42-0.387-0.627c-0.121-0.193-0.242-0.387-0.371-0.574c-0.144-0.207-0.296-0.408-0.448-0.609
	c-0.132-0.176-0.265-0.35-0.403-0.52c-0.164-0.201-0.336-0.395-0.508-0.586c-0.143-0.158-0.285-0.316-0.434-0.469
	c-0.184-0.189-0.373-0.373-0.565-0.553c-0.15-0.143-0.302-0.283-0.457-0.418c-0.202-0.178-0.411-0.35-0.622-0.518
	c-0.157-0.125-0.316-0.248-0.479-0.367c-0.221-0.164-0.445-0.32-0.674-0.473c-0.164-0.111-0.33-0.217-0.499-0.32
	c-0.236-0.146-0.477-0.289-0.721-0.424c-0.172-0.094-0.346-0.186-0.521-0.273c-0.251-0.127-0.504-0.25-0.76-0.365
	c-0.18-0.08-0.363-0.154-0.546-0.229c-0.262-0.105-0.524-0.209-0.793-0.303c-0.188-0.064-0.379-0.123-0.569-0.182
	c-0.271-0.084-0.543-0.166-0.82-0.236c-0.391-0.1-0.783-0.195-1.184-0.268V137.5v-23v-2.281c0.4-0.072,0.793-0.166,1.184-0.266
	c0.277-0.07,0.549-0.152,0.82-0.236c0.19-0.059,0.381-0.117,0.569-0.184c0.269-0.092,0.531-0.195,0.793-0.301
	c0.183-0.074,0.366-0.15,0.546-0.23c0.256-0.113,0.509-0.236,0.759-0.363c0.176-0.09,0.351-0.18,0.522-0.275
	c0.244-0.135,0.482-0.275,0.719-0.422c0.169-0.104,0.336-0.211,0.5-0.32c0.229-0.152,0.453-0.311,0.674-0.473
	c0.162-0.121,0.321-0.244,0.479-0.369c0.211-0.168,0.42-0.338,0.622-0.516c0.155-0.137,0.307-0.277,0.457-0.418
	c0.192-0.182,0.382-0.365,0.565-0.555c0.148-0.152,0.291-0.311,0.434-0.469c0.172-0.191,0.344-0.385,0.508-0.584
	c0.139-0.17,0.271-0.346,0.403-0.521c0.152-0.199,0.305-0.4,0.448-0.609c0.129-0.188,0.25-0.381,0.371-0.574
	c0.132-0.207,0.264-0.412,0.387-0.627c0.117-0.205,0.225-0.418,0.335-0.629c0.109-0.211,0.222-0.422,0.323-0.639
	c0.105-0.225,0.197-0.457,0.292-0.688c0.089-0.213,0.181-0.424,0.261-0.641c0.09-0.246,0.165-0.5,0.244-0.752
	c0.065-0.211,0.138-0.418,0.195-0.631c0.074-0.273,0.131-0.553,0.19-0.832c0.044-0.201,0.097-0.398,0.132-0.602
	c0.058-0.318,0.094-0.643,0.133-0.967c0.02-0.172,0.051-0.338,0.066-0.512C33.977,96.518,34,96.012,34,95.5v-24
	c0-0.511-0.023-1.016-0.068-1.514c-0.03-0.34-0.082-0.673-0.131-1.007c-0.021-0.14-0.033-0.284-0.057-0.423
	c-0.166-0.945-0.41-1.863-0.727-2.748c-0.021-0.057-0.047-0.11-0.067-0.167c-0.142-0.383-0.292-0.763-0.46-1.133
	c-0.042-0.093-0.093-0.181-0.137-0.273c-0.156-0.328-0.315-0.654-0.492-0.971c-0.057-0.103-0.123-0.2-0.182-0.301
	c-0.176-0.299-0.352-0.597-0.544-0.883c-0.067-0.101-0.144-0.196-0.213-0.295c-0.196-0.279-0.394-0.557-0.604-0.824
	c-0.077-0.096-0.161-0.186-0.239-0.28c-0.217-0.261-0.435-0.52-0.666-0.767c-0.084-0.09-0.175-0.173-0.261-0.261
	c-0.236-0.242-0.475-0.481-0.725-0.709c-0.092-0.083-0.189-0.16-0.283-0.242c-0.254-0.221-0.511-0.44-0.777-0.646
	c-0.1-0.077-0.205-0.147-0.307-0.222c-0.271-0.199-0.543-0.396-0.824-0.579c-0.108-0.07-0.221-0.133-0.33-0.201
	c-0.284-0.175-0.57-0.348-0.865-0.507c-0.118-0.063-0.24-0.12-0.359-0.181c-0.294-0.149-0.59-0.296-0.893-0.429
	c-0.131-0.057-0.264-0.106-0.396-0.16c-0.3-0.123-0.602-0.242-0.91-0.347c-0.144-0.049-0.29-0.09-0.435-0.135
	c-0.303-0.095-0.607-0.186-0.917-0.264C20.758,54.94,20.383,54.85,20,54.782V52.5V29.5z M21,62.344v-0.002
	c0.008,0.003,0.016,0.008,0.023,0.011c0.096,0.042,0.188,0.091,0.282,0.136c0.222,0.106,0.439,0.221,0.651,0.343
	c0.063,0.036,0.132,0.064,0.193,0.102c0.027,0.017,0.052,0.038,0.079,0.055c0.285,0.176,0.558,0.368,0.823,0.571
	c0.083,0.063,0.165,0.126,0.246,0.192c0.26,0.211,0.509,0.435,0.746,0.67c0.066,0.066,0.131,0.135,0.195,0.204
	c0.24,0.252,0.472,0.514,0.685,0.79c0.038,0.05,0.072,0.102,0.11,0.152c0.203,0.274,0.394,0.56,0.568,0.855
	c0.025,0.042,0.054,0.083,0.078,0.126c0.184,0.32,0.345,0.653,0.492,0.993c0.028,0.065,0.059,0.129,0.085,0.195
	c0.138,0.339,0.257,0.687,0.358,1.043c0.02,0.069,0.037,0.139,0.056,0.208c0.096,0.366,0.173,0.738,0.227,1.118
	c0.007,0.054,0.012,0.109,0.019,0.163C26.968,70.673,27,71.083,27,71.5v24c0,0.256-0.01,0.51-0.029,0.76
	c0,0.008-0.002,0.016-0.003,0.023c-0.032,0.422-0.099,0.834-0.182,1.24c-0.015,0.068-0.027,0.137-0.043,0.205
	c-0.09,0.395-0.202,0.779-0.338,1.154c-0.021,0.059-0.046,0.117-0.067,0.176c-0.148,0.387-0.314,0.766-0.508,1.129
	c-0.002,0.004-0.005,0.008-0.007,0.012c-0.2,0.373-0.426,0.729-0.669,1.072c-0.02,0.027-0.037,0.055-0.057,0.082
	c-0.242,0.334-0.506,0.65-0.787,0.951c-0.03,0.033-0.062,0.066-0.093,0.098c-0.288,0.303-0.594,0.588-0.918,0.852
	c-0.013,0.01-0.024,0.02-0.037,0.029c-0.673,0.541-1.416,0.996-2.214,1.352c-0.018,0.008-0.032,0.018-0.049,0.025v-0.004
	c-0.326,0.143-0.657,0.275-1,0.383V91.5c0-1.76-1.306-3.205-3-3.449c-0.067,0.01-0.139,0.008-0.206,0.021
	C15.2,88.399,14,89.809,14,91.5v13.539c-0.343-0.107-0.674-0.238-1-0.381v0.002c-0.008-0.004-0.016-0.008-0.023-0.012
	c-0.096-0.043-0.188-0.092-0.282-0.137c-0.222-0.105-0.439-0.221-0.652-0.342c-0.063-0.037-0.131-0.064-0.193-0.102
	c-0.027-0.018-0.051-0.039-0.079-0.055c-0.285-0.176-0.558-0.369-0.824-0.57c-0.083-0.064-0.165-0.127-0.245-0.193
	c-0.26-0.211-0.51-0.436-0.748-0.67c-0.066-0.066-0.129-0.135-0.194-0.203c-0.241-0.252-0.472-0.514-0.685-0.791
	c-0.038-0.049-0.072-0.102-0.11-0.152c-0.204-0.273-0.394-0.559-0.569-0.854c-0.025-0.043-0.053-0.084-0.078-0.127
	c-0.183-0.32-0.345-0.652-0.492-0.994c-0.028-0.064-0.057-0.127-0.084-0.193c-0.139-0.34-0.258-0.688-0.359-1.045
	c-0.02-0.068-0.038-0.137-0.056-0.205c-0.095-0.367-0.173-0.74-0.227-1.119c-0.007-0.055-0.012-0.109-0.019-0.164
	C7.032,96.329,7,95.918,7,95.5v-24c0-0.256,0.01-0.509,0.029-0.76c0-0.008,0.003-0.015,0.003-0.023
	c0.033-0.421,0.098-0.833,0.182-1.238c0.014-0.069,0.027-0.138,0.043-0.207c0.09-0.394,0.203-0.778,0.338-1.152
	C7.616,68.06,7.641,68,7.664,67.94c0.148-0.387,0.313-0.764,0.506-1.126c0.002-0.004,0.005-0.009,0.008-0.014
	c0.199-0.373,0.425-0.729,0.668-1.071c0.02-0.027,0.037-0.056,0.057-0.083c0.242-0.333,0.506-0.649,0.786-0.95
	c0.031-0.034,0.062-0.066,0.094-0.1c0.289-0.301,0.593-0.586,0.917-0.85c0.013-0.011,0.026-0.02,0.039-0.03
	c0.672-0.542,1.415-0.996,2.213-1.351c0.017-0.007,0.032-0.018,0.049-0.025v0.003c0.326-0.143,0.657-0.275,1-0.383V75.5
	c0,1.761,1.306,3.205,3,3.45c0.068-0.01,0.139-0.007,0.206-0.021C18.801,78.603,20,77.192,20,75.5V61.961
	C20.343,62.069,20.674,62.201,21,62.344z"/>
</svg>
