<svg version="1.2" baseProfile="tiny" xmlns="http://www.w3.org/2000/svg" viewBox="0 0 592 122.654"><path fill="#FFF" d="M585 26.518H7l76 34.5L7 95.517h578l-76-34.499z"/><g fill="#234C56"><path d="M129.831 82.216h-21.607c-1.981 0-3.853 0-4.865-1.215-.944-1.103-.929-2.756-.914-4.356l.003-.541V3.745c0-3.302 2.682-3.302 7.126-3.302 5.435 0 7.915 0 7.915 3.413l-.003 61.95c-.005.625-.014 1.729.123 2.2.333.082 1.051.183 2.093.183h10.016c3.076 0 3.076 2.269 3.076 6.789 0 5.119 0 7.238-2.963 7.238zm-24.204-3.187c.425.188 1.776.188 2.596.188h21.45c.121-.864.121-2.852.121-4.237 0-1.172 0-3.022-.13-3.789h-9.962c-1.794 0-3.077-.226-3.811-.666l-.099-.063c-1.336-.953-1.32-2.933-1.306-4.676l.003-.481V3.857c0-.085-.002-.152-.005-.206-.759-.208-3.136-.208-4.91-.208-1.037 0-3.336 0-4.125.196l-.001.104-.003 72.926c-.007.702-.019 1.979.182 2.36zM145.024 122.271c-1.223.002-2.474-.103-3.343-.847-1.295-1.133-1.249-2.897-1.211-4.317.006-.221.012-.438.012-.646V45.339c0-1.738.21-2.209 1.04-3.312 1.173-1.562 2.587-1.562 3.835-1.562h23.294c2.85 0 2.85 2.27 2.85 6.789 0 5.269 0 7.239-2.963 7.239h-11.253c-.718 0-1.267.076-1.521.147-.046.062-.084.113-.116.161-.014.152-.014.513-.014.892v14.853c0 .183-.006.373-.013.563-.012.347-.037 1.065.089 1.162.142.101.312.158.825.158l.75-.011h5.401c2.963 0 2.963 2.384 2.963 7.127 0 4.881 0 6.902-2.963 6.902h-5.063c-.958 0-1.709.084-2.043.157-.08.151-.087.504-.069 1.228.006.229.012.469.012.717v16.769c0 .647 0 2.037.119 2.726.424.078 1.244.164 2.319.164h10.69c2.963 0 2.963 2.162 2.963 6.899 0 5.041 0 7.127-2.851 7.127h-21.606c-.353 0-.71.011-1.062.019-.366.01-.726.018-1.071.018zm.332-78.808c-1.163 0-1.201.053-1.388.302-.487.647-.487.647-.487 1.574v71.122c0 .233-.006.479-.013.728-.014.531-.047 1.774.175 1.972.018 0 .305.114 1.379.112.321 0 .656-.008.997-.017.376-.01.759-.021 1.137-.021h21.341c.116-.862.116-2.782.116-4.127 0-1.271 0-3.096-.117-3.899H157.96c-2.018 0-3.414-.226-4.147-.666-1.203-.724-1.29-2.455-1.29-5.224V88.552c0-.224-.006-.437-.011-.64-.033-1.271-.073-2.849 1.465-3.873l.163-.097c.864-.43 2.553-.493 3.483-.493h4.93c.096-.687.096-2.197.096-3.902 0-1.356 0-3.313-.138-4.127l-5.976.011c-.774 0-1.688-.089-2.598-.738-1.407-1.057-1.352-2.639-1.315-3.688.005-.155.011-.312.011-.459V55.693c0-1.521.025-1.878.735-2.86l.108-.149c.257-.345.89-1.189 3.808-1.189h11.111c.104-.709.104-2.305.104-4.239 0-1.646 0-3.106-.097-3.784l-23.046-.009zM212.345 82.162c-2 0-3.03-.035-3.828-.351-1.646-.649-1.646-2.242-1.646-2.84V5.488c0-1.567 0-2.355 1.036-3.563C208.971.5 210.21.5 211.409.5h23.633c2.85 0 2.85 2.127 2.85 6.789 0 4.971 0 7.238-3.3 7.238h-10.916c-.767 0-1.29.088-1.526.153-.117.204-.137.533-.128 1.451l.003.496-.003 15.886c-.005.417-.015 1.286.156 1.433.104.087.469.099.733.099l.765-.009c1.328.074 3.419.111 6.302.111 3.188 0 3.188 2.345 3.188 7.016 0 4.881 0 6.9-3.188 6.9-.236 0-.622-.007-1.098-.018-1.325-.024-3.387-.067-4.778.015-.644.002-1.661.002-2.054.096-.179.271-.156 1.208-.146 1.628.005.236.011.479.011.718v28.357c0 3.304-2.442 3.304-6.487 3.304l-1.654-.002-1.427.001zm-2.472-3.082c.561.082 1.726.082 2.472.082l1.427-.002 1.654.002c1.159 0 2.848 0 3.483-.144.002-.043.003-.097.003-.16V50.501c0-.216-.005-.434-.01-.646-.034-1.415-.077-3.175 1.465-4.203.727-.546 1.865-.589 3.646-.589.514-.033 1.261-.05 2.196-.05.979 0 1.97.02 2.728.033.512.011.913.021 1.122.017.106-.653.106-2.177.106-3.9 0-1.332 0-3.262-.146-4.016-1.024-.005-4.449.001-6.433-.114l-.677.012c-.841 0-1.816-.096-2.67-.808-1.25-1.072-1.231-2.688-1.219-3.759l.002-.318-.001-15.999c-.012-1.279-.023-2.602 1.118-3.742l.16-.14c.664-.497 1.799-.75 3.376-.75h10.916c.053 0 .098 0 .137-.002.163-.751.163-2.817.163-4.236 0-1.646 0-3.104-.091-3.789h-23.391c-.937 0-.937 0-1.162.3-.375.443-.375.443-.375 1.688v73.484l.001.106zM248.998 122.271c-1.224.002-2.476-.103-3.345-.847-1.294-1.133-1.248-2.899-1.211-4.319.006-.219.012-.438.012-.646v-71.12c0-1.736.21-2.206 1.039-3.31 1.173-1.566 2.589-1.566 3.838-1.566h23.293c2.852 0 2.852 2.27 2.852 6.789 0 5.269 0 7.239-2.963 7.239h-11.254c-.718 0-1.267.076-1.521.147-.06.082-.108.146-.143.208.014.015.014.418.014.846v14.853c0 .183-.006.373-.013.563-.013.347-.038 1.065.089 1.162.142.101.312.158.824.158l.75-.011h5.402c2.963 0 2.963 2.384 2.963 7.127 0 4.881 0 6.902-2.963 6.902h-5.064c-.959 0-1.71.084-2.043.157-.081.151-.089.504-.07 1.229.006.228.012.465.012.713v16.769c0 .647 0 2.037.118 2.726.425.078 1.245.164 2.321.164h10.689c2.963 0 2.963 2.162 2.963 6.899 0 5.041 0 7.127-2.85 7.127h-21.605c-.353 0-.711.011-1.062.019-.367.014-.727.022-1.072.022zm.333-78.808c-1.127 0-1.198.047-1.387.3-.49.651-.49.651-.49 1.576v71.122c0 .231-.006.478-.013.726-.014.53-.047 1.776.177 1.974.018 0 .305.114 1.38.112.32 0 .656-.008.996-.017.377-.01.76-.021 1.138-.021h21.34c.115-.862.115-2.782.115-4.127 0-1.271 0-3.096-.117-3.899h-10.535c-2.02 0-3.415-.226-4.149-.666-1.203-.724-1.29-2.455-1.29-5.224V88.552c0-.222-.006-.435-.011-.638-.032-1.271-.072-2.851 1.468-3.875l.161-.095c.863-.432 2.553-.495 3.483-.495h4.931c.097-.687.097-2.197.097-3.902 0-1.356 0-3.313-.139-4.127l-5.977.011c-.773 0-1.687-.089-2.597-.738-1.407-1.057-1.352-2.639-1.315-3.688.006-.155.012-.312.012-.459V55.693c0-1.521.024-1.878.733-2.859l.108-.149c.26-.348.894-1.19 3.809-1.19h11.112c.104-.709.104-2.305.104-4.239 0-1.646 0-3.107-.097-3.784l-23.047-.009zM299.407 82.216c-10.824 0-17.818-6.772-17.818-17.254V58.66c0-2.625 2.491-2.625 7.014-2.625 5.757 0 8.141 0 8.141 2.399v4.726c0 4.771 1.104 5.139 2.664 5.139 1.337 0 2.284-.481 2.562-2.838l.025-.476c.102-1.69.188-3.152.188-4.526 0-3.705-3.963-8.637-8.158-13.858-6.146-7.648-13.109-16.317-13.109-26.429 0-3.372 1.406-8.817 3.009-11.653 1.071-1.896 5.279-8.077 14.474-8.077 9.965 0 17.479 7.226 17.479 16.806v5.515c0 2.181-2.38 2.181-4.684 2.181l-2.221-.005c-5.678 0-8.025 0-8.025-2.288v-5.177c0-2.325-1.481-3.562-2.553-3.562-1.209 0-2.203 1.205-2.338 2.285-.23 1.747-.326 2.994-.326 4.316 0 5.543 4.412 10.616 9.084 15.988 5.816 6.69 12.41 14.274 12.41 24.747 0 2.167-.191 7.565-1.982 10.847-3.984 7.141-7.06 10.121-15.836 10.121zm-14.818-23.053v5.798c0 8.793 5.678 14.254 14.818 14.254 7.322 0 9.505-1.93 13.205-8.569 1.187-2.174 1.611-6.28 1.611-9.397 0-9.351-5.938-16.176-11.678-22.777-5.049-5.809-9.816-11.293-9.816-17.958 0-1.445.104-2.852.351-4.7.3-2.403 2.37-4.902 5.313-4.902 2.67 0 5.551 2.509 5.551 6.562v4.346c1.002.119 3.041.119 5.027.119l2.221.005c.359 0 1.127 0 1.682-.033V17.25c0-7.87-6.227-13.806-14.48-13.806-7.566 0-10.991 5.017-11.858 6.554-1.347 2.383-2.62 7.33-2.62 10.178 0 9.055 6.614 17.286 12.449 24.55 4.732 5.89 8.818 10.979 8.818 15.737 0 1.462-.094 3.039-.191 4.705l-.034.562c-.567 4.86-3.721 5.573-5.548 5.573-5.664 0-5.664-5.702-5.664-8.139V59.17c-.96-.133-3.001-.133-5.141-.133-1.148-.001-3.122-.001-4.016.126zM340.144 122.253c-5.121 0-7.24 0-7.24-2.625v-62.23c0-.23.005-.473.011-.719.011-.479.036-1.646-.125-2.103-.587-.068-1.756-.068-2.437-.068h-4.164c-3.525 0-3.525-3.096-3.525-7.015 0-4.225 0-7.015 3.076-7.015h29.709c2.963 0 2.963 2.701 2.963 6.789 0 4.972 0 7.238-2.853 7.238h-4.838c-.679 0-1.842 0-2.439.072-.159.455-.134 1.618-.123 2.099.006.246.011.487.011.719v62.23c-.001 2.628-2.516 2.628-8.026 2.628zm-4.241-3.093c.775.094 2.406.094 4.24.094 1.554 0 4.004 0 5.023-.162V57.398c0-.209-.005-.428-.01-.651-.035-1.588-.079-3.563 1.378-4.696l.168-.13.194-.079c.772-.309 2.017-.332 3.82-.332h4.563c.126-.866.126-2.854.126-4.238 0-1.172 0-3.036-.153-3.786l-29.403-.003c-.189.825-.189 3.1-.189 4.015 0 2.212.094 3.558.277 4.004.055.006.134.012.246.012h4.164c1.808 0 3.049.022 3.82.331l.197.079.168.131c1.454 1.133 1.41 3.107 1.375 4.694-.006.225-.01.442-.01.652v61.761l.006-.002zM373.337 82.105c-5.561 0-7.238 0-7.238-3.076V3.857c0-3.301 2.271-3.301 7.238-3.301 5.678 0 7.803 0 7.803 3.412v74.835c0 3.302-1.809 3.302-7.803 3.302zm-4.238-3.088c.736.088 2.323.088 4.238.088 1.689 0 3.926 0 4.803-.147V3.968c0-.099 0-.177-.004-.239-.809-.173-3.087-.173-4.799-.173-1.413 0-3.467 0-4.235.152 0 .042-.003.091-.003.146v75.163zM406.872 122.253c-5.401 0-7.637 0-8.018-3.237-2.281-18.483-6.213-47.979-10.013-75.139-.055-.411-.194-1.475.53-2.305.956-1.092 2.391-1.092 7.145-1.092 5.499 0 7.27.146 7.887 3.23l.021.146c.517 5.2 1.047 12.787 1.611 20.819.391 5.566.79 11.242 1.199 16.361.502-5.199 1.004-10.986 1.496-16.664.703-8.11 1.366-15.771 1.938-20.545.38-3.235 2.021-3.235 7.452-3.235 4.56 0 6.185.058 7.146 1.168.729.84.575 1.89.525 2.234-1.737 12.121-3.611 24.186-5.423 35.856-2.253 14.519-4.382 28.229-5.826 39.405-.395 2.998-2.675 2.998-7.67 2.998zm-15.038-78.656c3.795 27.126 7.719 56.582 9.999 75.061.033.278.076.36.077.364.37.229 2.498.229 4.962.229 2.219 0 4.148 0 4.673-.223.009-.035.021-.089.03-.166 1.447-11.205 3.579-24.938 5.836-39.476 1.801-11.603 3.663-23.595 5.392-35.637-.924-.16-3.139-.16-4.679-.16-2.114 0-3.823 0-4.408.148a4.6 4.6 0 0 0-.062.438c-.566 4.73-1.229 12.368-1.932 20.454-.841 9.695-1.711 19.718-2.562 26.623-.048 2.455-1.854 2.525-2.062 2.525-.886 0-1.918-.666-1.946-2.539-.736-6.886-1.434-16.783-2.104-26.357-.561-7.97-1.09-15.501-1.598-20.658a5.522 5.522 0 0 0-.105-.455c-.68-.292-3.672-.292-4.821-.292-2.133.005-3.891.005-4.69.121zM455.849 82.279c-1.886 0-4.734 0-5.112-2.649a495.669 495.669 0 0 1-1.091-8.159c-.345-2.673-.669-5.201-1.104-8.229a16.979 16.979 0 0 0-1.029-.002c-.563.012-1.219.01-1.746 0a19.411 19.411 0 0 0-.988-.003l-.035.332c-.618 5.781-1.064 9.957-1.604 16.203-.225 2.498-3.216 2.498-6.105 2.498l-1.576-.002c-4.071 0-5.718-.306-6.526-1.209a1.879 1.879 0 0 1-.478-1.472c1.468-10.36 2.778-19.484 4.021-28.155 2.251-15.674 4.376-30.478 6.784-48.065.426-2.984 4.753-2.984 7.338-2.984 2.684 0 7.171 0 7.567 3.35a8692.606 8692.606 0 0 1 5.338 35.61c1.79 12.07 3.642 24.549 6.021 40.074a2.016 2.016 0 0 1-.447 1.646c-.864 1.035-2.492 1.209-5.814 1.209l-1.41-.002-2.004.009zm-2.158-3.168c.299.111 1.021.168 2.155.168l1.998-.012 1.41.002c.627 0 2.285 0 3.185-.146-2.329-15.207-4.148-27.472-5.909-39.341a8450.004 8450.004 0 0 0-5.342-35.649c-.026-.214-.415-.751-4.598-.751-3.123 0-4.089.305-4.383.518-2.401 17.541-4.523 32.315-6.77 47.96-1.208 8.418-2.479 17.262-3.892 27.21.616.109 1.771.197 3.901.197l1.576.002c.77 0 2.441 0 3.152-.168.525-6.047.968-10.181 1.574-15.853l.081-.76c.229-2.258 2.448-2.258 3.285-2.258.213 0 .443.004.692.009.495.007 1.104.01 1.638 0 .231-.005.456-.009.666-.009.771 0 3.113 0 3.343 2.268.461 3.152.813 5.917 1.157 8.586.33 2.505.655 5.039 1.081 8.027zm-5.871-24.28c-.185 0-.378-.005-.585-.011-.203-.005-.419-.011-.645-.011-1.468 0-2.562-.062-3.269-.878-.272-.313-.571-.854-.478-1.664.229-3.627.453-6.855.695-10.293.236-3.367.487-6.934.765-11.268-.003-1.685.295-4.668 2.284-4.668 2.395 0 2.516 3.779 2.516 4.538.41 6.473.704 10.769 1.057 15.922l.403 5.921a2.078 2.078 0 0 1-.508 1.646c-.68.766-1.73.766-2.235.766zm-1.936-3.032c.339.014.936.011 1.432.022l.206.006-.351-5.124c-.163-2.38-.312-4.576-.468-6.897l-.167 2.379c-.225 3.22-.439 6.258-.652 9.614zM500.606 122.253h-21.607c-1.981 0-3.853 0-4.865-1.215-.942-1.103-.929-2.756-.914-4.356l.004-.541V43.782c0-3.302 2.685-3.302 7.128-3.302 5.435 0 7.913 0 7.913 3.413l-.003 61.949c-.005.625-.014 1.73.123 2.201.332.082 1.051.183 2.095.183h10.016c3.076 0 3.076 2.269 3.076 6.789-.003 5.119-.003 7.238-2.966 7.238zm-24.204-3.187c.426.188 1.774.188 2.597.188h21.449c.121-.864.121-2.853.121-4.237 0-1.172 0-3.022-.13-3.789h-9.964c-1.794 0-3.073-.226-3.81-.666l-.099-.063c-1.338-.953-1.321-2.933-1.31-4.679l.003-.479V43.894c0-.085-.002-.152-.005-.206-.759-.208-3.135-.208-4.909-.208-1.036 0-3.338 0-4.126.195l-.001.105-.004 72.926c0 .702-.013 1.979.188 2.36z"/></g></svg>