<svg version="1.2" baseProfile="tiny" xmlns="http://www.w3.org/2000/svg" width="592" height="122.654"><path fill="#FFF" d="M585 26.518H7l76 34.5L7 95.517h578l-76-34.499z"/><path fill="#7E2D22" d="M130.161 82.597h-21.824c-1.998 0-3.885 0-4.902-1.223-.951-1.107-.936-2.777-.921-4.395l.004-.543V3.348c0-3.319 2.703-3.319 7.184-3.319 5.479 0 7.979 0 7.979 3.433l-.004 62.574c-.005.637-.014 1.764.127 2.237.336.084 1.065.185 2.127.185h10.116c3.092 0 3.092 2.287 3.092 6.844 0 5.309 0 7.295-2.978 7.295zm-24.459-3.193c.426.193 1.8.193 2.634.193h21.679c.124-.869.124-2.889.124-4.297 0-1.266 0-3.09-.133-3.844h-10.075c-1.81 0-3.101-.225-3.84-.666l-.101-.066c-1.344-.959-1.328-2.953-1.313-4.713l.002-.486V3.461a4.04 4.04 0 0 0-.005-.219c-.758-.213-3.173-.213-4.974-.213-1.054 0-3.395 0-4.182.201l-.001.118-.004 73.664c-.007.71-.019 2.011.189 2.392zM145.508 118.65c-1.231 0-2.493-.104-3.366-.854-1.302-1.137-1.255-2.918-1.218-4.348.006-.224.013-.443.013-.654V40.955c0-1.751.212-2.224 1.046-3.335 1.181-1.576 2.605-1.576 3.863-1.576h23.53c2.864 0 2.864 2.287 2.864 6.843 0 5.31 0 7.297-2.979 7.297h-11.366c-.731 0-1.289.079-1.545.151-.063.086-.113.151-.149.216.012.02.012.428.012.861v15.004c0 .186-.006.377-.013.572-.014.379-.038 1.084.095 1.184.17.121.374.164.844.164l.757-.01h5.457c2.978 0 2.978 2.4 2.978 7.184 0 4.92 0 6.955-2.978 6.955h-5.116c-.979 0-1.742.088-2.075.164-.08.141-.094.461-.073 1.254.006.23.013.473.013.723v16.937c0 .66 0 2.071.121 2.767.43.082 1.263.168 2.357.168h10.799c2.979 0 2.979 2.182 2.979 6.957 0 5.082 0 7.184-2.864 7.184h-21.829c-.356 0-.718.01-1.074.02-.37.001-.734.011-1.083.011zm.338-79.607c-1.146 0-1.219.049-1.414.309-.496.662-.496.662-.496 1.603v71.84c0 .236-.007.482-.014.732-.014.539-.047 1.801.183 2.002.021.004.312.121 1.402.121.324 0 .664-.008 1.008-.021.382-.008.769-.019 1.149-.019h21.57c.119-.866.119-2.819.119-4.184 0-1.293 0-3.148-.121-3.957h-10.655c-2.036 0-3.442-.227-4.182-.668-1.209-.727-1.298-2.475-1.298-5.266V84.603c0-.225-.006-.438-.011-.646-.033-1.274-.074-2.867 1.476-3.897l.159-.095c.87-.437 2.574-.5 3.513-.5h4.995c.099-.688.099-2.225.099-3.957 0-1.379 0-3.366-.142-4.184l-6.05.01c-.778 0-1.698-.088-2.614-.742-1.416-1.061-1.359-2.653-1.322-3.711.005-.157.011-.313.011-.465V51.412c0-1.532.025-1.891.738-2.879l.109-.152c.261-.349.897-1.197 3.835-1.197h11.237c.107-.712.107-2.331.107-4.297 0-1.674 0-3.158-.101-3.838l-23.29-.006zM217.201 82.611c-1.649 0-5.469-.008-5.673-2.646-1.25-15.709-2.991-36.557-4.835-58.63l-1.528-18.317c-.062-.485.11-1.025.491-1.458 1.253-1.421 5.173-1.531 6.345-1.531 3.736 0 7.601 0 7.859 2.602.585 10.868 1.138 19.652 1.673 28.147.313 4.997.618 9.827.92 14.922.338-3.996.636-7.711.943-11.545l.522-6.489c.303-2.743 3.48-2.743 4.677-2.743 1.698 0 4.86 0 5.131 2.715.348 4.078.61 7.595.867 11.012.171 2.292.34 4.531.526 6.855.672-13.704 1.384-26.296 2.028-37.683l.296-5.24c-.002-2.553 3.418-2.553 6.726-2.553l2.104-.013c2.007 0 3.746.084 4.699 1.115.439.474.653 1.1.604 1.764l-.507 6.121c-1.61 19.444-4.331 52.291-5.86 70.956-.202 2.641-3.184 2.641-4.785 2.641l-.904-.006a86.078 86.078 0 0 0-1.034-.006c-4.06 0-6.021-.761-6.359-2.457a928.792 928.792 0 0 1-2.536-13.047c-.203-1.07-.406-2.152-.617-3.257-.436 2.242-.85 4.418-1.272 6.646-.568 2.984-1.154 6.066-1.837 9.537-.595 2.578-4.042 2.578-6.323 2.578l-.946-.002-.519.004c-.265.004-.569.004-.876.008zM235 79.213c.335.129 1.274.385 3.486.385.367 0 .722.004 1.062.008l.876.006c1.04 0 1.56-.055 1.814-.116 1.533-18.712 4.237-51.366 5.841-70.727l.466-5.621c-.358-.071-1.03-.131-2.271-.131l-2.104.013c-1.146 0-2.963 0-3.759.188l-.268 4.774c-.812 14.375-1.733 30.667-2.546 48.623.002 1.831-1.151 2.682-2.294 2.682-1.24 0-2.147-1.068-2.182-2.552-.703-6.974-1.1-12.267-1.52-17.87a1060.13 1060.13 0 0 0-.849-10.775c-.233-.077-.799-.176-2.159-.176-1.05 0-1.514.104-1.701.168l-.508 6.302c-.553 6.903-1.075 13.425-1.86 21.887-.031 1.847-1.168 2.675-2.295 2.675-1.265 0-2.182-1.109-2.182-2.639-.498-9.249-.989-17.07-1.511-25.352-.527-8.374-1.072-17.029-1.643-27.62-1.019-.317-3.89-.317-4.896-.317-1.614 0-3.07.223-3.79.44l1.472 17.617c1.83 21.902 3.559 42.6 4.808 58.273.311.104 1.051.254 2.728.254.293 0 .57-.004.816-.008l.56-.006.946.002c2.255 0 3.112-.181 3.418-.351.66-3.356 1.236-6.39 1.795-9.326.661-3.475 1.297-6.817 2.032-10.492l.064-.278c.344-1.705 1.324-2.063 2.088-2.063.826 0 1.883.384 2.218 2.214a1629.847 1629.847 0 0 1 1.383 7.231c.79 4.156 1.534 8.087 2.465 12.678zM263.948 122.654c-1.231 0-2.492-.104-3.366-.854-1.302-1.139-1.255-2.918-1.217-4.35.006-.223.012-.443.012-.654V44.958c0-1.75.211-2.222 1.044-3.333 1.185-1.578 2.608-1.578 3.865-1.578h23.53c2.863 0 2.863 2.287 2.863 6.843 0 5.31 0 7.296-2.978 7.296h-11.367c-.73 0-1.289.079-1.546.151-.062.086-.113.151-.147.216.012.021.012.428.012.861V70.42c0 .186-.007.375-.015.57-.013.379-.037 1.084.096 1.184.17.121.374.164.845.164l.757-.01h5.456c2.979 0 2.979 2.4 2.979 7.186 0 4.92 0 6.955-2.979 6.955h-5.115c-.979 0-1.741.088-2.074.162-.079.143-.095.463-.073 1.254.006.23.012.473.012.723v16.938c0 .66 0 2.072.121 2.767.429.08 1.262.168 2.357.168h10.798c2.978 0 2.978 2.18 2.978 6.957 0 5.08 0 7.184-2.863 7.184h-21.826c-.357 0-.72.008-1.074.02-.372.002-.737.012-1.085.012zm.338-79.607c-1.146 0-1.218.049-1.413.309-.496.662-.496.662-.496 1.602v71.839c0 .236-.006.482-.013.734-.016.539-.048 1.801.182 2 .021.004.312.121 1.402.121.324 0 .663-.008 1.008-.019.381-.01.768-.02 1.149-.02h21.568c.119-.867.119-2.818.119-4.185 0-1.293 0-3.146-.12-3.957h-10.654c-2.038 0-3.445-.225-4.185-.668-1.208-.727-1.295-2.475-1.295-5.266v-16.93c0-.225-.006-.438-.011-.646-.033-1.274-.073-2.866 1.474-3.897l.161-.094c.87-.437 2.574-.5 3.513-.5h4.993c.101-.688.101-2.226.101-3.955 0-1.382 0-3.369-.144-4.187l-6.048.01c-.778 0-1.698-.088-2.615-.739-1.415-1.062-1.358-2.656-1.322-3.711.007-.16.013-.314.013-.468V55.416c0-1.532.023-1.892.737-2.879l.108-.152c.262-.349.898-1.197 3.836-1.197h11.237c.106-.712.106-2.331.106-4.297 0-1.674 0-3.158-.1-3.838l-23.291-.006zM308.067 82.625c-1.436 0-2.539-.016-3.376-.051-.442-.031-.834-.035-1.198-.041-1.285-.02-2.736-.039-3.425-1.229-.778-1.109-.907-1.736-.907-4.207V5.031c0-1.634 0-3.048 1.17-4.063.926-.893 1.975-.968 2.889-.968l.854.007h11.253c5.845 0 11.154 1.894 14.57 5.196 3.203 3.206 4.889 7.857 4.889 13.469v9.662c0 3.712-.708 6.207-2.442 8.609-.918 1.173-2.006 1.992-2.982 2.575 1.245.625 2.654 1.598 3.783 3.177 1.518 2.275 2.099 4.484 2.099 7.918V63.8c0 3.642-.575 8.431-5.069 13.191-4.57 4.86-10.979 5.586-14.392 5.586-1.104 0-2.362.012-3.653.024-1.373.013-2.773.024-4.063.024zm-5.607-3.136c.264.034.723.04 1.076.047.42.006.868.014 1.325.045.75.03 1.812.047 3.206.047 1.279 0 2.672-.015 4.027-.024 1.302-.013 2.57-.023 3.684-.023 2.928 0 8.407-.604 12.207-4.645 3.749-3.974 4.254-7.857 4.254-11.136V50.613c0-2.853-.41-4.479-1.566-6.215-1.342-1.878-3.41-2.567-4.521-2.938-.699-.233-1.756-.586-1.756-1.76 0-1.122.927-1.543 1.823-1.95 1.035-.471 2.604-1.182 3.725-2.612 1.312-1.822 1.84-3.743 1.84-6.806V18.67c0-3.347-.691-8.029-3.992-11.33-2.844-2.749-7.394-4.335-12.467-4.335L303.22 3c-.68 0-.742.064-.816.138l-.1.09c-.144.119-.144 1.132-.144 1.803v72.066c.001 1.771.031 1.997.3 2.392zm13.433-8.849c-1.312 0-1.854 0-2.565-.143-2.002-.285-2.002-2.699-2.002-3.857V47.999c0-3.659 2.225-3.659 5.592-3.659 1.854 0 6.159.844 6.159 8.662v9.545c0 2.207-.151 4.188-2.028 6.062-1.616 1.763-3.927 2.031-5.156 2.031zm-1.539-3.024c.327.024.752.024 1.539.024.735 0 2.104-.145 2.987-1.104 1.086-1.088 1.194-2.047 1.194-3.988v-9.545c0-3.757-1.062-5.662-3.159-5.662-.791 0-2.05 0-2.57.105-.012.11-.021.284-.021.554v18.643c.001.257.001.669.03.973zm.274-31.177c-.649 0-1.42-.081-2.172-.681-1.131-.907-1.131-2.14-1.131-3.333V15.488c0-.735.09-1.606.754-2.491.793-1.055 2.125-1.055 3.813-1.055 2.276 0 3.567.508 4.767 1.876 1.812 2.091 1.963 4.618 1.963 7.24v7.73c0 1.636-.236 3.564-1.992 5.455-1.307 1.426-3.104 2.183-5.189 2.183l-.813.013zm-.252-21.452a1.81 1.81 0 0 0-.051.501v16.938c0 .382 0 .852.047 1.028.01-.024.084-.015.256-.015l.322-.005c.152-.003.312-.007.488-.007 1.24 0 2.246-.41 2.984-1.217 1.105-1.191 1.197-2.342 1.197-3.42v-7.73c0-2.185-.09-3.96-1.225-5.269-.413-.471-.742-.847-2.505-.847-.533-.002-1.177-.002-1.513.043zM372.046 122.635h-25.688c-1.002 0-1.644-.434-2.002-.795-.993-1-.983-2.551-.979-3.479l.002-.182c0-1.503-.014-2.939-.023-4.279-.046-5.221-.049-8.01.455-9.412 6.769-20.42 10.009-30.24 15.779-48.707.273-.825.149-1.669-.139-2.076-.438-.068-1.234-.068-1.613-.068h-10.912c-2.862 0-2.862-4.229-2.862-6.502 0-3.312 0-7.07 2.862-7.07h24.555c3.488 0 3.658 1.692 3.658 4.684 0 6.223-.108 8.756-.418 9.681-4.779 15.173-7.491 23.847-10.274 32.746-1.776 5.68-3.581 11.449-5.974 19.062-.131.467-.243.867-.018 2.137.098.004.229.006.404.006h13.188c2.75 0 2.75 3.656 2.75 7.525-.001 3.462-.001 6.729-2.751 6.729zm-25.586-3.002l25.149.002c.188-.752.188-2.512.188-3.729 0-1.305 0-3.6-.256-4.525h-12.683c-1.371 0-2.479-.135-3.197-1.818l-.091-.295c-.374-1.871-.277-2.811.027-3.889 2.4-7.652 4.205-13.422 5.98-19.1 2.783-8.9 5.496-17.574 10.285-32.775.271-.966.271-6.83.271-8.756 0-.429 0-1.224-.049-1.669a10.704 10.704 0 0 0-.609-.014H347.31c-.252.79-.252 2.81-.252 4.07 0 2.179.181 3.115.306 3.502h10.471c.938 0 2.107 0 2.944.334l.196.079.168.13c1.713 1.332 1.873 3.796 1.297 5.523-5.771 18.462-9.014 28.291-15.799 48.761-.356.998-.324 4.599-.291 8.41.012 1.349.023 2.793.023 4.306l-.002.2c.005.297.001.936.089 1.253zM391.026 82.484c-5.605 0-7.297 0-7.297-3.092V3.462c0-3.32 2.287-3.32 7.297-3.32 5.725 0 7.866 0 7.866 3.434v75.59c.001 3.318-1.823 3.318-7.866 3.318zm-4.297-3.09c.738.09 2.352.09 4.297.09 1.716 0 3.985 0 4.864-.149.002-.063.002-.125.002-.168V3.576c0-.106-.003-.19-.005-.256-.812-.178-3.125-.178-4.861-.178-1.438 0-3.523 0-4.295.158a7.11 7.11 0 0 0-.002.162v75.932zM440.246 122.635c-3.091 0-5.361-.299-6.444-4.162-2.022-7.113-3.358-12.168-4.772-17.52-1.225-4.633-2.49-9.422-4.323-16.02-.075-.281-.154-.58-.234-.892v35.045c0 3.545-2.431 3.545-7.753 3.545-5.081 0-7.185 0-7.185-3.432V43.156c0-3.091 1.695-3.091 6.729-3.091 5.16 0 6.617.556 7.81 4.726a1075.805 1075.805 0 0 0 8.425 30.838V43.612c0-3.547 2.358-3.547 7.524-3.547 5.544 0 7.41 0 7.41 3.433v74.506c.001 1.559.002 3.027-1.43 3.896-1.04.634-2.548.735-5.757.735zm-16.482-46.306c1.745 0 2.32 1.955 3.458 6.377.132.51.258.998.375 1.437 1.836 6.604 3.104 11.405 4.331 16.049 1.41 5.336 2.741 10.375 4.761 17.467.514 1.832.778 1.98 3.559 1.98 1.071 0 3.521 0 4.129-.265.057-.25.056-.863.056-1.365v-74.51c0-.068 0-.18-.003-.289-.806-.144-2.856-.144-4.407-.144-1.244 0-3.722 0-4.519.212a5.453 5.453 0 0 0-.008.335v34.669c0 1.954 0 4.909-2.295 4.909-1.976 0-2.548-2.727-2.822-4.1a1077.859 1077.859 0 0 1-9.202-33.517c-.704-2.462-.719-2.51-4.913-2.51-1.667 0-3.054 0-3.729.076v76.062l.001.271c.855.157 3.056.157 4.184.157 1.312 0 3.927 0 4.745-.221.005-.076.008-.181.008-.324V81.691c-.004-2.392-.004-5.362 2.291-5.362zM462.639 82.618c-1.23 0-2.49-.104-3.363-.853-1.303-1.141-1.255-2.92-1.219-4.352.007-.225.013-.441.013-.652V4.921c0-1.748.211-2.22 1.042-3.331 1.187-1.581 2.61-1.581 3.869-1.581h23.527c2.863 0 2.863 2.287 2.863 6.844 0 5.31 0 7.297-2.979 7.297h-11.365c-.732 0-1.29.079-1.546.151-.063.086-.113.151-.149.216.014.02.014.428.014.861v15.005c0 .185-.007.376-.015.57-.013.379-.037 1.086.098 1.187.167.119.371.162.843.162l.758-.009h5.455c2.979 0 2.979 2.401 2.979 7.184 0 4.92 0 6.957-2.979 6.957h-5.114c-.979 0-1.741.087-2.075.162-.078.142-.094.463-.072 1.254.007.231.013.472.013.722v16.936c0 .66 0 2.072.122 2.766.429.08 1.262.168 2.354.168h10.799c2.979 0 2.979 2.181 2.979 6.957 0 5.08 0 7.185-2.864 7.185h-21.824c-.355 0-.72.008-1.074.021-.376.002-.741.013-1.09.013zm.34-79.608c-1.147 0-1.222.049-1.416.31-.495.661-.495.661-.495 1.601v71.841c0 .234-.006.48-.014.73-.016.539-.047 1.803.184 2.004.021.004.311.119 1.399.119a35.4 35.4 0 0 0 1.01-.018c.381-.011.768-.021 1.147-.021h21.57c.119-.867.119-2.815.119-4.183 0-1.293 0-3.146-.121-3.957h-10.655c-2.034 0-3.439-.227-4.182-.668-1.21-.729-1.297-2.475-1.297-5.268V48.57c0-.224-.007-.438-.012-.646-.032-1.277-.072-2.867 1.474-3.899l.163-.095c.869-.434 2.572-.499 3.512-.499h4.993c.1-.688.1-2.224.1-3.957 0-1.379 0-3.369-.143-4.184l-6.049.009c-.778 0-1.698-.088-2.614-.741-1.415-1.063-1.358-2.657-1.322-3.712.006-.159.013-.315.013-.465V15.379c0-1.533.023-1.892.737-2.88l.109-.151c.261-.349.896-1.197 3.835-1.197h11.236c.106-.712.106-2.331.106-4.297 0-1.674 0-3.159-.101-3.839l-23.286-.005z"/></svg>