<?xml version="1.0" encoding="utf-8"?>
<!-- Generator: Adobe Illustrator 16.0.0, SVG Export Plug-In . SVG Version: 6.00 Build 0)  -->
<svg version="1.2" baseProfile="tiny" xmlns="http://www.w3.org/2000/svg" xmlns:xlink="http://www.w3.org/1999/xlink" x="0px"
	 y="0px" width="497px" height="82.628px" viewBox="0 0 497 82.628" xml:space="preserve">
<g id="Calque_1">
</g>
<g id="Calque_2">
	<g>
		<polygon fill="#FFFFFF" points="497,76.5 0,76.5 0,7.5 497,7.5 421,42 		"/>
		<g>
			<path fill="#7D2D22" d="M46.594,82.6H24.77c-1.998,0-3.885,0-4.903-1.221c-0.951-1.11-0.935-2.78-0.92-4.395l0.003-0.544V3.348
				c0-3.319,2.704-3.319,7.184-3.319c5.479,0,7.979,0,7.979,3.433L34.11,66.037c-0.005,0.636-0.014,1.763,0.127,2.238
				c0.336,0.084,1.065,0.185,2.127,0.185H46.48c3.092,0,3.092,2.287,3.092,6.844C49.572,80.613,49.572,82.6,46.594,82.6z
				 M22.135,79.406c0.426,0.194,1.8,0.194,2.634,0.194h21.679c0.124-0.87,0.124-2.889,0.124-4.297c0-1.265,0-3.089-0.133-3.844
				H36.364c-1.81,0-3.101-0.224-3.84-0.666l-0.101-0.066c-1.344-0.959-1.328-2.954-1.313-4.714l0.002-0.485V3.461
				c0-0.093-0.002-0.165-0.005-0.219c-0.758-0.213-3.173-0.213-4.974-0.213c-1.054,0-3.394,0-4.182,0.201
				C21.95,3.264,21.95,3.303,21.95,3.348l-0.003,73.664C21.939,77.723,21.927,79.024,22.135,79.406z"/>
		</g>
		<g>
			<path fill="#7D2D22" d="M61.941,82.619c-1.232,0-2.493-0.104-3.367-0.854c-1.301-1.138-1.254-2.918-1.217-4.349
				c0.006-0.223,0.012-0.443,0.012-0.654V4.922c0-1.751,0.212-2.224,1.046-3.335c1.181-1.576,2.606-1.576,3.864-1.576h23.53
				c2.864,0,2.864,2.287,2.864,6.843c0,5.31,0,7.297-2.978,7.297H74.328c-0.731,0-1.289,0.079-1.545,0.151
				c-0.063,0.086-0.113,0.151-0.149,0.216c0.012,0.02,0.012,0.428,0.012,0.861v15.006c0,0.185-0.006,0.376-0.013,0.571
				c-0.014,0.379-0.038,1.084,0.095,1.184c0.17,0.121,0.374,0.164,0.844,0.164l0.756-0.009h5.457c2.978,0,2.978,2.401,2.978,7.184
				c0,4.92,0,6.956-2.978,6.956h-5.116c-0.979,0-1.742,0.087-2.075,0.163c-0.08,0.141-0.094,0.461-0.073,1.254
				c0.006,0.231,0.012,0.472,0.012,0.722v16.937c0,0.66,0,2.072,0.122,2.765c0.429,0.081,1.262,0.168,2.357,0.168h10.799
				c2.978,0,2.978,2.18,2.978,6.957c0,5.081,0,7.184-2.864,7.184H64.098c-0.357,0-0.718,0.009-1.074,0.018
				C62.654,82.609,62.29,82.619,61.941,82.619z M62.279,3.011c-1.146,0-1.219,0.049-1.414,0.309
				c-0.497,0.662-0.497,0.662-0.497,1.603v71.841c0,0.236-0.006,0.482-0.013,0.732c-0.014,0.539-0.047,1.802,0.182,2.002
				c0.022,0.004,0.312,0.121,1.403,0.121c0.324,0,0.664-0.009,1.008-0.018c0.381-0.009,0.768-0.019,1.149-0.019h21.57
				c0.119-0.867,0.119-2.819,0.119-4.184c0-1.293,0-3.147-0.121-3.957H75.01c-2.036,0-3.442-0.225-4.182-0.667
				c-1.209-0.726-1.297-2.473-1.297-5.265V48.572c0-0.224-0.006-0.438-0.011-0.645c-0.033-1.278-0.074-2.869,1.475-3.9l0.16-0.093
				c0.87-0.436,2.574-0.5,3.512-0.5h4.995c0.099-0.688,0.099-2.224,0.099-3.956c0-1.379,0-3.369-0.142-4.184l-6.049,0.009
				c-0.779,0-1.699-0.088-2.615-0.743c-1.416-1.06-1.359-2.655-1.322-3.71c0.005-0.159,0.011-0.315,0.011-0.465V15.379
				c0-1.532,0.025-1.891,0.738-2.879l0.109-0.152c0.261-0.349,0.898-1.197,3.835-1.197h11.238c0.107-0.712,0.107-2.331,0.107-4.297
				c0-1.674,0-3.158-0.1-3.838L62.279,3.011z"/>
		</g>
		<g>
			<path fill="#7D2D22" d="M133.634,82.612c-1.649,0-5.469-0.008-5.673-2.647c-1.25-15.708-2.991-36.557-4.835-58.63l-1.528-18.317
				c-0.062-0.485,0.11-1.025,0.491-1.458c1.253-1.421,5.173-1.531,6.345-1.531c3.736,0,7.6,0,7.859,2.602
				c0.585,10.868,1.138,19.652,1.673,28.147c0.314,4.997,0.618,9.827,0.92,14.922c0.338-3.996,0.636-7.711,0.943-11.545l0.523-6.489
				c0.303-2.743,3.48-2.743,4.677-2.743c1.698,0,4.86,0,5.13,2.715c0.348,4.078,0.611,7.595,0.868,11.012
				c0.171,2.292,0.339,4.531,0.526,6.855c0.672-13.704,1.384-26.296,2.028-37.683l0.296-5.24c-0.002-2.553,3.418-2.553,6.726-2.553
				l2.104-0.013c2.007,0,3.746,0.084,4.7,1.115c0.439,0.474,0.653,1.1,0.603,1.764l-0.507,6.121
				c-1.61,19.444-4.331,52.292-5.86,70.957c-0.202,2.64-3.184,2.64-4.785,2.64l-0.905-0.006c-0.332-0.003-0.677-0.007-1.034-0.007
				c-4.059,0-6.02-0.758-6.359-2.457c-0.966-4.752-1.729-8.781-2.536-13.047c-0.203-1.071-0.407-2.151-0.617-3.254
				c-0.436,2.242-0.85,4.417-1.273,6.645c-0.568,2.985-1.154,6.067-1.837,9.538c-0.595,2.577-4.042,2.577-6.323,2.577l-0.946-0.002
				l-0.519,0.005C134.244,82.608,133.941,82.608,133.634,82.612z M151.433,79.215c0.335,0.13,1.274,0.385,3.486,0.385
				c0.367,0,0.722,0.003,1.062,0.007l0.876,0.006c1.04,0,1.559-0.055,1.814-0.117c1.533-18.713,4.237-51.366,5.841-70.728
				l0.466-5.621c-0.359-0.071-1.03-0.131-2.271-0.131l-2.104,0.013c-1.146,0-2.963,0-3.759,0.188l-0.268,4.774
				c-0.812,14.375-1.733,30.667-2.545,48.623c0.001,1.832-1.152,2.682-2.294,2.682c-1.241,0-2.148-1.068-2.182-2.552
				c-0.703-6.974-1.1-12.267-1.52-17.87c-0.252-3.355-0.511-6.808-0.848-10.775c-0.234-0.077-0.799-0.176-2.159-0.176
				c-1.05,0-1.514,0.104-1.702,0.168l-0.507,6.302c-0.553,6.903-1.076,13.425-1.861,21.887c-0.031,1.847-1.168,2.675-2.295,2.675
				c-1.264,0-2.181-1.109-2.181-2.638c-0.498-9.249-0.99-17.071-1.511-25.352c-0.527-8.374-1.072-17.029-1.643-27.62
				c-1.018-0.317-3.889-0.317-4.895-0.317c-1.614,0-3.07,0.223-3.79,0.44l1.472,17.617c1.83,21.902,3.558,42.599,4.807,58.272
				c0.311,0.104,1.051,0.254,2.728,0.254c0.293,0,0.57-0.004,0.816-0.007l0.56-0.005l0.946,0.002c2.255,0,3.112-0.179,3.418-0.349
				c0.66-3.358,1.236-6.39,1.795-9.327c0.661-3.475,1.297-6.819,2.032-10.492l0.065-0.278c0.343-1.706,1.324-2.064,2.087-2.064
				c0.827,0,1.883,0.384,2.218,2.214c0.011,0.061,0.021,0.118,0.033,0.169c0.492,2.533,0.925,4.818,1.35,7.063
				C149.758,70.692,150.502,74.622,151.433,79.215z"/>
		</g>
		<g>
			<path fill="#7D2D22" d="M180.381,82.619c-1.231,0-2.492-0.104-3.366-0.853c-1.302-1.138-1.255-2.918-1.217-4.349
				c0.006-0.223,0.012-0.443,0.012-0.654V4.922c0-1.75,0.211-2.222,1.044-3.333c1.184-1.578,2.608-1.578,3.865-1.578h23.53
				c2.864,0,2.864,2.287,2.864,6.843c0,5.31,0,7.297-2.978,7.297h-11.367c-0.731,0-1.289,0.079-1.546,0.151
				c-0.062,0.086-0.113,0.151-0.148,0.216c0.012,0.02,0.012,0.428,0.012,0.861v15.006c0,0.185-0.007,0.376-0.014,0.571
				c-0.013,0.379-0.038,1.084,0.095,1.184c0.17,0.121,0.374,0.164,0.845,0.164l0.757-0.009h5.456c2.978,0,2.978,2.401,2.978,7.184
				c0,4.92,0,6.956-2.978,6.956h-5.115c-0.979,0-1.742,0.087-2.075,0.163c-0.079,0.141-0.094,0.462-0.073,1.253
				c0.006,0.231,0.012,0.472,0.012,0.722v16.937c0,0.66,0,2.072,0.121,2.765c0.429,0.081,1.262,0.168,2.357,0.168h10.798
				c2.978,0,2.978,2.18,2.978,6.957c0,5.081,0,7.184-2.863,7.184h-21.825c-0.357,0-0.719,0.009-1.074,0.018
				C181.094,82.609,180.729,82.619,180.381,82.619z M180.719,3.011c-1.146,0-1.218,0.049-1.413,0.309
				c-0.496,0.662-0.496,0.662-0.496,1.602v71.841c0,0.237-0.006,0.483-0.013,0.733c-0.015,0.539-0.048,1.801,0.182,2.001
				c0.021,0.004,0.312,0.121,1.402,0.121c0.324,0,0.663-0.009,1.008-0.018c0.381-0.009,0.768-0.019,1.149-0.019h21.569
				c0.119-0.868,0.119-2.819,0.119-4.184c0-1.293,0-3.147-0.12-3.957h-10.655c-2.038,0-3.445-0.225-4.184-0.668
				c-1.208-0.725-1.295-2.473-1.295-5.264V48.572c0-0.224-0.006-0.439-0.011-0.646c-0.033-1.278-0.073-2.868,1.474-3.899
				l0.161-0.094c0.87-0.435,2.574-0.5,3.513-0.5h4.993c0.1-0.688,0.1-2.224,0.1-3.956c0-1.379,0-3.369-0.143-4.184l-6.048,0.009
				c-0.778,0-1.698-0.088-2.615-0.742c-1.415-1.061-1.359-2.655-1.322-3.711c0.006-0.159,0.012-0.314,0.012-0.465V15.379
				c0-1.532,0.024-1.891,0.738-2.879l0.108-0.152c0.262-0.349,0.898-1.197,3.836-1.197h11.237c0.107-0.712,0.107-2.331,0.107-4.297
				c0-1.674,0-3.158-0.1-3.838L180.719,3.011z"/>
		</g>
		<g>
			<path fill="#7D2D22" d="M224.5,82.628c-1.435,0-2.539-0.017-3.376-0.052c-0.443-0.031-0.834-0.036-1.198-0.041
				c-1.285-0.019-2.736-0.04-3.425-1.229c-0.778-1.109-0.907-1.737-0.907-4.207V5.031c0-1.634,0-3.048,1.169-4.063
				C217.689,0.076,218.739,0,219.653,0l0.852,0.007h11.253c5.844,0,11.154,1.894,14.57,5.196c3.204,3.206,4.889,7.857,4.889,13.469
				v9.662c0,3.712-0.708,6.207-2.443,8.609c-0.918,1.173-2.006,1.992-2.983,2.575c1.245,0.625,2.655,1.598,3.783,3.177
				c1.518,2.275,2.099,4.484,2.099,7.918V63.8c0,3.64-0.576,8.429-5.07,13.192c-4.571,4.86-10.979,5.586-14.391,5.586
				c-1.104,0-2.363,0.012-3.653,0.024C227.19,82.615,225.79,82.628,224.5,82.628z M218.892,79.49
				c0.264,0.034,0.723,0.041,1.077,0.046c0.419,0.006,0.868,0.013,1.325,0.046c0.75,0.03,1.812,0.046,3.206,0.046
				c1.28,0,2.672-0.013,4.029-0.026c1.3-0.012,2.569-0.024,3.682-0.024c2.928,0,8.407-0.603,12.207-4.643
				c3.749-3.974,4.254-7.859,4.254-11.135V50.613c0-2.853-0.41-4.479-1.567-6.215c-1.342-1.878-3.409-2.567-4.52-2.938
				c-0.699-0.233-1.756-0.586-1.756-1.76c0-1.122,0.927-1.543,1.824-1.95c1.036-0.471,2.604-1.182,3.724-2.612
				c1.314-1.822,1.84-3.743,1.84-6.806v-9.662c0-3.347-0.692-8.029-3.992-11.33c-2.844-2.749-7.394-4.335-12.467-4.335L219.653,3
				c-0.681,0-0.744,0.064-0.818,0.138l-0.099,0.09c-0.143,0.119-0.143,1.132-0.143,1.803V77.1
				C218.594,78.868,218.624,79.096,218.892,79.49z M232.325,70.643c-1.31,0-1.853,0-2.565-0.142
				c-2.002-0.286-2.002-2.699-2.002-3.859V47.999c0-3.659,2.225-3.659,5.592-3.659c1.852,0,6.159,0.844,6.159,8.662v9.547
				c0,2.207-0.152,4.186-2.029,6.062C235.865,70.373,233.555,70.643,232.325,70.643z M230.786,67.616
				c0.329,0.025,0.752,0.027,1.539,0.027c0.737,0,2.105-0.144,2.988-1.106c1.087-1.088,1.195-2.047,1.195-3.988v-9.547
				c0-3.757-1.062-5.662-3.159-5.662c-0.791,0-2.05,0-2.57,0.105c-0.012,0.11-0.021,0.284-0.021,0.554v18.643
				C230.758,66.901,230.758,67.313,230.786,67.616z M231.061,36.439c-0.651,0-1.42-0.081-2.172-0.681
				c-1.131-0.907-1.131-2.14-1.131-3.333V15.488c0-0.735,0.09-1.606,0.753-2.491c0.793-1.055,2.126-1.055,3.814-1.055
				c2.277,0,3.569,0.508,4.767,1.876c1.813,2.091,1.963,4.618,1.963,7.24v7.73c0,1.636-0.236,3.564-1.993,5.455
				c-1.306,1.426-3.104,2.183-5.19,2.183L231.061,36.439z M230.809,14.987c-0.03,0.099-0.051,0.247-0.051,0.501v16.938
				c0,0.382,0,0.852,0.047,1.028c0.009-0.024,0.083-0.015,0.256-0.015l0.322-0.005c0.152-0.003,0.314-0.007,0.488-0.007
				c1.241,0,2.246-0.41,2.985-1.217c1.106-1.191,1.198-2.342,1.198-3.42v-7.73c0-2.185-0.09-3.96-1.225-5.269
				c-0.413-0.471-0.742-0.847-2.505-0.847C231.789,14.942,231.145,14.942,230.809,14.987z"/>
		</g>
		<g>
			<path fill="#7D2D22" d="M288.479,82.6h-25.69c-1.002,0-1.642-0.432-2.002-0.795c-0.993-0.999-0.983-2.55-0.978-3.477l0.001-0.183
				c0-1.5-0.013-2.938-0.024-4.278c-0.046-5.222-0.047-8.011,0.455-9.413c6.769-20.419,10.009-30.24,15.78-48.708
				c0.274-0.825,0.15-1.669-0.138-2.076c-0.437-0.068-1.235-0.068-1.613-0.068h-10.912c-2.864,0-2.864-4.229-2.864-6.502
				c0-3.314,0-7.07,2.864-7.07h24.553c3.489,0,3.659,1.692,3.659,4.684c0,6.223-0.109,8.756-0.418,9.681
				c-4.78,15.174-7.492,23.847-10.275,32.747c-1.776,5.678-3.581,11.448-5.972,19.062c-0.131,0.465-0.245,0.866-0.018,2.136
				c0.098,0.004,0.229,0.007,0.404,0.007h13.188c2.75,0,2.75,3.655,2.75,7.525C291.229,79.332,291.229,82.6,288.479,82.6z
				 M262.893,79.598l25.149,0.001c0.188-0.751,0.188-2.511,0.188-3.729c0-1.303,0-3.6-0.256-4.525h-12.682
				c-1.371,0-2.478-0.134-3.197-1.819l-0.091-0.295c-0.374-1.87-0.278-2.809,0.028-3.888c2.401-7.653,4.206-13.422,5.981-19.099
				c2.783-8.901,5.496-17.575,10.285-32.776c0.271-0.966,0.271-6.83,0.271-8.756c0-0.429,0-1.224-0.049-1.669
				c-0.136-0.008-0.331-0.014-0.61-0.014h-24.165c-0.252,0.79-0.252,2.81-0.252,4.07c0,2.179,0.181,3.115,0.306,3.502h10.471
				c0.938,0,2.107,0,2.944,0.334l0.196,0.079l0.168,0.13c1.713,1.332,1.873,3.797,1.297,5.523
				c-5.77,18.463-9.013,28.292-15.799,48.763c-0.356,0.997-0.324,4.597-0.291,8.409c0.012,1.349,0.024,2.794,0.024,4.304
				l-0.001,0.202C262.808,78.643,262.804,79.281,262.893,79.598z"/>
		</g>
		<g>
			<path fill="#7D2D22" d="M307.459,82.486c-5.605,0-7.297,0-7.297-3.092V3.463c0-3.32,2.287-3.32,7.297-3.32
				c5.725,0,7.866,0,7.866,3.434v75.592C315.325,82.486,313.502,82.486,307.459,82.486z M303.162,79.396
				c0.74,0.091,2.351,0.091,4.297,0.091c1.716,0,3.986,0,4.865-0.151c0.001-0.065,0.001-0.126,0.001-0.167V3.576
				c0-0.106-0.002-0.19-0.004-0.256c-0.811-0.178-3.125-0.178-4.862-0.178c-1.436,0-3.523,0-4.295,0.158
				c-0.001,0.045-0.002,0.099-0.002,0.162V79.396C303.162,79.395,303.162,79.396,303.162,79.396z"/>
		</g>
		<g>
			<path fill="#7D2D22" d="M356.679,82.6c-3.091,0-5.362-0.299-6.445-4.164c-2.023-7.113-3.359-12.167-4.773-17.517
				c-1.224-4.633-2.49-9.423-4.323-16.019c-0.076-0.282-0.155-0.581-0.235-0.892v35.046c0,3.545-2.43,3.545-7.753,3.545
				c-5.081,0-7.184,0-7.184-3.432V3.12c0-3.091,1.695-3.091,6.729-3.091c5.16,0,6.617,0.556,7.809,4.726
				c2.461,9.61,5.488,20.688,8.425,30.84V3.576c0-3.547,2.358-3.547,7.524-3.547c5.544,0,7.411,0,7.411,3.433V77.97
				c0.001,1.556,0.002,3.026-1.429,3.897C361.396,82.498,359.888,82.6,356.679,82.6z M340.196,36.292
				c1.745,0,2.321,1.955,3.458,6.377c0.131,0.51,0.257,0.999,0.375,1.436c1.836,6.606,3.104,11.406,4.331,16.048
				c1.41,5.336,2.742,10.376,4.76,17.468c0.514,1.832,0.779,1.979,3.559,1.979c1.071,0,3.521,0,4.129-0.262
				c0.056-0.251,0.055-0.864,0.055-1.366V3.461c0-0.068,0-0.18-0.003-0.289c-0.805-0.144-2.857-0.144-4.408-0.144
				c-1.244,0-3.721,0-4.517,0.212c-0.005,0.078-0.008,0.186-0.008,0.335v34.67c0,1.955,0,4.909-2.295,4.909
				c-1.975,0-2.548-2.724-2.822-4.097c-3.178-10.87-6.531-23.083-9.203-33.519c-0.704-2.462-0.718-2.51-4.913-2.51
				c-1.667,0-3.053,0-3.729,0.076c0,0.005,0,0.01,0,0.015v76.048c0,0.087,0,0.183,0.001,0.272c0.856,0.159,3.055,0.159,4.183,0.159
				c1.312,0,3.926,0,4.746-0.222c0.004-0.076,0.007-0.18,0.007-0.323v-37.4C337.901,39.265,337.901,36.292,340.196,36.292z"/>
		</g>
		<g>
			<path fill="#7D2D22" d="M379.071,82.619c-1.231,0-2.491-0.103-3.364-0.852c-1.302-1.139-1.255-2.92-1.218-4.351
				c0.006-0.223,0.012-0.442,0.012-0.653V4.922c0-1.748,0.211-2.22,1.042-3.331c1.186-1.581,2.611-1.581,3.869-1.581h23.528
				c2.864,0,2.864,2.287,2.864,6.844c0,5.31,0,7.297-2.978,7.297H391.46c-0.732,0-1.29,0.079-1.546,0.151
				c-0.063,0.086-0.113,0.151-0.149,0.216c0.013,0.02,0.013,0.428,0.013,0.861v15.005c0,0.185-0.007,0.376-0.014,0.57
				c-0.013,0.379-0.037,1.086,0.097,1.187c0.167,0.119,0.371,0.162,0.842,0.162l0.758-0.009h5.456c2.978,0,2.978,2.401,2.978,7.184
				c0,4.92,0,6.957-2.978,6.957h-5.115c-0.979,0-1.741,0.087-2.075,0.162c-0.079,0.142-0.094,0.463-0.073,1.254
				c0.006,0.231,0.012,0.472,0.012,0.722v16.937c0,0.66,0,2.072,0.122,2.765c0.429,0.082,1.262,0.169,2.356,0.169h10.798
				c2.979,0,2.979,2.18,2.979,6.957c0,5.08,0,7.183-2.864,7.183h-21.825c-0.356,0-0.719,0.009-1.074,0.018
				C379.785,82.609,379.421,82.619,379.071,82.619z M379.412,3.011c-1.147,0-1.221,0.049-1.416,0.31
				c-0.495,0.661-0.495,0.661-0.495,1.601v71.841c0,0.236-0.006,0.482-0.013,0.731c-0.015,0.54-0.047,1.804,0.183,2.005
				c0.02,0.003,0.31,0.12,1.4,0.12c0.325,0,0.664-0.009,1.009-0.018c0.381-0.009,0.768-0.019,1.149-0.019h21.57
				c0.119-0.867,0.119-2.818,0.119-4.183c0-1.293,0-3.147-0.121-3.957h-10.655c-2.035,0-3.441-0.225-4.182-0.668
				c-1.21-0.726-1.297-2.473-1.297-5.265V48.572c0-0.224-0.006-0.438-0.011-0.645c-0.033-1.277-0.073-2.867,1.473-3.899l0.163-0.095
				c0.87-0.434,2.573-0.499,3.512-0.499h4.993c0.1-0.688,0.1-2.224,0.1-3.957c0-1.379,0-3.369-0.142-4.184l-6.05,0.009
				c-0.778,0-1.698-0.088-2.614-0.741c-1.415-1.063-1.358-2.657-1.322-3.712c0.006-0.159,0.012-0.315,0.012-0.465V15.38
				c0-1.533,0.024-1.892,0.738-2.88l0.109-0.151c0.261-0.349,0.898-1.197,3.835-1.197h11.237c0.107-0.712,0.107-2.331,0.107-4.297
				c0-1.674,0-3.159-0.1-3.839L379.412,3.011z"/>
		</g>
	</g>
</g>
</svg>
