<?xml version="1.0" encoding="utf-8"?>
<!-- Generator: Adobe Illustrator 16.0.0, SVG Export Plug-In . SVG Version: 6.00 Build 0)  -->
<svg version="1.2" baseProfile="tiny" id="Calque_1"
	 xmlns="http://www.w3.org/2000/svg" xmlns:xlink="http://www.w3.org/1999/xlink" x="0px" y="0px" width="497px" height="122.655px"
	 viewBox="0 0 497 122.655" xml:space="preserve">
<g>
	<polygon fill="#FFFFFF" points="497,95.518 0,95.518 0,26.518 497,26.518 421,61.018 	"/>
	<g>
		<path fill="#234C56" d="M46.5,82.217H24.893c-1.981,0-3.853,0-4.865-1.215c-0.944-1.102-0.929-2.756-0.914-4.357l0.003-0.541
			V3.745c0-3.301,2.682-3.301,7.126-3.301c5.435,0,7.915,0,7.915,3.413l-0.003,61.95c-0.005,0.625-0.014,1.73,0.123,2.201
			c0.333,0.082,1.051,0.182,2.093,0.182h10.016c3.076,0,3.076,2.268,3.076,6.789C49.463,80.098,49.463,82.217,46.5,82.217z
			 M22.296,79.03c0.425,0.188,1.776,0.188,2.596,0.188h21.45c0.121-0.865,0.121-2.852,0.121-4.238c0-1.172,0-3.023-0.13-3.789
			h-9.962c-1.794,0-3.077-0.225-3.811-0.666l-0.099-0.064c-1.336-0.953-1.32-2.932-1.306-4.676l0.003-0.482V3.857
			c0-0.085-0.002-0.153-0.005-0.206c-0.759-0.208-3.136-0.208-4.91-0.208c-1.037,0-3.336,0-4.125,0.196
			c-0.001,0.031-0.001,0.065-0.001,0.105l-0.003,72.928C22.107,77.372,22.095,78.649,22.296,79.03z"/>
	</g>
	<g>
		<path fill="#234C56" d="M61.693,122.272c-1.223,0.002-2.474-0.102-3.343-0.846c-1.295-1.133-1.249-2.898-1.211-4.318
			c0.006-0.221,0.012-0.438,0.012-0.646V45.339c0-1.739,0.21-2.209,1.04-3.313c1.173-1.563,2.587-1.563,3.835-1.563H85.32
			c2.85,0,2.85,2.269,2.85,6.789c0,5.268,0,7.239-2.963,7.239H73.954c-0.718,0-1.267,0.077-1.521,0.148
			c-0.046,0.062-0.084,0.114-0.116,0.162c-0.014,0.152-0.014,0.512-0.014,0.891v14.854c0,0.182-0.006,0.373-0.013,0.564
			c-0.012,0.346-0.037,1.066,0.089,1.162c0.142,0.1,0.312,0.158,0.825,0.158l0.75-0.01h5.401c2.963,0,2.963,2.383,2.963,7.127
			c0,4.881,0,6.902-2.963,6.902h-5.063c-0.958,0-1.709,0.084-2.043,0.158c-0.08,0.152-0.087,0.504-0.069,1.227
			c0.006,0.229,0.012,0.469,0.012,0.717v16.768c0,0.648,0,2.037,0.119,2.725c0.424,0.078,1.244,0.164,2.319,0.164H85.32
			c2.963,0,2.963,2.162,2.963,6.9c0,5.041,0,7.127-2.851,7.127H63.826c-0.353,0-0.71,0.01-1.062,0.018
			C62.398,122.264,62.038,122.272,61.693,122.272z M62.025,43.463c-1.163,0-1.201,0.052-1.388,0.301
			c-0.487,0.648-0.487,0.648-0.487,1.575v71.122c0,0.234-0.006,0.479-0.013,0.727c-0.014,0.531-0.047,1.775,0.175,1.971
			c0.018,0,0.305,0.115,1.379,0.113c0.321,0,0.656-0.008,0.997-0.016c0.376-0.01,0.759-0.02,1.137-0.02h21.341
			c0.116-0.863,0.116-2.783,0.116-4.127c0-1.271,0-3.096-0.117-3.9H74.629c-2.018,0-3.414-0.225-4.147-0.666
			c-1.203-0.723-1.29-2.455-1.29-5.223V88.553c0-0.223-0.006-0.436-0.011-0.639c-0.033-1.27-0.073-2.848,1.465-3.873l0.163-0.096
			c0.864-0.43,2.553-0.494,3.483-0.494h4.93c0.096-0.686,0.096-2.197,0.096-3.902c0-1.357,0-3.314-0.138-4.127l-5.976,0.01
			c-0.774,0-1.688-0.088-2.598-0.738c-1.407-1.057-1.352-2.639-1.315-3.688c0.005-0.156,0.011-0.311,0.011-0.459V55.693
			c0-1.522,0.025-1.878,0.735-2.861l0.108-0.15c0.257-0.344,0.89-1.19,3.808-1.19h11.111c0.104-0.709,0.104-2.304,0.104-4.239
			c0-1.647,0-3.107-0.097-3.785L62.025,43.463z"/>
	</g>
	<g>
		<path fill="#234C56" d="M129.014,82.163c-2,0-3.03-0.035-3.828-0.35c-1.646-0.65-1.646-2.242-1.646-2.84V5.488
			c0-1.568,0-2.356,1.036-3.564C125.64,0.5,126.879,0.5,128.078,0.5h23.633c2.85,0,2.85,2.127,2.85,6.789c0,4.971,0,7.239-3.3,7.239
			h-10.916c-0.767,0-1.29,0.087-1.526,0.153c-0.117,0.205-0.137,0.534-0.128,1.452l0.003,0.496l-0.003,15.885
			c-0.005,0.417-0.015,1.287,0.156,1.433c0.104,0.086,0.469,0.098,0.733,0.098l0.765-0.009c1.328,0.075,3.419,0.112,6.302,0.112
			c3.188,0,3.188,2.344,3.188,7.015c0,4.881,0,6.901-3.188,6.901c-0.236,0-0.622-0.007-1.098-0.017
			c-1.325-0.025-3.387-0.068-4.778,0.014c-0.644,0.002-1.661,0.002-2.054,0.095c-0.179,0.271-0.156,1.208-0.146,1.628
			c0.005,0.237,0.011,0.478,0.011,0.718V78.86c0,3.303-2.442,3.303-6.487,3.303l-1.654-0.002L129.014,82.163z M126.542,79.081
			c0.561,0.082,1.726,0.082,2.472,0.082l1.427-0.002l1.654,0.002c1.159,0,2.848,0,3.483-0.143c0.002-0.043,0.003-0.096,0.003-0.16
			V50.501c0-0.216-0.005-0.433-0.01-0.646c-0.034-1.415-0.077-3.175,1.465-4.203c0.727-0.546,1.865-0.589,3.646-0.589
			c0.514-0.033,1.261-0.05,2.196-0.05c0.979,0,1.97,0.019,2.728,0.034c0.512,0.01,0.913,0.021,1.122,0.016
			c0.106-0.654,0.106-2.177,0.106-3.901c0-1.332,0-3.261-0.146-4.015c-1.024-0.005-4.449,0.001-6.433-0.115l-0.677,0.012
			c-0.841,0-1.816-0.096-2.67-0.807c-1.25-1.073-1.231-2.689-1.219-3.759l0.002-0.319L135.69,16.16
			c-0.012-1.279-0.023-2.601,1.118-3.742l0.16-0.139c0.664-0.498,1.799-0.75,3.376-0.75h10.916c0.053,0,0.098,0,0.137-0.002
			c0.163-0.751,0.163-2.818,0.163-4.237c0-1.645,0-3.105-0.091-3.789h-23.391c-0.937,0-0.937,0-1.162,0.3
			c-0.375,0.443-0.375,0.443-0.375,1.688v73.485C126.541,79.012,126.542,79.049,126.542,79.081z"/>
	</g>
	<g>
		<path fill="#234C56" d="M165.667,122.272c-1.224,0.002-2.476-0.102-3.345-0.846c-1.294-1.133-1.248-2.9-1.211-4.32
			c0.006-0.219,0.012-0.438,0.012-0.645V45.339c0-1.737,0.21-2.206,1.039-3.309c1.173-1.567,2.589-1.567,3.838-1.567h23.293
			c2.852,0,2.852,2.269,2.852,6.789c0,5.268,0,7.239-2.963,7.239h-11.254c-0.718,0-1.267,0.077-1.521,0.148
			c-0.06,0.082-0.108,0.146-0.143,0.208c0.014,0.015,0.014,0.418,0.014,0.846v14.854c0,0.182-0.006,0.373-0.013,0.564
			c-0.013,0.346-0.038,1.066,0.089,1.162c0.142,0.1,0.312,0.158,0.824,0.158l0.75-0.01h5.402c2.963,0,2.963,2.383,2.963,7.127
			c0,4.881,0,6.902-2.963,6.902h-5.064c-0.959,0-1.71,0.084-2.043,0.158c-0.081,0.152-0.089,0.504-0.07,1.23
			c0.006,0.227,0.012,0.465,0.012,0.713v16.768c0,0.648,0,2.037,0.118,2.725c0.425,0.078,1.245,0.164,2.321,0.164h10.689
			c2.963,0,2.963,2.162,2.963,6.9c0,5.041,0,7.127-2.85,7.127h-21.605c-0.353,0-0.711,0.01-1.062,0.018
			C166.372,122.264,166.012,122.272,165.667,122.272z M166,43.463c-1.127,0-1.198,0.047-1.387,0.299
			c-0.49,0.652-0.49,0.652-0.49,1.577v71.122c0,0.232-0.006,0.477-0.013,0.725c-0.014,0.531-0.047,1.777,0.177,1.973
			c0.018,0,0.305,0.115,1.38,0.113c0.32,0,0.656-0.008,0.996-0.016c0.377-0.01,0.76-0.02,1.138-0.02h21.34
			c0.115-0.863,0.115-2.783,0.115-4.127c0-1.271,0-3.096-0.117-3.9h-10.535c-2.02,0-3.415-0.225-4.149-0.666
			c-1.203-0.723-1.29-2.455-1.29-5.223V88.553c0-0.221-0.006-0.434-0.011-0.637c-0.032-1.27-0.072-2.85,1.468-3.875l0.161-0.094
			c0.863-0.432,2.553-0.496,3.483-0.496h4.931c0.097-0.686,0.097-2.197,0.097-3.902c0-1.357,0-3.314-0.139-4.127l-5.977,0.01
			c-0.773,0-1.687-0.088-2.597-0.738c-1.407-1.057-1.352-2.639-1.315-3.688c0.006-0.156,0.012-0.311,0.012-0.459V55.693
			c0-1.521,0.024-1.878,0.733-2.86l0.108-0.15c0.26-0.347,0.894-1.191,3.809-1.191h11.112c0.104-0.709,0.104-2.304,0.104-4.239
			c0-1.647,0-3.108-0.097-3.785L166,43.463z"/>
	</g>
	<g>
		<path fill="#234C56" d="M216.076,82.217c-10.824,0-17.818-6.773-17.818-17.254v-6.303c0-2.625,2.491-2.625,7.014-2.625
			c5.758,0,8.141,0,8.141,2.4v4.727c0,4.77,1.104,5.139,2.664,5.139c1.337,0,2.284-0.482,2.561-2.838l0.026-0.475
			c0.102-1.691,0.188-3.153,0.188-4.527c0-3.705-3.963-8.637-8.158-13.859c-6.146-7.649-13.111-16.318-13.111-26.428
			c0-3.372,1.406-8.818,3.009-11.654c1.071-1.895,5.279-8.077,14.472-8.077c9.966,0,17.48,7.225,17.48,16.805v5.514
			c0,2.181-2.38,2.181-4.682,2.181l-2.221-0.005c-5.678,0-8.027,0-8.027-2.288v-5.177c0-2.325-1.481-3.563-2.551-3.563
			c-1.21,0-2.203,1.205-2.338,2.286c-0.232,1.747-0.326,2.994-0.326,4.316c0,5.543,4.412,10.617,9.083,15.989
			c5.817,6.691,12.411,14.275,12.411,24.747c0,2.168-0.193,7.566-1.984,10.848C227.928,79.237,224.851,82.217,216.076,82.217z
			 M201.258,59.163v5.8c0,8.793,5.678,14.254,14.818,14.254c7.322,0,9.505-1.93,13.205-8.57c1.187-2.174,1.611-6.281,1.611-9.398
			c0-9.35-5.936-16.176-11.676-22.778c-5.049-5.808-9.818-11.293-9.818-17.958c0-1.445,0.104-2.851,0.351-4.7
			c0.3-2.404,2.37-4.903,5.313-4.903c2.67,0,5.551,2.509,5.551,6.563v4.346c1.002,0.119,3.042,0.119,5.027,0.119l2.221,0.005
			c0.36,0,1.127,0,1.682-0.034v-4.661c0-7.87-6.226-13.805-14.48-13.805c-7.568,0-10.991,5.016-11.86,6.553
			c-1.347,2.383-2.62,7.33-2.62,10.178c0,9.054,6.614,17.286,12.449,24.549c4.733,5.89,8.82,10.978,8.82,15.738
			c0,1.464-0.094,3.039-0.193,4.705l-0.034,0.561c-0.568,4.861-3.72,5.574-5.548,5.574c-5.664,0-5.664-5.703-5.664-8.139v-3.994
			c-0.96-0.133-3.001-0.133-5.141-0.133C204.126,59.036,202.152,59.036,201.258,59.163z"/>
	</g>
	<g>
		<path fill="#234C56" d="M256.812,122.254c-5.121,0-7.24,0-7.24-2.625V57.398c0-0.231,0.005-0.472,0.011-0.719
			c0.011-0.48,0.036-1.645-0.125-2.102c-0.587-0.068-1.756-0.068-2.437-0.068h-4.164c-3.525,0-3.525-3.096-3.525-7.015
			c0-4.224,0-7.014,3.076-7.014h29.709c2.963,0,2.963,2.701,2.963,6.789c0,4.971,0,7.239-2.852,7.239h-4.838
			c-0.678,0-1.841,0-2.44,0.072c-0.159,0.455-0.134,1.618-0.123,2.099c0.006,0.246,0.011,0.487,0.011,0.718v62.231
			C264.838,122.254,262.323,122.254,256.812,122.254z M252.572,119.161c0.775,0.094,2.406,0.094,4.24,0.094
			c1.554,0,4.005,0,5.025-0.162V57.398c0-0.209-0.005-0.428-0.01-0.652c-0.035-1.588-0.079-3.564,1.378-4.696l0.168-0.13
			l0.196-0.079c0.772-0.309,2.015-0.332,3.82-0.332h4.563c0.126-0.867,0.126-2.854,0.126-4.239c0-1.172,0-3.036-0.153-3.786
			l-29.403-0.003c-0.191,0.825-0.191,3.099-0.191,4.014c0,2.212,0.094,3.557,0.279,4.004c0.053,0.006,0.132,0.011,0.246,0.011h4.164
			c1.806,0,3.048,0.023,3.82,0.332l0.197,0.079l0.168,0.13c1.454,1.133,1.41,3.108,1.375,4.695c-0.005,0.224-0.01,0.443-0.01,0.653
			V119.161z"/>
	</g>
	<g>
		<path fill="#234C56" d="M290.006,82.106c-5.561,0-7.238,0-7.238-3.076V3.857c0-3.301,2.269-3.301,7.238-3.301
			c5.678,0,7.803,0,7.803,3.413v74.836C297.809,82.106,296,82.106,290.006,82.106z M285.768,79.018
			c0.736,0.088,2.323,0.088,4.238,0.088c1.69,0,3.926,0,4.802-0.148c0.001-0.059,0.001-0.115,0.001-0.152V3.969
			c0-0.099-0.001-0.177-0.004-0.24c-0.809-0.173-3.087-0.173-4.799-0.173c-1.413,0-3.467,0-4.236,0.153
			c-0.001,0.042-0.002,0.091-0.002,0.147V79.018z"/>
	</g>
	<g>
		<path fill="#234C56" d="M323.541,122.254c-5.401,0-7.637,0-8.018-3.238c-2.281-18.484-6.211-47.98-10.011-75.14
			c-0.055-0.411-0.196-1.474,0.53-2.304c0.956-1.092,2.391-1.092,7.145-1.092c5.499,0,7.268,0.147,7.885,3.231l0.022,0.146
			c0.515,5.2,1.047,12.787,1.611,20.82c0.391,5.566,0.79,11.242,1.199,16.361c0.502-5.199,1.004-10.986,1.496-16.664
			c0.704-8.111,1.368-15.772,1.939-20.547c0.38-3.235,2.02-3.235,7.452-3.235c4.56,0,6.185,0.057,7.147,1.168
			c0.728,0.839,0.576,1.889,0.526,2.234c-1.737,12.121-3.611,24.187-5.423,35.857c-2.253,14.518-4.382,28.23-5.826,39.406
			C330.816,122.254,328.536,122.254,323.541,122.254z M308.503,43.597c3.795,27.128,7.719,56.582,9.999,75.062
			c0.033,0.279,0.076,0.361,0.077,0.365c0.37,0.23,2.498,0.23,4.962,0.23c2.219,0,4.148,0,4.673-0.223
			c0.009-0.035,0.02-0.088,0.03-0.166c1.447-11.205,3.579-24.936,5.836-39.475c1.801-11.602,3.663-23.596,5.392-35.638
			c-0.924-0.16-3.139-0.16-4.679-0.16c-2.114,0-3.823,0-4.408,0.148c-0.018,0.088-0.04,0.225-0.064,0.439
			c-0.566,4.73-1.229,12.368-1.93,20.454c-0.841,9.695-1.711,19.717-2.563,26.623c-0.048,2.455-1.854,2.525-2.062,2.525
			c-0.886,0-1.918-0.666-1.948-2.539c-0.736-6.885-1.432-16.783-2.104-26.357c-0.561-7.972-1.09-15.503-1.598-20.659
			c-0.03-0.151-0.071-0.345-0.105-0.455c-0.68-0.292-3.672-0.292-4.823-0.292C311.06,43.481,309.302,43.481,308.503,43.597z"/>
	</g>
	<g>
		<path fill="#234C56" d="M372.518,82.28c-1.886,0-4.736,0-5.114-2.65c-0.435-3.045-0.765-5.617-1.091-8.16
			c-0.343-2.672-0.667-5.201-1.104-8.229c-0.219-0.012-0.616-0.008-1.029-0.002c-0.565,0.012-1.219,0.01-1.746,0
			c-0.396-0.008-0.769-0.01-0.99-0.002l-0.035,0.332c-0.618,5.781-1.064,9.957-1.604,16.203c-0.225,2.498-3.216,2.498-6.107,2.498
			l-1.576-0.002c-4.071,0-5.718-0.305-6.526-1.209c-0.368-0.412-0.538-0.934-0.478-1.471c1.468-10.361,2.778-19.485,4.022-28.156
			c2.251-15.673,4.376-30.477,6.784-48.066c0.426-2.984,4.753-2.984,7.338-2.984c2.682,0,7.171,0,7.567,3.349
			c2.062,13.534,3.728,24.757,5.338,35.611c1.79,12.07,3.642,24.55,6.021,40.074c0.104,0.572-0.052,1.17-0.447,1.645
			c-0.864,1.035-2.492,1.209-5.814,1.209l-1.41-0.002L372.518,82.28z M370.36,79.112c0.299,0.111,1.023,0.168,2.157,0.168
			l1.998-0.012l1.41,0.002c0.627,0,2.285,0,3.183-0.145c-2.329-15.207-4.148-27.473-5.909-39.343
			c-1.609-10.851-3.273-22.072-5.342-35.649c-0.026-0.214-0.415-0.751-4.596-0.751c-3.123,0-4.089,0.304-4.383,0.517
			c-2.401,17.541-4.523,32.316-6.77,47.96c-1.208,8.418-2.479,17.263-3.89,27.212c0.616,0.109,1.771,0.197,3.901,0.197l1.576,0.002
			c0.77,0,2.443,0,3.154-0.168c0.525-6.047,0.967-10.18,1.574-15.852l0.081-0.76c0.228-2.259,2.448-2.259,3.285-2.259
			c0.213,0,0.444,0.004,0.693,0.008c0.496,0.007,1.105,0.01,1.637,0c0.233-0.004,0.456-0.008,0.666-0.008
			c0.771,0,3.114,0,3.343,2.269c0.461,3.153,0.814,5.917,1.157,8.586C369.609,73.59,369.934,76.124,370.36,79.112z M364.489,54.831
			L364.489,54.831c-0.183,0-0.378-0.005-0.585-0.01c-0.203-0.005-0.419-0.011-0.643-0.011c-1.468,0-2.562-0.063-3.269-0.878
			c-0.272-0.314-0.571-0.855-0.476-1.664c0.227-3.627,0.453-6.856,0.695-10.293c0.236-3.367,0.487-6.933,0.765-11.267
			c-0.003-1.684,0.294-4.668,2.284-4.668c2.393,0,2.514,3.78,2.514,4.538c0.412,6.473,0.705,10.768,1.057,15.922l0.403,5.921
			c0.088,0.78-0.227,1.332-0.507,1.645C366.044,54.831,364.994,54.831,364.489,54.831z M362.553,51.799
			c0.339,0.013,0.934,0.01,1.43,0.023c0.07,0.001,0.139,0.003,0.206,0.005l-0.349-5.124c-0.163-2.38-0.312-4.576-0.468-6.898
			c-0.057,0.81-0.112,1.6-0.167,2.379C362.979,45.405,362.766,48.443,362.553,51.799z"/>
	</g>
	<g>
		<path fill="#234C56" d="M417.275,122.254h-21.607c-1.981,0-3.853,0-4.865-1.215c-0.944-1.102-0.929-2.756-0.914-4.357l0.004-0.541
			V43.782c0-3.301,2.683-3.301,7.127-3.301c5.434,0,7.914,0,7.914,3.413l-0.003,61.95c-0.005,0.625-0.014,1.73,0.123,2.201
			c0.332,0.082,1.05,0.182,2.093,0.182h10.016c3.076,0,3.076,2.268,3.076,6.789C420.238,120.135,420.238,122.254,417.275,122.254z
			 M393.071,119.067c0.426,0.188,1.776,0.188,2.597,0.188h21.449c0.121-0.865,0.121-2.852,0.121-4.238c0-1.172,0-3.023-0.13-3.789
			h-9.962c-1.794,0-3.075-0.225-3.81-0.666l-0.099-0.064c-1.338-0.953-1.321-2.932-1.308-4.678l0.003-0.48V43.894
			c0-0.085-0.002-0.153-0.005-0.206c-0.759-0.208-3.135-0.208-4.909-0.208c-1.037,0-3.338,0-4.126,0.196
			c-0.001,0.031-0.001,0.065-0.001,0.105l-0.004,72.928C392.883,117.409,392.87,118.686,393.071,119.067z"/>
	</g>
</g>
</svg>
