<?xml version="1.0" encoding="utf-8"?>
<!-- Generator: Adobe Illustrator 16.0.0, SVG Export Plug-In . SVG Version: 6.00 Build 0)  -->
<svg version="1.2" baseProfile="tiny" id="Calque_1"
	 xmlns="http://www.w3.org/2000/svg" xmlns:xlink="http://www.w3.org/1999/xlink" x="0px" y="0px" width="592px" height="122.654px"
	 viewBox="0 0 592 122.654" xml:space="preserve">
<polygon fill="#FFFFFF" points="585,26.518 504,26.518 88,26.518 7,26.518 83,61.018 7,95.517 88,95.517 504,95.517 585,95.517 
	509,61.018 "/>
<g>
	<path fill="#234C56" d="M129.831,82.216h-21.607c-1.981,0-3.853,0-4.865-1.215c-0.944-1.103-0.929-2.756-0.914-4.356l0.003-0.541
		V3.745c0-3.302,2.682-3.302,7.126-3.302c5.435,0,7.915,0,7.915,3.413l-0.003,61.95c-0.005,0.625-0.014,1.729,0.123,2.2
		c0.333,0.082,1.051,0.183,2.093,0.183h10.016c3.076,0,3.076,2.269,3.076,6.789C132.794,80.097,132.794,82.216,129.831,82.216z
		 M105.627,79.029c0.425,0.188,1.776,0.188,2.596,0.188h21.45c0.121-0.864,0.121-2.852,0.121-4.237c0-1.172,0-3.022-0.13-3.789
		h-9.962c-1.794,0-3.077-0.226-3.811-0.666l-0.099-0.063c-1.336-0.953-1.32-2.933-1.306-4.676l0.003-0.481V3.857
		c0-0.085-0.002-0.152-0.005-0.206c-0.759-0.208-3.136-0.208-4.91-0.208c-1.037,0-3.336,0-4.125,0.196
		c-0.001,0.03-0.001,0.064-0.001,0.104l-0.003,72.926C105.438,77.371,105.426,78.648,105.627,79.029z"/>
	<path fill="#234C56" d="M145.024,122.271c-1.223,0.002-2.474-0.103-3.343-0.847c-1.295-1.133-1.249-2.897-1.211-4.317
		c0.006-0.221,0.012-0.438,0.012-0.646V45.339c0-1.738,0.21-2.209,1.04-3.312c1.173-1.562,2.587-1.562,3.835-1.562h23.294
		c2.85,0,2.85,2.27,2.85,6.789c0,5.269,0,7.239-2.963,7.239h-11.253c-0.718,0-1.267,0.076-1.521,0.147
		c-0.046,0.062-0.084,0.113-0.116,0.161c-0.014,0.152-0.014,0.513-0.014,0.892v14.853c0,0.183-0.006,0.373-0.013,0.563
		c-0.012,0.347-0.037,1.065,0.089,1.162c0.142,0.101,0.312,0.158,0.825,0.158l0.75-0.011h5.401c2.963,0,2.963,2.384,2.963,7.127
		c0,4.881,0,6.902-2.963,6.902h-5.063c-0.958,0-1.709,0.084-2.043,0.157c-0.08,0.151-0.087,0.504-0.069,1.228
		c0.006,0.229,0.012,0.469,0.012,0.717v16.769c0,0.647,0,2.037,0.119,2.726c0.424,0.078,1.244,0.164,2.319,0.164h10.69
		c2.963,0,2.963,2.162,2.963,6.899c0,5.041,0,7.127-2.851,7.127h-21.606c-0.353,0-0.71,0.011-1.062,0.019
		C145.729,122.263,145.369,122.271,145.024,122.271z M145.356,43.463c-1.163,0-1.201,0.053-1.388,0.302
		c-0.487,0.647-0.487,0.647-0.487,1.574v71.122c0,0.233-0.006,0.479-0.013,0.728c-0.014,0.531-0.047,1.774,0.175,1.972
		c0.018,0,0.305,0.114,1.379,0.112c0.321,0,0.656-0.008,0.997-0.017c0.376-0.01,0.759-0.021,1.137-0.021h21.341
		c0.116-0.862,0.116-2.782,0.116-4.127c0-1.271,0-3.096-0.117-3.899H157.96c-2.018,0-3.414-0.226-4.147-0.666
		c-1.203-0.724-1.29-2.455-1.29-5.224V88.552c0-0.224-0.006-0.437-0.011-0.64c-0.033-1.271-0.073-2.849,1.465-3.873l0.163-0.097
		c0.864-0.43,2.553-0.493,3.483-0.493h4.93c0.096-0.687,0.096-2.197,0.096-3.902c0-1.356,0-3.313-0.138-4.127l-5.976,0.011
		c-0.774,0-1.688-0.089-2.598-0.738c-1.407-1.057-1.352-2.639-1.315-3.688c0.005-0.155,0.011-0.312,0.011-0.459V55.693
		c0-1.521,0.025-1.878,0.735-2.86l0.108-0.149c0.257-0.345,0.89-1.189,3.808-1.189h11.111c0.104-0.709,0.104-2.305,0.104-4.239
		c0-1.646,0-3.106-0.097-3.784L145.356,43.463z"/>
	<path fill="#234C56" d="M212.345,82.162c-2,0-3.03-0.035-3.828-0.351c-1.646-0.649-1.646-2.242-1.646-2.84V5.488
		c0-1.567,0-2.355,1.036-3.563C208.971,0.5,210.21,0.5,211.409,0.5h23.633c2.85,0,2.85,2.127,2.85,6.789c0,4.971,0,7.238-3.3,7.238
		h-10.916c-0.767,0-1.29,0.088-1.526,0.153c-0.117,0.204-0.137,0.533-0.128,1.451l0.003,0.496l-0.003,15.886
		c-0.005,0.417-0.015,1.286,0.156,1.433c0.104,0.087,0.469,0.099,0.733,0.099l0.765-0.009c1.328,0.074,3.419,0.111,6.302,0.111
		c3.188,0,3.188,2.345,3.188,7.016c0,4.881,0,6.9-3.188,6.9c-0.236,0-0.622-0.007-1.098-0.018c-1.325-0.024-3.387-0.067-4.778,0.015
		c-0.644,0.002-1.661,0.002-2.054,0.096c-0.179,0.271-0.156,1.208-0.146,1.628c0.005,0.236,0.011,0.479,0.011,0.718v28.357
		c0,3.304-2.442,3.304-6.487,3.304l-1.654-0.002L212.345,82.162z M209.873,79.08c0.561,0.082,1.726,0.082,2.472,0.082l1.427-0.002
		l1.654,0.002c1.159,0,2.848,0,3.483-0.144c0.002-0.043,0.003-0.097,0.003-0.16V50.501c0-0.216-0.005-0.434-0.01-0.646
		c-0.034-1.415-0.077-3.175,1.465-4.203c0.727-0.546,1.865-0.589,3.646-0.589c0.514-0.033,1.261-0.05,2.196-0.05
		c0.979,0,1.97,0.02,2.728,0.033c0.512,0.011,0.913,0.021,1.122,0.017c0.106-0.653,0.106-2.177,0.106-3.9
		c0-1.332,0-3.262-0.146-4.016c-1.024-0.005-4.449,0.001-6.433-0.114l-0.677,0.012c-0.841,0-1.816-0.096-2.67-0.808
		c-1.25-1.072-1.231-2.688-1.219-3.759l0.002-0.318l-0.001-15.999c-0.012-1.279-0.023-2.602,1.118-3.742l0.16-0.14
		c0.664-0.497,1.799-0.75,3.376-0.75h10.916c0.053,0,0.098,0,0.137-0.002c0.163-0.751,0.163-2.817,0.163-4.236
		c0-1.646,0-3.104-0.091-3.789h-23.391c-0.937,0-0.937,0-1.162,0.3c-0.375,0.443-0.375,0.443-0.375,1.688v73.484
		C209.872,79.011,209.873,79.048,209.873,79.08z"/>
	<path fill="#234C56" d="M248.998,122.271c-1.224,0.002-2.476-0.103-3.345-0.847c-1.294-1.133-1.248-2.899-1.211-4.319
		c0.006-0.219,0.012-0.438,0.012-0.646V45.339c0-1.736,0.21-2.206,1.039-3.31c1.173-1.566,2.589-1.566,3.838-1.566h23.293
		c2.852,0,2.852,2.27,2.852,6.789c0,5.269,0,7.239-2.963,7.239h-11.254c-0.718,0-1.267,0.076-1.521,0.147
		c-0.06,0.082-0.108,0.146-0.143,0.208c0.014,0.015,0.014,0.418,0.014,0.846v14.853c0,0.183-0.006,0.373-0.013,0.563
		c-0.013,0.347-0.038,1.065,0.089,1.162c0.142,0.101,0.312,0.158,0.824,0.158l0.75-0.011h5.402c2.963,0,2.963,2.384,2.963,7.127
		c0,4.881,0,6.902-2.963,6.902h-5.064c-0.959,0-1.71,0.084-2.043,0.157c-0.081,0.151-0.089,0.504-0.07,1.229
		c0.006,0.228,0.012,0.465,0.012,0.713v16.769c0,0.647,0,2.037,0.118,2.726c0.425,0.078,1.245,0.164,2.321,0.164h10.689
		c2.963,0,2.963,2.162,2.963,6.899c0,5.041,0,7.127-2.85,7.127h-21.605c-0.353,0-0.711,0.011-1.062,0.019
		C249.703,122.263,249.343,122.271,248.998,122.271z M249.331,43.463c-1.127,0-1.198,0.047-1.387,0.3
		c-0.49,0.651-0.49,0.651-0.49,1.576v71.122c0,0.231-0.006,0.478-0.013,0.726c-0.014,0.53-0.047,1.776,0.177,1.974
		c0.018,0,0.305,0.114,1.38,0.112c0.32,0,0.656-0.008,0.996-0.017c0.377-0.01,0.76-0.021,1.138-0.021h21.34
		c0.115-0.862,0.115-2.782,0.115-4.127c0-1.271,0-3.096-0.117-3.899h-10.535c-2.02,0-3.415-0.226-4.149-0.666
		c-1.203-0.724-1.29-2.455-1.29-5.224V88.552c0-0.222-0.006-0.435-0.011-0.638c-0.032-1.271-0.072-2.851,1.468-3.875l0.161-0.095
		c0.863-0.432,2.553-0.495,3.483-0.495h4.931c0.097-0.687,0.097-2.197,0.097-3.902c0-1.356,0-3.313-0.139-4.127l-5.977,0.011
		c-0.773,0-1.687-0.089-2.597-0.738c-1.407-1.057-1.352-2.639-1.315-3.688c0.006-0.155,0.012-0.312,0.012-0.459V55.693
		c0-1.521,0.024-1.878,0.733-2.859l0.108-0.149c0.26-0.348,0.894-1.19,3.809-1.19h11.112c0.104-0.709,0.104-2.305,0.104-4.239
		c0-1.646,0-3.107-0.097-3.784L249.331,43.463z"/>
	<path fill="#234C56" d="M299.407,82.216c-10.824,0-17.818-6.772-17.818-17.254V58.66c0-2.625,2.491-2.625,7.014-2.625
		c5.757,0,8.141,0,8.141,2.399v4.726c0,4.771,1.104,5.139,2.664,5.139c1.337,0,2.284-0.481,2.562-2.838l0.025-0.476
		c0.102-1.69,0.188-3.152,0.188-4.526c0-3.705-3.963-8.637-8.158-13.858c-6.146-7.648-13.109-16.317-13.109-26.429
		c0-3.372,1.406-8.817,3.009-11.653c1.071-1.896,5.279-8.077,14.474-8.077c9.965,0,17.479,7.226,17.479,16.806v5.515
		c0,2.181-2.38,2.181-4.684,2.181l-2.221-0.005c-5.678,0-8.025,0-8.025-2.288v-5.177c0-2.325-1.481-3.562-2.553-3.562
		c-1.209,0-2.203,1.205-2.338,2.285c-0.23,1.747-0.326,2.994-0.326,4.316c0,5.543,4.412,10.616,9.084,15.988
		c5.816,6.69,12.41,14.274,12.41,24.747c0,2.167-0.191,7.565-1.982,10.847C311.259,79.236,308.183,82.216,299.407,82.216z
		 M284.589,59.163v5.798c0,8.793,5.678,14.254,14.818,14.254c7.322,0,9.505-1.93,13.205-8.569c1.187-2.174,1.611-6.28,1.611-9.397
		c0-9.351-5.938-16.176-11.678-22.777c-5.049-5.809-9.816-11.293-9.816-17.958c0-1.445,0.104-2.852,0.351-4.7
		c0.3-2.403,2.37-4.902,5.313-4.902c2.67,0,5.551,2.509,5.551,6.562v4.346c1.002,0.119,3.041,0.119,5.027,0.119l2.221,0.005
		c0.359,0,1.127,0,1.682-0.033v-4.661c0-7.87-6.227-13.806-14.48-13.806c-7.566,0-10.991,5.017-11.858,6.554
		c-1.347,2.383-2.62,7.33-2.62,10.178c0,9.055,6.614,17.286,12.449,24.55c4.732,5.89,8.818,10.979,8.818,15.737
		c0,1.462-0.094,3.039-0.191,4.705l-0.034,0.562c-0.567,4.86-3.721,5.573-5.548,5.573c-5.664,0-5.664-5.702-5.664-8.139v-3.994
		c-0.96-0.133-3.001-0.133-5.141-0.133C287.457,59.036,285.483,59.036,284.589,59.163z"/>
	<path fill="#234C56" d="M340.144,122.253c-5.121,0-7.24,0-7.24-2.625v-62.23c0-0.23,0.005-0.473,0.011-0.719
		c0.011-0.479,0.036-1.646-0.125-2.103c-0.587-0.068-1.756-0.068-2.437-0.068h-4.164c-3.525,0-3.525-3.096-3.525-7.015
		c0-4.225,0-7.015,3.076-7.015h29.709c2.963,0,2.963,2.701,2.963,6.789c0,4.972,0,7.238-2.853,7.238h-4.838
		c-0.679,0-1.842,0-2.439,0.072c-0.159,0.455-0.134,1.618-0.123,2.099c0.006,0.246,0.011,0.487,0.011,0.719v62.23
		C348.169,122.253,345.654,122.253,340.144,122.253z M335.903,119.16c0.775,0.094,2.406,0.094,4.24,0.094
		c1.554,0,4.004,0,5.023-0.162V57.398c0-0.209-0.005-0.428-0.01-0.651c-0.035-1.588-0.079-3.563,1.378-4.696l0.168-0.13l0.194-0.079
		c0.772-0.309,2.017-0.332,3.82-0.332h4.563c0.126-0.866,0.126-2.854,0.126-4.238c0-1.172,0-3.036-0.153-3.786l-29.403-0.003
		c-0.189,0.825-0.189,3.1-0.189,4.015c0,2.212,0.094,3.558,0.277,4.004c0.055,0.006,0.134,0.012,0.246,0.012h4.164
		c1.808,0,3.049,0.022,3.82,0.331l0.197,0.079l0.168,0.131c1.454,1.133,1.41,3.107,1.375,4.694c-0.006,0.225-0.01,0.442-0.01,0.652
		v61.761L335.903,119.16L335.903,119.16z"/>
	<path fill="#234C56" d="M373.337,82.105c-5.561,0-7.238,0-7.238-3.076V3.857c0-3.301,2.271-3.301,7.238-3.301
		c5.678,0,7.803,0,7.803,3.412v74.835C381.14,82.105,379.331,82.105,373.337,82.105z M369.099,79.017
		c0.736,0.088,2.323,0.088,4.238,0.088c1.689,0,3.926,0,4.803-0.147c0-0.06,0-0.115,0-0.151V3.968c0-0.099,0-0.177-0.004-0.239
		c-0.809-0.173-3.087-0.173-4.799-0.173c-1.413,0-3.467,0-4.235,0.152c0,0.042-0.003,0.091-0.003,0.146V79.017z"/>
	<path fill="#234C56" d="M406.872,122.253c-5.401,0-7.637,0-8.018-3.237c-2.281-18.483-6.213-47.979-10.013-75.139
		c-0.055-0.411-0.194-1.475,0.53-2.305c0.956-1.092,2.391-1.092,7.145-1.092c5.499,0,7.27,0.146,7.887,3.23l0.021,0.146
		c0.517,5.2,1.047,12.787,1.611,20.819c0.391,5.566,0.79,11.242,1.199,16.361c0.502-5.199,1.004-10.986,1.496-16.664
		c0.703-8.11,1.366-15.771,1.938-20.545c0.38-3.235,2.021-3.235,7.452-3.235c4.56,0,6.185,0.058,7.146,1.168
		c0.729,0.84,0.575,1.89,0.525,2.234c-1.737,12.121-3.611,24.186-5.423,35.856c-2.253,14.519-4.382,28.229-5.826,39.405
		C414.147,122.253,411.867,122.253,406.872,122.253z M391.834,43.597c3.795,27.126,7.719,56.582,9.999,75.061
		c0.033,0.278,0.076,0.36,0.077,0.364c0.37,0.229,2.498,0.229,4.962,0.229c2.219,0,4.148,0,4.673-0.223
		c0.009-0.035,0.021-0.089,0.03-0.166c1.447-11.205,3.579-24.938,5.836-39.476c1.801-11.603,3.663-23.595,5.392-35.637
		c-0.924-0.16-3.139-0.16-4.679-0.16c-2.114,0-3.823,0-4.408,0.148c-0.018,0.088-0.04,0.225-0.062,0.438
		c-0.566,4.73-1.229,12.368-1.932,20.454c-0.841,9.695-1.711,19.718-2.562,26.623c-0.048,2.455-1.854,2.525-2.062,2.525
		c-0.886,0-1.918-0.666-1.946-2.539c-0.736-6.886-1.434-16.783-2.104-26.357c-0.561-7.97-1.09-15.501-1.598-20.658
		c-0.03-0.15-0.071-0.346-0.105-0.455c-0.68-0.292-3.672-0.292-4.821-0.292C394.391,43.481,392.633,43.481,391.834,43.597z"/>
	<path fill="#234C56" d="M455.849,82.279c-1.886,0-4.734,0-5.112-2.649c-0.437-3.045-0.767-5.616-1.091-8.159
		c-0.345-2.673-0.669-5.201-1.104-8.229c-0.219-0.013-0.616-0.009-1.029-0.002c-0.563,0.012-1.219,0.01-1.746,0
		c-0.396-0.009-0.769-0.011-0.988-0.003l-0.035,0.332c-0.618,5.781-1.064,9.957-1.604,16.203c-0.225,2.498-3.216,2.498-6.105,2.498
		l-1.576-0.002c-4.071,0-5.718-0.306-6.526-1.209c-0.367-0.412-0.538-0.935-0.478-1.472c1.468-10.36,2.778-19.484,4.021-28.155
		c2.251-15.674,4.376-30.478,6.784-48.065c0.426-2.984,4.753-2.984,7.338-2.984c2.684,0,7.171,0,7.567,3.35
		c2.062,13.534,3.728,24.757,5.338,35.61c1.79,12.07,3.642,24.549,6.021,40.074c0.104,0.571-0.054,1.17-0.447,1.646
		c-0.864,1.035-2.492,1.209-5.814,1.209l-1.41-0.002L455.849,82.279z M453.691,79.111c0.299,0.111,1.021,0.168,2.155,0.168
		l1.998-0.012l1.41,0.002c0.627,0,2.285,0,3.185-0.146c-2.329-15.207-4.148-27.472-5.909-39.341
		c-1.609-10.852-3.273-22.072-5.342-35.649c-0.026-0.214-0.415-0.751-4.598-0.751c-3.123,0-4.089,0.305-4.383,0.518
		c-2.401,17.541-4.523,32.315-6.77,47.96c-1.208,8.418-2.479,17.262-3.892,27.21c0.616,0.109,1.771,0.197,3.901,0.197l1.576,0.002
		c0.77,0,2.441,0,3.152-0.168c0.525-6.047,0.968-10.181,1.574-15.853l0.081-0.76c0.229-2.258,2.448-2.258,3.285-2.258
		c0.213,0,0.443,0.004,0.692,0.009c0.495,0.007,1.104,0.01,1.638,0c0.231-0.005,0.456-0.009,0.666-0.009
		c0.771,0,3.113,0,3.343,2.268c0.461,3.152,0.813,5.917,1.157,8.586C452.94,73.589,453.265,76.123,453.691,79.111z M447.82,54.831
		L447.82,54.831c-0.185,0-0.378-0.005-0.585-0.011c-0.203-0.005-0.419-0.011-0.645-0.011c-1.468,0-2.562-0.062-3.269-0.878
		c-0.272-0.313-0.571-0.854-0.478-1.664c0.229-3.627,0.453-6.855,0.695-10.293c0.236-3.367,0.487-6.934,0.765-11.268
		c-0.003-1.685,0.295-4.668,2.284-4.668c2.395,0,2.516,3.779,2.516,4.538c0.41,6.473,0.704,10.769,1.057,15.922l0.403,5.921
		c0.088,0.78-0.229,1.332-0.508,1.646C449.375,54.831,448.325,54.831,447.82,54.831z M445.884,51.799
		c0.339,0.014,0.936,0.011,1.432,0.022c0.068,0.002,0.139,0.004,0.206,0.006l-0.351-5.124c-0.163-2.38-0.312-4.576-0.468-6.897
		c-0.057,0.811-0.112,1.6-0.167,2.379C446.311,45.405,446.097,48.443,445.884,51.799z"/>
	<path fill="#234C56" d="M500.606,122.253h-21.607c-1.981,0-3.853,0-4.865-1.215c-0.942-1.103-0.929-2.756-0.914-4.356l0.004-0.541
		V43.782c0-3.302,2.685-3.302,7.128-3.302c5.435,0,7.913,0,7.913,3.413l-0.003,61.949c-0.005,0.625-0.014,1.73,0.123,2.201
		c0.332,0.082,1.051,0.183,2.095,0.183h10.016c3.076,0,3.076,2.269,3.076,6.789C503.569,120.134,503.569,122.253,500.606,122.253z
		 M476.402,119.066c0.426,0.188,1.774,0.188,2.597,0.188h21.449c0.121-0.864,0.121-2.853,0.121-4.237c0-1.172,0-3.022-0.13-3.789
		h-9.964c-1.794,0-3.073-0.226-3.81-0.666l-0.099-0.063c-1.338-0.953-1.321-2.933-1.31-4.679l0.003-0.479V43.894
		c0-0.085-0.002-0.152-0.005-0.206c-0.759-0.208-3.135-0.208-4.909-0.208c-1.036,0-3.338,0-4.126,0.195
		c-0.001,0.031-0.001,0.065-0.001,0.105l-0.004,72.926C476.214,117.408,476.201,118.685,476.402,119.066z"/>
</g>
</svg>
