<?xml version="1.0" encoding="utf-8"?>
<!-- Generator: Adobe Illustrator 16.0.0, SVG Export Plug-In . SVG Version: 6.00 Build 0)  -->
<svg version="1.2" baseProfile="tiny" id="Calque_1"
	 xmlns="http://www.w3.org/2000/svg" xmlns:xlink="http://www.w3.org/1999/xlink" x="0px" y="0px" width="497px" height="122.656px"
	 viewBox="0 0 497 122.656" xml:space="preserve">
<g>
	<path fill="#FFFFFF" d="M497,86.508c-165.667-55.2-331.333,55.201-497,0c0-23,0-46,0-69c165.667,55.201,331.333-55.2,497,0
		c-25.333,3.059-50.667,9.99-76,19.609C446.333,50.499,471.667,66.567,497,86.508z"/>
	<g>
		<path fill="#7E2D22" d="M46.594,82.598H24.77c-1.998,0-3.885,0-4.902-1.223c-0.951-1.107-0.936-2.777-0.921-4.395l0.004-0.543
			V3.348c0-3.319,2.703-3.319,7.184-3.319c5.479,0,7.979,0,7.979,3.433L34.11,66.036c-0.005,0.637-0.014,1.764,0.127,2.238
			c0.336,0.084,1.065,0.184,2.127,0.184H46.48c3.092,0,3.092,2.287,3.092,6.844C49.572,80.612,49.572,82.598,46.594,82.598z
			 M22.135,79.405c0.426,0.193,1.8,0.193,2.634,0.193h21.679c0.124-0.869,0.124-2.889,0.124-4.297c0-1.266,0-3.09-0.133-3.844
			H36.364c-1.81,0-3.101-0.225-3.84-0.666l-0.101-0.066c-1.344-0.959-1.328-2.953-1.313-4.713l0.002-0.486V3.461
			c0-0.093-0.002-0.165-0.005-0.219c-0.758-0.213-3.173-0.213-4.974-0.213c-1.054,0-3.395,0-4.182,0.201
			C21.95,3.264,21.95,3.303,21.95,3.348l-0.004,73.664C21.939,77.723,21.927,79.024,22.135,79.405z"/>
	</g>
	<g>
		<path fill="#7E2D22" d="M61.941,118.651c-1.231,0-2.493-0.105-3.366-0.855c-1.302-1.137-1.255-2.918-1.218-4.348
			c0.006-0.223,0.013-0.443,0.013-0.654V40.955c0-1.751,0.212-2.224,1.046-3.335c1.181-1.576,2.605-1.576,3.863-1.576h23.53
			c2.864,0,2.864,2.287,2.864,6.843c0,5.31,0,7.297-2.979,7.297H74.328c-0.731,0-1.289,0.079-1.545,0.151
			c-0.063,0.086-0.113,0.151-0.149,0.216c0.012,0.02,0.012,0.428,0.012,0.861v15.004c0,0.186-0.006,0.377-0.013,0.572
			c-0.014,0.379-0.038,1.084,0.095,1.184c0.17,0.121,0.374,0.164,0.844,0.164l0.757-0.01h5.457c2.978,0,2.978,2.4,2.978,7.184
			c0,4.92,0,6.955-2.978,6.955h-5.116c-0.979,0-1.742,0.088-2.075,0.164c-0.08,0.141-0.094,0.461-0.073,1.254
			c0.006,0.23,0.013,0.473,0.013,0.723v16.936c0,0.66,0,2.072,0.121,2.766c0.43,0.082,1.263,0.168,2.357,0.168h10.799
			c2.979,0,2.979,2.182,2.979,6.957c0,5.082,0,7.184-2.864,7.184H64.098c-0.356,0-0.718,0.01-1.074,0.02
			C62.654,118.641,62.29,118.651,61.941,118.651z M62.279,39.043c-1.146,0-1.219,0.049-1.414,0.309
			c-0.496,0.662-0.496,0.662-0.496,1.603v71.84c0,0.236-0.007,0.482-0.014,0.732c-0.014,0.539-0.047,1.801,0.183,2.002
			c0.021,0.004,0.312,0.121,1.402,0.121c0.324,0,0.664-0.008,1.008-0.02c0.382-0.008,0.769-0.018,1.149-0.018h21.57
			c0.119-0.867,0.119-2.82,0.119-4.184c0-1.293,0-3.148-0.121-3.957H75.01c-2.036,0-3.442-0.227-4.182-0.668
			c-1.209-0.727-1.298-2.475-1.298-5.266V84.604c0-0.225-0.006-0.438-0.011-0.646c-0.033-1.275-0.074-2.867,1.476-3.898l0.159-0.094
			c0.87-0.436,2.574-0.5,3.513-0.5h4.995c0.099-0.688,0.099-2.225,0.099-3.957c0-1.379,0-3.367-0.142-4.184l-6.05,0.01
			c-0.778,0-1.698-0.088-2.614-0.742c-1.416-1.061-1.359-2.654-1.322-3.711c0.005-0.158,0.011-0.314,0.011-0.465V51.412
			c0-1.532,0.025-1.891,0.738-2.879l0.109-0.152c0.261-0.349,0.897-1.197,3.835-1.197h11.237c0.107-0.712,0.107-2.331,0.107-4.297
			c0-1.674,0-3.158-0.101-3.838L62.279,39.043z"/>
	</g>
	<g>
		<path fill="#7E2D22" d="M133.634,82.612c-1.649,0-5.469-0.008-5.673-2.646c-1.25-15.709-2.991-36.557-4.835-58.63l-1.528-18.317
			c-0.062-0.485,0.11-1.025,0.491-1.458c1.253-1.421,5.173-1.531,6.345-1.531c3.736,0,7.601,0,7.859,2.602
			c0.585,10.868,1.138,19.652,1.673,28.147c0.313,4.997,0.618,9.827,0.92,14.922c0.338-3.996,0.636-7.711,0.943-11.545l0.522-6.489
			c0.303-2.743,3.48-2.743,4.677-2.743c1.698,0,4.86,0,5.131,2.715c0.348,4.078,0.61,7.595,0.867,11.012
			c0.171,2.292,0.34,4.531,0.526,6.855c0.672-13.704,1.384-26.296,2.028-37.683l0.296-5.24c-0.002-2.553,3.418-2.553,6.726-2.553
			l2.104-0.013c2.007,0,3.746,0.084,4.699,1.115c0.439,0.474,0.653,1.1,0.604,1.764l-0.507,6.121
			c-1.61,19.444-4.331,52.291-5.86,70.955c-0.202,2.641-3.184,2.641-4.785,2.641l-0.904-0.006c-0.332-0.004-0.678-0.006-1.034-0.006
			c-4.06,0-6.021-0.76-6.359-2.457c-0.966-4.752-1.729-8.781-2.536-13.047c-0.203-1.07-0.406-2.152-0.617-3.256
			c-0.436,2.242-0.85,4.418-1.272,6.646c-0.568,2.984-1.154,6.066-1.837,9.537c-0.595,2.578-4.042,2.578-6.323,2.578l-0.946-0.002
			l-0.519,0.004C134.244,82.608,133.941,82.608,133.634,82.612z M151.433,79.213c0.335,0.129,1.274,0.385,3.486,0.385
			c0.367,0,0.722,0.004,1.062,0.008l0.876,0.006c1.04,0,1.56-0.055,1.814-0.117c1.533-18.712,4.237-51.366,5.841-70.727l0.466-5.621
			c-0.358-0.071-1.03-0.131-2.271-0.131l-2.104,0.013c-1.146,0-2.963,0-3.759,0.188l-0.268,4.774
			c-0.812,14.375-1.733,30.667-2.546,48.623c0.002,1.831-1.151,2.682-2.294,2.682c-1.24,0-2.147-1.068-2.182-2.552
			c-0.703-6.974-1.1-12.267-1.52-17.87c-0.252-3.355-0.512-6.808-0.849-10.775c-0.233-0.077-0.799-0.176-2.159-0.176
			c-1.05,0-1.514,0.104-1.701,0.168l-0.508,6.302c-0.553,6.903-1.075,13.425-1.86,21.887c-0.031,1.847-1.168,2.675-2.295,2.675
			c-1.265,0-2.182-1.109-2.182-2.639c-0.498-9.249-0.989-17.07-1.511-25.352c-0.527-8.374-1.072-17.029-1.643-27.62
			c-1.019-0.317-3.89-0.317-4.896-0.317c-1.614,0-3.07,0.223-3.79,0.44l1.472,17.617c1.83,21.902,3.559,42.599,4.808,58.273
			c0.311,0.104,1.051,0.254,2.728,0.254c0.293,0,0.57-0.004,0.816-0.008l0.56-0.006l0.946,0.002c2.255,0,3.112-0.18,3.418-0.35
			c0.66-3.357,1.236-6.389,1.795-9.326c0.661-3.475,1.297-6.818,2.032-10.492l0.064-0.278c0.344-1.705,1.324-2.063,2.088-2.063
			c0.826,0,1.883,0.384,2.218,2.214c0.011,0.062,0.021,0.118,0.033,0.169c0.491,2.533,0.925,4.818,1.35,7.062
			C149.758,70.692,150.502,74.622,151.433,79.213z"/>
	</g>
	<g>
		<path fill="#7E2D22" d="M180.381,122.655c-1.231,0-2.492-0.105-3.366-0.854c-1.302-1.139-1.255-2.918-1.217-4.35
			c0.006-0.223,0.012-0.443,0.012-0.654V44.958c0-1.75,0.211-2.222,1.044-3.333c1.185-1.578,2.608-1.578,3.865-1.578h23.53
			c2.863,0,2.863,2.287,2.863,6.843c0,5.31,0,7.296-2.978,7.296h-11.367c-0.73,0-1.289,0.079-1.546,0.151
			c-0.062,0.086-0.113,0.151-0.147,0.216c0.012,0.021,0.012,0.428,0.012,0.861V70.42c0,0.186-0.007,0.375-0.015,0.57
			c-0.013,0.379-0.037,1.084,0.096,1.184c0.17,0.121,0.374,0.164,0.845,0.164l0.757-0.01h5.456c2.979,0,2.979,2.4,2.979,7.186
			c0,4.92,0,6.955-2.979,6.955h-5.115c-0.979,0-1.741,0.088-2.074,0.162c-0.079,0.143-0.095,0.463-0.073,1.254
			c0.006,0.23,0.012,0.473,0.012,0.723v16.938c0,0.66,0,2.072,0.121,2.766c0.429,0.08,1.262,0.168,2.357,0.168h10.798
			c2.978,0,2.978,2.18,2.978,6.957c0,5.08,0,7.184-2.863,7.184H182.54c-0.357,0-0.72,0.008-1.074,0.02
			C181.094,122.645,180.729,122.655,180.381,122.655z M180.719,43.047c-1.146,0-1.218,0.049-1.413,0.309
			c-0.496,0.662-0.496,0.662-0.496,1.602v71.839c0,0.236-0.006,0.482-0.013,0.734c-0.016,0.539-0.048,1.801,0.182,2
			c0.021,0.004,0.312,0.121,1.402,0.121c0.324,0,0.663-0.008,1.008-0.018c0.381-0.01,0.768-0.02,1.149-0.02h21.568
			c0.119-0.867,0.119-2.818,0.119-4.184c0-1.293,0-3.146-0.12-3.957h-10.654c-2.038,0-3.445-0.225-4.185-0.668
			c-1.208-0.727-1.295-2.475-1.295-5.266V88.608c0-0.225-0.006-0.438-0.011-0.646c-0.033-1.275-0.073-2.867,1.474-3.898l0.161-0.094
			c0.87-0.436,2.574-0.5,3.513-0.5h4.993c0.101-0.688,0.101-2.225,0.101-3.955c0-1.381,0-3.369-0.144-4.186l-6.048,0.01
			c-0.778,0-1.698-0.088-2.615-0.74c-1.415-1.062-1.358-2.656-1.322-3.711c0.007-0.16,0.013-0.314,0.013-0.467V55.416
			c0-1.532,0.023-1.892,0.737-2.879l0.108-0.152c0.262-0.349,0.898-1.197,3.836-1.197h11.237c0.106-0.712,0.106-2.331,0.106-4.297
			c0-1.674,0-3.158-0.1-3.838L180.719,43.047z"/>
	</g>
	<g>
		<path fill="#7E2D22" d="M224.5,82.625c-1.436,0-2.539-0.016-3.376-0.051c-0.443-0.031-0.834-0.035-1.198-0.041
			c-1.285-0.02-2.736-0.039-3.425-1.229c-0.778-1.109-0.907-1.736-0.907-4.207V5.031c0-1.634,0-3.048,1.169-4.063
			C217.689,0.075,218.739,0,219.653,0l0.853,0.007h11.253c5.844,0,11.154,1.894,14.57,5.196c3.203,3.206,4.889,7.857,4.889,13.469
			v9.662c0,3.712-0.708,6.207-2.443,8.609c-0.918,1.173-2.006,1.992-2.982,2.575c1.245,0.625,2.654,1.598,3.783,3.177
			c1.518,2.275,2.099,4.484,2.099,7.918v13.187c0,3.641-0.576,8.43-5.07,13.191c-4.57,4.861-10.979,5.586-14.391,5.586
			c-1.104,0-2.363,0.012-3.653,0.025C227.19,82.614,225.79,82.625,224.5,82.625z M218.892,79.489
			c0.264,0.035,0.723,0.041,1.077,0.047c0.419,0.006,0.868,0.014,1.325,0.045c0.75,0.031,1.812,0.047,3.206,0.047
			c1.279,0,2.672-0.014,4.028-0.025c1.301-0.012,2.569-0.023,3.683-0.023c2.928,0,8.407-0.604,12.207-4.645
			c3.749-3.973,4.254-7.857,4.254-11.135V50.613c0-2.853-0.41-4.479-1.567-6.215c-1.342-1.878-3.409-2.567-4.52-2.938
			c-0.699-0.233-1.756-0.586-1.756-1.76c0-1.122,0.927-1.543,1.823-1.95c1.036-0.471,2.604-1.182,3.725-2.612
			c1.313-1.822,1.84-3.743,1.84-6.806V18.67c0-3.347-0.692-8.029-3.992-11.33c-2.844-2.749-7.394-4.335-12.467-4.335L219.653,3
			c-0.681,0-0.743,0.064-0.817,0.138l-0.1,0.09c-0.143,0.119-0.143,1.132-0.143,1.803v72.067
			C218.594,78.868,218.624,79.094,218.892,79.489z M232.325,70.641c-1.311,0-1.854,0-2.565-0.143
			c-2.002-0.285-2.002-2.699-2.002-3.857V47.999c0-3.659,2.225-3.659,5.592-3.659c1.853,0,6.159,0.844,6.159,8.662v9.545
			c0,2.207-0.152,4.188-2.029,6.062C235.865,70.372,233.555,70.641,232.325,70.641z M230.786,67.616
			c0.328,0.025,0.752,0.025,1.539,0.025c0.736,0,2.104-0.145,2.987-1.105c1.087-1.088,1.195-2.047,1.195-3.988v-9.545
			c0-3.757-1.062-5.662-3.159-5.662c-0.791,0-2.05,0-2.57,0.105c-0.012,0.11-0.021,0.284-0.021,0.554v18.642
			C230.758,66.901,230.758,67.313,230.786,67.616z M231.061,36.439c-0.65,0-1.42-0.081-2.172-0.681
			c-1.131-0.907-1.131-2.14-1.131-3.333V15.488c0-0.735,0.09-1.606,0.753-2.491c0.793-1.055,2.126-1.055,3.814-1.055
			c2.276,0,3.568,0.508,4.767,1.876c1.812,2.091,1.963,4.618,1.963,7.24v7.73c0,1.636-0.236,3.564-1.993,5.455
			c-1.306,1.426-3.104,2.183-5.189,2.183L231.061,36.439z M230.809,14.987c-0.03,0.099-0.051,0.247-0.051,0.501v16.938
			c0,0.382,0,0.852,0.047,1.028c0.009-0.024,0.083-0.015,0.256-0.015l0.322-0.005c0.152-0.003,0.313-0.007,0.488-0.007
			c1.24,0,2.246-0.41,2.984-1.217c1.106-1.191,1.198-2.342,1.198-3.42v-7.73c0-2.185-0.09-3.96-1.225-5.269
			c-0.413-0.471-0.742-0.847-2.505-0.847C231.789,14.942,231.145,14.942,230.809,14.987z"/>
	</g>
	<g>
		<path fill="#7E2D22" d="M288.479,122.635h-25.689c-1.002,0-1.643-0.434-2.002-0.795c-0.993-1-0.983-2.551-0.979-3.479l0.001-0.182
			c0-1.502-0.013-2.939-0.023-4.279c-0.046-5.221-0.048-8.01,0.455-9.412c6.769-20.42,10.009-30.24,15.779-48.707
			c0.274-0.825,0.15-1.669-0.138-2.076c-0.438-0.068-1.235-0.068-1.613-0.068h-10.912c-2.863,0-2.863-4.229-2.863-6.502
			c0-3.313,0-7.07,2.863-7.07h24.554c3.488,0,3.658,1.692,3.658,4.684c0,6.223-0.108,8.756-0.418,9.681
			c-4.779,15.173-7.491,23.847-10.274,32.746c-1.776,5.68-3.581,11.449-5.973,19.062c-0.131,0.467-0.244,0.867-0.018,2.137
			c0.098,0.004,0.229,0.006,0.404,0.006h13.188c2.75,0,2.75,3.656,2.75,7.525C291.229,119.368,291.229,122.635,288.479,122.635z
			 M262.893,119.633l25.149,0.002c0.188-0.752,0.188-2.512,0.188-3.729c0-1.305,0-3.6-0.256-4.525h-12.682
			c-1.371,0-2.479-0.135-3.197-1.818l-0.091-0.295c-0.374-1.871-0.278-2.811,0.027-3.889c2.401-7.652,4.206-13.422,5.981-19.1
			c2.783-8.9,5.496-17.574,10.285-32.775c0.271-0.966,0.271-6.83,0.271-8.756c0-0.429,0-1.224-0.049-1.669
			c-0.136-0.008-0.331-0.014-0.609-0.014h-24.165c-0.252,0.79-0.252,2.81-0.252,4.07c0,2.179,0.181,3.115,0.306,3.502h10.471
			c0.938,0,2.107,0,2.944,0.334l0.196,0.079l0.168,0.13c1.713,1.332,1.873,3.796,1.297,5.523
			c-5.771,18.462-9.014,28.291-15.799,48.761c-0.356,0.998-0.324,4.598-0.291,8.41c0.012,1.348,0.023,2.793,0.023,4.305
			l-0.001,0.201C262.808,118.678,262.804,119.317,262.893,119.633z"/>
	</g>
	<g>
		<path fill="#7E2D22" d="M307.459,82.485c-5.605,0-7.297,0-7.297-3.092V3.462c0-3.32,2.287-3.32,7.297-3.32
			c5.725,0,7.866,0,7.866,3.434v75.59C315.325,82.485,313.502,82.485,307.459,82.485z M303.162,79.395
			c0.739,0.09,2.351,0.09,4.297,0.09c1.716,0,3.985,0,4.864-0.15c0.002-0.064,0.002-0.125,0.002-0.168V3.576
			c0-0.106-0.003-0.19-0.005-0.256c-0.811-0.178-3.125-0.178-4.861-0.178c-1.437,0-3.523,0-4.295,0.158
			c-0.001,0.045-0.002,0.099-0.002,0.162V79.395L303.162,79.395z"/>
	</g>
	<g>
		<path fill="#7E2D22" d="M356.679,122.635c-3.091,0-5.362-0.299-6.445-4.162c-2.022-7.113-3.358-12.168-4.772-17.52
			c-1.225-4.633-2.49-9.422-4.323-16.02c-0.076-0.281-0.155-0.58-0.235-0.891v35.045c0,3.545-2.43,3.545-7.753,3.545
			c-5.081,0-7.184,0-7.184-3.432V43.156c0-3.091,1.695-3.091,6.729-3.091c5.16,0,6.617,0.556,7.81,4.726
			c2.461,9.609,5.488,20.688,8.425,30.838V43.612c0-3.547,2.358-3.547,7.524-3.547c5.544,0,7.41,0,7.41,3.433v74.506
			c0.001,1.559,0.002,3.027-1.429,3.896C361.396,122.534,359.888,122.635,356.679,122.635z M340.196,76.329
			c1.745,0,2.321,1.955,3.458,6.377c0.132,0.51,0.258,0.998,0.375,1.436c1.836,6.605,3.104,11.406,4.331,16.049
			c1.41,5.336,2.742,10.375,4.761,17.467c0.514,1.832,0.778,1.98,3.559,1.98c1.071,0,3.521,0,4.129-0.264
			c0.056-0.25,0.055-0.863,0.055-1.365V43.499c0-0.068,0-0.18-0.003-0.289c-0.805-0.144-2.856-0.144-4.407-0.144
			c-1.244,0-3.722,0-4.518,0.212c-0.005,0.078-0.008,0.186-0.008,0.335v34.669c0,1.955,0,4.91-2.295,4.91
			c-1.976,0-2.548-2.727-2.822-4.1c-3.178-10.867-6.531-23.082-9.203-33.517c-0.704-2.462-0.718-2.51-4.913-2.51
			c-1.667,0-3.053,0-3.729,0.076c0,0.005,0,0.01,0,0.015v76.047c0,0.086,0,0.182,0.001,0.271c0.855,0.158,3.055,0.158,4.183,0.158
			c1.312,0,3.927,0,4.746-0.221c0.004-0.076,0.007-0.18,0.007-0.324V81.692C337.901,79.299,337.901,76.329,340.196,76.329z"/>
	</g>
	<g>
		<path fill="#7E2D22" d="M379.071,82.618c-1.23,0-2.49-0.104-3.363-0.852c-1.303-1.141-1.255-2.92-1.219-4.352
			c0.007-0.225,0.013-0.441,0.013-0.652V4.921c0-1.748,0.211-2.22,1.042-3.331c1.186-1.581,2.61-1.581,3.869-1.581h23.527
			c2.864,0,2.864,2.287,2.864,6.844c0,5.31,0,7.297-2.979,7.297H391.46c-0.732,0-1.29,0.079-1.546,0.151
			c-0.063,0.086-0.113,0.151-0.149,0.216c0.013,0.02,0.013,0.428,0.013,0.861v15.005c0,0.185-0.007,0.376-0.014,0.57
			c-0.013,0.379-0.037,1.086,0.097,1.187c0.167,0.119,0.371,0.162,0.843,0.162l0.758-0.009h5.455c2.979,0,2.979,2.401,2.979,7.184
			c0,4.92,0,6.957-2.979,6.957h-5.114c-0.979,0-1.741,0.087-2.075,0.162c-0.079,0.142-0.094,0.463-0.073,1.254
			c0.007,0.231,0.013,0.472,0.013,0.722v16.936c0,0.66,0,2.072,0.122,2.766c0.429,0.08,1.262,0.168,2.355,0.168h10.798
			c2.979,0,2.979,2.18,2.979,6.957c0,5.08,0,7.184-2.864,7.184h-21.825c-0.355,0-0.719,0.008-1.074,0.02
			C379.785,82.608,379.421,82.618,379.071,82.618z M379.412,3.01c-1.147,0-1.222,0.049-1.416,0.31
			c-0.495,0.661-0.495,0.661-0.495,1.601v71.841c0,0.234-0.006,0.48-0.014,0.73c-0.015,0.539-0.047,1.803,0.184,2.004
			c0.02,0.004,0.31,0.119,1.399,0.119c0.325,0,0.664-0.008,1.01-0.018c0.381-0.01,0.768-0.02,1.148-0.02h21.57
			c0.119-0.867,0.119-2.816,0.119-4.182c0-1.293,0-3.146-0.121-3.957h-10.655c-2.035,0-3.44-0.227-4.182-0.668
			c-1.21-0.729-1.297-2.475-1.297-5.268V48.572c0-0.224-0.007-0.438-0.012-0.646c-0.032-1.277-0.072-2.867,1.474-3.899l0.163-0.095
			c0.869-0.434,2.572-0.499,3.512-0.499h4.993c0.1-0.688,0.1-2.224,0.1-3.957c0-1.379,0-3.369-0.143-4.184l-6.049,0.009
			c-0.778,0-1.698-0.088-2.614-0.741c-1.415-1.063-1.358-2.657-1.322-3.712c0.006-0.159,0.012-0.315,0.012-0.465V15.379
			c0-1.533,0.024-1.892,0.738-2.88l0.109-0.151c0.261-0.349,0.897-1.197,3.835-1.197h11.236c0.107-0.712,0.107-2.331,0.107-4.297
			c0-1.674,0-3.159-0.101-3.839L379.412,3.01z"/>
	</g>
</g>
</svg>
