<?xml version="1.0" encoding="utf-8"?>
<!-- Generator: Adobe Illustrator 16.0.0, SVG Export Plug-In . SVG Version: 6.00 Build 0)  -->
<svg version="1.2" baseProfile="tiny" id="Calque_1"
	 xmlns="http://www.w3.org/2000/svg" xmlns:xlink="http://www.w3.org/1999/xlink" x="0px" y="0px" width="274.153px"
	 height="656.16px" viewBox="0 0 274.153 656.16" xml:space="preserve">
<g>
	<path fill="none" stroke="#FFFFFF" stroke-width="3" stroke-linecap="round" stroke-linejoin="round" stroke-miterlimit="10" d="
		M70.896,30.372l8.095-1.864l2.969,12.893l-10.936,2.518 M56.507,47.262l-8.243,1.899l3.711,16.117l29.204-6.727l2.744,11.915
		L54.72,77.194l6.637,28.814l-15.335,3.532L29.958,39.802l26.383-6.077"/>
	<path fill="none" stroke="#FFFFFF" stroke-width="3" stroke-linecap="round" stroke-linejoin="round" stroke-miterlimit="10" d="
		M101.161,123.266l24.926-1.165l0.618,13.216l-18.381,0.859 M97.348,195.086l-21.383,1l-3.345-71.486l13.55-0.634 M114.408,181.044
		l15.203-0.711l0.619,13.215l-17.246,0.807 M91.459,136.964l-2.501,0.117l0.717,15.319l34.641-1.62l0.571,12.215l-34.641,1.62
		l0.819,17.521l9.208-0.43"/>
	<path fill="none" stroke="#FFFFFF" stroke-width="3" stroke-linecap="round" stroke-linejoin="round" stroke-miterlimit="10" d="
		M215.514,214.413c-0.482,0.653-1.01,1.287-1.582,1.901c-2.199,2.364-5.061,4.364-8.578,5.998
		c-3.518,1.635-7.689,2.789-12.521,3.459c-3.906,0.542-7.762,0.589-11.566,0.141c-3.809-0.448-7.26-1.503-10.357-3.165
		c-3.098-1.66-5.695-3.965-7.789-6.912c-2.098-2.947-3.414-6.609-3.957-10.986l15.09-2.096c0.332,2.381,1.041,4.341,2.133,5.876
		c1.088,1.535,2.416,2.717,3.984,3.544c1.564,0.83,3.338,1.357,5.33,1.586c1.986,0.23,4.008,0.203,6.061-0.083
		c1.391-0.192,2.863-0.514,4.418-0.968c1.557-0.451,2.982-1.105,4.281-1.96c0.559-0.368,1.068-0.776,1.529-1.223 M196.618,196.203
		c-2.096-0.517-4.441-0.901-7.039-1.146c-2.598-0.246-5.238-0.553-7.92-0.923c-2.742-0.294-5.436-0.746-8.084-1.356
		c-2.65-0.609-5.07-1.537-7.266-2.786c-2.197-1.245-4.068-2.925-5.609-5.038c-1.543-2.113-2.537-4.792-2.988-8.034
		c-0.504-3.64-0.168-6.91,1.016-9.805c1.184-2.896,2.908-5.413,5.174-7.549c2.268-2.137,4.932-3.855,7.986-5.157
		c3.059-1.301,6.176-2.174,9.352-2.616c3.705-0.514,7.32-0.595,10.844-0.242c3.523,0.355,6.738,1.274,9.645,2.758
		c2.902,1.488,5.334,3.56,7.289,6.224c1.953,2.663,3.219,6.046,3.789,10.149l-15.092,2.096c-0.426-2.098-1.117-3.792-2.07-5.075
		c-0.955-1.284-2.115-2.235-3.484-2.856c-1.367-0.619-2.885-0.98-4.553-1.087c-1.668-0.105-3.461-0.024-5.381,0.242
		c-1.256,0.174-2.496,0.483-3.715,0.922c-1.223,0.439-2.299,1.062-3.232,1.866c-0.934,0.805-1.666,1.749-2.188,2.833
		c-0.525,1.084-0.678,2.388-0.467,3.91c0.191,1.39,0.611,2.48,1.262,3.265c0.648,0.787,1.801,1.438,3.457,1.947
		c1.656,0.514,3.908,0.942,6.758,1.288c2.848,0.348,6.566,0.774,11.156,1.282c1.363,0.083,3.264,0.307,5.711,0.676
		c2.445,0.368,4.932,1.153,7.461,2.353c2.529,1.2,4.812,2.958,6.855,5.271c1.301,1.476,2.301,3.289,2.996,5.438"/>
	<path fill="none" stroke="#FFFFFF" stroke-width="3" stroke-linecap="round" stroke-linejoin="round" stroke-miterlimit="10" d="
		M174.071,283.623l-3.961-13.026l-20.521,6.244l-3.851-12.658l56.097-17.067l3.85,12.658l-20.52,6.243l6.289,20.672
		 M196.057,301.816l6.086,20.009l-15.055,4.581l-7.074-23.249"/>
	<path fill="none" stroke="#FFFFFF" stroke-width="3" stroke-linecap="round" stroke-linejoin="round" stroke-miterlimit="10" d="
		M236.887,302.659l-2.797,71.509l-15.725-0.615l2.795-71.51L236.887,302.659z"/>
	<path fill="none" stroke="#FFFFFF" stroke-width="3" stroke-linecap="round" stroke-linejoin="round" stroke-miterlimit="10" d="
		M164.7,412.188l3.65-36.085l14.775,6.488l-2.373,22.084 M178.979,421.2l-1.49,13.867l0.184,0.081l35.004-39.583l14.867,6.527
		l-50.521,55.979l-16.244-7.134l2-19.759"/>
	<path fill="none" stroke="#FFFFFF" stroke-width="3" stroke-linecap="round" stroke-linejoin="round" stroke-miterlimit="10" d="
		M129.99,477.83l16.002-10.557l13.077,9.458l-20.249,73.671l-13.24-9.573l4.953-16.085l-21.686-15.681l-13.886,9.624l-12.833-9.28
		l34.15-22.531 M122.446,499.626l-3.398,2.343l15.027,10.865l8.076-26.564l-0.162-0.118l-8.067,5.562"/>
	<path fill="none" stroke="#FFFFFF" stroke-width="3" stroke-linecap="round" stroke-linejoin="round" stroke-miterlimit="10" d="
		M81.06,586.087l12.892,1.943l-1.971,13.083l-16.844-2.539 M54.036,595.394l-12.105-1.824l10.667-70.766l15.562,2.347l-8.695,57.683
		l6.052,0.912"/>
	<path fill="none" stroke="#FFFFFF" stroke-width="3" stroke-linecap="round" stroke-linejoin="round" stroke-miterlimit="10" d="
		M209.961,435.534c2.695,9.908-3.305,19.908-10.305,25.908c-8,6-22,9-20,21c3,11,16,11,25,8c4-2,8-4,11-7c6-4,15-8,21-1
		c8,11,1,24-7,34c-2,2-5,5-9,5c-11,1-22-2-32-8c-7-4-19-6-20,5c0,2,0,5,0,7c1,3,3,5,5,7c9,5,21,3,26,12c4,10,0,21-8,28
		c-3,3-7,4-10,6c-1,1-3,1-4,1c-2-1-5-1-7-2c-7-6-16-17-25-9c-3,10-4,21,4,29c2,1,4,2,5.666,3.333"/>
	<path fill="none" stroke="#FFFFFF" stroke-width="3" stroke-linecap="round" stroke-linejoin="round" stroke-miterlimit="10" d="
		M129.579,499.208c0.835-7.594-1.947-15.961-8.089-20.745c-3.525-2.747-7.895-3.887-12.294-4.182
		c-4.566-0.307-10.332-0.604-14.789,0.489c-5.633,1.381-8.954,4.876-12.908,8.83c-3.296,3.296-6.182,6.339-11.188,6.04
		c-6.427-0.383-7.854-7.98-7.953-13.156c-0.142-7.351,1.134-17.62,6.931-22.656c6.561-5.698,15.029-3.275,22.449-0.963
		c9.765,3.043,27.088,9.787,35.045-0.244c4.361-5.498,5.666-15.482,0.838-21.087c-4.16-4.829-12.554-3.26-16.916-8.151
		c-5.146-5.771-0.947-16.608,3.479-21.466c2.87-3.15,5.641-6.062,10.025-6.485c4.104-0.396,8.795,0.289,11.609,3.773
		c1.762,2.182,2.305,5.561,3.783,8.044c0.667,1.123,1.84,2.318,2.301,3.521c0.418,1.09,0.076,2.261,0.512,3.344
		c1.916,4.761,9.157,7.374,13.766,7.646c12.297,0.723,21.402-10.87,33.674-11.396"/>
	<path fill="none" stroke="#FFFFFF" stroke-width="3" stroke-linecap="round" stroke-linejoin="round" stroke-miterlimit="10" d="
		M72.596,549.402c8.8,0.303,9.49,6.972,9.187,14.442c-0.38,9.371-5.748,15.693-9.457,23.951c-2.355,5.243-4.958,7.839-9.731,11.021
		c-2.219,1.479-4.387,3.127-6.938,4c-2.443,0.837-5.105,0.706-7.664,0.877c-5.533,0.372-9.207-0.133-13.756-3.407
		c-4.073-2.934-8.38-3.839-12.938-1.26c-6.685,3.782-7.473,11.275-5.784,18.021c0.972,3.883,2.396,6.061,6.098,7.794
		c3.527,1.652,7.103,3.919,8.513,7.763c1.604,4.378-0.353,8.938,2.434,13.131c2.069,3.115,5.527,4.873,9.035,5.868
		c1.934,0.548,3.862,0.789,5.751,1.48c2.464,0.901,4.631,2.053,7.312,1.358c4.691-1.216,7.87-3.616,9.399-8.271
		c2.661-8.103-0.053-19.872,10.305-22.856c4.255-1.227,7.909-0.099,11.024,2.926c3.856,3.743,6.256,6.966,11.857,8.019
		c8.159,1.534,19.656,2.547,26.399-3.304c7.098-6.157,10.187-17.001,4.926-25.057c-2.578-3.948-4.207-8.377-4.87-13.044
		c-0.638-4.491,0.424-9.021-0.174-13.433c-1.195-8.817-9.382-12.259-14.987-17.883c-5.289-5.308-8.457-13.091-7.51-20.615
		c1.096-8.698,7.726-12.987,13.649-18.521"/>
	<path fill="none" stroke="#FFFFFF" stroke-width="3" stroke-linecap="round" stroke-linejoin="round" stroke-miterlimit="10" d="
		M53.989,453.442c-3.332,6-9.332,10-16.332,11c-12,1-33-4-32,14c0,3,2,6,4,8c4,2,7,5,12,4c4-1,8-2,12-2c2,0,4,1,6,2c6,4,5,12-1,16
		c-5,3-10,4-16,5c-2,1-5,2-7,5s-3,8,1,10c5,2,14,6,10,13c-7,3-19,11-12,19c6,6,15,5,22.556,2.035"/>
	<path fill="none" stroke="#FFFFFF" stroke-width="3" stroke-linecap="round" stroke-linejoin="round" stroke-miterlimit="10" d="
		M109.982,170.113c-0.361,1.434-1.019,2.799-1.218,4.264c-2.57,18.873-3.631,43.951-29.494,43.133
		c-10.608-0.335-22.613-6.068-23.613-17.068c0-7,3-15,0-22c-2-3-5-5-9-6c-10,0-13,11-21,16c-1,0-2,1-3,1c-5-1-10-3-14-7
		c-3-5-5-10-5-15c0-14,14-27,28-22c4,2,5,8,10,10c4,1,8,0,11-2c2-2,3-4,3-6s0-5,0-7c-1-6-5-10-10-14c-9-6-19-2-28-2c-5,0-11-3-12-9
		c-2-11,10-16,16-23c5-7,2-16-4-22c-8-7-14-15-16-26c-1-8,3-14,3-22c0-3,5-3,5-5c5-14,22-18,34-15c2,1,5,2,7,3c6,3,12,7,13,14
		c3,12,0,24-0.388,36.218"/>
	<path fill="none" stroke="#FFFFFF" stroke-width="3" stroke-linecap="round" stroke-linejoin="round" stroke-miterlimit="10" d="
		M65.035,80.887c0.885,1.399,1.123,2.934,2.176,4.304c1.176,1.531,2.636,2.857,4.251,3.91c2.947,1.919,6.468,2.921,9.983,2.835
		c9.089-0.221,13.482-6.68,15.836-14.685c2.896-9.85,3.689-20.437,8.743-29.561c3.794-6.848,11.088-13.739,19.605-11.521
		c8.317,2.165,6.975,11.411,6.863,17.996c-0.06,3.579,0.669,7.338,5.039,7.105c3.582-0.191,7.618-1.729,11.054,0.151
		c6.872,3.763,4.825,14.559,1.441,19.81c-4.213,6.537-11.194,11.566-18.22,14.709c-11.606,5.193-28.801,4.004-35.404,16.98
		c-2.948,5.794-2.909,12.898-0.048,18.714c2.27,4.616,6.1,8.401,9.188,12.468"/>
	<path fill="none" stroke="#FFFFFF" stroke-width="3" stroke-linecap="round" stroke-linejoin="round" stroke-miterlimit="10" d="
		M165.485,231.839c-10.828,18.603-35.828,32.603-56.828,20.603c-3-2-5-5-7-8c-1-2-2-4-2-6c-2-15,15-15,26-16c16-1,21-21,19-35
		c-2-15-8-35,7-44c14-1,32,1,39-14c1-2,1-5,2-7c0-4,0-7,0-11c0-3-3-6-4-9c-4-4-7-9-12-12c-3-2-7-1-10-1c-2,0-4,1-6,2
		c-8,7-11.584,15.352-14,28s-6.614,12.155-8.483,14.94"/>
	<path fill="none" stroke="#FFFFFF" stroke-width="3" stroke-linecap="round" stroke-linejoin="round" stroke-miterlimit="10" d="
		M211.333,361.062c-3.676,1.381-7.676,3.381-11.676,2.381c-8-3-13-12-21-14c-15-6-18,17-26,26c-6,5-14,7-22,4c-6-3-8-10-9-16
		c0-2,0-5,0-7c1-4,3-8,6-12c4-4,11-6,17-6c8-1,18-7,17-17c0-2-2-3-3-4c-7-4-21-3-19-14c2-10,12-14,21-14c12,1,23,7,35,6
		c9-1,15-7,21-14c1-1,0-2,1-3c9-13,21,0,31,5c11,6,22-4,24-15c0-4,0-9,0-13c-1-3-1-7-3-10s-4-6-6-9c-2-2-4-3-6-3c-1,0-2,0-3,0
		c-4,2-8,6-10,11c0,0-1,1-2,1c-1,1-1,3-2,5c-3,8-14,8-19,3c-1-2-2-4-1-6c5-10,14-20,8-32c-5-7-11-14-20-15c-8-1-14,3-21,5
		c-1,0-1,1-2.021,2.079"/>
	<path fill="none" stroke="#FFFFFF" stroke-width="3" stroke-linecap="round" stroke-linejoin="round" stroke-miterlimit="10" d="
		M261.782,405.27c8.012-8.725,12.543-21.387,7.35-32.615c-4.783-10.341-16.75-17.487-27.756-18.987"/>
	<path fill="none" stroke="#FFFFFF" stroke-width="3" stroke-linecap="round" stroke-linejoin="round" stroke-miterlimit="10" d="
		M262.331,351.486c9.326-12.044,12.326-28.044,7.326-42.044c-2-4-7-6-11-9c-1,0-2,0-3-0.333"/>
	<path fill="none" stroke="#FFFFFF" stroke-width="3" stroke-linecap="round" stroke-linejoin="round" stroke-miterlimit="10" d="
		M252.823,368.577c-11.166,14.865-6.166,33.865,4.834,47.865c1,1,1,3,1,4c1,1,1,2,2,3c5,14-5,29-19,29.667l-4.191,1.091
		c-9.953-1.199-13.367-11.676-11.555-20.408c2.168-10.453,11.18-15.343,20.242-19.211"/>
</g>
</svg>
