<?xml version="1.0" encoding="utf-8"?>
<!-- Generator: Adobe Illustrator 16.0.0, SVG Export Plug-In . SVG Version: 6.00 Build 0)  -->
<svg version="1.2" baseProfile="tiny" id="Calque_1"
	 xmlns="http://www.w3.org/2000/svg" xmlns:xlink="http://www.w3.org/1999/xlink" x="0px" y="0px" width="104.88px"
	 height="297.641px" viewBox="0 0 104.88 297.641" xml:space="preserve">
<g>
	<path fill="none" stroke="#FFFFFF" stroke-width="3" stroke-linecap="round" stroke-linejoin="round" stroke-miterlimit="10" d="
		M29.191,44.238l2.844-0.654l1.043,4.529l-3.842,0.884 M24.136,50.172l-2.896,0.667l1.304,5.663l10.259-2.364l0.964,4.185
		l-10.259,2.364l2.331,10.123l-5.386,1.24L14.81,47.551l9.268-2.135"/>
	<path fill="none" stroke="#FFFFFF" stroke-width="3" stroke-linecap="round" stroke-linejoin="round" stroke-miterlimit="10" d="
		M39.823,76.871l8.756-0.409l0.217,4.643l-6.458,0.302 M38.483,102.1l-7.511,0.352l-1.175-25.111l4.76-0.224 M44.476,97.169
		l5.341-0.25l0.218,4.643l-6.059,0.283 M36.415,81.683l-0.878,0.041l0.251,5.381l12.169-0.569l0.201,4.292l-12.169,0.569
		l0.287,6.155l3.235-0.151"/>
	<path fill="none" stroke="#FFFFFF" stroke-width="3" stroke-linecap="round" stroke-linejoin="round" stroke-miterlimit="10" d="
		M79.994,108.89c-0.169,0.229-0.354,0.452-0.556,0.668c-0.772,0.831-1.777,1.532-3.014,2.107c-1.235,0.574-2.701,0.979-4.398,1.215
		c-1.373,0.19-2.727,0.207-4.063,0.049c-1.338-0.158-2.551-0.528-3.639-1.111c-1.088-0.583-2-1.394-2.736-2.428
		c-0.737-1.036-1.199-2.323-1.391-3.859l5.301-0.736c0.117,0.836,0.366,1.524,0.75,2.064c0.382,0.54,0.849,0.955,1.4,1.245
		c0.549,0.292,1.172,0.477,1.872,0.556c0.697,0.082,1.408,0.072,2.129-0.028c0.489-0.068,1.006-0.181,1.552-0.34
		c0.547-0.159,1.048-0.388,1.504-0.689c0.197-0.129,0.375-0.273,0.538-0.429 M73.356,102.493c-0.736-0.181-1.56-0.316-2.473-0.402
		c-0.913-0.087-1.84-0.194-2.782-0.325c-0.963-0.104-1.91-0.262-2.84-0.476s-1.781-0.54-2.552-0.979
		c-0.772-0.438-1.429-1.028-1.97-1.77c-0.542-0.742-0.892-1.684-1.05-2.823c-0.177-1.278-0.059-2.427,0.357-3.444
		c0.416-1.017,1.021-1.901,1.817-2.652c0.797-0.751,1.733-1.354,2.806-1.812c1.075-0.456,2.169-0.763,3.286-0.918
		c1.301-0.181,2.571-0.209,3.809-0.086c1.238,0.126,2.368,0.448,3.389,0.969c1.02,0.523,1.874,1.251,2.56,2.187
		c0.687,0.935,1.131,2.124,1.332,3.564l-5.301,0.736c-0.15-0.736-0.393-1.331-0.728-1.782c-0.336-0.452-0.743-0.786-1.224-1.004
		c-0.48-0.217-1.014-0.343-1.6-0.381s-1.216-0.009-1.89,0.085c-0.441,0.061-0.876,0.169-1.305,0.323
		c-0.43,0.154-0.808,0.374-1.135,0.656c-0.328,0.282-0.585,0.614-0.769,0.995c-0.185,0.381-0.238,0.838-0.164,1.374
		c0.066,0.488,0.214,0.872,0.443,1.146c0.228,0.276,0.632,0.506,1.214,0.685c0.582,0.181,1.373,0.331,2.374,0.453
		c1,0.123,2.307,0.272,3.919,0.451c0.479,0.029,1.146,0.107,2.006,0.237c0.859,0.129,1.732,0.405,2.621,0.827
		c0.888,0.421,1.69,1.039,2.408,1.851c0.457,0.519,0.809,1.156,1.053,1.911"/>
	<path fill="none" stroke="#FFFFFF" stroke-width="3" stroke-linecap="round" stroke-linejoin="round" stroke-miterlimit="10" d="
		M65.435,133.202l-1.391-4.576l-7.209,2.193l-1.353-4.446l19.706-5.995l1.353,4.446l-7.208,2.193l2.209,7.261 M73.159,139.594
		l2.138,7.029l-5.289,1.61l-2.485-8.167"/>
	<path fill="none" stroke="#FFFFFF" stroke-width="3" stroke-linecap="round" stroke-linejoin="round" stroke-miterlimit="10" d="
		M87.502,139.89L86.52,165.01l-5.524-0.215l0.982-25.121L87.502,139.89z"/>
	<path fill="none" stroke="#FFFFFF" stroke-width="3" stroke-linecap="round" stroke-linejoin="round" stroke-miterlimit="10" d="
		M62.144,178.366l1.282-12.676l5.191,2.278l-0.834,7.759 M67.16,181.532l-0.524,4.872l0.065,0.028l12.296-13.906l5.223,2.294
		l-17.748,19.664l-5.707-2.506l0.703-6.94"/>
	<path fill="none" stroke="#FFFFFF" stroke-width="3" stroke-linecap="round" stroke-linejoin="round" stroke-miterlimit="10" d="
		M49.951,201.426l5.621-3.709l4.593,3.323l-7.113,25.88l-4.651-3.363l1.74-5.65l-7.619-5.508l-4.878,3.381l-4.508-3.26l11.997-7.916
		 M47.3,209.083l-1.193,0.823l5.279,3.815l2.837-9.331l-0.057-0.041l-2.833,1.953"/>
	<path fill="none" stroke="#FFFFFF" stroke-width="3" stroke-linecap="round" stroke-linejoin="round" stroke-miterlimit="10" d="
		M32.761,239.456l4.529,0.682l-0.692,4.596l-5.917-0.892 M23.268,242.724l-4.252-0.641l3.747-24.859l5.466,0.825l-3.054,20.263
		l2.126,0.32"/>
	<path fill="none" stroke="#FFFFFF" stroke-width="3" stroke-linecap="round" stroke-linejoin="round" stroke-miterlimit="10" d="
		M78.043,186.567c0.947,3.481-1.161,6.994-3.62,9.102c-2.81,2.108-7.728,3.162-7.025,7.378c1.053,3.864,5.62,3.864,8.782,2.81
		c1.405-0.702,2.81-1.405,3.864-2.459c2.107-1.405,5.269-2.811,7.377-0.351c2.811,3.864,0.352,8.431-2.459,11.943
		c-0.703,0.703-1.756,1.757-3.162,1.757c-3.864,0.352-7.729-0.703-11.241-2.811c-2.459-1.405-6.675-2.107-7.025,1.757
		c0,0.702,0,1.756,0,2.459c0.351,1.054,1.053,1.756,1.756,2.459c3.161,1.755,7.376,1.054,9.133,4.214
		c1.405,3.515,0,7.379-2.81,9.838c-1.054,1.053-2.459,1.405-3.513,2.106c-0.351,0.352-1.054,0.352-1.404,0.352
		c-0.703-0.352-1.757-0.352-2.46-0.703c-2.459-2.107-5.62-5.972-8.782-3.16c-1.054,3.512-1.405,7.376,1.405,10.187
		c0.703,0.352,1.405,0.702,1.99,1.172"/>
	<path fill="none" stroke="#FFFFFF" stroke-width="3" stroke-linecap="round" stroke-linejoin="round" stroke-miterlimit="10" d="
		M49.806,208.935c0.293-2.668-0.684-5.606-2.842-7.287c-1.238-0.966-2.773-1.365-4.318-1.469c-1.604-0.108-3.63-0.213-5.195,0.172
		c-1.979,0.484-3.146,1.712-4.535,3.101c-1.158,1.158-2.172,2.228-3.931,2.123c-2.258-0.136-2.759-2.804-2.794-4.622
		c-0.049-2.582,0.399-6.19,2.436-7.959c2.304-2.001,5.279-1.151,7.886-0.338c3.431,1.068,9.517,3.438,12.312-0.086
		c1.532-1.932,1.99-5.439,0.294-7.408c-1.461-1.696-4.41-1.145-5.942-2.863c-1.808-2.027-0.333-5.834,1.222-7.54
		c1.008-1.106,1.982-2.13,3.522-2.279c1.441-0.139,3.089,0.103,4.078,1.327c0.619,0.765,0.811,1.953,1.329,2.824
		c0.234,0.396,0.646,0.815,0.809,1.237c0.147,0.383,0.026,0.795,0.18,1.175c0.673,1.672,3.217,2.591,4.835,2.686
		c4.32,0.254,7.519-3.818,11.83-4.003"/>
	<path fill="none" stroke="#FFFFFF" stroke-width="3" stroke-linecap="round" stroke-linejoin="round" stroke-miterlimit="10" d="
		M29.788,226.568c3.091,0.107,3.333,2.449,3.227,5.073c-0.133,3.293-2.019,5.513-3.322,8.414c-0.828,1.842-1.742,2.754-3.419,3.871
		c-0.779,0.52-1.541,1.099-2.437,1.405c-0.858,0.294-1.793,0.248-2.692,0.309c-1.944,0.13-3.234-0.048-4.833-1.197
		c-1.431-1.03-2.944-1.348-4.545-0.442c-2.349,1.329-2.625,3.961-2.032,6.33c0.342,1.364,0.842,2.13,2.142,2.738
		c1.239,0.58,2.495,1.377,2.991,2.727c0.563,1.538-0.125,3.14,0.854,4.613c0.727,1.094,1.942,1.712,3.174,2.062
		c0.679,0.193,1.356,0.277,2.02,0.52c0.866,0.316,1.626,0.721,2.569,0.478c1.648-0.428,2.764-1.27,3.302-2.905
		c0.935-2.848-0.019-6.98,3.62-8.03c1.495-0.43,2.779-0.033,3.873,1.028c1.354,1.314,2.197,2.447,4.165,2.817
		c2.866,0.539,6.905,0.896,9.274-1.16c2.494-2.163,3.579-5.973,1.73-8.803c-0.905-1.388-1.478-2.943-1.711-4.583
		c-0.224-1.576,0.149-3.169-0.061-4.719c-0.42-3.098-3.296-4.307-5.265-6.282c-1.857-1.863-2.97-4.598-2.638-7.241
		c0.385-3.056,2.714-4.562,4.795-6.506"/>
	<path fill="none" stroke="#FFFFFF" stroke-width="3" stroke-linecap="round" stroke-linejoin="round" stroke-miterlimit="10" d="
		M23.251,192.859c-1.17,2.107-3.278,3.513-5.737,3.864c-4.215,0.351-11.592-1.405-11.241,4.918c0,1.054,0.703,2.107,1.405,2.81
		c1.406,0.703,2.459,1.757,4.215,1.405c1.405-0.351,2.811-0.702,4.216-0.702c0.702,0,1.405,0.352,2.107,0.702
		c2.108,1.405,1.757,4.216-0.351,5.621c-1.756,1.054-3.513,1.405-5.621,1.757c-0.703,0.351-1.757,0.702-2.458,1.756
		c-0.703,1.054-1.055,2.811,0.351,3.512c1.756,0.704,4.918,2.109,3.513,4.568c-2.459,1.054-6.674,3.864-4.215,6.675
		c2.108,2.106,5.27,1.755,7.924,0.714"/>
	<path fill="none" stroke="#FFFFFF" stroke-width="3" stroke-linecap="round" stroke-linejoin="round" stroke-miterlimit="10" d="
		M42.921,93.328c-0.126,0.504-0.357,0.984-0.427,1.498c-0.903,6.63-1.275,15.439-10.361,15.152
		c-3.727-0.118-7.944-2.132-8.295-5.996c0-2.459,1.054-5.269,0-7.729c-0.702-1.054-1.756-1.756-3.162-2.107
		c-3.513,0-4.566,3.864-7.377,5.621c-0.351,0-0.703,0.351-1.054,0.351c-1.757-0.351-3.513-1.054-4.918-2.459
		C6.273,95.903,5.57,94.146,5.57,92.39c0-4.919,4.918-9.485,9.836-7.729c1.405,0.702,1.756,2.81,3.513,3.513
		c1.405,0.352,2.811,0,3.864-0.703c0.703-0.702,1.054-1.405,1.054-2.107s0-1.757,0-2.459c-0.351-2.107-1.756-3.513-3.513-4.918
		c-3.162-2.108-6.675-0.703-9.836-0.703c-1.756,0-3.864-1.054-4.215-3.161c-0.703-3.864,3.514-5.621,5.621-8.08
		c1.756-2.458,0.703-5.62-1.405-7.728c-2.81-2.459-4.918-5.27-5.621-9.134c-0.351-2.81,1.055-4.918,1.055-7.729
		c0-1.054,1.756-1.054,1.756-1.756c1.756-4.918,7.729-6.323,11.944-5.27c0.703,0.352,1.756,0.702,2.459,1.054
		c2.108,1.054,4.216,2.459,4.567,4.918c1.054,4.216,0,8.432-0.136,12.724"/>
	<path fill="none" stroke="#FFFFFF" stroke-width="3" stroke-linecap="round" stroke-linejoin="round" stroke-miterlimit="10" d="
		M27.132,61.985c0.311,0.49,0.395,1.03,0.765,1.511c0.413,0.539,0.926,1.004,1.493,1.374c1.036,0.674,2.272,1.026,3.507,0.996
		c3.193-0.078,4.736-2.346,5.563-5.159c1.017-3.459,1.295-7.179,3.071-10.384c1.332-2.406,3.895-4.826,6.887-4.048
		c2.922,0.761,2.45,4.009,2.411,6.322c-0.021,1.257,0.235,2.578,1.77,2.496c1.258-0.067,2.676-0.607,3.883,0.053
		c2.414,1.323,1.695,5.115,0.506,6.959c-1.48,2.296-3.933,4.063-6.401,5.167c-4.077,1.824-10.118,1.407-12.437,5.965
		c-1.036,2.035-1.022,4.531-0.017,6.575c0.798,1.622,2.143,2.95,3.228,4.379"/>
	<path fill="none" stroke="#FFFFFF" stroke-width="3" stroke-linecap="round" stroke-linejoin="round" stroke-miterlimit="10" d="
		M62.419,115.011c-3.804,6.535-12.586,11.454-19.963,7.238c-1.054-0.704-1.756-1.757-2.459-2.811
		c-0.351-0.702-0.703-1.405-0.703-2.107c-0.703-5.27,5.27-5.27,9.134-5.621c5.621-0.351,7.377-7.377,6.674-12.295
		c-0.703-5.27-2.81-12.295,2.459-15.457c4.918-0.352,11.241,0.352,13.7-4.918c0.351-0.702,0.351-1.757,0.703-2.459
		c0-1.405,0-2.459,0-3.864c0-1.053-1.053-2.107-1.405-3.162c-1.405-1.404-2.458-3.161-4.215-4.214
		c-1.054-0.704-2.459-0.352-3.513-0.352c-0.703,0-1.405,0.352-2.107,0.702c-2.811,2.46-4.069,5.395-4.918,9.837
		c-0.849,4.443-2.323,4.27-2.98,5.249"/>
	<path fill="none" stroke="#FFFFFF" stroke-width="3" stroke-linecap="round" stroke-linejoin="round" stroke-miterlimit="10" d="
		M78.525,160.406c-1.292,0.485-2.697,1.188-4.102,0.837c-2.811-1.054-4.567-4.216-7.376-4.918c-5.27-2.108-6.323,5.972-9.134,9.133
		c-2.108,1.757-4.918,2.459-7.729,1.405c-2.108-1.054-2.81-3.513-3.162-5.62c0-0.703,0-1.757,0-2.459
		c0.352-1.405,1.054-2.811,2.108-4.216c1.405-1.405,3.864-2.107,5.972-2.107c2.811-0.352,6.323-2.46,5.972-5.972
		c0-0.702-0.703-1.054-1.054-1.405c-2.459-1.405-7.377-1.054-6.675-4.918c0.703-3.512,4.216-4.918,7.377-4.918
		c4.215,0.352,8.08,2.459,12.294,2.107c3.162-0.35,5.27-2.459,7.377-4.918c0.351-0.352,0-0.702,0.351-1.053
		c3.162-4.566,7.377,0,10.89,1.757c3.864,2.107,7.729-1.405,8.431-5.27c0-1.405,0-3.162,0-4.567
		c-0.352-1.054-0.352-2.459-1.054-3.513c-0.702-1.054-1.405-2.107-2.107-3.161c-0.703-0.703-1.405-1.055-2.108-1.055
		c-0.351,0-0.703,0-1.054,0c-1.405,0.703-2.811,2.108-3.513,3.864c0,0-0.351,0.352-0.703,0.352
		c-0.351,0.352-0.351,1.054-0.703,1.757c-1.054,2.809-4.918,2.809-6.674,1.054c-0.352-0.703-0.703-1.405-0.352-2.107
		c1.757-3.514,4.918-7.026,2.811-11.241c-1.756-2.459-3.864-4.919-7.026-5.27c-2.81-0.352-4.917,1.054-7.376,1.756
		c-0.352,0-0.352,0.352-0.71,0.73"/>
	<path fill="none" stroke="#FFFFFF" stroke-width="3" stroke-linecap="round" stroke-linejoin="round" stroke-miterlimit="10" d="
		M96.248,175.935c2.814-3.064,4.406-7.513,2.582-11.457c-1.681-3.633-5.885-6.143-9.75-6.669"/>
	<path fill="none" stroke="#FFFFFF" stroke-width="3" stroke-linecap="round" stroke-linejoin="round" stroke-miterlimit="10" d="
		M96.44,157.043c3.276-4.231,4.331-9.852,2.574-14.77c-0.702-1.405-2.459-2.107-3.864-3.162c-0.352,0-0.703,0-1.054-0.116"/>
	<path fill="none" stroke="#FFFFFF" stroke-width="3" stroke-linecap="round" stroke-linejoin="round" stroke-miterlimit="10" d="
		M93.1,163.046c-3.922,5.223-2.166,11.897,1.698,16.815c0.352,0.351,0.352,1.054,0.352,1.405c0.351,0.351,0.351,0.702,0.702,1.054
		c1.757,4.918-1.756,10.188-6.674,10.421l-1.472,0.384c-3.497-0.421-4.696-4.102-4.06-7.169c0.762-3.672,3.928-5.391,7.11-6.749"/>
</g>
</svg>
