<?xml version="1.0" encoding="utf-8"?>
<!-- Generator: Adobe Illustrator 16.0.0, SVG Export Plug-In . SVG Version: 6.00 Build 0)  -->
<svg version="1.2" baseProfile="tiny" id="Calque_1"
	 xmlns="http://www.w3.org/2000/svg" xmlns:xlink="http://www.w3.org/1999/xlink" x="0px" y="0px" width="325.536px"
	 height="779.932px" viewBox="-110.329 -241.146 325.536 779.932" xml:space="preserve">
<g>
	<path fill="none" stroke="#FFFFFF" stroke-width="3" stroke-linecap="round" stroke-linejoin="round" stroke-miterlimit="10" d="
		M-26.279-205.309l9.631-2.212l3.532,15.333l-13.01,2.996 M-43.395-185.214l-9.806,2.258l4.415,19.176l34.739-8.005l3.264,14.172
		l-34.739,8.002l7.893,34.278l-18.236,4.2l-19.108-82.957l31.383-7.229"/>
	<path fill="none" stroke="#FFFFFF" stroke-width="3" stroke-linecap="round" stroke-linejoin="round" stroke-miterlimit="10" d="
		M9.723-94.807l29.648-1.385l0.734,15.72l-21.868,1.025 M5.185-9.381l-25.432,1.194l-3.98-85.03l16.119-0.757 M25.478-26.076
		l18.084-0.846l0.739,15.72l-20.517,0.959 M-1.817-78.515l-2.973,0.139l0.85,18.22l41.206-1.925l0.681,14.533L-3.26-45.623
		l0.972,20.842l10.955-0.513"/>
	<path fill="none" stroke="#FFFFFF" stroke-width="3" stroke-linecap="round" stroke-linejoin="round" stroke-miterlimit="10" d="
		M145.749,13.612c-0.576,0.777-1.201,1.531-1.886,2.262c-2.612,2.814-6.018,5.188-10.204,7.136
		c-4.184,1.944-9.146,3.313-14.894,4.114c-4.649,0.642-9.232,0.701-13.756,0.166c-4.53-0.536-8.638-1.789-12.321-3.763
		c-3.688-1.974-6.772-4.719-9.266-8.221c-2.497-3.508-4.061-7.867-4.712-13.065l17.952-2.493c0.396,2.831,1.236,5.158,2.54,6.987
		c1.289,1.829,2.873,3.234,4.738,4.216c1.858,0.989,3.968,1.617,6.339,1.885c2.361,0.278,4.769,0.242,7.209-0.096
		c1.656-0.231,3.405-0.612,5.258-1.151c1.852-0.539,3.545-1.316,5.092-2.334c0.665-0.437,1.271-0.923,1.819-1.452 M123.269-8.048
		c-2.493-0.615-5.284-1.072-8.373-1.363c-3.092-0.294-6.229-0.658-9.421-1.101c-3.261-0.351-6.468-0.886-9.616-1.61
		c-3.151-0.724-6.031-1.829-8.641-3.316c-2.615-1.481-4.841-3.479-6.673-5.992c-1.835-2.513-3.019-5.704-3.555-9.56
		c-0.599-4.329-0.202-8.217,1.207-11.663c1.408-3.442,3.459-6.435,6.153-8.978c2.702-2.543,5.87-4.587,9.501-6.138
		c3.644-1.544,7.348-2.583,11.13-3.108c4.405-0.612,8.704-0.708,12.896-0.291c4.193,0.427,8.016,1.518,11.475,3.28
		c3.452,1.772,6.346,4.236,8.671,7.407c2.324,3.165,3.829,7.192,4.51,12.066l-17.949,2.493c-0.509-2.493-1.332-4.507-2.467-6.035
		c-1.137-1.531-2.517-2.662-4.146-3.399c-1.623-0.734-3.433-1.161-5.416-1.29c-1.984-0.129-4.117-0.03-6.402,0.288
		c-1.491,0.208-2.963,0.572-4.418,1.095S99-43.995,97.893-43.04c-1.111,0.952-1.981,2.077-2.606,3.366
		c-0.621,1.293-0.803,2.84-0.552,4.652c0.222,1.654,0.724,2.953,1.498,3.882c0.773,0.936,2.143,1.713,4.113,2.318
		c1.971,0.615,4.649,1.121,8.035,1.535c3.387,0.417,7.814,0.922,13.273,1.527c1.62,0.1,3.879,0.364,6.792,0.804
		c2.91,0.437,5.866,1.373,8.876,2.801c3.006,1.425,5.721,3.519,8.154,6.267c1.548,1.759,2.738,3.915,3.564,6.471"/>
	<path fill="none" stroke="#FFFFFF" stroke-width="3" stroke-linecap="round" stroke-linejoin="round" stroke-miterlimit="10" d="
		M96.448,95.936l-4.712-15.495l-24.411,7.423l-4.579-15.052l66.727-20.3l4.583,15.056l-24.41,7.424l7.479,24.585 M122.601,117.579
		l7.241,23.802l-17.909,5.45l-8.416-27.655"/>
	<path fill="none" stroke="#FFFFFF" stroke-width="3" stroke-linecap="round" stroke-linejoin="round" stroke-miterlimit="10" d="
		M171.17,118.581l-3.326,85.06l-18.703-0.728l3.323-85.063L171.17,118.581z"/>
	<path fill="none" stroke="#FFFFFF" stroke-width="3" stroke-linecap="round" stroke-linejoin="round" stroke-miterlimit="10" d="
		M85.304,248.867l4.342-42.925l17.578,7.715l-2.823,26.272 M102.291,259.588l-1.775,16.494l0.222,0.096l41.632-47.088l17.688,7.768
		l-60.097,66.585l-19.325-8.485l2.378-23.498"/>
	<path fill="none" stroke="#FFFFFF" stroke-width="3" stroke-linecap="round" stroke-linejoin="round" stroke-miterlimit="10" d="
		M44.018,326.95l19.032-12.56l15.552,11.253l-24.086,87.633l-15.747-11.39l5.893-19.13l-25.799-18.653L2.344,375.553l-15.264-11.038
		l40.622-26.805 M35.04,352.878L31,355.666l17.876,12.916l9.606-31.597l-0.192-0.139l-9.594,6.614"/>
	<path fill="none" stroke="#FFFFFF" stroke-width="3" stroke-linecap="round" stroke-linejoin="round" stroke-miterlimit="10" d="
		M-14.19,455.725l15.335,2.31l-2.343,15.562l-20.036-3.02 M-46.334,466.789l-14.398-2.169l12.688-84.177l18.508,2.794
		l-10.342,68.612l7.199,1.084"/>
	<path fill="none" stroke="#FFFFFF" stroke-width="3" stroke-linecap="round" stroke-linejoin="round" stroke-miterlimit="10" d="
		M139.141,276.634c3.208,11.789-3.935,23.684-12.262,30.822c-9.514,7.137-26.166,10.708-23.785,24.983
		c3.568,13.084,19.03,13.084,29.737,9.513c4.756-2.374,9.518-4.755,13.082-8.326c7.136-4.755,17.843-9.517,24.979-1.187
		c9.52,13.084,1.193,28.547-8.327,40.441c-2.381,2.377-5.945,5.948-10.707,5.948c-13.081,1.19-26.17-2.381-38.061-9.52
		c-8.326-4.755-22.605-7.133-23.789,5.948c0,2.378,0,5.949,0,8.327c1.19,3.571,3.564,5.948,5.945,8.326
		c10.708,5.944,24.979,3.571,30.925,14.271c4.762,11.901,0,24.986-9.514,33.312c-3.567,3.563-8.326,4.755-11.894,7.13
		c-1.19,1.193-3.571,1.193-4.756,1.193c-2.381-1.193-5.948-1.193-8.329-2.382c-8.326-7.136-19.03-20.225-29.738-10.699
		c-3.567,11.891-4.755,24.976,4.759,34.491c2.381,1.193,4.759,2.378,6.739,3.973"/>
	<path fill="none" stroke="#FFFFFF" stroke-width="3" stroke-linecap="round" stroke-linejoin="round" stroke-miterlimit="10" d="
		M43.526,352.376c0.992-9.034-2.316-18.981-9.625-24.676c-4.191-3.271-9.389-4.619-14.621-4.973
		c-5.431-0.367-12.291-0.722-17.59,0.582c-6.701,1.64-10.653,5.796-15.356,10.502c-3.922,3.918-7.354,7.543-13.312,7.188
		c-7.645-0.463-9.341-9.497-9.46-15.65c-0.166-8.743,1.351-20.962,8.249-26.95c7.802-6.775,17.876-3.898,26.704-1.145
		c11.617,3.614,32.225,11.64,41.69-0.294c5.187-6.541,6.738-18.415,0.996-25.082c-4.947-5.743-14.934-3.879-20.122-9.695
		c-6.121-6.864-1.128-19.755,4.138-25.531c3.414-3.747,6.711-7.212,11.926-7.718c4.879-0.47,10.459,0.351,13.809,4.493
		c2.097,2.59,2.746,6.614,4.502,9.563c0.79,1.34,2.186,2.758,2.738,4.189c0.496,1.297,0.086,2.692,0.608,3.979
		c2.281,5.661,10.893,8.772,16.372,9.094c14.629,0.859,25.458-12.927,40.058-13.555"/>
	<path fill="none" stroke="#FFFFFF" stroke-width="3" stroke-linecap="round" stroke-linejoin="round" stroke-miterlimit="10" d="
		M-24.257,412.082c10.466,0.364,11.286,8.294,10.927,17.179c-0.451,11.15-6.836,18.667-11.25,28.491
		c-2.802,6.236-5.897,9.325-11.577,13.107c-2.637,1.76-5.218,3.721-8.252,4.759c-2.905,0.995-6.071,0.84-9.115,1.045
		c-6.582,0.438-10.951-0.162-16.365-4.054c-4.846-3.485-9.968-4.563-15.39-1.495c-7.955,4.501-8.889,13.412-6.881,21.435
		c1.159,4.616,2.852,7.212,7.253,9.27c4.196,1.965,8.449,4.663,10.128,9.235c1.906,5.208-0.423,10.631,2.892,15.621
		c2.462,3.703,6.576,5.797,10.747,6.98c2.3,0.653,4.591,0.938,6.84,1.763c2.933,1.067,5.505,2.44,8.698,1.616
		c5.58-1.448,9.36-4.299,11.182-9.837c3.167-9.644-0.064-23.634,12.258-27.188c5.061-1.458,9.409-0.111,13.113,3.479
		c4.585,4.451,7.44,8.287,14.104,9.54c9.705,1.825,23.382,3.031,31.402-3.93c8.446-7.323,12.12-20.224,5.86-29.807
		c-3.065-4.702-5.005-9.967-5.795-15.519c-0.757-5.338,0.506-10.73-0.207-15.979c-1.422-10.492-11.16-14.586-17.827-21.271
		c-6.288-6.31-10.058-15.571-8.933-24.521c1.304-10.347,9.189-15.449,16.236-22.029"/>
	<path fill="none" stroke="#FFFFFF" stroke-width="3" stroke-linecap="round" stroke-linejoin="round" stroke-miterlimit="10" d="
		M-46.393,297.94c-3.961,7.136-11.099,11.897-19.425,13.085c-14.274,1.19-39.253-4.759-38.064,16.653
		c0,3.567,2.381,7.136,4.759,9.517c4.76,2.377,8.326,5.948,14.272,4.755c4.756-1.188,9.518-2.378,14.275-2.378
		c2.378,0,4.759,1.194,7.134,2.378c7.14,4.759,5.951,14.275-1.187,19.034c-5.947,3.571-11.896,4.758-19.034,5.948
		c-2.381,1.19-5.951,2.378-8.323,5.949c-2.381,3.567-3.573,9.517,1.189,11.891c5.946,2.385,16.653,7.14,11.895,15.466
		c-8.327,3.57-22.599,13.085-14.272,22.604c7.138,7.129,17.845,5.941,26.831,2.417"/>
	<path fill="none" stroke="#FFFFFF" stroke-width="3" stroke-linecap="round" stroke-linejoin="round" stroke-miterlimit="10" d="
		M20.212-39.082c-0.426,1.707-1.208,3.33-1.445,5.073c-3.059,22.449-4.319,52.276-35.085,51.304
		c-12.618-0.4-26.898-7.219-28.087-20.304c0-8.326,3.57-17.84,0-26.169c-2.376-3.568-5.945-5.945-10.707-7.136
		c-11.895,0-15.461,13.084-24.979,19.033c-1.187,0-2.379,1.19-3.568,1.19c-5.951-1.19-11.896-3.571-16.653-8.326
		c-3.57-5.949-5.951-11.897-5.951-17.843c0-16.656,16.653-32.119,33.308-26.169c4.757,2.374,5.945,9.513,11.894,11.894
		c4.759,1.19,9.519,0,13.085-2.381c2.379-2.377,3.568-4.758,3.568-7.136c0-2.375,0-5.949,0-8.327
		c-1.188-7.132-5.945-11.894-11.894-16.653c-10.708-7.136-22.604-2.377-33.308-2.377c-5.945,0-13.083-3.571-14.272-10.704
		c-2.381-13.084,11.899-19.034,19.034-27.36c5.946-8.323,2.381-19.03-4.758-26.17c-9.514-8.326-16.653-17.843-19.032-30.928
		c-1.188-9.514,3.571-16.653,3.571-26.17c0-3.571,5.947-3.571,5.947-5.949c5.946-16.653,26.171-21.408,40.443-17.843
		c2.381,1.19,5.946,2.377,8.327,3.568c7.137,3.571,14.275,8.327,15.464,16.653c3.57,14.275,0,28.554-0.459,43.087"/>
	<path fill="none" stroke="#FFFFFF" stroke-width="3" stroke-linecap="round" stroke-linejoin="round" stroke-miterlimit="10" d="
		M-33.251-145.215c1.053,1.66,1.337,3.488,2.591,5.119c1.399,1.825,3.136,3.399,5.056,4.652c3.507,2.282,7.693,3.472,11.875,3.373
		c10.812-0.265,16.036-7.946,18.837-17.47c3.444-11.712,4.385-24.311,10.399-35.161c4.509-8.147,13.188-16.342,23.319-13.709
		c9.894,2.579,8.297,13.577,8.165,21.408c-0.071,4.256,0.795,8.73,5.994,8.452c4.259-0.228,9.061-2.057,13.147,0.179
		c8.174,4.48,5.737,17.321,1.713,23.564c-5.01,7.774-13.316,13.759-21.674,17.496c-13.806,6.177-34.261,4.765-42.113,20.198
		C0.549-100.222,0.597-91.771,4-84.849c2.703,5.492,7.257,9.99,10.931,14.827"/>
	<path fill="none" stroke="#FFFFFF" stroke-width="3" stroke-linecap="round" stroke-linejoin="round" stroke-miterlimit="10" d="
		M86.233,34.338c-12.876,22.129-42.616,38.785-67.595,24.51c-3.57-2.384-5.946-5.949-8.327-9.52
		C9.123,46.95,7.93,44.573,7.93,42.195C5.55,24.348,25.776,24.348,38.86,23.161c19.034-1.19,24.979-24.979,22.598-41.632
		c-2.381-17.846-9.515-41.632,8.327-52.339c16.652-1.194,38.061,1.19,46.39-16.653c1.188-2.378,1.188-5.949,2.378-8.327
		c0-4.758,0-8.326,0-13.085c0-3.564-3.564-7.136-4.755-10.707c-4.759-4.755-8.323-10.704-14.272-14.269
		c-3.571-2.384-8.326-1.19-11.897-1.19c-2.381,0-4.755,1.19-7.133,2.374c-9.52,8.33-13.779,18.27-16.652,33.309
		c-2.874,15.046-7.867,14.46-10.091,17.774"/>
	<path fill="none" stroke="#FFFFFF" stroke-width="3" stroke-linecap="round" stroke-linejoin="round" stroke-miterlimit="10" d="
		M140.771,188.053c-4.374,1.641-9.13,4.021-13.892,2.834c-9.517-3.571-15.462-14.278-24.973-16.652
		c-17.846-7.14-21.411,20.221-30.931,30.925c-7.137,5.948-16.653,8.326-26.17,4.755c-7.138-3.568-9.515-11.895-10.708-19.027
		c0-2.381,0-5.952,0-8.326c1.192-4.759,3.57-9.521,7.138-14.278c4.758-4.756,13.086-7.133,20.222-7.133
		c9.518-1.194,21.408-8.33,20.225-20.222c0-2.377-2.381-3.571-3.571-4.758c-8.326-4.758-24.979-3.568-22.602-16.653
		c2.377-11.895,14.275-16.653,24.979-16.653c14.272,1.19,27.357,8.327,41.629,7.133c10.708-1.184,17.844-8.327,24.979-16.653
		c1.19-1.19,0-2.377,1.19-3.565c10.707-15.462,24.979,0,36.87,5.949c13.088,7.136,26.172-4.759,28.551-17.843
		c0-4.759,0-10.708,0-15.466c-1.19-3.568-1.19-8.327-3.568-11.895c-2.377-3.571-4.758-7.136-7.137-10.704
		c-2.377-2.381-4.758-3.571-7.138-3.571c-1.188,0-2.381,0-3.565,0c-4.762,2.378-9.52,7.136-11.897,13.082
		c0,0-1.19,1.194-2.381,1.194c-1.19,1.19-1.19,3.568-2.381,5.949c-3.568,9.51-16.652,9.51-22.599,3.568
		c-1.19-2.381-2.381-4.755-1.19-7.133c5.949-11.901,16.653-23.792,9.518-38.064C155.423,6.519,148.287-1.81,137.58-3.001
		c-9.517-1.19-16.653,3.571-24.979,5.949c-1.19,0-1.19,1.19-2.4,2.47"/>
	<path fill="none" stroke="#FFFFFF" stroke-width="3" stroke-linecap="round" stroke-linejoin="round" stroke-miterlimit="10" d="
		M200.786,240.634c9.526-10.373,14.918-25.439,8.743-38.795c-5.694-12.301-19.93-20.8-33.015-22.582"/>
	<path fill="none" stroke="#FFFFFF" stroke-width="3" stroke-linecap="round" stroke-linejoin="round" stroke-miterlimit="10" d="
		M201.434,176.664c11.091-14.328,14.665-33.362,8.717-50.015c-2.378-4.755-8.326-7.133-13.085-10.708c-1.194,0-2.381,0-3.568-0.39"
		/>
	<path fill="none" stroke="#FFFFFF" stroke-width="3" stroke-linecap="round" stroke-linejoin="round" stroke-miterlimit="10" d="
		M190.125,196.991c-13.279,17.685-7.334,40.283,5.747,56.936c1.194,1.19,1.194,3.571,1.194,4.759
		c1.187,1.19,1.187,2.377,2.377,3.567c5.949,16.653-5.945,34.5-22.598,35.29l-4.987,1.3c-11.838-1.426-15.898-13.892-13.746-24.275
		c2.583-12.434,13.304-18.257,24.077-22.853"/>
</g>
</svg>
