<?xml version="1.0" encoding="utf-8"?>
<!-- Generator: Adobe Illustrator 16.0.0, SVG Export Plug-In . SVG Version: 6.00 Build 0)  -->
<svg version="1.2" baseProfile="tiny" id="Calque_1"
	 xmlns="http://www.w3.org/2000/svg" xmlns:xlink="http://www.w3.org/1999/xlink" x="0px" y="0px" width="340px" height="802.932px"
	 viewBox="-7.232 -11.5 340 802.932" xml:space="preserve">
<g>
	<path fill="none" stroke="#FFFFFF" stroke-width="3" stroke-linecap="round" stroke-linejoin="round" stroke-miterlimit="10" d="
		M85.677,25.353l9.916-2.277l3.637,15.787l-13.395,3.085 M68.055,46.043l-10.097,2.325l4.546,19.744l35.768-8.242l3.36,14.592
		L65.865,82.7l8.126,35.292l-18.776,4.325L35.542,36.904l32.312-7.443"/>
	<path fill="none" stroke="#FFFFFF" stroke-width="3" stroke-linecap="round" stroke-linejoin="round" stroke-miterlimit="10" d="
		M122.745,139.126l30.526-1.426l0.755,16.185l-22.516,1.056 M118.073,227.082l-26.185,1.229l-4.098-87.547l16.596-0.78
		 M138.966,209.892l18.62-0.871l0.761,16.185l-21.124,0.987 M110.864,155.9l-3.062,0.144l0.875,18.759l42.426-1.982l0.701,14.964
		l-42.426,1.981l1,21.459l11.279-0.528"/>
	<path fill="none" stroke="#FFFFFF" stroke-width="3" stroke-linecap="round" stroke-linejoin="round" stroke-miterlimit="10" d="
		M262.798,250.755c-0.594,0.8-1.237,1.576-1.943,2.329c-2.688,2.897-6.195,5.341-10.505,7.347
		c-4.309,2.002-9.417,3.412-15.335,4.236c-4.786,0.661-9.505,0.722-14.163,0.171c-4.665-0.552-8.894-1.842-12.687-3.875
		c-3.797-2.033-6.972-4.858-9.54-8.464c-2.57-3.612-4.182-8.1-4.852-13.452l18.484-2.567c0.407,2.915,1.271,5.311,2.615,7.194
		c1.327,1.883,2.958,3.33,4.877,4.341c1.914,1.018,4.087,1.665,6.526,1.941c2.432,0.286,4.911,0.249,7.423-0.099
		c1.705-0.238,3.506-0.63,5.414-1.186c1.906-0.555,3.65-1.355,5.243-2.403c0.685-0.45,1.308-0.95,1.873-1.495 M239.652,228.454
		c-2.566-0.633-5.44-1.104-8.621-1.403c-3.183-0.303-6.412-0.677-9.699-1.134c-3.357-0.361-6.659-0.912-9.901-1.658
		c-3.243-0.745-6.209-1.883-8.896-3.414c-2.692-1.524-4.983-3.582-6.87-6.169c-1.89-2.587-3.109-5.873-3.66-9.843
		c-0.617-4.457-0.208-8.46,1.242-12.008c1.449-3.543,3.562-6.625,6.335-9.244c2.782-2.618,6.044-4.723,9.782-6.32
		c3.753-1.59,7.566-2.66,11.46-3.2c4.535-0.63,8.962-0.729,13.278-0.299c4.316,0.439,8.253,1.563,11.814,3.377
		c3.554,1.824,6.534,4.362,8.927,7.626c2.394,3.259,3.942,7.405,4.645,12.423l-18.48,2.567c-0.523-2.567-1.371-4.641-2.54-6.213
		c-1.171-1.576-2.592-2.741-4.269-3.5c-1.672-0.755-3.535-1.195-5.577-1.328c-2.043-0.133-4.238-0.031-6.592,0.297
		c-1.534,0.214-3.051,0.588-4.549,1.127s-2.815,1.306-3.955,2.289c-1.144,0.98-2.039,2.139-2.683,3.466
		c-0.64,1.331-0.827,2.924-0.569,4.79c0.229,1.703,0.746,3.041,1.543,3.997c0.796,0.964,2.207,1.764,4.234,2.387
		c2.029,0.633,4.787,1.154,8.273,1.581c3.486,0.429,8.045,0.949,13.665,1.573c1.668,0.103,3.995,0.375,6.993,0.827
		c2.996,0.45,6.04,1.414,9.139,2.884c3.096,1.467,5.892,3.624,8.396,6.452c1.594,1.812,2.819,4.031,3.67,6.663"/>
	<path fill="none" stroke="#FFFFFF" stroke-width="3" stroke-linecap="round" stroke-linejoin="round" stroke-miterlimit="10" d="
		M212.038,335.516l-4.853-15.954l-25.133,7.643l-4.715-15.497l68.702-20.901l4.719,15.501l-25.133,7.644l7.701,25.312
		 M238.964,357.8l7.455,24.506l-18.439,5.611l-8.665-28.474"/>
	<path fill="none" stroke="#FFFFFF" stroke-width="3" stroke-linecap="round" stroke-linejoin="round" stroke-miterlimit="10" d="
		M288.971,358.832l-3.425,87.579l-19.257-0.75l3.422-87.582L288.971,358.832z"/>
	<path fill="none" stroke="#FFFFFF" stroke-width="3" stroke-linecap="round" stroke-linejoin="round" stroke-miterlimit="10" d="
		M200.563,492.975l4.471-44.195l18.099,7.942l-2.907,27.051 M218.053,504.013l-1.828,16.982l0.229,0.1l42.865-48.483l18.211,7.999
		l-61.875,68.556l-19.897-8.736l2.448-24.193"/>
	<path fill="none" stroke="#FFFFFF" stroke-width="3" stroke-linecap="round" stroke-linejoin="round" stroke-miterlimit="10" d="
		M158.055,573.369l19.596-12.932l16.012,11.586l-24.799,90.228l-16.213-11.729l6.067-19.695l-26.563-19.205l-17.008,11.789
		l-15.716-11.364l41.825-27.6 M148.812,600.064l-4.16,2.87l18.405,13.299l9.89-32.532l-0.197-0.143l-9.878,6.809"/>
	<path fill="none" stroke="#FFFFFF" stroke-width="3" stroke-linecap="round" stroke-linejoin="round" stroke-miterlimit="10" d="
		M98.124,705.956l15.789,2.379l-2.413,16.021l-20.629-3.108 M65.029,717.348l-14.824-2.233l13.063-86.669l19.056,2.877
		l-10.648,70.643l7.412,1.116"/>
	<path fill="none" stroke="#FFFFFF" stroke-width="3" stroke-linecap="round" stroke-linejoin="round" stroke-miterlimit="10" d="
		M255.994,521.563c3.304,12.138-4.051,24.386-12.624,31.734c-9.796,7.348-26.941,11.025-24.489,25.723
		c3.674,13.472,19.593,13.472,30.617,9.795c4.896-2.444,9.8-4.896,13.47-8.573c7.347-4.896,18.37-9.798,25.718-1.222
		c9.802,13.472,1.228,29.393-8.574,41.638c-2.451,2.447-6.12,6.124-11.023,6.124c-13.469,1.227-26.945-2.451-39.188-9.801
		c-8.572-4.896-23.274-7.345-24.493,6.123c0,2.448,0,6.126,0,8.574c1.226,3.677,3.669,6.124,6.121,8.572
		c11.025,6.119,25.718,3.676,31.841,14.693c4.902,12.253,0,25.726-9.797,34.298c-3.672,3.668-8.571,4.896-12.245,7.342
		c-1.227,1.229-3.678,1.229-4.897,1.229c-2.451-1.229-6.124-1.229-8.575-2.453c-8.572-7.348-19.594-20.824-30.619-11.016
		c-3.672,12.243-4.896,25.715,4.901,35.512c2.451,1.229,4.899,2.448,6.938,4.091"/>
	<path fill="none" stroke="#FFFFFF" stroke-width="3" stroke-linecap="round" stroke-linejoin="round" stroke-miterlimit="10" d="
		M157.549,599.548c1.021-9.302-2.385-19.543-9.91-25.406c-4.315-3.368-9.667-4.756-15.054-5.12
		c-5.592-0.378-12.655-0.744-18.111,0.599c-6.899,1.688-10.968,5.968-15.811,10.813c-4.038,4.034-7.572,7.767-13.706,7.4
		c-7.871-0.477-9.617-9.778-9.74-16.113c-0.171-9.002,1.391-21.582,8.493-27.748c8.033-6.976,18.405-4.014,27.495-1.179
		c11.96,3.721,33.179,11.985,42.924-0.303c5.341-6.735,6.938-18.961,1.026-25.825c-5.094-5.913-15.376-3.993-20.718-9.98
		c-6.302-7.068-1.162-20.34,4.26-26.287c3.515-3.858,6.91-7.426,12.279-7.946c5.023-0.485,10.769,0.36,14.218,4.625
		c2.158,2.667,2.827,6.81,4.635,9.847c0.813,1.379,2.251,2.839,2.818,4.313c0.511,1.335,0.089,2.771,0.627,4.096
		c2.349,5.829,11.215,9.032,16.856,9.363c15.062,0.885,26.212-13.31,41.243-13.956"/>
	<path fill="none" stroke="#FFFFFF" stroke-width="3" stroke-linecap="round" stroke-linejoin="round" stroke-miterlimit="10" d="
		M87.759,661.021c10.776,0.375,11.62,8.539,11.25,17.687c-0.465,11.48-7.039,19.22-11.583,29.335
		c-2.884,6.421-6.071,9.602-11.919,13.495c-2.715,1.812-5.373,3.831-8.497,4.9c-2.991,1.024-6.25,0.864-9.384,1.075
		c-6.777,0.451-11.275-0.167-16.85-4.174c-4.989-3.588-10.263-4.698-15.845-1.539c-8.19,4.634-9.152,13.81-7.085,22.069
		c1.193,4.753,2.937,7.425,7.468,9.545c4.32,2.022,8.699,4.801,10.428,9.508c1.962,5.362-0.436,10.945,2.977,16.083
		c2.536,3.813,6.771,5.969,11.065,7.188c2.368,0.672,4.727,0.965,7.043,1.814c3.019,1.1,5.667,2.513,8.955,1.664
		c5.745-1.491,9.637-4.426,11.513-10.128c3.261-9.93-0.066-24.333,12.621-27.993c5.211-1.501,9.688-0.113,13.501,3.582
		c4.721,4.583,7.66,8.533,14.521,9.823c9.992,1.879,24.074,3.119,32.332-4.047c8.696-7.539,12.479-20.823,6.033-30.689
		c-3.156-4.842-5.153-10.262-5.966-15.979c-0.779-5.496,0.521-11.048-0.213-16.452c-1.464-10.803-11.49-15.018-18.354-21.9
		c-6.474-6.497-10.355-16.032-9.197-25.247c1.342-10.654,9.461-15.906,16.716-22.681"/>
	<path fill="none" stroke="#FFFFFF" stroke-width="3" stroke-linecap="round" stroke-linejoin="round" stroke-miterlimit="10" d="
		M64.968,543.5c-4.078,7.348-11.428,12.249-20,13.473c-14.696,1.225-40.415-4.899-39.19,17.146c0,3.673,2.451,7.348,4.899,9.799
		c4.901,2.447,8.573,6.125,14.694,4.896c4.897-1.223,9.8-2.449,14.698-2.449c2.448,0,4.9,1.23,7.345,2.449
		c7.352,4.899,6.127,14.697-1.222,19.598c-6.123,3.677-12.248,4.898-19.598,6.124c-2.451,1.225-6.127,2.448-8.569,6.124
		c-2.452,3.673-3.679,9.8,1.224,12.244c6.122,2.455,17.146,7.351,12.247,15.924c-8.574,3.675-23.268,13.472-14.694,23.272
		c7.349,7.34,18.373,6.117,27.625,2.488"/>
	<path fill="none" stroke="#FFFFFF" stroke-width="3" stroke-linecap="round" stroke-linejoin="round" stroke-miterlimit="10" d="
		M133.544,196.501c-0.438,1.757-1.244,3.429-1.487,5.223c-3.15,23.113-4.447,53.824-36.124,52.823
		c-12.992-0.412-27.694-7.433-28.918-20.905c0-8.573,3.675-18.369,0-26.944c-2.447-3.674-6.122-6.121-11.024-7.347
		c-12.247,0-15.919,13.471-25.718,19.596c-1.222,0-2.45,1.226-3.674,1.226c-6.127-1.226-12.249-3.677-17.146-8.573
		c-3.675-6.125-6.127-12.249-6.127-18.371c0-17.149,17.146-33.07,34.294-26.944c4.897,2.444,6.121,9.794,12.246,12.246
		c4.9,1.226,9.801,0,13.472-2.452c2.449-2.447,3.673-4.898,3.673-7.347c0-2.445,0-6.125,0-8.574
		c-1.223-7.343-6.121-12.246-12.246-17.146c-11.025-7.347-23.273-2.447-34.294-2.447c-6.122,0-13.47-3.676-14.694-11.021
		c-2.452-13.472,12.251-19.598,19.597-28.17c6.122-8.569,2.452-19.593-4.899-26.944C10.68,65.858,3.33,56.059,0.88,42.587
		c-1.223-9.796,3.677-17.146,3.677-26.945c0-3.677,6.123-3.677,6.123-6.125C16.802-7.629,37.625-12.525,52.32-8.854
		c2.452,1.226,6.122,2.447,8.573,3.674c7.349,3.676,14.698,8.573,15.922,17.146c3.676,14.698,0,29.4-0.473,44.363"/>
	<path fill="none" stroke="#FFFFFF" stroke-width="3" stroke-linecap="round" stroke-linejoin="round" stroke-miterlimit="10" d="
		M78.499,87.226c1.084,1.709,1.376,3.591,2.667,5.271c1.44,1.879,3.229,3.5,5.206,4.79c3.611,2.349,7.921,3.574,12.227,3.473
		c11.132-0.273,16.511-8.182,19.395-17.987c3.546-12.059,4.515-25.031,10.707-36.202c4.643-8.388,13.578-16.826,24.01-14.115
		c10.187,2.655,8.542,13.979,8.407,22.042c-0.074,4.382,0.818,8.988,6.171,8.702c4.386-0.234,9.329-2.118,13.536,0.184
		c8.416,4.613,5.907,17.834,1.764,24.262c-5.158,8.004-13.711,14.167-22.315,18.014c-14.214,6.36-35.275,4.906-43.359,20.795
		c-3.613,7.096-3.563,15.797-0.06,22.924c2.783,5.655,7.472,10.286,11.255,15.266"/>
	<path fill="none" stroke="#FFFFFF" stroke-width="3" stroke-linecap="round" stroke-linejoin="round" stroke-miterlimit="10" d="
		M201.519,272.094c-13.257,22.784-43.876,39.934-69.595,25.236c-3.676-2.455-6.123-6.125-8.574-9.802
		c-1.223-2.448-2.452-4.896-2.452-7.345c-2.451-18.375,18.374-18.375,31.846-19.597c19.597-1.226,25.719-25.719,23.267-42.865
		c-2.451-18.374-9.796-42.864,8.574-53.888c17.145-1.229,39.188,1.225,47.763-17.146c1.223-2.449,1.223-6.125,2.448-8.574
		c0-4.899,0-8.573,0-13.473c0-3.669-3.67-7.347-4.896-11.024c-4.899-4.896-8.569-11.021-14.695-14.691
		c-3.676-2.454-8.571-1.225-12.248-1.225c-2.451,0-4.896,1.225-7.344,2.444c-9.803,8.577-14.188,18.811-17.146,34.295
		c-2.959,15.492-8.101,14.888-10.39,18.3"/>
	<path fill="none" stroke="#FFFFFF" stroke-width="3" stroke-linecap="round" stroke-linejoin="round" stroke-miterlimit="10" d="
		M257.672,430.359c-4.504,1.69-9.4,4.141-14.303,2.919c-9.8-3.677-15.92-14.701-25.713-17.146
		c-18.374-7.352-22.045,20.819-31.847,31.841c-7.348,6.124-17.146,8.572-26.944,4.896c-7.35-3.673-9.797-12.247-11.025-19.59
		c0-2.452,0-6.128,0-8.572c1.227-4.9,3.675-9.804,7.349-14.701c4.899-4.896,13.473-7.344,20.82-7.344
		c9.8-1.229,22.042-8.577,20.823-20.821c0-2.448-2.451-3.677-3.677-4.899c-8.571-4.898-25.718-3.673-23.271-17.146
		c2.447-12.247,14.698-17.146,25.718-17.146c14.695,1.225,28.168,8.573,42.862,7.344c11.025-1.219,18.372-8.574,25.718-17.146
		c1.227-1.226,0-2.448,1.227-3.671c11.023-15.92,25.718,0,37.961,6.125c13.476,7.348,26.947-4.899,29.396-18.372
		c0-4.899,0-11.024,0-15.923c-1.226-3.674-1.226-8.574-3.674-12.247c-2.448-3.677-4.899-7.347-7.349-11.021
		c-2.447-2.452-4.898-3.677-7.35-3.677c-1.223,0-2.451,0-3.67,0c-4.903,2.448-9.803,7.347-12.25,13.469c0,0-1.226,1.229-2.451,1.229
		c-1.226,1.225-1.226,3.673-2.451,6.125c-3.673,9.792-17.146,9.792-23.268,3.674c-1.226-2.452-2.452-4.896-1.226-7.344
		c6.125-12.253,17.146-24.496,9.8-39.191c-6.122-8.573-13.469-17.149-24.493-18.375c-9.8-1.225-17.146,3.677-25.719,6.125
		c-1.225,0-1.225,1.225-2.471,2.543"/>
	<path fill="none" stroke="#FFFFFF" stroke-width="3" stroke-linecap="round" stroke-linejoin="round" stroke-miterlimit="10" d="
		M319.463,484.497c9.809-10.68,15.359-26.191,9.002-39.943c-5.863-12.665-20.52-21.415-33.992-23.25"/>
	<path fill="none" stroke="#FFFFFF" stroke-width="3" stroke-linecap="round" stroke-linejoin="round" stroke-miterlimit="10" d="
		M320.131,418.634c11.419-14.752,15.099-34.35,8.975-51.496c-2.448-4.896-8.573-7.344-13.473-11.025c-1.229,0-2.451,0-3.673-0.402"
		/>
	<path fill="none" stroke="#FFFFFF" stroke-width="3" stroke-linecap="round" stroke-linejoin="round" stroke-miterlimit="10" d="
		M308.488,439.562c-13.673,18.208-7.551,41.476,5.916,58.621c1.229,1.226,1.229,3.677,1.229,4.901
		c1.222,1.225,1.222,2.447,2.447,3.672c6.126,17.146-6.12,35.521-23.267,36.334l-5.135,1.339
		c-12.188-1.468-16.368-14.303-14.153-24.993c2.66-12.803,13.699-18.797,24.79-23.53"/>
</g>
</svg>
