<svg xmlns="http://www.w3.org/2000/svg" xmlns:xlink="http://www.w3.org/1999/xlink" version="1.2" baseProfile="tiny" x="0px" y="0px" viewBox="0 0 286.806 652.155" xml:space="preserve" style="zoom: 1;"><g id="presentation"><g><path fill="#FFFFFF" d="M111.848,38.115c1.086-0.378,1.959-1.364,2.616-2.956c0.632-1.532,0.691-2.81,0.181-3.831 c-0.51-1.021-1.561-1.859-3.152-2.517l-7.605-3.134l-3.664,8.888l7.604,3.135C109.42,38.356,110.76,38.495,111.848,38.115z"></path><path fill="#FFFFFF" d="M17.161,130.014c-0.011-0.049-0.217-0.024-0.217-0.073v3.23l1.422-3.448L17.161,130.014z"></path><path fill="#FFFFFF" d="M78.258,25.977c0.785,0.186,1.527,0.225,2.229,0.117c0.699-0.109,1.348-0.402,1.939-0.882 c0.596-0.48,1.1-1.221,1.513-2.223c0.412-1.001,0.578-1.883,0.494-2.642c-0.083-0.759-0.336-1.423-0.757-1.993 s-0.975-1.065-1.662-1.487c-0.688-0.422-1.432-0.796-2.227-1.124l-5.396-2.225l-3.9,9.463l5.396,2.225 C76.682,25.534,77.473,25.791,78.258,25.977z"></path><path fill="#FFFFFF" d="M166.779,53.348L166.779,53.348c-0.312-1.689-1.021-3.227-1.984-4.593 c-1.498-2.12-3.573-3.867-5.828-5.389c-1.434-0.965-2.94-1.83-4.434-2.629l-2.233,5.416l-16.669-6.872l-2.79,6.766l15.3,6.307 l-2.224,5.396l-15.3-6.308l-3.189,7.739l17.023,7.017l-2.404,5.839l-23.969-9.882l13.016-31.572l20.033,8.258 c-1.102-0.795-2.045-1.778-2.899-2.927c-0.829-1.113-1.568-2.373-2.285-3.702l-1.345,0.626l-4.378-1.805l3.683-2.743 c-0.014-0.025-0.026-0.05-0.039-0.075c-1.452-2.743-3.078-5.506-5.59-7.606l-0.022-0.019c-5.269-4.215-11.609-6.33-17.941-6.329 c-0.756,0.005-1.912-0.21-3.07-0.562c-1.162-0.348-2.35-0.823-3.261-1.28c-0.212-0.106-0.434-0.158-0.671-0.158 c-2.833,0.006-5.5,0.45-8.001,0.444c-1.241,0-2.438-0.104-3.608-0.394c-4.781-1.438-9.19-3.874-13.832-6.26 c-4.651-2.387-9.549-4.721-15.292-5.766l-0.133-0.018C70.446,0.085,68.5,0,66.561,0c-8.991,0.001-17.562,1.822-26.532,4.291 l0.285,1.47l-0.397-1.445c-2.669,0.548-5.052,1.612-7.244,2.902c-2.219,1.307-4.26,2.84-6.259,4.337 c0.021-0.014,0.039-0.028,0.061-0.042l0.832,1.248l-0.9-1.2c0.002-0.001,0.005-0.003,0.007-0.005 c-3.097,2.065-5.291,4.265-7.354,7.374l-0.094,0.161c-1.994,4.012-4.072,8.95-4.086,13.904c-0.004,2.608,0.608,5.247,2.18,7.599 l0.015,0.022c3.621,5.225,7.954,10.359,11.336,15.582c1.691,2.609,3.143,5.235,4.163,7.883c1.021,2.649,1.613,5.312,1.613,8.038 c-0.002,2.861-0.646,5.805-2.205,8.938c0.005-0.008,0.01-0.016,0.015-0.023l1.312,0.729l-1.342-0.671 c0.006-0.012,0.011-0.023,0.016-0.034c-2.312,4.168-6.083,7.323-9.812,10.724c-1.862,1.706-3.706,3.477-5.3,5.509 c-1.594,2.029-2.937,4.33-3.749,7.042l-0.027,0.106c-0.391,1.753-0.559,3.445-0.559,5.082c0.001,3.666,0.654,7.042,1.656,10.371 c0.992,3.287,2.755,6.545,2.755,10.053v-0.325h1.465l0.679-1.646l6.943,2.862l-12.827,31.115c0.689,2.818,1.449,5.62,2.261,8.407 c0.043,0.147,0.111,0.273,0.196,0.402c0.127,0.194,0.276,0.4,0.417,0.604l-0.048-0.328l1.48-0.241l-1.218,0.876 c-0.076-0.105-0.138-0.204-0.209-0.308l0.34,2.091l0.046,0.198c1.669,5.455,3.503,10.873,5.341,16.291 c0.402,1.149,1.182,2.146,2.201,3.173c1.792,1.781,4.409,3.619,7.517,5.445c4.658,2.731,10.404,5.396,15.927,7.398 c2.761,1,5.466,1.833,7.958,2.422c2.495,0.587,4.771,0.934,6.732,0.936c0.463,0,0.91-0.02,1.34-0.062l0.018-0.002 c2.455-0.271,4.618-1.033,6.46-2.166c2.768-1.699,4.792-4.201,6.208-7.021c1.417-2.825,2.246-5.982,2.639-9.118l0.004-0.037 c0.043-0.437,0.088-0.886,0.132-1.326l-5.702-2.35l-4.419-26.55l-0.089-0.038l-8.714,21.138l-6.5-2.681l13.016-31.572l6.898,2.844 l4.444,26.614l0.089,0.036l4.185-10.15c0.522-2.312,1.118-4.583,1.839-6.771c1.586-4.822,3.706-9.257,6.604-13.005 c2.894-3.742,6.551-6.81,11.306-8.958c-0.011,0.004-0.021,0.007-0.031,0.011l-0.557-1.393l0.615,1.368 c-0.01,0.004-0.019,0.009-0.027,0.014c2.381-0.95,5.068-1.688,7.805-2.434c2.75-0.751,5.549-1.511,8.16-2.555 c5.051-2.028,11.223-5.072,15.506-10.335c-0.002,0.001-0.003,0.002-0.004,0.003l-1.061-1.061l1.171,0.937 c-0.034,0.042-0.073,0.078-0.106,0.12c2.112-2.098,3.528-4.369,4.567-7.471c-0.014,0.027-0.027,0.058-0.041,0.085l-1.342-0.671 l1.423,0.474c-0.013,0.039-0.027,0.073-0.04,0.112c0.512-1.031,0.896-2.292,1.352-3.591c0.463-1.34,0.653-2.69,0.653-3.995v-3.416 l-1.139-0.729h1.139v0.488c1-1.929,1.855-3.898,2.772-6.631l-1.206-0.713l1.445,0.474c-0.019,0.057-0.025,0.108-0.045,0.165 c1.869-3.231,4.415-5.814,7.394-8.222c3.008-2.433,6.459-4.672,9.995-7.196l0.19-0.16c1.095-1.095,1.884-2.175,2.617-3.173 c0.735-1.002,1.416-1.922,2.321-2.827l0.188-0.229c2.197-3.296,2.988-7.096,2.986-10.9 C168.601,60.84,167.806,56.947,166.779,53.348z M116.193,24.438c1.414,0.583,2.594,1.337,3.541,2.262 c0.946,0.925,1.661,1.953,2.143,3.082c0.484,1.131,0.723,2.308,0.72,3.53c-0.004,1.223-0.256,2.438-0.753,3.647 c-0.766,1.856-1.82,3.302-3.159,4.337c-1.341,1.033-3.04,1.539-5.103,1.518l-0.035,0.089c0.758,0.588,1.316,1.241,1.676,1.958 c0.359,0.718,0.579,1.481,0.66,2.291c0.08,0.809,0.037,1.644-0.129,2.506c-0.166,0.864-0.385,1.705-0.652,2.525 c-0.178,0.514-0.391,1.114-0.641,1.806c-0.252,0.69-0.484,1.403-0.702,2.142c-0.218,0.739-0.376,1.458-0.474,2.158 c-0.102,0.701-0.08,1.339,0.062,1.915l-6.943-2.862c0.031-1.16,0.287-2.451,0.77-3.874c0.482-1.421,0.898-2.802,1.244-4.143 c0.443-1.748,0.439-3.164-0.012-4.247c-0.449-1.082-1.545-1.981-3.283-2.698l-6.943-2.861l-5.084,12.337l-6.944-2.862 l13.017-31.572L116.193,24.438z M69.673,5.262l14.24,5.87c1.974,0.814,3.536,1.794,4.685,2.939 c1.148,1.146,1.963,2.37,2.443,3.672c0.48,1.303,0.672,2.64,0.571,4.012c-0.102,1.374-0.418,2.709-0.952,4.006 c-0.522,1.268-1.234,2.432-2.137,3.49c-0.904,1.06-1.984,1.881-3.242,2.466c-1.258,0.586-2.699,0.88-4.322,0.883 c-1.621,0.005-3.42-0.401-5.395-1.216l-7.297-3.008l-4.667,11.32l-6.944-2.861L69.673,5.262z M42.127,66.438l6.721,2.771 c-0.438,1.061-0.617,2.039-0.536,2.934c0.079,0.896,0.341,1.702,0.787,2.419c0.445,0.72,1.049,1.364,1.813,1.938 c0.764,0.573,1.602,1.049,2.518,1.427c0.618,0.255,1.303,0.476,2.053,0.664s1.496,0.264,2.236,0.224s1.424-0.232,2.049-0.578 s1.102-0.917,1.431-1.712c0.353-0.855,0.365-1.661,0.039-2.416c-0.327-0.757-0.859-1.492-1.599-2.211s-1.613-1.441-2.625-2.168 c-1.01-0.728-2.023-1.489-3.04-2.289c-1.058-0.779-2.059-1.616-3.001-2.505c-0.945-0.889-1.72-1.854-2.324-2.897 c-0.605-1.042-0.971-2.185-1.097-3.427c-0.128-1.242,0.108-2.585,0.704-4.029c0.668-1.621,1.594-2.887,2.779-3.794 c1.186-0.91,2.502-1.53,3.95-1.865c1.449-0.334,2.959-0.401,4.532-0.201c1.574,0.202,3.067,0.593,4.482,1.176 c1.651,0.681,3.159,1.518,4.525,2.512c1.365,0.995,2.469,2.148,3.309,3.459c0.838,1.312,1.34,2.751,1.504,4.319 s-0.131,3.267-0.883,5.094l-6.723-2.771c0.33-0.968,0.453-1.832,0.369-2.589c-0.084-0.76-0.333-1.432-0.746-2.017 c-0.416-0.584-0.953-1.1-1.613-1.545c-0.662-0.444-1.42-0.844-2.275-1.196c-0.561-0.23-1.146-0.402-1.754-0.515 c-0.609-0.113-1.203-0.117-1.781-0.011c-0.578,0.107-1.107,0.319-1.582,0.642c-0.478,0.32-0.855,0.819-1.137,1.498 c-0.254,0.619-0.344,1.168-0.266,1.648c0.08,0.481,0.396,1.026,0.957,1.636c0.558,0.61,1.383,1.329,2.473,2.158 c1.088,0.829,2.519,1.9,4.287,3.216c0.541,0.361,1.271,0.912,2.19,1.652c0.919,0.741,1.753,1.664,2.506,2.768 c0.753,1.102,1.271,2.377,1.556,3.821c0.283,1.446,0.061,3.052-0.67,4.821c-0.595,1.443-1.428,2.67-2.497,3.678 c-1.071,1.007-2.345,1.732-3.821,2.176c-1.475,0.443-3.135,0.578-4.979,0.404c-1.843-0.172-3.84-0.703-5.991-1.591 c-1.739-0.717-3.339-1.626-4.8-2.728c-1.459-1.101-2.629-2.368-3.504-3.799c-0.876-1.43-1.391-3.006-1.544-4.723 C40.957,70.196,41.295,68.371,42.127,66.438z M31.067,91.884l2.407-5.837l25.867,10.664l-2.404,5.838l-9.465-3.902l-10.609,25.736 l-6.941-2.861l10.609-25.736L31.067,91.884z M56.888,154.495c-0.124,2.312-0.673,4.646-1.645,7.004 c-0.948,2.3-2.187,4.299-3.714,5.997s-3.26,3.011-5.193,3.938c-1.934,0.929-4.033,1.416-6.295,1.466 c-2.264,0.05-4.617-0.429-7.064-1.438c-2.417-0.996-4.418-2.312-6.002-3.948c-1.586-1.637-2.737-3.464-3.455-5.484 c-0.721-2.022-1.023-4.173-0.91-6.455c0.112-2.281,0.643-4.572,1.59-6.872c0.973-2.357,2.229-4.401,3.77-6.129 c1.54-1.727,3.283-3.069,5.229-4.026c1.947-0.957,4.062-1.464,6.346-1.522c2.283-0.06,4.634,0.409,7.051,1.406 c2.446,1.007,4.451,2.335,6.016,3.979c1.564,1.646,2.699,3.493,3.406,5.544C56.721,150.004,57.014,152.185,56.888,154.495z M73.436,139.458l-7.209-2.971l0.51-8.016l-11.807-4.867l-5.375,6.01l-6.987-2.88l24.956-26.651l7.119,2.936L73.436,139.458z M68.494,89.568l13.015-31.572l23.613,9.733l-2.405,5.836l-16.67-6.871l-2.789,6.766l15.299,6.307l-2.223,5.395l-15.301-6.307 l-3.189,7.739l17.023,7.018l-2.406,5.837L68.494,89.568z M106.108,122.818l-9.464-3.901l-10.609,25.736l-6.941-2.862 l10.609-25.735l-9.463-3.901l2.406-5.837l25.867,10.664L106.108,122.818z M123.814,112.372l-6.943-2.862l-4.419-26.551 l-0.089-0.036l-8.713,21.138l-6.502-2.681l13.016-31.572l6.898,2.844l4.445,26.613l0.088,0.036l8.731-21.181l6.501,2.679 L123.814,112.372z"></path><path fill="#FFFFFF" d="M47.793,146.814c-0.842-1.053-2.043-1.903-3.605-2.547c-1.563-0.645-3.016-0.89-4.354-0.734 c-1.341,0.154-2.559,0.602-3.656,1.339c-1.097,0.736-2.068,1.691-2.912,2.859c-0.844,1.17-1.552,2.448-2.123,3.833 c-0.547,1.326-0.925,2.68-1.131,4.062c-0.207,1.38-0.177,2.711,0.088,3.993c0.265,1.281,0.816,2.449,1.658,3.504 c0.842,1.054,2.045,1.902,3.607,2.546c1.562,0.645,3.012,0.889,4.353,0.734c1.339-0.154,2.556-0.594,3.647-1.316 c1.091-0.723,2.049-1.646,2.875-2.771c0.827-1.126,1.512-2.352,2.059-3.679c0.572-1.385,0.971-2.789,1.195-4.216 c0.226-1.424,0.209-2.785-0.051-4.081C49.186,149.043,48.635,147.868,47.793,146.814z"></path><polygon fill="#FFFFFF" points="67.055,122.55 67.852,109.323 67.764,109.287 58.875,119.178"></polygon></g></g><g id="programmation"><g><path fill="#FFFFFF" d="M90.601,200.929c-0.258,0.564-0.257,1.146-0.538,1.671c0.268-0.126,0.516-0.271,0.721-0.454 c0.668-0.594,1.003-1.559,1.003-2.895c0-0.52-0.069-0.967-0.179-1.372c-0.084,0.423-0.154,0.85-0.249,1.271 C91.18,199.949,90.928,200.215,90.601,200.929z"></path><path fill="#FFFFFF" d="M104.073,232.616l-1.765,5.054c0.584,0.391,1.636,1.06,1.636,1.546v-6.6H104.073z"></path><path fill="#FFFFFF" d="M203.606,125.28c-0.916-0.507-2.03-0.761-3.342-0.761s-2.425,0.254-3.341,0.761 c-0.915,0.507-1.657,1.188-2.227,2.042c-0.57,0.854-0.984,1.825-1.244,2.914c-0.26,1.089-0.39,2.215-0.39,3.378 c0,1.114,0.13,2.196,0.39,3.248c0.26,1.052,0.674,1.999,1.244,2.84c0.569,0.842,1.312,1.516,2.227,2.023 c0.916,0.508,2.029,0.761,3.341,0.761s2.426-0.253,3.342-0.761c0.915-0.507,1.657-1.181,2.227-2.023 c0.569-0.841,0.984-1.788,1.244-2.84c0.26-1.052,0.39-2.134,0.39-3.248c0-1.163-0.13-2.289-0.39-3.378 c-0.26-1.089-0.675-2.061-1.244-2.914C205.264,126.467,204.521,125.787,203.606,125.28z"></path><path fill="#FFFFFF" d="M176.806,131.537c0.668-0.594,1.002-1.653,1.002-2.989c0-1.287-0.334-2.35-1.002-2.931 c-0.669-0.581-1.671-1-3.008-1h-6.854v8h6.854C175.135,132.616,176.137,132.131,176.806,131.537z"></path><path fill="#FFFFFF" d="M187.904,230.332c-0.569-0.854-1.312-1.534-2.228-2.042c-0.915-0.506-2.029-0.761-3.341-0.761 s-2.425,0.254-3.341,0.761c-0.916,0.508-1.658,1.188-2.227,2.042c-0.57,0.854-0.984,1.825-1.244,2.914 c-0.26,1.089-0.39,2.215-0.39,3.379c0,1.113,0.13,2.196,0.39,3.248c0.26,1.052,0.674,1.998,1.244,2.839 c0.568,0.842,1.311,1.516,2.227,2.023c0.916,0.508,2.029,0.761,3.341,0.761s2.426-0.253,3.341-0.761 c0.916-0.507,1.658-1.181,2.228-2.023c0.569-0.841,0.983-1.788,1.243-2.839c0.261-1.052,0.39-2.135,0.39-3.248 c0-1.164-0.129-2.29-0.39-3.379C188.888,232.157,188.474,231.186,187.904,230.332z"></path><path fill="#FFFFFF" d="M142.944,132.616h4.238c0.669,0,1.312,0.004,1.931-0.096c0.618-0.099,1.163-0.264,1.633-0.548 c0.47-0.284,0.848-0.673,1.133-1.193c0.284-0.52,0.427-1.194,0.427-2.035c0-0.841-0.143-1.519-0.427-2.039 c-0.285-0.52-0.663-0.919-1.133-1.204c-0.47-0.284-1.015-0.557-1.633-0.656c-0.619-0.099-1.262-0.229-1.931-0.229h-0.958 c-1.147,2-2.28,3.718-3.28,5.439V132.616z"></path><polygon fill="#FFFFFF" points="214.298,195.616 210.845,205.616 217.712,205.616 214.371,195.616"></polygon><path fill="#FFFFFF" d="M251.952,207.932c-0.049-1.897-0.862-3.592-1.268-5.439c-0.525-2.392-1.089-5.021-2.074-7.257 c-0.41-0.932-0.725-1.963-1.298-2.812c-0.567-0.842-1.389-1.458-2.035-2.231c-1.458-1.742-3.372-3.119-4.923-4.792 c-0.812-0.877-1.149-1.776-1.714-2.79c-0.511-0.917-1.307-1.629-2.048-2.354c-1.299-1.267-2.283-2.199-2.9-3.919 c-0.303-0.844-0.505-0.969-1.208-1.678c-0.877-0.884-1.561-1.919-2.437-2.796c-1-1.002-1.984-1.616-2.705-2.896 c-0.56-1.201-1.049-2.43-1.469-3.687c-0.67-1.666-1.279-3.354-1.828-5.063c-1.18-4.165-0.768-8.75-0.768-13.041 c0-1.736-0.019-3.473-0.001-5.209c0.004-0.46,0.115-1.072-0.052-1.521c-0.21-0.226-0.396-0.469-0.562-0.731 c-0.391-0.807-0.832-1.586-1.322-2.338c-1.765-2.533-4.573-4.082-6.592-6.371c-0.604-0.686-1.314-1.256-2.022-1.825 c0.373,1.389,0.567,2.864,0.567,4.432c0,1.93-0.298,3.731-0.892,5.401c-0.594,1.67-1.447,3.125-2.562,4.362 c-1.113,1.238-2.475,2.209-4.083,2.914c-1.609,0.706-3.44,1.058-5.494,1.058c-2.029,0-3.854-0.353-5.475-1.058 c-1.621-0.705-2.988-1.676-4.102-2.914c-1.114-1.237-1.968-2.691-2.562-4.362c-0.594-1.67-0.891-3.471-0.891-5.401 c0-1.979,0.297-3.817,0.891-5.513c0.595-1.695,1.448-3.174,2.562-4.436c1.113-1.262,2.48-2.252,4.102-2.97 c1.62-0.718,3.445-1.077,5.475-1.077c2.054,0,3.885,0.359,5.494,1.077c0.608,0.271,1.169,0.594,1.706,0.943 c-0.202-0.375-0.405-0.75-0.617-1.12c-0.544-0.947-1.096-1.838-1.36-2.912c-0.3-1.215-0.291-2.534-0.468-3.773 c-0.107-0.75-0.026-1.48-0.141-2.227c-0.157-1.022-0.546-2.098-0.836-3.086c-0.804-2.741-2.923-4.917-5.032-6.755 c-1.05-0.915-1.923-2.014-2.968-2.926c-1.209-1.055-2.898-2.042-4.278-2.854c-1.236-0.727-1.67-0.545-2.882-0.659 c-0.864-0.082-1.777-0.921-2.438-1.435c-0.461-0.358-0.807-0.836-1.196-1.265c-17.381,0.541-27.068,13.363-35.687,26.896 c-0.156,0.245-0.312,0.493-0.468,0.739c1.519,0.03,2.83,0.261,3.917,0.712c1.163,0.482,2.109,1.12,2.84,1.912 c0.729,0.792,1.263,1.695,1.596,2.71c0.334,1.015,0.502,2.066,0.502,3.155c0,1.064-0.168,2.11-0.502,3.137 c-0.333,1.027-0.866,1.937-1.596,2.728c-0.73,0.792-1.677,1.612-2.84,2.095c-1.163,0.482-2.574,0.906-4.231,0.906h-5.835v9h-6 v-9.623c0,0.012-0.082,0.025-0.094,0.037c-4.816,4.731-10.306,8.625-16.178,11.945c-5.031,2.844-10.449,5.26-15.436,8.247 c0.045-0.021,0.079-0.046,0.124-0.066c1.62-0.718,3.441-1.077,5.471-1.077c2.054,0,3.883,0.359,5.492,1.077 c1.608,0.718,2.969,1.708,4.082,2.97c1.114,1.262,1.968,2.741,2.562,4.436c0.594,1.695,0.891,3.533,0.891,5.513 c0,1.93-0.298,3.731-0.892,5.401c-0.594,1.67-1.447,3.125-2.562,4.362c-1.113,1.238-2.475,2.209-4.083,2.914 c-1.609,0.706-3.44,1.058-5.494,1.058c-2.029,0-3.854-0.353-5.475-1.058c-1.621-0.705-2.988-1.676-4.102-2.914 c-1.114-1.237-1.968-2.691-2.562-4.362c-0.594-1.67-0.891-3.471-0.891-5.401c0-1.979,0.297-3.817,0.891-5.513 c0.595-1.695,1.448-3.174,2.562-4.436c0.346-0.392,0.726-0.749,1.12-1.088c-0.243,0.165-0.494,0.32-0.734,0.489 c-0.414,0.292-0.811,0.602-1.213,0.904c-0.125,0.115-0.275,0.204-0.411,0.307c-0.616,0.473-1.219,0.959-1.812,1.455 c-0.661,0.716-1.11,1.541-1.592,2.595c-0.362,0.793-0.888,1.489-1.257,2.277c-0.514,1.097-0.74,2.347-1,3.522 c-0.271,1.229-0.675,2.38-0.985,3.559c0.084,0.256,0.162,0.516,0.218,0.791c0.137,0.668,0.229,1.336,0.279,2.004 c0.023,0.421,0.049,0.916,0.074,1.485c0.023,0.569,0.067,1.15,0.129,1.744c0.062,0.594,0.161,1.358,0.298,1.89 c0.136,0.532,0.34,0.556,0.612,1.556h-2.374c0.011,1,0.003,2.887,0.007,4.431c0.003,1.193-0.053,2.285-0.135,3.475 c0.2,0.062,0.399,0.075,0.59,0.151c0.953,0.384,1.77,0.884,2.45,1.552c0.681,0.668,1.2,1.43,1.559,2.308 c0.358,0.879,0.538,1.819,0.538,2.833c0,1.559-0.565,2.905-1.221,4.043c-0.656,1.139-1.448,2.001-3.448,2.595v0.075 c1,0.198,1.549,0.501,2.02,0.909c0.47,0.408,0.973,0.891,1.27,1.448s0.572,1.169,0.708,1.837c0.136,0.668,0.26,1.336,0.309,2.004 c0.024,0.421,0.064,0.916,0.09,1.485c0.023,0.569,0.074,1.15,0.136,1.744c0.062,0.594,0.165,1.19,0.302,1.722 c0.135,0.532,0.344,1.387,0.616,1.387h-5.828c-0.322-1-0.52-1.876-0.594-3.039c-0.075-1.163-0.186-2.293-0.334-3.357 c-0.199-1.385-0.619-2.197-1.263-2.841c-0.644-0.643-1.695-0.762-3.155-0.762h-0.056c-0.05,0-0.108,0.163-0.192,0.349 c-1.426,3.142-1.45,6.223-1.384,9.627c0.045,2.325,0.876,4.768,1.944,6.803c0.212,0.404,0.402,0.222,0.603,1.222h1.127 l0.994,2.806c0.473,0.558,0.942,1.06,1.354,1.647c1.188,1.697,2.396,3.161,4,4.514c0.811,0.685,1.556,1.163,2.396,1.478 l3.395-10.446h8.544v21.863c0,0.812,0.613,1.639,0.854,2.545c0.603,2.268,1.052,4.623,1.898,6.82 c0.278,0.72,0.694,1.176,1.048,1.856c0.166,0.316,0.247,0.915,0.362,0.915h1.584l2.836,4.61c0.04,0.03,0.084,0.081,0.124,0.112 c1.21,0.943,1.619,1.606,1.959,3.015c0.029,0.12,0.049,0.257,0.072,0.383l3.578,5.754c0.194,0.164,0.461,0.326,0.701,0.481 c0.605,0.388,0.982,0.655,1.982,0.849v-15.205h5v15.646c2-0.041,2.975-0.174,4.502-0.625c2.684-0.792,5.607-2.433,7.888-4.021 c2.355-1.641,4.52-3.796,6.671-5.692c1.149-1.013,2.231-1.885,3.571-2.632c2.064-1.152,3.741-2.768,5.92-3.735 c2.354-1.045,4.568-2.327,7.012-3.184c2.703-0.949,5.386-2.195,7.625-4.015c0.784-0.637,1.636-1.216,2.506-1.771 c-0.262-0.093-0.527-0.178-0.778-0.288c-1.622-0.706-2.988-1.676-4.102-2.914c-1.113-1.237-1.967-2.691-2.562-4.362 c-0.594-1.67-0.891-3.471-0.891-5.4c0-1.98,0.297-3.817,0.891-5.513c0.595-1.694,1.448-3.174,2.562-4.436 c1.113-1.262,2.48-2.251,4.103-2.97c1.62-0.717,3.445-1.076,5.475-1.076c2.054,0,3.885,0.359,5.494,1.076 c1.608,0.718,2.97,1.708,4.083,2.97c1.114,1.262,1.968,2.741,2.562,4.436c0.594,1.696,0.892,3.533,0.892,5.513 c0,1.93-0.298,3.73-0.892,5.4c-0.509,1.431-1.22,2.693-2.109,3.806c0.838-0.016,1.666,0.008,2.445,0.146 c1.227,0.216,2.138,0.959,3.155,1.625c0.387,0.254,0.979,0.483,0.979,0.703v-24.688h6.184l11.062,17h-0.246v-17h6v26h-6.051 l-11.025-18h0.076v18h-2.565c1.123,1,2.099,0.729,3.282,0.976c1.486,0.309,2.929,1.125,4.246,1.846 c2.994,1.637,6.771,1.932,10.146,2.167c1.482,0.103,2.742,0.636,4.186,0.048c3.03-1.234,5.482-3.96,7.738-6.218 c2.632-2.634,4.769-5.247,6.665-8.445c1.175-1.981,2.289-4.035,2.735-6.3c0.312-1.578,0.417-3.156,0.855-4.717 c0.765-2.715,3.54-4.363,5.232-6.479c1.039-1.298,1.683-2.616,2.233-4.166c0.582-1.635,1.41-3.307,1.806-4.996 C251.92,211.554,251.998,209.754,251.952,207.932z M161.944,120.616h13.933c1.188,0,2.259,0.009,3.211,0.393 c0.953,0.384,1.77,0.817,2.45,1.486c0.681,0.668,1.2,1.396,1.559,2.274c0.359,0.879,0.539,1.802,0.539,2.817 c0,1.559-0.578,2.896-1.232,4.035c-0.656,1.139-1.459,1.993-3.459,2.587v0.074c1,0.198,1.559,0.501,2.029,0.91 s0.979,0.891,1.275,1.448s0.576,1.169,0.711,1.837c0.137,0.668,0.261,1.336,0.311,2.004c0.023,0.421,0.064,0.916,0.09,1.485 c0.023,0.569,0.075,1.15,0.137,1.744c0.062,0.594,0.165,1.088,0.302,1.621c0.136,0.532,0.344,1.286,0.616,1.286h-5.828 c-0.322-1-0.52-1.774-0.594-2.938c-0.074-1.163-0.186-2.242-0.334-3.306c-0.198-1.386-0.619-2.273-1.262-2.917 c-0.645-0.643-1.696-0.838-3.156-0.838h-6.297v10h-5V120.616z M136.566,162.438c0.594-1.695,1.447-3.174,2.562-4.436 c1.113-1.262,2.48-2.252,4.102-2.97s3.445-1.077,5.476-1.077c1.36,0,2.679,0.204,3.953,0.612c1.274,0.409,2.425,1.009,3.452,1.801 s1.875,1.922,2.543,3.085s1.076,2.162,1.225,4.162h-5.567c-0.348-2-1.016-2.752-2.005-3.494c-0.99-0.742-2.19-1.19-3.601-1.19 c-1.312,0-2.426,0.215-3.341,0.723c-0.916,0.507-1.658,1.168-2.228,2.022c-0.569,0.854-0.983,1.816-1.243,2.905 c-0.261,1.089-0.391,2.21-0.391,3.373c0,1.114,0.13,2.194,0.391,3.246c0.26,1.052,0.674,1.997,1.243,2.838 c0.569,0.842,1.312,1.516,2.228,2.022c0.915,0.508,2.029,0.761,3.341,0.761c1.931,0,3.421-0.733,4.473-1.711 c1.052-0.978,1.664-2.495,1.838-4.495h-6.071v-4h11v14h-3.37l-0.594-2.769c-1.039,1.336-2.19,2.389-3.452,2.921 c-1.263,0.532-2.537,0.858-3.823,0.858c-2.03,0-3.854-0.323-5.476-1.029c-1.621-0.705-2.988-1.661-4.102-2.899 c-1.114-1.237-1.968-2.684-2.562-4.354c-0.595-1.67-0.891-3.467-0.891-5.397C135.676,165.967,135.972,164.133,136.566,162.438z M107.524,211.616l-2.079,6H99.58l10.023-27h5.977l9.911,27h-6.051l-2.005-6H107.524z M131.803,251.616l-2.005-6h-9.911l-2.079,6 h-5.865l10.022-26h5.977l9.912,26H131.803z M156.944,228.616h-8v21h-6v-21h-8v-5h22V228.616z M164.944,249.616h-5v-26h5V249.616z M164.944,215.616h-5v-19h-0.104l-6.496,19h-4.491l-6.496-19h-0.413v19h-5v-27h8.086l6.198,19h0.075l5.865-19h7.775V215.616z M164.944,180.616v-26h14.348c1.188,0,2.258,0.178,3.211,0.561c0.953,0.384,1.77,0.902,2.45,1.57 c0.681,0.668,1.2,1.438,1.559,2.316c0.358,0.879,0.538,1.823,0.538,2.838c0,1.559-0.283,2.907-0.939,4.045 c-0.656,1.139-2.166,2.003-3.166,2.597v0.075c1,0.198,1.268,0.501,1.738,0.909c0.469,0.408,0.831,0.891,1.128,1.448 s0.502,1.169,0.638,1.837c0.136,0.668,0.225,1.336,0.273,2.004c0.024,0.421,0.047,0.916,0.072,1.485 c0.023,0.569,0.065,1.15,0.127,1.744c0.062,0.594,0.161,0.92,0.298,1.452c0.135,0.532,0.339,1.117,0.611,1.117h-5.828 c-0.322,0-0.52-1.606-0.594-2.769c-0.075-1.163-0.186-2.158-0.334-3.223c-0.199-1.385-0.619-2.4-1.263-3.043 s-1.695-0.965-3.155-0.965h-5.712v10H164.944z M198.944,215.616h-5v-19h-0.435l-6.496,19h-4.491l-6.496-19h-0.082v19h-5v-27h7.754 l6.199,19h0.074l5.865-19h8.107V215.616z M196.961,175.616l-2.079,5h-5.865l10.023-26h5.977l9.911,26h-6.051l-2.005-5H196.961z M221.239,215.616l-2.005-6h-9.911l-2.079,6h-5.865l10.022-27h5.977l9.912,27H221.239z"></path><polygon fill="#FFFFFF" points="201.936,161.616 198.483,170.616 205.351,170.616 202.009,161.616"></polygon><path fill="#FFFFFF" d="M105.261,176.162c0.569,0.842,1.312,1.516,2.227,2.023c0.916,0.508,2.029,0.761,3.341,0.761 s2.426-0.253,3.342-0.761c0.915-0.507,1.657-1.181,2.227-2.023c0.569-0.841,0.984-1.788,1.244-2.84 c0.26-1.052,0.39-2.134,0.39-3.248c0-1.163-0.13-2.289-0.39-3.378c-0.26-1.089-0.675-2.061-1.244-2.914 c-0.569-0.854-1.312-1.534-2.227-2.042c-0.916-0.507-2.03-0.761-3.342-0.761s-2.425,0.254-3.341,0.761 c-0.915,0.507-1.657,1.188-2.227,2.042c-0.57,0.854-0.984,1.825-1.244,2.914c-0.26,1.089-0.39,2.215-0.39,3.378 c0,1.114,0.13,2.196,0.39,3.248C104.276,174.374,104.69,175.32,105.261,176.162z"></path><polygon fill="#FFFFFF" points="112.499,197.616 109.047,207.616 115.914,207.616 112.572,197.616"></polygon><path fill="#FFFFFF" d="M180.22,165.705c0.668-0.594,1.003-1.568,1.003-2.905c0-1.287-0.335-1.976-1.003-2.557 c-0.668-0.581-1.67-0.627-3.007-0.627h-6.269v7h6.269C178.55,166.616,179.552,166.3,180.22,165.705z"></path><polygon fill="#FFFFFF" points="124.861,231.616 121.408,241.616 128.275,241.616 124.935,231.616"></polygon></g></g><g id="tickets"><g><path fill="#FFFFFF" d="M286.806,312.066c-0.028-1.189-0.121-2.388-0.33-3.6c-1.15-6.618-4.208-12.638-6.761-18.403 c-0.434-0.976-0.834-1.951-1.222-2.926l-5.446,5.505L286.806,312.066z"></path><path fill="#FFFFFF" d="M283.65,327.464c0.95-2.592,1.819-5.848,2.411-7.848h-6.277l-13.283-19.977l-5.557,5.489v14.488h-10v-44 h10v17.892l14.473-15.36c-0.584-1.944-1.144-3.914-1.699-5.934c-1.141-4.113-2.383-8.631-5.184-12.41 c-1.213-1.634-2.595-2.812-4.088-3.561c-1.491-0.751-3.076-1.062-4.633-1.06c-2.715,0.006-5.366,0.892-7.887,1.98 c-2.519,1.094-4.92,2.416-7.032,3.405c-0.526,0.247-1.055,0.458-1.587,0.643c-0.198,0.069-0.389,0.186-0.541,0.33 c-3.075,2.924-6.218,5.401-10.411,6.643l-0.027,0.008c-2.957,0.936-5.819,1.311-8.659,1.311c-5.688,0.004-11.3-1.529-17.096-3.121 c-5.794-1.584-11.773-3.224-18.202-3.228c-2.55,0-5.168,0.262-7.854,0.889l0.321,1.465l-0.342-1.46 c-3.06,0.674-5.671,2.185-8.012,3.75c-3.483,2.334-6.408,4.817-9.497,7.817h18.957v8h-13v36h-10v-36h-13v-0.69 c-2,0.956-3.928,1.861-5.855,2.744c-2.037,0.933-4.325,1.972-6.477,3.222c-2.15,1.253-4.171,2.711-5.646,4.587 c-0.225,0.29-0.405,0.596-0.586,0.937c-0.269,0.509-0.517,1.083-0.715,1.653c-0.099,0.286-0.183,0.569-0.248,0.854 c-0.063,0.286-0.113,0.565-0.115,0.899c-0.002,3.277,0.855,6.2,2.13,9.076c1.775,4.004,4.354,7.373,6.573,10.737 c2.229,3.368,4.089,6.691,4.689,10.587c0.147,0.952,0.212,1.897,0.212,2.844c0.003,3.214-0.762,6.449-1.57,9.799 c-0.803,3.348-1.651,6.811-1.654,10.488c0,0.641,0.026,1.287,0.084,1.94c0.346,3.993,1.646,7.363,3.914,10.105 c2.277,2.755,5.264,4.896,8.264,6.639v-37.421h33v8h-23v9h22v8h-22v11h24v8h-14.993c0.511,0,1.016,0.209,1.504,0.333 c1.379,0.355,2.304,0.981,2.958,1.796c0.649,0.816,1.022,1.818,1.122,2.901c0.038,0.41,0.241,0.778,0.564,1.034 c3.271,2.58,6.652,4.854,10.392,6.511c3.736,1.655,7.832,2.675,12.447,2.743l0.1-0.003c5.387-0.286,10.09-2.71,14.696-4.794 c4.612-2.104,9.124-3.521,14.103-4.521h0.006c0.338,0,0.674,0.18,1.007,0.18c4.405-0.002,8.485,1.589,12.661,3.423 c4.173,1.824,8.407,4.041,13.127,5.133l0.021,0.03l0.097-0.423l-0.097,0.448c1.703,0.368,3.269,0.53,4.736,0.53 c2.301,0.001,4.351-0.401,6.304-0.977c1.948-0.573,3.807-1.312,5.803-2.026c0.184-0.052,0.359-0.128,0.51-0.244 c6.221-4.779,9.621-11.995,9.61-19.995c0-1.155-0.07-2.326-0.211-3.51c-0.604-5.047-1.4-9.928-1.398-14.763 c0-1.598,0.086-3.123,0.291-4.719C279.105,339.438,281.392,333.601,283.65,327.464z M204.995,288.285 c0.989-2.822,2.411-5.285,4.265-7.386c1.854-2.102,4.131-3.749,6.83-4.944c2.698-1.195,5.737-1.792,9.117-1.792 c2.431,0,4.729,0.351,6.892,1.051c2.163,0.701,4.1,1.721,5.81,3.059c1.71,1.34,3.122,2.783,4.234,4.761s1.812,4.584,2.102,6.584 h-9.396c-0.165-1-0.536-1.917-1.112-2.845c-0.577-0.927-1.298-1.632-2.163-2.333c-0.865-0.7-1.845-1.192-2.937-1.584 c-1.092-0.391-2.235-0.56-3.43-0.56c-2.185,0-4.039,0.436-5.563,1.281s-2.761,1.984-3.708,3.406 c-0.948,1.421-1.638,3.042-2.07,4.855c-0.433,1.813-0.649,3.69-0.649,5.626c0,1.854,0.217,3.658,0.649,5.409 c0.433,1.752,1.122,3.329,2.07,4.729c0.947,1.401,2.184,2.525,3.708,3.369c1.524,0.845,3.379,1.267,5.563,1.267 c2.967,0,5.284-0.771,6.953-2.585c1.669-1.812,2.688-4.035,3.06-7.035h9.396c-0.248,2-0.887,5.119-1.917,7.344 c-1.03,2.226-2.39,4.054-4.079,5.619c-1.689,1.566-3.668,2.728-5.934,3.551c-2.267,0.824-4.759,1.219-7.479,1.219 c-3.38,0-6.419-0.596-9.117-1.77c-2.699-1.174-4.976-2.795-6.83-4.856c-1.854-2.06-3.275-4.484-4.265-7.265 s-1.483-5.78-1.483-8.994C203.512,294.168,204.006,291.108,204.995,288.285z M186.944,275.616h10v44h-10V275.616z M221.944,340.616h-13v36h-10v-36h-13v-8h36V340.616z M260.438,369.038c-0.783,1.73-1.947,3.225-3.492,4.48 c-1.545,1.258-3.461,2.236-5.748,2.937s-4.936,1.051-7.942,1.051c-2.432,0-4.79-0.3-7.077-0.896s-4.307-1.534-6.058-2.812 c-1.752-1.276-3.143-3.031-4.172-5.009c-1.03-1.978-1.525-4.172-1.483-7.172h9.395c0,2,0.268,2.866,0.804,3.896 c0.535,1.03,1.246,1.928,2.133,2.566c0.886,0.639,1.926,1.144,3.121,1.453c1.194,0.309,2.431,0.479,3.709,0.479 c0.865,0,1.792-0.063,2.781-0.208c0.988-0.145,1.916-0.418,2.781-0.831c0.865-0.411,1.586-0.976,2.163-1.697 c0.577-0.721,0.865-1.637,0.865-2.75c0-1.194-0.381-2.162-1.144-2.904s-1.761-1.359-2.997-1.854 c-1.236-0.495-2.638-0.928-4.203-1.298c-1.566-0.371-3.152-0.782-4.76-1.236c-1.648-0.412-3.255-0.917-4.821-1.515 c-1.566-0.597-2.967-1.369-4.202-2.317c-1.236-0.947-2.236-2.133-2.998-3.555c-0.763-1.421-1.144-3.142-1.144-5.161 c0-2.266,0.483-4.233,1.452-5.902c0.968-1.669,2.235-3.06,3.802-4.172c1.565-1.112,3.338-1.937,5.315-2.473 c1.978-0.535,3.956-0.803,5.934-0.803c2.308,0,4.521,0.258,6.645,0.771c2.122,0.517,4.007,1.351,5.655,2.504 c1.647,1.154,2.956,2.66,3.925,4.451c0.968,1.793,1.453,3.555,1.453,6.555h-9.396c-0.083-1-0.361-2.443-0.834-3.309 c-0.475-0.865-1.104-1.562-1.886-2.057c-0.783-0.494-1.679-0.853-2.688-1.06c-1.01-0.205-2.112-0.312-3.307-0.312 c-0.783,0-1.566,0.081-2.349,0.245c-0.783,0.165-1.494,0.453-2.133,0.864c-0.639,0.412-1.164,0.928-1.576,1.546 c-0.412,0.617-0.618,1.399-0.618,2.348c0,0.865,0.165,1.566,0.495,2.102c0.329,0.535,0.979,1.03,1.947,1.483 c0.967,0.453,2.307,0.906,4.018,1.359c1.709,0.454,3.944,1.03,6.706,1.73c0.823,0.165,1.967,0.464,3.43,0.896 s2.915,1.123,4.358,2.07c1.441,0.948,2.688,2.216,3.739,3.802c1.051,1.587,1.576,3.615,1.576,6.088 C261.612,365.433,261.22,367.307,260.438,369.038z"></path></g></g><g id="infospratiques"><g><path fill="#FFFFFF" d="M207.297,422.803c0.607,0.897,1.397,1.616,2.374,2.156c0.976,0.541,2.162,0.812,3.561,0.812 c1.396,0,2.584-0.271,3.561-0.812c0.975-0.54,1.767-1.259,2.373-2.156c0.607-0.896,1.048-1.904,1.325-3.026 c0.277-1.119,0.415-2.274,0.415-3.461c0-1.239-0.138-2.438-0.415-3.601c-0.277-1.159-0.718-2.194-1.325-3.104 c-0.606-0.911-1.398-1.636-2.373-2.176c-0.977-0.541-2.164-0.812-3.561-0.812c-1.398,0-2.585,0.271-3.561,0.812 c-0.977,0.54-1.767,1.265-2.374,2.176c-0.607,0.91-1.049,1.945-1.325,3.104c-0.277,1.162-0.416,2.361-0.416,3.601 c0,1.187,0.139,2.342,0.416,3.461C206.248,420.898,206.689,421.907,207.297,422.803z"></path><path fill="#FFFFFF" d="M150.963,444.265c-0.501-0.303-1.082-0.445-1.74-0.553c-0.659-0.104-1.346-0.096-2.058-0.096h-5.221v8 h5.221c0.712,0,1.398,0.119,2.058,0.014c0.658-0.105,1.239-0.225,1.74-0.527s0.903-0.689,1.206-1.243s0.456-1.258,0.456-2.154 c0-0.896-0.153-1.611-0.456-2.165S151.464,444.568,150.963,444.265z"></path><polygon fill="#FFFFFF" points="201.956,445.616 201.878,445.616 198.198,455.616 205.517,455.616"></polygon><path fill="#FFFFFF" d="M150.29,498.847c0.343-0.047,0.673-0.142,0.989-0.285l-2.65-2.412l2.888-3.086l3.205,2.928 c0.527-0.713,0.949-1.595,1.266-2.65c0.316-1.055,0.475-2.335,0.475-3.838c0-1.239-0.139-2.439-0.415-3.6 c-0.277-1.161-0.719-2.196-1.325-3.106c-0.607-0.909-1.398-1.634-2.374-2.175s-2.162-0.812-3.561-0.812 c-1.397,0-2.585,0.271-3.561,0.811c-0.976,0.539-1.767,1.263-2.373,2.17c-0.607,0.908-1.049,1.94-1.325,3.1 c-0.277,1.159-0.416,2.355-0.416,3.592c0,1.185,0.139,2.337,0.416,3.455c0.276,1.119,0.718,2.125,1.325,3.02 c0.606,0.896,1.397,1.612,2.373,2.152c0.976,0.539,2.163,0.81,3.561,0.81C149.445,498.919,149.947,498.895,150.29,498.847z"></path><path fill="#FFFFFF" d="M272.048,430.63l-1.401-0.589l0.476,0.125l0.926,0.353c0.013-0.033,0.021-0.066,0.032-0.1l0.008,0.002 c0.694-1.877,1.012-3.955,1.013-6.071c-0.002-3.306-0.761-6.753-2.155-9.801c-1.38-3-3.385-5.642-6.016-7.318l0.001-0.001 c-2.292-1.727-4.901-2.347-7.464-2.34c-2.122,0.004-4.241,0.4-6.319,0.917c0.108,0.171,0.222,0.396,0.319,0.577 c0.618,1.148,0.93,2.232,0.93,4.232h-6.014c-0.053-1-0.231-1.602-0.534-2.154c-0.202-0.369-0.465-0.627-0.755-0.891 c-1.847,0.494-3.599,1.045-5.169,1.045h-0.088c-0.893,0-1.729,0.096-2.523,0.096c-0.234,0-0.457-0.05-0.685-0.059 c-0.063,0.246-0.097,0.498-0.097,0.796c0,0.554,0.105,0.994,0.316,1.337s0.626,0.654,1.247,0.944 c0.618,0.29,1.477,0.578,2.57,0.868c1.095,0.291,2.525,0.658,4.292,1.106c0.528,0.105,1.26,0.297,2.196,0.574 c0.936,0.277,1.866,0.718,2.789,1.324s1.721,1.418,2.394,2.433c0.673,1.016,1.009,2.314,1.009,3.896 c0,1.293-0.252,2.493-0.751,3.601c-0.502,1.107-1.247,2.064-2.235,2.868c-0.989,0.805-2.216,1.431-3.68,1.879 s-3.158,0.672-5.084,0.672c-1.556,0-3.065-0.19-4.529-0.573c-1.464-0.382-2.757-0.981-3.876-1.799 c-1.122-0.817-2.012-2.024-2.671-3.29c-0.66-1.266-0.977-2.674-0.95-4.674h6.014c0,1,0.171,1.918,0.515,2.578 c0.342,0.658,0.797,1.274,1.364,1.683c0.567,0.41,1.232,0.754,1.998,0.951c0.765,0.198,1.556,0.317,2.373,0.317 c0.555,0,1.147-0.034,1.781-0.128c0.632-0.092,1.226-0.266,1.779-0.529c0.555-0.263,1.016-0.624,1.385-1.085 c0.369-0.462,0.555-1.047,0.555-1.759c0-0.765-0.245-1.385-0.732-1.859c-0.488-0.476-1.128-0.87-1.918-1.186 c-0.792-0.317-1.688-0.594-2.69-0.831c-1.003-0.238-2.018-0.501-3.047-0.791c-1.055-0.264-2.084-0.587-3.085-0.97 c-1.003-0.382-1.899-0.876-2.69-1.483c-0.792-0.607-1.431-1.365-1.919-2.274c-0.488-0.91-0.731-2.012-0.731-3.305 c0-0.924,0.14-1.761,0.391-2.529c-0.737-0.278-1.473-0.593-2.223-0.942c-2.768-1.29-5.696-3.021-9.454-4.534l-0.063-0.024 c-2.74-0.96-5.154-1.374-7.401-1.373c-2.933-0.001-5.543,0.699-8.197,1.63c-2.068,0.727-4.627,1.593-6.627,2.442v3.002h-14v6h12v5 h-12v12h-6v-26.462c-1-0.569-2.488-1.257-3.48-2.055l-0.007-0.037c-2.091-1.541-3.905-3.271-5.884-4.986 c-1.979-1.713-4.097-3.41-6.758-4.791c-1.968-1.021-3.774-1.71-5.54-2.301c-1.768-0.592-3.481-1.088-5.316-1.73l-0.077-0.025 c-3.503-1.011-7.662-1.887-11.854-1.889c-2.141,0-4.293,0.23-6.367,0.808c-2.073,0.576-4.068,1.504-5.853,2.889 c-3.178,2.467-5.034,5.883-6.307,9.415c-0.053,0.146-0.082,0.299-0.088,0.453c-0.485,12.887-4.285,24.966-13.167,34.863 c-2.809,3.13-5.954,6.044-8.947,9.226c-1.204,1.283-2.544,2.666-3.625,4.295c-1.076,1.621-1.898,3.545-1.896,5.775 c0,0.234,0.009,0.474,0.028,0.716c0.125,1.638,0.57,3.124,1.245,4.438c1.014,1.975,2.521,3.553,4.2,4.864 c1.683,1.313,3.55,2.374,5.365,3.312c4.706,2.424,9.647,4.26,13.979,6.787c0.366,0.212,0.804,0.261,1.207,0.133l0.216-0.068 c-0.225-0.275-0.448-0.56-0.669-0.863l1.214-0.882l0.452,1.43l-0.997,0.315c0.792,0.971,1.613,1.779,2.485,2.471 c1.118,0.887,2.304,1.583,3.599,2.255c-0.032-0.02-0.064-0.035-0.097-0.055l0.791-1.274l-0.69,1.331 c-0.002-0.001-0.003-0.002-0.004-0.002c1.696,1.033,3.434,1.696,4.961,2.456c1.548,0.768,2.856,1.603,3.891,2.916 c-0.015-0.023-0.024-0.045-0.04-0.068l1.261-0.812l-1.185,0.92c-0.011-0.015-0.024-0.025-0.036-0.039 c0.907,1.419,1.448,2.641,1.996,3.879c0.104-1.625,0.398-3.158,0.9-4.594c0.633-1.806,1.543-3.383,2.73-4.728 c1.186-1.345,2.644-2.399,4.371-3.165c1.727-0.764,3.672-1.147,5.835-1.147c2.188,0,4.141,0.384,5.855,1.147 c1.714,0.766,3.165,1.82,4.351,3.165c1.188,1.345,2.098,2.922,2.73,4.728c0.633,1.808,0.949,3.766,0.949,5.875 c0,2.057-0.316,3.969-0.949,5.736c-0.633,1.767-1.543,3.322-2.73,4.668l3.521,3.204l-2.888,3.008l-3.995-3.601 c-1.873,1.081-4.154,1.622-6.845,1.622c-0.812,0-1.582-0.07-2.332-0.177c0.184,0.358,0.367,0.717,0.521,1.089 c-0.002-0.005-0.004-0.012-0.006-0.018l1.401-0.536l-1.388,0.57c-0.002-0.006-0.006-0.011-0.008-0.017 c0.532,1.387,0.82,3.043,1.188,4.889c0.374,1.851,0.843,3.892,1.848,5.981l0.038,0.074c1.335,2.421,3.104,4.363,5.065,6.015 c2.946,2.476,6.323,4.327,9.54,6.268c3.221,1.937,6.271,3.952,8.654,6.636l0.045,0.048c1.725,1.779,2.842,3.624,3.638,5.582 c1.19,2.933,1.627,6.155,2.082,9.617c0.461,3.456,0.947,7.147,2.39,10.922l0.05,0.114c1.617,3.355,3.716,6.408,6.341,8.674 c2.615,2.263,5.817,3.73,9.433,3.726c1.335,0.001,2.718-0.197,4.132-0.609c2.325-0.677,4.287-1.939,5.962-3.493 c2.516-2.337,4.438-5.321,6.228-8.264c1.771-2.924,3.416-5.814,5.21-7.995c-0.026,0.025-0.051,0.052-0.077,0.077l-1.045-1.076 l1.157,0.954c-0.012,0.015-0.023,0.03-0.035,0.045c3.252-3.167,5.772-6.417,7.485-10.12c1.729-3.733,2.615-7.899,2.688-12.795 c0.005-0.326,0.007-0.645,0.007-0.957c-0.001-3.254-0.238-5.827-0.235-7.998c0.003-2.135,0.21-3.844,0.994-5.664 c0.788-1.82,2.205-3.815,4.789-6.323c1.133-1.1,2.044-2.021,2.794-2.905c1.106-1.297,1.868-2.578,2.294-4.059 c-0.728,0.417-1.536,0.773-2.448,1.053c-1.464,0.448-3.159,0.673-5.084,0.673c-1.556,0-3.065-0.192-4.529-0.573 c-1.464-0.383-2.756-0.982-3.877-1.801c-1.121-0.817-2.012-1.617-2.671-2.883s-0.976-3.268-0.949-4.268h6.014 c0,0,0.171,1.512,0.515,2.17c0.342,0.66,0.797,1.073,1.364,1.482c0.566,0.408,1.232,0.65,1.998,0.85 c0.765,0.197,1.557,0.266,2.373,0.266c0.555,0,1.147-0.061,1.78-0.154c0.633-0.092,1.228-0.276,1.78-0.541 c0.555-0.264,1.016-0.63,1.385-1.092c0.369-0.461,0.554-1.051,0.554-1.762c0-0.766-0.244-1.386-0.73-1.86 c-0.489-0.475-1.128-0.87-1.919-1.188c-0.792-0.316-1.688-0.593-2.691-0.83c-1.002-0.237-2.018-0.501-3.046-0.792 c-1.056-0.263-2.084-0.586-3.085-0.969c-1.003-0.383-1.899-0.877-2.69-1.484c-0.792-0.605-1.431-1.364-1.919-2.274 c-0.489-0.909-0.732-2.01-0.732-3.303c0-1.45,0.31-2.71,0.931-3.777c0.619-1.069,1.43-1.959,2.432-2.671 c1.003-0.713,2.137-1.239,3.402-1.583c1.267-0.342,2.532-0.515,3.799-0.515c1.477,0,2.895,0.165,4.253,0.494 c1.357,0.331,2.564,0.865,3.619,1.604s1.893,1.646,2.513,2.792c0.619,1.148,0.93,2.139,0.93,4.139h-6.014 c-0.053-1-0.231-1.508-0.534-2.061c-0.303-0.555-0.705-0.972-1.206-1.288c-0.501-0.315-1.075-0.531-1.721-0.664 c-0.647-0.131-1.353-0.193-2.117-0.193c-0.502,0-1.002,0.056-1.504,0.161c-0.501,0.105-0.955,0.291-1.364,0.554 c-0.409,0.266-0.746,0.595-1.009,0.99c-0.264,0.395-0.396,0.898-0.396,1.504c0,0.554,0.105,1.002,0.316,1.346 c0.211,0.343,0.627,0.659,1.246,0.948c0.619,0.291,1.478,0.581,2.572,0.871c1.093,0.29,2.524,0.66,4.292,1.108 c0.527,0.104,1.259,0.296,2.195,0.572c0.936,0.277,1.866,0.72,2.789,1.326c0.118,0.078,0.229,0.169,0.343,0.253 c0.341-1.121,0.854-2.094,1.676-2.894l0.055-0.056c1.302-1.403,2.799-2.438,4.383-3.375c1.187-0.702,2.418-1.346,3.626-2.055 c1.804-1.063,3.588-2.29,4.937-4.167c1.353-1.874,2.171-4.346,2.212-7.586c0.001-0.099,0.002-0.195,0.002-0.292 c-0.002-3.698-1.053-6.866-2.023-9.796c-0.982-2.937-1.875-5.634-1.871-8.473c0.001-1.033,0.116-2.091,0.39-3.21 c0.586-2.025,1.628-3.35,3.037-4.488c1.06-0.85,2.337-1.562,3.717-2.248c2.067-1.035,4.36-1.996,6.426-3.466 c1.031-0.736,2.004-1.498,2.825-2.576c0.822-1.077,1.485-2.747,1.908-3.747h-0.002 C272.073,430.616,272.063,430.589,272.048,430.63z M200.294,410.44c0.634-1.807,1.544-3.383,2.73-4.727 c1.187-1.347,2.644-2.4,4.371-3.166c1.728-0.765,3.673-1.147,5.836-1.147c2.188,0,4.14,0.383,5.854,1.147 c1.714,0.766,3.165,1.819,4.352,3.166c1.187,1.344,2.097,2.92,2.729,4.727s0.95,3.766,0.95,5.875c0,2.057-0.317,3.976-0.95,5.756 s-1.543,3.33-2.729,4.648c-1.187,1.32-2.638,2.354-4.352,3.105c-1.715,0.752-3.666,1.127-5.854,1.127 c-2.163,0-4.108-0.375-5.836-1.127c-1.728-0.751-3.185-1.785-4.371-3.105c-1.187-1.318-2.097-2.868-2.73-4.648 c-0.633-1.78-0.948-3.699-0.948-5.756C199.346,414.206,199.661,412.247,200.294,410.44z M135.944,401.616h6v29h-6V401.616z M158.104,451.069c-0.355,1.095-0.923,2.064-1.701,2.908c-0.777,0.844-1.786,1.439-3.025,1.953 c-1.24,0.514-2.744,0.686-4.511,0.686h-6.922v10h-6v-28h12.922c1.767,0,3.271,0.283,4.511,0.797 c1.239,0.515,2.248,1.207,3.025,2.051c0.778,0.844,1.346,1.812,1.701,2.895c0.356,1.082,0.534,2.205,0.534,3.365 C158.638,448.858,158.46,449.976,158.104,451.069z M153.692,411.616h0.252v19h-6v-29h6.025l11.789,19h0.186v-19h6v29h-6.502 L153.692,411.616z M162.944,466.616v-28h14.802c1.266,0,2.405,0.23,3.422,0.639c1.015,0.409,1.885,0.981,2.61,1.694 c0.726,0.712,1.279,1.542,1.662,2.478c0.381,0.938,0.573,1.949,0.573,3.031c0,1.661-0.151,3.101-0.849,4.312 c-0.699,1.215-2.221,2.139-3.221,2.771v0.079c0,0.211,1.195,0.534,1.697,0.97c0.502,0.435,0.811,0.949,1.127,1.543 s0.496,1.246,0.642,1.958c0.146,0.711,0.22,1.425,0.272,2.137c0.025,0.448,0.04,0.976,0.066,1.581 c0.026,0.607,0.066,1.228,0.132,1.86s0.169,1.083,0.314,1.651c0.144,0.566,0.358,1.295,0.649,1.295h-6.211 c-0.344-1-0.555-1.816-0.634-3.057c-0.079-1.238-0.197-2.351-0.355-3.484c-0.211-1.477-0.659-2.651-1.346-3.338 c-0.686-0.685-1.807-1.121-3.362-1.121h-5.992v11H162.944z M190.944,492.826c0,3.824-1.102,6.666-3.238,8.524 c-2.135,1.86-5.105,2.79-8.877,2.79c-3.824,0-6.713-0.923-8.81-2.77s-3.075-4.694-3.075-8.545v-17.21h6v17.21 c0,0.765,0.094,1.517,0.227,2.255c0.129,0.738,0.42,1.391,0.843,1.958c0.421,0.568,1.016,1.028,1.768,1.385 c0.751,0.356,1.764,0.533,3.029,0.533c2.216,0,3.884-0.494,4.729-1.482c0.844-0.989,1.405-2.538,1.405-4.648v-17.21h6V492.826z M188.109,466.616l10.682-28h6.37l10.562,28h-6.449l-2.136-6h-10.562l-2.216,6H188.109z M217.944,503.616h-22v-28h21v5h-15v6h14v5 h-14v7h16V503.616z M235.944,443.616h-9v23h-6v-23h-9v-5h24V443.616z M244.944,466.616h-6v-28h6V466.616z"></path><path fill="#FFFFFF" d="M178.734,450.581c0.712-0.634,1.068-1.705,1.068-3.127c0-1.373-0.356-2.328-1.068-2.949 c-0.712-0.618-1.78-0.889-3.205-0.889h-6.585v8h6.585C176.954,451.616,178.022,451.214,178.734,450.581z"></path></g></g><g id="contact"><g><path fill="#FFFFFF" d="M73.005,546.849c0.896,1.324,2.064,2.387,3.507,3.185c1.44,0.799,3.193,1.197,5.259,1.197 c2.063,0,3.816-0.398,5.259-1.197c1.441-0.798,2.609-1.86,3.507-3.185c0.895-1.323,1.548-2.813,1.957-4.471 c0.408-1.655,0.613-3.359,0.613-5.112c0-1.831-0.205-3.603-0.613-5.317c-0.409-1.715-1.062-3.243-1.957-4.587 c-0.897-1.345-2.065-2.416-3.507-3.215c-1.442-0.798-3.195-1.198-5.259-1.198c-2.065,0-3.818,0.4-5.259,1.198 c-1.442,0.799-2.611,1.87-3.507,3.215c-0.896,1.344-1.548,2.872-1.957,4.587s-0.614,3.486-0.614,5.317 c0,1.753,0.205,3.457,0.614,5.112C71.457,544.035,72.108,545.525,73.005,546.849z"></path><path fill="#FFFFFF" d="M142.944,577.616h-13v-7h34.013c-0.556-1-1.104-1.575-1.629-2.28c-2.06-2.763-3.732-5.621-4.307-8.922 c0.002,0.02,0.004-0.004,0.006,0.016l-1.491,0.144l1.479-0.265c0.002,0.011,0.005,0.016,0.007,0.026 c-0.259-2.375-0.377-4.513-0.539-6.52c-0.245-3.028-0.585-5.804-1.755-8.536c-1.165-2.725-3.15-5.311-6.432-7.969 c0.019,0.017,0.038,0.03,0.056,0.047l-1.03,1.091l1.031-1.165c-1.691-1.577-3.408-2.883-5.408-4.069v25.402h-9.35l-17.355-28 h-0.295v28h-8v-41h8.704l17.415,28h-0.119V527.32c-1-1.023-3.217-2.098-4.641-3.315c-1.754-1.498-3.163-3.196-4.246-5.301 l-0.007-0.065c-1.624-2.792-2.31-6.132-2.936-9.636c-0.636-3.497-1.183-7.147-2.788-10.497l-0.035-0.074 c-2.473-4.493-5.369-7.488-8.605-9.845c-3.238-2.361-6.772-4.109-10.669-6.286c-1.771-0.989-3.261-2.334-4.644-3.906 c-2.074-2.354-3.873-5.212-5.997-7.916c-2.105-2.675-4.577-5.224-8.045-6.795l-0.689,1.331l0.611-1.37 c0.027,0.012,0.052,0.027,0.078,0.039l0.001-0.001c-2.383-1.238-4.651-1.797-6.796-1.794c-3.055,0-5.759,1.109-8.262,2.592 c-2.504,1.484-4.862,3.354-7.325,5.088c0.002-0.001,0.003-0.002,0.005-0.003l0.842,1.242l-0.864-1.227 c0.006-0.004,0.012-0.009,0.018-0.013c-1.377,0.932-2.766,1.484-4.229,1.849c-2.193,0.546-4.565,0.631-7.105,0.838 c-2.516,0.208-5.21,0.554-7.96,1.74l0.536,1.401l-0.601-1.375c0.021-0.01,0.043-0.017,0.064-0.026 c-2.403,0.92-4.253,1.843-5.922,2.591c-1.672,0.751-3.147,1.326-4.929,1.659c-0.215,0.04-0.432,0.134-0.608,0.263 c-1.171,0.854-2.344,1.723-3.503,2.631c-1.049,0.821-2.051,1.675-2.988,2.576c-0.25,0.24-0.411,0.567-0.45,0.912 c-0.283,2.52-1.142,5.028-2.288,8.291c-0.947,2.703-1.345,5.078-1.344,7.272c-0.001,2.79,0.637,5.243,1.443,7.698 c0.804,2.445,1.772,4.919,2.574,7.883c-0.003-0.015-0.005-0.03-0.008-0.045l1.472-0.292l-1.448,0.391 c-0.005-0.019-0.011-0.035-0.016-0.054c0.318,1.618,0.454,3.215,0.454,4.805c0.001,0.492-0.033,0.982-0.057,1.474 c0.121-0.146,0.229-0.303,0.354-0.445c1.753-1.986,3.905-3.545,6.457-4.675c2.551-1.129,5.425-1.694,8.619-1.694 c2.299,0,4.471,0.332,6.516,0.993c2.045,0.663,3.876,1.628,5.493,2.893c1.616,1.267,2.95,3.016,4.002,4.886 c1.053,1.87,1.714,3.609,1.987,6.609h-8.882c-0.156-1-0.507-2.197-1.052-3.073c-0.546-0.877-1.228-1.737-2.045-2.399 c-0.818-0.662-1.745-1.223-2.776-1.594c-1.032-0.371-2.113-0.579-3.243-0.579c-2.065,0-3.818,0.39-5.259,1.188 c-1.441,0.799-2.61,1.864-3.507,3.209c-0.896,1.344-1.548,2.869-1.957,4.584s-0.613,3.484-0.613,5.315 c0,1.753,0.204,3.457,0.613,5.112c0.409,1.657,1.062,3.146,1.957,4.47c0.896,1.324,2.065,2.387,3.507,3.185 c1.44,0.799,3.193,1.197,5.259,1.197c2.805,0,4.996-0.988,6.574-2.703c1.577-1.714,2.542-3.911,2.893-6.911h8.882 c-0.233,3-0.838,5.1-1.811,7.203c-0.976,2.104-2.26,3.962-3.857,5.443c-1.599,1.48-3.468,2.643-5.61,3.422 c-2.143,0.778-4.499,1.185-7.07,1.185c-3.194,0-6.068-0.546-8.619-1.657c-2.552-1.109-4.704-2.634-6.457-4.582 c-0.957-1.063-1.781-2.236-2.494-3.503c0.561,1.543,1.225,2.989,1.846,4.373c1.445,3.213,2.199,6.152,3.199,9.683v0.008 c0,0.444-0.154,1.05-0.154,1.481c-0.001,2.027-0.329,3.944-0.848,5.944h26.002v7h-13v34h-9v-34H21.85 c-0.807,2-1.662,3.504-2.482,5.234l1.28,0.815l-1.362-0.594c0.003-0.007,0.004,0.011,0.007,0.004 c-2.213,3.974-3.29,7.409-3.287,10.867c0.003,3.568,1.117,7.029,2.933,11.135l1.387-0.567l-1.371,0.609 c-0.006-0.012-0.011-0.024-0.017-0.037c0.879,2.136,1.735,4.076,2.355,5.941c0.622,1.867,0.832,3.648,0.834,5.525l-0.182,0.207 v-0.003c0,1.666-0.146,3.585-0.482,5.562c-0.325,1.939-0.517,3.936-0.518,5.893l1.479,0.147l-1.508-0.022 c0.002-0.038,0.002-0.076,0.003-0.114c-0.151,1.551-0.255,3.117-0.255,4.674c0.001,2.971,0.362,5.921,1.474,8.647 c1.093,2.694,2.956,5.145,5.784,7.024l0.917-1.187l-0.824,1.252c1.712,1.307,3.54,2.197,5.407,2.747 c1.901,0.561,3.838,0.778,5.756,0.778c4.877-0.007,9.659-1.382,13.724-2.33c-0.015,0.002-0.028,0.003-0.043,0.005l-0.225-1.483 l0.342,1.461c-0.024,0.006-0.05,0.012-0.074,0.018c1.246-0.187,2.458-0.264,3.652-0.264c2.384,0,4.702,0.303,7.062,0.62 c2.359,0.315,4.76,0.646,7.286,0.646c0.643,0,1.292-0.022,1.951-0.071l-0.084-1.497l0.113,1.495 c4.679-0.274,8.637-2.377,12.133-4.919c3.508-2.554,6.621-5.577,9.618-7.897l0.125-0.109c1.585-1.54,2.809-2.867,4.079-3.891 c1.23-0.987,2.492-1.727,4.323-2.253c2.416,0.05,4.944,0.259,7.599,0.263c1.04,0,2.103-0.424,3.179-0.44l0.021-1.278l0.224,1.54 c-0.003,0-0.006,0.002-0.008,0.002l-0.216-1.429l-0.019,1.273c0.027,0,0.053,0,0.08,0c0.053,0-0.062,0.196-0.071,0.205 c0.01,0.005,0.327,0.012,0.427,0.012c2.914,0,5.463-0.346,7.668-1.035c3.312-1.029,5.965-2.816,8.383-5.077 c2.425-2.264,4.701-4.994,7.437-8.087l0.021-0.015c1.539-1.792,2.731-3.081,4.032-4.202c0.669-0.577,1.379-0.801,2.193-1.801 h-1.163V577.616z M62.661,528.588c0.937-2.668,2.28-4.997,4.033-6.983s3.904-3.545,6.456-4.675 c2.552-1.129,5.425-1.694,8.62-1.694c3.233,0,6.115,0.565,8.648,1.694c2.531,1.13,4.674,2.688,6.427,4.675 s3.098,4.315,4.033,6.983c0.935,2.669,1.401,5.561,1.401,8.678c0,3.039-0.467,5.872-1.401,8.501 c-0.936,2.631-2.28,4.92-4.033,6.867c-1.753,1.948-3.896,3.478-6.427,4.587c-2.533,1.11-5.415,1.665-8.648,1.665 c-3.195,0-6.068-0.555-8.62-1.665c-2.552-1.109-4.703-2.639-6.456-4.587c-1.753-1.947-3.097-4.236-4.033-6.867 c-0.935-2.629-1.401-5.462-1.401-8.501C61.26,534.148,61.727,531.257,62.661,528.588z M76.979,611.616l-3.156-9H58.221l-3.272,9 h-9.232l15.777-41h9.408l15.602,41H76.979z M125.362,602.845c-0.975,2.105-2.26,3.977-3.856,5.457 c-1.599,1.48-3.468,2.649-5.61,3.428s-4.499,1.189-7.07,1.189c-3.194,0-6.068-0.546-8.619-1.656 c-2.553-1.109-4.704-2.634-6.457-4.582c-1.753-1.947-3.097-4.234-4.032-6.863c-0.935-2.629-1.402-5.462-1.402-8.501 c0-3.116,0.468-6.009,1.402-8.677c0.936-2.668,2.279-4.996,4.032-6.982s3.904-3.545,6.457-4.676 c2.551-1.129,5.425-1.693,8.619-1.693c2.299,0,4.47,0.331,6.516,0.992c2.045,0.664,3.876,1.628,5.493,2.893 c1.616,1.268,2.95,2.99,4.002,4.861c1.053,1.869,1.714,3.582,1.987,6.582h-8.883c-0.155-1-0.506-2.172-1.051-3.047 c-0.546-0.877-1.228-1.724-2.046-2.387c-0.817-0.662-1.744-1.217-2.775-1.588c-1.033-0.37-2.114-0.574-3.243-0.574 c-2.065,0-3.818,0.39-5.259,1.188c-1.441,0.8-2.611,1.866-3.507,3.21s-1.548,2.87-1.957,4.585s-0.614,3.485-0.614,5.315 c0,1.753,0.205,3.458,0.614,5.113c0.409,1.656,1.062,3.146,1.957,4.47s2.065,2.386,3.507,3.184c1.44,0.8,3.193,1.198,5.259,1.198 c2.805,0,4.996-1.015,6.574-2.729c1.577-1.715,2.541-3.938,2.893-6.938h8.882C126.94,598.616,126.335,600.743,125.362,602.845z"></path><polygon fill="#FFFFFF" points="66.051,580.616 60.616,595.616 71.427,595.616 66.167,580.616"></polygon><path fill="#FFFFFF" d="M171.095,584.11l-0.007-0.104c-0.295-2.695-1.429-5.055-2.642-7.179c-1.256-2.191-2.502-4.149-4.502-6.062 v6.851h-12v30.838c2-0.642,3.629-1.25,5.316-2.225c3.777-1.843,7.182-4.928,9.709-8.555c2.543-3.656,4.164-8.033,4.167-12.52 C171.137,584.815,171.113,584.45,171.095,584.11z"></path></g></g></svg>