<svg version="1.2" baseProfile="tiny" xmlns="http://www.w3.org/2000/svg" viewBox="0 0 344.932 802.931"><g fill="none" stroke="#FFF" stroke-width="3" stroke-linecap="round" stroke-linejoin="round" stroke-miterlimit="10"><path d="M96.343 36.853l9.916-2.277 3.637 15.787-13.395 3.085m-17.779 4.095l-10.097 2.325 4.546 19.744 35.768-8.242 3.36 14.592L76.532 94.2l8.126 35.292-18.776 4.325-19.674-85.413 32.312-7.443M133.412 150.626l30.526-1.426.755 16.185-22.516 1.056m-13.437 72.141l-26.185 1.229-4.098-87.547 16.596-.78m34.579 69.908l18.62-.871.761 16.185-21.124.987M121.53 167.4l-3.062.144.875 18.759 42.426-1.982.701 14.964-42.426 1.981 1 21.459 11.279-.528M273.464 262.255c-.594.8-1.237 1.576-1.942 2.329-2.688 2.897-6.195 5.341-10.506 7.347-4.309 2.002-9.416 3.412-15.334 4.236-4.787.661-9.506.722-14.164.171-4.664-.552-8.894-1.842-12.687-3.875-3.797-2.033-6.972-4.858-9.54-8.464-2.57-3.612-4.182-8.1-4.852-13.452l18.483-2.567c.407 2.915 1.271 5.311 2.615 7.194 1.327 1.883 2.958 3.33 4.877 4.341 1.914 1.018 4.087 1.665 6.526 1.941 2.432.286 4.91.249 7.423-.099a38.31 38.31 0 0 0 5.413-1.186 19.29 19.29 0 0 0 5.244-2.403c.685-.45 1.308-.95 1.873-1.495m-6.574-16.319c-2.566-.633-5.44-1.104-8.621-1.403a225.441 225.441 0 0 1-9.699-1.134 84.277 84.277 0 0 1-9.9-1.658c-3.244-.745-6.209-1.883-8.896-3.414-2.692-1.524-4.983-3.582-6.87-6.169-1.89-2.587-3.108-5.873-3.66-9.843-.616-4.457-.208-8.46 1.242-12.008a26.218 26.218 0 0 1 6.335-9.244c2.781-2.618 6.044-4.723 9.781-6.32 3.754-1.59 7.566-2.66 11.461-3.2 4.535-.63 8.962-.729 13.277-.299 4.316.439 8.254 1.563 11.814 3.377 3.555 1.824 6.534 4.362 8.927 7.626 2.394 3.259 3.942 7.405 4.646 12.423l-18.48 2.567c-.523-2.567-1.371-4.641-2.54-6.213-1.171-1.576-2.592-2.741-4.269-3.5-1.672-.755-3.535-1.195-5.577-1.328-2.043-.133-4.238-.031-6.592.297a22.657 22.657 0 0 0-4.55 1.127 12.464 12.464 0 0 0-3.955 2.289 10.633 10.633 0 0 0-2.682 3.466c-.641 1.331-.828 2.924-.57 4.79.229 1.703.746 3.041 1.543 3.997.797.964 2.207 1.764 4.234 2.387 2.029.633 4.787 1.154 8.273 1.581 3.486.429 8.045.949 13.665 1.573 1.668.104 3.995.375 6.993.827 2.996.45 6.039 1.414 9.139 2.884 3.096 1.467 5.893 3.624 8.396 6.452 1.594 1.812 2.818 4.031 3.67 6.663M222.705 347.016l-4.853-15.954-25.134 7.643-4.715-15.497 68.702-20.901 4.719 15.501-25.133 7.644 7.701 25.312m5.638 18.536l7.455 24.506-18.438 5.611-8.666-28.474M299.637 370.332l-3.425 87.579-19.257-.75 3.422-87.582 19.26.753zM211.229 504.475l4.472-44.194 18.099 7.941-2.906 27.052m-2.175 20.239l-1.828 16.982.229.1 42.864-48.482 18.211 7.999-61.875 68.556-19.896-8.736 2.448-24.192M168.722 584.869l19.595-12.932 16.013 11.586-24.8 90.228-16.212-11.729 6.067-19.694-26.563-19.205-17.008 11.789-15.716-11.364 41.825-27.6m7.556 15.616l-4.16 2.869 18.405 13.3 9.89-32.532-.197-.144-9.878 6.81M108.791 717.456l15.789 2.379-2.413 16.021-20.629-3.108m-25.843-3.9l-14.824-2.232 13.063-86.669 19.056 2.877-10.648 70.643 7.412 1.116M266.661 533.062c3.304 12.139-4.051 24.387-12.624 31.734-9.796 7.348-26.94 11.025-24.489 25.723 3.674 13.473 19.594 13.473 30.617 9.796 4.896-2.444 9.8-4.896 13.47-8.573 7.347-4.896 18.37-9.798 25.718-1.223 9.803 13.473 1.229 29.394-8.574 41.639-2.45 2.447-6.119 6.124-11.022 6.124-13.469 1.227-26.944-2.451-39.188-9.801-8.571-4.896-23.273-7.346-24.492 6.122v8.574c1.226 3.678 3.669 6.124 6.121 8.572 11.025 6.119 25.718 3.676 31.841 14.693 4.901 12.253 0 25.726-9.797 34.298-3.673 3.668-8.571 4.896-12.245 7.342-1.227 1.229-3.678 1.229-4.896 1.229-2.451-1.229-6.125-1.229-8.576-2.452-8.571-7.349-19.594-20.824-30.619-11.017-3.672 12.243-4.896 25.715 4.902 35.513 2.45 1.229 4.898 2.447 6.938 4.091"/><path d="M168.215 611.048c1.021-9.302-2.385-19.543-9.91-25.406-4.315-3.367-9.667-4.756-15.054-5.12-5.592-.378-12.655-.743-18.111.6-6.899 1.688-10.968 5.968-15.811 10.812-4.038 4.034-7.572 7.768-13.706 7.4-7.871-.477-9.617-9.778-9.74-16.113-.171-9.002 1.391-21.582 8.493-27.748 8.033-6.976 18.405-4.014 27.495-1.179 11.96 3.721 33.179 11.985 42.924-.303 5.341-6.735 6.938-18.961 1.026-25.825-5.094-5.913-15.376-3.993-20.718-9.98-6.302-7.067-1.162-20.34 4.26-26.286 3.515-3.858 6.91-7.427 12.279-7.946 5.023-.485 10.769.359 14.218 4.625 2.158 2.667 2.828 6.81 4.635 9.847.813 1.379 2.251 2.839 2.817 4.313.512 1.335.09 2.771.627 4.096 2.35 5.829 11.215 9.032 16.856 9.363 15.062.885 26.212-13.311 41.243-13.956M98.425 672.521c10.776.375 11.62 8.538 11.25 17.687-.465 11.479-7.039 19.22-11.583 29.335-2.884 6.421-6.071 9.602-11.919 13.495-2.715 1.812-5.373 3.831-8.497 4.9-2.991 1.023-6.25.863-9.384 1.074-6.777.451-11.275-.167-16.85-4.174-4.989-3.588-10.263-4.698-15.845-1.539-8.19 4.634-9.152 13.811-7.085 22.069 1.193 4.753 2.937 7.425 7.468 9.545 4.32 2.021 8.699 4.801 10.428 9.508 1.962 5.362-.436 10.945 2.977 16.083 2.536 3.813 6.771 5.969 11.065 7.188 2.368.672 4.727.965 7.043 1.813 3.019 1.101 5.667 2.513 8.955 1.664 5.745-1.491 9.637-4.426 11.513-10.128 3.261-9.93-.066-24.333 12.621-27.993 5.211-1.501 9.688-.112 13.501 3.582 4.721 4.583 7.66 8.533 14.521 9.823 9.992 1.879 24.074 3.119 32.332-4.047 8.696-7.539 12.479-20.823 6.033-30.689-3.156-4.842-5.153-10.262-5.966-15.979-.779-5.496.521-11.048-.213-16.452-1.464-10.803-11.49-15.019-18.354-21.9-6.474-6.497-10.355-16.032-9.197-25.247 1.342-10.653 9.461-15.905 16.716-22.681M75.634 555c-4.078 7.348-11.428 12.249-20 13.473-14.696 1.226-40.415-4.898-39.19 17.146 0 3.673 2.451 7.348 4.899 9.799 4.901 2.447 8.573 6.125 14.694 4.896 4.897-1.224 9.8-2.449 14.698-2.449 2.448 0 4.9 1.229 7.345 2.449 7.352 4.898 6.127 14.696-1.222 19.598-6.123 3.677-12.248 4.898-19.598 6.124-2.451 1.225-6.127 2.448-8.569 6.124-2.452 3.673-3.679 9.8 1.224 12.244 6.122 2.455 17.146 7.351 12.247 15.924-8.574 3.675-23.268 13.472-14.694 23.271 7.349 7.341 18.373 6.117 27.625 2.488M144.21 208.001c-.438 1.757-1.244 3.429-1.487 5.223-3.15 23.113-4.447 53.824-36.124 52.823-12.992-.412-27.694-7.433-28.918-20.905 0-8.573 3.675-18.369 0-26.944-2.447-3.674-6.122-6.121-11.024-7.347-12.247 0-15.919 13.471-25.718 19.596-1.222 0-2.45 1.226-3.674 1.226-6.127-1.226-12.249-3.677-17.146-8.573-3.675-6.125-6.127-12.249-6.127-18.371 0-17.149 17.146-33.07 34.294-26.944 4.897 2.444 6.121 9.794 12.246 12.246 4.9 1.226 9.801 0 13.472-2.452 2.449-2.447 3.673-4.898 3.673-7.347v-8.574c-1.223-7.343-6.121-12.246-12.246-17.146-11.025-7.347-23.273-2.447-34.294-2.447-6.122 0-13.47-3.676-14.694-11.021-2.452-13.472 12.251-19.598 19.597-28.17 6.122-8.569 2.452-19.593-4.899-26.944-9.795-8.572-17.145-18.371-19.595-31.843-1.223-9.796 3.677-17.146 3.677-26.945 0-3.677 6.123-3.677 6.123-6.125C27.468 3.871 48.292-1.025 62.986 2.646c2.452 1.226 6.122 2.447 8.573 3.674 7.349 3.676 14.698 8.573 15.922 17.146 3.676 14.698 0 29.4-.473 44.363"/><path d="M89.166 98.726c1.084 1.709 1.376 3.591 2.667 5.271 1.44 1.879 3.229 3.5 5.206 4.79a21.624 21.624 0 0 0 12.227 3.473c11.132-.273 16.511-8.182 19.395-17.987 3.546-12.059 4.515-25.031 10.707-36.202 4.643-8.388 13.578-16.826 24.01-14.115 10.187 2.655 8.542 13.979 8.407 22.042-.074 4.382.818 8.988 6.171 8.702 4.386-.234 9.329-2.118 13.536.184 8.416 4.613 5.907 17.834 1.764 24.262-5.157 8.004-13.711 14.167-22.315 18.014-14.214 6.36-35.275 4.906-43.359 20.795-3.613 7.096-3.563 15.797-.06 22.924 2.783 5.655 7.472 10.286 11.255 15.266M212.186 283.594c-13.258 22.784-43.876 39.934-69.596 25.236-3.676-2.455-6.123-6.125-8.574-9.802-1.223-2.448-2.452-4.896-2.452-7.345-2.451-18.375 18.374-18.375 31.846-19.597 19.597-1.226 25.719-25.719 23.267-42.865-2.45-18.374-9.796-42.864 8.574-53.888 17.146-1.229 39.188 1.225 47.763-17.146 1.223-2.449 1.223-6.125 2.448-8.574V136.14c0-3.669-3.67-7.347-4.896-11.024-4.899-4.896-8.569-11.021-14.695-14.691-3.676-2.454-8.571-1.225-12.248-1.225-2.451 0-4.896 1.225-7.344 2.444-9.803 8.577-14.188 18.811-17.146 34.295-2.959 15.492-8.101 14.888-10.39 18.3M268.338 441.859c-4.504 1.689-9.4 4.141-14.303 2.919-9.801-3.678-15.92-14.701-25.713-17.146-18.374-7.352-22.045 20.819-31.848 31.841-7.348 6.124-17.146 8.572-26.943 4.896-7.35-3.673-9.797-12.247-11.025-19.59v-8.572c1.227-4.9 3.675-9.804 7.349-14.701 4.899-4.896 13.473-7.344 20.82-7.344 9.8-1.229 22.042-8.577 20.823-20.821 0-2.448-2.451-3.677-3.678-4.899-8.57-4.898-25.717-3.673-23.271-17.146 2.447-12.247 14.698-17.146 25.718-17.146 14.695 1.225 28.168 8.573 42.862 7.344 11.024-1.219 18.372-8.574 25.718-17.146 1.228-1.226 0-2.448 1.228-3.671 11.022-15.92 25.718 0 37.961 6.125 13.476 7.348 26.947-4.899 29.396-18.372v-15.923c-1.226-3.674-1.226-8.574-3.674-12.247-2.448-3.677-4.898-7.347-7.349-11.021-2.447-2.452-4.898-3.677-7.351-3.677h-3.67c-4.902 2.448-9.803 7.347-12.25 13.469 0 0-1.226 1.229-2.451 1.229-1.226 1.225-1.226 3.673-2.451 6.125-3.672 9.792-17.146 9.792-23.268 3.674-1.226-2.452-2.451-4.896-1.226-7.344 6.125-12.253 17.146-24.496 9.8-39.191-6.122-8.573-13.469-17.149-24.493-18.375-9.8-1.225-17.146 3.677-25.719 6.125-1.226 0-1.226 1.225-2.472 2.543M330.129 495.997c9.81-10.68 15.359-26.191 9.002-39.943-5.863-12.665-20.52-21.415-33.992-23.25M330.797 430.134c11.419-14.752 15.1-34.35 8.976-51.496-2.448-4.896-8.573-7.344-13.474-11.025-1.229 0-2.451 0-3.673-.402"/><path d="M319.155 451.062c-13.674 18.207-7.551 41.476 5.916 58.62 1.229 1.227 1.229 3.678 1.229 4.901 1.222 1.225 1.222 2.447 2.447 3.672 6.126 17.146-6.12 35.521-23.268 36.334l-5.135 1.339c-12.188-1.468-16.367-14.303-14.152-24.993 2.66-12.803 13.699-18.797 24.789-23.529"/></g></svg>