<?xml version="1.0" encoding="utf-8"?>
<!-- Generator: Adobe Illustrator 16.0.0, SVG Export Plug-In . SVG Version: 6.00 Build 0)  -->
<svg version="1.2" baseProfile="tiny" id="Calque_1"
	 xmlns="http://www.w3.org/2000/svg" xmlns:xlink="http://www.w3.org/1999/xlink" x="0px" y="0px" width="506.015px"
	 height="14.199px" viewBox="0 0 506.015 14.199" xml:space="preserve">
<g>
	<g>
		<path fill="none" stroke="#7E2D22" stroke-width="2" stroke-miterlimit="10" d="M505.885,11.254
			c-3.41,0.446-5.41,0.441-8.41,0.435c-2.998-1.007-2.99-5.007-4.988-6.012c-1.996-1.004-2.994-2.006-6-0.013
			c-4.006,2.991-7.016,6.984-11.01,4.976c-13.99-5.031-28.994-3.064-43.992-4.098c-3-0.007-4.992-3.012-7.99-4.018
			c-2.998-1.007-4.998-1.012-8.002,0.982c-4.006,1.99-7.016,6.984-11.01,3.975c-3.992-3.008-6.982-8.016-12.986-6.028
			c-3.002,0.993-5.006,2.989-8.01,3.982c-6-0.014-11.004,1.976-17.004,1.962c-4.002,0.991-7.996-2.018-11.996-2.026
			c-3-0.007-7.006,2.984-10.004,1.978c-3.996-2.009-8.986-6.02-13.988-5.031c-2.002,0.996-4.008,2.992-6.008,2.986
			c-16.004,1.965-32.002,0.93-48.004,1.895c-8.002,0.982-17.004,1.962-25.012,4.944c-5.002,0.989-8.993-3.021-12.988-5.029
			c-2.998-1.007-7.005,1.985-10.005,1.978c-5.002,0.989-7.993-3.018-12.995-2.028c-6.005,1.987-11.007,2.976-17.007,2.962
			c-2.002,0.996-5.005,1.989-7.007,2.984c-5.002,0.989-8.995-2.02-11.986-6.026c-3.994-3.009-9.007,2.979-13.012,4.972
			c-4.004,1.99-8.997-1.021-12.995-2.029c-14.991-4.033-30-0.066-43.987-6.098c-4.996-2.012-10.004,1.978-14.013,5.969
			c-2.002,0.996-5-0.012-5.998-1.014c-1.993-3.004-4.986-6.011-7.986-6.018C74.488,4.75,67.483,6.734,60.483,6.718
			c-2.001,0.996-4.006,2.992-6.006,2.987c-4.002,0.991-6.998-1.016-9.994-3.022c-3.995-2.009-6.006,2.986-10.006,2.979
			c-3.998-1.01-6.996-2.016-9.989-5.023C22.49,3.634,20.49,3.63,18.49,3.625c-3.002,0.993-5.004,1.989-7.007,2.984
			C7.717,6.601,3.95,7.162,0.182,7.86"/>
	</g>
</g>
</svg>
