<?xml version="1.0" encoding="utf-8"?>
<!-- Generator: Adobe Illustrator 16.0.0, SVG Export Plug-In . SVG Version: 6.00 Build 0)  -->
<svg version="1.2" baseProfile="tiny" id="Calque_1"
	 xmlns="http://www.w3.org/2000/svg" xmlns:xlink="http://www.w3.org/1999/xlink" x="0px" y="0px" width="336.464px"
	 height="799.555px" viewBox="0 0 336.464 799.555" xml:space="preserve">
<g>
	<path fill="none" stroke="#FFFFFF" stroke-width="3" stroke-linecap="round" stroke-linejoin="round" stroke-miterlimit="10" d="
		M228.486,45.634l0.32,55.357l0.203,0.068l32.584-44.378l22.376,7.465l-24.117,72.293l-14.886-4.961l17.096-51.236l-0.203-0.066
		l-34.814,45.321l-12.249-4.087l-0.794-56.638l-0.205-0.068l-16.925,50.726l-14.883-4.965l24.122-72.293L228.486,45.634z"/>
	<path fill="none" stroke="#FFFFFF" stroke-width="3" stroke-linecap="round" stroke-linejoin="round" stroke-miterlimit="10" d="
		M162.7,159.965l20.923-21.248l15.717,6.948l-4.742,81.228l-15.913-7.034l1.589-17.851l-26.066-11.521l-12.327,13.104l-15.426-6.818
		l22.241-22.585 M163.26,180.833l18.062,7.98l2.517-29.459l-0.196-0.086l-8.558,9.054"/>
	<path fill="none" stroke="#FFFFFF" stroke-width="3" stroke-linecap="round" stroke-linejoin="round" stroke-miterlimit="10" d="
		M94.488,238.915c2.136-2.562,4.534-4.771,7.19-6.63c3.963-2.779,8.452-4.621,13.466-5.533c5.015-0.912,10.36-0.684,16.03,0.685
		c3.805,0.919,7.351,2.378,10.639,4.38c3.287,2.002,6.096,4.458,8.434,7.365c2.333,2.908,4.044,6.213,5.127,9.913
		c1.082,3.701,1.32,7.715,0.721,12.032l-15.566-3.758c0.032-4.383-1.084-7.947-3.348-10.691c-2.266-2.742-5.37-4.592-9.312-5.543
		c-3.666-0.886-6.952-0.928-9.852-0.129c-2.901,0.799-5.437,2.199-7.604,4.203 M101.601,261.693
		c-0.751,3.113-1.118,6.225-1.104,9.34c0.017,3.115,0.537,6.043,1.559,8.777c1.024,2.736,2.642,5.123,4.861,7.159
		c2.215,2.037,5.156,3.497,8.826,4.381c5.394,1.304,9.889,0.945,13.492-1.076c3.599-2.022,6.268-5.57,8.005-10.642l-16.394-3.957
		l2.932-12.142l31.128,7.515l-9.674,40.051l-10.375-2.504l0.37-8.807c-3.808,3.034-7.653,4.868-11.541,5.505
		c-3.887,0.635-7.631,0.52-11.227-0.35c-5.673-1.37-10.539-3.589-14.59-6.654c-4.055-3.066-7.22-6.699-9.496-10.913
		c-2.279-4.209-3.684-8.851-4.217-13.92c-0.531-5.071-0.146-10.302,1.155-15.697"/>
	<path fill="none" stroke="#FFFFFF" stroke-width="3" stroke-linecap="round" stroke-linejoin="round" stroke-miterlimit="10" d="
		M122.615,357.796l12.098,43.156l-17.337-1.468l-4.311-17.402l-28.396-2.406l-7.39,16.407l-16.805-1.424l35.15-73.504l17.124,1.45
		l5.884,20.986 M105.555,352.548l-3.007-11.956l-0.211-0.018l-12.253,27.029l19.677,1.667l-1.934-7.689"/>
	<path fill="none" stroke="#FFFFFF" stroke-width="3" stroke-linecap="round" stroke-linejoin="round" stroke-miterlimit="10" d="
		M101.897,455.284l7.267-11.374 M100.766,457.053l1.131-1.77 M110.855,472.031l-9.958,15.583l41.606-5.349l1.796,13.969
		l-63.731,8.196l-1.688-13.128l14.162-22.16 M128.833,443.895l-10.091,15.793 M109.164,443.911l4.031-6.308l-37.372,4.804
		l-1.797-13.976l59.498-7.646l1.689,13.125l-6.378,9.982"/>
	<path fill="none" stroke="#FFFFFF" stroke-width="3" stroke-linecap="round" stroke-linejoin="round" stroke-miterlimit="10" d="
		M136.19,566.262l8.265,21.092l-13.91,5.453l-6.47-16.51 M117.421,559.32l-11.672-29.777l13.91-5.455l9.42,24.035"/>
	<path fill="none" stroke="#FFFFFF" stroke-width="3" stroke-linecap="round" stroke-linejoin="round" stroke-miterlimit="10" d="
		M153.243,657.136L130.6,621.09l14.098-8.858l54.131,26.375l0.183-0.113l-27.196-43.295l13.285-8.347l40.542,64.531l-14.191,8.919
		l-53.984-26.343l-0.181,0.112l13.836,22.022 M181.294,672.292l3.133,4.986l-13.287,8.344l-7.104-11.31"/>
	<path fill="none" stroke="#FFFFFF" stroke-width="3" stroke-linecap="round" stroke-linejoin="round" stroke-miterlimit="10" d="
		M251.119,709.189l21.687-17.023l8.04,10.244l-16.962,13.311 M222.082,714.497l-10.292-13.117l44.838-35.189l8.702,11.088
		l-31.655,24.839l4.259,5.43 M251.795,725.208l11.531,14.696l32.33-25.367l8.697,11.084l-45.512,35.713L233.3,728.788"/>
	<path fill="none" stroke="#FFFFFF" stroke-width="3" stroke-linecap="round" stroke-linejoin="round" stroke-miterlimit="10" d="
		M144.835,225.816c4.865-7.485,13.332-7.485,18.171-0.228c6.048,9.677,12.096,22.983,25.402,22.983
		c4.839,0,9.675,1.208,13.305-1.209c2.42-2.42,6.049-4.839,8.468-7.257c1.208-1.21,2.418,0,3.627-1.21
		c7.258-10.886,9.678-29.029,26.612-27.82c2.418,6.048,7.256,9.677,6.047,16.934c-1.208,6.048-4.839,9.677-6.047,15.726
		c0,7.258,2.418,14.515,1.208,21.773c-2.419,10.885-13.305,16.933-22.981,16.933c-9.679-1.208-19.354-4.838-30.239-3.628
		c-10.887,2.418-14.517,15.724-9.677,25.401c2.42,6.049,9.677,6.049,14.636,8.575"/>
	<path fill="none" stroke="#FFFFFF" stroke-width="3" stroke-linecap="round" stroke-linejoin="round" stroke-miterlimit="10" d="
		M176.31,174.965c-10.06,0.854-19.113-6.545-22.643-15.588c-2.198-5.632-1.549-11.726-1.549-17.653
		c0-6.251,3.372-10.504,5.302-16.212c2.016-5.966,0.772-11.968-2.454-17.262c-3.189-5.232-4.232-8.759-1.085-14.269
		c4.638-8.123,12.338-15.738,13.708-25.34c1.55-10.866-7.913-18.083-18.192-17.536c-5.07,0.271-12.323,4.169-15.625,7.901
		c-4.338,4.904-3.766,10.005-2.659,15.95c0.853,4.578,3.484,13.799,0.654,18.104c-1.513,2.301-7.147,3.347-9.834,4.374
		c-6.958,2.657-14.445,5.546-19.885,10.825c-5.493,5.331-7.111,13.157-4.08,20.29c3.308,7.781,14.071,4.958,20.717,5.731
		c9.147,1.066,12.387,10.958,10.76,19.038c-2.314,11.5-17.444,10.671-25.399,5.874c-7.4-4.462-13.826-15.13-23.554-11.16
		c-8.778,3.584-12.262,13.575-6.771,21.408c2.921,4.171,7.381,6.904,11.575,9.627c4.839,3.139,6.726,8.682,4.886,14.41
		c-1.358,4.23-6.209,7.556-10.394,8.302c-5.754,1.025-9.689-1.798-13.726-5.391c-9.331-8.305-18.05,0.042-23.811,7.883
		c-3.717,5.06-5.571,11.793-0.842,16.917c3.208,3.475,9.617,7.834,14.449,8.019c4.462,0.169,9.658-3.266,13.979-0.893
		c3.936,2.162,7.072,8.414,10.237,11.713c6.787,7.07,15.179,12.871,25.218,13.61c6.377,0.47,12.258-1.18,17.564-4.72"/>
	<path fill="none" stroke="#FFFFFF" stroke-width="3" stroke-linecap="round" stroke-linejoin="round" stroke-miterlimit="10" d="
		M313.373,33.499c5.67-8.702,4.461-19.588-2.797-26.846c-3.629-3.629-9.678-6.048-15.728-4.838
		c-8.465,2.419-16.932,8.467-26.608,7.257c-9.676-1.21-16.936-6.048-26.611-6.048c-3.628,1.21-6.048,3.629-8.467,6.048
		c-3.629,7.257,1.209,16.934,9.676,19.353c10.888,2.42,21.772,0,31.45,6.049c2.418,2.419,4.839,4.839,7.257,7.257
		c20.562,12.096,44.753,27.821,36.289,54.432c-1.211,3.628-3.629,7.257-7.258,9.677c-6.049,2.419-13.305,3.629-19.354,4.838
		c-3.629,1.21-4.838,7.257-2.418,10.886c4.838,4.839,13.306,3.629,18.144,9.678c2.42,2.418,0,6.047,1.209,8.467
		c3.629,4.838,7.258,9.676,9.678,14.515c2.418,8.467-3.629,16.934-3.629,25.401c0,1.209,0,3.629,1.209,4.839
		c7.256,7.257,10.885,18.145,7.256,27.82c-4.838,10.887-15.723,16.935-27.82,19.354c-4.838,1.21-9.676,0-13.305-2.419
		c-2.419-1.209-3.628-3.629-4.84-6.048c-2.418-3.629-2.418-8.467-1.207-12.096c1.207-2.419,3.628-3.628,4.837-6.048
		c1.21-1.21,2.421,0,3.628-1.21c3.629-2.418,7.256-7.257,6.049-12.095c-1.209-4.84-2.42-8.467-6.049-12.096
		c-4.837-7.257,2.42-14.515,1.211-21.772c-1.211-1.209-2.42-3.629-4.839-3.629c-10.888-2.419-15.725,7.258-18.144,15.725
		c0,3.629,0,7.258,0,10.887c0,2.419-1.209,4.838-2.419,6.047c-7.258,6.049-19.354,1.21-22.983-7.255
		c-4.839-9.676,3.629-22.982-6.048-31.45c-10.886-1.209-19.354,7.257-25.813,15.897"/>
	<path fill="none" stroke="#FFFFFF" stroke-width="3" stroke-linecap="round" stroke-linejoin="round" stroke-miterlimit="10" d="
		M82.726,420.295c-2.609-4.479-8.823-5.178-13.05-7.333c-1.82-0.926-2.539-1.347-4.458-1.445c-2.737-0.138-5.453,0.318-8.189-0.155
		c-2.197-0.385-2.923-0.729-4.945,0.099c-1.465,0.599-3.168,2.099-4.322,3.154c-3.907,3.579-3.616,9.973-9.182,12.104
		c-0.503,0.125-1.006,0.25-1.509,0.376c-0.875,0.2-1.453,0.705-1.732,1.524c-1.278,0.601-2.755,0.438-4.158,0.547
		c-1.038,0.077-2.056,0.278-3.083,0.418c-1.935,0.264-3.046-0.108-4.866-0.444c-2.075-0.379-4.223-1.531-6.213-2.627
		c-3.089-1.7-3.791-4.13-6.005-6.68c-4.585-5.279-4.559-11.269-4.674-17.951c-0.054-3.078,0.662-4.366,3.215-5.911
		c1.833-1.11,3.908-2.357,5.801-3.236c2.185-1.014,5.052-1.525,7.372-2.048c1.066-0.24,2.057,0.064,3.063-0.121
		c1.557-0.285,3.562-1.667,4.901-2.474c2.46-1.48,4.732-3.762,6.976-5.606c3.958-3.251,5.165-7.602,6.556-12.322
		c1.405-4.763,1.156-7.699-1.217-12.042c-1.417-2.596-3.676-4.048-6.087-5.665c-1.126-0.754-2.354-1.925-3.681-2.307
		c-0.605-0.192-1.221-0.254-1.848-0.184c-0.431,0.086-0.719,0.336-0.867,0.748c-1.458,0.112-2.408-0.955-3.748-1.36
		c-1.63-0.496-2.345,0.259-3.476,0.476c-4.31,0.827-8.616,1.42-12.301,4.161c-1.509,1.122-2.348,3.284-3.832,4.25
		c-0.876,0.335-1.769,0.628-2.673,0.882c-0.976,1.431-1.589,3.01-1.837,4.737c-0.714,2.382-1.148,5.831-1.157,7.215"/>
	<path fill="none" stroke="#FFFFFF" stroke-width="3" stroke-linecap="round" stroke-linejoin="round" stroke-miterlimit="10" d="
		M100.447,358.568c15.384-2.344,27.48-12.02,38.366-21.698c10.885-9.676,30.24-15.725,41.125-2.418
		c1.21,3.629,4.839,7.257,4.839,10.886c0,2.419,0,6.048,0,8.466c-1.211,4.839-3.628,9.678-7.257,12.096
		c-3.629,1.209-7.257,2.419-12.096,2.419c-9.678,0-10.887,13.305-6.049,19.354c10.886,14.516,20.562,33.869,9.676,49.595
		c-3.629,3.628-8.467,7.258-13.305,9.675c-3.629,2.42-6.049,1.208-9.676,3.629c-3.629,1.209-8.468,2.419-13.833,2.974"/>
	<path fill="none" stroke="#FFFFFF" stroke-width="3" stroke-linecap="round" stroke-linejoin="round" stroke-miterlimit="10" d="
		M24.974,249.638c1.123-1.509,4.94-1.028,6.543-0.825c1.259,0.16,1.426,0.284,2.723,0.825c1.461,0.612,2.351,0.468,3.726,0.783
		c4.325,0.998,8.987,3.001,12.982,4.888c1.575,0.743,2.762,2.237,3.98,3.439c1.771,1.747,3.792,4.003,4.92,6.291
		c0.835,1.693,1.67,3.748,2.169,5.551c0.478,1.732,0.45,3.42,1.006,5.179c0.672,2.133,0.515,3.989,0.988,6.084
		c0.562,2.479,1.018,3.873-0.122,6.449c-0.999,2.257-3.35,6.335-5.728,7.36c-2.425,1.044-5.469,1.697-8.105,1.757
		c-2.194,0.048-5.781,0.612-7.882-0.138c-1.274-0.453-1.951-1.692-3.273-2.17c-0.942-0.34-1.185-0.258-1.961-0.703
		c-0.791-0.454-1.422-1.349-2.253-1.708c-0.972-0.417-1.493-0.357-2.445-0.944c-1.732-1.066-1.883-1.671-4.033-1.638
		c-0.794,0.012-1.634,0.059-2.426,0.017c-1.234-0.067-2.072-0.775-3.242-0.893c-0.954-0.095-1.655,0.467-2.589,0.517
		c-1.417,0.075-2.357-0.542-3.864-0.306c-3.706,0.579-6.381,2.95-8.234,6.211c-1.907,3.354-1.455,7.679-1.501,11.495
		c-0.055,4.639,2.962,9.192,7.09,11.532c4.136,2.345,9.439,2.189,14.181,2.189c3.486,0,6.252-0.378,9.512-0.791
		c1.546-0.197,2.301-0.851,3.99-0.826c2.132,0.031,4.605-0.369,6.713-0.063c1.863,0.269,3.28,1.99,4.663,3.276
		c1.253,1.167,3.252,2.378,3.882,4.01c0.415,1.067,0.049,2.23,0.338,3.34c0.243,0.933,0.526,1.393,0.634,2.386
		c0.229,2.138,1.355,3.92,2.45,5.707c0.262,0.427,0.777,0.938,1.012,1.359c0.282,0.504,0.399,1.315,0.682,1.779
		c1.096,1.81,3,3.096,4.152,4.896c0.966,1.513,1.579,2.109,3.001,3.225c1.014,0.798,1.995,1.929,3.016,2.985"/>
	<g>
		<path fill="none" stroke="#FFFFFF" stroke-width="3" stroke-linecap="round" stroke-linejoin="round" stroke-miterlimit="10" d="
			M139.354,502.875c13.958,19.245,49.72,12.037,57.65-9.314c4.191-11.282-0.504-23.386-10.636-29.649
			c-2.045-1.266-4.505-2.455-6.876-2.921c-3.294-0.65-4.268,0.255-6.625,2.207c-4.26,3.523-7.59,6.055-8.501,11.994
			c-0.386,2.517-0.566,5.444-0.268,7.971c0.365,3.092,2.188,4.59,4.029,6.921"/>
		<path fill="none" stroke="#FFFFFF" stroke-width="3" stroke-linecap="round" stroke-linejoin="round" stroke-miterlimit="10" d="
			M60.048,496.561c-4.695,1.187-8.325,3.604-11.952,8.442c-1.21,1.209,0,2.418-1.21,3.629c-3.628,2.418-4.837,6.049-8.466,8.467
			c-3.628,2.421-7.257,2.421-10.886,1.21c-10.886-3.628-12.096-16.935-12.096-26.612c0-2.417,1.21-6.046,1.21-8.466
			c2.418-3.628,2.418-8.467,6.048-12.095c3.628-2.421,6.048-4.84,9.676-7.258c12.096-4.839,22.982,2.419,35.079,4.838
			c12.096,2.421,22.982-7.258,35.078-6.047c4.839,0,8.466-1.21,13.305,1.209c4.839,2.419,9.676,7.258,12.495,12.207"/>
	</g>
	<path fill="none" stroke="#FFFFFF" stroke-width="3" stroke-linecap="round" stroke-linejoin="round" stroke-miterlimit="10" d="
		M268.656,724.948c-10.093-8.265-22.189-9.477-34.285-8.265c-2.418,1.208-4.839,2.42-8.467,3.627
		c-6.047,2.422-9.678,7.259-14.516,12.097c-3.627,4.841-8.466,8.47-9.676,13.306c-6.048,12.098,7.256,21.771,14.515,31.449
		c3.63,4.84,10.888,4.84,15.727,8.467c4.838,2.423,9.676,2.423,14.515,3.629c4.839,0,9.676,1.21,13.306,0
		c12.096-4.838,21.771-12.096,32.658-20.562c1.209-1.209,1.209-2.419,2.418-3.629c2.421-3.626,7.259-3.626,10.888-4.839
		c9.678-2.419,15.725,8.468,13.307,16.935c-1.209,6.049-4.838,9.677-8.467,13.306c-2.422,2.419-4.84,3.629-7.258,4.838
		c-3.629,1.21-7.258,3.629-11.187,2.42"/>
	<path fill="none" stroke="#FFFFFF" stroke-width="3" stroke-linecap="round" stroke-linejoin="round" stroke-miterlimit="10" d="
		M313.633,559.048c4.121,6.521,4.812,16.129-0.637,22.16c-8.289,9.17-20.789,10.107-32.23,10.208
		c-12.729,0.116-22.775-8.062-32.463-15.444c-7.232-5.513-15.674-8.865-24.729-5.428c-10.265,3.896-13.272,15.861-6.758,24.742
		c4.859,6.625,14.134,8.31,18.794,15.226c2.927,4.342,2.778,8.593,1.713,13.493c-1.18,5.418-1.557,10.132,4.298,12.114
		c12.324,4.182,17.109-7.931,25.276-14.308c7.816-6.103,17.938-10.151,27.952-8.229c5.714,1.097,10.267,3.804,13.861,8.377
		c4.146,5.276,4.407,9.927,3.312,16.204c-0.801,4.602-4.525,10.105-8.613,12.474c-2.332,1.351-4.629,1.364-6.477,3.627
		c-1.317,1.61-2.258,3.901-2.69,5.925c-1.646,7.654,4.315,13.76,9.573,18.388c6.473,5.696,15.283,11.085,18.385,19.557
		c3.707,10.129-1.19,21.962-9.446,28.313"/>
	<path fill="none" stroke="#FFFFFF" stroke-width="3" stroke-linecap="round" stroke-linejoin="round" stroke-miterlimit="10" d="
		M86.502,524.086c-4.529,8.218-13.292,11.32-22.124,12.4c-8.413,1.026-18.358-0.68-26.25,2.781
		c-8.055,3.529-13.411,11.86-14.887,20.339c-0.78,4.476-0.514,9.184,1.028,13.479c1.917,5.347,6.188,7.844,11.488,9.474
		c5.951,1.833,12.658,1.254,18.144-1.776c4.899-2.708,5.037-7.735,7.175-12.383c1.041-2.264,2.45-4.312,4.7-5.499
		c2.839-1.501,5.683-0.578,8.696-1.04c4.928-0.757,10.275-5.366,15.269-4.777c5.482,0.646,8.069,7.054,8.056,11.953
		c-0.014,4.22-2.494,6.61-6.28,8.028c-4.431,1.659-8.082,1.086-10.819,5.574c-2.721,4.46,1.205,7.626-1.285,12.329
		c-2.102,3.97-6.148,6.675-10.316,8.092c-4.977,1.69-8.836,0.43-13.85-0.013c-9.154-0.807-17.038,9.572-14.482,18.386
		c1.311,4.52,6.606,7.135,9.989,10.036c4.004,3.438,8.916,4.703,14.169,4.101c2.458-0.281,5.206-1.121,7.365-2.348
		c2.281-1.301,3.73-3.604,6.048-4.84c4.459-2.382,8.352,0.167,8.361,4.947c0.013,7.358-0.529,15.433,3.709,21.916
		c4.621,7.072,14.292,6.72,19.91,0.931c7.263-7.479,6.482-20.114,2.395-28.849c-4.533-9.687-11.761-18.908-8.337-30.147
		c3.268-10.734,10.213-21.113,17.102-29.883c3.969-5.051,8.981-10.06,15.72-10.274c6.456-0.205,12.604,1.873,18.96,2.28
		c5.169,0.329,8.872-5.229,12.212-8.672c3.633-3.747,7.326-7.542,11.825-10.264c4.179-2.528,8.302-4.229,12.095-0.296
		c3.175,3.291,4.272,8.457,8.706,10.414c8.298,3.66,14.906-6.646,18.482-12.536c2.562-4.213,5.746-7.354,10.666-8.677
		c2.365-0.636,4.861-0.75,7.268-0.292c2.928,0.552,3.881,1.076,4.875,3.688c2.629,6.93,4.822,15.852,13.124,17.932
		c10.262,2.564,22.139-3.416,32.518-3.697"/>
	<path fill="none" stroke="#FFFFFF" stroke-width="3" stroke-linecap="round" stroke-linejoin="round" stroke-miterlimit="10" d="
		M85.287,685.193c0.06-0.238,0.121-0.479,0.181-0.714c0.764,0.068,0.626,0.593,1.219,0.941c0.589,0.342,1.174,0.401,1.778,0.721
		c2.351,1.237,3.966,2.357,6.545,3.099c4.929,1.409,11.589,2.554,16.813,1.661c1.547-0.269,3.507-1.183,4.958-1.795
		c2.075-0.884,4.748-1.852,6.552-3.082c3.153-2.15,6.716-4.621,9.539-7.35c2.733-2.638,6.986-5.327,10.341-7.283
		c1.972-1.15,4.066-1.511,6.117-2.39c0.668-0.284,0.938-0.635,1.63-0.99c1.663-0.853,3.1-1.021,4.776-1.412
		c2.08-0.486,3.441-0.848,5.693-0.836c1.599,0.008,3.198,0,4.798,0c1.895,0,3.79-0.031,5.684-0.003
		c2.248,0.032,4.213-0.669,6.503-0.784c1.93-0.099,3.645-0.771,5.602-0.828c2.587-0.072,5.09-0.184,7.567,0.591
		c4.843,1.501,8.917,5.573,11.583,9.797c2.46,3.893,2.748,8.805,2.75,13.266c0.001,2.323,0.143,3.966-0.799,6.103
		c-1.161,2.646-2.577,4.904-4.849,6.646c-1.548,1.187-3.346,2.126-4.66,3.441c-1.269,1.269-0.841,1.488-2.786,1.885
		c-1.492,0.306-2.816-0.049-4.335,0.524c-1.407,0.528-2.207,1.235-3.786,1.503c-1.699,0.289-3.596,0.306-5.343,0.588
		c-3.227,0.522-6.691,0.015-9.895-0.402c-2.614-0.342-4.91-0.646-7.262-1.645c-2.434-1.03-5.637-2.067-8.208-2.475
		c-1.771-0.285-2.978-1.207-4.773-0.986c-2.346,0.293-4.812-0.011-7.146,0.513c-2.858,0.642-5.179,1.96-7.469,3.764
		c-2.008,1.582-4.356,2.622-6.323,4.172c-2.084,1.644-3.814,6.437-4.175,9.159c-0.311,2.346-0.119,5.301,0.791,7.455
		c1.8,4.261,2.865,9.124,6.072,12.571c2.598,2.788,5.446,6.334,9.445,6.81c2.051,0.242,4.349,0.6,6.419,0.6c1.599,0,3.2,0,4.8,0
		c1.747,0,5.64-1.435,7.139-0.514c1.337,0.821,1.966,1.854,3.587,2.566c2.257,0.994,4.058,0.828,6.455,0.851
		c3.237,0.021,4.737-0.177,7.121-2.474c2.666-2.564,5.458-4.598,5.721-8.406c0.22-3.179-0.664-7.712-3.475-9.637
		c-2.792-1.917-6.539-2.713-9.483-4.509c-2.243-1.367-5.483-3.853-8.217-3.35c-4.021,0.742-6.119,2.38-10.428,1.495"/>
</g>
</svg>
