<?xml version="1.0" encoding="utf-8"?>
<!-- Generator: Adobe Illustrator 16.0.0, SVG Export Plug-In . SVG Version: 6.00 Build 0)  -->
<svg version="1.2" baseProfile="tiny" id="Calque_1"
	 xmlns="http://www.w3.org/2000/svg" xmlns:xlink="http://www.w3.org/1999/xlink" x="0px" y="0px" width="309.616px"
	 height="760.098px" viewBox="-111.027 -231.229 309.616 760.098" xml:space="preserve">
<g>
	<path fill="none" stroke="#FFFFFF" stroke-width="3" stroke-linecap="round" stroke-linejoin="round" stroke-miterlimit="10" d="
		M106.218-187.78l0.305,52.615l0.193,0.065l30.97-42.18l21.268,7.095l-22.923,68.712l-14.148-4.716l16.248-48.698l-0.193-0.063
		l-33.09,43.076l-11.642-3.885l-0.755-53.833l-0.194-0.064L76.17-121.443l-14.146-4.719l22.927-68.712L106.218-187.78z"/>
	<path fill="none" stroke="#FFFFFF" stroke-width="3" stroke-linecap="round" stroke-linejoin="round" stroke-miterlimit="10" d="
		M43.691-79.113l19.886-20.195l14.939,6.604L74.009-15.5l-15.125-6.686l1.509-16.967l-24.775-10.95L23.902-37.647L9.24-44.127
		l21.139-21.467 M44.223-59.279l17.167,7.585l2.392-28l-0.186-0.082l-8.134,8.605"/>
	<path fill="none" stroke="#FFFFFF" stroke-width="3" stroke-linecap="round" stroke-linejoin="round" stroke-miterlimit="10" d="
		M-21.143-4.073c2.03-2.435,4.309-4.535,6.834-6.302c3.767-2.642,8.033-4.392,12.799-5.259c4.767-0.867,9.847-0.65,15.236,0.651
		c3.617,0.874,6.987,2.261,10.112,4.163c3.124,1.903,5.794,4.237,8.016,7c2.217,2.764,3.844,5.906,4.873,9.422
		c1.028,3.518,1.255,7.333,0.685,11.436l-14.794-3.572c0.031-4.166-1.03-7.554-3.182-10.162c-2.154-2.606-5.104-4.364-8.851-5.268
		C7.1-2.806,3.977-2.846,1.221-2.086c-2.757,0.76-5.168,2.09-7.227,3.994 M-14.382,17.576c-0.714,2.959-1.063,5.917-1.049,8.878
		c0.016,2.961,0.51,5.744,1.482,8.342c0.973,2.601,2.511,4.869,4.62,6.804c2.105,1.936,4.901,3.324,8.388,4.164
		c5.127,1.239,9.399,0.898,12.824-1.023c3.42-1.922,5.957-5.294,7.608-10.115L3.909,30.865l2.787-11.54l29.586,7.143l-9.194,38.067
		l-9.862-2.38l0.352-8.371c-3.619,2.884-7.274,4.627-10.969,5.232C2.914,59.62-0.644,59.51-4.062,58.684
		c-5.392-1.302-10.016-3.411-13.867-6.324c-3.854-2.914-6.863-6.368-9.026-10.372c-2.166-4.001-3.501-8.413-4.008-13.231
		c-0.505-4.82-0.139-9.792,1.098-14.92"/>
	<path fill="none" stroke="#FFFFFF" stroke-width="3" stroke-linecap="round" stroke-linejoin="round" stroke-miterlimit="10" d="
		M5.591,108.919l11.499,41.018l-16.478-1.395l-4.098-16.54l-26.989-2.287l-7.024,15.594l-15.972-1.354l33.409-69.863l16.276,1.378
		l5.592,19.946 M-10.624,103.93l-2.858-11.363l-0.201-0.017l-11.646,25.69l18.702,1.584l-1.838-7.308"/>
	<path fill="none" stroke="#FFFFFF" stroke-width="3" stroke-linecap="round" stroke-linejoin="round" stroke-miterlimit="10" d="
		M-14.101,201.577l6.907-10.81 M-15.176,203.259l1.075-1.682 M-5.587,217.495l-9.465,14.811l39.546-5.084l1.707,13.277l-60.574,7.79
		l-1.605-12.478l13.46-21.062 M11.501,190.752L1.91,205.763 M-7.194,190.768l3.831-5.995l-35.521,4.566l-1.708-13.284l56.551-7.266
		l1.605,12.475l-6.062,9.488"/>
	<path fill="none" stroke="#FFFFFF" stroke-width="3" stroke-linecap="round" stroke-linejoin="round" stroke-miterlimit="10" d="
		M18.493,307.058l7.856,20.047l-13.221,5.183l-6.15-15.691 M0.654,300.46l-11.094-28.302l13.221-5.185l8.954,22.845"/>
	<path fill="none" stroke="#FFFFFF" stroke-width="3" stroke-linecap="round" stroke-linejoin="round" stroke-miterlimit="10" d="
		M34.702,393.431l-21.522-34.26l13.4-8.42l51.45,25.069l0.173-0.108l-25.85-41.15l12.628-7.933l38.533,61.336l-13.489,8.476
		l-51.31-25.037l-0.172,0.107l13.151,20.932 M61.363,407.837l2.978,4.739l-12.629,7.931l-6.753-10.749"/>
	<path fill="none" stroke="#FFFFFF" stroke-width="3" stroke-linecap="round" stroke-linejoin="round" stroke-miterlimit="10" d="
		M127.73,442.906l20.613-16.18l7.641,9.736l-16.122,12.651 M100.131,447.95l-9.783-12.467l42.617-33.447l8.271,10.538
		l-30.087,23.609l4.048,5.161 M128.372,458.132l10.96,13.969l30.729-24.112l8.266,10.535l-43.257,33.945l-24.277-30.936"/>
	<path fill="none" stroke="#FFFFFF" stroke-width="3" stroke-linecap="round" stroke-linejoin="round" stroke-miterlimit="10" d="
		M26.71-16.524c4.624-7.114,12.672-7.114,17.271-0.216C49.729-7.543,55.478,5.104,68.125,5.104c4.599,0,9.196,1.149,12.646-1.149
		c2.3-2.3,5.749-4.599,8.049-6.898c1.148-1.15,2.298,0,3.447-1.15c6.898-10.347,9.198-27.591,25.294-26.442
		c2.299,5.749,6.897,9.198,5.748,16.095c-1.149,5.749-4.599,9.198-5.748,14.947c0,6.898,2.299,13.796,1.149,20.694
		c-2.3,10.346-12.646,16.095-21.844,16.095c-9.198-1.149-18.395-4.599-28.741-3.449c-10.348,2.299-13.797,14.945-9.198,24.143
		c2.3,5.749,9.198,5.749,13.911,8.15"/>
	<path fill="none" stroke="#FFFFFF" stroke-width="3" stroke-linecap="round" stroke-linejoin="round" stroke-miterlimit="10" d="
		M56.626-64.856c-9.561,0.812-18.166-6.221-21.521-14.816c-2.089-5.353-1.472-11.145-1.472-16.778c0-5.942,3.205-9.984,5.039-15.41
		c1.916-5.67,0.734-11.375-2.332-16.406c-3.031-4.973-4.022-8.326-1.032-13.562c4.409-7.721,11.727-14.958,13.029-24.085
		c1.473-10.328-7.521-17.188-17.291-16.667c-4.819,0.257-11.713,3.963-14.851,7.509c-4.123,4.662-3.58,9.51-2.527,15.16
		c0.811,4.351,3.312,13.115,0.622,17.208c-1.438,2.187-6.793,3.181-9.347,4.157c-6.613,2.525-13.729,5.271-18.9,10.289
		c-5.221,5.067-6.759,12.505-3.878,19.285c3.144,7.396,13.374,4.712,19.691,5.447c8.694,1.013,11.773,10.415,10.227,18.095
		C9.884-74.5-4.497-75.288-12.058-79.847c-7.034-4.242-13.141-14.381-22.388-10.607c-8.343,3.406-11.654,12.902-6.435,20.347
		c2.777,3.965,7.016,6.562,11.002,9.15c4.599,2.984,6.393,8.252,4.644,13.696c-1.291,4.021-5.901,7.182-9.879,7.891
		c-5.469,0.974-9.209-1.709-13.046-5.124c-8.869-7.893-17.156,0.04-22.631,7.493c-3.533,4.809-5.295,11.209-0.801,16.079
		c3.049,3.303,9.141,7.447,13.733,7.622c4.242,0.161,9.18-3.104,13.287-0.849c3.741,2.055,6.722,7.997,9.73,11.133
		c6.451,6.72,14.427,12.233,23.969,12.936c6.06,0.446,11.65-1.123,16.693-4.487"/>
	<path fill="none" stroke="#FFFFFF" stroke-width="3" stroke-linecap="round" stroke-linejoin="round" stroke-miterlimit="10" d="
		M186.899-199.315c5.39-8.271,4.24-18.618-2.657-25.516c-3.449-3.449-9.199-5.748-14.947-4.598
		c-8.048,2.299-16.095,8.047-25.292,6.898c-9.197-1.15-16.096-5.749-25.293-5.749c-3.449,1.15-5.749,3.449-8.048,5.749
		c-3.449,6.897,1.149,16.095,9.197,18.394c10.348,2.3,20.694,0,29.892,5.749c2.299,2.299,4.599,4.599,6.898,6.898
		c19.544,11.497,42.537,26.442,34.49,51.735c-1.15,3.449-3.448,6.898-6.897,9.198c-5.75,2.299-12.647,3.449-18.396,4.598
		c-3.449,1.15-4.599,6.898-2.298,10.347c4.598,4.599,12.646,3.449,17.245,9.198c2.298,2.299,0,5.748,1.148,8.048
		c3.449,4.598,6.898,9.197,9.198,13.796c2.299,8.047-3.448,16.095-3.448,24.143c0,1.149,0,3.449,1.148,4.599
		c6.897,6.898,10.347,17.246,6.897,26.442c-4.598,10.347-14.944,16.096-26.442,18.395c-4.599,1.15-9.196,0-12.646-2.299
		c-2.3-1.15-3.449-3.449-4.6-5.749c-2.299-3.449-2.299-8.048-1.148-11.497c1.148-2.299,3.448-3.449,4.598-5.748
		c1.15-1.15,2.3,0,3.449-1.15c3.448-2.299,6.897-6.898,5.748-11.496c-1.148-4.6-2.3-8.048-5.748-11.497
		c-4.599-6.898,2.299-13.796,1.15-20.694c-1.15-1.15-2.3-3.449-4.6-3.449c-10.348-2.3-14.945,6.898-17.244,14.946
		c0,3.449,0,6.898,0,10.347c0,2.3-1.15,4.599-2.3,5.748c-6.898,5.749-18.395,1.15-21.844-6.896
		c-4.599-9.197,3.449-21.844-5.749-29.892c-10.347-1.149-18.395,6.898-24.535,15.11"/>
	<path fill="none" stroke="#FFFFFF" stroke-width="3" stroke-linecap="round" stroke-linejoin="round" stroke-miterlimit="10" d="
		M-32.322,168.322c-2.48-4.257-8.386-4.921-12.403-6.97c-1.73-0.88-2.413-1.28-4.238-1.374c-2.601-0.13-5.183,0.303-7.783-0.147
		c-2.088-0.366-2.779-0.692-4.701,0.094c-1.392,0.568-3.011,1.994-4.107,2.998c-3.714,3.401-3.437,9.479-8.727,11.503
		c-0.479,0.119-0.957,0.238-1.435,0.357c-0.831,0.191-1.38,0.671-1.646,1.45c-1.214,0.57-2.618,0.415-3.952,0.52
		c-0.987,0.073-1.954,0.264-2.93,0.397c-1.839,0.25-2.895-0.104-4.625-0.423c-1.972-0.36-4.014-1.455-5.905-2.497
		c-2.936-1.616-3.603-3.925-5.708-6.348c-4.358-5.019-4.333-10.711-4.443-17.062c-0.051-2.927,0.629-4.151,3.056-5.62
		c1.742-1.055,3.714-2.24,5.513-3.075c2.077-0.964,4.802-1.45,7.007-1.947c1.013-0.228,1.955,0.061,2.911-0.114
		c1.48-0.271,3.385-1.585,4.658-2.351c2.338-1.407,4.498-3.576,6.63-5.329c3.762-3.09,4.909-7.225,6.231-11.712
		c1.335-4.527,1.099-7.318-1.157-11.445c-1.347-2.467-3.494-3.847-5.786-5.384c-1.07-0.717-2.237-1.83-3.499-2.193
		c-0.575-0.183-1.16-0.242-1.756-0.175c-0.41,0.082-0.684,0.32-0.824,0.711c-1.386,0.107-2.289-0.907-3.562-1.293
		c-1.55-0.471-2.229,0.246-3.303,0.452c-4.097,0.786-8.189,1.35-11.692,3.955c-1.434,1.066-2.231,3.121-3.642,4.04
		c-0.833,0.318-1.681,0.597-2.541,0.838c-0.928,1.36-1.51,2.861-1.746,4.503c-0.679,2.264-1.091,5.542-1.1,6.858"/>
	<path fill="none" stroke="#FFFFFF" stroke-width="3" stroke-linecap="round" stroke-linejoin="round" stroke-miterlimit="10" d="
		M-15.479,109.653c14.622-2.228,26.119-11.425,36.466-20.623c10.346-9.197,28.742-14.946,39.088-2.299
		c1.15,3.449,4.6,6.898,4.6,10.347c0,2.299,0,5.748,0,8.047c-1.151,4.599-3.449,9.198-6.898,11.497
		c-3.449,1.149-6.897,2.299-11.496,2.299c-9.198,0-10.347,12.646-5.749,18.395c10.347,13.797,19.543,32.191,9.197,47.138
		c-3.449,3.449-8.048,6.898-12.646,9.196c-3.449,2.3-5.749,1.149-9.197,3.449c-3.449,1.149-8.048,2.3-13.148,2.827"/>
	<path fill="none" stroke="#FFFFFF" stroke-width="3" stroke-linecap="round" stroke-linejoin="round" stroke-miterlimit="10" d="
		M-87.213,6.118c1.067-1.434,4.695-0.977,6.219-0.784c1.196,0.152,1.355,0.27,2.588,0.784c1.388,0.582,2.234,0.445,3.541,0.745
		c4.11,0.948,8.542,2.852,12.339,4.646c1.497,0.706,2.625,2.126,3.783,3.269c1.683,1.66,3.604,3.805,4.676,5.979
		c0.794,1.609,1.587,3.562,2.062,5.276c0.454,1.646,0.428,3.251,0.956,4.922c0.639,2.028,0.489,3.792,0.939,5.783
		c0.535,2.356,0.968,3.681-0.115,6.129c-0.95,2.145-3.184,6.021-5.444,6.996c-2.305,0.992-5.198,1.613-7.704,1.67
		c-2.085,0.046-5.495,0.582-7.491-0.131c-1.211-0.431-1.855-1.608-3.111-2.063c-0.896-0.323-1.126-0.245-1.864-0.668
		c-0.752-0.432-1.352-1.282-2.142-1.623c-0.924-0.397-1.419-0.34-2.324-0.898c-1.646-1.013-1.79-1.588-3.833-1.556
		c-0.755,0.011-1.553,0.056-2.306,0.016c-1.172-0.064-1.969-0.737-3.081-0.849c-0.906-0.09-1.573,0.444-2.461,0.491
		c-1.347,0.071-2.24-0.515-3.672-0.291c-3.522,0.55-6.065,2.804-7.827,5.903c-1.812,3.188-1.382,7.299-1.426,10.926
		c-0.053,4.409,2.815,8.737,6.738,10.961c3.932,2.229,8.972,2.081,13.479,2.081c3.313,0,5.942-0.36,9.041-0.752
		c1.47-0.187,2.187-0.809,3.792-0.785c2.027,0.029,4.377-0.351,6.381-0.06c1.771,0.255,3.117,1.891,4.432,3.114
		c1.191,1.109,3.091,2.261,3.69,3.811c0.394,1.015,0.047,2.12,0.322,3.175c0.231,0.887,0.5,1.324,0.602,2.268
		c0.217,2.032,1.288,3.726,2.329,5.424c0.249,0.406,0.739,0.891,0.962,1.292c0.268,0.479,0.38,1.25,0.648,1.691
		c1.042,1.72,2.852,2.942,3.946,4.653c0.918,1.438,1.501,2.005,2.852,3.065c0.964,0.759,1.896,1.833,2.867,2.837"/>
	<g>
		<path fill="none" stroke="#FFFFFF" stroke-width="3" stroke-linecap="round" stroke-linejoin="round" stroke-miterlimit="10" d="
			M21.501,246.812c13.267,18.292,47.257,11.441,54.795-8.854c3.983-10.723-0.479-22.227-10.109-28.18
			c-1.944-1.204-4.282-2.333-6.536-2.777c-3.131-0.618-4.056,0.242-6.297,2.097c-4.049,3.349-7.214,5.755-8.08,11.4
			c-0.367,2.392-0.538,5.174-0.254,7.576c0.347,2.939,2.079,4.363,3.829,6.579"/>
		<path fill="none" stroke="#FFFFFF" stroke-width="3" stroke-linecap="round" stroke-linejoin="round" stroke-miterlimit="10" d="
			M-53.877,240.81c-4.462,1.128-7.912,3.426-11.36,8.025c-1.15,1.149,0,2.299-1.15,3.449c-3.449,2.299-4.598,5.748-8.047,8.047
			c-3.449,2.301-6.898,2.301-10.347,1.15c-10.347-3.449-11.497-16.095-11.497-25.294c0-2.298,1.15-5.747,1.15-8.047
			c2.299-3.448,2.299-8.047,5.749-11.496c3.449-2.3,5.748-4.599,9.197-6.898c11.497-4.599,21.844,2.3,33.341,4.599
			c11.497,2.3,21.844-6.898,33.341-5.748c4.599,0,8.047-1.15,12.646,1.149c4.599,2.3,9.197,6.898,11.876,11.602"/>
	</g>
	<path fill="none" stroke="#FFFFFF" stroke-width="3" stroke-linecap="round" stroke-linejoin="round" stroke-miterlimit="10" d="
		M144.398,457.884c-9.593-7.855-21.09-9.006-32.587-7.855c-2.299,1.149-4.599,2.3-8.048,3.448
		c-5.748,2.301-9.197,6.898-13.796,11.497c-3.448,4.6-8.047,8.049-9.197,12.646c-5.748,11.497,6.897,20.693,13.796,29.892
		c3.449,4.599,10.347,4.599,14.946,8.047c4.599,2.302,9.197,2.302,13.796,3.449c4.599,0,9.197,1.15,12.646,0
		c11.497-4.598,20.694-11.496,31.042-19.544c1.148-1.149,1.148-2.299,2.298-3.449c2.3-3.447,6.898-3.447,10.348-4.599
		c9.197-2.299,14.946,8.048,12.646,16.096c-1.149,5.749-4.598,9.197-8.047,12.646c-2.301,2.299-4.6,3.449-6.898,4.598
		c-3.449,1.15-6.898,3.449-10.63,2.301"/>
	<path fill="none" stroke="#FFFFFF" stroke-width="3" stroke-linecap="round" stroke-linejoin="round" stroke-miterlimit="10" d="
		M187.146,300.202c3.918,6.199,4.575,15.329-0.606,21.062c-7.877,8.716-19.757,9.607-30.633,9.703
		c-12.098,0.11-21.647-7.664-30.854-14.68c-6.875-5.239-14.897-8.426-23.505-5.158c-9.755,3.702-12.615,15.075-6.423,23.516
		c4.619,6.297,13.434,7.897,17.863,14.471c2.782,4.127,2.641,8.167,1.628,12.826c-1.12,5.15-1.479,9.629,4.085,11.514
		c11.714,3.973,16.262-7.538,24.024-13.599c7.43-5.8,17.052-9.648,26.569-7.82c5.43,1.042,9.757,3.615,13.175,7.962
		c3.94,5.015,4.188,9.434,3.148,15.402c-0.762,4.372-4.301,9.605-8.187,11.855c-2.216,1.283-4.4,1.296-6.156,3.447
		c-1.252,1.531-2.145,3.709-2.558,5.631c-1.564,7.276,4.103,13.078,9.1,17.477c6.152,5.414,14.528,10.536,17.475,18.587
		c3.523,9.628-1.134,20.874-8.98,26.912"/>
	<path fill="none" stroke="#FFFFFF" stroke-width="3" stroke-linecap="round" stroke-linejoin="round" stroke-miterlimit="10" d="
		M-28.733,266.972c-4.305,7.81-12.634,10.76-21.028,11.786c-7.996,0.975-17.449-0.646-24.95,2.643
		c-7.656,3.355-12.746,11.274-14.15,19.332c-0.741,4.254-0.488,8.729,0.977,12.811c1.823,5.081,5.882,7.455,10.919,9.004
		c5.656,1.742,12.031,1.192,17.245-1.688c4.656-2.574,4.787-7.352,6.819-11.77c0.99-2.152,2.329-4.098,4.467-5.227
		c2.698-1.427,5.402-0.549,8.265-0.988c4.684-0.72,9.766-5.1,14.513-4.54c5.21,0.612,7.669,6.703,7.657,11.361
		c-0.013,4.011-2.37,6.283-5.969,7.63c-4.211,1.577-7.681,1.033-10.283,5.298c-2.586,4.239,1.145,7.249-1.221,11.719
		c-1.998,3.772-5.844,6.343-9.805,7.69c-4.731,1.607-8.399,0.409-13.164-0.011c-8.701-0.767-16.194,9.098-13.765,17.474
		c1.246,4.296,6.279,6.782,9.494,9.539c3.806,3.267,8.474,4.471,13.468,3.897c2.337-0.267,4.948-1.065,7-2.231
		c2.168-1.235,3.545-3.424,5.748-4.599c4.238-2.264,7.938,0.159,7.947,4.702c0.013,6.994-0.503,14.668,3.526,20.831
		c4.392,6.721,13.584,6.386,18.924,0.885c6.903-7.109,6.161-19.12,2.276-27.421c-4.309-9.207-11.179-17.971-7.924-28.655
		c3.106-10.203,9.707-20.067,16.255-28.402c3.772-4.801,8.536-9.562,14.941-9.766c6.136-0.195,11.979,1.78,18.021,2.167
		c4.913,0.313,8.432-4.969,11.607-8.242c3.453-3.562,6.963-7.168,11.239-9.755c3.972-2.403,7.891-4.02,11.496-0.281
		c3.018,3.128,4.062,8.038,8.275,9.898c7.887,3.479,14.168-6.316,17.568-11.915c2.434-4.005,5.461-6.99,10.137-8.247
		c2.248-0.604,4.62-0.713,6.907-0.278c2.783,0.525,3.689,1.023,4.633,3.505c2.499,6.586,4.583,15.066,12.474,17.043
		c9.754,2.438,21.042-3.247,30.906-3.514"/>
	<path fill="none" stroke="#FFFFFF" stroke-width="3" stroke-linecap="round" stroke-linejoin="round" stroke-miterlimit="10" d="
		M-29.888,420.099c0.057-0.227,0.115-0.455,0.172-0.679c0.726,0.065,0.595,0.563,1.159,0.895c0.56,0.326,1.116,0.382,1.69,0.686
		c2.234,1.176,3.769,2.24,6.221,2.943c4.685,1.34,11.015,2.428,15.98,1.579c1.47-0.253,3.333-1.123,4.712-1.706
		c1.972-0.838,4.512-1.758,6.227-2.928c2.997-2.044,6.383-4.393,9.067-6.986c2.597-2.507,6.64-5.062,9.829-6.922
		c1.874-1.094,3.864-1.436,5.814-2.271c0.635-0.271,0.891-0.604,1.549-0.941c1.581-0.811,2.946-0.97,4.54-1.342
		c1.977-0.463,3.271-0.806,5.411-0.795c1.519,0.007,3.039,0,4.56,0c1.8,0,3.602-0.03,5.401-0.003
		c2.136,0.031,4.004-0.636,6.181-0.745c1.834-0.094,3.464-0.733,5.324-0.788c2.459-0.069,4.837-0.174,7.193,0.561
		c4.603,1.427,8.475,5.298,11.01,9.312c2.338,3.7,2.611,8.369,2.613,12.608c0.001,2.209,0.136,3.77-0.759,5.8
		c-1.104,2.515-2.45,4.662-4.608,6.318c-1.471,1.127-3.18,2.021-4.43,3.271c-1.205,1.206-0.798,1.415-2.648,1.792
		c-1.418,0.29-2.677-0.047-4.121,0.498c-1.337,0.503-2.097,1.175-3.598,1.429c-1.615,0.274-3.418,0.29-5.078,0.558
		c-3.066,0.497-6.36,0.014-9.404-0.383c-2.484-0.324-4.667-0.614-6.902-1.562c-2.313-0.98-5.358-1.965-7.801-2.352
		c-1.683-0.27-2.83-1.147-4.537-0.938c-2.23,0.278-4.574-0.009-6.792,0.487c-2.717,0.61-4.923,1.863-7.099,3.577
		c-1.909,1.504-4.141,2.492-6.01,3.966c-1.981,1.561-3.625,6.116-3.968,8.705c-0.296,2.229-0.113,5.038,0.751,7.086
		c1.711,4.05,2.723,8.672,5.771,11.948c2.469,2.651,5.176,6.021,8.977,6.473c1.949,0.23,4.133,0.569,6.101,0.569
		c1.52,0,3.042,0,4.562,0c1.66,0,5.36-1.363,6.785-0.487c1.271,0.78,1.869,1.763,3.409,2.439c2.145,0.945,3.857,0.787,6.135,0.808
		c3.077,0.021,4.503-0.168,6.769-2.35c2.534-2.438,5.187-4.371,5.437-7.991c0.209-3.021-0.631-7.33-3.302-9.159
		c-2.654-1.822-6.215-2.578-9.015-4.285c-2.131-1.3-5.211-3.661-7.81-3.183c-3.822,0.705-5.816,2.261-9.911,1.421"/>
</g>
</svg>
