<?xml version="1.0" encoding="utf-8"?>
<!-- Generator: Adobe Illustrator 16.0.0, SVG Export Plug-In . SVG Version: 6.00 Build 0)  -->
<svg version="1.2" baseProfile="tiny" id="Calque_1"
	 xmlns="http://www.w3.org/2000/svg" xmlns:xlink="http://www.w3.org/1999/xlink" x="0px" y="0px" width="104.88px"
	 height="297.641px" viewBox="0 0 104.88 297.641" xml:space="preserve">
<g>
	<g>
		<path fill="none" stroke="#FFFFFF" stroke-linecap="round" stroke-linejoin="round" stroke-miterlimit="10" d="M71.318,47.051
			l0.092,15.907l0.059,0.02l9.363-12.753l6.43,2.146l-6.931,20.774l-4.278-1.426l4.913-14.724l-0.059-0.019L70.904,70l-3.521-1.175
			l-0.228-16.276l-0.059-0.02l-4.864,14.577l-4.277-1.427l6.932-20.774L71.318,47.051z"/>
		<path fill="none" stroke="#FFFFFF" stroke-linecap="round" stroke-linejoin="round" stroke-miterlimit="10" d="M52.413,79.905
			l6.012-6.105l4.518,1.996l-1.363,23.343l-4.573-2.021l0.457-5.13l-7.491-3.311l-3.542,3.766l-4.433-1.959l6.391-6.49
			 M52.573,85.902l5.19,2.293l0.724-8.466l-0.056-0.024l-2.459,2.602"/>
		<path fill="none" stroke="#FFFFFF" stroke-linecap="round" stroke-linejoin="round" stroke-miterlimit="10" d="M32.81,102.594
			c0.614-0.736,1.303-1.371,2.066-1.906c1.139-0.798,2.429-1.327,3.87-1.589c1.441-0.263,2.978-0.197,4.607,0.196
			c1.093,0.265,2.112,0.684,3.057,1.259s1.752,1.281,2.424,2.116c0.67,0.836,1.162,1.785,1.473,2.849
			c0.311,1.064,0.38,2.217,0.207,3.458l-4.473-1.08c0.01-1.26-0.311-2.284-0.962-3.073c-0.651-0.787-1.543-1.318-2.676-1.592
			c-1.054-0.255-1.998-0.267-2.832-0.037s-1.562,0.632-2.185,1.208 M34.854,109.139c-0.216,0.895-0.322,1.789-0.317,2.684
			c0.005,0.896,0.154,1.736,0.448,2.522s0.759,1.473,1.396,2.057c0.637,0.586,1.482,1.006,2.536,1.26
			c1.55,0.374,2.842,0.271,3.877-0.31c1.034-0.581,1.801-1.601,2.3-3.059l-4.711-1.137l0.843-3.489l8.945,2.16l-2.78,11.509
			l-2.982-0.719l0.106-2.531c-1.094,0.872-2.2,1.398-3.316,1.581c-1.117,0.183-2.193,0.149-3.226-0.1
			c-1.63-0.394-3.028-1.031-4.192-1.912c-1.166-0.881-2.075-1.926-2.729-3.136c-0.655-1.21-1.059-2.544-1.212-4.001
			c-0.153-1.457-0.042-2.961,0.332-4.511"/>
		<path fill="none" stroke="#FFFFFF" stroke-linecap="round" stroke-linejoin="round" stroke-miterlimit="10" d="M40.893,136.757
			l3.477,12.401l-4.982-0.422l-1.239-5l-8.16-0.692l-2.124,4.715l-4.829-0.409l10.101-21.123l4.921,0.417l1.691,6.03
			 M35.991,135.248l-0.864-3.436l-0.061-0.005l-3.521,7.767l5.654,0.479l-0.556-2.21"/>
		<path fill="none" stroke="#FFFFFF" stroke-linecap="round" stroke-linejoin="round" stroke-miterlimit="10" d="M34.939,164.77
			l2.088-3.268 M34.614,165.279l0.325-0.509 M37.513,169.584l-2.861,4.478l11.957-1.537l0.516,4.015l-18.314,2.355l-0.485-3.773
			l4.07-6.368 M42.68,161.498l-2.9,4.538 M37.027,161.503l1.158-1.812l-10.739,1.381l-0.517-4.017l17.098-2.197l0.485,3.772
			l-1.833,2.868"/>
		<path fill="none" stroke="#FFFFFF" stroke-linecap="round" stroke-linejoin="round" stroke-miterlimit="10" d="M44.794,196.663
			l2.375,6.061l-3.998,1.567l-1.859-4.744 M39.4,194.668l-3.354-8.557l3.997-1.567l2.708,6.907"/>
		<path fill="none" stroke="#FFFFFF" stroke-linecap="round" stroke-linejoin="round" stroke-miterlimit="10" d="M49.695,222.777
			l-6.507-10.358l4.051-2.545l15.557,7.579l0.052-0.033l-7.815-12.441l3.818-2.398l11.65,18.545l-4.079,2.562l-15.513-7.57
			l-0.052,0.033l3.976,6.328 M57.756,227.133l0.9,1.434l-3.818,2.397l-2.042-3.25"/>
		<path fill="none" stroke="#FFFFFF" stroke-linecap="round" stroke-linejoin="round" stroke-miterlimit="10" d="M77.821,237.736
			l6.232-4.892l2.311,2.943l-4.875,3.825 M69.478,239.261l-2.958-3.77l12.885-10.113l2.5,3.187l-9.097,7.139l1.224,1.561
			 M78.016,242.34l3.313,4.224l9.291-7.291l2.499,3.186l-13.078,10.264l-7.34-9.354"/>
		<path fill="none" stroke="#FFFFFF" stroke-linecap="round" stroke-linejoin="round" stroke-miterlimit="10" d="M47.278,98.829
			c1.398-2.151,3.832-2.151,5.222-0.065c1.738,2.781,3.476,6.604,7.3,6.604c1.391,0,2.781,0.348,3.824-0.348
			c0.695-0.695,1.738-1.391,2.433-2.086c0.348-0.348,0.695,0,1.043-0.348c2.085-3.128,2.781-8.342,7.647-7.994
			c0.695,1.737,2.086,2.78,1.738,4.866c-0.348,1.738-1.391,2.781-1.738,4.519c0,2.086,0.695,4.172,0.348,6.257
			c-0.695,3.129-3.824,4.866-6.604,4.866c-2.781-0.348-5.562-1.39-8.69-1.042c-3.128,0.694-4.171,4.519-2.781,7.299
			c0.695,1.738,2.781,1.738,4.206,2.464"/>
		<path fill="none" stroke="#FFFFFF" stroke-linecap="round" stroke-linejoin="round" stroke-miterlimit="10" d="M56.324,84.216
			c-2.891,0.246-5.493-1.881-6.507-4.479c-0.632-1.618-0.445-3.369-0.445-5.073c0-1.796,0.969-3.019,1.524-4.659
			c0.579-1.714,0.222-3.438-0.705-4.96c-0.917-1.504-1.216-2.518-0.312-4.101c1.333-2.334,3.545-4.522,3.939-7.282
			c0.446-3.122-2.274-5.196-5.228-5.039c-1.457,0.078-3.542,1.198-4.49,2.271c-1.247,1.409-1.083,2.875-0.764,4.583
			c0.245,1.316,1.001,3.966,0.188,5.203c-0.435,0.661-2.054,0.962-2.826,1.257c-2,0.764-4.151,1.594-5.714,3.11
			c-1.579,1.532-2.043,3.781-1.172,5.831c0.95,2.236,4.043,1.425,5.954,1.646c2.628,0.307,3.56,3.149,3.092,5.472
			c-0.665,3.305-5.013,3.065-7.299,1.688c-2.126-1.282-3.973-4.349-6.769-3.207c-2.522,1.029-3.523,3.9-1.946,6.152
			c0.84,1.198,2.122,1.983,3.327,2.766c1.391,0.902,1.933,2.495,1.404,4.142c-0.391,1.216-1.784,2.171-2.987,2.386
			c-1.653,0.295-2.784-0.517-3.944-1.549c-2.681-2.387-5.187,0.012-6.842,2.265c-1.068,1.454-1.601,3.389-0.242,4.861
			c0.922,0.999,2.764,2.252,4.152,2.305c1.283,0.049,2.775-0.938,4.017-0.257c1.131,0.622,2.032,2.418,2.942,3.366
			c1.951,2.032,4.362,3.699,7.247,3.911c1.832,0.135,3.522-0.339,5.047-1.356"/>
		<path fill="none" stroke="#FFFFFF" stroke-linecap="round" stroke-linejoin="round" stroke-miterlimit="10" d="M95.711,43.562
			c1.629-2.501,1.282-5.629-0.804-7.715c-1.043-1.043-2.781-1.737-4.519-1.391c-2.433,0.695-4.866,2.434-7.647,2.086
			s-4.867-1.738-7.647-1.738c-1.043,0.348-1.738,1.043-2.433,1.738c-1.043,2.086,0.348,4.866,2.781,5.562
			c3.128,0.695,6.257,0,9.038,1.738c0.695,0.695,1.391,1.391,2.085,2.086c5.909,3.476,12.861,7.994,10.428,15.642
			c-0.348,1.043-1.043,2.086-2.085,2.781c-1.738,0.695-3.824,1.042-5.562,1.39c-1.042,0.348-1.39,2.086-0.695,3.129
			c1.39,1.391,3.823,1.043,5.214,2.78c0.695,0.695,0,1.738,0.348,2.434c1.043,1.391,2.085,2.781,2.781,4.171
			c0.695,2.434-1.043,4.867-1.043,7.3c0,0.348,0,1.043,0.348,1.391c2.086,2.086,3.128,5.214,2.086,7.995
			c-1.391,3.128-4.519,4.866-7.995,5.562c-1.39,0.348-2.781,0-3.824-0.695c-0.695-0.348-1.042-1.043-1.39-1.738
			c-0.695-1.043-0.695-2.433-0.348-3.476c0.348-0.695,1.043-1.043,1.391-1.738c0.347-0.348,0.695,0,1.042-0.348
			c1.043-0.695,2.085-2.086,1.738-3.476c-0.348-1.391-0.695-2.434-1.738-3.477c-1.39-2.085,0.695-4.171,0.348-6.257
			c-0.348-0.348-0.695-1.043-1.39-1.043c-3.128-0.694-4.519,2.086-5.214,4.52c0,1.042,0,2.085,0,3.128
			c0,0.695-0.348,1.391-0.695,1.738c-2.085,1.738-5.562,0.348-6.604-2.086c-1.391-2.78,1.042-6.604-1.738-9.037
			c-3.128-0.348-5.562,2.085-7.418,4.568"/>
		<path fill="none" stroke="#FFFFFF" stroke-linecap="round" stroke-linejoin="round" stroke-miterlimit="10" d="M28.99,154.716
			c-0.75-1.287-2.535-1.487-3.75-2.106c-0.523-0.267-0.73-0.388-1.281-0.416c-0.787-0.039-1.567,0.092-2.353-0.045
			c-0.631-0.11-0.84-0.209-1.421,0.028c-0.421,0.172-0.911,0.604-1.242,0.907c-1.123,1.028-1.039,2.866-2.639,3.478
			c-0.145,0.036-0.289,0.072-0.434,0.108c-0.251,0.058-0.417,0.202-0.498,0.438c-0.368,0.172-0.792,0.125-1.195,0.156
			c-0.298,0.022-0.591,0.08-0.886,0.12c-0.556,0.076-0.875-0.031-1.398-0.127c-0.596-0.109-1.214-0.44-1.785-0.755
			c-0.888-0.489-1.089-1.188-1.726-1.92c-1.317-1.518-1.31-3.238-1.343-5.158c-0.016-0.884,0.19-1.254,0.924-1.699
			c0.526-0.319,1.123-0.678,1.667-0.93c0.628-0.292,1.452-0.438,2.119-0.589c0.306-0.069,0.591,0.019,0.88-0.034
			c0.448-0.082,1.023-0.479,1.409-0.711c0.707-0.425,1.36-1.081,2.004-1.611c1.137-0.935,1.484-2.185,1.884-3.541
			c0.403-1.369,0.332-2.213-0.35-3.46c-0.407-0.746-1.057-1.163-1.75-1.628c-0.324-0.217-0.676-0.553-1.058-0.663
			c-0.173-0.056-0.351-0.073-0.531-0.053c-0.124,0.025-0.207,0.097-0.249,0.215c-0.419,0.032-0.692-0.274-1.077-0.391
			c-0.469-0.143-0.674,0.074-0.999,0.137c-1.238,0.237-2.476,0.408-3.535,1.195c-0.434,0.322-0.675,0.944-1.102,1.221
			c-0.252,0.096-0.508,0.181-0.768,0.253c-0.28,0.411-0.457,0.865-0.528,1.361c-0.206,0.685-0.33,1.676-0.333,2.074"/>
		<path fill="none" stroke="#FFFFFF" stroke-linecap="round" stroke-linejoin="round" stroke-miterlimit="10" d="M34.522,136.978
			c4.421-0.674,7.897-3.455,11.026-6.235c3.128-2.781,8.69-4.519,11.818-0.695c0.348,1.043,1.39,2.086,1.39,3.129
			c0,0.694,0,1.737,0,2.433c-0.347,1.391-1.042,2.781-2.085,3.477c-1.043,0.347-2.085,0.694-3.476,0.694
			c-2.781,0-3.128,3.824-1.738,5.562c3.128,4.17,5.909,9.732,2.781,14.251c-1.043,1.043-2.433,2.085-3.824,2.78
			c-1.043,0.695-1.738,0.348-2.781,1.043c-1.043,0.348-2.433,0.695-3.975,0.854"/>
		<path fill="none" stroke="#FFFFFF" stroke-linecap="round" stroke-linejoin="round" stroke-miterlimit="10" d="M12.394,105.675
			c0.323-0.433,1.419-0.295,1.88-0.237c0.362,0.046,0.41,0.082,0.782,0.237c0.42,0.176,0.676,0.134,1.071,0.225
			c1.243,0.286,2.583,0.862,3.73,1.404c0.453,0.214,0.793,0.644,1.144,0.989c0.509,0.501,1.09,1.15,1.414,1.808
			c0.24,0.486,0.48,1.077,0.624,1.595c0.137,0.498,0.129,0.983,0.289,1.488c0.193,0.613,0.148,1.147,0.284,1.749
			c0.162,0.712,0.293,1.113-0.035,1.853c-0.287,0.648-0.963,1.821-1.646,2.115c-0.697,0.3-1.572,0.488-2.33,0.505
			c-0.63,0.014-1.661,0.176-2.265-0.039c-0.366-0.13-0.561-0.486-0.941-0.624c-0.271-0.098-0.34-0.074-0.563-0.202
			c-0.227-0.131-0.409-0.388-0.647-0.491c-0.279-0.12-0.429-0.103-0.703-0.271c-0.498-0.307-0.541-0.48-1.159-0.471
			c-0.229,0.004-0.469,0.017-0.697,0.005c-0.354-0.02-0.595-0.223-0.932-0.256c-0.274-0.027-0.475,0.134-0.744,0.148
			c-0.408,0.021-0.677-0.156-1.11-0.088c-1.065,0.166-1.834,0.848-2.367,1.785c-0.548,0.964-0.417,2.207-0.431,3.303
			c-0.016,1.333,0.851,2.642,2.038,3.314c1.189,0.674,2.712,0.629,4.075,0.629c1.001,0,1.797-0.108,2.733-0.227
			c0.444-0.057,0.661-0.245,1.146-0.237c0.613,0.009,1.324-0.106,1.93-0.018c0.535,0.077,0.942,0.571,1.34,0.942
			c0.36,0.335,0.935,0.684,1.116,1.152c0.119,0.307,0.014,0.641,0.097,0.96c0.07,0.268,0.151,0.4,0.182,0.686
			c0.065,0.614,0.389,1.126,0.704,1.64c0.075,0.123,0.223,0.27,0.291,0.39c0.081,0.145,0.115,0.378,0.196,0.512
			c0.315,0.52,0.862,0.889,1.193,1.407c0.278,0.435,0.454,0.606,0.862,0.927c0.292,0.229,0.573,0.554,0.867,0.858"/>
		<g>
			<path fill="none" stroke="#FFFFFF" stroke-linecap="round" stroke-linejoin="round" stroke-miterlimit="10" d="M45.704,178.447
				c4.011,5.53,14.288,3.459,16.567-2.677c1.205-3.242-0.145-6.721-3.056-8.521c-0.588-0.363-1.295-0.705-1.976-0.84
				c-0.947-0.187-1.227,0.073-1.904,0.635c-1.225,1.012-2.182,1.739-2.443,3.446c-0.111,0.724-0.163,1.564-0.077,2.291
				c0.105,0.889,0.629,1.319,1.158,1.989"/>
			<path fill="none" stroke="#FFFFFF" stroke-linecap="round" stroke-linejoin="round" stroke-miterlimit="10" d="M22.913,176.633
				c-1.35,0.341-2.392,1.036-3.435,2.427c-0.348,0.348,0,0.695-0.348,1.042c-1.042,0.695-1.39,1.738-2.433,2.434
				s-2.085,0.695-3.128,0.348c-3.128-1.043-3.476-4.866-3.476-7.647c0-0.695,0.348-1.737,0.348-2.433
				c0.695-1.043,0.695-2.434,1.738-3.477c1.043-0.695,1.738-1.391,2.781-2.085c3.476-1.391,6.604,0.694,10.08,1.39
				s6.604-2.085,10.081-1.737c1.391,0,2.433-0.348,3.824,0.348c1.39,0.694,2.781,2.085,3.591,3.508"/>
		</g>
		<path fill="none" stroke="#FFFFFF" stroke-linecap="round" stroke-linejoin="round" stroke-miterlimit="10" d="M82.861,242.264
			c-2.9-2.375-6.376-2.723-9.853-2.375c-0.695,0.348-1.391,0.695-2.433,1.043c-1.738,0.695-2.781,2.085-4.171,3.476
			c-1.043,1.391-2.433,2.434-2.781,3.823c-1.738,3.477,2.085,6.257,4.171,9.038c1.043,1.391,3.128,1.391,4.519,2.434
			c1.391,0.695,2.781,0.695,4.171,1.042c1.39,0,2.781,0.348,3.823,0c3.476-1.39,6.257-3.476,9.385-5.909
			c0.348-0.348,0.348-0.694,0.695-1.042c0.695-1.043,2.085-1.043,3.128-1.391c2.781-0.695,4.519,2.433,3.824,4.866
			c-0.348,1.738-1.391,2.781-2.433,3.823c-0.695,0.695-1.391,1.043-2.086,1.391c-1.042,0.348-2.085,1.043-3.213,0.695"/>
		<path fill="none" stroke="#FFFFFF" stroke-linecap="round" stroke-linejoin="round" stroke-miterlimit="10" d="M95.786,194.59
			c1.185,1.875,1.383,4.635-0.184,6.368c-2.381,2.635-5.973,2.904-9.261,2.934c-3.658,0.033-6.545-2.317-9.329-4.438
			c-2.079-1.584-4.504-2.548-7.107-1.56c-2.949,1.119-3.814,4.559-1.942,7.11c1.396,1.903,4.062,2.388,5.401,4.375
			c0.841,1.248,0.798,2.469,0.492,3.878c-0.338,1.558-0.447,2.911,1.235,3.481c3.542,1.201,4.917-2.279,7.264-4.111
			c2.246-1.754,5.156-2.918,8.034-2.365c1.641,0.315,2.949,1.093,3.983,2.407c1.192,1.517,1.266,2.853,0.952,4.657
			c-0.23,1.321-1.3,2.904-2.476,3.584c-0.669,0.388-1.33,0.393-1.861,1.043c-0.378,0.463-0.648,1.121-0.773,1.702
			c-0.473,2.2,1.241,3.954,2.751,5.284c1.86,1.637,4.393,3.186,5.283,5.619c1.065,2.911-0.342,6.312-2.715,8.137"/>
		<path fill="none" stroke="#FFFFFF" stroke-linecap="round" stroke-linejoin="round" stroke-miterlimit="10" d="M30.515,184.543
			c-1.301,2.361-3.82,3.253-6.358,3.563c-2.417,0.295-5.275-0.195-7.543,0.799c-2.315,1.015-3.854,3.409-4.278,5.845
			c-0.224,1.287-0.147,2.639,0.295,3.873c0.551,1.537,1.778,2.254,3.302,2.723c1.71,0.527,3.638,0.36,5.214-0.511
			c1.407-0.777,1.447-2.223,2.062-3.558c0.299-0.651,0.704-1.239,1.351-1.581c0.816-0.431,1.634-0.165,2.499-0.299
			c1.416-0.218,2.953-1.541,4.388-1.372c1.576,0.186,2.319,2.026,2.315,3.435c-0.004,1.213-0.717,1.9-1.805,2.308
			c-1.273,0.477-2.322,0.312-3.109,1.602c-0.782,1.281,0.346,2.191-0.369,3.543c-0.604,1.141-1.767,1.918-2.964,2.325
			c-1.43,0.486-2.54,0.124-3.98-0.003c-2.631-0.231-4.896,2.751-4.162,5.283c0.376,1.299,1.898,2.05,2.87,2.884
			c1.151,0.987,2.562,1.352,4.072,1.179c0.707-0.081,1.496-0.322,2.116-0.675c0.656-0.374,1.072-1.035,1.738-1.391
			c1.282-0.685,2.4,0.048,2.403,1.422c0.004,2.114-0.152,4.435,1.066,6.298c1.328,2.032,4.107,1.931,5.722,0.268
			c2.087-2.149,1.862-5.781,0.688-8.291c-1.303-2.783-3.38-5.434-2.396-8.663c0.939-3.085,2.935-6.067,4.915-8.588
			c1.141-1.451,2.581-2.891,4.518-2.952c1.855-0.06,3.622,0.538,5.449,0.655c1.485,0.095,2.55-1.503,3.51-2.493
			c1.043-1.076,2.105-2.167,3.398-2.949c1.201-0.726,2.386-1.215,3.476-0.084c0.913,0.945,1.228,2.43,2.502,2.992
			c2.384,1.053,4.284-1.91,5.312-3.603c0.736-1.211,1.651-2.113,3.065-2.493c0.679-0.183,1.396-0.216,2.088-0.084
			c0.841,0.158,1.116,0.31,1.401,1.06c0.755,1.991,1.385,4.556,3.771,5.152c2.949,0.737,6.362-0.981,9.345-1.062"/>
		<path fill="none" stroke="#FFFFFF" stroke-linecap="round" stroke-linejoin="round" stroke-miterlimit="10" d="M29.726,230.84
			c0.018-0.068,0.035-0.137,0.052-0.204c0.219,0.02,0.18,0.17,0.35,0.27c0.169,0.1,0.337,0.115,0.511,0.207
			c0.676,0.356,1.14,0.678,1.881,0.891c1.417,0.405,3.331,0.733,4.832,0.477c0.444-0.075,1.007-0.339,1.425-0.516
			c0.596-0.253,1.364-0.531,1.882-0.885c0.906-0.617,1.93-1.328,2.742-2.112c0.785-0.758,2.007-1.53,2.972-2.093
			c0.567-0.33,1.168-0.434,1.758-0.687c0.192-0.083,0.27-0.183,0.468-0.285c0.478-0.245,0.891-0.293,1.373-0.405
			c0.597-0.141,0.989-0.243,1.636-0.241c0.459,0.003,0.919,0,1.378,0c0.544,0,1.089-0.009,1.633,0
			c0.646,0.009,1.211-0.192,1.869-0.226c0.555-0.028,1.047-0.222,1.61-0.238c0.743-0.021,1.462-0.053,2.175,0.169
			c1.392,0.432,2.562,1.603,3.329,2.816c0.707,1.118,0.789,2.53,0.79,3.812c0,0.668,0.041,1.141-0.229,1.754
			c-0.334,0.761-0.741,1.409-1.394,1.91c-0.444,0.341-0.961,0.611-1.339,0.989c-0.365,0.365-0.242,0.428-0.801,0.542
			c-0.429,0.088-0.81-0.015-1.247,0.15c-0.404,0.152-0.633,0.355-1.087,0.432c-0.489,0.083-1.034,0.088-1.536,0.169
			c-0.927,0.15-1.923,0.004-2.843-0.116c-0.751-0.098-1.411-0.186-2.087-0.472c-0.699-0.297-1.62-0.594-2.358-0.711
			c-0.509-0.081-0.856-0.347-1.372-0.283c-0.674,0.084-1.383-0.003-2.053,0.147c-0.821,0.185-1.488,0.563-2.146,1.081
			c-0.577,0.455-1.252,0.754-1.817,1.199c-0.599,0.472-1.096,1.85-1.2,2.632c-0.089,0.675-0.034,1.523,0.227,2.143
			c0.518,1.225,0.823,2.622,1.745,3.613c0.746,0.802,1.564,2.281,2.714,2.418c0.589,0.07,1.25,0.634,1.845,0.634
			c0.459,0,0.919,0,1.379,0c0.502,0,1.621-0.874,2.052-0.609c0.384,0.236,0.565,0.303,1.03,0.508
			c0.649,0.285,1.167,0.121,1.855,0.127c0.931,0.008,1.362-0.107,2.047-0.767c0.767-0.737,1.568-1.35,1.644-2.444
			c0.063-0.913-0.191-2.231-0.999-2.784c-0.802-0.551-1.879-0.788-2.725-1.304c-0.645-0.394-1.576-1.109-2.361-0.965
			c-1.156,0.213-1.758,0.682-2.997,0.428"/>
	</g>
</g>
</svg>
