<svg version="1.2" baseProfile="tiny" xmlns="http://www.w3.org/2000/svg" viewBox="0 0 336.464 799.555"><g fill="none" stroke="#FFF" stroke-width="3" stroke-linecap="round" stroke-linejoin="round" stroke-miterlimit="10"><path d="M228.486 45.634l.32 55.357.203.068 32.584-44.378 22.376 7.465-24.117 72.293-14.886-4.961 17.096-51.236-.203-.066-34.814 45.321-12.249-4.087-.794-56.638-.205-.068-16.925 50.726-14.883-4.965 24.122-72.293 22.375 7.462zM162.7 159.965l20.923-21.248 15.717 6.948-4.742 81.228-15.913-7.034 1.589-17.851-26.066-11.521-12.327 13.104-15.426-6.818 22.241-22.585m14.564 6.645l18.062 7.98 2.517-29.459-.196-.086-8.558 9.054M94.488 238.915a36.838 36.838 0 0 1 7.19-6.63c3.963-2.779 8.452-4.621 13.466-5.533 5.015-.912 10.36-.684 16.03.685a37.047 37.047 0 0 1 10.639 4.38c3.287 2.002 6.096 4.458 8.434 7.365 2.333 2.908 4.044 6.213 5.127 9.913 1.082 3.701 1.32 7.715.721 12.032l-15.566-3.758c.032-4.383-1.084-7.947-3.348-10.691-2.266-2.742-5.37-4.592-9.312-5.543-3.666-.886-6.952-.928-9.852-.129-2.901.799-5.437 2.199-7.604 4.203m-8.812 16.484a38.94 38.94 0 0 0-1.104 9.34c.017 3.115.537 6.043 1.559 8.777 1.024 2.736 2.642 5.123 4.861 7.159 2.215 2.037 5.156 3.497 8.826 4.381 5.394 1.304 9.889.945 13.492-1.076 3.599-2.022 6.268-5.57 8.005-10.642l-16.394-3.957 2.932-12.142 31.128 7.515-9.674 40.051-10.375-2.504.37-8.807c-3.808 3.034-7.653 4.868-11.541 5.505-3.887.635-7.631.52-11.227-.35-5.673-1.37-10.539-3.589-14.59-6.654-4.055-3.066-7.22-6.699-9.496-10.913-2.279-4.209-3.684-8.851-4.217-13.92-.531-5.071-.146-10.302 1.155-15.697M122.615 357.796l12.098 43.156-17.337-1.468-4.311-17.402-28.396-2.406-7.39 16.407-16.805-1.424 35.15-73.504 17.124 1.45 5.884 20.986m-13.077 8.957l-3.007-11.956-.211-.018-12.253 27.029 19.677 1.667-1.934-7.689M101.897 455.284l7.267-11.374m-8.398 13.143l1.131-1.77m8.958 16.748l-9.958 15.583 41.606-5.349 1.796 13.969-63.731 8.196-1.688-13.128 14.162-22.16m35.791-25.247l-10.091 15.793m-9.578-15.777l4.031-6.308-37.372 4.804-1.797-13.976 59.498-7.646 1.689 13.125-6.378 9.982M136.19 566.262l8.265 21.092-13.91 5.453-6.47-16.51m-6.654-16.977l-11.672-29.777 13.91-5.455 9.42 24.035M153.243 657.136L130.6 621.09l14.098-8.858 54.131 26.375.183-.113-27.196-43.295 13.285-8.347 40.542 64.531-14.191 8.919-53.984-26.343-.181.112 13.836 22.022m10.171 16.199l3.133 4.986-13.287 8.344-7.104-11.31M251.119 709.189l21.687-17.023 8.04 10.244-16.962 13.311m-41.802-1.224L211.79 701.38l44.838-35.189 8.702 11.088-31.655 24.839 4.259 5.43m13.861 17.66l11.531 14.696 32.33-25.367 8.697 11.084-45.512 35.713-25.541-32.546"/><path d="M144.835 225.816c4.865-7.485 13.332-7.485 18.171-.228 6.048 9.677 12.096 22.983 25.402 22.983 4.839 0 9.675 1.208 13.305-1.209 2.42-2.42 6.049-4.839 8.468-7.257 1.208-1.21 2.418 0 3.627-1.21 7.258-10.886 9.678-29.029 26.612-27.82 2.418 6.048 7.256 9.677 6.047 16.934-1.208 6.048-4.839 9.677-6.047 15.726 0 7.258 2.418 14.515 1.208 21.773-2.419 10.885-13.305 16.933-22.981 16.933-9.679-1.208-19.354-4.838-30.239-3.628-10.887 2.418-14.517 15.724-9.677 25.401 2.42 6.049 9.677 6.049 14.636 8.575M176.31 174.965c-10.06.854-19.113-6.545-22.643-15.588-2.198-5.632-1.549-11.726-1.549-17.653 0-6.251 3.372-10.504 5.302-16.212 2.016-5.966.772-11.968-2.454-17.262-3.189-5.232-4.232-8.759-1.085-14.269 4.638-8.123 12.338-15.738 13.708-25.34 1.55-10.866-7.913-18.083-18.192-17.536-5.07.271-12.323 4.169-15.625 7.901-4.338 4.904-3.766 10.005-2.659 15.95.853 4.578 3.484 13.799.654 18.104-1.513 2.301-7.147 3.347-9.834 4.374-6.958 2.657-14.445 5.546-19.885 10.825-5.493 5.331-7.111 13.157-4.08 20.29 3.308 7.781 14.071 4.958 20.717 5.731 9.147 1.066 12.387 10.958 10.76 19.038-2.314 11.5-17.444 10.671-25.399 5.874-7.4-4.462-13.826-15.13-23.554-11.16-8.778 3.584-12.262 13.575-6.771 21.408 2.921 4.171 7.381 6.904 11.575 9.627 4.839 3.139 6.726 8.682 4.886 14.41-1.358 4.23-6.209 7.556-10.394 8.302-5.754 1.025-9.689-1.798-13.726-5.391-9.331-8.305-18.05.042-23.811 7.883-3.717 5.06-5.571 11.793-.842 16.917 3.208 3.475 9.617 7.834 14.449 8.019 4.462.169 9.658-3.266 13.979-.893 3.936 2.162 7.072 8.414 10.237 11.713 6.787 7.07 15.179 12.871 25.218 13.61 6.377.47 12.258-1.18 17.564-4.72M313.373 33.499c5.67-8.702 4.461-19.588-2.797-26.846-3.629-3.629-9.678-6.048-15.728-4.838-8.465 2.419-16.932 8.467-26.608 7.257-9.676-1.21-16.936-6.048-26.611-6.048-3.628 1.21-6.048 3.629-8.467 6.048-3.629 7.257 1.209 16.934 9.676 19.353 10.888 2.42 21.772 0 31.45 6.049l7.257 7.257c20.562 12.096 44.753 27.821 36.289 54.432-1.211 3.628-3.629 7.257-7.258 9.677-6.049 2.419-13.305 3.629-19.354 4.838-3.629 1.21-4.838 7.257-2.418 10.886 4.838 4.839 13.306 3.629 18.144 9.678 2.42 2.418 0 6.047 1.209 8.467 3.629 4.838 7.258 9.676 9.678 14.515 2.418 8.467-3.629 16.934-3.629 25.401 0 1.209 0 3.629 1.209 4.839 7.256 7.257 10.885 18.145 7.256 27.82-4.838 10.887-15.723 16.935-27.82 19.354-4.838 1.21-9.676 0-13.305-2.419-2.419-1.209-3.628-3.629-4.84-6.048-2.418-3.629-2.418-8.467-1.207-12.096 1.207-2.419 3.628-3.628 4.837-6.048 1.21-1.21 2.421 0 3.628-1.21 3.629-2.418 7.256-7.257 6.049-12.095-1.209-4.84-2.42-8.467-6.049-12.096-4.837-7.257 2.42-14.515 1.211-21.772-1.211-1.209-2.42-3.629-4.839-3.629-10.888-2.419-15.725 7.258-18.144 15.725v10.887c0 2.419-1.209 4.838-2.419 6.047-7.258 6.049-19.354 1.21-22.983-7.255-4.839-9.676 3.629-22.982-6.048-31.45-10.886-1.209-19.354 7.257-25.813 15.897M82.726 420.295c-2.609-4.479-8.823-5.178-13.05-7.333-1.82-.926-2.539-1.347-4.458-1.445-2.737-.138-5.453.318-8.189-.155-2.197-.385-2.923-.729-4.945.099-1.465.599-3.168 2.099-4.322 3.154-3.907 3.579-3.616 9.973-9.182 12.104l-1.509.376c-.875.2-1.453.705-1.732 1.524-1.278.601-2.755.438-4.158.547-1.038.077-2.056.278-3.083.418-1.935.264-3.046-.108-4.866-.444-2.075-.379-4.223-1.531-6.213-2.627-3.089-1.7-3.791-4.13-6.005-6.68-4.585-5.279-4.559-11.269-4.674-17.951-.054-3.078.662-4.366 3.215-5.911 1.833-1.11 3.908-2.357 5.801-3.236 2.185-1.014 5.052-1.525 7.372-2.048 1.066-.24 2.057.064 3.063-.121 1.557-.285 3.562-1.667 4.901-2.474 2.46-1.48 4.732-3.762 6.976-5.606 3.958-3.251 5.165-7.602 6.556-12.322 1.405-4.763 1.156-7.699-1.217-12.042-1.417-2.596-3.676-4.048-6.087-5.665-1.126-.754-2.354-1.925-3.681-2.307a4.422 4.422 0 0 0-1.848-.184 1.093 1.093 0 0 0-.867.748c-1.458.112-2.408-.955-3.748-1.36-1.63-.496-2.345.259-3.476.476-4.31.827-8.616 1.42-12.301 4.161-1.509 1.122-2.348 3.284-3.832 4.25-.876.335-1.769.628-2.673.882a11.098 11.098 0 0 0-1.837 4.737c-.714 2.382-1.148 5.831-1.157 7.215M100.447 358.568c15.384-2.344 27.48-12.02 38.366-21.698 10.885-9.676 30.24-15.725 41.125-2.418 1.21 3.629 4.839 7.257 4.839 10.886v8.466c-1.211 4.839-3.628 9.678-7.257 12.096-3.629 1.209-7.257 2.419-12.096 2.419-9.678 0-10.887 13.305-6.049 19.354 10.886 14.516 20.562 33.869 9.676 49.595-3.629 3.628-8.467 7.258-13.305 9.675-3.629 2.42-6.049 1.208-9.676 3.629a66.184 66.184 0 0 1-13.833 2.974M24.974 249.638c1.123-1.509 4.94-1.028 6.543-.825 1.259.16 1.426.284 2.723.825 1.461.612 2.351.468 3.726.783 4.325.998 8.987 3.001 12.982 4.888 1.575.743 2.762 2.237 3.98 3.439 1.771 1.747 3.792 4.003 4.92 6.291.835 1.693 1.67 3.748 2.169 5.551.478 1.732.45 3.42 1.006 5.179.672 2.133.515 3.989.988 6.084.562 2.479 1.018 3.873-.122 6.449-.999 2.257-3.35 6.335-5.728 7.36-2.425 1.044-5.469 1.697-8.105 1.757-2.194.048-5.781.612-7.882-.138-1.274-.453-1.951-1.692-3.273-2.17-.942-.34-1.185-.258-1.961-.703-.791-.454-1.422-1.349-2.253-1.708-.972-.417-1.493-.357-2.445-.944-1.732-1.066-1.883-1.671-4.033-1.638-.794.012-1.634.059-2.426.017-1.234-.067-2.072-.775-3.242-.893-.954-.095-1.655.467-2.589.517-1.417.075-2.357-.542-3.864-.306-3.706.579-6.381 2.95-8.234 6.211-1.907 3.354-1.455 7.679-1.501 11.495-.055 4.639 2.962 9.192 7.09 11.532 4.136 2.345 9.439 2.189 14.181 2.189 3.486 0 6.252-.378 9.512-.791 1.546-.197 2.301-.851 3.99-.826 2.132.031 4.605-.369 6.713-.063 1.863.269 3.28 1.99 4.663 3.276 1.253 1.167 3.252 2.378 3.882 4.01.415 1.067.049 2.23.338 3.34.243.933.526 1.393.634 2.386.229 2.138 1.355 3.92 2.45 5.707.262.427.777.938 1.012 1.359.282.504.399 1.315.682 1.779 1.096 1.81 3 3.096 4.152 4.896.966 1.513 1.579 2.109 3.001 3.225 1.014.798 1.995 1.929 3.016 2.985M139.354 502.875c13.958 19.245 49.72 12.037 57.65-9.314 4.191-11.282-.504-23.386-10.636-29.649-2.045-1.266-4.505-2.455-6.876-2.921-3.294-.65-4.268.255-6.625 2.207-4.26 3.523-7.59 6.055-8.501 11.994-.386 2.517-.566 5.444-.268 7.971.365 3.092 2.188 4.59 4.029 6.921M60.048 496.561c-4.695 1.187-8.325 3.604-11.952 8.442-1.21 1.209 0 2.418-1.21 3.629-3.628 2.418-4.837 6.049-8.466 8.467-3.628 2.421-7.257 2.421-10.886 1.21-10.886-3.628-12.096-16.935-12.096-26.612 0-2.417 1.21-6.046 1.21-8.466 2.418-3.628 2.418-8.467 6.048-12.095 3.628-2.421 6.048-4.84 9.676-7.258 12.096-4.839 22.982 2.419 35.079 4.838 12.096 2.421 22.982-7.258 35.078-6.047 4.839 0 8.466-1.21 13.305 1.209s9.676 7.258 12.495 12.207M268.656 724.948c-10.093-8.265-22.189-9.477-34.285-8.265-2.418 1.208-4.839 2.42-8.467 3.627-6.047 2.422-9.678 7.259-14.516 12.097-3.627 4.841-8.466 8.47-9.676 13.306-6.048 12.098 7.256 21.771 14.515 31.449 3.63 4.84 10.888 4.84 15.727 8.467 4.838 2.423 9.676 2.423 14.515 3.629 4.839 0 9.676 1.21 13.306 0 12.096-4.838 21.771-12.096 32.658-20.562 1.209-1.209 1.209-2.419 2.418-3.629 2.421-3.626 7.259-3.626 10.888-4.839 9.678-2.419 15.725 8.468 13.307 16.935-1.209 6.049-4.838 9.677-8.467 13.306-2.422 2.419-4.84 3.629-7.258 4.838-3.629 1.21-7.258 3.629-11.187 2.42M313.633 559.048c4.121 6.521 4.812 16.129-.637 22.16-8.289 9.17-20.789 10.107-32.23 10.208-12.729.116-22.775-8.062-32.463-15.444-7.232-5.513-15.674-8.865-24.729-5.428-10.265 3.896-13.272 15.861-6.758 24.742 4.859 6.625 14.134 8.31 18.794 15.226 2.927 4.342 2.778 8.593 1.713 13.493-1.18 5.418-1.557 10.132 4.298 12.114 12.324 4.182 17.109-7.931 25.276-14.308 7.816-6.103 17.938-10.151 27.952-8.229 5.714 1.097 10.267 3.804 13.861 8.377 4.146 5.276 4.407 9.927 3.312 16.204-.801 4.602-4.525 10.105-8.613 12.474-2.332 1.351-4.629 1.364-6.477 3.627-1.317 1.61-2.258 3.901-2.69 5.925-1.646 7.654 4.315 13.76 9.573 18.388 6.473 5.696 15.283 11.085 18.385 19.557 3.707 10.129-1.19 21.962-9.446 28.313"/><path d="M86.502 524.086c-4.529 8.218-13.292 11.32-22.124 12.4-8.413 1.026-18.358-.68-26.25 2.781-8.055 3.529-13.411 11.86-14.887 20.339-.78 4.476-.514 9.184 1.028 13.479 1.917 5.347 6.188 7.844 11.488 9.474 5.951 1.833 12.658 1.254 18.144-1.776 4.899-2.708 5.037-7.735 7.175-12.383 1.041-2.264 2.45-4.312 4.7-5.499 2.839-1.501 5.683-.578 8.696-1.04 4.928-.757 10.275-5.366 15.269-4.777 5.482.646 8.069 7.054 8.056 11.953-.014 4.22-2.494 6.61-6.28 8.028-4.431 1.659-8.082 1.086-10.819 5.574-2.721 4.46 1.205 7.626-1.285 12.329-2.102 3.97-6.148 6.675-10.316 8.092-4.977 1.69-8.836.43-13.85-.013-9.154-.807-17.038 9.572-14.482 18.386 1.311 4.52 6.606 7.135 9.989 10.036 4.004 3.438 8.916 4.703 14.169 4.101 2.458-.281 5.206-1.121 7.365-2.348 2.281-1.301 3.73-3.604 6.048-4.84 4.459-2.382 8.352.167 8.361 4.947.013 7.358-.529 15.433 3.709 21.916 4.621 7.072 14.292 6.72 19.91.931 7.263-7.479 6.482-20.114 2.395-28.849-4.533-9.687-11.761-18.908-8.337-30.147 3.268-10.734 10.213-21.113 17.102-29.883 3.969-5.051 8.981-10.06 15.72-10.274 6.456-.205 12.604 1.873 18.96 2.28 5.169.329 8.872-5.229 12.212-8.672 3.633-3.747 7.326-7.542 11.825-10.264 4.179-2.528 8.302-4.229 12.095-.296 3.175 3.291 4.272 8.457 8.706 10.414 8.298 3.66 14.906-6.646 18.482-12.536 2.562-4.213 5.746-7.354 10.666-8.677a16.314 16.314 0 0 1 7.268-.292c2.928.552 3.881 1.076 4.875 3.688 2.629 6.93 4.822 15.852 13.124 17.932 10.262 2.564 22.139-3.416 32.518-3.697M85.287 685.193l.181-.714c.764.068.626.593 1.219.941.589.342 1.174.401 1.778.721 2.351 1.237 3.966 2.357 6.545 3.099 4.929 1.409 11.589 2.554 16.813 1.661 1.547-.269 3.507-1.183 4.958-1.795 2.075-.884 4.748-1.852 6.552-3.082 3.153-2.15 6.716-4.621 9.539-7.35 2.733-2.638 6.986-5.327 10.341-7.283 1.972-1.15 4.066-1.511 6.117-2.39.668-.284.938-.635 1.63-.99 1.663-.853 3.1-1.021 4.776-1.412 2.08-.486 3.441-.848 5.693-.836 1.599.008 3.198 0 4.798 0 1.895 0 3.79-.031 5.684-.003 2.248.032 4.213-.669 6.503-.784 1.93-.099 3.645-.771 5.602-.828 2.587-.072 5.09-.184 7.567.591 4.843 1.501 8.917 5.573 11.583 9.797 2.46 3.893 2.748 8.805 2.75 13.266.001 2.323.143 3.966-.799 6.103-1.161 2.646-2.577 4.904-4.849 6.646-1.548 1.187-3.346 2.126-4.66 3.441-1.269 1.269-.841 1.488-2.786 1.885-1.492.306-2.816-.049-4.335.524-1.407.528-2.207 1.235-3.786 1.503-1.699.289-3.596.306-5.343.588-3.227.522-6.691.015-9.895-.402-2.614-.342-4.91-.646-7.262-1.645-2.434-1.03-5.637-2.067-8.208-2.475-1.771-.285-2.978-1.207-4.773-.986-2.346.293-4.812-.011-7.146.513-2.858.642-5.179 1.96-7.469 3.764-2.008 1.582-4.356 2.622-6.323 4.172-2.084 1.644-3.814 6.437-4.175 9.159-.311 2.346-.119 5.301.791 7.455 1.8 4.261 2.865 9.124 6.072 12.571 2.598 2.788 5.446 6.334 9.445 6.81 2.051.242 4.349.6 6.419.6h4.8c1.747 0 5.64-1.435 7.139-.514 1.337.821 1.966 1.854 3.587 2.566 2.257.994 4.058.828 6.455.851 3.237.021 4.737-.177 7.121-2.474 2.666-2.564 5.458-4.598 5.721-8.406.22-3.179-.664-7.712-3.475-9.637-2.792-1.917-6.539-2.713-9.483-4.509-2.243-1.367-5.483-3.853-8.217-3.35-4.021.742-6.119 2.38-10.428 1.495"/></g></svg>