<?xml version="1.0" encoding="utf-8"?>
<!-- Generator: Adobe Illustrator 16.0.0, SVG Export Plug-In . SVG Version: 6.00 Build 0)  -->
<svg version="1.2" baseProfile="tiny" id="Calque_1"
	 xmlns="http://www.w3.org/2000/svg" xmlns:xlink="http://www.w3.org/1999/xlink" x="0px" y="0px" width="279.356px"
	 height="674.667px" viewBox="0 0 279.356 674.667" xml:space="preserve">
<g>
	<path fill="none" stroke="#FFFFFF" stroke-width="3" stroke-linecap="round" stroke-linejoin="round" stroke-miterlimit="10" d="
		M193.988,44.555l0.266,45.765l0.168,0.057l26.938-36.688l18.498,6.171l-19.939,59.766l-12.305-4.102l14.131-42.358l-0.167-0.055
		l-28.78,37.468l-10.129-3.379l-0.656-46.825l-0.168-0.056l-13.993,41.937l-12.305-4.105l19.941-59.767L193.988,44.555z"/>
	<path fill="none" stroke="#FFFFFF" stroke-width="3" stroke-linecap="round" stroke-linejoin="round" stroke-miterlimit="10" d="
		M139.6,139.074l17.296-17.566l12.996,5.744l-3.922,67.153l-13.155-5.815l1.313-14.759l-21.551-9.524l-10.19,10.834l-12.753-5.636
		l18.387-18.672 M140.062,156.325l14.932,6.598l2.082-24.355l-0.162-0.071l-7.074,7.485"/>
	<path fill="none" stroke="#FFFFFF" stroke-width="3" stroke-linecap="round" stroke-linejoin="round" stroke-miterlimit="10" d="
		M83.207,204.344c1.765-2.117,3.748-3.945,5.944-5.482c3.277-2.297,6.987-3.82,11.133-4.573c4.146-0.755,8.565-0.566,13.253,0.566
		c3.146,0.76,6.077,1.967,8.794,3.621c2.718,1.655,5.041,3.686,6.973,6.088c1.929,2.404,3.344,5.137,4.238,8.195
		c0.894,3.061,1.093,6.377,0.596,9.947L121.27,219.6c0.027-3.625-0.896-6.571-2.768-8.839c-1.873-2.267-4.44-3.795-7.698-4.582
		c-3.032-0.732-5.748-0.767-8.145-0.105c-2.399,0.661-4.495,1.818-6.286,3.474 M89.087,223.176
		c-0.621,2.574-0.925,5.146-0.912,7.722c0.014,2.577,0.443,4.996,1.289,7.256c0.846,2.262,2.184,4.235,4.018,5.917
		c1.832,1.685,4.264,2.892,7.296,3.623c4.46,1.078,8.176,0.781,11.155-0.89c2.975-1.671,5.181-4.605,6.618-8.798l-13.554-3.272
		l2.424-10.037l25.735,6.213l-7.998,33.111l-8.578-2.07l0.306-7.281c-3.147,2.508-6.327,4.025-9.542,4.55
		c-3.212,0.525-6.308,0.429-9.28-0.289c-4.69-1.132-8.712-2.967-12.062-5.501c-3.353-2.534-5.97-5.538-7.852-9.021
		c-1.884-3.481-3.046-7.318-3.487-11.509c-0.439-4.192-0.121-8.518,0.955-12.978"/>
	<path fill="none" stroke="#FFFFFF" stroke-width="3" stroke-linecap="round" stroke-linejoin="round" stroke-miterlimit="10" d="
		M106.46,302.626l10.001,35.678l-14.332-1.214l-3.565-14.386l-23.476-1.989l-6.109,13.563l-13.893-1.178l29.06-60.768l14.157,1.199
		l4.864,17.35 M92.355,298.287l-2.486-9.883l-0.175-0.016l-10.129,22.346l16.268,1.378l-1.599-6.356"/>
	<path fill="none" stroke="#FFFFFF" stroke-width="3" stroke-linecap="round" stroke-linejoin="round" stroke-miterlimit="10" d="
		M89.332,383.222l6.008-9.402 M88.396,384.685l0.936-1.463 M96.736,397.068l-8.232,12.883l34.397-4.422l1.484,11.55l-52.688,6.774
		L70.302,413l11.708-18.321 M111.601,373.807l-8.342,13.056 M95.339,373.82l3.332-5.214l-30.896,3.972l-1.485-11.554l49.188-6.321
		l1.396,10.852l-5.273,8.253"/>
	<path fill="none" stroke="#FFFFFF" stroke-width="3" stroke-linecap="round" stroke-linejoin="round" stroke-miterlimit="10" d="
		M117.682,474.971l6.834,17.438l-11.5,4.508l-5.349-13.648 M102.165,469.232l-9.649-24.617l11.5-4.509l7.788,19.871"/>
	<path fill="none" stroke="#FFFFFF" stroke-width="3" stroke-linecap="round" stroke-linejoin="round" stroke-miterlimit="10" d="
		M131.781,550.1l-18.721-29.801l11.656-7.322l44.753,21.805l0.149-0.095l-22.484-35.792l10.984-6.9l33.516,53.352l-11.732,7.37
		l-44.63-21.776l-0.149,0.094l11.438,18.207 M154.97,562.628l2.591,4.124l-10.986,6.898l-5.874-9.351"/>
	<path fill="none" stroke="#FFFFFF" stroke-width="3" stroke-linecap="round" stroke-linejoin="round" stroke-miterlimit="10" d="
		M212.698,593.132l17.93-14.071l6.646,8.468l-14.022,11.005 M188.693,597.521l-8.51-10.843l37.07-29.094l7.192,9.165l-26.171,20.537
		l3.522,4.49 M213.257,606.376l9.531,12.151l26.729-20.976l7.188,9.164l-37.624,29.528l-21.118-26.908"/>
	<path fill="none" stroke="#FFFFFF" stroke-width="3" stroke-linecap="round" stroke-linejoin="round" stroke-miterlimit="10" d="
		M124.829,193.516c4.022-6.189,11.022-6.189,15.022-0.189c5,8,10,19,21,19c4,0,8,1,11-1c2-2,5-4,7-6c1-1,2,0,3-1c6-9,8-24,22-23
		c2,5,6,8,5,14c-1,5-4,8-5,13c0,6,2,12,1,18c-2,9-11,14-19,14c-8-1-16-4-25-3c-9,2-12,13-8,21c2,5,8,5,12.101,7.088"/>
	<path fill="none" stroke="#FFFFFF" stroke-width="3" stroke-linecap="round" stroke-linejoin="round" stroke-miterlimit="10" d="
		M150.851,151.475c-8.317,0.707-15.801-5.411-18.719-12.888c-1.817-4.655-1.28-9.693-1.28-14.594c0-5.168,2.787-8.684,4.383-13.404
		c1.667-4.932,0.639-9.894-2.028-14.27c-2.637-4.326-3.499-7.242-0.898-11.796c3.834-6.716,10.201-13.012,11.333-20.95
		c1.281-8.983-6.541-14.95-15.04-14.497c-4.191,0.223-10.188,3.446-12.917,6.531c-3.586,4.055-3.115,8.272-2.199,13.187
		c0.706,3.785,2.881,11.408,0.541,14.967c-1.25,1.902-5.909,2.767-8.129,3.615c-5.752,2.197-11.943,4.585-16.44,8.95
		c-4.541,4.407-5.879,10.877-3.373,16.773c2.734,6.433,11.633,4.099,17.127,4.738c7.563,0.88,10.24,9.059,8.896,15.739
		c-1.913,9.507-14.422,8.821-20.998,4.856c-6.118-3.689-11.431-12.509-19.474-9.226c-7.256,2.962-10.137,11.222-5.598,17.698
		c2.417,3.448,6.103,5.708,9.57,7.959c4,2.596,5.561,7.178,4.04,11.914c-1.124,3.497-5.133,6.247-8.593,6.863
		c-4.757,0.848-8.011-1.486-11.348-4.457c-7.714-6.865-14.923,0.035-19.685,6.517c-3.074,4.184-4.605,9.75-0.697,13.986
		c2.651,2.874,7.95,6.478,11.945,6.63c3.689,0.14,7.985-2.7,11.557-0.738c3.254,1.787,5.846,6.956,8.464,9.683
		c5.611,5.846,12.548,10.641,20.848,11.251c5.271,0.388,10.133-0.976,14.52-3.901"/>
	<path fill="none" stroke="#FFFFFF" stroke-width="3" stroke-linecap="round" stroke-linejoin="round" stroke-miterlimit="10" d="
		M264.164,34.521c4.688-7.194,3.688-16.194-2.312-22.194c-3-3-8-5-13-4c-7,2-14,7-22,6s-14-5-22-5c-3,1-5,3-7,5c-3,6,1,14,8,16
		c9,2,18,0,26,5c2,2,4,4,6,6c17,10,37,23,30,45c-1,3-3,6-6,8c-5,2-11,3-16,4c-3,1-4,6-2,9c4,4,11,3,15,8c2,2,0,5,1,7c3,4,6,8,8,12
		c2,7-3,14-3,21c0,1,0,3,1,4c6,6,9,15,6,23c-4,9-13,14-23,16c-4,1-8,0-11-2c-2-1-3-3-4-5c-2-3-2-7-1-10c1-2,3-3,4-5c1-1,2,0,3-1
		c3-2,6-6,5-10s-2-7-5-10c-4-6,2-12,1-18c-1-1-2-3-4-3c-9-2-13,6-15,13c0,3,0,6,0,9c0,2-1,4-2,5c-6,5-16,1-19-6c-4-8,3-19-5-26
		c-9-1-16,6-21.341,13.143"/>
	<path fill="none" stroke="#FFFFFF" stroke-width="3" stroke-linecap="round" stroke-linejoin="round" stroke-miterlimit="10" d="
		M73.483,354.297c-2.158-3.703-7.294-4.282-10.789-6.063c-1.504-0.766-2.1-1.113-3.686-1.194c-2.263-0.114-4.508,0.264-6.77-0.13
		c-1.816-0.317-2.417-0.601-4.089,0.083c-1.211,0.494-2.619,1.733-3.573,2.606c-3.231,2.96-2.989,8.246-7.591,10.006
		c-0.417,0.104-0.832,0.208-1.248,0.312c-0.723,0.165-1.2,0.584-1.432,1.261c-1.057,0.497-2.278,0.361-3.438,0.451
		c-0.859,0.065-1.7,0.23-2.549,0.346c-1.6,0.219-2.518-0.09-4.023-0.366c-1.715-0.315-3.492-1.267-5.136-2.173
		c-2.553-1.406-3.134-3.413-4.965-5.521c-3.791-4.365-3.768-9.316-3.865-14.84c-0.044-2.548,0.547-3.611,2.658-4.889
		c1.515-0.918,3.231-1.949,4.795-2.675c1.807-0.839,4.177-1.261,6.095-1.693c0.881-0.198,1.7,0.054,2.531-0.099
		c1.288-0.235,2.944-1.379,4.052-2.045c2.034-1.224,3.912-3.11,5.768-4.635c3.271-2.688,4.27-6.285,5.42-10.188
		c1.161-3.938,0.956-6.365-1.006-9.955c-1.172-2.146-3.039-3.346-5.034-4.683c-0.93-0.624-1.945-1.592-3.043-1.907
		c-0.5-0.159-1.008-0.211-1.527-0.152c-0.356,0.071-0.595,0.278-0.716,0.619c-1.207,0.093-1.991-0.789-3.099-1.125
		c-1.349-0.41-1.94,0.214-2.874,0.393c-3.563,0.684-7.123,1.174-10.169,3.439c-1.248,0.928-1.942,2.715-3.168,3.514
		c-0.725,0.277-1.462,0.52-2.21,0.729c-0.807,1.184-1.313,2.489-1.519,3.917c-0.591,1.97-0.949,4.82-0.957,5.966"/>
	<path fill="none" stroke="#FFFFFF" stroke-width="3" stroke-linecap="round" stroke-linejoin="round" stroke-miterlimit="10" d="
		M88.133,303.264c12.719-1.938,22.719-9.938,31.719-17.938s25-13,34-2c1,3,4,6,4,9c0,2,0,5,0,7c-1,4-3,8-6,10c-3,1-6,2-10,2
		c-8,0-9,11-5,16c9,12.001,17,28.001,8,41.001c-3,3-7,6-11,8c-3,2-5,1-8,3c-3,1-7,2-11.436,2.459"/>
	<path fill="none" stroke="#FFFFFF" stroke-width="3" stroke-linecap="round" stroke-linejoin="round" stroke-miterlimit="10" d="
		M25.737,213.209c0.929-1.247,4.084-0.85,5.41-0.682c1.041,0.132,1.179,0.234,2.251,0.682c1.208,0.506,1.943,0.387,3.08,0.648
		c3.575,0.823,7.43,2.48,10.732,4.04c1.302,0.615,2.283,1.851,3.291,2.844c1.464,1.443,3.134,3.31,4.067,5.201
		c0.69,1.399,1.381,3.098,1.794,4.59c0.396,1.432,0.373,2.827,0.831,4.281c0.556,1.765,0.426,3.299,0.818,5.031
		c0.464,2.049,0.842,3.202-0.101,5.331c-0.826,1.865-2.769,5.238-4.735,6.084c-2.005,0.863-4.521,1.404-6.701,1.453
		c-1.813,0.041-4.779,0.507-6.516-0.112c-1.054-0.375-1.614-1.4-2.706-1.795c-0.779-0.282-0.98-0.213-1.621-0.582
		c-0.655-0.376-1.176-1.115-1.864-1.411c-0.804-0.346-1.234-0.296-2.021-0.781c-1.432-0.882-1.557-1.382-3.333-1.354
		c-0.657,0.01-1.351,0.048-2.006,0.013c-1.02-0.055-1.713-0.641-2.68-0.737c-0.789-0.079-1.369,0.385-2.141,0.426
		c-1.171,0.062-1.948-0.448-3.194-0.253c-3.064,0.479-5.276,2.439-6.808,5.135c-1.577,2.773-1.203,6.349-1.241,9.503
		c-0.046,3.835,2.449,7.6,5.861,9.535c3.42,1.938,7.804,1.81,11.724,1.81c2.882,0,5.169-0.313,7.864-0.654
		c1.278-0.162,1.902-0.703,3.299-0.683c1.764,0.025,3.808-0.305,5.551-0.052c1.54,0.223,2.711,1.645,3.854,2.709
		c1.037,0.965,2.689,1.967,3.21,3.314c0.342,0.883,0.041,1.844,0.28,2.762c0.201,0.771,0.435,1.151,0.523,1.973
		c0.189,1.768,1.12,3.241,2.025,4.718c0.217,0.353,0.643,0.774,0.837,1.123c0.232,0.416,0.331,1.088,0.563,1.472
		c0.907,1.496,2.48,2.559,3.433,4.047c0.799,1.25,1.307,1.744,2.48,2.666c0.839,0.66,1.649,1.594,2.495,2.468"/>
	<g>
		<path fill="none" stroke="#FFFFFF" stroke-width="3" stroke-linecap="round" stroke-linejoin="round" stroke-miterlimit="10" d="
			M120.299,422.568c11.539,15.911,41.104,9.952,47.662-7.7c3.465-9.329-0.416-19.335-8.794-24.513
			c-1.692-1.046-3.725-2.028-5.684-2.415c-2.725-0.538-3.528,0.211-5.478,1.823c-3.522,2.913-6.276,5.007-7.029,9.917
			c-0.318,2.079-0.467,4.5-0.222,6.59c0.302,2.557,1.809,3.795,3.331,5.723"/>
		<path fill="none" stroke="#FFFFFF" stroke-width="3" stroke-linecap="round" stroke-linejoin="round" stroke-miterlimit="10" d="
			M54.734,417.347c-3.882,0.98-6.882,2.98-9.882,6.98c-1,1,0,2-1,3c-3,2-4,5-7,7s-6,2-9,1c-9-3-10-14-10-22c0-2,1-5,1-7
			c2-3,2-7,5-10c3-2,5-4,8-6c10-4,19,2,29,4s19-6,29-5c4,0,7-1,11,1s8,6,10.33,10.092"/>
	</g>
	<path fill="none" stroke="#FFFFFF" stroke-width="3" stroke-linecap="round" stroke-linejoin="round" stroke-miterlimit="10" d="
		M227.197,606.162c-8.346-6.834-18.346-7.834-28.346-6.834c-2,1-4,2-7,3c-5,2-8,6-12,10c-3,4-7,7-8,11c-5,10,6,18,12,26
		c3,4,9,4,13,7c4,2,8,2,12,3c4,0,8,1,11,0c10-4,18-10,27-17c1-1,1-2,2-3c2-3,6-3,9-4c8-2,13,7,11,14c-1,5-4,8-7,11c-2,2-4,3-6,4
		c-3,1-6,3-9.244,2"/>
	<path fill="none" stroke="#FFFFFF" stroke-width="3" stroke-linecap="round" stroke-linejoin="round" stroke-miterlimit="10" d="
		M264.378,469.007c3.409,5.394,3.979,13.334-0.527,18.32c-6.85,7.581-17.184,8.355-26.643,8.44
		c-10.524,0.095-18.83-6.666-26.84-12.77c-5.98-4.558-12.957-7.328-20.444-4.486c-8.485,3.221-10.973,13.113-5.587,20.454
		c4.018,5.477,11.685,6.869,15.539,12.587c2.419,3.589,2.296,7.103,1.415,11.155c-0.974,4.48-1.288,8.375,3.554,10.017
		c10.189,3.455,14.144-6.558,20.895-11.828c6.463-5.046,14.834-8.394,23.113-6.803c4.722,0.906,8.484,3.145,11.458,6.926
		c3.429,4.36,3.644,8.205,2.739,13.396c-0.663,3.803-3.74,8.355-7.121,10.313c-1.928,1.115-3.827,1.126-5.355,2.997
		c-1.088,1.333-1.865,3.227-2.225,4.898c-1.359,6.329,3.57,11.375,7.916,15.201c5.35,4.71,12.635,9.164,15.197,16.166
		c3.064,8.375-0.984,18.157-7.81,23.409"/>
	<path fill="none" stroke="#FFFFFF" stroke-width="3" stroke-linecap="round" stroke-linejoin="round" stroke-miterlimit="10" d="
		M76.604,440.103c-3.744,6.794-10.99,9.36-18.291,10.252c-6.955,0.849-15.177-0.562-21.702,2.299
		c-6.659,2.918-11.086,9.808-12.307,16.814c-0.645,3.702-0.425,7.593,0.849,11.143c1.586,4.421,5.117,6.484,9.498,7.833
		c4.92,1.515,10.465,1.037,15-1.47c4.049-2.238,4.164-6.395,5.931-10.236c0.861-1.872,2.025-3.563,3.886-4.546
		c2.347-1.24,4.699-0.477,7.188-0.859c4.075-0.627,8.495-4.436,12.624-3.949c4.533,0.533,6.671,5.83,6.66,9.883
		c-0.01,3.488-2.061,5.464-5.192,6.636c-3.663,1.372-6.681,0.899-8.945,4.608c-2.249,3.687,0.996,6.304-1.062,10.192
		c-1.737,3.281-5.083,5.518-8.528,6.689c-4.116,1.398-7.306,0.355-11.45-0.009c-7.569-0.667-14.086,7.914-11.973,15.198
		c1.084,3.736,5.462,5.898,8.258,8.298c3.311,2.841,7.372,3.888,11.715,3.39c2.033-0.232,4.304-0.927,6.087-1.941
		c1.887-1.073,3.084-2.978,5-4c3.687-1.968,6.904,0.139,6.912,4.091c0.012,6.083-0.438,12.757,3.067,18.118
		c3.82,5.846,11.815,5.556,16.461,0.771c6.004-6.185,5.358-16.632,1.979-23.853c-3.748-8.007-9.723-15.631-6.893-24.924
		c2.702-8.874,8.444-17.455,14.139-24.705c3.281-4.176,7.425-8.316,12.996-8.494c5.337-0.17,10.419,1.549,15.675,1.885
		c4.273,0.273,7.335-4.321,10.096-7.17c3.003-3.098,6.058-6.234,9.775-8.483c3.455-2.09,6.863-3.497,10.001-0.244
		c2.624,2.721,3.532,6.991,7.198,8.609c6.859,3.026,12.322-5.495,15.281-10.364c2.115-3.483,4.748-6.08,8.818-7.174
		c1.954-0.524,4.018-0.618,6.007-0.242c2.419,0.458,3.21,0.892,4.028,3.049c2.175,5.729,3.986,13.106,10.852,14.824
		c8.482,2.122,18.302-2.824,26.883-3.057"/>
	<path fill="none" stroke="#FFFFFF" stroke-width="3" stroke-linecap="round" stroke-linejoin="round" stroke-miterlimit="10" d="
		M75.6,573.294c0.049-0.197,0.099-0.394,0.149-0.59c0.632,0.058,0.518,0.49,1.008,0.778c0.487,0.285,0.971,0.332,1.47,0.595
		c1.943,1.023,3.278,1.95,5.411,2.561c4.076,1.166,9.582,2.111,13.9,1.374c1.279-0.219,2.898-0.977,4.099-1.485
		c1.714-0.729,3.924-1.527,5.416-2.545c2.606-1.777,5.552-3.82,7.887-6.077c2.259-2.181,5.775-4.403,8.55-6.021
		c1.629-0.95,3.36-1.248,5.057-1.976c0.553-0.237,0.775-0.525,1.347-0.818c1.375-0.705,2.562-0.845,3.949-1.168
		c1.719-0.402,2.846-0.699,4.706-0.691c1.322,0.006,2.644,0,3.965,0c1.565,0,3.134-0.025,4.698-0.002
		c1.858,0.026,3.484-0.553,5.376-0.649c1.596-0.082,3.013-0.638,4.632-0.685c2.138-0.062,4.206-0.151,6.257,0.485
		c4.003,1.243,7.372,4.609,9.577,8.102c2.033,3.219,2.271,7.279,2.271,10.967c0.002,1.922,0.119,3.28-0.658,5.046
		c-0.962,2.187-2.131,4.054-4.009,5.495c-1.279,0.981-2.767,1.758-3.853,2.846c-1.049,1.05-0.694,1.231-2.305,1.56
		c-1.233,0.251-2.328-0.042-3.586,0.433c-1.161,0.438-1.822,1.021-3.129,1.242c-1.405,0.238-2.973,0.252-4.417,0.485
		c-2.667,0.432-5.53,0.012-8.179-0.335c-2.16-0.281-4.059-0.532-6.004-1.357c-2.011-0.853-4.66-1.709-6.785-2.045
		c-1.464-0.231-2.462-0.997-3.946-0.813c-1.939,0.242-3.979-0.009-5.908,0.424c-2.363,0.53-4.282,1.62-6.174,3.11
		c-1.661,1.309-3.602,2.168-5.228,3.449c-1.723,1.358-3.152,5.32-3.451,7.572c-0.257,1.94-0.099,4.384,0.654,6.164
		c1.488,3.522,2.368,7.543,5.02,10.393c2.147,2.307,4.502,5.199,7.808,5.592c1.696,0.203,3.595,0.458,5.307,0.458
		c1.323,0,2.646,0,3.968,0c1.444,0,4.662-1.147,5.902-0.386c1.105,0.678,1.625,1.55,2.964,2.142
		c1.866,0.822,3.356,0.693,5.337,0.709c2.676,0.021,3.917-0.14,5.888-2.036c2.204-2.121,4.511-3.799,4.729-6.947
		c0.182-2.628-0.55-6.377-2.873-7.969c-2.308-1.583-5.406-2.242-7.84-3.727c-1.854-1.131-4.533-3.184-6.793-2.768
		c-3.324,0.613-5.059,1.968-8.621,1.237"/>
</g>
</svg>
