<svg version="1.2" baseProfile="tiny" xmlns="http://www.w3.org/2000/svg" viewBox="0 0 1896.74 1892.856"><g fill="none" stroke="#FFF" stroke-width="2" stroke-miterlimit="10"><path d="M877.944 588.724C842.96 410.469 805.382 233.276 769.775 55.566M1134.764 1874.508a21825.566 21825.566 0 0 0-7.316-36.69c2.441 12.229 4.889 24.457 7.316 36.69zM920.878 502.072a6004.008 6004.008 0 0 1 5.529 86.372l.019-.001c-1.133-28.833-3.282-57.608-5.548-86.371zM761.976 16.466c-.001 0-.001 0 0 0 2.587 13.037 5.188 26.069 7.8 39.1-2.603-13.033-5.213-26.062-7.8-39.1zM1006.506 1393.193c-4.125-30.644-8.334-61.399-12.286-91.918 3.36 30.716 7.87 61.368 12.286 91.918z"/><path d="M581.285 71.87c2.755 7.189 6.771 14.195 9.345 22.619 5.094 13 11.206 24 15.281 37 1.019 2 3.056 4 4.075 6 1.019 3 2.037 7 3.056 10 26.487 61 52.973 121 77.422 183 3.056 8 6.112 15 10.188 22 1.019 2 0 3 1.019 5 8.15 17 14.262 34 21.393 51l6.112 12 3.056 9c13.244 29 24.449 58 36.916 86.767-12.466-28.767-23.672-57.767-36.916-86.767l-3.056-9-6.112-12c-7.131-17-13.243-34-21.393-51-1.019-2 0-3-1.019-5-4.075-7-7.131-14-10.188-22-24.449-62-50.936-122-77.422-183-1.019-3-2.038-7-3.056-10-1.019-2-3.056-4-4.075-6-4.075-13-10.187-24-15.281-37-2.575-8.425-6.59-15.43-9.345-22.619m119.196-40.991c5.564 23.447 12.404 46.658 18.801 69.883-6.397-23.225-13.237-46.436-18.801-69.883m123.772-24.69c4.856 37.774 10.168 75.488 15.355 113.217-5.187-37.729-10.499-75.442-15.355-113.217l-.011.002c4.709 37.667 9.712 75.296 14.812 112.912-5.101-37.616-10.104-75.245-14.812-112.912M1072.475 6.188c-22.273 162.003-42.554 323.159-64.797 485.438 22.243-162.279 42.523-323.435 64.797-485.438m123.612 24.645c-5.552 18.181-10.659 36.495-15.595 54.852 4.936-18.357 10.043-36.67 15.595-54.852m60.364 18.521c-12.219 37.442-24.918 74.725-37.868 111.919 12.95-37.194 25.649-74.477 37.868-111.919m116.399 48.967a9.727 9.727 0 0 1-.479 1.167c-4 6-9 12-12 18-1 3-2 7-3 10-12 25-26 49-36.938 73.57 10.938-24.57 24.938-48.57 36.938-73.57 1-3 2-7 3-10 3-6 8-12 12-18 .193-.388.344-.778.479-1.167m54.471 29.621c-12.501 21.009-24.917 42.068-37.355 63.114 12.438-21.046 24.854-42.105 37.355-63.114m103.447 70.297c-16.609 21.909-33.392 43.685-50.235 65.413 16.843-21.728 33.625-43.504 50.235-65.413m47.795 39.884c-2.047 2.332-4.093 4.664-6.142 6.995 2.05-2.331 4.096-4.664 6.142-6.995m44.955 42.791l-64.777 63.587 64.777-63.587M1800.797 531.651c-18.993 11.513-38.669 18.941-58.025 28.473 19.356-9.532 39.032-16.96 58.025-28.473m25.097 56.162c-10.95 4.316-21.933 8.55-32.892 12.841 10.959-4.291 21.941-8.525 32.892-12.841m21.314 57.578c-28.171 9.463-56.296 19.061-84.459 28.545 28.163-9.485 56.288-19.082 84.459-28.545m30.974 117.692c-20.611 3.527-41.176 7.337-61.702 11.331 20.526-3.994 41.09-7.803 61.702-11.331m17.558 182.404c0-.667-.012-1.332-.013-1.999h-111.154 111.154m-7.733 123.668c-11.736-1.518-23.473-3.035-35.208-4.558a69114.12 69114.12 0 0 0 35.208 4.558m-9.729 60.317c-39.146-7.534-78.295-15.042-117.438-22.592 39.143 7.55 78.292 15.057 117.438 22.592m-13.609 59.546c-2.062-.539-4.124-1.075-6.185-1.615 2.061.539 4.124 1.075 6.185 1.615m-63.893 172.372c-4.649-2.496-9.224-5.152-13.936-7.458a4026.465 4026.465 0 0 0-31.316-15.134c-20.704-9.912-41.461-19.725-62.107-29.752-42.157-20.476-84.638-40.305-126.759-60.858 42.121 20.554 84.602 40.383 126.759 60.858 20.646 10.027 41.403 19.84 62.107 29.752a4026.465 4026.465 0 0 1 31.316 15.134c4.712 2.305 9.286 4.962 13.936 7.458m-60.654 106.535c-15.489-10.099-31.314-19.693-46.831-29.752-19.179-12.434-37.68-25.841-56.677-38.537-16.146-10.789-32.384-21.445-48.649-32.057 16.266 10.611 32.503 21.268 48.649 32.057 18.997 12.696 37.498 26.104 56.677 38.537 15.517 10.058 31.342 19.653 46.831 29.752m-116.519 144.06c-33.108-32.994-66.588-63.917-99.052-97.085 32.464 33.168 65.943 64.091 99.052 97.085m-92.841 82.761c-27.722-36.361-55.99-71.365-83.326-107.113 27.336 35.748 55.604 70.752 83.326 107.113m-50.456 36.781c-10.694-16.156-21.678-32.124-32.632-48.11-12.736-18.588-24.933-37.553-38.224-55.746-6.499-8.893-12.665-18-18.27-27.457-1.124-1.896-1.891-3.989-3.325-5.686-1.429-1.686-3.341-2.898-4.699-4.627-3.548-4.512-6.461-9.693-9.65-14.461-12.449-18.612-24.982-37.171-37.516-55.729-23.999-35.529-47.782-71.16-72.529-106.194 24.747 35.034 48.53 70.665 72.529 106.194 12.533 18.558 25.066 37.116 37.516 55.729 3.189 4.768 6.103 9.949 9.65 14.461 1.358 1.729 3.271 2.941 4.699 4.627 1.435 1.696 2.201 3.789 3.325 5.686 5.604 9.457 11.771 18.564 18.27 27.457 13.291 18.193 25.487 37.158 38.224 55.746 10.954 15.986 21.938 31.954 32.632 48.11m-107.825 63.317c-1.546-3.048-3.343-5.97-4.991-8.978-2.787-5.092-5.276-10.355-7.881-15.539a18192.35 18192.35 0 0 1-15.651-31.23 34913.14 34913.14 0 0 1-30.999-62.16c-20.625-41.439-41.217-82.896-61.959-124.281-20.765-41.428-42.362-82.444-63.24-123.816 20.878 41.372 42.476 82.389 63.24 123.816 20.742 41.385 41.334 82.842 61.959 124.281a34578.144 34578.144 0 0 0 30.999 62.16 18950.074 18950.074 0 0 0 15.651 31.23c2.604 5.184 5.094 10.447 7.881 15.539 1.648 3.008 3.445 5.93 4.991 8.978m-57.406 26.422c-.611-1.562-1.155-3.168-1.692-4.778-3-10-8-19-12-29-4-11-9-22-15-33-2-4-2-8-3.887-11.884 1.887 3.884 1.887 7.884 3.887 11.884 6 11 11 22 15 33 4 10 9 19 12 29 .537 1.61 1.081 3.216 1.692 4.778m-118.858 40.841c-11.25-43.658-23.146-87.102-35.388-130.49 12.242 43.389 24.138 86.832 35.388 130.49m-61.44 14.4c-2.427-12.232-4.875-24.461-7.316-36.69 2.448 12.228 4.888 24.457 7.316 36.69m-62.285 10.276l.015-.002m-548.817-92.238c.181-.739.389-1.446.693-2.056 4-7 9-11 13-18 2-4 2-10 4-14 14-26 26-51 39.117-76.984-13.117 25.984-25.117 50.984-39.117 76.984-2 4-2 10-4 14-4 7-9 11-13 18-.305.61-.513 1.317-.693 2.056m-54.254-29.511c22.706-38.14 45.184-76.416 67.914-114.543 23.473-39.372 45.542-79.561 68.814-119.051 18.426-31.267 36.801-62.562 55.187-93.853-18.385 31.29-36.76 62.586-55.187 93.853-23.273 39.49-45.342 79.679-68.814 119.051-22.73 38.127-45.208 76.404-67.914 114.543m-151.24-110.178c1.628-1.85 3.248-3.707 4.882-5.553-1.634 1.846-3.254 3.704-4.882 5.553m-161.582-186.974c33.506-22.176 68.153-42.682 100.792-66.14 4.527-3.254 8.816-7.021 13.523-10.003 4.707-2.982 9.976-4.99 14.788-7.793 9.057-5.275 16.553-12.402 25.089-18.368 8.995-6.286 18.849-11.54 28.196-17.312 9.528-5.882 19.085-11.772 28.38-18.006 12.153-8.151 24.432-15.994 36.743-23.93 12.912-8.322 25.314-17.44 38.085-25.978-12.771 8.537-25.173 17.655-38.085 25.978-12.311 7.936-24.589 15.778-36.743 23.93-9.294 6.233-18.852 12.124-28.38 18.006-9.347 5.771-19.201 11.025-28.196 17.312-8.536 5.966-16.032 13.093-25.089 18.368-4.812 2.803-10.082 4.811-14.788 7.793-4.707 2.982-8.996 6.749-13.523 10.003-32.639 23.458-67.286 43.964-100.792 66.14m-60.705-106.656a60.799 60.799 0 0 1 2.353-1.403 277.208 277.208 0 0 0 0 0c-.77.431-1.556.907-2.353 1.403M32.1 1187.077c11.333-2.91 22.668-5.815 33.996-8.748-11.327 2.933-22.662 5.838-33.996 8.748M1 945.487c0 .668.011 1.333.013 2.001h43.08-43.08m7.733-123.667c40.996 5.303 81.987 10.633 122.977 15.98 27.737 3.619 55.474 7.243 83.21 10.867-27.736-3.624-55.473-7.249-83.21-10.867-40.99-5.347-81.982-10.676-122.977-15.98m9.739-60.367l41.336 7.829-41.336-7.829M124.479 477.52c36.3 20.626 72.421 41.553 108.656 62.29-36.236-20.737-72.356-41.664-108.656-62.29M366 198.219c81.354 106.441 166.165 210.393 247.72 316.03C532.164 408.611 447.354 304.66 366 198.219m171.447 44.543a8679.153 8679.153 0 0 1 34.709 60.354c5.675 9.958 11.137 20.059 17.048 29.884 5.774 9.601 11.973 18.923 17.568 28.631 13.237 22.968 26.676 45.825 40.175 68.646-13.499-22.821-26.938-45.678-40.175-68.646-5.595-9.708-11.794-19.031-17.568-28.631-5.911-9.825-11.373-19.926-17.048-29.884a8638.927 8638.927 0 0 0-34.709-60.354 7726.798 7726.798 0 0 0-67.997-114.839M1667.595 1489.08l-5.236-3.987 5.236 3.987zm59.181-101.617c-35.604-20.46-71.154-41.015-106.936-61.164 35.782 20.149 71.332 40.704 106.936 61.164zm120.239-499.648l4.162-.297c-1.387.1-2.775.198-4.162.297zm7.766-59.437zm-184.233 70.49c34.556-1.446 69.08-3.557 103.586-5.902-34.506 2.345-69.03 4.456-103.586 5.902zm99.76 100.042c-2.552-.18-5.104-.357-7.655-.534 2.551.177 5.103.354 7.655.534zm-28.519 155.624c-39.132-10.389-78.27-20.754-117.46-30.917 39.191 10.163 78.328 20.529 117.46 30.917zm-47.342-62.517l7.524 1.466-7.524-1.466zm14.366 2.795l3.421.665-3.421-.665zm-160.482-31.872zm28.068 48.302l-7.479-2.051 7.479 2.051zm-332.547 126.131zm-37.691-67.884c6.866 5.349 12.975 11.417 19.501 17.142-6.526-5.725-12.635-11.793-19.501-17.142zm1.377-27.382c16.256 11.332 32.269 22.997 48.128 34.856-15.859-11.859-31.872-23.524-48.128-34.856zm-4.219-525.753c-6.283 8.061-38.618 49.063-44.886 57.135 6.268-8.072 38.603-49.075 44.886-57.135zm-44.885 12.134c6.043-8.836 35.266-45.307 41.219-54.201-5.954 8.895-35.176 45.365-41.219 54.201zm164.074-52.094c-22.857 22.437-45.715 44.873-68.57 67.31 22.855-22.437 45.712-44.874 68.57-67.31zm-17.896-31.761zm27.769-165.736zm25.508 162.74zm35.076 19.051c-20.632 17.937-41.129 36.021-61.792 53.925 20.663-17.904 41.16-35.989 61.792-53.925zm36.636-31.731c26.102-22.524 52.291-44.947 78.463-67.39-26.172 22.443-52.362 44.866-78.463 67.39zm116.891-35.455zm30.559 286.017c44.937-11.933 89.868-23.887 134.819-35.764-44.951 11.876-89.883 23.831-134.819 35.764zm-18.559-37.271zm90.231-30.45zm132.026 69.724c-35.255 7.447-70.503 14.931-105.831 22.024 35.328-7.093 70.576-14.576 105.831-22.024zm-122.738 25.387c-20.599 4.055-41.228 7.955-61.899 11.621 20.671-3.666 41.3-7.566 61.899-11.621zm-119.573 136.579h40.563-40.563zm75.535 45.114zm-163.149 88.855zm57.262 55.498zm-90.969 79.299zm9.35 94.639zm-32.673-145.369zm18.152 89.36zm-74.279-145.366c24.925 9.938 49.884 19.798 74.689 30.019-24.805-10.222-49.764-20.081-74.689-30.019zm-42.919-92.135zm8.33 25.499c-1.368-.353-2.739-.704-4.11-1.056 1.371.352 2.742.703 4.11 1.056zm67.174-370.246c15.79-10.942 31.845-21.512 47.92-32.046-16.075 10.534-32.13 21.103-47.92 32.046zm38.95 14.428zm11.158 33.771c-33.208 15.188-66.071 31.086-98.907 47.032 32.836-15.946 65.699-31.845 98.907-47.032zm8.049 33.186c-16.923 6.962-33.877 13.849-50.929 20.498 17.052-6.649 34.006-13.536 50.929-20.498zm4.757 132.62c35.026-4.521 70.055-9.041 105.083-13.564-35.028 4.523-70.057 9.043-105.083 13.564zm98.382 24.953zm-132.935-50.492c21.62-4.02 43.15-8.478 64.685-12.911-21.534 4.433-43.065 8.891-64.685 12.911zm20.447 27.358l-13.293 1.733 13.293-1.733zm-41.076-52.371c19.538-5.055 39.063-10.164 58.54-15.44-19.476 5.276-39.002 10.385-58.54 15.44zm10.846 26.93l-28.655 5.616 28.655-5.616zm2.937 28.998zm-22.321 30.156c-31.023 1.891-62.046 3.806-93.052 5.963 31.006-2.157 62.029-4.073 93.052-5.963zm17.376 25.315h-39.833 39.833zm-7.577-25.912zm21.802 25.912h35.565-35.565zm9.018 31.813zm21.998 1.414zm16.967 33.31c-6.584-.85-13.17-1.697-19.756-2.545l19.756 2.545zm-2.464-66.537h16.382-16.382zm-17.316-29.008zm34.73-105.055zm-58.433-16.779zm-10.79 3.59l-49.232 16.385 49.232-16.385zm-42.658 42.527c-12.774 3.287-25.55 6.573-38.315 9.891 12.765-3.318 25.54-6.604 38.315-9.891zm-3.807 28.201l-63.601 12.468 63.601-12.468zm-44.048 32.371zm10.89 44.153h-57.209 57.209zm58.64 29.647c-26.986-1.711-53.961-3.604-80.943-5.389 26.982 1.785 53.957 3.678 80.943 5.389zm34.358 31.521zm-22.238 55.699zm4.522 33.073c25.374 8.54 50.729 17.137 76.091 25.717-25.362-8.581-50.717-17.177-76.091-25.717zm10.211-59.461zm116.448-90.479h-44.157 44.157zm28.759 40.758zm-50.446-146.588c22.953-4.151 45.876-8.469 68.779-12.893-22.903 4.424-45.826 8.742-68.779 12.893zm22.704-81.928zm6.29 37.756zm-56.432-100.178c17.401-8.548 34.812-17.077 52.201-25.646-17.389 8.568-34.799 17.098-52.201 25.646zm8.313 36.955c-11.53 4.738-23.045 9.515-34.562 14.276 11.517-4.762 23.031-9.538 34.562-14.276zm-45.029-18.587c8.278-4.051 16.464-8.281 24.684-12.45-8.22 4.169-16.405 8.399-24.684 12.45zm-9.107-35.978c14.771-8.42 29.541-16.842 44.316-25.252-14.775 8.41-29.545 16.832-44.316 25.252zm-18.604-73.685zm19.011-123.8zm-60.704 3.091c24.54-25.816 46.54-53.816 70.229-79.321-23.689 25.505-45.689 53.505-70.229 79.321zm15.867 140.19zm-61.098 81.666c-9.597 6.472-19.309 12.78-29.058 19.027 9.749-6.247 19.461-12.555 29.058-19.027zm-5.554-71.136zm-11.677 10.125c-21.81 18.923-43.603 37.867-65.656 56.515 22.054-18.647 43.847-37.592 65.656-56.515zm-34.402-53.503l5.575-6.233c-1.858 2.076-3.717 4.154-5.575 6.233zm14.413-16.094zm-33.009-12.064c-12 15-23 30-34.909 45.426 11.909-15.426 22.909-30.426 34.909-45.426 20-23 36-47 55.944-69.432-19.944 22.432-35.944 46.432-55.944 69.432zm9.31 38.551c-20.147 22.556-40.813 44.734-60.335 67.817 19.521-23.083 40.187-45.261 60.335-67.817zm-11.265 54.011l-50.749 49.817 50.749-49.817zm45.368 34.728zm-12.785 41.136c-10.749 6.839-21.517 13.648-32.214 20.567 10.697-6.919 21.465-13.728 32.214-20.567zm-30.409 47.103c4.121-2.832 8.166-5.673 12.481-8.226 9.177-5.426 18.604-10.438 27.928-15.614 19.041-10.572 37.993-21.303 56.946-32.027-18.953 10.725-37.905 21.455-56.946 32.027-9.324 5.176-18.751 10.188-27.928 15.614-4.315 2.553-8.36 5.394-12.481 8.226-4.08 2.805-8.74 4.498-13.094 6.821 4.354-2.323 9.014-4.017 13.094-6.821zm49.601.118c-10.884 5.275-21.795 10.501-32.757 15.621 10.963-5.12 21.874-10.346 32.757-15.621zm66.321.344c-41.418 16.469-82.859 32.888-123.902 50.238 41.042-17.351 82.484-33.77 123.902-50.238zm-65.545 52.303l-29.674 9.879 29.674-9.879zm3.141 23.439c-16.86 4.417-33.701 8.908-50.5 13.543 16.799-4.635 33.64-9.126 50.5-13.543zm-5.077 138.09zm-17.306 42.07zm84.81 51.68zm-53.923 9.8c-14.49-5.863-28.945-11.812-43.329-17.928 14.384 6.116 28.839 12.065 43.329 17.928zm42.805 46.864c-20.856-11.236-43.268-19.236-63.722-29.926 20.454 10.689 42.866 18.689 63.722 29.926zm-77.041 20.171c6.691 5.002 13.647 9.65 20.677 14.178-7.03-4.527-13.986-9.176-20.677-14.178zm3.526 32.875zm15.47-51.822zm-46.336.906zm38.109 94.364c-11.916-9.889-23.701-19.978-35.226-30.307 11.524 10.329 23.31 20.418 35.226 30.307zm11.591 52.066a911089.502 911089.502 0 0 0-31.227-30.652l31.227 30.652zm-2.445-44.369zm19.762 111.81c-12.984-14.298-25.972-28.589-38.86-42.97 12.888 14.381 25.875 28.672 38.86 42.97zm-24.53-154.048c19.161 14.734 38.202 29.617 57.315 44.41-19.112-14.793-38.153-29.676-57.315-44.41zm15.458-21.287c10.878 6.871 21.773 13.734 32.157 21.314-10.383-7.58-21.279-14.443-32.157-21.314zm48.392 114.42c-12.919-11.258-25.926-22.416-38.942-33.564 13.016 11.148 26.023 22.306 38.942 33.564zm-30.425-137.096zm79.95 130.992c-14.199-10.515-28.262-21.203-42.262-31.971 14.001 10.768 28.063 21.456 42.262 31.971zm47.138 89.941c-26.636-22.8-53.308-45.561-79.554-68.811 26.247 23.251 52.918 46.012 79.554 68.811zm-.41-55.589c6.92 5.23 13.772 10.547 20.493 16.021-6.721-5.475-13.573-10.791-20.493-16.021zm-4.156-51.444zm33.412-69.607zm21.66-31.748c8.395 3.457 16.684 6.973 25.322 9.8 4.063 1.329 8.275 2.454 12.146 4.245 3.643 1.687 7.225 3.428 11.047 4.702-3.822-1.274-7.404-3.016-11.047-4.702-3.87-1.791-8.082-2.916-12.146-4.245-8.638-2.828-16.927-6.343-25.322-9.8zm10.163-115.717zm8.36 1.645l3.484.684c-1.161-.228-2.321-.457-3.484-.684zm-34.05-42.513zm73.706 91.727zm59.554 15.646zm-66.13-215.81zm27.899-42.443zm44.529 37.875zm111.338 41.818h-97.844 97.844zm-109.102 135.235zm11.242-88.534c33.41 2.234 66.831 4.312 100.242 6.535-33.411-2.223-66.832-4.3-100.242-6.535zm191.401-276.927c-31.512 8.278-63.041 16.492-94.638 24.439 31.597-7.947 63.126-16.161 94.638-24.439zm-89.545-90.206c4.993-2.363 9.979-4.743 15.032-6.974 2.534-1.119 5.268-2.678 7.958-3.349 2.432-.606 4.878-.179 7.201-1.492-2.323 1.313-4.77.886-7.201 1.492-2.69.671-5.424 2.23-7.958 3.349-5.053 2.23-10.039 4.611-15.032 6.974-10.146 4.802-20.418 9.108-30.856 13.229a4874.174 4874.174 0 0 0-63.671 25.633c-21.228 8.727-42.428 17.103-64.023 24.879-20.615 7.423-39.841 17.852-60.313 25.551 20.473-7.699 39.698-18.127 60.313-25.551 21.596-7.776 42.796-16.152 64.023-24.879a4888.248 4888.248 0 0 1 63.671-25.633c10.438-4.121 20.711-8.427 30.856-13.229zm-72.536-27.568c-41 21-81 41-122.113 59.766 41.113-18.766 81.113-38.766 122.113-59.766 16-8 32-14 48.393-22.5-16.393 8.5-32.393 14.5-48.393 22.5zm14.287-66.003c-40.058 22.781-80.298 45.249-120.416 67.925-27.089 15.312-54.469 30.106-81.521 45.484 27.052-15.378 54.432-30.172 81.521-45.484 40.118-22.676 80.359-45.144 120.416-67.925zm-43.061-105.596zm-32.686-46.222zm-27.815 91.892l-5.546 4.198 5.546-4.198zm15.324 52.239c8.285-6.413 16.805-12.477 26.207-17.164-9.402 4.687-17.922 10.751-26.207 17.164-8.421 6.517-17.355 12.278-26.467 17.776-18.853 11.375-37.525 22.908-55.992 34.909-19.044 12.377-37.54 25.521-56.417 38.141 18.877-12.619 37.373-25.764 56.417-38.141 18.467-12.001 37.14-23.534 55.992-34.909 9.111-5.498 18.046-11.259 26.467-17.776zm-29.299-108.292l-11.635 9.975 11.635-9.975zm.195-159.172zm-24.441 108.687zm-51.726-22.926zm-35.601-137.748c-17.177 26.142-35.177 52.142-53.999 77.477 18.822-25.336 36.822-51.336 53.999-77.477zm-61.233 89.588zm11.982 69.253c3.291-4.52 6.037-8.875 10.338-12.502 4.282-3.613 7.731-7.71 11.29-12.025 14.06-17.048 27.272-34.773 39.969-52.854-12.696 18.082-25.909 35.807-39.969 52.854-3.559 4.314-7.008 8.412-11.29 12.025-4.301 3.627-7.047 7.981-10.338 12.502-6.22 8.544-12.915 16.722-19.443 25.028-13.32 16.947-25.989 34.409-39.273 51.393 13.284-16.984 25.953-34.446 39.273-51.393 6.528-8.306 13.223-16.485 19.443-25.028zm-43.358-23.939zm16.196-122.83c-20.148 33.946-39.875 68.141-59.571 102.351 19.696-34.21 39.422-68.405 59.571-102.351zm-82.315 220.649zm-9.205-63.191zm-6.244-215.389c1-4 4-7 5.713-10.096-1.713 3.096-4.713 6.096-5.713 10.096-12 32-27 63-39.878 94.689 12.878-31.689 27.878-62.689 39.878-94.689zm-41.366 212c19.925-40.352 41.464-79.886 61.182-120.342-19.718 40.457-41.257 79.99-61.182 120.342zm38.141 19.504zm6.894 64.034c-25.631 36.928-50.471 74.363-75.385 111.775 24.914-37.412 49.754-74.847 75.385-111.775zm-97.669 17.462c-11 21-19 42-29.98 63.41 10.98-21.41 18.98-42.41 29.98-63.41 8-18 18-35 27.824-51.626-9.824 16.626-19.824 33.626-27.824 51.626zm4-99c-1 2 0 3-1 5-9 18-15 36-23.288 53.515 8.288-17.515 14.288-35.515 23.288-53.515 1-2 0-3 1-5 10-22 20-43 27.88-64.976-7.88 21.976-17.88 42.976-27.88 64.976zm-18.064-246.417c-5.08 19.194-10.219 38.375-15.758 57.444 5.539-19.068 10.678-38.249 15.758-57.444zm28.455 93.648c-15.23 42.482-30.132 85.081-44.829 127.75 14.697-42.669 29.598-85.268 44.829-127.75zm1.011 298.235c-16.464 27.932-32.954 55.85-49.567 83.693 16.613-27.844 33.104-55.761 49.567-83.693zm-53.48-303.61c-7.37 27.544-14.737 55.089-22.207 82.607 7.47-27.518 14.837-55.063 22.207-82.607zm-10.124 356.717c-4.731 9.536-9.925 18.669-15.297 27.869 5.372-9.201 10.566-18.333 15.297-27.869zm-35.128 10.531c12.898-29.777 25.36-59.741 37.773-89.723-12.413 29.982-24.875 59.945-37.773 89.723zm41.116 33.545zm-9.598-205.65c4.504-13.285 9.051-26.556 13.733-39.779-4.683 13.223-9.229 26.494-13.733 39.779zm-13.877-308.169l-.812 4.104.812-4.104zm7.481 327.087zm-29.642 84.532c5.096-13.544 9.972-27.17 14.73-40.836-4.759 13.665-9.635 27.291-14.73 40.836zm12.882-365.111c-8.823 42.314-17.509 84.657-26.16 127.006 8.652-42.349 17.337-84.692 26.16-127.006zm-33.367 162.31c-3.939 18.969-7.774 37.96-11.604 56.952 3.83-18.992 7.665-37.983 11.604-56.952zm31.636 47.675c-14.301 56.678-31.301 113.678-46.433 170.379 15.132-56.702 32.132-113.702 46.433-170.379zm-11.525 235.203zm-5.99-61.598l2.497-7.261-2.497 7.261zm-6.804 19.805c-1.887 5.502-3.772 11.005-5.657 16.508 1.884-5.503 3.77-11.006 5.657-16.508zm-22.757-165.105zm-1.965 151.515zm-6.607-109.467zm-2.914 143.83zm-8.837-87.483zm-8.036 39.617zm-31.089-388.107zm1.435 395.024zm-6.923-321.187c-3.289 50.63-8.289 101.63-10.444 152.954 2.155-51.324 7.155-102.324 10.444-152.954zm-11.58 169.647zm-10.411 158.843zm-25.255-62.518v0zm-.088-122.116zm.019 119.807zm-.017-405.711zm-.004 21.326zm-.007 228.277c.054-49.924.054-98.924-.116-149.246.17 50.321.17 99.321.116 149.246zm.097 1400.149v0zm-.088-122.116zm.019 119.807zm-.017-405.711c0-2.09-.001-4.178-.003-6.267l.003 6.267zm-.004 21.326zm-.007 228.277c.054-49.925.054-98.925-.116-149.246.17 50.321.17 99.321.116 149.246zM915.135 423.879c.326 5.493.683 10.985 1.055 16.475.506 6.324 1.026 12.648 1.516 18.974-.49-6.326-1.009-12.649-1.516-18.974-.443-5.542-.872-11.084-1.328-16.624.456 5.54.884 11.083 1.328 16.624-.373-5.49-.73-10.981-1.055-16.475zm-1.015-14.481c-1.144-16.574-2.222-33.153-3.178-49.74.956 16.587 2.034 33.166 3.178 49.74zm-.281-.291zm-3.867-63.949zm-.37 0zm-3.257-55.2zm-.004 1.386zm-6.801-104.103a30516.407 30516.407 0 0 0 0 0zm-10.696 298.805a84182.584 84182.584 0 0 0 0 0zM857.565 255.16c-3.534-26.547-6.962-53.109-10.448-79.663 3.486 26.554 6.914 53.115 10.448 79.663zm-10.775-79.351c3.622 26.485 7.24 52.971 10.783 79.467-3.543-26.497-7.161-52.982-10.783-79.467zm13.274 98.06c2.663 19.863 5.347 39.723 8.006 59.587-2.659-19.864-5.343-39.724-8.006-59.587zm.066.057zm10.128 75.855c4.313 32.148 8.673 64.291 13.181 96.412.7 4.987 1.394 9.975 2.102 14.961-.708-4.986-1.402-9.974-2.102-14.961.667 5.038 1.346 10.074 2.008 15.113-.662-5.039-1.341-10.075-2.008-15.113-4.508-32.121-8.868-64.263-13.181-96.412zm-21.685 223.377c-8.588-31.741-17.341-63.437-26.107-95.129 8.766 31.692 17.519 63.388 26.107 95.129zm-16.806 29.737a2467.257 2467.257 0 0 1-12.106-34.153c3.959 11.41 7.978 22.8 12.106 34.153zM809.59 431.444zm-9.902-36.039zm-16.233-59.709zM753.839 227.52zm-10.807-39.615zm-77.721-65.529C702.37 226.488 738.37 329.488 774.37 435.488c2 8 5 16 7 24 10 29 20 57 29.955 85.008-9.955-28.008-19.955-56.008-29.955-85.008-2-8-5-16-7-24-36-106-72-209-109.059-313.112zm134.741 466.582c-6.209-14.859-12.524-29.676-18.853-44.486 6.329 14.811 12.643 29.628 18.853 44.486zm-10.324 37.029c-12.672-26.499-24.897-51.499-39.006-76.928 14.109 25.429 26.333 50.429 39.006 76.928zm-37.775 28.201zm-15.073-71.135l13.103 22.151-13.103-22.151zm9.547-42.911c-5.159-11.07-9.958-22.332-16.005-32.978 6.047 10.646 10.846 21.907 16.005 32.978zm-22.067 21.741a5606.453 5606.453 0 0 0-28.221-48.491 5580.681 5580.681 0 0 1 28.221 48.491zm-34.594 49.956zm33.098 79.143c-10.324-11.88-20.537-23.938-31.136-35.577 10.6 11.639 20.813 23.698 31.136 35.577zm37.709 630.934c4.73-9.536 9.924-18.669 15.297-27.869-5.373 9.2-10.567 18.333-15.297 27.869zm35.128-10.531c-9.403 21.922-18.834 43.829-27.948 65.874 9.113-22.045 18.545-43.952 27.948-65.874zm-41.118-33.545zm11.745 200.601c10.989-32.905 21.957-65.824 33.893-98.401-11.936 32.577-22.904 65.496-33.893 98.401-14.546 43.556-29.708 86.878-45.222 130.098 15.514-43.22 30.676-86.542 45.222-130.098zm-21.288-46.072c-16.67 35.119-28.67 71.119-44.892 106.157 16.222-35.038 28.222-71.038 44.892-106.157zm-71.808 63.035c10.008-19.776 19.934-39.519 30.996-58.729 11.09-19.261 19.528-39.599 28.476-59.904 2.825-6.41 6.683-12.338 9.647-18.692-2.964 6.354-6.822 12.282-9.647 18.692-8.948 20.306-17.385 40.644-28.476 59.904-11.061 19.211-20.988 38.953-30.996 58.729zm19.525-113.235c17.86-30.319 35.767-60.609 53.778-90.839-18.011 30.23-35.918 60.52-53.778 90.839zm-51.696-90.231c20.146-22.556 40.812-44.734 60.334-67.817-19.521 23.082-40.187 45.261-60.334 67.817zm44.219-6.876zm-203.294 120.074l82.19-80.68-82.19 80.68zm52.46 5.052c-23.087 25.73-46.059 51.562-69.041 77.386 22.983-25.823 45.954-51.655 69.041-77.386zm-300.094-372.621zm-39.469-43.978zM402.21 532.481c-38.84-27.993-76.84-57.993-115.534-86.833 38.694 28.84 76.694 58.84 115.534 86.833zm-81.256-128.98l48.12 41.258c-16.04-13.752-32.08-27.504-48.12-41.258zm85.66 73.451zm-18.879-83.628zm292.158 154.145c-10.372-15.111-20.708-30.247-30.896-45.479 10.187 15.232 20.524 30.368 30.896 45.479zm-22.99-100.38c7.659 12.919 15.327 25.833 22.978 38.756-7.652-12.924-15.319-25.837-22.978-38.756zm-13.986 154.029c13.599 15.225 27.198 30.448 40.904 45.58-13.705-15.132-27.305-30.355-40.904-45.58zm30.117 72.261l-20.146-19.776 20.146 19.776zm-26.211 10.685c-11.524-10.329-23.311-20.418-35.226-30.306 11.915 9.888 23.702 19.977 35.226 30.306zm-27.983 13.141zm3.524 32.876c-6.689-5.003-13.646-9.651-20.676-14.178 7.03 4.527 13.987 9.175 20.676 14.178zm-22.359-128.39l31.226 30.653-31.226-30.653zm2.445 44.37zm4.768 42.238c-19.16-14.735-38.202-29.618-57.315-44.411 19.113 14.794 38.155 29.676 57.315 44.411zm-15.458 21.286c-10.877-6.871-21.774-13.733-32.158-21.314 10.383 7.581 21.281 14.443 32.158 21.314zm-17.967 22.677zm28.201 145.332zm-8.333-25.499c1.37.353 2.741.705 4.111 1.056l-4.111-1.056zM277.826 988.958zm66.559 34.765zm-26.647-76.235h40.563-40.563zm33.168-40.758zm100.365-288.368zm-24.65-67.466c6.721 5.475 13.575 10.792 20.494 16.022-6.92-5.23-13.773-10.547-20.494-16.022zm53.002 127.827zm-9.351-94.639zm32.674 145.368zm-18.153-89.359zm-66.935 47.876zm-96.493-98.545c21.13 12.105 42.724 23.409 63.89 35.453-21.166-12.044-42.759-23.348-63.89-35.453zm37.365 116.247c3.872 1.792 8.083 2.916 12.147 4.246 8.639 2.827 16.926 6.342 25.322 9.8-8.396-3.458-16.683-6.974-25.322-9.8-4.064-1.33-8.274-2.454-12.147-4.246-3.642-1.686-7.224-3.428-11.046-4.702 3.823 1.275 7.404 3.016 11.046 4.702zm87.186 107.849zm-57.261-55.499zm41.579 13.811c25.361 8.58 50.716 17.177 76.091 25.718-25.375-8.541-50.73-17.138-76.091-25.718zm-44.197 63.601l-6.968-1.37 6.968 1.37zm-8.362-1.643l-3.484-.685 3.484.685zm34.052 42.512zm-32.062 71.186h44.157-44.157zm24.583 33.231zm4.784-140.769zm95.942 163.01zm31.592 23.382l-28.656 5.616 28.656-5.616zm-9.272-53.538c31.023-1.891 62.045-3.806 93.051-5.963-31.006 2.157-62.028 4.072-93.051 5.963zm-17.375-25.316h39.832-39.832zm7.575 25.912c-13.352.813-26.704 1.626-40.054 2.458 13.35-.832 26.702-1.644 40.054-2.458zm-26.52 31.383zm-65.405-93.135zm24.605 35.84h-16.381 16.381zm-2.465-66.537zm47.984 66.537h-35.565 35.565zm-9.019-31.813zm-19.183 60.821zm30.636 57.379c-21.62 4.02-43.151 8.478-64.686 12.911 21.535-4.433 43.066-8.891 64.686-12.911zm20.628 25.013c-19.539 5.055-39.062 10.164-58.541 15.44 19.478-5.276 39.002-10.386 58.541-15.44zm32.461 19.467l-49.233 16.385 49.233-16.385zm-6.574-26.141c12.774-3.287 25.548-6.573 38.315-9.891-12.767 3.318-25.54 6.604-38.315 9.891zm3.805-28.201l63.601-12.468c-21.199 4.156-42.401 8.311-63.601 12.468zm44.048-32.371zm-10.89-44.154h57.21-57.21zm-58.64-29.647c26.987 1.712 53.962 3.604 80.944 5.389-26.981-1.785-53.957-3.677-80.944-5.389zm-34.358-31.521zm22.24-55.698zm-26.464-75.182c24.806 10.221 49.765 20.08 74.69 30.019-24.925-9.938-49.884-19.798-74.69-30.019zm9.46-154.171c14.197 10.515 28.261 21.204 42.261 31.972-14-10.768-28.063-21.457-42.261-31.972zm-56.601-98.044c29.775 25.518 59.663 50.91 89.017 76.914-29.354-26.004-59.241-51.396-89.017-76.914zm-36.793-97.423c32.227 31.551 64.269 63.289 96.392 94.946-32.123-31.657-64.166-63.395-96.392-94.946zm-61.514 243.303zm33.595 103.661c-33.739-10.958-67.495-21.853-101.144-33.086 33.65 11.233 67.406 22.128 101.144 33.086zm-1.749 40.667zm-42.961-11.648l-7.479-2.051c2.492.684 4.986 1.369 7.479 2.051zm20.589 46.251zm-13.138 77.674zm-76.238-95.614zm13.136 179.211l-15.56.953 15.56-.953zm-7.344 44.398l-7.619.964 7.619-.964zm35.804 38.741c-23.434 4.309-46.815 8.896-70.172 13.606 23.356-4.71 46.738-9.297 70.172-13.606zm-100.812 19.847zm-37.572 61.233c-22.565 5.941-45.157 11.778-67.794 17.437 22.636-5.658 45.229-11.495 67.794-17.437zm40.467 40.606zm-16.427-46.973c27.19-7.336 54.361-14.743 81.553-22.076-27.192 7.333-54.362 14.74-81.553 22.076zm151.964 1.57c-30.417 10.174-60.818 20.397-91.23 30.589 30.412-10.192 60.813-20.416 91.23-30.589zm-31.801-33.989zm72.2 20.506zm-6.289-37.756zm-39.785-31.279c22.901-4.424 45.824-8.741 68.779-12.893-22.955 4.152-45.877 8.469-68.779 12.893zm25.917-44.311zm74.269 59.652zm32.747 97.749c-8.28 4.051-16.467 8.281-24.684 12.45 8.218-4.169 16.404-8.399 24.684-12.45zm-45.029-18.587c11.53-4.738 23.043-9.515 34.564-14.276-11.521 4.761-23.034 9.538-34.564 14.276zm11.955-43.257zm86.826 3c-17.051 6.649-34.005 13.536-50.927 20.498 16.922-6.962 33.876-13.849 50.927-20.498zm56.028 6.652c-32.836 15.946-65.7 31.845-98.908 47.032 33.208-15.187 66.072-31.085 98.908-47.032zm17.61 86.621zm-12.756-25.914c9.597-6.472 19.308-12.78 29.058-19.027-9.75 6.247-19.461 12.556-29.058 19.027zm5.554 71.136zm-20.129 17.412c-20.661 17.903-41.159 35.988-61.79 53.925 20.632-17.936 41.13-36.021 61.79-53.925zm-86.999-21.977c16.076-10.534 32.13-21.104 47.922-32.046-15.791 10.942-31.846 21.512-47.922 32.046zm8.97-46.475zm5.678 81.052zm51.432 109.869c24.165-26.868 48.574-53.517 72.712-80.408-24.137 26.891-48.547 53.54-72.712 80.408zm41.411 12.192c-13.872 17.814-27.746 35.628-41.677 53.396 13.931-17.768 27.805-35.581 41.677-53.396zm-11.825-96.442l68.57-67.31-68.57 67.31zm23.14-65.756c21.809-18.923 43.601-37.867 65.657-56.515-22.056 18.648-43.848 37.592-65.657 56.515zm34.401 53.504zm14.28 31.968zm51.033-17.61zm-3.665-42.066zm-41.097-36.696l50.75-49.817-50.75 49.817zm-45.369-34.729zm12.786-41.136c10.749-6.839 21.519-13.648 32.214-20.567-10.696 6.919-21.465 13.729-32.214 20.567zm30.409-47.102c-4.12 2.832-8.166 5.673-12.481 8.226-9.177 5.426-18.603 10.438-27.926 15.614-19.042 10.572-37.995 21.303-56.948 32.027 18.953-10.725 37.905-21.455 56.948-32.027 9.324-5.176 18.75-10.188 27.926-15.614 4.315-2.553 8.361-5.394 12.481-8.226 4.081-2.805 8.741-4.498 13.095-6.821-4.354 2.323-9.014 4.016-13.095 6.821zm-49.601-.118c10.884-5.275 21.795-10.501 32.756-15.621-10.961 5.12-21.871 10.345-32.756 15.621zm-66.32-.344c41.416-16.469 82.858-32.888 123.903-50.238-41.045 17.35-82.487 33.769-123.903 50.238zm65.544-52.304l29.674-9.879-29.674 9.879zm-3.143-23.438c16.861-4.417 33.701-8.908 50.501-13.543-16.799 4.635-33.64 9.126-50.501 13.543zm5.079-138.089zm17.307-42.072zm-84.812-51.678zm53.923-9.802c14.49 5.864 28.946 11.813 43.329 17.927-14.383-6.114-28.839-12.063-43.329-17.927zm-42.803-46.863c20.855 11.236 43.267 19.236 63.721 29.925-20.454-10.689-42.866-18.689-63.721-29.925zm58.044-1.225zm46.335-.905zm-8.63-34.109c15.859 11.859 31.873 23.524 48.128 34.856-16.255-11.332-32.268-22.997-48.128-34.856zm30.004-9.668c6.526 5.725 12.634 11.794 19.502 17.142-6.868-5.348-12.976-11.417-19.502-17.142zm26.556-131.064c8.743 12.725 17.468 25.462 26.106 38.255-8.638-12.793-17.364-25.53-26.106-38.255zM539.339 127.02C597.37 243.488 655.37 359.488 714.247 474.574 655.37 359.488 597.37 243.488 539.339 127.02zm133.203 462.678zm-52.346-67.176zM552.37 362.488c-5-8-10-15-15-24-31-48-63-90-93.334-136.284 30.334 46.284 62.334 88.284 93.334 136.284 5 9 10 16 15 24 29 40 53 79 80.922 116.97-27.922-37.97-51.922-76.97-80.922-116.97zm69.178 214.733c-12.888-14.38-25.876-28.672-38.86-42.97 12.984 14.297 25.972 28.589 38.86 42.97zm-78.18 17.945c12.919 11.258 25.927 22.416 38.943 33.565-13.016-11.149-26.024-22.308-38.943-33.565zm-22.843-71.113c19.079 18.737 38.207 37.424 57.44 56.003-19.233-18.578-38.361-37.265-57.44-56.003zm34.891-19.944zm-42.12-46.945C458.37 395.488 403.37 333.488 347.925 271.401c55.445 62.087 110.445 124.087 165.371 185.763zM372.55 378.483c-23.909-23.784-48.684-46.674-72.767-70.279 24.083 23.605 48.858 46.496 72.767 70.279zm-66.932 11.867zm-45.817 34.853c-13.78-10.683-27.583-21.338-41.518-31.82 13.934 10.482 27.738 21.137 41.518 31.82zm-48.721 34.952c32.798 21.403 65.25 43.331 97.71 65.242-32.461-21.911-64.912-43.839-97.71-65.242zm89.599 170.246zm-40.358-19.239c-9.135-4.322-18.274-8.633-27.413-12.947 9.139 4.313 18.279 8.624 27.413 12.947zm-53.617-25.341zm-21.22-10.109c-15.215-7.285-30.396-14.643-45.51-22.135 15.114 7.492 30.295 14.85 45.51 22.135zM89.37 594.488c11 6 23 9 34 14 2 1 4 3 6 4h3c47 20 93 38 140 58l39 15c6 3 12 6 18.475 7.159-6.475-1.159-12.475-4.159-18.475-7.159l-39-15c-47-20-93-38-140-58h-3c-2-1-4-3-6-4-11-5-23-8-34-14-2-1-3-1-4.529-1.346 1.529.346 2.529.346 4.529 1.346zm162.205 118.553zm-40.243-13.628zM154.689 680.2zm-97.634 30.307zm39.571 67.787zm42.191 8.204zm45.689 9.001zm-67.761-69.203c44.706 11.866 89.401 23.775 134.154 35.464-44.753-11.688-89.448-23.598-134.154-35.464zm141.946 174.492zm-52.109-3.546l-7.643-.514 7.643.514zm-20.846-1.398zm72.938 51.644H133.023h125.651zm-226.15-61.775zm73.387 61.775H90.62h15.291zm-71.863 56.831c45.274-3.021 90.546-6.072 135.803-9.332-45.257 3.26-90.529 6.312-135.803 9.332zm4.986 119.986c23.759-4.373 47.48-8.948 71.175-13.658-23.695 4.709-47.416 9.285-71.175 13.658zM66.786 1239.783zm72.584 36.705c-5 2-10 2-15 4-2 1-4 3-5.952 4.034 1.952-1.034 3.952-3.034 5.952-4.034 5-2 10-2 15-4 13-6 25-13 38-18 53-21 105-42 159-62 15-6 28-15 43.586-19.396-15.586 4.396-28.586 13.396-43.586 19.396-54 20-106 41-159 62-13 5-25 12-38 18zm212.113-40.765c-51.113 22.766-100.113 49.766-150.941 72.91 50.828-23.145 99.828-50.145 150.941-72.91zm36.522 28.591c-40.317 22.297-80.127 45.483-120.437 67.786-40.391 22.349-80.327 45.521-120.437 68.37 40.11-22.849 80.046-46.021 120.437-68.37 40.309-22.302 80.12-45.489 120.437-67.786 9.698-5.363 19.381-10.756 29.016-16.232-9.635 5.477-19.318 10.869-29.016 16.232zm-11.417-41c17.391-8.568 34.802-17.098 52.203-25.646-17.401 8.549-34.812 17.078-52.203 25.646zm53.709 17.216c14.776-8.41 29.545-16.832 44.316-25.252-14.771 8.42-29.54 16.842-44.316 25.252zM244.25 1477.538c65.12-50.05 130.12-99.05 195.786-148.293-65.666 49.243-130.666 98.243-195.786 148.293zm222.891-115.518c-44.771 38.469-89.771 77.469-134.521 115.451 44.75-37.983 89.75-76.983 134.521-115.451zm-14.968 72.38c-32.144 31.771-64.592 63.231-96.959 94.775 32.367-31.543 64.815-63.003 96.959-94.775zm-84.82 163.65c15.842-17.538 31.624-35.134 46.992-53.091-15.368 17.957-31.151 35.553-46.992 53.091zm114.017-52.562c10-11 18-23 28-34 7-9 14-18 20.007-27.775-6.007 9.775-13.007 18.775-20.007 27.775-10 11-18 23-28 34-13 13-22 28-33.714 42.028 11.714-14.028 20.714-29.028 33.714-42.028zm148.6-128.615c-26.034 37.841-52.534 75.352-77.9 113.648-12.274 18.532-23.696 37.793-37.512 55.221-6.472 8.164-10.905 17.362-16.728 25.944-6.189 9.123-12.865 17.927-19.207 26.946 6.342-9.02 13.018-17.823 19.207-26.946 5.822-8.582 10.255-17.78 16.728-25.944 13.816-17.428 25.238-36.688 37.512-55.221 25.366-38.296 51.866-75.807 77.9-113.648 20.402-29.656 40.165-59.738 60.116-89.697-19.951 29.959-39.714 60.041-60.116 89.697zm34.182 96.535zm-22.9 45.432c-11.368 22.156-22.507 44.429-33.481 66.781 10.974-22.352 22.113-44.625 33.481-66.781zm30.313 48.902c-16.086 38.442-32.206 76.873-48.677 115.152 16.471-38.279 32.591-76.709 48.677-115.152zm-17.476 192.202c16.281-49.456 33.281-97.456 50.517-145.501-17.236 48.045-34.236 96.045-50.517 145.501zm96.281-123.456c-1 6-3 11-4 17-11 36-18 72-28.951 107.561 10.951-35.561 17.951-71.561 28.951-107.561 1-6 3-11 4-17 30-106 57-208 85.133-311.701-28.133 103.701-55.133 205.701-85.133 311.701zm50.224-376.525zm5.991 61.598l-2.499 7.261 2.499-7.261zm6.803-19.805c1.888-5.502 3.773-11.005 5.658-16.508-1.885 5.503-3.77 11.006-5.658 16.508zm-28.93 417.754c10.913-54.021 22.913-108.021 33.237-162.137-10.325 54.115-22.325 108.115-33.237 162.137zm40.884 117.468l.948-6.919-.948 6.919zm1.609-11.762c.473-3.458.944-6.917 1.415-10.375-.47 3.458-.942 6.917-1.415 10.375zm1.604-11.759c.596-4.379 1.19-8.759 1.784-13.139l-1.784 13.139zm1.971-14.521c6.171-45.542 12.16-91.107 18.106-136.68-5.946 45.572-11.935 91.138-18.106 136.68zm-4.356-283.199c8.666-42.516 17.376-85.023 26.26-127.495-8.884 42.472-17.595 84.98-26.26 127.495zm11.941-200.391zm9.52-34.364zm4.872 351.574c12.867-91.067 22.867-182.067 36.56-273.205-13.693 91.137-23.693 182.137-36.56 273.205zm3.965-264.09zm8.036-39.617zm27.563 441.82zm2.091-448.737zm3.819 361.895c2.655-37.919 5.376-75.832 8.049-113.749-2.673 37.917-5.395 75.83-8.049 113.749zm9.49-134.586c4.903-61.753 7.903-124.753 12.574-187.248-4.671 62.495-7.671 125.495-12.574 187.248zm15.605-234.612zm281.939-119.058c-10.597-11.639-20.811-23.697-31.135-35.577 10.324 11.88 20.538 23.939 31.135 35.577zm-97.998 29.419c12.673 26.498 24.897 51.498 39.006 76.928-14.109-25.43-26.333-50.43-39.006-76.928zm8.528 81.514c-6.327-14.811-12.643-29.627-18.853-44.486 6.21 14.859 12.526 29.675 18.853 44.486zm29.246-109.716zm15.073 71.136c-4.367-7.384-8.736-14.768-13.104-22.151 4.368 7.383 8.737 14.767 13.104 22.151zm6.457 75.888c-6.047-10.646-10.846-21.907-16.005-32.978 5.16 11.071 9.959 22.332 16.005 32.978zm-89.237-61.578c-3.96-11.41-7.979-22.801-12.107-34.152 4.129 11.352 8.147 22.742 12.107 34.152zm-96.586 127.948c2.934 38.076 5.416 76.185 7.805 114.298-2.389-38.114-4.871-76.222-7.805-114.298zm8.665 128.086zm2.426 38.119c5.785 73.102 8.785 147.102 14.552 220.058-5.767-72.957-8.767-146.957-14.552-220.058zm24.583-149.219c-3.04-24.455-6.324-49.18-9.662-73.975-4.416-30.551-8.926-61.202-12.286-91.918 3.952 30.519 8.161 61.274 12.286 91.918 3.665 25.36 7.267 50.652 10.091 75.852-2.824-25.199-6.426-50.491-10.091-75.852 3.338 24.795 6.622 49.52 9.662 73.975zm18.12-88.233c-5.136-25.566-10.279-51.132-15.492-76.683 5.213 25.551 10.356 51.116 15.492 76.683zm-14.338 116.592c10.42 91.961 24.42 183.961 37.088 275.889-12.668-91.928-26.668-183.928-37.088-275.889zm.568 2.535c12.853 91.427 25.853 182.427 37.172 272.932-11.32-90.506-24.32-181.506-37.172-272.932zm43.155 321.627c.221 1.609.44 3.22.66 4.83l-.66-4.83zm1.536 8.42l1.074 8.262-1.074-8.262zm-17.989-384.151c6.928 34.471 13.896 68.933 20.978 103.372-7.082-34.439-14.051-68.901-20.978-103.372zm.067-.385c6.963 34.479 14.001 68.945 21.26 103.364-7.259-34.418-14.297-68.884-21.26-103.364zm41.192 202.571zm-.039-1.639zm-40.274-326.687c22.204 77.67 42.204 155.67 64.096 233.401-21.892-77.731-41.892-155.731-64.096-233.401zm37.249 28.662c9.955 30.008 21.955 60.008 31.955 90.008 5 16 10 31 14.974 46.964-4.974-15.964-9.974-30.964-14.974-46.964-10-30-22-60-31.955-90.008zm37.873 245.307zm29.224 108.131zm92.521 108.209c.901 2.637 1.803 5.274 2.702 7.912-.899-2.638-1.8-5.275-2.702-7.912zm13.163-122.795c-7.16-17.007-14.229-34.053-21.626-50.959 7.397 16.906 14.466 33.952 21.626 50.959zm-108.867-153.198c22.041 67.354 47.041 133.354 69.522 200.27-22.481-66.916-47.481-132.916-69.522-200.27zm40.041-9.646c1 3 3 5 5 8 1 2 0 5 1 7 9 17 15 35 22.987 53.104-7.987-18.104-13.987-36.104-22.987-53.104-1-2 0-5-1-7-2-3-4-5-5-8-4-14-11-25-15-39-1-3-3-5-4-7-3-7-5-14-8-21-12-27-23-54-34.776-80.768 11.776 26.768 22.776 53.768 34.776 80.768 3 7 5 14 8 21 1 2 3 4 4 7 4 14 11 25 15 39zm-16.99-193.394c9.317 16.214 18.741 32.369 28.22 48.49-9.479-16.121-18.903-32.276-28.22-48.49zm.621-49.654c8.637 12.793 17.363 25.53 26.106 38.255-8.743-12.724-17.469-25.462-26.106-38.255zm.859-42.992zm79.961 53.41c-13.597-15.225-27.196-30.448-40.903-45.579 13.707 15.131 27.307 30.355 40.903 45.579zm.813 50.551zm-37.775 64.722c7.65 12.924 15.318 25.838 22.977 38.757-7.658-12.919-15.326-25.833-22.977-38.757zm-.011-61.623c10.372 15.111 20.708 30.247 30.896 45.479-10.188-15.232-20.524-30.368-30.896-45.479zm76.89 192.195c23.727 39.092 46.044 78.979 69.041 118.511-22.997-39.532-45.314-79.419-69.041-118.511-15.028-24.76-29.197-50.073-43.945-75.005 14.748 24.932 28.917 50.245 43.945 75.005zm-32.234-186.49zm37.89 48.647c28.095 36.14 56.475 72.056 84.89 107.942-28.416-35.886-56.796-71.802-84.89-107.942zm41.93-10.993zm-22.549-75.947l75.483 74.097c-25.16-24.7-50.321-49.398-75.483-74.097zm92.595 154.226l-3.25-3.65 3.25 3.65c30.96 34.77 61.897 69.56 92.849 104.338-30.951-34.778-61.889-69.568-92.849-104.338zm-2.269-65.561c34.27 33.903 69.27 66.903 103.545 101.644-34.276-34.741-69.276-67.741-103.545-101.644zm140.643 221.034zm-76.536-221.106c23.612 20.258 47.232 40.508 70.851 60.759-23.619-20.251-47.239-40.501-70.851-60.759zm85.656 73.453l19.037 16.323-19.037-16.323zm77.534-7.603c-47.028-35.875-94.028-71.875-141.868-106.868 47.84 34.993 94.84 70.993 141.868 106.868zm-61.023-163.81c-21.131-12.105-42.723-23.409-63.891-35.453 21.168 12.044 42.76 23.347 63.891 35.453zm-51.165-163.342c33.189 10.78 66.436 21.389 99.53 32.457-33.094-11.068-66.341-21.677-99.53-32.457zm136.16 97.277c-11-4-21-9-31-13-2-1-3 0-5-1-19-9-38-16-57.476-23.159 19.476 7.159 38.476 14.159 57.476 23.159 2 1 3 0 5 1 10 4 20 9 31 13 24 8 46 19 69.971 28.432-23.971-9.432-45.971-20.432-69.971-28.432zm177.966-55.374zm-68.864 99.523c7.233 5.177 16.576 7.327 24.797 10.667-8.221-3.34-17.564-5.491-24.797-10.667zm13.397-55.169c-41.504-13.846-82.908-27.981-124.335-42.058 41.427 14.076 82.831 28.212 124.335 42.058zm-95.515-183.435l-5.547-.725 5.547.725c46.158 6.03 92.316 12.062 138.479 18.064-46.162-6.002-92.32-12.034-138.479-18.064zM1072.824 1887.361c-.109-.859-.222-1.719-.331-2.579a.077.077 0 0 1-.015.002c.115.86.232 1.718.346 2.577zM1135.308 1877.234l-.543-2.727h-.001c.18.91.363 1.818.544 2.727zM761.432 13.742l.543 2.724-.543-2.724zM823.916 3.615c.107.859.219 1.717.326 2.576l.011-.002c-.11-.858-.227-1.715-.337-2.574z"/></g></svg>