<?xml version="1.0" encoding="utf-8"?>
<!-- Generator: Adobe Illustrator 16.0.0, SVG Export Plug-In . SVG Version: 6.00 Build 0)  -->
<svg version="1.2" baseProfile="tiny" id="Calque_1"
	 xmlns="http://www.w3.org/2000/svg" xmlns:xlink="http://www.w3.org/1999/xlink" x="0px" y="0px" width="1896.74px"
	 height="1892.856px" viewBox="0 0 1896.74 1892.856" xml:space="preserve">
<g>
	<path fill="none" stroke="#FFFFFF" stroke-width="2" stroke-miterlimit="10" d="M877.944,588.724
		C842.96,410.469,805.382,233.276,769.775,55.566"/>
	<path fill="none" stroke="#FFFFFF" stroke-width="2" stroke-miterlimit="10" d="M1134.764,1874.508L1134.764,1874.508
		c-2.428-12.232-4.867-24.462-7.316-36.69C1129.889,1850.047,1132.337,1862.275,1134.764,1874.508z"/>
	<path fill="none" stroke="#FFFFFF" stroke-width="2" stroke-miterlimit="10" d="M920.878,502.072
		c2.045,28.777,3.899,57.568,5.529,86.372c0.006,0,0.013-0.001,0.019-0.001C925.293,559.61,923.144,530.835,920.878,502.072z"/>
	<path fill="none" stroke="#FFFFFF" stroke-width="2" stroke-miterlimit="10" d="M761.976,16.466
		C761.975,16.466,761.975,16.466,761.976,16.466c2.587,13.037,5.188,26.069,7.8,39.1C767.173,42.533,764.563,29.504,761.976,16.466z
		"/>
	<path fill="none" stroke="#FFFFFF" stroke-width="2" stroke-miterlimit="10" d="M1006.506,1393.193
		c-4.125-30.644-8.334-61.399-12.286-91.918C997.58,1331.991,1002.09,1362.643,1006.506,1393.193z"/>
	<path fill="none" stroke="#FFFFFF" stroke-width="2" stroke-miterlimit="10" d="M581.285,71.87
		c2.755,7.189,6.771,14.195,9.345,22.619c5.094,13,11.206,24,15.281,37c1.019,2,3.056,4,4.075,6c1.019,3,2.037,7,3.056,10
		c26.487,61,52.973,121,77.422,183c3.056,8,6.112,15,10.188,22c1.019,2,0,3,1.019,5c8.15,17,14.262,34,21.393,51
		c2.038,4,4.075,8,6.112,12c1.019,3,2.038,6,3.056,9c13.244,29,24.449,58,36.916,86.767c-12.466-28.767-23.672-57.767-36.916-86.767
		c-1.019-3-2.037-6-3.056-9c-2.038-4-4.075-8-6.112-12c-7.131-17-13.243-34-21.393-51c-1.019-2,0-3-1.019-5
		c-4.075-7-7.131-14-10.188-22c-24.449-62-50.936-122-77.422-183c-1.019-3-2.038-7-3.056-10c-1.019-2-3.056-4-4.075-6
		c-4.075-13-10.187-24-15.281-37C588.055,86.064,584.04,79.059,581.285,71.87 M700.481,30.879
		c5.564,23.447,12.404,46.658,18.801,69.883C712.885,77.537,706.045,54.326,700.481,30.879 M824.253,6.189
		c4.856,37.774,10.168,75.488,15.355,113.217C834.421,81.677,829.109,43.964,824.253,6.189c-0.003,0.001-0.007,0.001-0.011,0.002
		c4.709,37.667,9.712,75.296,14.812,112.912c-5.101-37.616-10.104-75.245-14.812-112.912 M887.113,0.068
		c1.089,16.055,2.172,32.109,3.248,48.164C889.285,32.177,888.203,16.123,887.113,0.068 M1009.65,0.069
		c-0.767,13.587-1.555,27.172-2.377,40.756C1008.096,27.242,1008.884,13.656,1009.65,0.069 M1072.475,6.188
		c-22.273,162.003-42.554,323.159-64.797,485.438C1029.921,329.347,1050.201,168.191,1072.475,6.188 M1196.087,30.833
		c-5.552,18.181-10.659,36.495-15.595,54.852C1185.428,67.328,1190.535,49.015,1196.087,30.833 M1256.451,49.354
		c-12.219,37.442-24.918,74.725-37.868,111.919C1231.533,124.079,1244.232,86.796,1256.451,49.354 M1372.85,98.321
		c-0.135,0.389-0.285,0.778-0.479,1.167c-4,6-9,12-12,18c-1,3-2,7-3,10c-12,25-26,49-36.938,73.57
		c10.938-24.57,24.938-48.57,36.938-73.57c1-3,2-7,3-10c3-6,8-12,12-18C1372.564,99.1,1372.715,98.71,1372.85,98.321
		 M1427.321,127.942c-12.501,21.009-24.917,42.068-37.355,63.114C1402.404,170.01,1414.82,148.951,1427.321,127.942
		 M1530.768,198.239c-16.609,21.909-33.392,43.685-50.235,65.413C1497.376,241.924,1514.158,220.148,1530.768,198.239
		 M1578.563,238.123c-2.047,2.332-4.093,4.664-6.142,6.995C1574.471,242.787,1576.517,240.454,1578.563,238.123 M1623.518,280.914
		c-21.593,21.196-43.185,42.391-64.777,63.587C1580.333,323.305,1601.925,302.109,1623.518,280.914 M1665.549,326.47
		c-8.949,7.688-17.898,15.375-26.85,23.06C1647.65,341.846,1656.6,334.158,1665.549,326.47 M1704.422,374.554
		c-15.285,11.413-30.563,22.833-45.815,34.289C1673.858,397.388,1689.137,385.967,1704.422,374.554 M1740.142,425.096
		c-5.234,3.464-10.492,6.892-15.77,10.291C1729.649,431.988,1734.907,428.56,1740.142,425.096 M1800.797,531.651
		c-18.993,11.513-38.669,18.941-58.025,28.473C1762.128,550.592,1781.804,543.164,1800.797,531.651 M1825.894,587.813
		c-10.95,4.316-21.933,8.55-32.892,12.841C1803.961,596.363,1814.943,592.129,1825.894,587.813 M1847.208,645.391
		c-28.171,9.463-56.296,19.061-84.459,28.545C1790.912,664.451,1819.037,654.854,1847.208,645.391 M1878.182,763.083
		c-20.611,3.527-41.176,7.337-61.702,11.331C1837.006,770.42,1857.57,766.611,1878.182,763.083 M1893.813,884.576
		c-13.751,0.921-27.501,1.867-41.249,2.844C1866.312,886.443,1880.062,885.497,1893.813,884.576 M1895.74,945.487
		c0-0.667-0.012-1.332-0.013-1.999c-37.051,0-74.103,0-111.154,0c37.052,0,74.104,0,111.154,0 M1893.802,1006.56
		c-25.796-1.479-51.59-3.008-77.379-4.611C1842.212,1003.552,1868.006,1005.081,1893.802,1006.56 M1887.994,1067.156
		c-11.736-1.518-23.473-3.035-35.208-4.558C1864.521,1064.121,1876.258,1065.639,1887.994,1067.156 M1878.265,1127.473
		c-39.146-7.534-78.295-15.042-117.438-22.592C1799.97,1112.431,1839.119,1119.938,1878.265,1127.473 M1864.656,1187.019
		c-2.062-0.539-4.124-1.075-6.185-1.615C1860.532,1185.943,1862.595,1186.479,1864.656,1187.019 M1800.763,1359.391
		c-4.649-2.496-9.224-5.152-13.936-7.458c-10.412-5.095-20.858-10.128-31.316-15.134c-20.704-9.912-41.461-19.725-62.107-29.752
		c-42.157-20.476-84.638-40.305-126.759-60.858c-2.947-1.438-5.894-2.877-8.839-4.317c2.945,1.44,5.892,2.88,8.839,4.317
		c42.121,20.554,84.602,40.383,126.759,60.858c20.646,10.027,41.403,19.84,62.107,29.752c10.458,5.006,20.904,10.039,31.316,15.134
		C1791.539,1354.238,1796.113,1356.895,1800.763,1359.391 M1740.109,1465.926c-15.489-10.099-31.314-19.693-46.831-29.752
		c-19.179-12.434-37.68-25.841-56.677-38.537c-16.146-10.789-32.384-21.445-48.649-32.057
		c16.266,10.611,32.503,21.268,48.649,32.057c18.997,12.696,37.498,26.104,56.677,38.537
		C1708.795,1446.232,1724.62,1455.827,1740.109,1465.926 M1623.59,1609.986c-33.108-32.994-66.588-63.917-99.052-97.085
		C1557.002,1546.069,1590.481,1576.992,1623.59,1609.986 M1530.749,1692.747c-27.722-36.361-55.99-71.365-83.326-107.113
		C1474.759,1621.382,1503.027,1656.386,1530.749,1692.747 M1480.293,1729.528c-10.694-16.156-21.678-32.124-32.632-48.11
		c-12.736-18.588-24.933-37.553-38.224-55.746c-6.499-8.893-12.665-18-18.27-27.457c-1.124-1.896-1.891-3.989-3.325-5.686
		c-1.429-1.686-3.341-2.898-4.699-4.627c-3.548-4.512-6.461-9.693-9.65-14.461c-12.449-18.612-24.982-37.171-37.516-55.729
		c-23.999-35.529-47.782-71.16-72.529-106.194c24.747,35.034,48.53,70.665,72.529,106.194
		c12.533,18.558,25.066,37.116,37.516,55.729c3.189,4.768,6.103,9.949,9.65,14.461c1.358,1.729,3.271,2.941,4.699,4.627
		c1.435,1.696,2.201,3.789,3.325,5.686c5.604,9.457,11.771,18.564,18.27,27.457c13.291,18.193,25.487,37.158,38.224,55.746
		C1458.615,1697.404,1469.599,1713.372,1480.293,1729.528 M1372.468,1792.845c-1.546-3.048-3.343-5.97-4.991-8.978
		c-2.787-5.092-5.276-10.355-7.881-15.539c-5.228-10.406-10.444-20.816-15.651-31.23c-10.358-20.709-20.683-41.432-30.999-62.16
		c-20.625-41.439-41.217-82.896-61.959-124.281c-20.765-41.428-42.362-82.444-63.24-123.816c-1.755-3.477-3.506-6.956-5.253-10.438
		c1.747,3.481,3.498,6.961,5.253,10.438c20.878,41.372,42.476,82.389,63.24,123.816c20.742,41.385,41.334,82.842,61.959,124.281
		c10.316,20.729,20.641,41.451,30.999,62.16c5.207,10.414,10.424,20.824,15.651,31.23c2.604,5.184,5.094,10.447,7.881,15.539
		C1369.125,1786.875,1370.922,1789.797,1372.468,1792.845 M1315.062,1819.267c-0.611-1.562-1.155-3.168-1.692-4.778
		c-3-10-8-19-12-29c-4-11-9-22-15-33c-2-4-2-8-3.887-11.884c1.887,3.884,1.887,7.884,3.887,11.884c6,11,11,22,15,33c4,10,9,19,12,29
		C1313.907,1816.099,1314.451,1817.705,1315.062,1819.267 M1196.204,1860.108c-11.25-43.658-23.146-87.102-35.388-130.49
		C1173.058,1773.007,1184.954,1816.45,1196.204,1860.108 M1134.764,1874.508c-2.427-12.232-4.875-24.461-7.316-36.69
		c-6.429-32.104-12.92-64.193-19.453-96.276c6.533,32.083,13.024,64.173,19.453,96.276c-6.372-31.925-12.771-63.845-19.218-95.755
		c6.446,31.91,12.846,63.83,19.218,95.755C1129.896,1850.046,1132.336,1862.275,1134.764,1874.508 M1072.479,1884.784
		c-2.529-18.941-5.091-37.88-7.675-56.815C1067.388,1846.904,1069.949,1865.843,1072.479,1884.784c0.005,0,0.01-0.001,0.015-0.002
		c-1.989-15.681-3.998-31.358-6.031-47.034c2.033,15.676,4.042,31.354,6.031,47.034 M948.37,1892.856 M887.092,1890.903
		c1.244-21.416,2.561-42.829,3.936-64.237C889.653,1848.074,888.336,1869.487,887.092,1890.903 M761.957,1874.504
		c3.745-19.642,7.542-39.274,11.387-58.896C769.498,1835.229,765.701,1854.862,761.957,1874.504 M523.677,1792.544
		c0.181-0.739,0.389-1.446,0.693-2.056c4-7,9-11,13-18c2-4,2-10,4-14c14-26,26-51,39.117-76.984
		c-13.117,25.984-25.117,50.984-39.117,76.984c-2,4-2,10-4,14c-4,7-9,11-13,18C524.065,1791.098,523.857,1791.805,523.677,1792.544
		 M469.423,1763.033c22.706-38.14,45.184-76.416,67.914-114.543c23.473-39.372,45.542-79.561,68.814-119.051
		c18.426-31.267,36.801-62.562,55.187-93.853c-18.385,31.29-36.76,62.586-55.187,93.853c-23.273,39.49-45.342,79.679-68.814,119.051
		C514.607,1686.617,492.129,1724.894,469.423,1763.033 M318.183,1652.855c1.628-1.85,3.248-3.707,4.882-5.553
		C321.431,1649.148,319.811,1651.006,318.183,1652.855 M231.195,1564.508c27.626-23.733,55.263-47.453,82.91-71.161
		C286.458,1517.055,258.821,1540.774,231.195,1564.508 M156.601,1465.881c33.506-22.176,68.153-42.682,100.792-66.14
		c4.527-3.254,8.816-7.021,13.523-10.003c4.707-2.982,9.976-4.99,14.788-7.793c9.057-5.275,16.553-12.402,25.089-18.368
		c8.995-6.286,18.849-11.54,28.196-17.312c9.528-5.882,19.085-11.772,28.38-18.006c12.153-8.151,24.432-15.994,36.743-23.93
		c12.912-8.322,25.314-17.44,38.085-25.978c-12.771,8.537-25.173,17.655-38.085,25.978c-12.311,7.936-24.589,15.778-36.743,23.93
		c-9.294,6.233-18.852,12.124-28.38,18.006c-9.347,5.771-19.201,11.025-28.196,17.312c-8.536,5.966-16.032,13.093-25.089,18.368
		c-4.812,2.803-10.082,4.811-14.788,7.793c-4.707,2.982-8.996,6.749-13.523,10.003
		C224.754,1423.199,190.107,1443.705,156.601,1465.881 M95.896,1359.225c0.797-0.495,1.583-0.972,2.353-1.403
		c6.244-3.502,12.497-6.704,18.99-9.719c12.888-5.982,25.742-12.035,38.579-18.127c-12.836,6.092-25.691,12.145-38.579,18.127
		c-6.493,3.015-12.747,6.217-18.99,9.719C97.479,1358.253,96.693,1358.729,95.896,1359.225 M32.1,1187.077
		c11.333-2.91,22.668-5.815,33.996-8.748C54.769,1181.262,43.434,1184.167,32.1,1187.077 M8.734,1067.068
		c30.516-4.113,61.037-8.184,91.566-12.191C69.771,1058.885,39.25,1062.955,8.734,1067.068 M1,945.487
		c0,0.668,0.011,1.333,0.013,2.001c14.36,0,28.72,0,43.08,0c-14.36,0-28.72,0-43.08,0 M8.746,823.821
		c40.996,5.303,81.987,10.633,122.977,15.98c27.737,3.619,55.474,7.243,83.21,10.867c-27.736-3.624-55.473-7.249-83.21-10.867
		C90.733,834.454,49.741,829.125,8.746,823.821 M18.485,763.454c13.779,2.61,27.558,5.219,41.336,7.829
		C46.043,768.673,32.264,766.064,18.485,763.454 M124.479,477.52c36.3,20.626,72.421,41.553,108.656,62.29
		c14.562,8.333,29.143,16.634,43.764,24.868c-14.621-8.233-29.203-16.534-43.764-24.868
		C196.899,519.073,160.779,498.146,124.479,477.52 M366,198.219c81.354,106.441,166.165,210.393,247.72,316.03
		C532.164,408.611,447.354,304.66,366,198.219 M537.447,242.762c11.652,20.072,23.22,40.192,34.709,60.354
		c5.675,9.958,11.137,20.059,17.048,29.884c5.774,9.601,11.973,18.923,17.568,28.631c13.237,22.968,26.676,45.825,40.175,68.646
		c-13.499-22.821-26.938-45.678-40.175-68.646c-5.595-9.708-11.794-19.031-17.568-28.631c-5.911-9.825-11.373-19.926-17.048-29.884
		C560.667,282.954,549.1,262.834,537.447,242.762c-22.333-38.468-44.996-76.751-67.997-114.839 M1667.595,1489.08
		c-1.745-1.329-3.491-2.658-5.236-3.987C1664.104,1486.422,1665.85,1487.751,1667.595,1489.08z M1726.776,1387.463
		c-35.604-20.46-71.154-41.015-106.936-61.164C1655.622,1346.448,1691.172,1367.003,1726.776,1387.463z M1847.015,887.815
		c1.388-0.099,2.775-0.198,4.162-0.297C1849.79,887.618,1848.402,887.716,1847.015,887.815z M1854.781,828.378
		c-32.058,4.278-64.122,8.499-96.194,12.667C1790.659,836.876,1822.724,832.656,1854.781,828.378z M1670.548,898.868
		c34.556-1.446,69.08-3.557,103.586-5.902C1739.628,895.311,1705.104,897.422,1670.548,898.868z M1770.308,998.91
		c-2.552-0.18-5.104-0.357-7.655-0.534C1765.204,998.553,1767.756,998.73,1770.308,998.91z M1741.789,1154.534
		c-39.132-10.389-78.27-20.754-117.46-30.917C1663.52,1133.78,1702.657,1144.146,1741.789,1154.534z M1694.447,1092.017
		c2.509,0.489,5.017,0.978,7.524,1.466C1699.464,1092.994,1696.956,1092.506,1694.447,1092.017z M1708.813,1094.812
		c1.141,0.222,2.28,0.443,3.421,0.665C1711.094,1095.256,1709.954,1095.034,1708.813,1094.812z M1548.331,1062.94
		c15.914,3.249,31.833,6.466,47.759,9.657C1580.164,1069.406,1564.245,1066.189,1548.331,1062.94z M1576.399,1111.242
		c-2.493-0.684-4.986-1.368-7.479-2.051C1571.413,1109.874,1573.906,1110.559,1576.399,1111.242z M1243.852,1237.373
		c-6.715-6.592-13.431-13.184-20.146-19.775C1230.421,1224.189,1237.137,1230.781,1243.852,1237.373z M1206.161,1169.489
		c6.866,5.349,12.975,11.417,19.501,17.142C1219.136,1180.906,1213.027,1174.838,1206.161,1169.489z M1207.538,1142.107
		c16.256,11.332,32.269,22.997,48.128,34.856C1239.807,1165.104,1223.794,1153.439,1207.538,1142.107z M1203.319,616.354
		c-6.283,8.061-38.618,49.063-44.886,57.135C1164.701,665.417,1197.036,624.414,1203.319,616.354z M1158.434,628.488
		c6.043-8.836,35.266-45.307,41.219-54.201C1193.699,583.182,1164.477,619.652,1158.434,628.488z M1322.508,576.394
		c-22.857,22.437-45.715,44.873-68.57,67.31C1276.793,621.267,1299.65,598.83,1322.508,576.394z M1304.612,544.633
		c5.138-5.646,10.27-11.296,15.396-16.952C1314.882,533.337,1309.75,538.987,1304.612,544.633z M1332.381,378.897
		c3.862-5.747,7.697-11.512,11.522-17.284C1340.078,367.385,1336.243,373.15,1332.381,378.897z M1357.889,541.637
		c-8.444,8.292-16.886,16.585-25.323,24.884C1341.003,558.222,1349.444,549.928,1357.889,541.637z M1392.965,560.688
		c-20.632,17.937-41.129,36.021-61.792,53.925C1351.836,596.709,1372.333,578.624,1392.965,560.688z M1429.601,528.957
		c26.102-22.524,52.291-44.947,78.463-67.39C1481.892,484.01,1455.702,506.433,1429.601,528.957z M1546.492,493.502
		c-29.951,22.715-59.873,45.468-89.788,68.229C1486.619,538.97,1516.541,516.217,1546.492,493.502z M1577.051,779.519
		c44.937-11.933,89.868-23.887,134.819-35.764C1666.919,755.631,1621.987,767.586,1577.051,779.519
		c-13.897,3.69-27.796,7.379-41.696,11.062C1549.255,786.897,1563.153,783.209,1577.051,779.519z M1558.492,742.248
		c22.391-7.635,44.801-15.215,67.228-22.745C1603.293,727.033,1580.883,734.613,1558.492,742.248z M1648.723,711.798
		c12.291-4.106,24.587-8.199,36.886-12.28C1673.31,703.599,1661.014,707.692,1648.723,711.798z M1780.749,781.522
		c-35.255,7.447-70.503,14.931-105.831,22.024C1710.246,796.453,1745.494,788.97,1780.749,781.522z M1658.011,806.909
		c-20.599,4.055-41.228,7.955-61.899,11.621C1616.783,814.864,1637.412,810.964,1658.011,806.909z M1538.438,943.488
		c13.521,0,27.042,0,40.563,0C1565.48,943.488,1551.96,943.488,1538.438,943.488z M1613.973,988.602
		c-17.499-1.143-35-2.26-52.504-3.336C1578.973,986.342,1596.474,987.459,1613.973,988.602z M1450.824,1077.457
		c19.819,5.256,39.631,10.543,59.433,15.861C1490.455,1088,1470.644,1082.713,1450.824,1077.457z M1508.086,1132.955
		c-10.076-3.297-20.142-6.617-30.191-9.98C1487.944,1126.338,1498.01,1129.658,1508.086,1132.955z M1417.117,1212.254
		c17.825,10.155,35.646,20.32,53.459,30.498C1452.763,1232.574,1434.942,1222.409,1417.117,1212.254z M1426.467,1306.893
		c-1.839-1.318-3.675-2.641-5.51-3.967C1422.792,1304.252,1424.628,1305.574,1426.467,1306.893z M1393.794,1161.524
		c19.445,9.41,38.863,18.878,58.271,28.364C1432.657,1180.402,1413.239,1170.935,1393.794,1161.524z M1411.946,1250.884
		c-14.672-9.489-29.362-18.957-44.063-28.401C1382.584,1231.927,1397.274,1241.395,1411.946,1250.884z M1337.667,1105.518
		c24.925,9.938,49.884,19.798,74.689,30.019C1387.551,1125.315,1362.592,1115.456,1337.667,1105.518z M1294.748,1013.383
		c32.048,6.195,64.089,12.426,96.127,18.68C1358.837,1025.809,1326.796,1019.578,1294.748,1013.383z M1303.078,1038.882
		c-1.368-0.353-2.739-0.704-4.11-1.056C1300.339,1038.178,1301.71,1038.529,1303.078,1038.882z M1370.252,668.636
		c15.79-10.942,31.845-21.512,47.92-32.046C1402.097,647.124,1386.042,657.693,1370.252,668.636z M1409.202,683.064
		c-9.642,5.495-19.286,10.988-28.934,16.475C1389.916,694.053,1399.561,688.56,1409.202,683.064z M1420.36,716.835
		c-33.208,15.188-66.071,31.086-98.907,47.032C1354.289,747.921,1387.152,732.022,1420.36,716.835z M1428.409,750.021
		c-16.923,6.962-33.877,13.849-50.929,20.498C1394.532,763.87,1411.486,756.983,1428.409,750.021z M1433.166,882.641
		c35.026-4.521,70.055-9.041,105.083-13.564C1503.221,873.6,1468.192,878.12,1433.166,882.641z M1531.548,907.594
		c-13.021,0.867-26.039,1.753-39.056,2.664C1505.509,909.347,1518.527,908.461,1531.548,907.594z M1398.613,857.102
		c21.62-4.02,43.15-8.478,64.685-12.911C1441.764,848.624,1420.233,853.082,1398.613,857.102z M1419.06,884.46
		c-4.432,0.578-8.862,1.156-13.293,1.733C1410.197,885.616,1414.628,885.038,1419.06,884.46z M1377.984,832.089
		c19.538-5.055,39.063-10.164,58.54-15.44C1417.048,821.925,1397.522,827.034,1377.984,832.089z M1388.83,859.019
		c-9.553,1.872-19.104,3.744-28.655,5.616C1369.727,862.763,1379.277,860.891,1388.83,859.019z M1391.767,888.017
		c-16.703,2.174-33.406,4.342-50.11,6.5C1358.36,892.358,1375.063,890.19,1391.767,888.017z M1369.446,918.173
		c-31.023,1.891-62.046,3.806-93.052,5.963C1307.4,921.979,1338.423,920.063,1369.446,918.173z M1386.822,943.488
		c-13.277,0-26.557,0-39.833,0C1360.266,943.488,1373.545,943.488,1386.822,943.488z M1379.245,917.576
		c13.354-0.813,26.704-1.626,40.055-2.458C1405.949,915.95,1392.599,916.763,1379.245,917.576z M1401.047,943.488
		c11.856,0,23.711,0,35.565,0C1424.758,943.488,1412.903,943.488,1401.047,943.488z M1410.065,975.301
		c-7.436-0.41-14.868-0.844-22.302-1.296C1395.197,974.457,1402.63,974.891,1410.065,975.301z M1432.063,976.715
		c13.037,0.876,26.071,1.747,39.107,2.613C1458.135,978.462,1445.101,977.591,1432.063,976.715z M1449.03,1010.025
		c-6.584-0.85-13.17-1.697-19.756-2.545C1435.86,1008.328,1442.446,1009.176,1449.03,1010.025z M1446.566,943.488
		c5.46,0,10.922,0,16.382,0C1457.488,943.488,1452.026,943.488,1446.566,943.488z M1429.25,914.48
		c14.447-0.986,28.896-1.956,43.348-2.913C1458.146,912.524,1443.697,913.494,1429.25,914.48z M1463.98,809.425
		c10.299-2.707,20.595-5.42,30.89-8.138C1484.575,804.005,1474.279,806.718,1463.98,809.425z M1405.547,792.646
		c19.606-6.315,39.191-12.696,58.762-19.126C1444.738,779.949,1425.153,786.33,1405.547,792.646z M1394.757,796.236
		c-16.41,5.461-32.821,10.923-49.232,16.385C1361.936,807.159,1378.347,801.697,1394.757,796.236z M1352.099,838.763
		c-12.774,3.287-25.55,6.573-38.315,9.891C1326.549,845.336,1339.324,842.05,1352.099,838.763z M1348.292,866.964
		c-21.2,4.156-42.4,8.312-63.601,12.468C1305.892,875.275,1327.092,871.12,1348.292,866.964z M1304.244,899.335
		c-15.764,2.022-31.532,4.034-47.301,6.034C1272.712,903.369,1288.48,901.357,1304.244,899.335z M1315.134,943.488
		c-19.069,0-38.138,0-57.209,0C1276.996,943.488,1296.064,943.488,1315.134,943.488z M1373.774,973.135
		c-26.986-1.711-53.961-3.604-80.943-5.389C1319.813,969.531,1346.788,971.424,1373.774,973.135z M1408.132,1004.656
		c-14.292-1.725-28.576-3.517-42.857-5.336C1379.556,1001.14,1393.84,1002.932,1408.132,1004.656z M1385.894,1060.355
		c-6.839-1.789-13.68-3.574-20.52-5.355C1372.214,1056.781,1379.055,1058.566,1385.894,1060.355z M1390.416,1093.428
		c25.374,8.54,50.729,17.137,76.091,25.717C1441.145,1110.564,1415.79,1101.968,1390.416,1093.428z M1400.627,1033.967
		c29.029,5.672,58.057,11.361,87.08,17.061C1458.684,1045.328,1429.656,1039.639,1400.627,1033.967z M1517.075,943.488
		c-14.72,0-29.438,0-44.157,0C1487.638,943.488,1502.355,943.488,1517.075,943.488z M1545.834,984.246
		c-16.355-1.067-32.71-2.141-49.065-3.221C1513.124,982.105,1529.479,983.179,1545.834,984.246z M1495.388,837.658
		c22.953-4.151,45.876-8.469,68.779-12.893C1541.264,829.189,1518.341,833.507,1495.388,837.658z M1518.092,755.73
		c8.532-2.838,17.062-5.683,25.59-8.531C1535.153,750.048,1526.624,752.893,1518.092,755.73z M1524.382,793.486
		c-6.177,1.635-12.353,3.269-18.528,4.9C1512.029,796.755,1518.205,795.121,1524.382,793.486z M1467.95,693.308
		c17.401-8.548,34.812-17.077,52.201-25.646C1502.762,676.23,1485.352,684.76,1467.95,693.308z M1476.263,730.263
		c-11.53,4.738-23.045,9.515-34.562,14.276C1453.218,739.777,1464.732,735.001,1476.263,730.263z M1431.234,711.676
		c8.278-4.051,16.464-8.281,24.684-12.45C1447.698,703.395,1439.513,707.625,1431.234,711.676z M1422.127,675.698
		c14.771-8.42,29.541-16.842,44.316-25.252C1451.668,658.856,1436.898,667.278,1422.127,675.698z M1403.523,602.013
		c13.419-10.201,26.852-20.382,40.298-30.547C1430.375,581.631,1416.942,591.812,1403.523,602.013z M1422.534,478.213
		c16.454-16.141,32.905-32.286,49.342-48.445C1455.439,445.927,1438.988,462.072,1422.534,478.213z M1361.83,481.304
		c24.54-25.816,46.54-53.816,70.229-79.321C1408.37,427.488,1386.37,455.488,1361.83,481.304z M1377.697,621.494
		c-24.562,18.656-49.177,37.243-73.853,55.752C1328.521,658.737,1353.135,640.15,1377.697,621.494z M1316.599,703.16
		c-9.597,6.472-19.309,12.78-29.058,19.027C1297.29,715.94,1307.002,709.632,1316.599,703.16z M1311.045,632.024
		c2.834-2.455,5.667-4.908,8.504-7.359C1316.712,627.116,1313.879,629.569,1311.045,632.024z M1299.368,642.149
		c-21.81,18.923-43.603,37.867-65.656,56.515C1255.766,680.017,1277.559,661.072,1299.368,642.149z M1264.966,588.646
		c1.858-2.078,3.717-4.156,5.575-6.233C1268.683,584.489,1266.824,586.567,1264.966,588.646z M1279.379,572.552
		c4.967-5.532,9.942-11.057,14.931-16.569C1289.321,561.495,1284.346,567.02,1279.379,572.552z M1246.37,560.488
		c-12,15-23,30-34.909,45.426C1223.37,590.488,1234.37,575.488,1246.37,560.488c20-23,36-47,55.944-69.432
		C1282.37,513.488,1266.37,537.488,1246.37,560.488z M1255.68,599.039c-20.147,22.556-40.813,44.734-60.335,67.817
		C1214.866,643.773,1235.532,621.595,1255.68,599.039z M1244.415,653.05c-16.917,16.605-33.833,33.212-50.749,49.817
		C1210.582,686.262,1227.498,669.655,1244.415,653.05z M1289.783,687.778c-26.448,19.788-52.968,39.483-79.569,59.074
		C1236.815,727.262,1263.335,707.566,1289.783,687.778z M1276.998,728.914c-10.749,6.839-21.517,13.648-32.214,20.567
		C1255.481,742.562,1266.249,735.753,1276.998,728.914z M1246.589,776.017c4.121-2.832,8.166-5.673,12.481-8.226
		c9.177-5.426,18.604-10.438,27.928-15.614c19.041-10.572,37.993-21.303,56.946-32.027c-18.953,10.725-37.905,21.455-56.946,32.027
		c-9.324,5.176-18.751,10.188-27.928,15.614C1254.755,770.344,1250.71,773.185,1246.589,776.017
		c-4.08,2.805-8.74,4.498-13.094,6.821C1237.849,780.515,1242.509,778.821,1246.589,776.017z M1296.19,776.135
		c-10.884,5.275-21.795,10.501-32.757,15.621C1274.396,786.636,1285.307,781.41,1296.19,776.135z M1362.511,776.479
		c-41.418,16.469-82.859,32.888-123.902,50.238C1279.651,809.366,1321.093,792.947,1362.511,776.479z M1296.966,828.782
		c-9.893,3.293-19.783,6.586-29.674,9.879C1277.183,835.368,1287.073,832.075,1296.966,828.782z M1300.107,852.221
		c-16.86,4.417-33.701,8.908-50.5,13.543C1266.406,861.129,1283.247,856.638,1300.107,852.221z M1295.03,990.311
		c-13.363-1.694-26.731-3.359-40.106-4.963C1268.299,986.951,1281.667,988.616,1295.03,990.311z M1277.724,1032.381
		c-9.369-2.396-18.742-4.785-28.116-7.168C1258.981,1027.596,1268.354,1029.985,1277.724,1032.381z M1362.534,1084.061
		c-39.595-13.281-79.224-26.473-118.888-39.559C1283.311,1057.588,1322.939,1070.779,1362.534,1084.061z M1308.611,1093.861
		c-14.49-5.863-28.945-11.812-43.329-17.928C1279.666,1082.049,1294.121,1087.998,1308.611,1093.861z M1351.416,1140.725
		c-20.856-11.236-43.268-19.236-63.722-29.926C1308.148,1121.488,1330.56,1129.488,1351.416,1140.725z M1274.375,1160.896
		c6.691,5.002,13.647,9.65,20.677,14.178C1288.022,1170.547,1281.066,1165.898,1274.375,1160.896z M1277.901,1193.771
		c-6.469-4.936-12.953-9.849-19.462-14.73C1264.948,1183.923,1271.433,1188.836,1277.901,1193.771z M1293.371,1141.949
		c-16.441-9.311-32.888-18.611-49.341-27.9C1260.483,1123.338,1276.93,1132.639,1293.371,1141.949z M1247.035,1142.855
		c-10.681-7.066-21.354-14.146-32.013-21.245C1225.682,1128.709,1236.354,1135.789,1247.035,1142.855z M1285.144,1237.219
		c-11.916-9.889-23.701-19.978-35.226-30.307C1261.442,1217.241,1273.228,1227.33,1285.144,1237.219z M1296.735,1289.285
		c-10.408-10.217-20.818-20.435-31.227-30.652C1275.917,1268.851,1286.327,1279.068,1296.735,1289.285z M1294.29,1244.916
		c3.748,3.186,7.476,6.397,11.17,9.646C1301.766,1251.313,1298.038,1248.102,1294.29,1244.916z M1314.052,1356.726
		c-12.984-14.298-25.972-28.589-38.86-42.97C1288.08,1328.137,1301.067,1342.428,1314.052,1356.726z M1289.522,1202.678
		c19.161,14.734,38.202,29.617,57.315,44.41C1327.725,1232.295,1308.684,1217.412,1289.522,1202.678z M1304.98,1181.391
		c10.878,6.871,21.773,13.734,32.157,21.314C1326.754,1195.125,1315.858,1188.262,1304.98,1181.391z M1353.372,1295.811
		c-12.919-11.258-25.926-22.416-38.942-33.564C1327.446,1273.395,1340.453,1284.553,1353.372,1295.811z M1322.947,1158.715
		c21.973,12.465,43.935,24.947,65.891,37.439C1366.882,1183.662,1344.92,1171.18,1322.947,1158.715z M1402.897,1289.707
		c-14.199-10.515-28.262-21.203-42.262-31.971C1374.636,1268.504,1388.698,1279.192,1402.897,1289.707z M1450.035,1379.648
		c-26.636-22.8-53.308-45.561-79.554-68.811C1396.728,1334.088,1423.399,1356.849,1450.035,1379.648z M1449.625,1324.059
		c6.92,5.23,13.772,10.547,20.493,16.021C1463.397,1334.605,1456.545,1329.289,1449.625,1324.059z M1445.469,1272.615
		c16.132,10.48,32.244,20.986,48.347,31.51C1477.713,1293.602,1461.601,1283.096,1445.469,1272.615z M1478.881,1203.008
		c14.102,6.979,28.204,13.947,42.319,20.896C1507.085,1216.955,1492.982,1209.986,1478.881,1203.008z M1500.541,1171.26
		c-16.604-6.841-33.242-13.604-49.897-20.326C1467.299,1157.656,1483.937,1164.419,1500.541,1171.26
		c8.395,3.457,16.684,6.973,25.322,9.8c4.063,1.329,8.275,2.454,12.146,4.245c3.643,1.687,7.225,3.428,11.047,4.702
		c-3.822-1.274-7.404-3.016-11.047-4.702c-3.87-1.791-8.082-2.916-12.146-4.245
		C1517.225,1178.232,1508.936,1174.717,1500.541,1171.26z M1510.704,1055.543c2.322,0.457,4.645,0.914,6.968,1.37
		C1515.349,1056.457,1513.026,1056,1510.704,1055.543z M1519.064,1057.188c1.162,0.228,2.322,0.456,3.484,0.684
		C1521.387,1057.644,1520.227,1057.415,1519.064,1057.188z M1485.014,1014.675c25.633,3.317,51.266,6.647,76.897,9.985
		C1536.279,1021.322,1510.646,1017.992,1485.014,1014.675z M1558.72,1106.402c-10.918-2.963-21.837-5.916-32.761-8.859
		C1536.883,1100.486,1547.802,1103.439,1558.72,1106.402z M1618.274,1122.048c-11.669-3.019-23.343-6.02-35.022-8.997
		C1594.932,1116.028,1606.605,1119.029,1618.274,1122.048z M1552.144,906.238c22.255-1.448,44.511-2.847,66.77-4.22
		C1596.654,903.392,1574.398,904.79,1552.144,906.238z M1580.043,863.795c-9.229,1.155-18.457,2.308-27.687,3.458
		C1561.586,866.104,1570.814,864.951,1580.043,863.795c45.988-5.758,91.968-11.581,137.937-17.498
		C1672.011,852.215,1626.031,858.038,1580.043,863.795z M1624.572,901.67c5.185-0.318,10.372-0.636,15.559-0.953
		C1634.944,901.034,1629.757,901.352,1624.572,901.67z M1735.91,943.488c-32.614,0-65.229,0-97.844,0
		C1670.681,943.488,1703.296,943.488,1735.91,943.488z M1626.808,1078.723c15.704,3.115,31.412,6.209,47.123,9.285
		C1658.22,1084.932,1642.512,1081.838,1626.808,1078.723z M1638.05,990.189c33.41,2.234,66.831,4.312,100.242,6.535
		C1704.881,994.501,1671.46,992.424,1638.05,990.189z M1829.451,713.262c-31.512,8.278-63.041,16.492-94.638,24.439
		C1766.41,729.754,1797.939,721.54,1829.451,713.262z M1739.906,623.056c4.993-2.363,9.979-4.743,15.032-6.974
		c2.534-1.119,5.268-2.678,7.958-3.349c2.432-0.606,4.878-0.179,7.201-1.492c-2.323,1.313-4.77,0.886-7.201,1.492
		c-2.69,0.671-5.424,2.23-7.958,3.349C1749.885,618.312,1744.899,620.693,1739.906,623.056
		c-10.146,4.802-20.418,9.108-30.856,13.229c-21.281,8.4-42.51,16.934-63.671,25.633c-21.228,8.727-42.428,17.103-64.023,24.879
		c-20.615,7.423-39.841,17.852-60.313,25.551c-1.413,0.531-2.832,1.045-4.258,1.537c1.426-0.492,2.845-1.006,4.258-1.537
		c20.473-7.699,39.698-18.127,60.313-25.551c21.596-7.776,42.796-16.152,64.023-24.879c21.161-8.699,42.39-17.232,63.671-25.633
		C1719.488,632.164,1729.761,627.858,1739.906,623.056z M1667.37,595.488c-41,21-81,41-122.113,59.766
		C1586.37,636.488,1626.37,616.488,1667.37,595.488c16-8,32-14,48.393-22.5C1699.37,581.488,1683.37,587.488,1667.37,595.488z
		 M1681.657,529.485c-40.058,22.781-80.298,45.249-120.416,67.925c-27.089,15.312-54.469,30.106-81.521,45.484
		c27.052-15.378,54.432-30.172,81.521-45.484C1601.359,574.734,1641.6,552.266,1681.657,529.485z M1638.596,423.889
		c-5.927,4.461-11.852,8.924-17.774,13.39C1626.744,432.813,1632.669,428.35,1638.596,423.889z M1605.91,377.667
		c-9.168,7.865-18.338,15.729-27.507,23.592C1587.572,393.396,1596.742,385.532,1605.91,377.667z M1578.095,469.559
		c-1.849,1.399-3.697,2.798-5.546,4.198C1574.397,472.357,1576.246,470.958,1578.095,469.559z M1593.419,521.798
		c8.285-6.413,16.805-12.477,26.207-17.164C1610.224,509.321,1601.704,515.385,1593.419,521.798
		c-8.421,6.517-17.355,12.278-26.467,17.776c-18.853,11.375-37.525,22.908-55.992,34.909c-19.044,12.377-37.54,25.521-56.417,38.141
		c18.877-12.619,37.373-25.764,56.417-38.141c18.467-12.001,37.14-23.534,55.992-34.909
		C1576.063,534.076,1584.998,528.315,1593.419,521.798z M1564.12,413.506c-3.878,3.325-7.757,6.65-11.635,9.975
		C1556.363,420.156,1560.242,416.831,1564.12,413.506z M1564.315,254.334c-17.789,20.209-35.629,40.374-53.545,60.471
		C1528.687,294.708,1546.526,274.543,1564.315,254.334z M1539.874,363.021c-17.041,16.727-34.081,33.454-51.121,50.182
		C1505.793,396.475,1522.833,379.748,1539.874,363.021z M1488.148,340.095c-13.84,15.417-27.729,30.79-41.679,46.107
		C1460.419,370.885,1474.309,355.513,1488.148,340.095z M1452.547,202.347c-17.177,26.142-35.177,52.142-53.999,77.477
		C1417.37,254.488,1435.37,228.488,1452.547,202.347z M1391.314,291.935c-0.843,1.59-1.768,3.136-2.752,4.642
		C1389.547,295.071,1390.472,293.525,1391.314,291.935z M1403.296,361.188c3.291-4.52,6.037-8.875,10.338-12.502
		c4.282-3.613,7.731-7.71,11.29-12.025c14.06-17.048,27.272-34.773,39.969-52.854c-12.696,18.082-25.909,35.807-39.969,52.854
		c-3.559,4.314-7.008,8.412-11.29,12.025C1409.333,352.313,1406.587,356.667,1403.296,361.188
		c-6.22,8.544-12.915,16.722-19.443,25.028c-13.32,16.947-25.989,34.409-39.273,51.393c13.284-16.984,25.953-34.446,39.273-51.393
		C1390.381,377.91,1397.076,369.731,1403.296,361.188z M1359.938,337.249c2.787-4.262,5.566-8.529,8.341-12.799
		C1365.505,328.72,1362.726,332.986,1359.938,337.249z M1376.134,214.419c-20.148,33.946-39.875,68.141-59.571,102.351
		C1336.259,282.56,1355.985,248.365,1376.134,214.419z M1293.819,435.068c4.843-6.971,9.683-13.944,14.507-20.929
		C1303.502,421.124,1298.662,428.097,1293.819,435.068z M1284.614,371.877c6.535-11.147,13.043-22.311,19.505-33.501
		C1297.657,349.566,1291.149,360.729,1284.614,371.877z M1278.37,156.488c1-4,4-7,5.713-10.096
		C1282.37,149.488,1279.37,152.488,1278.37,156.488c-12,32-27,63-39.878,94.689C1251.37,219.488,1266.37,188.488,1278.37,156.488z
		 M1237.004,368.488c19.925-40.352,41.464-79.886,61.182-120.342C1278.468,288.603,1256.929,328.136,1237.004,368.488
		c-1.787,3.62-3.562,7.246-5.32,10.88C1233.442,375.734,1235.217,372.108,1237.004,368.488z M1275.145,387.992
		c-3.513,5.966-7.03,11.928-10.55,17.89C1268.114,399.92,1271.632,393.958,1275.145,387.992z M1282.039,452.026
		c-25.631,36.928-50.471,74.363-75.385,111.775C1231.568,526.389,1256.408,488.954,1282.039,452.026z M1184.37,469.488
		c-11,21-19,42-29.98,63.41C1165.37,511.488,1173.37,490.488,1184.37,469.488c8-18,18-35,27.824-51.626
		C1202.37,434.488,1192.37,451.488,1184.37,469.488z M1188.37,370.488c-1,2,0,3-1,5c-9,18-15,36-23.288,53.515
		c8.288-17.515,14.288-35.515,23.288-53.515C1188.37,373.488,1187.37,372.488,1188.37,370.488c10-22,20-43,27.88-64.976
		C1208.37,327.488,1198.37,348.488,1188.37,370.488z M1170.306,124.071c-5.08,19.194-10.219,38.375-15.758,57.444
		C1160.087,162.447,1165.226,143.266,1170.306,124.071z M1198.761,217.719c-15.23,42.482-30.132,85.081-44.829,127.75
		C1168.629,302.8,1183.53,260.201,1198.761,217.719z M1199.772,515.954c-16.464,27.932-32.954,55.85-49.567,83.693
		C1166.818,571.803,1183.309,543.886,1199.772,515.954z M1146.292,212.344c-7.37,27.544-14.737,55.089-22.207,82.607
		C1131.555,267.433,1138.922,239.888,1146.292,212.344z M1136.168,569.061c-4.731,9.536-9.925,18.669-15.297,27.869
		C1126.243,587.729,1131.437,578.597,1136.168,569.061z M1101.04,579.592c12.898-29.777,25.36-59.741,37.773-89.723
		C1126.4,519.851,1113.938,549.814,1101.04,579.592z M1142.156,613.137c-3.508,5.875-7.021,11.747-10.539,17.616
		C1135.135,624.884,1138.648,619.012,1142.156,613.137z M1132.558,407.487c4.504-13.285,9.051-26.556,13.733-39.779
		C1141.608,380.931,1137.062,394.202,1132.558,407.487z M1118.681,99.318c-0.271,1.368-0.541,2.736-0.812,4.104
		C1118.14,102.055,1118.41,100.687,1118.681,99.318z M1126.162,426.405c-3.013,8.923-6.027,17.845-9.073,26.757
		C1120.135,444.25,1123.149,435.328,1126.162,426.405z M1096.52,510.937c5.096-13.544,9.972-27.17,14.73-40.836
		C1106.491,483.766,1101.615,497.392,1096.52,510.937z M1109.402,145.826c-8.823,42.314-17.509,84.657-26.16,127.006
		C1091.894,230.483,1100.579,188.14,1109.402,145.826z M1076.035,308.136c-3.939,18.969-7.774,37.96-11.604,56.952
		C1068.261,346.096,1072.096,327.105,1076.035,308.136z M1107.671,355.811c-14.301,56.678-31.301,113.678-46.433,170.379
		C1076.37,469.488,1093.37,412.488,1107.671,355.811z M1096.146,591.014c-1.811,4.23-3.619,8.462-5.422,12.695
		C1092.526,599.476,1094.335,595.244,1096.146,591.014z M1090.156,529.416c0.832-2.42,1.665-4.84,2.497-7.261
		C1091.821,524.576,1090.988,526.996,1090.156,529.416z M1083.352,549.221c-1.887,5.502-3.772,11.005-5.657,16.508
		C1079.579,560.226,1081.465,554.723,1083.352,549.221z M1060.595,384.116c-1.963,9.725-3.933,19.448-5.922,29.167
		C1056.662,403.563,1058.632,393.84,1060.595,384.116z M1058.63,535.631c-1.743,6.296-3.488,12.591-5.239,18.884
		C1055.142,548.222,1056.887,541.927,1058.63,535.631z M1052.023,426.164c-2.522,12.201-5.085,24.393-7.714,36.571
		C1046.938,450.556,1049.501,438.364,1052.023,426.164z M1049.109,569.994c-2.113,7.627-4.232,15.254-6.355,22.878
		C1044.877,585.248,1046.996,577.621,1049.109,569.994z M1040.272,482.511c-1.856,9.105-3.706,18.213-5.551,27.32
		C1036.566,500.724,1038.416,491.616,1040.272,482.511z M1032.236,522.128c-2.804,13.892-5.591,27.786-8.36,41.685
		C1026.646,549.914,1029.433,536.02,1032.236,522.128z M1001.147,134.021c-1.13,15.818-2.311,31.633-3.547,47.443
		C998.837,165.654,1000.018,149.839,1001.147,134.021z M1002.582,529.045c-2.336,17.097-4.684,34.193-7.046,51.287
		C997.898,563.238,1000.246,546.142,1002.582,529.045z M995.659,207.858c-3.289,50.63-8.289,101.63-10.444,152.954
		C987.37,309.488,992.37,258.488,995.659,207.858z M984.079,377.505c-2.522,37.155-4.996,74.314-7.381,111.479
		C979.083,451.819,981.557,414.66,984.079,377.505z M973.668,536.348c-0.698,11.153-1.387,22.307-2.062,33.462
		C972.281,558.654,972.97,547.501,973.668,536.348z M948.413,473.83c0,2.532,0,5.063,0,7.595
		C948.413,478.894,948.413,476.362,948.413,473.83z M948.325,351.714c0.017,29.786,0.027,59.572,0.025,89.358
		C948.353,411.287,948.342,381.5,948.325,351.714z M948.344,471.521c-0.013,32.616-0.042,65.232-0.098,97.849
		C948.301,536.753,948.331,504.137,948.344,471.521z M948.327,65.81c0-2.089-0.001-4.178-0.003-6.266
		C948.325,61.632,948.326,63.721,948.327,65.81z M948.323,87.136c-0.013,21.23-0.054,42.46-0.123,63.69
		C948.269,129.596,948.311,108.366,948.323,87.136z M948.316,315.413c0.054-49.924,0.054-98.924-0.116-149.246
		C948.37,216.488,948.37,265.488,948.316,315.413z M948.413,1715.562c0,2.532,0,5.064,0,7.596
		C948.413,1720.626,948.413,1718.094,948.413,1715.562z M948.325,1593.446c0.017,29.786,0.027,59.572,0.025,89.358
		C948.353,1653.019,948.342,1623.232,948.325,1593.446z M948.344,1713.253c-0.013,32.616-0.042,65.232-0.098,97.849
		C948.301,1778.485,948.331,1745.869,948.344,1713.253z M948.327,1307.542c0-2.09-0.001-4.178-0.003-6.267
		C948.325,1303.364,948.326,1305.452,948.327,1307.542z M948.323,1328.868c-0.013,21.23-0.054,42.46-0.123,63.689
		C948.269,1371.328,948.311,1350.099,948.323,1328.868z M948.316,1557.145c0.054-49.925,0.054-98.925-0.116-149.246
		C948.37,1458.22,948.37,1507.22,948.316,1557.145z M915.135,423.879c0.326,5.493,0.683,10.985,1.055,16.475
		c0.506,6.324,1.026,12.648,1.516,18.974c-0.49-6.326-1.009-12.649-1.516-18.974c0.428,6.301,0.876,12.601,1.347,18.898
		c-0.471-6.298-0.919-12.598-1.347-18.898c-0.443-5.542-0.872-11.084-1.328-16.624c0.456,5.54,0.884,11.083,1.328,16.624
		C915.817,434.864,915.46,429.373,915.135,423.879z M914.12,409.398c-1.144-16.574-2.222-33.153-3.178-49.74
		C911.898,376.245,912.976,392.824,914.12,409.398z M913.839,409.107c-1.146-16.48-2.26-32.963-3.32-49.449
		C911.579,376.145,912.693,392.627,913.839,409.107z M909.972,345.158c-0.918-13.778-1.825-27.557-2.715-41.337
		C908.146,317.601,909.053,331.379,909.972,345.158z M909.602,345.158c-0.857-13.776-1.672-27.555-2.428-41.337
		C907.93,317.603,908.744,331.381,909.602,345.158z M906.345,289.958c-1.23-18.729-2.452-37.459-3.666-56.189
		C903.893,252.499,905.115,271.229,906.345,289.958z M906.341,291.344c-1.279-19.191-2.553-38.383-3.822-57.576
		C903.788,252.961,905.062,272.153,906.341,291.344z M899.54,187.241c-1.908-28.491-3.786-56.983-5.615-85.479
		c1.829,28.494,3.677,56.987,5.54,85.479c-1.863-28.492-3.71-56.985-5.54-85.479C895.753,130.258,897.632,158.75,899.54,187.241z
		 M888.844,486.046c4.58,34.549,9.14,69.101,13.677,103.655c-4.532-34.518-9.119-69.027-13.739-103.533
		c4.621,34.506,9.207,69.016,13.739,103.533C897.984,555.147,893.424,520.595,888.844,486.046z M857.565,255.16
		c-3.534-26.547-6.962-53.109-10.448-79.663C850.603,202.051,854.031,228.612,857.565,255.16z M846.79,175.809
		c3.622,26.485,7.24,52.971,10.783,79.467C854.03,228.779,850.412,202.294,846.79,175.809z M860.064,273.869
		c2.663,19.863,5.347,39.723,8.006,59.587C865.411,313.592,862.727,293.732,860.064,273.869z M860.13,273.926
		c2.716,19.805,5.43,39.61,8.131,59.417C865.56,313.536,862.846,293.731,860.13,273.926z M870.258,349.781
		c4.313,32.148,8.673,64.291,13.181,96.412c-4.243-32.096-8.553-64.184-12.917-96.263c4.364,32.08,8.674,64.167,12.917,96.263
		c0.7,4.987,1.394,9.975,2.102,14.961c-0.708-4.986-1.402-9.974-2.102-14.961c0.667,5.038,1.346,10.074,2.008,15.113
		c-0.662-5.039-1.341-10.075-2.008-15.113C878.931,414.072,874.571,381.93,870.258,349.781z M848.573,573.158
		c-8.588-31.741-17.341-63.437-26.107-95.129C831.232,509.721,839.985,541.417,848.573,573.158z M831.767,602.895
		c-4.127-11.353-8.147-22.743-12.106-34.153C823.62,580.152,827.639,591.542,831.767,602.895z M809.59,431.444
		c-1.594-5.778-3.185-11.558-4.774-17.337C806.405,419.887,807.996,425.666,809.59,431.444z M799.688,395.405
		c-4.215-15.414-8.403-30.835-12.546-46.269C791.284,364.569,795.472,379.991,799.688,395.405z M783.455,335.696
		c-7.187-26.205-14.367-52.411-21.536-78.62C769.087,283.286,776.268,309.492,783.455,335.696z M753.839,227.52
		c-1.956-7.163-3.912-14.326-5.866-21.489C749.928,213.194,751.883,220.357,753.839,227.52z M743.032,187.905
		c-6.213-22.799-12.413-45.602-18.596-68.409C730.619,142.303,736.819,165.106,743.032,187.905z M665.311,122.376
		C702.37,226.488,738.37,329.488,774.37,435.488c2,8,5,16,7,24c10,29,20,57,29.955,85.008
		c-9.955-28.008-19.955-56.008-29.955-85.008c-2-8-5-16-7-24C738.37,329.488,702.37,226.488,665.311,122.376z M800.052,588.958
		c-6.209-14.859-12.524-29.676-18.853-44.486C787.528,559.283,793.842,574.1,800.052,588.958z M789.728,625.987
		c-12.672-26.499-24.897-51.499-39.006-76.928C764.831,574.488,777.055,599.488,789.728,625.987z M751.953,654.188
		c-4.868-7.549-9.791-15.063-14.755-22.551C742.162,639.125,747.085,646.64,751.953,654.188z M736.88,583.053
		c4.367,7.384,8.736,14.768,13.103,22.151C745.616,597.82,741.248,590.437,736.88,583.053z M746.427,540.142
		c-5.159-11.07-9.958-22.332-16.005-32.978C736.469,517.81,741.268,529.071,746.427,540.142z M724.36,561.883
		c-9.318-16.214-18.74-32.369-28.221-48.491C705.621,529.514,715.042,545.669,724.36,561.883z M689.766,611.839
		c11.052,14.22,22.09,28.449,33.115,42.689C711.856,640.288,700.817,626.059,689.766,611.839z M722.864,690.982
		c-10.324-11.88-20.537-23.938-31.136-35.577C702.328,667.044,712.541,679.103,722.864,690.982z M760.573,1321.916
		c4.73-9.536,9.924-18.669,15.297-27.869C770.497,1303.247,765.303,1312.38,760.573,1321.916z M795.701,1311.385
		c-9.403,21.922-18.834,43.829-27.948,65.874C776.866,1355.214,786.298,1333.307,795.701,1311.385z M754.583,1277.84
		c3.51-5.875,7.023-11.747,10.542-17.616C761.605,1266.093,758.092,1271.965,754.583,1277.84z M766.328,1478.441
		c10.989-32.905,21.957-65.824,33.893-98.401C788.285,1412.617,777.317,1445.536,766.328,1478.441
		c-14.546,43.556-29.708,86.878-45.222,130.098C736.62,1565.319,751.782,1521.997,766.328,1478.441z M745.04,1432.369
		c-16.67,35.119-28.67,71.119-44.892,106.157C716.37,1503.488,728.37,1467.488,745.04,1432.369z M673.232,1495.404
		c10.008-19.776,19.934-39.519,30.996-58.729c11.09-19.261,19.528-39.599,28.476-59.904c2.825-6.41,6.683-12.338,9.647-18.692
		c-2.964,6.354-6.822,12.282-9.647,18.692c-8.948,20.306-17.385,40.644-28.476,59.904
		C693.167,1455.886,683.24,1475.628,673.232,1495.404z M692.757,1382.169c17.86-30.319,35.767-60.609,53.778-90.839
		C728.524,1321.56,710.617,1351.85,692.757,1382.169z M641.061,1291.938c20.146-22.556,40.812-44.734,60.334-67.817
		C681.874,1247.203,661.208,1269.382,641.061,1291.938z M685.28,1285.062c-9.986,12.387-19.91,24.824-29.789,37.297
		C665.37,1309.887,675.293,1297.449,685.28,1285.062z M481.986,1405.136c27.396-26.894,54.793-53.786,82.19-80.68
		C536.779,1351.35,509.382,1378.242,481.986,1405.136z M534.446,1410.188c-23.087,25.73-46.059,51.562-69.041,77.386
		C488.388,1461.751,511.359,1435.919,534.446,1410.188z M234.352,1037.567c-29.318,3.729-58.631,7.489-87.939,11.291
		C175.72,1045.057,205.034,1041.296,234.352,1037.567z M194.883,993.589c10.434-0.546,20.871-1.044,31.31-1.48
		C215.753,992.545,205.317,993.043,194.883,993.589z M402.21,532.481c-38.84-27.993-76.84-57.993-115.534-86.833
		C325.37,474.488,363.37,504.488,402.21,532.481z M320.954,403.501c16.04,13.753,32.08,27.505,48.12,41.258
		C353.034,431.007,336.994,417.255,320.954,403.501z M406.614,476.952c-8.459-7.255-16.918-14.51-25.379-21.765
		C389.695,462.441,398.155,469.696,406.614,476.952z M387.735,393.324c3.415,3.345,6.827,6.693,10.235,10.045
		C394.562,400.017,391.15,396.669,387.735,393.324z M679.893,547.469c-10.372-15.111-20.708-30.247-30.896-45.479
		C659.184,517.222,669.521,532.358,679.893,547.469z M656.903,447.089c7.659,12.919,15.327,25.833,22.978,38.756
		C672.229,472.921,664.562,460.008,656.903,447.089z M642.917,601.118c13.599,15.225,27.198,30.448,40.904,45.58
		C670.116,631.566,656.516,616.343,642.917,601.118z M673.034,673.379c-6.715-6.592-13.43-13.184-20.146-19.776
		C659.604,660.195,666.319,666.787,673.034,673.379z M646.823,684.064c-11.524-10.329-23.311-20.418-35.226-30.306
		C623.512,663.646,635.299,673.735,646.823,684.064z M618.84,697.205c6.466,4.936,12.951,9.849,19.46,14.73
		C631.791,707.054,625.307,702.141,618.84,697.205z M622.364,730.081c-6.689-5.003-13.646-9.651-20.676-14.178
		C608.718,720.43,615.675,725.078,622.364,730.081z M600.005,601.691c10.409,10.218,20.817,20.435,31.226,30.653
		C620.822,622.126,610.414,611.909,600.005,601.691z M602.45,646.061c-3.749-3.186-7.475-6.398-11.169-9.646
		C594.975,639.663,598.702,642.875,602.45,646.061z M607.218,688.299c-19.16-14.735-38.202-29.618-57.315-44.411
		C569.016,658.682,588.058,673.564,607.218,688.299z M591.76,709.585c-10.877-6.871-21.774-13.733-32.158-21.314
		C569.985,695.852,580.883,702.714,591.76,709.585z M573.793,732.262c-21.972-12.465-43.935-24.947-65.891-37.439
		C529.858,707.315,551.821,719.797,573.793,732.262z M601.994,877.594c-32.049-6.195-64.091-12.426-96.128-18.68
		C537.903,865.168,569.945,871.399,601.994,877.594z M593.661,852.095c1.37,0.353,2.741,0.705,4.111,1.056
		C596.401,852.799,595.031,852.447,593.661,852.095z M277.826,988.958c22.259-1.373,44.517-2.771,66.771-4.22
		C322.343,986.187,300.085,987.585,277.826,988.958z M344.385,1023.723c-17.751,2.213-35.501,4.435-53.25,6.666
		C308.883,1028.157,326.633,1025.936,344.385,1023.723z M317.738,947.488c13.522,0,27.042,0,40.563,0
		C344.781,947.488,331.26,947.488,317.738,947.488z M350.906,906.73c16.355,1.068,32.71,2.142,49.064,3.222
		C383.617,908.872,367.261,907.798,350.906,906.73z M451.271,618.362c-16.13-10.481-32.245-20.986-48.347-31.511
		C419.026,597.375,435.141,607.881,451.271,618.362z M426.621,550.896c6.721,5.475,13.575,10.792,20.494,16.022
		C440.195,561.688,433.342,556.371,426.621,550.896z M479.623,678.723c-17.826-10.155-35.646-20.32-53.459-30.498
		C443.977,658.402,461.797,668.567,479.623,678.723z M470.272,584.084c1.839,1.318,3.676,2.64,5.51,3.966
		C473.948,586.725,472.112,585.403,470.272,584.084z M502.946,729.452c-19.446-9.41-38.864-18.877-58.271-28.365
		C464.083,710.575,483.5,720.042,502.946,729.452z M484.793,640.093c14.674,9.49,29.362,18.957,44.066,28.402
		C514.155,659.05,499.467,649.583,484.793,640.093z M417.858,687.969c-14.099-6.978-28.203-13.947-42.316-20.897
		C389.655,674.022,403.759,680.991,417.858,687.969z M321.365,589.424c21.13,12.105,42.724,23.409,63.89,35.453
		C364.089,612.833,342.496,601.529,321.365,589.424z M358.73,705.671c3.872,1.792,8.083,2.916,12.147,4.246
		c8.639,2.827,16.926,6.342,25.322,9.8c16.605,6.84,33.243,13.603,49.897,20.326c-16.655-6.723-33.292-13.486-49.897-20.326
		c-8.396-3.458-16.683-6.974-25.322-9.8C366.813,708.587,362.603,707.463,358.73,705.671c-3.642-1.686-7.224-3.428-11.046-4.702
		C351.507,702.244,355.088,703.985,358.73,705.671z M445.916,813.52c-19.819-5.256-39.629-10.543-59.432-15.862
		C406.286,802.977,426.096,808.264,445.916,813.52z M388.655,758.021c10.074,3.296,20.14,6.617,30.192,9.98
		C408.795,764.639,398.729,761.318,388.655,758.021z M430.234,771.832c25.361,8.58,50.716,17.177,76.091,25.718
		C480.95,789.009,455.595,780.412,430.234,771.832z M386.037,835.433c-2.323-0.457-4.646-0.913-6.968-1.37
		C381.391,834.52,383.714,834.977,386.037,835.433z M377.675,833.79c-1.162-0.228-2.323-0.457-3.484-0.685
		C375.353,833.333,376.514,833.562,377.675,833.79z M411.727,876.302c-25.634-3.318-51.267-6.648-76.897-9.985
		C360.46,869.654,386.093,872.984,411.727,876.302z M379.665,947.488c14.719,0,29.438,0,44.157,0
		C409.104,947.488,394.384,947.488,379.665,947.488z M404.248,980.719c-13.017,0.911-26.035,1.797-39.054,2.664
		C378.212,982.516,391.231,981.63,404.248,980.719z M409.032,839.95c29.026,5.699,58.051,11.389,87.082,17.06
		C467.083,851.338,438.058,845.648,409.032,839.95z M504.974,1002.96c16.702-2.174,33.406-4.342,50.11-6.5
		C538.379,998.618,521.676,1000.786,504.974,1002.96z M536.566,1026.342c-9.552,1.872-19.104,3.744-28.656,5.616
		C517.462,1030.086,527.014,1028.214,536.566,1026.342z M527.294,972.804c31.023-1.891,62.045-3.806,93.051-5.963
		C589.339,968.998,558.317,970.913,527.294,972.804z M509.919,947.488c13.277,0,26.554,0,39.832,0
		C536.473,947.488,523.196,947.488,509.919,947.488z M517.494,973.4c-13.352,0.813-26.704,1.626-40.054,2.458
		C490.79,975.026,504.142,974.214,517.494,973.4z M490.974,1004.783c-4.431,0.577-8.863,1.155-13.294,1.733
		C482.111,1005.938,486.543,1005.36,490.974,1004.783z M425.569,911.648c13.035,0.867,26.072,1.738,39.106,2.614
		C451.641,913.386,438.604,912.515,425.569,911.648z M450.174,947.488c-5.461,0-10.92,0-16.381,0
		C439.253,947.488,444.713,947.488,450.174,947.488z M447.709,880.951c6.586,0.849,13.17,1.697,19.756,2.544
		C460.88,882.648,454.295,881.8,447.709,880.951z M495.693,947.488c-11.855,0-23.709,0-35.565,0
		C471.983,947.488,483.838,947.488,495.693,947.488z M486.674,915.675c7.436,0.41,14.87,0.845,22.303,1.296
		C501.544,916.52,494.11,916.085,486.674,915.675z M467.491,976.496c-14.448,0.986-28.897,1.956-43.347,2.913
		C438.594,978.452,453.043,977.482,467.491,976.496z M498.127,1033.875c-21.62,4.02-43.151,8.478-64.686,12.911
		C454.976,1042.353,476.507,1037.895,498.127,1033.875z M518.755,1058.888c-19.539,5.055-39.062,10.164-58.541,15.44
		C479.692,1069.052,499.216,1063.942,518.755,1058.888z M551.216,1078.355c-16.411,5.462-32.822,10.924-49.233,16.385
		C518.394,1089.279,534.805,1083.817,551.216,1078.355z M544.642,1052.214c12.774-3.287,25.548-6.573,38.315-9.891
		C570.19,1045.641,557.417,1048.927,544.642,1052.214z M548.447,1024.013c21.2-4.156,42.401-8.312,63.601-12.468
		C590.849,1015.701,569.647,1019.856,548.447,1024.013z M592.495,991.642c15.765-2.022,31.532-4.034,47.301-6.034
		C624.027,987.607,608.26,989.619,592.495,991.642z M581.605,947.488c19.07,0,38.14,0,57.21,0
		C619.746,947.488,600.675,947.488,581.605,947.488z M522.965,917.841c26.987,1.712,53.962,3.604,80.944,5.389
		C576.928,921.445,549.952,919.553,522.965,917.841z M488.607,886.32c14.293,1.726,28.578,3.517,42.858,5.336
		C517.185,889.837,502.9,888.045,488.607,886.32z M510.847,830.622c6.839,1.789,13.679,3.574,20.52,5.355
		C524.526,834.195,517.687,832.41,510.847,830.622z M484.383,755.44c24.806,10.221,49.765,20.08,74.69,30.019
		C534.148,775.521,509.189,765.661,484.383,755.44z M493.843,601.269c14.197,10.515,28.261,21.204,42.261,31.972
		C522.104,622.473,508.041,611.784,493.843,601.269z M437.242,503.225c29.775,25.518,59.663,50.91,89.017,76.914
		C496.905,554.135,467.018,528.743,437.242,503.225z M400.449,405.802c32.227,31.551,64.269,63.289,96.392,94.946
		C464.718,469.091,432.675,437.353,400.449,405.802z M338.935,649.105c-7.993-3.976-16.005-7.913-24.032-11.819
		C322.93,641.193,330.942,645.129,338.935,649.105z M372.53,752.766c-33.739-10.958-67.495-21.853-101.144-33.086
		C305.036,730.913,338.792,741.808,372.53,752.766z M370.781,793.433c-10.922-2.943-21.843-5.896-32.76-8.859
		C348.938,787.537,359.859,790.49,370.781,793.433z M327.82,781.785c-2.493-0.683-4.986-1.367-7.479-2.051
		C322.833,780.418,325.327,781.103,327.82,781.785z M348.409,828.036c-16.136-3.294-32.279-6.556-48.427-9.792
		C316.13,821.48,332.273,824.742,348.409,828.036z M335.271,905.71c-17.504-1.076-35.005-2.193-52.504-3.336
		C300.266,903.518,317.767,904.634,335.271,905.71z M259.033,810.096c8.875,1.755,17.748,3.516,26.619,5.285
		C276.781,813.612,267.908,811.851,259.033,810.096z M272.169,989.307c-5.187,0.318-10.374,0.636-15.56,0.953
		C261.796,989.942,266.982,989.625,272.169,989.307z M264.825,1033.705c-2.54,0.321-5.079,0.643-7.619,0.964
		C259.746,1034.348,262.286,1034.026,264.825,1033.705z M300.629,1072.446c-23.434,4.309-46.815,8.896-70.172,13.606
		C253.813,1081.342,277.195,1076.755,300.629,1072.446z M199.817,1092.293c-19.89,4.166-39.788,8.291-59.703,12.34
		C160.029,1100.584,179.928,1096.459,199.817,1092.293z M162.245,1153.526c-22.565,5.941-45.157,11.778-67.794,17.437
		C117.087,1165.305,139.68,1159.468,162.245,1153.526z M202.712,1194.132c-15.408,5.141-30.815,10.284-46.216,15.446
		C171.897,1204.416,187.304,1199.272,202.712,1194.132z M186.285,1147.159c27.19-7.336,54.361-14.743,81.553-22.076
		C240.646,1132.416,213.476,1139.823,186.285,1147.159z M338.249,1148.729c-30.417,10.174-60.818,20.397-91.23,30.589
		C277.431,1169.126,307.832,1158.902,338.249,1148.729z M306.448,1114.74c18.292-4.859,36.602-9.654,54.939-14.344
		C343.05,1105.086,324.74,1109.881,306.448,1114.74z M378.648,1135.246c-8.532,2.838-17.061,5.683-25.589,8.531
		C361.588,1140.929,370.117,1138.084,378.648,1135.246z M372.359,1097.49c6.176-1.635,12.352-3.269,18.529-4.9
		C384.711,1094.222,378.535,1095.855,372.359,1097.49z M332.574,1066.211c22.901-4.424,45.824-8.741,68.779-12.893
		C378.398,1057.47,355.476,1061.787,332.574,1066.211z M358.491,1021.9c35.029-4.523,70.056-9.044,105.084-13.564
		C428.547,1012.856,393.52,1017.377,358.491,1021.9z M432.76,1081.552c-10.298,2.707-20.595,5.42-30.891,8.138
		C412.165,1086.972,422.461,1084.259,432.76,1081.552z M465.507,1179.301c-8.28,4.051-16.467,8.281-24.684,12.45
		C449.041,1187.582,457.227,1183.352,465.507,1179.301z M420.478,1160.714c11.53-4.738,23.043-9.515,34.564-14.276
		C443.521,1151.199,432.008,1155.976,420.478,1160.714z M432.433,1117.457c19.568-6.43,39.154-12.811,58.761-19.126
		C471.586,1104.646,452.001,1111.027,432.433,1117.457z M519.259,1120.457c-17.051,6.649-34.005,13.536-50.927,20.498
		C485.254,1133.993,502.208,1127.106,519.259,1120.457z M575.287,1127.109c-32.836,15.946-65.7,31.845-98.908,47.032
		C509.587,1158.954,542.451,1143.056,575.287,1127.109z M592.897,1213.73c-24.677,18.509-49.292,37.096-73.854,55.752
		C543.604,1250.826,568.22,1232.239,592.897,1213.73z M580.141,1187.816c9.597-6.472,19.308-12.78,29.058-19.027
		C599.449,1175.036,589.738,1181.345,580.141,1187.816z M585.695,1258.952c-2.833,2.455-5.668,4.908-8.504,7.359
		C580.027,1263.86,582.862,1261.407,585.695,1258.952z M565.566,1276.364c-20.661,17.903-41.159,35.988-61.79,53.925
		C524.408,1312.353,544.906,1294.268,565.566,1276.364z M478.567,1254.387c16.076-10.534,32.13-21.104,47.922-32.046
		C510.698,1233.283,494.643,1243.853,478.567,1254.387z M487.537,1207.912c9.643-5.495,19.287-10.988,28.935-16.475
		C506.824,1196.924,497.18,1202.417,487.537,1207.912z M493.215,1288.964c-13.417,10.201-26.85,20.382-40.295,30.547
		C466.366,1309.346,479.799,1299.165,493.215,1288.964z M544.647,1398.833c24.165-26.868,48.574-53.517,72.712-80.408
		C593.222,1345.316,568.812,1371.965,544.647,1398.833z M586.058,1411.025c-13.872,17.814-27.746,35.628-41.677,53.396
		C558.312,1446.653,572.186,1428.84,586.058,1411.025z M574.233,1314.583c22.856-22.437,45.713-44.873,68.57-67.31
		C619.947,1269.71,597.09,1292.146,574.233,1314.583z M597.373,1248.827c21.809-18.923,43.601-37.867,65.657-56.515
		C640.974,1210.96,619.182,1229.904,597.373,1248.827z M631.774,1302.331c-1.858,2.078-3.717,4.156-5.576,6.233
		C628.058,1306.487,629.916,1304.409,631.774,1302.331z M646.054,1334.299c-7.14,9.054-14.26,18.122-21.366,27.201
		C631.794,1352.421,638.914,1343.353,646.054,1334.299z M697.087,1316.689c5.954-8.895,11.941-17.768,17.984-26.604
		C709.028,1298.922,703.041,1307.795,697.087,1316.689z M693.422,1274.623c6.282-8.061,12.558-16.127,18.825-24.198
		C705.979,1258.496,699.704,1266.562,693.422,1274.623z M652.325,1237.927c16.917-16.605,33.833-33.212,50.75-49.817
		C686.158,1204.715,669.241,1221.321,652.325,1237.927z M606.956,1203.198c26.449-19.788,52.969-39.483,79.569-59.074
		C659.925,1163.715,633.405,1183.41,606.956,1203.198z M619.742,1162.062c10.749-6.839,21.519-13.648,32.214-20.567
		C641.26,1148.414,630.491,1155.224,619.742,1162.062z M650.151,1114.96c-4.12,2.832-8.166,5.673-12.481,8.226
		c-9.177,5.426-18.603,10.438-27.926,15.614c-19.042,10.572-37.995,21.303-56.948,32.027c18.953-10.725,37.905-21.455,56.948-32.027
		c9.324-5.176,18.75-10.188,27.926-15.614C641.985,1120.633,646.031,1117.792,650.151,1114.96c4.081-2.805,8.741-4.498,13.095-6.821
		C658.892,1110.462,654.232,1112.155,650.151,1114.96z M600.55,1114.842c10.884-5.275,21.795-10.501,32.756-15.621
		C622.345,1104.341,611.435,1109.566,600.55,1114.842z M534.23,1114.498c41.416-16.469,82.858-32.888,123.903-50.238
		C617.088,1081.61,575.646,1098.029,534.23,1114.498z M599.774,1062.194c9.892-3.293,19.784-6.586,29.674-9.879
		C619.558,1055.608,609.666,1058.901,599.774,1062.194z M596.631,1038.756c16.861-4.417,33.701-8.908,50.501-13.543
		C630.333,1029.848,613.492,1034.339,596.631,1038.756z M601.71,900.667c13.364,1.694,26.731,3.358,40.107,4.963
		C628.441,904.025,615.074,902.36,601.71,900.667z M619.017,858.595c9.37,2.396,18.742,4.785,28.116,7.168
		C637.758,863.38,628.387,860.991,619.017,858.595z M534.205,806.917c39.597,13.281,79.224,26.472,118.888,39.558
		C613.429,833.388,573.802,820.197,534.205,806.917z M588.128,797.115c14.49,5.864,28.946,11.813,43.329,17.927
		C617.074,808.928,602.618,802.979,588.128,797.115z M545.325,750.252c20.855,11.236,43.267,19.236,63.721,29.925
		C588.592,769.488,566.18,761.488,545.325,750.252z M603.369,749.027c16.44,9.311,32.887,18.611,49.342,27.9
		C636.256,767.639,619.809,758.338,603.369,749.027z M649.704,748.122c10.683,7.065,21.354,14.146,32.014,21.245
		C671.059,762.268,660.387,755.187,649.704,748.122z M641.074,714.013c15.859,11.859,31.873,23.524,48.128,34.856
		C672.947,737.537,656.934,725.872,641.074,714.013z M671.078,704.345c6.526,5.725,12.634,11.794,19.502,17.142
		C683.712,716.139,677.604,710.07,671.078,704.345z M697.634,573.281c8.743,12.725,17.468,25.462,26.106,38.255
		C715.102,598.743,706.376,586.006,697.634,573.281z M539.339,127.02C597.37,243.488,655.37,359.488,714.247,474.574
		C655.37,359.488,597.37,243.488,539.339,127.02z M672.542,589.698c-10.126-13.058-20.273-26.101-30.437-39.131
		C652.269,563.598,662.416,576.641,672.542,589.698z M620.196,522.522c5.017,6.411,10.03,12.825,15.04,19.241
		C630.226,535.347,625.213,528.934,620.196,522.522z M552.37,362.488c-5-8-10-15-15-24c-31-48-63-90-93.334-136.284
		c30.334,46.284,62.334,88.284,93.334,136.284C542.37,347.488,547.37,354.488,552.37,362.488c29,40,53,79,80.922,116.97
		C605.37,441.488,581.37,402.488,552.37,362.488z M621.548,577.221c-12.888-14.38-25.876-28.672-38.86-42.97
		C595.672,548.548,608.66,562.84,621.548,577.221z M543.368,595.166c12.919,11.258,25.927,22.416,38.943,33.565
		C569.295,617.582,556.287,606.423,543.368,595.166z M520.525,524.053c19.079,18.737,38.207,37.424,57.44,56.003
		C558.732,561.478,539.604,542.791,520.525,524.053z M555.416,504.109c-11.732-13.012-23.436-26.05-35.115-39.108
		C531.98,478.059,543.684,491.097,555.416,504.109z M513.296,457.164C458.37,395.488,403.37,333.488,347.925,271.401
		C403.37,333.488,458.37,395.488,513.296,457.164z M372.55,378.483c-23.909-23.784-48.684-46.674-72.767-70.279
		C323.866,331.809,348.641,354.7,372.55,378.483z M305.618,390.35c-9.695-8.315-19.39-16.631-29.083-24.948
		C286.228,373.719,295.922,382.035,305.618,390.35z M259.801,425.203c-13.78-10.683-27.583-21.338-41.518-31.82
		C232.217,403.865,246.021,414.52,259.801,425.203z M211.08,460.155c32.798,21.403,65.25,43.331,97.71,65.242
		C276.329,503.486,243.878,481.558,211.08,460.155z M300.679,630.401c-8.466-4.078-16.946-8.128-25.433-12.163
		C283.733,622.273,292.212,626.323,300.679,630.401z M260.321,611.162c-9.135-4.322-18.274-8.633-27.413-12.947
		C242.047,602.528,251.187,606.839,260.321,611.162z M206.704,585.821c-3.122-1.481-6.243-2.964-9.362-4.449
		C200.461,582.857,203.583,584.34,206.704,585.821z M185.484,575.712c-15.215-7.285-30.396-14.643-45.51-22.135
		C155.088,561.069,170.269,568.427,185.484,575.712z M89.37,594.488c11,6,23,9,34,14c2,1,4,3,6,4c1,0,2,0,3,0c47,20,93,38,140,58
		c13,5,26,10,39,15c6,3,12,6,18.475,7.159c-6.475-1.159-12.475-4.159-18.475-7.159c-13-5-26-10-39-15c-47-20-93-38-140-58
		c-1,0-2,0-3,0c-2-1-4-3-6-4C112.37,603.488,100.37,600.488,89.37,594.488c-2-1-3-1-4.529-1.346
		C86.37,593.488,87.37,593.488,89.37,594.488z M251.575,713.041c-6.822-2.294-13.641-4.597-20.458-6.905
		C237.935,708.444,244.753,710.746,251.575,713.041z M211.332,699.413c-15.142-5.159-30.287-10.31-45.441-15.432
		C181.045,689.103,196.19,694.254,211.332,699.413z M154.689,680.2c-25.921-8.739-51.866-17.405-77.842-25.979
		C102.823,662.794,128.768,671.461,154.689,680.2z M57.055,710.507c8.277,2.179,16.553,4.363,24.827,6.551
		C73.607,714.87,65.332,712.686,57.055,710.507z M96.626,778.294c7.717,1.481,15.432,2.97,23.145,4.471
		C112.058,781.265,104.343,779.775,96.626,778.294z M138.817,786.498c8.162,1.612,16.32,3.24,24.475,4.888
		C155.138,789.738,146.979,788.11,138.817,786.498z M184.506,795.499c4.561,0.886,9.122,1.773,13.683,2.661
		C193.628,797.272,189.067,796.385,184.506,795.499z M116.745,726.296c44.706,11.866,89.401,23.775,134.154,35.464
		c20.849,5.445,41.709,10.842,62.59,16.165c-20.88-5.323-41.741-10.72-62.59-16.165
		C206.146,750.072,161.451,738.162,116.745,726.296z M258.691,900.788c-11.811-0.81-23.623-1.617-35.434-2.418
		C235.069,899.171,246.88,899.978,258.691,900.788z M206.582,897.242c-2.548-0.172-5.095-0.343-7.643-0.514
		C201.486,896.899,204.034,897.07,206.582,897.242z M185.736,895.844c-12.971-0.866-25.942-1.724-38.914-2.571
		C159.794,894.12,172.766,894.978,185.736,895.844z M258.674,947.488c-41.884,0-83.768,0-125.651,0
		C174.907,947.488,216.791,947.488,258.674,947.488z M32.524,885.713c33.273,1.817,66.527,4.006,99.748,6.613
		C99.051,889.719,65.797,887.53,32.524,885.713z M105.911,947.488c-5.097,0-10.194,0-15.291,0
		C95.717,947.488,100.813,947.488,105.911,947.488z M34.048,1004.319c45.274-3.021,90.546-6.072,135.803-9.332
		C124.594,998.247,79.322,1001.299,34.048,1004.319z M39.034,1124.305c23.759-4.373,47.48-8.948,71.175-13.658
		C86.514,1115.356,62.793,1119.932,39.034,1124.305z M85.573,1297.398 M66.786,1239.783c23.299-7.871,46.603-15.729,69.915-23.562
		C113.389,1224.055,90.085,1231.912,66.786,1239.783z M139.37,1276.488c-5,2-10,2-15,4c-2,1-4,3-5.952,4.034
		c1.952-1.034,3.952-3.034,5.952-4.034C129.37,1278.488,134.37,1278.488,139.37,1276.488c13-6,25-13,38-18c53-21,105-42,159-62
		c15-6,28-15,43.586-19.396c-15.586,4.396-28.586,13.396-43.586,19.396c-54,20-106,41-159,62
		C164.37,1263.488,152.37,1270.488,139.37,1276.488z M351.483,1235.723c-51.113,22.766-100.113,49.766-150.941,72.91
		C251.37,1285.488,300.37,1258.488,351.483,1235.723z M388.005,1264.314c-40.317,22.297-80.127,45.483-120.437,67.786
		c-40.391,22.349-80.327,45.521-120.437,68.37c40.11-22.849,80.046-46.021,120.437-68.37
		C307.877,1309.798,347.688,1286.611,388.005,1264.314c9.698-5.363,19.381-10.756,29.016-16.232
		C407.386,1253.559,397.703,1258.951,388.005,1264.314z M376.588,1223.314c17.391-8.568,34.802-17.098,52.203-25.646
		C411.39,1206.217,393.979,1214.746,376.588,1223.314z M430.297,1240.53c14.776-8.41,29.545-16.832,44.316-25.252
		C459.842,1223.698,445.073,1232.12,430.297,1240.53z M244.25,1477.538c65.12-50.05,130.12-99.05,195.786-148.293
		C374.37,1378.488,309.37,1427.488,244.25,1477.538z M467.141,1362.02c-44.771,38.469-89.771,77.469-134.521,115.451
		C377.37,1439.488,422.37,1400.488,467.141,1362.02z M452.173,1434.4c-32.144,31.771-64.592,63.231-96.959,94.775
		C387.581,1497.632,420.029,1466.172,452.173,1434.4z M367.353,1598.05c15.842-17.538,31.624-35.134,46.992-53.091
		C398.977,1562.916,383.194,1580.512,367.353,1598.05z M481.37,1545.488c10-11,18-23,28-34c7-9,14-18,20.007-27.775
		c-6.007,9.775-13.007,18.775-20.007,27.775C499.37,1522.488,491.37,1534.488,481.37,1545.488c-13,13-22,28-33.714,42.028
		C459.37,1573.488,468.37,1558.488,481.37,1545.488z M629.97,1416.873c-26.034,37.841-52.534,75.352-77.9,113.648
		c-12.274,18.532-23.696,37.793-37.512,55.221c-6.472,8.164-10.905,17.362-16.728,25.944c-6.189,9.123-12.865,17.927-19.207,26.946
		c6.342-9.02,13.018-17.823,19.207-26.946c5.822-8.582,10.255-17.78,16.728-25.944c13.816-17.428,25.238-36.688,37.512-55.221
		C577.436,1492.225,603.936,1454.714,629.97,1416.873c20.402-29.656,40.165-59.738,60.116-89.697
		C670.135,1357.135,650.372,1387.217,629.97,1416.873z M664.152,1513.408c-1.705,3.449-3.418,6.895-5.138,10.336
		C660.733,1520.303,662.447,1516.857,664.152,1513.408z M641.252,1558.84c-11.368,22.156-22.507,44.429-33.481,66.781
		C618.745,1603.269,629.884,1580.996,641.252,1558.84z M671.565,1607.742c-16.086,38.442-32.206,76.873-48.677,115.152
		C639.359,1684.615,655.479,1646.185,671.565,1607.742z M654.089,1799.944c16.281-49.456,33.281-97.456,50.517-145.501
		C687.37,1702.488,670.37,1750.488,654.089,1799.944z M750.37,1676.488c-1,6-3,11-4,17c-11,36-18,72-28.951,107.561
		c10.951-35.561,17.951-71.561,28.951-107.561C747.37,1687.488,749.37,1682.488,750.37,1676.488c30-106,57-208,85.133-311.701
		C807.37,1468.488,780.37,1570.488,750.37,1676.488z M800.594,1299.963c1.811-4.23,3.619-8.462,5.424-12.695
		C804.213,1291.501,802.405,1295.732,800.594,1299.963z M806.585,1361.561c-0.833,2.42-1.665,4.84-2.499,7.261
		C804.92,1366.4,805.752,1363.98,806.585,1361.561z M813.388,1341.756c1.888-5.502,3.773-11.005,5.658-16.508
		C817.161,1330.751,815.276,1336.254,813.388,1341.756z M784.458,1759.51c10.913-54.021,22.913-108.021,33.237-162.137
		C807.37,1651.488,795.37,1705.488,784.458,1759.51z M825.342,1876.978c0.316-2.307,0.632-4.612,0.948-6.919
		C825.974,1872.365,825.658,1874.671,825.342,1876.978z M826.951,1865.216c0.473-3.458,0.944-6.917,1.415-10.375
		C827.896,1858.299,827.424,1861.758,826.951,1865.216z M828.555,1853.457c0.596-4.379,1.19-8.759,1.784-13.139
		C829.745,1844.698,829.15,1849.078,828.555,1853.457z M830.526,1838.936c6.171-45.542,12.16-91.107,18.106-136.68
		C842.686,1747.828,836.697,1793.394,830.526,1838.936z M826.17,1555.737c8.666-42.516,17.376-85.023,26.26-127.495
		C843.546,1470.714,834.835,1513.222,826.17,1555.737z M838.111,1355.346c1.742-6.296,3.488-12.591,5.239-18.884
		C841.599,1342.755,839.853,1349.05,838.111,1355.346z M847.631,1320.982c2.113-7.627,4.231-15.254,6.355-22.878
		C851.862,1305.729,849.744,1313.355,847.631,1320.982z M852.503,1672.556c12.867-91.067,22.867-182.067,36.56-273.205
		C875.37,1490.488,865.37,1581.488,852.503,1672.556z M856.468,1408.466c1.855-9.105,3.706-18.213,5.55-27.32
		C860.173,1390.253,858.323,1399.36,856.468,1408.466z M864.504,1368.849c2.803-13.892,5.592-27.786,8.36-41.685
		C870.096,1341.062,867.307,1354.957,864.504,1368.849z M892.067,1810.669c1.033-15.765,2.092-31.527,3.17-47.289
		C894.159,1779.142,893.1,1794.904,892.067,1810.669z M894.158,1361.932c2.337-17.097,4.685-34.193,7.044-51.287
		C898.843,1327.738,896.495,1344.835,894.158,1361.932z M897.977,1723.827c2.655-37.919,5.376-75.832,8.049-113.749
		C903.353,1647.995,900.631,1685.908,897.977,1723.827z M907.467,1589.241c4.903-61.753,7.903-124.753,12.574-187.248
		C915.37,1464.488,912.37,1527.488,907.467,1589.241z M923.072,1354.629c0.698-11.153,1.386-22.307,2.061-33.462
		C924.458,1332.322,923.771,1343.476,923.072,1354.629z M1205.011,1235.571c-10.597-11.639-20.811-23.697-31.135-35.577
		C1184.2,1211.874,1194.414,1223.933,1205.011,1235.571z M1107.013,1264.99c12.673,26.498,24.897,51.498,39.006,76.928
		C1131.91,1316.488,1119.686,1291.488,1107.013,1264.99z M1115.541,1346.504c-6.327-14.811-12.643-29.627-18.853-44.486
		C1102.898,1316.877,1109.214,1331.693,1115.541,1346.504z M1144.787,1236.788c4.866,7.549,9.791,15.063,14.755,22.552
		C1154.578,1251.852,1149.653,1244.337,1144.787,1236.788z M1159.86,1307.924c-4.367-7.384-8.736-14.768-13.104-22.151
		C1151.124,1293.156,1155.493,1300.54,1159.86,1307.924z M1166.317,1383.812c-6.047-10.646-10.846-21.907-16.005-32.978
		C1155.472,1361.905,1160.271,1373.166,1166.317,1383.812z M1077.08,1322.234c-3.96-11.41-7.979-22.801-12.107-34.152
		C1069.102,1299.434,1073.12,1310.824,1077.08,1322.234z M980.494,1450.182c2.934,38.076,5.416,76.185,7.805,114.298
		C985.91,1526.366,983.428,1488.258,980.494,1450.182z M989.159,1578.268c0.445,7.154,0.89,14.31,1.334,21.464
		C990.049,1592.577,989.604,1585.422,989.159,1578.268z M991.585,1616.387c5.785,73.102,8.785,147.102,14.552,220.058
		C1000.37,1763.488,997.37,1689.488,991.585,1616.387z M1016.168,1467.168c-3.04-24.455-6.324-49.18-9.662-73.975
		c-4.416-30.551-8.926-61.202-12.286-91.918c3.952,30.519,8.161,61.274,12.286,91.918c3.665,25.36,7.267,50.652,10.091,75.852
		c-2.824-25.199-6.426-50.491-10.091-75.852C1009.844,1417.988,1013.128,1442.713,1016.168,1467.168z M1034.288,1378.935
		c-5.136-25.566-10.279-51.132-15.492-76.683c5.182,25.708,10.332,51.423,15.481,77.138c-5.149-25.715-10.3-51.43-15.481-77.138
		C1024.009,1327.803,1029.152,1353.368,1034.288,1378.935z M1019.95,1495.527c10.42,91.961,24.42,183.961,37.088,275.889
		C1044.37,1679.488,1030.37,1587.488,1019.95,1495.527z M1020.518,1498.062c12.853,91.427,25.853,182.427,37.172,272.932
		C1046.37,1680.488,1033.37,1589.488,1020.518,1498.062z M1063.673,1819.689c0.221,1.609,0.44,3.22,0.66,4.83
		C1064.113,1822.909,1063.894,1821.299,1063.673,1819.689z M1065.209,1828.109c0.358,2.754,0.717,5.508,1.074,8.262
		C1065.926,1833.617,1065.567,1830.863,1065.209,1828.109z M1047.22,1443.958c6.928,34.471,13.896,68.933,20.978,103.372
		C1061.116,1512.891,1054.147,1478.429,1047.22,1443.958z M1047.287,1443.573c6.963,34.479,14.001,68.945,21.26,103.364
		C1061.288,1512.519,1054.25,1478.053,1047.287,1443.573z M1088.479,1646.144c4.987,24.301,9.968,48.604,14.93,72.909
		C1098.446,1694.747,1093.466,1670.444,1088.479,1646.144z M1088.44,1644.505c5.045,24.784,10.079,49.57,15.098,74.36
		C1098.52,1694.075,1093.485,1669.289,1088.44,1644.505z M1048.166,1317.818c22.204,77.67,42.204,155.67,64.096,233.401
		C1090.37,1473.488,1070.37,1395.488,1048.166,1317.818z M1085.415,1346.48c9.955,30.008,21.955,60.008,31.955,90.008
		c5,16,10,31,14.974,46.964c-4.974-15.964-9.974-30.964-14.974-46.964C1107.37,1406.488,1095.37,1376.488,1085.415,1346.48z
		 M1123.288,1591.787c3.623,13.675,7.264,27.345,10.932,41.007C1130.552,1619.132,1126.911,1605.462,1123.288,1591.787z
		 M1152.512,1699.918c0.681,2.459,1.363,4.916,2.048,7.374C1153.875,1704.834,1153.192,1702.377,1152.512,1699.918z
		 M1245.033,1808.127c0.901,2.637,1.803,5.274,2.702,7.912C1246.836,1813.401,1245.935,1810.764,1245.033,1808.127z
		 M1258.196,1685.332c-7.16-17.007-14.229-34.053-21.626-50.959C1243.967,1651.279,1251.036,1668.325,1258.196,1685.332z
		 M1149.329,1532.134c22.041,67.354,47.041,133.354,69.522,200.27C1196.37,1665.488,1171.37,1599.488,1149.329,1532.134z
		 M1189.37,1522.488c1,3,3,5,5,8c1,2,0,5,1,7c9,17,15,35,22.987,53.104c-7.987-18.104-13.987-36.104-22.987-53.104c-1-2,0-5-1-7
		C1192.37,1527.488,1190.37,1525.488,1189.37,1522.488c-4-14-11-25-15-39c-1-3-3-5-4-7c-3-7-5-14-8-21c-12-27-23-54-34.776-80.768
		c11.776,26.768,22.776,53.768,34.776,80.768c3,7,5,14,8,21c1,2,3,4,4,7C1178.37,1497.488,1185.37,1508.488,1189.37,1522.488z
		 M1172.38,1329.094c9.317,16.214,18.741,32.369,28.22,48.49C1191.121,1361.463,1181.697,1345.308,1172.38,1329.094z
		 M1173.001,1279.44c8.637,12.793,17.363,25.53,26.106,38.255C1190.364,1304.971,1181.638,1292.233,1173.001,1279.44z
		 M1173.86,1236.448c11.022,14.24,22.062,28.47,33.114,42.688C1195.922,1264.918,1184.883,1250.688,1173.86,1236.448z
		 M1253.821,1289.858c-13.597-15.225-27.196-30.448-40.903-45.579C1226.625,1259.41,1240.225,1274.634,1253.821,1289.858z
		 M1254.634,1340.409c-10.161-13.03-20.309-26.073-30.437-39.131C1234.325,1314.336,1244.473,1327.379,1254.634,1340.409z
		 M1216.859,1405.131c7.65,12.924,15.318,25.838,22.977,38.757C1232.178,1430.969,1224.51,1418.055,1216.859,1405.131z
		 M1216.848,1343.508c10.372,15.111,20.708,30.247,30.896,45.479C1237.556,1373.755,1227.22,1358.619,1216.848,1343.508z
		 M1293.738,1535.703c23.727,39.092,46.044,78.979,69.041,118.511C1339.782,1614.682,1317.465,1574.795,1293.738,1535.703
		c-15.028-24.76-29.197-50.073-43.945-75.005C1264.541,1485.63,1278.71,1510.943,1293.738,1535.703z M1261.504,1349.213
		c5.01,6.416,10.024,12.83,15.04,19.241C1271.528,1362.043,1266.514,1355.629,1261.504,1349.213z M1299.394,1397.86
		c-5.469-7.035-10.928-14.079-16.373-21.133C1288.466,1383.781,1293.925,1390.825,1299.394,1397.86
		c28.095,36.14,56.475,72.056,84.89,107.942C1355.868,1469.916,1327.488,1434,1299.394,1397.86z M1341.324,1386.867
		c8.491,9.417,16.966,18.847,25.429,28.289C1358.29,1405.714,1349.815,1396.284,1341.324,1386.867z M1318.775,1310.92
		c25.161,24.699,50.322,49.397,75.483,74.097C1369.098,1360.317,1343.937,1335.619,1318.775,1310.92z M1411.37,1465.146
		c-1.083-1.217-2.167-2.434-3.25-3.65C1409.203,1462.713,1410.287,1463.93,1411.37,1465.146
		c30.96,34.77,61.897,69.56,92.849,104.338C1473.268,1534.706,1442.33,1499.916,1411.37,1465.146z M1409.101,1399.585
		c34.27,33.903,69.27,66.903,103.545,101.644C1478.37,1466.488,1443.37,1433.488,1409.101,1399.585z M1549.744,1620.619
		c-11.462-12.868-22.921-25.738-34.378-38.61C1526.823,1594.881,1538.282,1607.751,1549.744,1620.619z M1473.208,1399.513
		c23.612,20.258,47.232,40.508,70.851,60.759C1520.44,1440.021,1496.82,1419.771,1473.208,1399.513z M1558.864,1472.966
		c6.346,5.44,12.691,10.882,19.037,16.323C1571.556,1483.848,1565.21,1478.406,1558.864,1472.966z M1636.398,1465.363
		c-47.028-35.875-94.028-71.875-141.868-106.868C1542.37,1393.488,1589.37,1429.488,1636.398,1465.363z M1575.375,1301.553
		c-21.131-12.105-42.723-23.409-63.891-35.453C1532.652,1278.144,1554.244,1289.447,1575.375,1301.553z M1524.21,1138.211
		c33.189,10.78,66.436,21.389,99.53,32.457C1590.646,1159.6,1557.399,1148.991,1524.21,1138.211z M1660.37,1235.488
		c-11-4-21-9-31-13c-2-1-3,0-5-1c-19-9-38-16-57.476-23.159c19.476,7.159,38.476,14.159,57.476,23.159c2,1,3,0,5,1
		C1639.37,1226.488,1649.37,1231.488,1660.37,1235.488c24,8,46,19,69.971,28.432
		C1706.37,1254.488,1684.37,1243.488,1660.37,1235.488z M1838.336,1180.114c-13.863-3.65-27.724-7.315-41.581-10.988
		C1810.612,1172.799,1824.473,1176.464,1838.336,1180.114z M1769.472,1279.637c7.233,5.177,16.576,7.327,24.797,10.667
		C1786.048,1286.964,1776.705,1284.813,1769.472,1279.637z M1782.869,1224.468c-41.504-13.846-82.908-27.981-124.335-42.058
		C1699.961,1196.486,1741.365,1210.622,1782.869,1224.468z M1687.354,1041.033c-1.849-0.241-3.697-0.483-5.547-0.725
		C1683.657,1040.55,1685.506,1040.792,1687.354,1041.033c46.158,6.03,92.316,12.062,138.479,18.064
		C1779.671,1053.095,1733.513,1047.063,1687.354,1041.033z"/>
	<path fill="none" stroke="#FFFFFF" stroke-width="2" stroke-miterlimit="10" d="M1072.824,1887.361
		c-0.109-0.859-0.222-1.719-0.331-2.579c-0.005,0.001-0.01,0.002-0.015,0.002C1072.593,1885.644,1072.71,1886.502,1072.824,1887.361
		z"/>
	<path fill="none" stroke="#FFFFFF" stroke-width="2" stroke-miterlimit="10" d="M1135.308,1877.234
		c-0.181-0.909-0.362-1.817-0.543-2.727h-0.001C1134.944,1875.417,1135.127,1876.325,1135.308,1877.234z"/>
	<path fill="none" stroke="#FFFFFF" stroke-width="2" stroke-miterlimit="10" d="M761.432,13.742
		c0.18,0.908,0.362,1.816,0.543,2.724c0,0,0,0,0,0C761.795,15.558,761.612,14.65,761.432,13.742z"/>
	<path fill="none" stroke="#FFFFFF" stroke-width="2" stroke-miterlimit="10" d="M823.916,3.615
		c0.107,0.859,0.219,1.717,0.326,2.576c0.003,0,0.007-0.001,0.011-0.002C824.143,5.331,824.026,4.474,823.916,3.615z"/>
</g>
</svg>
