<svg version="1.2" baseProfile="tiny" xmlns="http://www.w3.org/2000/svg" viewBox="-312.365 0 610.636 706"><path fill="#FFF" d="M18.634 646.006h-2c-1.067 0-1.583.952-1.446 1.898 1.038 7.182 3.449 14.041 4.735 21.171 1.012 5.612 4.783 9.454 9.341 12.72 4.211 3.017 10.246 3.137 15.133 2.403 5.129-.771 8.127-4.1 10.596-8.423.495-.868 2.474-5.772 3.547-5.754 2.347.04 6.724 4.339 8.646 5.721 2.677 1.927 4.208 3.571 7.383 4.546 3.27 1.004 7.099.089 10.399-.218 2.681-.249 5.458-.348 8.065-1.118 2.195-.648 3.741-1.952 6.158-2.221 5.609-.624 11.154-1.665 16.42-3.741 6.312-2.488 17.971-11.327 7.413-16.442-5.38-2.605-9.886-2.865-15.723-2.322-4.181.389-7.532.728-11.465-1.302-1.632-.842-2.516-3.81-3.196-5.374-2.829-6.504-6.826-10.062-12.945-4.448-2.183 2.003-4.132 4.147-6.611 5.809-3.662 2.454-7.423-.021-10.908-1.556-5.081-2.237-10.811-4.24-16.442-3.141-6.508 1.271-8.591-1.113-11.893-6.281-1.846-2.89-3.386-5.976-4.91-9.042-1.537-3.091-3.003-6.217-4.56-9.298-1.961-3.882-4.828-7.531-5.996-11.736-1.847-6.653-2.221-15.168.105-21.701 2.581-7.247 7.16-18.645 17.006-17.229 2.307.332 5.577.715 7.337 2.328 1.646 1.51 3.986.339 5.896 1.82 2.644 2.053 3.968 5.291 4.19 8.541.271 3.973-2.517 6.773-4.301 9.979-6.224 11.184 1.898 20.639 11.565 25.613 5.004 2.575 11.426 2.369 16.918 2.755 5.569.391 9.127 4.982 14.977 2.862 4.549-1.649 6.026-10.562 11.351-9.676 6.738 1.121 7.726 9.645 6.461 14.96-1.265 5.317-6.593 8.637-6.76 14.203-.108 3.597 3.975 6.363 7.18 6.597 5.827.423 11.096-2.557 16.864-2.735 1.823-.057 6.971 1.216 6.971 3.832 0 1.572-.018 1.676.443 3.115.652 2.038 1.938 3.759 3.461 5.218 5.647 5.406 14.889 2.707 19.933-1.991 3.058-2.849 6.958-7.423 8.29-11.443 2.08-6.285.544-11.962-2.37-17.637-3.201-6.236-6.51-11.604-7.692-18.647-.912-5.435-1.408-11.493-5.233-15.835-2.138-2.426-4.829-3.939-6.783-6.536-1.092-1.45-2.19-3.099-3.792-4.038-2.019-1.185-4.09-3.527-6.358-4.151-2.494-.687-6.849-.644-9.369-.073-6.251 1.414-11.966 6.6-17.551 9.729-5.723 3.206-10.55 6.802-15.829 10.633-2.754 1.998-5.609 3.147-9.004 2.238-4.57-1.225-6.226-7.11-6.396-11.094-.428-10.039 11.306-11.155 18.63-12.762 9.888-2.169 19.185-8.566 16.25-19.836-2.099-8.062-16.941 1.654-20.043 3.676-5.26 3.427-13.727 6.229-19.196 1.899-6.895-5.458-1.464-12.918 1.04-18.898 1.614-3.854-.382-8.638-3.129-11.386-2.748-2.747-7.438-2.543-10.896-1.41-3.717 1.218-5.175 5.187-5.979 8.661-.934 4.032.568 8.466-4.289 10.465-3.331 1.37-8.117-2.454-11.263-3.734-2.609-1.062-5.36-1.55-8.141-1.864-2.558-.289-7.246 1.315-9.266-.656-5.802-5.666-2.416-16.605.331-22.717.985-2.192 2.933-4.985 3.201-7.424.321-2.924.029-5.691-.418-8.58-1.171-7.567-.798-14.288 5.932-18.989 3.865-2.699 8.784-3.766 13.317-4.728 5.84-1.24 16.216-4.576 18.761 3.381 1.217 3.806.09 7.87-1.041 11.529-.785 2.539-2.552 5.709-2.552 8.387 0 3.771 4.018 5.734 7.188 5.888 10.197.495 11.669-15.204 14.911-21.59 7.58-14.927 25.103-2.086 35.155 3.236 3.172 1.68 3.247 7.266 3.143 10.235-.118 3.399-1.579 6.617-3.369 9.432-1.966 3.092-5.031 4.82-7.885 6.951-2.909 2.172-7.544 2.079-10.987 2.52-9.525 1.219-10.118 13.432-4.458 19.093 3.019 3.019 9.423 1.497 12.794.287 6.76-2.428 14.067-8.818 21.417-5.453 2.875 1.317 6.478 5.654 5.991 9.077-.375 2.631-2.613 4.65-3.099 7.296-.699 3.812 1.409 7.718 4.541 9.814 3.929 2.631 8.444 3.933 13.157 3.589 5.116-.373 7.826-5.541 9.772-9.696 2.28-4.871 4.312-10.89 3.072-16.328-.794-3.485-3.345-5.523-3.345-9.351 0-2.657-.455-5.222 2.641-6.495 1.443-.594 3.336-.314 4.845-.201 3.473.26 3.716 3.535 4.609 6.612 1.007 3.465 1.164 7.109 1.098 10.692-.147 7.916-2.762 15.789-5.813 23.011-2.116 5.008-5.67 9.663-5.754 15.256-.075 4.97 5.312 8.932 8.565 11.919 4.654 4.273 8.81 8.46 10.863 14.604 1.223 3.659 3.259 6.222 7.136 7.106 8.628 1.97 18.88-5.64 24.746-10.944 3.506-3.17 7.398-7.038 7.912-12.065.333-3.26.502-6.513.923-9.771.414-3.212 1.362-8.004.176-11.123-.896-2.358-.921-5.142-2.151-7.358-.907-1.636-4.251-4.547-4.313-6.243-.058-1.55-1.23-2.299-2.379-3.036-3.336-2.142-6.451-4.747-8.829-7.937-6.073-8.149 5.498-13.079 11.936-14.46 3.474-.746 8.112-.794 9.29 3.43.975 3.493 1.835 6.998 3.043 10.422 1.352 3.833 3.139 8.789 7.653 9.434 1.673.239 3.666-1.359 5.062-2.058 3.437-1.718 4.366-3.123 6.457-6.444 7.406-11.769 11.188-25.468 15.21-38.643 2.517-8.243 1.963-18.028-3.094-25.295-4.341-6.239-14.883-6.546-21.213-3.981-13.648 5.528-11.823 29.635-29.117 29.068l1.5 1.5c.016-3.706.998-6.155 1.946-9.602.285-1.034-.657-3.401-1.151-4.155-2.545-3.889-6.887-5.34-11.353-5.846-3.426-.389-6.956.741-8.389 4.204-1.129 2.729-1.409 5.588-2.074 8.444-1.488 6.39-9.263 5.134-13.007 1.98-5.536-4.662-2.055-14.299-1.662-20.387.345-5.341-2.014-10.366-4.68-14.853a28.604 28.604 0 0 0-9.441-9.642c-3.23-2.019-8.773-4.126-11.807-1.18-3.191 3.1-3.987 7.771-4.235 11.999-.154 2.628-.008 5.274-.082 7.905-.043 1.55-.283 3.062-.636 4.568-1.216 5.184-5.793 2.851-7.983.974-4.63-3.968-2.312-12.178-7.36-15.744-4.731-3.344-9.901-5.664-15.7-5.167-2.864.245-5.667.824-8.549.398-4.127-.61-6.156-6.667-7.091-10.055-2.064-7.481 1.427-16.438 6.641-21.868 5.347-5.57 18.369-2.579 23.462 1.668 1.623 1.354 2.942 2.771 4.892 3.65 2.287 1.032 6.393.728 8.919.856 4.406.226 9.777-3.045 12.81-5.97 3.401-3.28 5.391-7.828 6.285-12.396 1.625-8.293-1.576-17.886-8.4-23.029-4.582-3.453-9.869-3.284-15.184-4.883-7.95-2.391-9.881-12.119-6.391-18.691 3.567-6.718 13.433-7.619 19.82-5.157 2.762 1.064 5.357.867 8.045 2.575 3.771 2.395 5.137 5.464 6.807 9.495 2.214 5.341 7.279 3.981 11.758 6.304 3.021 1.567 5.575 4.302 6.906 7.406.327.766.78 1.539 1.338 2.16 1.414 1.574.604 2.421 1.312 3.886 4.266 8.836 15.288 22.469 1.08 28.21-8.73 3.527-15.383 11.964-13.545 21.651 1.847 9.736 11.749 14.787 19.861 18.52 4.026 1.853 8.534 4.771 13.032 5.156 5.434.467 10.114-2.114 13.562-6.172 3.149-3.706 4.182-9.405 4.967-14.048.555-3.273.126-5.992 2.638-8.596 2.847-2.95 8.229-3.892 11.638-1.803 2.812 1.723 5.65 2.873 7.588 5.719 1.003 1.473.584 3.65 1.617 5.269 3.022 4.738 8.128 6.144 12.913 8.788 4.937 2.729 6.99 7.344 13.019 5.529 4.418-1.331 7.777-5.08 9.761-9.083 1.283-2.591 2.658-8.026.897-10.748-1.095-1.693-2.213-2.661-4.058-3.515-2.676-1.236-8.675-2.148-6.295-6.448 1.875-3.388 6.733-5.318 9.496-8.01 3.717-3.619 3.903-10.083 3.852-14.921-.062-5.812-1.532-11.973-4.73-16.822-2.882-4.368-7.195-9.823-12.411-11.337-3.68-1.067-12.484 3.944-14.318-.345-2.142-5.009-5.646-9.058-10.926-10.748-3.325-1.064-6.848.047-8.824 2.771-5.482 7.554-10.31-1.586-12.301-6.438-3.698-9.015-1.386-21.007-13.5-22.998-5.47-.899-10.825 1.718-15.863 3.452-7.876 2.711-14.647 3.657-22.707 1.142-7.096-2.214-14.037-4.894-20.805-7.962-5.096-2.311-18.425-6.47-16.08-13.854 4.052-12.754 21.489-10.692 31.021-7.833 3.571 1.07 7.028 2.31 10.397 3.919 2.083.996 5.055.289 7.358 1.151 2.871 1.075 5.052-2.701 5.109-4.917.261-9.946-10.437-16.235-18.887-18.823-5.423-1.662-12.792-.198-18.378-.01-7.561.255-14.926-.325-21.689-3.992-1.701-.922-3.215 1.668-1.514 2.591 11.958 6.484 25.153 3.669 38.127 4.104 6.139.206 14.729 5.384 18.11 10.437.446.666 3.118 8.914-1.386 7.229-.892-.333-2.414-.407-3.343-.501-3.573-.363-6.71-1.995-10.104-3.144-9.923-3.359-19.465-5.189-29.276-.379-3.407 1.67-6.522 4.719-7.978 8.246-1.866 4.524-.973 7.701 2.544 10.773 4.623 4.039 12.057 6.558 17.63 9.015 6.517 2.873 13.238 5.25 20.032 7.371 5.986 1.868 11.618 1.473 17.626-.1 7.032-1.839 14.179-6.417 21.605-4.532 6.915 1.755 6.935 12.387 8.346 18.082 1.004 4.053 3.021 8.119 5.727 11.298 1.853 2.178 5.019 3.354 7.74 2.204 1.675-.707 3.247-1.649 4.354-3.123 4.021-5.353 10.162-.911 13.134 3.071 1.212 1.624 1.432 4.966 3.11 5.948 1.958 1.147 4.274 1.246 6.461 1.094 2.648-.184 5.122-1.239 7.791-1.375 4.396-.224 9.317 6.973 11.474 10.028 4.533 6.424 5.131 15.84 3.576 23.311-1.169 5.615-6.236 7.726-10.221 11.149-2.194 1.886-3.339 4.301-2.686 7.157 1.34 5.854 10.508 3.638 11.265 9.607.789 6.219-4.835 14.233-11.403 14.233-1.955 0-5.361-3.674-7.065-4.772-3.046-1.964-6.436-3.42-9.678-5.022-3.283-1.623-3.46-4.012-4.311-7.104-.532-1.935-2.11-3.545-3.565-4.818-3.054-2.675-8.06-6.055-12.279-5.229-4.288.838-7.956 2.396-10.593 5.974-1.148 1.558-1.388 3.611-1.509 5.473-.249 3.817-1.405 7.199-2.235 10.885-.928 4.111-4.632 7.345-8.341 8.901-3.833 1.608-7.74.108-11.215-1.596-4.833-2.37-9.818-4.348-14.432-7.153-5.26-3.199-9.451-8.083-9.87-14.441-.51-7.748 6.524-13.536 12.991-16.149 8.618-3.482 9.23-11.43 6.321-19.313-1.562-4.229-3.955-8.143-6.425-11.89-.894-1.356-.025-2.957-1.234-4.304-1.986-2.212-2.816-4.92-4.828-7.158-1.775-1.975-4.039-3.471-6.375-4.682-3.342-1.734-7.753-.767-9.611-5.25-.786-1.898-1.438-4.464-2.89-5.998-1.874-1.98-4.153-3.421-6.248-5.145-1.395-1.147-2.881-1.205-4.608-1.223-3.112-.032-6.282-1.377-9.463-1.614-5.141-.382-10.208 1.282-14 4.75-6.528 5.969-5.455 16.385-.045 22.535 3.665 4.167 9.752 4.455 14.795 5.449 6.532 1.289 10.672 7.765 12.262 13.754 1.446 5.443.31 11.284-2.42 16.109-1.818 3.215-4.447 4.606-7.464 6.487-4.386 2.733-7.668 2.062-12.5 1.609-2.948-.275-4.212-2.498-6.463-4.082-2.052-1.443-4.351-2.254-6.7-3.101-5.162-1.859-11.848-1.565-16.841.684-8.119 3.658-12.26 16.87-10.607 25.082.946 4.704 2.943 9.845 6.988 12.701 3.534 2.495 9.288.872 13.166.539 2.807-.24 4.957.812 7.482 1.894 4.622 1.981 6.84 5.055 8.079 9.975 1.136 4.514 2.905 8.132 7.091 10.395 9.351 5.057 10.766-7.813 10.746-13.712-.017-4.935-.197-15.47 7.095-14.009 6.053 1.214 10.491 6.419 13.48 11.45 3.709 6.242 3.829 11.928 2.908 18.962-.693 5.299-1.166 10.121 2.175 14.6 4.193 5.62 15.954 7.127 18.666-.806.933-2.729 1.167-5.601 1.95-8.371 1.456-5.144 8.206-3.569 11.554-1.861 3.556 1.813 4.042 4.253 2.848 7.468-.867 2.334-.771 5.188-.782 7.629-.004.838.686 1.474 1.5 1.5 8.91.292 14.045-5.557 18.046-12.831 2.114-3.844 3.917-7.835 6.363-11.49 4.578-6.843 13.382-7.638 20.399-4.363 6.941 3.239 8 15.174 6.745 21.786-1.354 7.135-4.366 14.481-6.752 21.337-2.412 6.929-5.408 13.602-9.179 19.897-2.159 3.606-4.728 5.043-8.38 6.869-3.032 1.516-6.224-9.784-6.705-11.414-1.036-3.505-1.591-10.486-6.14-11.737-5.198-1.43-11.332.528-15.989 2.714-3.549 1.665-8.106 4.595-8.39 8.991-.311 4.812 2.764 8.525 6.062 11.677 1.82 1.739 3.93 3.211 6.007 4.619 1.131.766 1.857 3.513 2.938 4.602 5.62 5.661 4.965 14.974 4.025 22.25-.514 3.985-.314 7.853-2.126 11.54-1.516 3.087-4.349 5.351-6.856 7.618-4.576 4.138-10.265 7.288-16.267 8.781-4.36 1.086-7.912-.313-9.357-4.744-1.134-3.477-2.827-6.468-5.073-9.343-2.45-3.138-5.631-5.704-8.528-8.407a58.447 58.447 0 0 1-3.784-3.912c-3.508-3.948-1.324-8.047.675-11.963 7.762-15.209 13.017-33.735 4.56-49.733-.25-.473-.779-.727-1.295-.743-3.756-.122-7.467-.971-10.807 1.206-3.413 2.225-3.795 8.941-2.272 12.251 1.977 4.297 3.649 7.333 2.891 12.322-.587 3.854-2.407 7.505-4.106 10.964-3.592 7.308-12.547 5.831-17.971 1.438-6.53-5.29 1.905-9.656.712-15.079-1.105-5.022-4.02-8.989-8.732-11.147-4.263-1.952-9.01-.646-12.971 1.334-5.033 2.517-15.913 9.35-20.448 3.455-2.907-3.779-2.617-9.266 1.805-11.683 2.744-1.499 7.81-1.871 10.899-2.061 1.93-.118 4.054-2.438 5.557-3.501 2.159-1.525 4.147-2.981 5.745-5.166 2.945-4.028 4.47-8.442 4.643-13.426.085-2.44-.518-4.896-1.284-7.187-1.008-3.011-2.107-3.597-4.862-5.055-7.895-4.181-21.239-13.956-30.644-8.954-9.206 4.896-8.672 15.771-13.421 23.668-1.172 1.949-3.049 3.222-5.174 3.891-2.474.779-5.418-1.241-4.656-4.057.85-3.142 2.061-6.174 2.919-9.315 1.43-5.234 1.125-10.573-2.761-14.459-3.366-3.366-7.31-3.584-11.643-2.669-4.885 1.031-9.808 1.776-14.593 3.236-8.341 2.544-14.524 8.195-15.504 17.13-.307 2.798.413 5.83.869 8.58.872 5.258-.243 8.872-2.48 13.692-2.542 5.476-3.979 10.812-3.609 16.867.239 3.899 1.817 8.234 5.021 10.667 2.325 1.766 3.932.548 6.894.303 4.588-.381 9.116 1.081 13.225 2.963 3.866 1.771 7.369 4.549 11.711 1.951 5.642-3.375 3.906-7.774 5.224-13.469.897-3.875 3.786-5.628 7.542-5.686 4.228-.065 6.334 3.587 6.782 7.494.36 3.146-3.103 7.112-4.36 9.909-.902 2.008-.932 4.381-.487 6.516 1.936 9.295 10.803 12.77 19.246 9.428 2.75-1.089 5.13-1.622 7.702-3.198 2.875-1.761 5.35-3.29 8.54-4.486 1.988-.745 7.187-4.15 7.424 1.327.2 4.605-2.421 8.663-6.322 11.21-5.125 3.345-12.847 3.362-18.598 5.212-4.131 1.328-9.406 3.702-9.973 8.599-1.03 8.898 2.52 20.484 13.682 18.716 4.335-.687 8.111-4.524 11.391-7.147 5.824-4.657 12.993-7.655 19.301-11.61 1.974-1.236 3.894-2.844 6.067-3.712 1.945-.778 4.41-.515 6.458-.413 3.695.182 6.451 2.201 9.301 4.447 1.871 1.475 3.11 3.954 4.79 5.679.971.997 2.541 1.834 3.499 2.734 2.003 1.882 3.096 4.491 3.907 7.046 1.861 5.854 1.7 11.984 4.102 17.736 3.011 7.213 8.33 12.801 8.33 21.009 0 10.11-17.284 27.037-25.793 14.58-1.246-1.823-.167-5.319-1.646-6.641-1.943-1.735-3.839-2.976-6.309-3.828-5.579-1.927-11.88 1.599-17.34 2.32-2.384.315-4.848-.211-6.432-2.272-1.834-2.387 1.033-5.451 2.279-7.143 1.554-2.112 2.626-4.165 3.566-6.596 1.528-3.953 1.214-8.676-.256-12.572-1.237-3.28-3.724-5.471-6.887-6.785-4.634-1.925-8.277.86-10.042 4.792-1.779 3.964-5.714 6.529-9.957 4.28-2.051-1.088-3.958-2.251-6.284-2.582-7.77-1.105-14.708-.446-21.605-4.923-8.363-5.43-9.93-13.652-4.499-21.874 2.643-4.001 3.595-7.828 2.346-12.562-.824-3.122-3.936-7.732-7.242-8.642-1.245-.343-2.708.422-3.838-.614-.5-.459-.812-.823-1.412-1.073-2.25-.938-5.906-1.57-8.379-1.605-11.976-.171-16.946 13.108-19.796 22.571-1.546 5.132-.84 12.191.262 17.336 1.473 6.875 5.376 12.294 8.469 18.552 3.063 6.198 5.949 12.416 9.843 18.154 2.773 4.085 6.585 6.51 11.625 5.063 6.418-1.842 12.945 1.205 18.669 3.747 3.432 1.523 6.027 2.516 9.693 1.043 3.414-1.371 6.062-4.526 8.646-7.011 4.242-4.078 6.118-.949 7.877 3.021 2.965 6.686 6.387 9.717 14.274 9.333 2.28-.11 4.82-.252 7.065-.624 3.713-.614 7.15.697 10.477 2.187 8.768 3.924-7.926 11.495-10.596 12.338-4.611 1.454-9.49 2.035-14.279 2.529-1.238.128-2.194.833-3.205 1.501-1.969 1.301-6.312 1.48-8.461 1.563-3.286.127-6.284.836-9.602.325-2.583-.397-5.786-3.609-7.975-5.185-2.736-1.969-6.138-6.257-10.156-5.151-2.417.665-4.312 6.289-5.451 8.284-3.582 6.272-10.375 7.069-16.948 5.637-6.871-1.497-11.207-8.194-12.345-14.502-1.178-6.532-3.458-12.782-4.411-19.371l-1.446 1.898h2c1.939.002 1.939-2.998.005-2.998z"/><path fill="#FFF" d="M260.634 410.006c-1.974-.073-3.691-2.766-5.186-3.858-1.536-1.123-3.071-1.927-4.843-2.591-2.911-1.091-6.206-.757-9.106.12-7.712 2.331-7.827 10.741-14.928 13.734-7.354 3.101-8.279-8.232-9.042-12.368-.74-4.009-3.227-7.528-5.602-10.73-2.564-3.456-5.338-6.67-6.92-10.732-1.76-4.519-.65-9.761-1.928-14.473-.506-1.865-3.399-1.073-2.893.797 1.421 5.241.413 10.584 2.406 15.703 1.483 3.812 4.291 7.01 6.743 10.22 1.409 1.843 2.617 3.786 3.798 5.78 1.755 2.963 1.404 6.101 2.053 9.297.796 3.928 2.737 7.135 6.348 9.024 5.164 2.703 13.604-2.855 15.026-8.024 1.494-5.432 8.527-6.738 13.246-5.455 4.529 1.231 6.048 6.38 10.826 6.557 1.937.07 1.93-2.93.002-3.001zM259.39 358.801c2.926-2.137 5.957-4.094 9.037-6 1.901-1.177 4.747-2.194 6.131-4.013 2.895-3.802 2.93-9.642 2.078-14.109-.76-3.991-3.652-7.198-3.78-11.38-.092-3.027.877-6.145 1.21-9.161.166-1.5.319-4.105-.56-5.483-.955-1.498-2.438-4.666-4.116-5.445-4.281-1.986-7.987-.729-11.662 2-4.552 3.38-5.13 7.434-7.708 12.063-1.099 1.973-6.69 3.636-8.716 4.983-2.103 1.399-4.364 2.627-6.428 3.953-2.118 1.361-3.567 3.373-6.126 4.005-1.253.31-2.42.967-3.675.377-2.392-1.124-4.107-3.407-5.521-5.534-1.625-2.446-3.09-5.595-3.697-8.471-.466-2.203-.285-4.723-1.365-6.771-3.96-7.504-6.151-14.576-3.619-23.013 2.391-7.965 9.506-11.714 17.26-12.049 3.714-.161 10.249 4.794 11.955 7.851 1.312 2.353 2.465 4.209 4.788 5.57 4.016 2.352 10.57-.144 14.583-1.294 2.296-.658 5.914-.9 7.931-2.081 1.642-.962 3.017-3.903 3.645-5.564 4.217-11.152-1.396-21.061-6.714-30.577-2.131-3.812-7.722-5.038-11.52-6.181-5.188-1.563-10.476 1.156-14.525 4.179-6.127 4.575-13.48 5.93-20.908 6.691-2.059.211-5.688-.195-7.491.861-2.134 1.25-3.915 3.834-5.498 5.685-3.519 4.112-6.807 8.411-11.702 10.965-3.376 1.761-7.24 1.127-10.723.102-4.014-1.182-6.592-5.586-9.483-8.381-8.953-8.652-26.505-14.53-27.364-28.66-.515-8.463 5.929-13.827 12.061-18.341 7.311-5.382 18.777-5.643 25.606 1.187 2.67 2.67 4.154 4.572 5.414 8.138.594 1.682 1.283 3.375 2.524 4.702 2.79 2.984 6.337 4.242 10.385 4.143 3.785-.093 7.262-1.972 10.032-4.417 1.301-1.148 2.912-2.99 3.358-4.724.998-3.869.061-7.896 3.207-11.042 14.191-14.191 20.889 14.439 33.939 14.439 3.859 0 7.187-4.357 8.532-7.451 2.231-5.13.894-10.26-.56-15.336-.902-3.15-1.81-6.261-3.07-9.291-1.197-2.879-2.936-4.315-4.775-6.779-1.859-2.491-2.692-7.091-3.681-10.042-.688-2.055-1.472-3.66-2.882-5.326-5.432-6.418-16.552-6.421-23.321-2.571-4.055 2.306-5.56 9.386-6.877 13.412-.625 1.909-2.282 8.255-6.345 4.987-1.206-.97-2.115-2.697-2.984-3.978-1.322-1.949-2.729-3.3-4.975-3.973-3.604-1.08-6.84 1.422-8.526 4.323-.739 1.272-1.253 3.442-.982 4.922.2 1.095.329 1.407.791 2.406-.994 3.541-2.678 4.354-5.05 2.438l-1.306-2.059c-4.744-7.486-10.385-17.156-19.624-19.457-3.997-.996-7.929.704-11.122 2.978-4.061 2.891-5.268 8.437-7.416 12.637-2.318 4.532-7.857 6.622-12.058 9.033-3.606 2.07-6.971 4.513-9.149 8.12-2.06 3.41-1.708 7.582-.696 11.246.785 2.843-.049 5.883.63 8.659.986 4.034 2.997 7.758 3.14 11.969.235 6.918-6.657 13.334-11.974 16.587-6.835 4.183-14.146 2.754-19.727-2.727-6.119-6.01-5.247-13.995-1.098-20.791 3.379-5.534 9.315-8.809 10.264-15.605.667-4.777-1.57-9.662-3.069-14.069-.985-2.895-2.327-5.902-.263-8.515 1.856-2.35 2.186-5.182 4.447-7.35 4.725-4.527 10.545-7.757 15.339-12.234 4.749-4.437 5.801-9.829 8.288-15.513 2.373-5.424 6.149-10.352 11.311-13.338 6.981-4.039 16.097-.229 18.343 7.461.646 2.21 2.087 3.32 3.401 5.155 1.347 1.88 2.042 3.232 3.952 4.603 3.385 2.429 8.282 3.957 11.857 1.029 4.958-4.06 4.871-11.291 10.46-14.901 3.247-2.098 7.75.7 10.551 2.244 2.85 1.57 3.984 2.097 7.225 2.097 2.948 0 6.17-3.847 6.974-6.41 1.325-4.223.583-8.495-1.071-12.518-2.461-5.983-5.876-11.793-9.199-17.329-2.394-3.987-5.984-10.945-11.211-11.846-3.532-.609-7.521-1.58-10.374 1.4-3.506 3.662-5.917 8.215-9.459 11.855-5.521 5.675-12.104 3.658-18.594 1.068-2.937-1.172-5.718-2.251-8.897-2.18-3.943.088-10.372 1.834-13.357-1.711-4.926-5.851 2.836-13.842 6.93-17.425 2.895-2.534 5.854-4.633 9.779-5.077 3.671-.415 7.563.567 11.221.838 8.619.639 15.556-3.761 16.471-12.479.864-8.227-2.749-18.995-7.535-25.576-2.391-3.289-6.972-8.707-11.277-9.559-3.367-.667-7.66.843-10.53-1.65-2.871-2.495-2.427-6.816-3.718-10.043-1.045-2.611-6.215-3.887-8.618-4.598-3.714-1.101-7.725-1.131-11.105.893-3.934 2.356-5.246 8.6-6.045 12.627-1.2 6.042-.042 12.83 2.563 18.362.744 1.579-1.485 4.749-2.108 6.235-1.057 2.52-2.134 4.967-3.641 7.253-1.992 3.023-5.989 5.055-9.5 3.52-2.799-1.223-4.416-4.609-5.66-7.205-6.33-13.206 1.525-26.419-.441-40.049-.739-5.12-3.459-8.045-8.045-10.21-3.867-1.826-8.354-5.288-12.949-4.097-3.948 1.023-7.471 6.625-9.726 9.753-3.642 5.054-5.533 11.185-9.81 15.79-4.438 4.778-10.42-3.509-12.137-7.024-2.14-4.38-2.444-9.575-4.633-13.867-5.477-10.738-16.95-7.604-23.454.429-8.175 10.097-5.816 25.103-4.64 36.938.4 4.028-.158 6.187-2.401 9.634-1.985 3.051-4.156 5.982-6.192 9-3.555 5.27-2.866 10.488-2.421 16.506.177 2.395 1.032 4.173 2.213 6.208 1.494 2.576 1.476 4.5 2.028 7.286.771 3.891 1.285 6.917.309 10.888-1.021 4.158-2.414 8.225-3.548 12.353-1.347 4.901-3.344 12.043-.656 16.715 4.125 7.169 5.583 15.559 3.074 23.498-.991 3.137-2.979 4.918-3.284 8.178-.352 3.74-.514 7.497-.646 11.25-.132 3.748-.153 7.5-.171 11.25-.014 2.834-.548 6.251.665 8.93 3.569 7.886 18.96 14.183 26.187 7.917 6.261-5.428 9.663-17.587 7.951-25.534-1.077-4.996-4.596-9.374-6.883-13.846-3.504-6.853 1.247-15.487 3.847-21.733 5.216-12.53 2.806-22.869-2.645-34.863-3.916-8.617-1.334-16.794 1.584-25.247 2.585-7.487 6.824-16.379 13.9-20.349 6.175-3.464 14.412-5.543 19.84.125 5.239 5.472 5.622 13.206 4.354 20.188-1.062 5.849-7.995 9.504-12.181 12.97-3.95 3.271-4.472 6.792-3.269 11.705.945 3.859 4.793 6.189 8.252 7.395 5.078 1.771 10.165-.206 14.606-2.65 4.613-2.538 8.356-6.536 12.02-10.233 2.014-2.033 4.652-5.925 7.899-4.327 2.327 1.146 2.919 4.807 3.343 7.071.993 5.3 1.078 10.861-2.684 15.074-5.918 6.629-15.079 5.046-22.934 5.789-9.356.885-15.645 9.854-17.166 18.468-1.021 5.787.478 11.652 3.708 16.483 4.424 6.616 11.782 4.662 18.315 3.033 1.264-.314 6.408-2.125 7.12-.883 1.05 1.83 1.447 3.956 1.538 6.03.219 4.998-3.417 8.382-7.954 9.473-4.367 1.05-10.705.68-14.995-.295-1.514-.344-2.136-1.805-3.528-2.218-1.691-.501-3.02-.209-4.673.329-5.48 1.786-6.106 9.217-5.324 13.981.811 4.937 5.695 7.712 9.854 9.474 2.312.98 4.697 1.782 7.033 2.703a28.056 28.056 0 0 1 3.954 1.958c1.685.993-2.94 6.535-3.35 7.182-4 6.31-4.856 13.684-1.188 20.28.94 1.691 3.532.178 2.591-1.514-4.406-7.924-.479-15.831 4.765-22.183 1.954-2.366.927-4.734-1.304-6.356-6.308-4.587-18.979-4.097-19.645-14.016-.305-4.543 1.617-11.209 8.131-7.393 2.019 1.183 4.825 1.256 7.109 1.42 4.907.354 10.632.302 15.159-1.792 7.654-3.541 7.363-13.442 3.784-19.68-.254-.442-.777-.765-1.295-.743-6.315.27-14.978 5.058-20.843 2.125-6.312-3.156-6.942-13.127-5.586-18.976 1.292-5.567 5.112-10.181 10.082-12.85 6.342-3.407 14.718-.099 21.47-3 4.573-1.965 8.31-4.827 10.438-9.414 1.646-3.549.971-8.104.52-11.855-.396-3.292-1.27-6.434-3.379-9.034-1.459-1.798-5.797-3.316-7.762-1.556-7.991 7.156-22.011 25.626-33.715 14.385-3.386-3.252-2.011-8.596 1.022-11.27 2.13-1.877 4.477-3.508 6.675-5.305 4.302-3.516 6.194-7.52 6.991-12.936 1.288-8.753-3.084-20.392-12.109-23.071-4.726-1.403-10.242-.211-14.561 1.961-6.009 3.023-9.045 5.888-12.252 11.769-5.94 10.891-13.066 25.357-7.629 37.784 3.146 7.193 5.759 13.383 6.232 21.306.416 6.958-3.779 13.69-6.233 19.951-1.73 4.414-3.128 10.634-1.272 15.2 2.361 5.808 6.919 10.605 7.722 17.013.597 4.768-2.038 11.903-4.126 16.132-4.363 8.84-13.979 5.191-20.927 1.845-6.902-3.324-4.254-17.366-4.079-23.58.106-3.756.338-7.505.646-11.25.269-3.279 3.219-7.101 4.035-10.444 1.325-5.425.345-11.197-1.375-16.4-.942-2.851-3.404-5.81-3.601-8.795-.304-4.627.97-9.3 2.184-13.719 1.435-5.224 5.097-12.246 4.003-17.759-.542-2.732-.641-5.467-1.125-8.156-.59-3.279-3.182-5.568-4.096-8.77-1.998-6.993-.033-13.384 3.897-19.075 3.435-4.973 7.636-9.146 7.112-15.452-1.151-13.856-5.186-35.858 11.275-42.672 8.915-3.69 11.322 6.133 13.153 12.157 1.285 4.226 2.904 8.265 5.62 11.779 2.308 2.987 5.713 4.4 9.344 4.878 4.29.565 7.581-6.011 9.287-9.113 1.316-2.394 2.48-4.857 3.876-7.21 1.497-2.521 3.679-4.445 5.428-6.768 3.582-4.754 6.487-4.267 11.163-1.675 3.668 2.033 7.798 2.668 9.609 7.085 1.284 3.134.562 7.269.417 10.567-.176 4.005-1.014 7.944-1.608 11.901-.912 6.069-1.006 11.677 1.004 17.481 2.295 6.622 7.602 15.898 16.036 12.206 4.047-1.771 6.279-5.04 8.128-8.931 1.086-2.287 1.971-4.667 3.028-6.968 1.625-3.536 1.526-2.711-.109-6.673-3.162-7.662-2.583-16.567 1.322-23.848 3.029-5.648 11.705-2.241 15.91-.207 2.136 1.033 1.976 4.336 2.49 6.349.529 2.072 1.649 3.776 3.014 5.38 1.184 1.392 3.197 2.348 5.022 2.373 4.76.065 8.669.153 12.293 3.79 7.155 7.181 12.671 19.592 10.94 30.041-2.3 13.894-22.033 4.098-30.416 8.742-7.982 4.422-16.934 13.178-14.538 23.086 1.07 4.426 4.562 5.561 8.544 5.865 3.863.295 7.853-.995 11.674-.074 4 .964 7.737 2.977 11.667 4.196 9.508 2.95 15.947-5.043 20.832-11.777 1.641-2.261 2.98-4.527 5.757-5.321 3.008-.859 5.333.212 7.72 1.849 3.464 2.375 5.716 7.04 7.83 10.562 2.182 3.635 4.11 7.421 6.026 11.2 2.526 4.981 5.762 11.606 1.761 16.774-4.137 5.343-11.301-1.623-16.18-2.662-3.867-.824-7.888 1.342-9.976 4.574-1.441 2.231-2.651 4.474-3.646 6.932-1.037 2.561-2.235 4.437-5.001 5.418-2.604.924-7.407-2.28-8.763-4.351-5.075-7.756-8.924-18.631-20.449-16.98-10.016 1.434-16.256 10.507-19.742 19.255-1.168 2.933-1.904 5.691-3.649 8.381-2.32 3.577-5.686 6.181-9.062 8.704-4.368 3.264-10.096 6.337-12.358 11.523-.637 1.461-1.097 2.706-2.101 3.978-.49.62-1.169.73-1.38 1.498-.489 1.776.395 4.52.817 6.246 1.619 6.612 6.03 13.197 2.339 19.917-1.527 2.781-4.583 4.939-6.497 7.492-1.678 2.238-3.309 4.584-4.299 7.225-2 5.332-1.916 10.149.599 15.259 3.958 8.045 14.696 13.425 23.245 9.555 8.122-3.677 18.482-12.803 16.83-22.901-.521-3.182-1.773-6.1-2.741-9.161-.877-2.772-.232-6-.764-8.862-1.309-7.047-.785-11.331 5.371-15.645 3.641-2.551 7.76-4.348 11.456-6.821 4.24-2.837 5.659-7.695 7.683-12.112 2.863-6.251 9.48-9.035 15.618-5.764 5.249 2.797 8.928 8.628 12.106 13.429 1.978 2.986 3.262 6.637 6.957 7.652 3.46.95 6.638-1.617 7.453-4.808.56-2.19-1.481-3.904-.901-6.502.683-3.059 4.513-5.029 7.153-2.904 1.206.97 2.115 2.697 2.984 3.978 2.313 3.411 5.582 5.147 9.461 3.051 3.854-2.083 4.719-10.281 6.242-13.872 3.113-7.34 11.122-8.063 17.859-5.832 6.73 2.229 7.026 8.641 9.579 14.224 1.148 2.51 1.742 4.31 3.65 6.416 3.093 3.411 4.103 8.332 5.324 12.649 1.062 3.751 1.987 6.987 1.4 10.906-.419 2.796-3.28 8.621-6.987 7.981-6.884-1.187-11.003-9.384-15.811-13.666-8.202-7.305-18.941-4.72-22.956 5.525-1.334 3.404.259 6.177-2.539 9.604-1.775 2.174-4.341 3.426-6.994 4.129-2.704.716-5.545.146-7.937-1.193-3.274-1.833-3.369-5.114-4.231-8.29-.554-2.041-3.165-3.77-4.563-5.168-2.314-2.314-4.228-3.43-7.22-4.807-5.557-2.556-11.393-3.565-17.229-1.386-10.154 3.793-19.323 13.103-19.539 24.269-.225 11.605 12.022 18.612 20.26 24.44 2.783 1.969 5.459 4.049 7.982 6.341 2.308 2.094 3.959 4.767 6.295 6.791 3.488 3.023 9.24 3.917 13.666 3.273 4.378-.638 8.086-3.828 11.067-6.856 3.708-3.765 7.008-10.703 12.63-11.245 6.284-.606 12.461-1.184 18.427-3.389 6.618-2.447 11.904-9.548 19.571-7.905 3.124.669 7.811 2.187 9.726 4.803 1.684 2.299 3.093 4.954 4.376 7.496 3.021 5.985 4.425 12.989 2.513 19.508-1.98 6.754-13.114 8.16-19.256 8.767-4.979.492-4.988-4.016-7.669-6.501-2.117-1.962-4.424-3.61-6.809-5.235-8.87-6.044-19.338-.543-24.775 7.311-3.117 4.501-3.716 10.477-3.273 15.779.562 6.741 5.057 11.859 5.881 18.372.835 6.591 7.048 20.178 15.439 17.78 2.636-.753 3.526-.604 5.585-2.438 1.812-1.613 3.775-1.896 5.648-3.213 2.879-2.026 4.794-4.153 8.187-5.427 1.725-.647 3.151-1.069 4.32-2.631 1.316-1.762 2.033-3.678 2.761-5.733 1.233-3.483 3.894-5.932 6.982-7.833 4.37-2.69 9.417 1.9 9.493 6.33.054 3.095-.798 6.194-1.186 9.259-.336 2.66.071 4.856 1.241 7.212 2.005 4.037 3.155 7.775 2.796 12.289-.349 4.381-1.876 5.799-5.431 7.945-3.648 2.202-7.236 4.486-10.678 7-1.541 1.137-.046 3.742 1.518 2.599z"/><g><g fill="#FFF"><path d="M-143.614 274.354c6.537.305 10.662 6.735 16.701 8.675 3.326 1.069 6.78 1.256 10.174.824.453-.941.908-1.881 1.362-2.822-6.133 1.024-13.225-1.233-17.384-4.938-7.394-6.585-17.952-5.728-25.936-.753-8.766 5.462-11.568 15.601-9.653 25.306 2.093 10.604 9.676 15.412 19.293 18.323 5.346 1.618 10.493 2.759 13.401 8.024 3.018 5.466.889 12.377-3.293 16.491-5.187 5.103-17.925 5.303-23.993 1.766-3.303-1.925-7.133-2.278-8.754-6.373-.899-2.271-.972-4.757-2.774-6.616-3.624-3.736-8.557-4.169-12.94-6.573-5.439-2.983-8.193-9.498-10.636-14.861-2.391-5.248-6.663-10.888-7.16-16.678-.373-4.346.411-8.12 4.568-10.246 2.64-1.351 5.2-2.826 7.657-4.485 7.672-5.181 12.973-14.146 9.237-23.407-4.011-9.948-16.264-15.805-25.849-18.927-4.506-1.468-10.479-3.51-15.148-1.952-4.766 1.591-9.305 6.969-11.209 11.418-2.261 5.282-.825 11.449-3.486 16.593-3.094 5.981-11.637 5.014-16.683 2.702-5.462-2.503-6.146-8.587-8.771-13.352-.676-1.226-2.015-2.595-3.362-3.046-3.775-1.263-7.455-2.583-10.868-4.659-4.198-2.554-6.162-7.226-11.806-5.861-4.757 1.15-7.919 6.255-9.915 10.288-1.778 3.591-3.102 8.744-.515 12.235 2.37 3.201 14.777 4.81 9.591 11.007-3.579 4.276-8.557 5.838-11.441 10.95-2.936 5.201-1.449 12.001-1.339 17.626.094 4.848 3.57 9.706 6.456 13.338 3.076 3.869 5.796 9.919 11.255 10.86 2.062.355 3.275 1.118 5.459.721 3.093-.562 8.687-3.341 10.232.782 1.73 4.62 5.448 8.25 9.918 10.188 1.944.842 6.108 1.947 8.077.793.602-.352 1.032-1.15 1.262-1.773.939-2.528 3.74-4.131 6.446-4.268 4.728-.238 7.147 7.179 8.364 10.596 1.639 4.604 1.752 9.608 3.399 14.234 2.294 6.443 8.875 9.82 15.398 9.479 4.684-.246 9.499-2.902 13.957-4.259 6.851-2.082 13.831-2.911 20.854-1.239 10.499 2.499 20.133 7.397 29.876 11.891 2.97 1.372 12.979 4.282 12.173 9.106-.73 4.384-3.653 7.831-7.261 10.205-6.063 3.987-14.318 4.476-21.214 2.913-4.583-1.037-8.923-3.36-13.446-4.695-4.779-1.412-9.534-1.818-14.49-1.827-.696-.002-1.196.46-1.422 1.084-3.865 10.61 5.378 17.812 14.183 21.491 15.223 6.359 32.408-1.777 47.476 5.747 1.696.848 3.192-1.698 1.488-2.548-11.737-5.86-24.465-3.324-37.058-3.693-9.723-.283-26.908-6.894-23.594-19.102 6.711.147 12.853 1.548 19.19 3.889 5.028 1.86 9.402 3.353 14.805 3.416 8.167.099 16.541-3.014 21.484-9.684 2.117-2.857 3.683-7.168 2.373-10.599-1.541-4.037-8.189-6.001-11.655-7.55-12.208-5.45-24.41-12.41-37.925-13.875-6.805-.738-13.838 1.288-20.228 3.355-3.63 1.176-7.061 2.892-10.919 3.093-4.613.242-8.427-2.657-10.706-6.413-3.177-5.23-2.6-12.418-4.983-18.066-1.457-3.45-3.574-8.198-7.553-9.397-3.205-.966-7.633-.223-10.094 2.238-1.552 1.551-.909 3.64-3.654 3.571-4.499-.113-8.225-3.433-10.562-6.962-2.539-3.832-1.565-7.134-7.026-6.769-3.22.214-6.397 2.324-9.687 1.756-4.358-.751-6.492-3.421-8.944-6.831-4.404-6.126-8.476-10.403-8.861-18.372-.17-3.52-.495-6.907.164-10.407.895-4.756 4.849-7.549 8.508-10.137 2.637-1.865 6.176-4.633 5.447-8.341-.799-4.069-4.61-5.833-8.086-7.345-8.497-3.698-1.526-15.283 3.59-18.925 4.348-3.095 7.195 1.633 10.241 3.771 2.624 1.842 5.427 3.144 8.405 4.297 4.322 1.674 6.258 3.168 7.871 7.505.827 2.223 1.975 4.151 3.126 6.211 1.944 3.478 6.858 5.041 10.489 5.783 9.327 1.908 15.8-3.617 17.037-12.605.397-2.886.539-5.754 1.213-8.601.913-3.852 3.875-6.545 6.713-9.063 5.875-5.215 17.006-.322 23.304 2.479 5.48 2.437 13.064 6.683 15.957 12.163 3.709 7.025 2.333 13.833-3.204 19.358-3.731 3.725-8.778 6.139-13.431 8.485-4.597 2.319-4.062 8.591-3.688 12.943.415 4.823 3.782 8.997 5.791 13.237 2.287 4.826 4.169 10.022 7.532 14.243 3.086 3.873 6.5 5.868 11.117 7.469 3.766 1.306 7.14 2.76 8.385 6.87.722 2.386 1.289 4.221 2.906 6.138 3.139 3.722 9.7 5.458 14.223 6.32 5.523 1.053 11.713 1.011 16.875-1.475 8.103-3.902 11.82-12.869 8.702-21.398-3.427-9.376-14.556-9.645-22.418-13.055-6.098-2.644-8.718-7.842-10.57-13.917-2.15-7.053.625-14.879 5.64-19.866 4.262-4.237 10.393-5.912 16.249-5.64z"/><path d="M-19.6 156.295c-1.179-2.395-5.35-7.042-8.464-6.186-4.868 1.338-7.542 1.404-12.177-.631-2.836-1.244-5.504-2.856-8.326-4.139-3.704-1.683-8.664.379-10.869 3.481-3.863 5.428.111 13.09-5.971 17.258-3.054 2.092-8.254 1.92-10.047-1.644-1.652-3.286-2.276-4.971-.861-8.741 1.854-4.933 5.356-10.235 4.173-15.769-.822-3.85-3.512-7.804-7.252-9.377-8.028-3.375-17.122 2.223-24.159 5.678-2.978 1.463-16.694 8.413-14.896-.303 1.176-5.691 5.502-9.15 10.631-11.204 7.38-2.954 17.554-2.932 23.414-8.791 5.482-5.484 4.408-17.795-1.845-22.405-3.308-2.44-8.214-3.684-12.002-1.296-6.032 3.804-11.244 8.382-17.606 11.668-4.985 2.575-9.509 5.965-14.452 8.625-2.722 1.463-5.572 2.445-8.591 3.061-5.104 1.041-8.022-.929-11.86-4.066-4.921-4.025-8.994-8.945-11.783-14.663-1.369-2.805-2.566-6.09-3.445-9.075-.967-3.284-.638-6.712-1.399-10.027-1.103-4.799-4.354-9.019-6.793-13.19-4.743-8.111-4.447-16.325 1.616-23.619 2.132-2.567 4.858-4.589 7.644-6.385 4.532-2.922 12.21-2.514 14.596 3.258 1.852 4.478 1.95 7.545 6.791 9.578 5.118 2.148 11.455-.226 16.521-1.28 2.822-.587 13.441-.897 12.039 5.033-.803 3.396-4.157 6.052-6.281 8.656-5.031 6.171-1.493 17.495 3.732 22.785 2.349 2.379 5.058 1.745 7.874 1.021 1.578-.405 2.594-.646 3.806-1.789 3.07-2.896-.079-8.252 6.864-8.724 3.765-.255 6.491 1.203 9.582 2.995 2.031 1.178 4.826 1.294 7.101 1.4 3.654.169 7.092-.382 10.729.389 3.569.758 7.583 3.659 10.41 5.87 4.476 3.5 8.699 9.896 4.76 15.039-3.404 4.445-5.508 9.374-5.849 14.992-.772 12.723 11.756 15.815 21.776 17.312 10.606 1.583 16.84-9.19 20.359-17.64 4.153-9.97 3.759-21.292-.54-31.099-1.004-2.29-3.929-5.086-4.068-7.535-.139-2.403-1.521-3.881-2.832-5.89-1.975-3.028-3.604-6.278-5.166-9.533-1.431-2.985-2.301-6.715-4.593-9.137-3.677-3.889-5.59-5.527-10.979-5.353-6.468.209-13.011.528-18.74-2.981-2.463-1.508-2.563-3.001-5.467-3.321-2.601-.289-4.893-.113-7.405.588-5.988 1.67-8.589 8.081-14.06 9.984-3.354 1.167-5.638-8.389-6.674-10.488-1.264-2.567-3.414-3.981-6.086-4.706-2.854-.775-6.758-.255-9.565.551-4.937 1.42-12.041-.041-16.536-2.402-6.782-3.56 2.413-9.32 5.442-11.304 3.971-2.598 9.855-2.741 14.429-3.728 4.587-.989 9.154-2.078 13.743-3.067 5.291-1.141 10.877-2.778 16.231-1.297 3.666 1.013 6.8 3.851 9.682 6.173 1.472 1.186 4.349 4.274 6.282 4.274 2.874 0 4.491.143 6.064-2.706 2.24-4.053 2.418-7.678 6.574-10.528 7.215-4.946 21.106-.417 25.292 6.808 1.076 1.855 1.244 4.562 1.831 6.61.594 2.068 1.387 4.085 2.132 6.102 1.639 4.43 2.949 8.696 2.904 13.386h-.537c-1.904 0-1.904 2.951 0 2.951h1.967c.848 0 1.418-.673 1.476-1.475.436-6.087-1.431-11.501-3.516-17.14C-24.746 22-25.1 16.24-28.915 12.024c-6.446-7.127-20.228-9.238-28.025-3.892-4.547 3.119-3.971 7.504-7.125 11.586-2.043 2.642-12.075-6.818-14.455-8.226-3.869-2.287-8.134-2.657-12.492-2.032-7.649 1.094-15.188 3.125-22.726 4.789-6.314 1.393-12.174 1.817-17.533 5.673-2.479 1.783-8.128 5.403-7.268 9.246 2.461 10.998 19.287 8.184 27.036 7.63 5.368-.384 7.963 1.926 9.732 6.713.841 2.277 1.644 4.434 2.991 6.475 2.244 3.406 6.276 2.22 9.064.273 1.979-1.381 3.459-3.583 5.284-5.186 2.949-2.59 6.564-3.75 10.437-3.69 2.592.04 5.529 3.234 7.807 4.387 2.171 1.098 4.708 1.665 7.111 1.918 4.985.527 13.027-1.569 16.969 1.762 5.467 4.621 7.486 13.281 11.029 19.375.955 1.643 2.034 3.206 3.116 4.766.528.764.175 1.856.403 2.69.6 2.175 2.642 4.261 3.721 6.257 3.258 6.013 4.086 13.02 3.498 19.738-.545 6.228-3.012 12.202-6.31 17.445-1.779 2.829-4.096 5.812-6.978 7.586-3.762 2.317-9.786.444-13.812-.489-8.61-1.995-13.184-7.877-11.361-16.766.647-3.158 2.28-6.021 4.082-8.646 2.198-3.204 3.11-2.883 2.987-6.806-.308-9.732-10.789-16.783-19.053-19.57-6.616-2.231-13.188 1.201-19.485-2.955-3.959-2.612-9.729-2.631-13.883-.504-1.385.709-2.057 2.984-2.522 4.324-.589 1.7-.612 4.119-2.954 4.718-.602.153-1.31.145-1.862.475-5.232 3.14-9.128-9.82-9.128-13.161 0-4.152 1.252-5.935 3.934-8.927 1.535-1.711 2.891-3.449 3.946-5.5 1.877-3.656.659-6.901-2.728-8.882-4.259-2.492-9.319-1.98-13.905-1.027-3.963.824-7.707 1.967-11.806 1.38-5.053-.723-5.212-5.309-6.745-9.016-1.469-3.552-6.284-6.063-9.995-6.277-5.851-.337-10.528 3.299-14.688 7.054-3.883 3.503-6.535 8.106-7.959 13.098-1.545 5.419 1.278 11.614 3.836 16.215 2.911 5.24 6.825 10.003 6.968 16.272.126 5.639 2.461 10.931 4.67 16.021 2.207 5.089 6.001 9.461 9.968 13.252 4.19 4.004 7.913 7.307 13.841 7.197 11.094-.205 19.959-9.059 29.451-13.609 6.286-3.014 11.592-10.65 18.751-11.171 8.516-.622 11.006 12.309 7.809 18.081-2.461 4.439-8.406 5.534-12.93 6.751-4.292 1.154-8.574 2.188-12.656 3.979-3.348 1.468-6.086 3.79-8.149 6.785-1.696 2.464-4.108 8.282-1.98 11.099 5.144 6.814 16.684-.836 22.251-3.564 4.489-2.2 9.225-4.499 14.308-4.683 2.722-.099 4.966 1.13 6.815 3.032 3.738 3.844 2.728 8.971 1.012 13.438-1.177 3.071-5.894 10.189-3.262 13.484 2.893 3.623 2.797 7.516 8.357 7.843 4.128.243 7.749-1.049 10.501-4.178 4.632-5.265-.493-14.938 7.258-17.911 5.48-2.103 12.89 5.354 18.494 5.971 2.272.25 4.618.235 6.762-.67 3.75-1.585 6.691 4.727 7.511 7.208 1.961 5.93 1.064 14.627-2.82 19.596-3.302 4.22-3.071 9.834-2.559 14.856.672 6.569 1.122 12.587-3.356 18.016-3.504 4.251-9.24 6.019-14.344 7.418-5.167 1.417-10.715 3.263-16.073 3.263-11.304 0-6.966-15.826-4.955-22.011 1.591-4.889 2.069-6.573-1.871-10.014-3.214-2.809-8.288-.806-10.969 1.644-4.092 3.741-5.103 6.979-6.223 12.308-1.54 7.327-3.605 12.852-11.522 15.105-7.317 2.083-15.305-3.427-21.325-6.86-2.457-1.401-5.992-1.555-8.021-3.496-2.921-2.794-3.761-6.909-3.596-10.773.29-6.814 5.36-11.843 10.142-16.046 3.454-3.038 6.944-4.068 11.38-4.769 2.9-.459 5.778-1.244 8.045-3.223 5.903-5.152 4.253-15.891-3.56-18.27-5.871-1.789-10.385.214-15.53 3.028-6.595 3.607-17.867 8.248-22.441-.282-1.666-3.105-1.904-5.378-.096-8.417 1.186-1.99 1.364-3.842 1.364-6.118 0-4.728-.401-8.082-4.754-10.581-7.488-4.297-16.765-3.402-21.858 3.646-3.095 4.281-4.264 11.115-4.805 16.251-.301 2.847-.179 5.082.733 7.796 1.372 4.083 4.496 10.202.026 13.474-4.754 3.481-9.528.952-11.376-4.065-1.164-3.159-.464-7.883-.348-11.201.273-7.696 1.801-15.264 4.259-22.546 1.239-3.671 2.898-7.178 4.699-10.601 1.199-2.281 2.88-4.481 2.958-7.184.196-6.76-3.102-10.836-8.154-14.881-2.589-2.074-5.28-3.998-7.776-6.189-2.85-2.5-2.861-5.981-3.82-9.392-1.168-4.155-5.57-6.669-9.452-7.572-10.595-2.463-21.724 7.856-28.385 14.792-3.849 4.008-5.122 8.873-5.859 14.239-.925 6.737-1.458 13.681-.049 20.391 1.15 5.48 5.077 10.416 8.701 14.498 3.831 4.316 10.671 6.069 11.461 12.694.935 7.845-8.346 10.145-13.895 11.054-3.488.571-6.369 1.279-9.427-.817-3.512-2.408-3.923-9.019-4.759-12.807-1.057-4.795-1.705-8.5-6.747-9.785-3.699-.942-7.191 1.165-9.786 3.562-3.234 2.986-5.333 7.274-7.089 11.229-2.734 6.159-4.964 12.59-7.454 18.854-4.339 10.918-9.879 25.067-4.911 36.7 2.06 4.824 4.424 7.921 9.408 9.805 3.984 1.505 12.325 2.035 16.093-.054 4.749-2.632 7.646-6.186 10.12-10.981 2.86-5.544 6.281-15.629 12.597-18.136.843-.334 1.654-.767 2.468-1.166 3.388-1.659 4.677 2.043 3.351 4.854-.842 1.787-1.097 3.487-.923 5.431.277 3.101 2.885 5.267 5.612 6.318 3.135 1.208 7.643 2.903 11.004 2.575 3.778-.369 6.172-4.292 6.172-7.75 0-3.058 1.874-6.468 3.748-8.792 3.218-3.994 8.127-2.217 11.402.528 6.485 5.437 2.528 15.644 2.146 22.756-.611 11.384 7.487 17.602 14.96 24.645 3.065 2.888 4.535 4.036 8.974 3.189 2.807-.535 4.945-3.056 5.913-5.602 1.27-3.335 1.525-6.909 1.675-10.444.148-3.541-.436-17.195 7.116-13.941 3.041 1.311 3.45 4.711 4.591 7.39 1.004 2.359 2.173 4.555 3.628 6.668 2.523 3.665 6.25 6.771 10.407 8.4 2.426.951 4.677 1.652 7.286 1.488 3.782-.237 7.042-1.673 10.891-.608 5.164 1.428 7.135 7.168 7.657 12.181a71.294 71.294 0 0 1 2.638-3.235c-.598-2.81-1.725-5.429-3.539-7.58-2.854-3.383-6.489-4.874-10.902-4.822-3.725.045-6.91 1.653-10.75.628-3.463-.926-6.458-2.954-9-5.418-4.009-3.887-5.281-8.941-7.486-13.838-1.66-3.689-6.217-5.346-9.888-4.391-3.308.858-5.154 6.571-5.373 9.609-.308 4.293-.062 8.604-.668 12.88-.621 4.359-2.419 8.025-7.325 7.959-2.299-.029-5-3.773-6.604-5.211-2.242-2.009-4.47-3.999-6.497-6.23-9.645-10.62.209-24.526-5.529-36.332-1.739-3.577-7.256-5.784-10.887-5.99-4.158-.236-7.204 3.104-9.081 6.37-1.045 1.821-1.726 3.899-2.401 5.874-.899 2.631 1.38 1.943-1.427 5.474-1.57 1.976-3.649 1.044-5.383.61-5.845-1.462-12.645-2.865-8.998-10.593 1.487-3.154 2.006-6.541-1.223-8.695-2.845-1.896-8.905 1.797-11.038 3.387-4.075 3.04-7.035 8.365-9.311 12.784-3.27 6.348-6.338 15.536-14.935 15.642-3.576.043-6.989.229-10.496-.677-4.503-1.164-7.556-6.27-8.058-10.654-.4-3.496-1.35-6.609-.74-10.203a114.8 114.8 0 0 1 2.568-11.54c1.971-7.094 5.182-13.905 7.879-20.746 2.215-5.618 4.168-11.206 7.677-16.182 1.655-2.347 3.888-4.312 6.681-5.097 4.839-1.36 6.117 4.221 6.942 7.685 1.229 5.161 1.445 11.368 6.115 14.57 4.541 3.114 8.946 1.396 14.153.76 3.984-.487 8.42-1.984 10.779-5.628 5.706-8.819.78-15.208-6.848-20.536-6.352-4.437-10.281-12.019-11.167-19.548-.902-7.666-.317-17.969 3.553-24.745 4.826-8.45 30.485-27.692 35.45-10.029.667 2.375.932 4.684 1.998 6.934 1.104 2.332 4.151 4.134 6.098 5.662 2.537 1.988 5.128 3.875 7.5 6.065 5.828 5.383 3.345 11.167.31 16.938-6.183 11.754-8.641 25.002-8.637 38.188.001 5.154.537 9.458 4.63 12.97 3.662 3.142 7.894 1.833 11.624-.251 3.662-2.046 4.706-7.085 3.541-10.904-1.014-3.33-2.845-6.404-3.093-9.935-.281-3.998 1.149-8.414 2.359-12.182 1.423-4.424 3.344-8.278 7.922-10.077 2.148-.844 5.408.136 7.609.531 2.428.437 4.79 1.162 6.618 2.886 3.379 3.185.851 10.036-.905 13.304-1.802 3.354.256 7.32 1.875 10.34 2.519 4.695 6.879 5.38 11.774 5.074 5.542-.348 10.736-2.949 15.516-5.564 4.509-2.464 9.073-3.724 13.841-.958 3.596 2.085 4.053 8.724 1.131 11.588-3.002 2.94-7.075 3.068-10.961 3.683-2.914.461-5.456 2.131-7.788 3.825-4.399 3.2-8.406 7.413-10.739 12.354-3.642 7.719-1.969 19.686 7.287 22.191 6.178 1.673 11.447 6.184 17.601 8.233 5.694 1.896 11.046.754 16.125-2.13 3.494-1.985 5.221-5.939 6.324-9.592 1.94-6.417 1.673-12.111 7.453-16.556 2.13-1.636 5.348-1.448 7.405.254 1.685 1.396.137 4.407-.351 5.902-.994 3.041-1.88 6.059-2.409 9.219-.731 4.371-.575 10.822 3.187 13.881 3.975 3.233 8.795 3.329 13.534 1.915 4.924-1.467 9.987-2.372 14.869-4.004 8.566-2.865 15-8.963 15.887-18.254.582-6.108-1.736-12.027-.328-18.135.676-2.927 3.137-5.33 4.262-8.154 1.062-2.671 1.601-5.841 1.787-8.703.279-4.295-.558-8.642-2.456-12.495z"/></g><path fill="#FFF" d="M-282.808 299.504c4.297 1.744 7.413 5.314 11.832 6.849 3.269 1.136 6.813.105 9.792-1.299 3.438-1.624 6.289-4.67 8.77-7.456 1.546-1.736 2.824-3.711 4.488-5.344 4.262-4.184 7.416.471 8.971 3.549 1.708 3.383 2.109 7.514 2.949 11.17.959 4.174 2.859 6.795 5.878 9.813 1.684 1.684 3.755 2.818 5.177 4.8 1.66 2.313 2.167 5.467 2.533 8.216.575 4.32.583 8.659 1.528 12.932.41 1.858 3.254 1.07 2.845-.785-1.568-7.102.321-19.562-6.579-24.487-5.043-3.598-7.766-7.625-9.055-13.599-.868-4.023-1.678-7.981-3.833-11.543-1.253-2.071-4.267-5.145-6.96-4.824-4.356.519-6.494 3.706-9.104 6.923-3.273 4.034-7.186 7.905-12.338 9.253-6.026 1.579-10.99-4.935-16.11-7.014-1.763-.715-2.523 2.141-.784 2.846zM-290.344 334.415c-3.931 3.592-9.133 5.308-13.022 8.959-4.068 3.821-4.991 9.386-5.114 14.706-.052 2.248 1.456 4.851 2.333 6.891 1.901 4.42 2.834 7.333 1.817 12.144-1.229 5.807-1.854 10.106 1.961 15.074 6.143 7.996 16.898-2.081 20.243-7.793 1.817-3.1 1.655-6.312 5.622-7.773 2.756-1.015 5.274-2.599 7.705-4.221 6.395-4.259 12.488-11.171 19.652-4.071 4.717 4.677 6.289 12.408 8.349 18.47 2.413 7.098 4.181 14.907 2.732 22.394-1.138 5.882-4.938 11.293-10.573 13.547-7.393 2.956-15.542-1.369-20.896-6.465-1.521-1.446-1.647-4.241-3.241-5.836-1.003-1.002-3.282-1.315-4.586-1.417-6.344-.49-12.102 2.167-17.92 4.325-1.248.466-4.454.683-5.128 2.018a33.861 33.861 0 0 0-2.53 6.589c-1.332 4.968-.92 10.269.292 15.203 2.408 9.809 9.921 19.347 20.068 21.444 5.053 1.045 9.526-1.22 13.879-3.484 3.003-1.562 5.958-3.222 8.939-4.828 4.84-2.608 9.119-3.181 14.526-3.204 5.447-.025 9.644-1.399 13.41-5.375 4.882-5.156 7.125-11.995 14.488-14.369 8.311-2.68 14.742 4.501 20.252 9.411 5.077 4.522 10.38 8.734 16.155 12.335 6.033 3.761 11.126 8.283 13.083 15.434 1.904 6.958-2.441 13.866-7.083 18.599-4.547 4.638-11.188 8.627-17.775 8.745-6.615.117-18.466-5.312-21.004-11.722-1.624-4.102-1.859-7.659-5.637-10.399-3.161-2.29-7.743-2.053-11.346-1.354-3.742.729-7.618 2.782-9.718 5.99-1.234 1.887-1.92 5.6-2.059 7.826-.332 5.337-3.522 8.608-8.384 10.347-10.639 3.806-17.287-11.997-25.264-16.465-9.062-5.078-14.875 3.387-15.85 11.626-1.346 11.37 5.711 19.705 11.334 28.384 2.701 4.166.543 10.111 3.805 14.301 2.69 3.458 6.567 5.083 10.767 5.942 3.663.747 7.896.902 11.58.203 4.398-.834 5.493-4.283 7.749-7.604 1.39-2.041 2.285-4.176 3.095-6.499.649-1.862 5.119-14.626 8.642-7.16 1.971 4.178 5.465 7.622 10.221 8.478 2.91.523 5.222-2.148 6.138-4.522.644-1.67.485-3.754.458-5.495-.017-1.073-.04-2.14-.022-3.212.071-4.18 5.129-4.542 6.834-1.175 4.084 8.067 9.538 17.304 18.246 20.952 8.985 3.766 16.417-5.593 20.177-12.387 3.026-5.468 6.02-8.438 11.638-11.148 4.445-2.143 8.84-4.523 12.067-8.342 2.545-3.015 3.356-6.854 2.795-10.679-1.171-8.002-3.594-15.784-3.834-23.908-.232-7.838 3.444-12.508 9.139-17.347 2.562-2.179 4.91-4.041 8.207-4.933 4.311-1.169 7.555 1.067 11.059 3.257 7.53 4.709 12.268 12.484 8.278 21.286-2.407 5.31-7.171 9.385-10.567 14.052-3.032 4.165-4.236 8.231-2.698 13.222.88 2.85 2.818 5.255 3.825 8.054 1.285 3.573.812 7.355-.693 10.76-2.329 5.258-7.35 9.237-11.832 12.592-4.361 3.264-9.177 5.466-12.133 10.182-2.991 4.771-5.82 11.044-7.294 16.484-1.892 6.987-10.692 12.265-17.571 12.741-9.256.642-13.121-8.584-15.976-15.691-1.385-3.45-5.715-5.556-9.021-6.564-9.763-2.978-12.066 7.532-16.231 13.653-1.833 2.691-4.443 3.809-7.644 3.631-3.406-.192-5.9-3.276-8.952-4.452-3.63-1.397-8.858-.304-11.156 2.959-6.542 9.286 1.706 20.912 6.281 29.046 4.581 8.143 11.25 23.033 23.485 18.052 1.979-.806 3.614-2.309 5.15-3.75 1.804-1.69 2.27-4.038 3.939-5.896 1.407-1.567 1.234-3.472 2.66-5.092 2.435-2.767 6.433-2.939 9.819-2.857 4.918.117 9.82.153 13.374 3.708 3.551 3.552 13.174 1.315 17.56 1.51 10.664.467 3.223 13.034.119 16.876-4.411 5.458-10.587 9.002-17.641 9.288-6.027.244-11.547-3.206-17.569-.905-3.44 1.316-5.604 4.151-6.934 7.46-1.522 3.788-1.2 8.318-.718 12.264.471 3.854 1.073 9.056 2.914 12.528 2.967 5.601 6.591 10.139 11.002 14.511 3.787 3.753 8.466 2.835 13.282 3.503 4.792.663 5.721 5.795 6.618 9.667.508 2.197 1.752 3.591 3.414 5.06 3.756 3.32 9.405 4.004 14.17 3.401 10.753-1.364 11.443-16.784 10.127-25.256-.501-3.239-1.266-6.363-2.263-9.486-.587-1.84.97-4.119 1.67-5.834 2.084-5.108 4.28-11.108 9.949-13.091 6.408-2.243 10.994 9.877 12.207 14.206 1.938 6.92.933 13.411-.234 20.338-1.762 10.432-2.545 22.552 8.125 28.142 3.287 1.721 8.402 5.687 12.308 3.565 4.951-2.688 8.533-6.702 11.611-11.353 1.681-2.538 3.042-5.289 4.362-8.024 1.247-2.587 3.02-4.296 4.519-6.63 3.806-5.926 10.383-.891 12.9 2.854 1.538 2.292 2.167 5.415 2.862 8.051 1.8 6.824 4.251 16.927 13.165 17.271 9.401.36 14.953-6.182 18.263-14.293 1.802-4.416 2.893-9.32 3.271-14.067.605-7.598-2.616-14.907-1.412-22.557 1.723-10.945 13.678-18.032 11.993-30.146-.928-6.668-4.04-13.021-5.398-19.641-1.765-8.61 1.723-15.603 4.109-23.623 1.257-4.223 3.829-12.029.971-15.893-4.838-6.543-6.38-14.888-4.91-22.79 1.219-6.556 4.645-12.274 5.58-19.014.926-6.661.416-13.445-.369-20.092-.325-2.765-.749-5.517-1.169-8.268-.214-1.406-2.873-2.8-3.96-3.589-4.745-3.453-10.794-4.898-16.544-5.325-4.199-.312-7.503 4.467-9.726 7.527-3.215 4.421-4.7 9.918-4.991 15.308-.25 4.639 1.03 9.596 2.97 13.763 2.958 6.353 6.923 11.05 5.2 18.509-2.62 11.326-10.891 20.574-8.643 32.792 1.139 6.188 5.044 12.071 6.877 18.135 2.549 8.436.507 15.385-1.773 23.531-.938 3.352-2.077 5.926-4 8.823-1.158 1.741-.712 3.19-1.548 4.921-3.131 6.483-9.333 10.658-16.094 12.583-3.485.991-7.202 1.005-10.764.509-3.881-.54-5.825-5.584-7.317-8.583-4.303-8.645-4.176-17.991 3.871-24.197 3.894-3.001 8.074-5.304 10.984-9.391 2.125-2.979.459-9.493-1.321-12.324-4.553-7.238-15.001-5.714-21.383-2.584-4.987 2.443-9.09 6.581-12.792 10.619-2.048 2.232-3.796 4.741-6.29 6.511-3.398 2.413-6.549-4.092-7.19-6.173-1.408-4.567-.472-9.812.989-14.235 1.07-3.234 2.797-5.752 5.761-7.517 3.124-1.857 7.002-.95 10.435-1.167 8.585-.548 18.44-3.641 23.815-10.797 5.133-6.837 7.031-18.848 1.542-25.897-3.01-3.868-5.729-6.156-10.715-6.748-5.479-.649-11.204 2.05-16.473 3.113-.354.073-1.418-1.869-1.558-2.078-1.539-2.307-1.599-5.739-1.193-8.36.617-3.988 5.704-5.832 8.94-6.851 7.062-2.22 14.6.039 21.077 2.625 5.698 2.276 9.054-4.494 9.378-9.16.419-6.03-2.134-11.144-7.106-14.542-3.298-2.254-8.306-2.811-11.956-4.566-1.237-.597-6.57-1.219-3.696-4.705 1.364-1.654 2.513-3.463 3.602-5.305 3.781-6.403 5.306-14.21 1.608-20.936-.916-1.668-3.465-.18-2.547 1.488 3.804 6.92.732 14.452-3.215 20.556-2.414 3.732-5.114 6.059-1.045 9.728 3.173 2.866 9.332 4.231 13.345 5.379 7.792 2.227 9.867 11.292 6.354 17.86-2.009 3.757-7.818-.65-10.404-1.443-2.423-.741-5.663-.403-8.188-.57-5.544-.367-11.038 1.051-15.497 4.418-3.268 2.469-4.394 6.583-3.677 10.54.399 2.216 1.862 9.493 5.304 8.962 5.706-.877 11.102-3.351 16.946-3.202 4.009.104 6.305 3.098 8.629 5.885 2.747 3.292 2.065 7.646 2.065 11.633 0 13.221-14.313 19.031-25.336 20.023-4.841.434-8.666-.366-13.057 2.245-3.75 2.231-5.458 6.651-6.612 10.629-1.892 6.534-2.08 17.038 4.578 21.142 3.481 2.143 5.76 1.502 8.804-1.166 5.081-4.451 8.587-9.999 14.3-13.889 4.826-3.285 10.201-4.736 15.825-2.892 3.508 1.15 5.342 4.109 5.496 7.671.23 5.323-2.626 7.709-6.68 10.571-3.96 2.795-7.703 5.373-9.902 9.836-2.768 5.614-1.919 11.625.142 17.31 1.606 4.433 3.806 9.055 7.6 11.957 4.03 3.083 10.758 1.964 15.307.914 4.808-1.108 9.146-3.772 12.755-7.062 1.781-1.622 3.195-3.628 4.453-5.666 1.256-2.04 1.056-4.136 2.198-6.132 6.014-10.525 9.28-22.622 6.07-34.628-1.677-6.268-5.219-11.897-6.877-18.133-1.899-7.148 2.037-14.73 4.849-21.055 2.102-4.724 4.21-9.635 4.532-14.852.303-4.98-2.732-9.707-5.051-13.853-3.137-5.605-4.39-11.993-3.345-18.36.953-5.806 5.875-16.45 12.927-15.93 3.821.284 7.579 1.586 10.977 3.287 3.823 1.912 5.213 3.886 5.809 8.025 1.129 7.861 1.713 15.845.617 23.744-.922 6.649-4.428 12.404-5.648 18.959-1.108 5.962-.035 12.102 2.248 17.645.982 2.382 4.021 5.532 3.965 8.137-.084 3.845-.974 7.633-1.98 11.322-1.855 6.811-4.91 12.67-4.756 19.882.134 6.305 2.455 12.499 4.337 18.434 2.545 8.021 1.322 13.717-2.943 20.823-2.791 4.647-6.026 8.932-7.34 14.271-1.6 6.494.694 13.589 1.258 20.063.88 10.104-4.263 27.226-16.002 28.686-11.887 1.479-12.114-15.416-15.512-22.891-1.816-3.992-5.7-6.886-9.926-7.771-5.094-1.071-7.972 3.139-10.888 6.413-1.644 1.845-2.455 4.728-3.556 6.922-1.356 2.695-2.938 5.256-4.684 7.715-2.052 2.891-4.668 5.302-7.657 7.187-3.206 2.024-10.264-2.64-13.1-4.332-6.879-4.108-5.448-15.299-4.464-21.869.897-5.975 2.152-11.549 1.535-17.615-.49-4.844-1.938-9.49-4.236-13.771-1.817-3.387-5.755-8.967-9.987-8.778-8.858.391-12.292 9.785-15.104 16.684-.415 1.017-2.217 3.555-1.783 4.799 1.083 3.102 1.944 6.216 2.559 9.445 1.41 7.415 1.388 22.044-8.414 23.286-3.452.437-6.933-.485-9.918-2.174-3.742-2.117-3.723-6.643-5.137-10.194-1.708-4.292-5.453-5.835-9.755-6.125-3.435-.231-6.422.034-9.209-2.447-2.248-2.002-4.167-4.089-5.939-6.535-3.775-5.204-5.623-10.284-6.804-16.52-.915-4.827-1.282-10.294.958-14.817 3.815-7.706 13.188-3.54 19.593-2.982 10.151.884 20.265-6.575 24.683-15.322.941-1.862 2.394-3.108 2.619-5.221.219-2.058.067-3.905-.503-5.889-1.316-4.577-5.473-5.495-9.635-5.678-4.05-.178-7.946.489-12-.16-1.431-.23-3.315-2.261-4.708-3.02-3.951-2.159-9.213-1.883-13.643-1.988-4.061-.098-7.694 1.029-10.718 3.75-1.973 1.774-1.933 4.281-3.628 6.17-2.246 2.501-2.937 5.148-5.91 7.252-6.324 4.474-14.633-3.252-17.092-8.601-3.06-6.654-7.178-12.765-10.261-19.415-3.24-6.987-2.759-17.889 7.834-15.793 2.742.544 5.162 3.429 7.941 4.35 2.014.666 4.59.28 6.557-.36 9.191-2.985 7.808-20.029 19.428-16.485 6.463 1.971 7.645 9.411 10.815 14.509 2.897 4.657 7.133 6.896 12.504 7.49 4.917.544 9.837-1.911 13.706-4.666 2.157-1.535 4.005-3.448 5.748-5.427 2.246-2.551 2.494-6.007 3.948-9.02 3.076-6.362 4.665-12.634 10.833-16.757 4.63-3.093 9.158-6.344 13.132-10.26 7.091-6.985 9.15-15.794 4.334-24.653-2.363-4.349-3.313-7.749-.844-12.407 1.418-2.674 3.504-4.981 5.46-7.268 3.431-4.014 7.102-8.251 8.045-13.602 2.23-12.653-7.645-19.517-17.688-24.615-3.043-1.546-8.641.566-11.318 2.117-4.407 2.549-8.86 7.201-11.814 11.303-7.437 10.322-.056 26.9 1.243 38.016.709 6.078-5.855 10.212-10.341 12.671-4.601 2.52-9.163 3.971-12.519 8.217-3.143 3.977-4.726 8.884-8.227 12.623-5.342 5.703-11.357 5.793-17.131.825-4.122-3.546-7.08-8.438-9.734-13.119-2.118-3.732-3.136-6.621-7.811-7.092-3.18-.319-5.689 2.178-6.127 5.124-.734 4.95 1.217 15.308-7.33 9.668-3.321-2.192-4.014-8.028-8.695-8.118-4.684-.09-6.596 3.083-8.124 7.056-1.115 2.9-1.822 5.842-3.336 8.592-.875 1.59-3.315 2.833-3.391 4.863-.186 5.012-14.304 2.191-16.628 1.48-6.99-2.136-8.075-8.798-8.471-15.251-.107-1.752-1.467-3.457-2.458-4.789-1.983-2.666-3.116-4.884-4.628-7.759-.984-1.867-2.24-2.872-2.976-5.155-1.262-3.925-2.068-7.864-1.951-12.001.101-3.587 2.519-9.993 6.837-10.184 3.399-.149 6.303 1.954 8.667 4.128 5.717 5.259 11.627 16.103 20.787 14.353 4.135-.789 8.625-2.695 10.961-6.43 3.993-6.378 1.294-14.472 9.814-17.76 5.179-2 12.131-1.305 14.013 4.679.778 2.479 1.439 5.046 2.713 7.324 1.159 2.074 3.396 3.065 5.255 4.362 4.503 3.141 10.111 6.156 15.702 6.525 5.904.392 10.759-1.74 15.661-4.866 8.2-5.23 15.013-14.313 13.902-24.431-1.332-12.121-13.163-17.303-21.705-23.621-8.776-6.492-17.684-20.185-30.249-17.599-5.032 1.035-8.825 3.985-11.843 8.076-1.809 2.451-3.445 5.02-5.412 7.354-3.446 4.086-8.045 4.495-13.093 4.518-6.867.031-11.25 1.963-17.219 5.209-7.62 4.143-14.314 8.727-23.011 4.627-5.623-2.65-9.645-9.497-11.767-15.049-2.307-6.034-2.31-12.635-.339-18.736 1.175-3.638 4.518-3.858 7.747-5.091 2.907-1.11 5.794-2.156 8.829-2.866 1.831-.426 8.626-1.381 8.749 1.908.079 2.144 2.061 3.897 3.481 5.25 7.463 7.101 18.401 10.001 27.245 3.751 8.323-5.88 9.371-16.878 8.146-26.115-.907-6.847-3.638-13.392-5.903-19.867-1.667-4.765-3.845-9.212-7.767-12.525-9.497-8.03-19.301 4.618-27.283 8.618-2.421 1.212-4.105 1.365-5.75 3.688-1.415 2-1.867 4.755-3.354 6.62-1.691 2.118-3.441 4.136-5.451 5.961-5.429 4.927-12.211.824-11.858-6.231.183-3.635 2.747-8.18 1.847-11.834-1.224-4.972-4.947-9.841-4.827-15.015.274-11.878 9.992-13.323 17.234-19.942 1.401-1.295-.692-3.375-2.093-2.094z"/></g></svg>