<?xml version="1.0" encoding="utf-8"?>
<!-- Generator: Adobe Illustrator 16.0.0, SVG Export Plug-In . SVG Version: 6.00 Build 0)  -->
<svg version="1.2" baseProfile="tiny" id="Calque_1"
	 xmlns="http://www.w3.org/2000/svg" xmlns:xlink="http://www.w3.org/1999/xlink" x="0px" y="0px" width="610.636px" height="706px"
	 viewBox="0 0 610.636 706" xml:space="preserve">
<g>
	<g>
		<g>
			<path fill="#FFFFFF" d="M336.228,646.003c-0.667,0-1.333,0-2,0c-1.066,0-1.583,0.952-1.445,1.898
				c1.037,7.182,3.449,14.041,4.734,21.171c1.012,5.612,4.783,9.454,9.342,12.72c4.211,3.018,10.245,3.137,15.133,2.403
				c5.129-0.771,8.127-4.101,10.596-8.423c0.494-0.868,2.474-5.772,3.547-5.754c2.348,0.039,6.725,4.339,8.646,5.721
				c2.676,1.927,4.207,3.57,7.383,4.546c3.27,1.004,7.099,0.089,10.398-0.218c2.682-0.249,5.458-0.349,8.065-1.118
				c2.194-0.648,3.741-1.952,6.157-2.221c5.609-0.624,11.154-1.665,16.42-3.741c6.312-2.488,17.972-11.327,7.414-16.442
				c-5.381-2.604-9.887-2.865-15.724-2.322c-4.181,0.39-7.532,0.729-11.465-1.302c-1.632-0.842-2.517-3.81-3.196-5.374
				c-2.828-6.504-6.826-10.062-12.945-4.448c-2.182,2.003-4.131,4.147-6.61,5.81c-3.662,2.454-7.423-0.021-10.908-1.557
				c-5.081-2.236-10.811-4.239-16.442-3.141c-6.508,1.271-8.59-1.113-11.893-6.281c-1.846-2.89-3.386-5.976-4.91-9.042
				c-1.537-3.091-3.002-6.217-4.56-9.298c-1.961-3.882-4.828-7.531-5.996-11.735c-1.847-6.653-2.222-15.169,0.104-21.701
				c2.582-7.247,7.16-18.646,17.006-17.229c2.308,0.332,5.578,0.715,7.338,2.328c1.646,1.51,3.986,0.339,5.896,1.82
				c2.644,2.053,3.967,5.291,4.189,8.541c0.271,3.973-2.518,6.772-4.301,9.979c-6.225,11.185,1.897,20.64,11.564,25.613
				c5.004,2.575,11.426,2.369,16.918,2.755c5.569,0.391,9.127,4.982,14.977,2.862c4.55-1.649,6.027-10.562,11.352-9.677
				c6.738,1.121,7.727,9.646,6.461,14.961c-1.265,5.316-6.593,8.637-6.76,14.202c-0.107,3.598,3.975,6.363,7.18,6.598
				c5.827,0.423,11.096-2.558,16.864-2.735c1.823-0.057,6.971,1.216,6.971,3.832c0,1.572-0.018,1.676,0.443,3.115
				c0.651,2.038,1.938,3.759,3.461,5.218c5.647,5.406,14.89,2.707,19.933-1.991c3.059-2.849,6.959-7.423,8.291-11.442
				c2.079-6.285,0.543-11.962-2.371-17.638c-3.201-6.235-6.51-11.604-7.691-18.646c-0.912-5.436-1.408-11.493-5.233-15.835
				c-2.138-2.427-4.829-3.939-6.782-6.536c-1.093-1.45-2.19-3.1-3.793-4.038c-2.019-1.185-4.09-3.527-6.357-4.151
				c-2.494-0.687-6.85-0.644-9.369-0.072c-6.251,1.414-11.966,6.6-17.551,9.729c-5.723,3.206-10.551,6.802-15.829,10.633
				c-2.755,1.998-5.609,3.147-9.005,2.238c-4.569-1.225-6.225-7.11-6.396-11.094c-0.428-10.039,11.306-11.155,18.63-12.763
				c9.889-2.169,19.186-8.565,16.25-19.836c-2.099-8.062-16.94,1.654-20.043,3.677c-5.26,3.427-13.727,6.229-19.195,1.898
				c-6.896-5.458-1.465-12.918,1.039-18.897c1.615-3.854-0.381-8.639-3.129-11.387c-2.748-2.747-7.438-2.543-10.896-1.409
				c-3.717,1.218-5.175,5.187-5.979,8.66c-0.934,4.032,0.568,8.467-4.289,10.466c-3.33,1.369-8.117-2.454-11.263-3.734
				c-2.608-1.062-5.36-1.55-8.141-1.864c-2.558-0.289-7.246,1.315-9.267-0.656c-5.802-5.666-2.416-16.604,0.332-22.717
				c0.984-2.191,2.933-4.984,3.2-7.424c0.321-2.924,0.029-5.691-0.418-8.58c-1.171-7.566-0.798-14.288,5.933-18.989
				c3.865-2.698,8.783-3.766,13.316-4.728c5.84-1.24,16.217-4.576,18.762,3.381c1.217,3.806,0.09,7.87-1.041,11.529
				c-0.785,2.539-2.553,5.709-2.553,8.387c0,3.771,4.018,5.734,7.188,5.888c10.197,0.495,11.67-15.204,14.912-21.59
				c7.58-14.927,25.103-2.086,35.154,3.236c3.172,1.68,3.247,7.266,3.143,10.235c-0.117,3.398-1.578,6.616-3.368,9.432
				c-1.966,3.092-5.031,4.82-7.886,6.951c-2.908,2.172-7.543,2.079-10.986,2.52c-9.525,1.219-10.118,13.433-4.458,19.093
				c3.019,3.02,9.423,1.497,12.794,0.287c6.76-2.428,14.066-8.817,21.417-5.453c2.875,1.317,6.478,5.654,5.991,9.077
				c-0.375,2.631-2.613,4.65-3.1,7.296c-0.699,3.812,1.409,7.719,4.541,9.814c3.93,2.631,8.444,3.933,13.157,3.589
				c5.116-0.373,7.826-5.541,9.772-9.696c2.279-4.87,4.312-10.89,3.072-16.327c-0.795-3.485-3.346-5.523-3.346-9.352
				c0-2.657-0.455-5.222,2.641-6.495c1.443-0.594,3.336-0.313,4.846-0.201c3.473,0.261,3.716,3.535,4.609,6.612
				c1.006,3.465,1.164,7.109,1.098,10.692c-0.147,7.916-2.762,15.789-5.812,23.011c-2.117,5.008-5.671,9.663-5.755,15.256
				c-0.075,4.97,5.312,8.932,8.565,11.919c4.654,4.273,8.81,8.46,10.863,14.604c1.223,3.658,3.258,6.222,7.136,7.105
				c8.628,1.971,18.88-5.64,24.745-10.943c3.507-3.17,7.398-7.038,7.912-12.065c0.334-3.26,0.502-6.513,0.924-9.771
				c0.414-3.213,1.361-8.005,0.176-11.123c-0.896-2.358-0.921-5.143-2.15-7.358c-0.908-1.636-4.252-4.547-4.313-6.243
				c-0.058-1.55-1.23-2.299-2.38-3.036c-3.336-2.142-6.45-4.747-8.828-7.937c-6.073-8.149,5.498-13.079,11.936-14.46
				c3.475-0.746,8.112-0.794,9.29,3.43c0.976,3.493,1.835,6.998,3.043,10.422c1.353,3.833,3.14,8.789,7.653,9.435
				c1.673,0.238,3.666-1.359,5.062-2.059c3.437-1.718,4.365-3.123,6.457-6.443c7.405-11.77,11.188-25.469,15.209-38.644
				c2.518-8.243,1.963-18.027-3.094-25.295c-4.341-6.239-14.883-6.546-21.213-3.98c-13.648,5.527-11.822,29.635-29.117,29.067
				c0.5,0.5,1,1,1.5,1.5c0.016-3.706,0.998-6.154,1.946-9.602c0.285-1.034-0.657-3.401-1.151-4.155
				c-2.545-3.889-6.887-5.34-11.353-5.846c-3.427-0.39-6.956,0.741-8.39,4.204c-1.129,2.729-1.408,5.588-2.074,8.443
				c-1.487,6.391-9.262,5.135-13.006,1.98c-5.537-4.662-2.056-14.299-1.662-20.387c0.345-5.342-2.014-10.366-4.68-14.854
				c-2.334-3.929-5.578-7.227-9.441-9.642c-3.23-2.02-8.773-4.126-11.807-1.181c-3.191,3.101-3.988,7.771-4.235,11.999
				c-0.154,2.628-0.009,5.274-0.082,7.905c-0.043,1.55-0.283,3.062-0.636,4.568c-1.217,5.184-5.793,2.851-7.983,0.974
				c-4.63-3.968-2.312-12.178-7.36-15.744c-4.73-3.344-9.9-5.664-15.699-5.167c-2.864,0.245-5.668,0.824-8.549,0.398
				c-4.128-0.61-6.156-6.667-7.092-10.055c-2.064-7.481,1.428-16.438,6.641-21.868c5.348-5.57,18.369-2.579,23.463,1.668
				c1.623,1.354,2.941,2.771,4.892,3.649c2.287,1.032,6.394,0.729,8.919,0.856c4.406,0.226,9.777-3.045,12.811-5.97
				c3.4-3.28,5.391-7.828,6.285-12.396c1.625-8.293-1.576-17.886-8.4-23.029c-4.582-3.453-9.869-3.283-15.184-4.883
				c-7.951-2.391-9.882-12.119-6.392-18.69c3.567-6.719,13.433-7.619,19.819-5.157c2.763,1.063,5.357,0.867,8.045,2.575
				c3.771,2.395,5.138,5.464,6.808,9.494c2.214,5.342,7.279,3.981,11.758,6.305c3.021,1.566,5.575,4.302,6.906,7.405
				c0.327,0.767,0.78,1.539,1.338,2.16c1.414,1.574,0.604,2.421,1.312,3.887c4.267,8.836,15.289,22.469,1.08,28.21
				c-8.729,3.526-15.383,11.964-13.545,21.65c1.848,9.736,11.75,14.787,19.861,18.521c4.026,1.853,8.534,4.771,13.032,5.155
				c5.435,0.468,10.114-2.113,13.562-6.172c3.149-3.706,4.183-9.404,4.967-14.048c0.556-3.272,0.127-5.992,2.639-8.596
				c2.847-2.95,8.229-3.893,11.638-1.803c2.812,1.723,5.65,2.873,7.589,5.719c1.002,1.473,0.584,3.649,1.616,5.269
				c3.022,4.738,8.128,6.145,12.913,8.788c4.938,2.729,6.99,7.344,13.02,5.529c4.418-1.331,7.776-5.08,9.761-9.083
				c1.282-2.591,2.657-8.026,0.896-10.748c-1.095-1.693-2.213-2.661-4.058-3.515c-2.676-1.236-8.676-2.148-6.295-6.448
				c1.875-3.388,6.732-5.318,9.496-8.01c3.717-3.619,3.902-10.083,3.852-14.921c-0.062-5.812-1.531-11.974-4.73-16.822
				c-2.881-4.368-7.194-9.823-12.41-11.337c-3.68-1.067-12.484,3.943-14.318-0.346c-2.143-5.009-5.646-9.058-10.926-10.748
				c-3.325-1.063-6.848,0.048-8.824,2.771c-5.482,7.554-10.311-1.586-12.301-6.438c-3.698-9.015-1.387-21.007-13.5-22.998
				c-5.471-0.899-10.825,1.718-15.863,3.451c-7.876,2.711-14.646,3.657-22.707,1.143c-7.096-2.214-14.037-4.895-20.805-7.962
				c-5.096-2.312-18.426-6.471-16.08-13.854c4.052-12.754,21.488-10.691,31.021-7.833c3.57,1.07,7.027,2.311,10.396,3.919
				c2.083,0.996,5.055,0.289,7.357,1.151c2.871,1.075,5.053-2.701,5.109-4.917c0.262-9.946-10.438-16.235-18.887-18.823
				c-5.423-1.662-12.792-0.198-18.378-0.01c-7.562,0.255-14.927-0.325-21.688-3.992c-1.701-0.922-3.216,1.668-1.515,2.591
				c11.958,6.484,25.153,3.669,38.127,4.104c6.14,0.206,14.729,5.384,18.11,10.437c0.445,0.666,3.117,8.914-1.387,7.229
				c-0.892-0.333-2.414-0.407-3.343-0.501c-3.573-0.363-6.71-1.995-10.104-3.145c-9.922-3.358-19.465-5.188-29.275-0.379
				c-3.407,1.67-6.521,4.719-7.979,8.246c-1.865,4.524-0.973,7.701,2.545,10.773c4.623,4.039,12.057,6.558,17.63,9.015
				c6.517,2.873,13.237,5.25,20.032,7.372c5.985,1.868,11.617,1.473,17.625-0.1c7.033-1.84,14.18-6.418,21.605-4.533
				c6.915,1.755,6.936,12.387,8.346,18.083c1.004,4.053,3.021,8.119,5.728,11.298c1.853,2.178,5.019,3.354,7.739,2.204
				c1.676-0.707,3.248-1.649,4.354-3.123c4.021-5.354,10.162-0.911,13.134,3.071c1.213,1.623,1.432,4.966,3.11,5.947
				c1.958,1.147,4.274,1.246,6.461,1.095c2.647-0.185,5.122-1.239,7.791-1.375c4.396-0.225,9.317,6.973,11.474,10.027
				c4.533,6.424,5.131,15.84,3.576,23.312c-1.169,5.614-6.236,7.726-10.221,11.148c-2.194,1.886-3.34,4.301-2.686,7.157
				c1.34,5.854,10.508,3.638,11.265,9.607c0.788,6.219-4.835,14.232-11.403,14.232c-1.955,0-5.361-3.674-7.064-4.771
				c-3.047-1.964-6.437-3.42-9.679-5.022c-3.282-1.623-3.46-4.012-4.311-7.104c-0.532-1.936-2.11-3.545-3.565-4.818
				c-3.054-2.675-8.06-6.055-12.279-5.229c-4.287,0.839-7.955,2.396-10.593,5.975c-1.147,1.558-1.388,3.61-1.509,5.473
				c-0.249,3.817-1.404,7.199-2.234,10.885c-0.929,4.111-4.633,7.346-8.342,8.901c-3.833,1.608-7.74,0.108-11.215-1.596
				c-4.833-2.37-9.818-4.349-14.432-7.153c-5.26-3.199-9.451-8.083-9.87-14.441c-0.511-7.747,6.524-13.535,12.991-16.148
				c8.617-3.482,9.229-11.43,6.32-19.313c-1.562-4.229-3.955-8.143-6.425-11.89c-0.894-1.356-0.024-2.957-1.233-4.304
				c-1.986-2.212-2.816-4.92-4.828-7.158c-1.775-1.975-4.039-3.471-6.375-4.682c-3.342-1.734-7.754-0.768-9.611-5.25
				c-0.786-1.898-1.438-4.465-2.891-5.998c-1.873-1.98-4.152-3.421-6.248-5.146c-1.395-1.146-2.881-1.205-4.607-1.223
				c-3.111-0.032-6.282-1.377-9.463-1.614c-5.141-0.382-10.208,1.282-14,4.75c-6.528,5.969-5.455,16.385-0.045,22.535
				c3.665,4.167,9.752,4.455,14.795,5.449c6.531,1.289,10.672,7.765,12.262,13.754c1.446,5.442,0.311,11.284-2.42,16.108
				c-1.818,3.216-4.447,4.606-7.464,6.487c-4.386,2.733-7.668,2.062-12.5,1.609c-2.948-0.275-4.212-2.498-6.463-4.082
				c-2.052-1.443-4.351-2.254-6.7-3.102c-5.162-1.858-11.848-1.564-16.841,0.685c-8.119,3.658-12.261,16.87-10.606,25.082
				c0.945,4.704,2.942,9.845,6.987,12.701c3.534,2.494,9.288,0.871,13.166,0.538c2.808-0.239,4.957,0.812,7.481,1.895
				c4.623,1.98,6.841,5.055,8.08,9.975c1.136,4.515,2.904,8.133,7.09,10.396c9.352,5.057,10.767-7.813,10.746-13.712
				c-0.017-4.936-0.196-15.471,7.096-14.01c6.053,1.215,10.49,6.42,13.48,11.45c3.709,6.242,3.828,11.929,2.907,18.962
				c-0.692,5.3-1.166,10.121,2.175,14.601c4.193,5.62,15.954,7.127,18.666-0.807c0.934-2.729,1.168-5.601,1.95-8.37
				c1.456-5.145,8.206-3.569,11.554-1.861c3.557,1.812,4.043,4.253,2.849,7.468c-0.867,2.334-0.771,5.188-0.782,7.629
				c-0.004,0.838,0.686,1.475,1.5,1.5c8.91,0.292,14.045-5.557,18.046-12.831c2.114-3.844,3.917-7.835,6.363-11.489
				c4.578-6.844,13.382-7.639,20.399-4.363c6.94,3.239,8,15.174,6.744,21.786c-1.354,7.135-4.365,14.48-6.752,21.337
				c-2.412,6.929-5.408,13.602-9.179,19.896c-2.159,3.606-4.728,5.043-8.38,6.869c-3.032,1.517-6.225-9.784-6.705-11.414
				c-1.036-3.505-1.591-10.485-6.141-11.737c-5.197-1.43-11.332,0.528-15.988,2.715c-3.549,1.665-8.105,4.595-8.391,8.99
				c-0.311,4.812,2.765,8.525,6.062,11.678c1.82,1.738,3.93,3.211,6.007,4.619c1.132,0.766,1.856,3.513,2.938,4.602
				c5.619,5.661,4.965,14.974,4.024,22.25c-0.514,3.985-0.313,7.854-2.126,11.54c-1.516,3.087-4.349,5.351-6.855,7.618
				c-4.576,4.138-10.266,7.288-16.268,8.781c-4.359,1.086-7.912-0.313-9.357-4.744c-1.133-3.478-2.826-6.469-5.072-9.344
				c-2.45-3.138-5.631-5.703-8.527-8.406c-1.33-1.241-2.576-2.555-3.785-3.912c-3.508-3.948-1.324-8.047,0.676-11.963
				c7.762-15.209,13.017-33.735,4.56-49.733c-0.25-0.473-0.778-0.727-1.295-0.743c-3.756-0.122-7.467-0.971-10.808,1.206
				c-3.412,2.226-3.795,8.941-2.271,12.251c1.977,4.297,3.648,7.333,2.891,12.322c-0.586,3.854-2.406,7.505-4.105,10.964
				c-3.592,7.308-12.547,5.831-17.971,1.438c-6.53-5.29,1.904-9.656,0.712-15.079c-1.105-5.022-4.021-8.989-8.732-11.147
				c-4.263-1.952-9.01-0.646-12.971,1.334c-5.033,2.518-15.913,9.35-20.448,3.455c-2.906-3.779-2.617-9.266,1.805-11.683
				c2.744-1.499,7.811-1.871,10.899-2.062c1.931-0.118,4.054-2.438,5.558-3.501c2.158-1.524,4.146-2.98,5.744-5.166
				c2.945-4.027,4.471-8.441,4.644-13.426c0.085-2.44-0.519-4.896-1.284-7.187c-1.008-3.012-2.107-3.598-4.862-5.056
				c-7.895-4.181-21.239-13.956-30.644-8.954c-9.206,4.896-8.672,15.771-13.422,23.668c-1.172,1.949-3.049,3.223-5.174,3.892
				c-2.474,0.778-5.418-1.241-4.655-4.058c0.85-3.142,2.061-6.174,2.919-9.314c1.43-5.234,1.125-10.573-2.762-14.459
				c-3.365-3.366-7.31-3.584-11.643-2.669c-4.885,1.03-9.809,1.775-14.593,3.235c-8.341,2.544-14.524,8.195-15.504,17.13
				c-0.308,2.799,0.413,5.83,0.868,8.58c0.873,5.259-0.242,8.872-2.479,13.692c-2.542,5.476-3.979,10.812-3.608,16.867
				c0.238,3.898,1.816,8.233,5.021,10.667c2.325,1.766,3.933,0.548,6.894,0.303c4.588-0.381,9.116,1.081,13.226,2.963
				c3.866,1.771,7.368,4.549,11.711,1.951c5.642-3.375,3.905-7.774,5.224-13.469c0.897-3.875,3.786-5.628,7.543-5.687
				c4.228-0.064,6.334,3.587,6.781,7.494c0.359,3.146-3.104,7.112-4.359,9.909c-0.902,2.008-0.933,4.381-0.487,6.516
				c1.936,9.295,10.803,12.771,19.245,9.429c2.75-1.09,5.131-1.622,7.703-3.198c2.875-1.761,5.35-3.29,8.539-4.486
				c1.988-0.745,7.188-4.149,7.424,1.327c0.201,4.605-2.42,8.663-6.321,11.21c-5.125,3.345-12.847,3.362-18.599,5.212
				c-4.131,1.328-9.405,3.702-9.973,8.6c-1.029,8.897,2.52,20.483,13.682,18.716c4.336-0.688,8.111-4.524,11.392-7.147
				c5.824-4.656,12.993-7.654,19.301-11.609c1.974-1.236,3.894-2.845,6.067-3.712c1.945-0.778,4.41-0.516,6.458-0.413
				c3.694,0.182,6.45,2.2,9.301,4.446c1.871,1.476,3.11,3.954,4.79,5.68c0.971,0.997,2.541,1.834,3.499,2.733
				c2.003,1.883,3.096,4.491,3.907,7.046c1.861,5.854,1.699,11.984,4.102,17.736c3.012,7.213,8.33,12.801,8.33,21.009
				c0,10.11-17.284,27.037-25.793,14.58c-1.246-1.822-0.167-5.318-1.646-6.641c-1.942-1.735-3.838-2.977-6.309-3.828
				c-5.579-1.927-11.88,1.599-17.34,2.32c-2.384,0.314-4.848-0.211-6.432-2.272c-1.834-2.387,1.033-5.451,2.279-7.143
				c1.553-2.112,2.625-4.165,3.565-6.597c1.528-3.952,1.214-8.676-0.257-12.571c-1.236-3.28-3.723-5.472-6.887-6.785
				c-4.634-1.925-8.276,0.86-10.041,4.792c-1.779,3.964-5.715,6.529-9.957,4.28c-2.052-1.089-3.959-2.251-6.285-2.582
				c-7.77-1.105-14.707-0.446-21.604-4.923c-8.362-5.431-9.93-13.652-4.499-21.874c2.643-4.001,3.596-7.828,2.346-12.562
				c-0.824-3.122-3.936-7.731-7.242-8.642c-1.244-0.344-2.707,0.422-3.838-0.614c-0.5-0.459-0.812-0.823-1.412-1.073
				c-2.25-0.938-5.905-1.57-8.379-1.604c-11.976-0.171-16.945,13.107-19.795,22.57c-1.547,5.132-0.84,12.191,0.262,17.336
				c1.473,6.875,5.376,12.294,8.469,18.553c3.062,6.197,5.949,12.416,9.843,18.153c2.773,4.085,6.585,6.511,11.625,5.063
				c6.418-1.842,12.945,1.205,18.669,3.747c3.432,1.522,6.027,2.516,9.693,1.043c3.414-1.371,6.062-4.526,8.646-7.011
				c4.241-4.078,6.117-0.949,7.877,3.021c2.965,6.686,6.387,9.717,14.273,9.333c2.28-0.11,4.82-0.252,7.064-0.624
				c3.713-0.614,7.15,0.697,10.478,2.188c8.769,3.924-7.926,11.494-10.596,12.338c-4.611,1.454-9.49,2.035-14.279,2.528
				c-1.237,0.128-2.194,0.833-3.205,1.501c-1.969,1.302-6.312,1.48-8.461,1.563c-3.286,0.127-6.284,0.836-9.603,0.325
				c-2.582-0.397-5.785-3.609-7.975-5.186c-2.736-1.969-6.138-6.257-10.156-5.15c-2.416,0.665-4.312,6.289-5.451,8.283
				c-3.582,6.272-10.375,7.069-16.947,5.638c-6.871-1.497-11.207-8.194-12.346-14.502c-1.178-6.532-3.457-12.782-4.41-19.371
				c-0.482,0.633-0.965,1.266-1.446,1.897c0.667,0,1.333,0,2,0C338.162,649.003,338.162,646.003,336.228,646.003L336.228,646.003z"
				/>
		</g>
		<g>
			<path fill="#FFFFFF" d="M578.228,410.003c-1.974-0.073-3.691-2.766-5.186-3.857c-1.536-1.123-3.071-1.928-4.844-2.592
				c-2.91-1.091-6.205-0.757-9.105,0.12c-7.712,2.331-7.827,10.741-14.928,13.734c-7.354,3.101-8.279-8.232-9.043-12.368
				c-0.739-4.009-3.227-7.528-5.602-10.73c-2.564-3.455-5.338-6.67-6.92-10.731c-1.76-4.52-0.65-9.761-1.928-14.473
				c-0.506-1.865-3.398-1.073-2.893,0.797c1.42,5.241,0.412,10.584,2.405,15.703c1.483,3.812,4.291,7.01,6.743,10.22
				c1.409,1.843,2.617,3.786,3.798,5.78c1.755,2.963,1.404,6.101,2.054,9.297c0.795,3.928,2.736,7.135,6.348,9.023
				c5.164,2.703,13.604-2.854,15.025-8.023c1.494-5.433,8.527-6.738,13.246-5.455c4.529,1.23,6.049,6.38,10.826,6.557
				C580.164,413.074,580.156,410.074,578.228,410.003L578.228,410.003z"/>
		</g>
		<g>
			<path fill="#FFFFFF" d="M576.984,358.798c2.926-2.137,5.957-4.094,9.037-6c1.901-1.177,4.747-2.193,6.131-4.013
				c2.896-3.802,2.931-9.642,2.078-14.109c-0.76-3.991-3.652-7.197-3.779-11.38c-0.092-3.027,0.877-6.145,1.209-9.161
				c0.166-1.5,0.319-4.104-0.56-5.482c-0.955-1.498-2.438-4.667-4.116-5.445c-4.281-1.986-7.986-0.729-11.662,2
				c-4.552,3.38-5.129,7.434-7.707,12.063c-1.1,1.973-6.69,3.636-8.717,4.982c-2.103,1.399-4.363,2.627-6.428,3.953
				c-2.118,1.361-3.566,3.373-6.126,4.005c-1.253,0.311-2.42,0.967-3.675,0.377c-2.393-1.124-4.107-3.407-5.521-5.534
				c-1.625-2.445-3.09-5.595-3.697-8.471c-0.465-2.203-0.284-4.723-1.364-6.771c-3.96-7.504-6.151-14.577-3.619-23.014
				c2.392-7.965,9.506-11.714,17.26-12.049c3.714-0.161,10.249,4.794,11.955,7.851c1.312,2.353,2.465,4.209,4.788,5.57
				c4.016,2.352,10.57-0.144,14.583-1.294c2.296-0.658,5.914-0.9,7.931-2.081c1.643-0.962,3.018-3.903,3.646-5.564
				c4.217-11.152-1.396-21.061-6.714-30.577c-2.131-3.812-7.723-5.038-11.521-6.181c-5.188-1.563-10.476,1.156-14.524,4.179
				c-6.127,4.575-13.48,5.93-20.908,6.691c-2.059,0.211-5.688-0.195-7.491,0.861c-2.134,1.25-3.915,3.834-5.498,5.685
				c-3.519,4.112-6.808,8.411-11.702,10.965c-3.376,1.761-7.24,1.127-10.723,0.102c-4.014-1.182-6.592-5.586-9.482-8.381
				c-8.953-8.652-26.506-14.53-27.365-28.66c-0.515-8.463,5.93-13.827,12.062-18.341c7.312-5.382,18.776-5.643,25.606,1.187
				c2.67,2.67,4.153,4.572,5.414,8.138c0.594,1.682,1.283,3.375,2.523,4.702c2.79,2.984,6.337,4.242,10.385,4.143
				c3.785-0.093,7.262-1.972,10.032-4.417c1.302-1.148,2.912-2.99,3.358-4.724c0.998-3.869,0.061-7.896,3.207-11.042
				C549.479,199.371,556.177,228,569.227,228c3.859,0,7.187-4.357,8.532-7.451c2.23-5.13,0.895-10.26-0.561-15.336
				c-0.901-3.15-1.81-6.261-3.069-9.291c-1.197-2.879-2.937-4.315-4.775-6.779c-1.858-2.491-2.692-7.091-3.681-10.042
				c-0.688-2.055-1.473-3.66-2.883-5.326c-5.432-6.418-16.551-6.421-23.32-2.571c-4.055,2.306-5.561,9.386-6.877,13.412
				c-0.625,1.909-2.282,8.255-6.346,4.987c-1.205-0.97-2.114-2.697-2.983-3.978c-1.321-1.949-2.729-3.3-4.976-3.973
				c-3.604-1.08-6.84,1.422-8.525,4.323c-0.738,1.272-1.253,3.442-0.982,4.922c0.2,1.095,0.33,1.407,0.791,2.406
				c-0.994,3.541-2.678,4.354-5.05,2.438c-0.436-0.686-0.87-1.373-1.306-2.059c-4.744-7.486-10.385-17.156-19.624-19.457
				c-3.997-0.996-7.929,0.704-11.122,2.978c-4.061,2.891-5.268,8.437-7.416,12.637c-2.318,4.532-7.857,6.622-12.059,9.033
				c-3.605,2.07-6.971,4.513-9.148,8.12c-2.061,3.41-1.708,7.582-0.695,11.246c0.784,2.843-0.05,5.883,0.629,8.659
				c0.986,4.034,2.998,7.758,3.141,11.969c0.234,6.918-6.657,13.334-11.975,16.587c-6.834,4.183-14.146,2.754-19.727-2.727
				c-6.119-6.01-5.247-13.995-1.098-20.791c3.379-5.534,9.314-8.809,10.264-15.605c0.667-4.777-1.57-9.662-3.068-14.069
				c-0.986-2.895-2.328-5.902-0.264-8.515c1.855-2.35,2.186-5.182,4.447-7.35c4.725-4.527,10.545-7.757,15.339-12.234
				c4.749-4.437,5.801-9.829,8.288-15.513c2.373-5.424,6.148-10.352,11.311-13.338c6.981-4.039,16.098-0.229,18.344,7.461
				c0.646,2.21,2.086,3.32,3.4,5.155c1.348,1.88,2.042,3.232,3.952,4.604c3.385,2.429,8.282,3.957,11.856,1.029
				c4.959-4.06,4.871-11.291,10.461-14.901c3.246-2.098,7.75,0.7,10.551,2.244c2.85,1.57,3.984,2.097,7.225,2.097
				c2.948,0,6.17-3.847,6.975-6.41c1.324-4.223,0.582-8.495-1.071-12.518c-2.461-5.983-5.876-11.793-9.199-17.329
				c-2.394-3.987-5.983-10.945-11.211-11.846c-3.532-0.609-7.521-1.58-10.374,1.4c-3.506,3.662-5.917,8.215-9.459,11.855
				c-5.521,5.675-12.104,3.658-18.594,1.068c-2.938-1.172-5.719-2.251-8.896-2.18c-3.943,0.088-10.373,1.834-13.357-1.711
				c-4.926-5.851,2.836-13.842,6.93-17.425c2.895-2.534,5.854-4.633,9.779-5.077c3.671-0.415,7.562,0.567,11.221,0.838
				c8.619,0.639,15.557-3.761,16.471-12.479c0.864-8.227-2.748-18.995-7.535-25.576c-2.391-3.289-6.972-8.707-11.276-9.559
				c-3.367-0.667-7.66,0.843-10.53-1.65c-2.871-2.495-2.427-6.816-3.718-10.043c-1.045-2.611-6.215-3.887-8.618-4.598
				c-3.714-1.101-7.725-1.131-11.105,0.893c-3.934,2.356-5.246,8.6-6.045,12.627c-1.199,6.042-0.041,12.83,2.563,18.362
				c0.744,1.579-1.485,4.749-2.108,6.235c-1.057,2.52-2.134,4.967-3.641,7.253c-1.992,3.023-5.988,5.055-9.5,3.52
				c-2.799-1.223-4.416-4.609-5.66-7.205c-6.33-13.206,1.525-26.419-0.441-40.049c-0.738-5.12-3.459-8.045-8.045-10.21
				c-3.867-1.826-8.354-5.288-12.948-4.097c-3.948,1.023-7.472,6.625-9.726,9.753c-3.643,5.054-5.533,11.185-9.811,15.79
				c-4.438,4.778-10.42-3.509-12.137-7.024c-2.141-4.38-2.444-9.575-4.633-13.867c-5.478-10.738-16.951-7.604-23.455,0.429
				c-8.174,10.097-5.815,25.103-4.64,36.938c0.4,4.028-0.157,6.187-2.401,9.634c-1.984,3.051-4.155,5.982-6.191,9
				c-3.555,5.27-2.866,10.488-2.421,16.506c0.177,2.395,1.032,4.173,2.213,6.208c1.494,2.576,1.476,4.5,2.028,7.286
				c0.771,3.891,1.285,6.917,0.309,10.888c-1.021,4.158-2.414,8.225-3.548,12.353c-1.347,4.901-3.345,12.043-0.656,16.715
				c4.125,7.169,5.583,15.559,3.074,23.498c-0.991,3.137-2.979,4.918-3.284,8.178c-0.352,3.74-0.514,7.497-0.646,11.25
				c-0.131,3.748-0.152,7.5-0.17,11.25c-0.015,2.834-0.549,6.251,0.664,8.93c3.569,7.886,18.961,14.183,26.188,7.917
				c6.261-5.428,9.663-17.587,7.951-25.534c-1.077-4.996-4.596-9.374-6.883-13.846c-3.504-6.853,1.246-15.487,3.847-21.733
				c5.216-12.53,2.806-22.869-2.646-34.863c-3.916-8.617-1.334-16.794,1.584-25.247c2.586-7.487,6.824-16.379,13.9-20.349
				c6.175-3.464,14.412-5.543,19.84,0.125c5.239,5.472,5.622,13.206,4.354,20.188c-1.062,5.849-7.994,9.504-12.18,12.97
				c-3.951,3.271-4.473,6.792-3.27,11.705c0.945,3.859,4.793,6.189,8.252,7.396c5.078,1.771,10.165-0.206,14.605-2.65
				c4.613-2.538,8.356-6.536,12.021-10.233c2.015-2.033,4.651-5.925,7.899-4.327c2.326,1.146,2.918,4.807,3.343,7.071
				c0.993,5.3,1.077,10.861-2.685,15.074c-5.918,6.629-15.078,5.046-22.934,5.789c-9.355,0.885-15.645,9.854-17.166,18.468
				c-1.021,5.787,0.479,11.652,3.708,16.483c4.424,6.616,11.782,4.662,18.315,3.033c1.264-0.314,6.408-2.125,7.119-0.883
				c1.051,1.83,1.447,3.956,1.539,6.03c0.219,4.998-3.418,8.382-7.955,9.473c-4.367,1.05-10.705,0.68-14.994-0.295
				c-1.515-0.344-2.137-1.805-3.528-2.218c-1.691-0.501-3.021-0.209-4.673,0.329c-5.48,1.786-6.106,9.217-5.324,13.981
				c0.811,4.937,5.695,7.712,9.854,9.474c2.312,0.98,4.697,1.782,7.033,2.703c1.377,0.544,2.682,1.207,3.954,1.958
				c1.685,0.993-2.94,6.535-3.351,7.182c-4,6.31-4.855,13.684-1.188,20.28c0.94,1.691,3.532,0.178,2.592-1.514
				c-4.406-7.924-0.479-15.831,4.764-22.183c1.955-2.366,0.928-4.734-1.303-6.356c-6.309-4.587-18.979-4.097-19.646-14.016
				c-0.306-4.543,1.617-11.209,8.131-7.393c2.019,1.183,4.825,1.256,7.108,1.42c4.908,0.354,10.633,0.302,15.16-1.792
				c7.653-3.541,7.362-13.442,3.783-19.68c-0.254-0.442-0.777-0.765-1.295-0.743c-6.314,0.27-14.978,5.058-20.843,2.125
				c-6.312-3.156-6.942-13.127-5.586-18.976c1.292-5.567,5.112-10.181,10.082-12.85c6.342-3.407,14.718-0.099,21.47-3
				c4.573-1.965,8.311-4.827,10.438-9.414c1.646-3.549,0.971-8.104,0.52-11.855c-0.396-3.292-1.27-6.434-3.379-9.034
				c-1.459-1.798-5.797-3.316-7.762-1.556c-7.991,7.156-22.011,25.626-33.716,14.385c-3.385-3.252-2.01-8.596,1.022-11.271
				c2.13-1.877,4.478-3.508,6.675-5.305c4.303-3.516,6.194-7.52,6.991-12.936c1.288-8.753-3.084-20.392-12.108-23.071
				c-4.727-1.403-10.242-0.211-14.562,1.961c-6.009,3.023-9.045,5.888-12.252,11.769c-5.94,10.891-13.065,25.357-7.629,37.784
				c3.146,7.193,5.759,13.383,6.231,21.306c0.416,6.958-3.778,13.69-6.232,19.951c-1.73,4.414-3.128,10.634-1.271,15.2
				c2.36,5.808,6.918,10.605,7.722,17.013c0.597,4.768-2.038,11.903-4.126,16.132c-4.363,8.84-13.979,5.191-20.928,1.845
				c-6.901-3.324-4.254-17.366-4.078-23.58c0.105-3.756,0.338-7.505,0.646-11.25c0.269-3.279,3.22-7.101,4.035-10.444
				c1.325-5.425,0.345-11.197-1.375-16.4c-0.942-2.851-3.404-5.81-3.601-8.795c-0.305-4.627,0.97-9.3,2.184-13.719
				c1.436-5.224,5.097-12.246,4.003-17.759c-0.542-2.732-0.642-5.467-1.125-8.156c-0.59-3.279-3.183-5.568-4.097-8.77
				c-1.998-6.993-0.032-13.384,3.897-19.075c3.435-4.973,7.636-9.146,7.112-15.452c-1.151-13.856-5.186-35.858,11.275-42.672
				c8.914-3.69,11.321,6.133,13.152,12.157c1.285,4.226,2.904,8.265,5.62,11.779c2.308,2.987,5.713,4.4,9.345,4.878
				c4.289,0.565,7.58-6.011,9.286-9.113c1.316-2.394,2.479-4.857,3.876-7.21c1.497-2.521,3.68-4.445,5.428-6.768
				c3.582-4.754,6.487-4.267,11.164-1.675c3.668,2.033,7.797,2.668,9.608,7.085c1.284,3.134,0.562,7.269,0.417,10.567
				c-0.176,4.005-1.014,7.944-1.607,11.901c-0.912,6.069-1.006,11.677,1.004,17.481c2.295,6.622,7.602,15.898,16.035,12.206
				c4.047-1.771,6.279-5.04,8.129-8.931c1.086-2.287,1.971-4.667,3.027-6.968c1.625-3.536,1.526-2.711-0.109-6.673
				c-3.162-7.662-2.582-16.567,1.322-23.848c3.029-5.648,11.705-2.241,15.91-0.207c2.137,1.033,1.977,4.336,2.49,6.349
				c0.529,2.072,1.648,3.776,3.014,5.38c1.184,1.392,3.197,2.348,5.021,2.373c4.761,0.065,8.67,0.153,12.293,3.79
				c7.156,7.181,12.672,19.592,10.941,30.041c-2.301,13.894-22.033,4.098-30.416,8.742c-7.982,4.422-16.935,13.178-14.539,23.086
				c1.07,4.426,4.562,5.561,8.545,5.865c3.862,0.295,7.853-0.995,11.674-0.074c4,0.964,7.736,2.977,11.666,4.196
				c9.509,2.95,15.947-5.043,20.832-11.777c1.642-2.261,2.98-4.527,5.758-5.321c3.008-0.859,5.333,0.212,7.72,1.849
				c3.464,2.375,5.716,7.04,7.83,10.562c2.183,3.635,4.11,7.421,6.026,11.2c2.525,4.981,5.762,11.606,1.761,16.774
				c-4.138,5.343-11.302-1.623-16.181-2.662c-3.867-0.824-7.888,1.342-9.976,4.574c-1.44,2.23-2.651,4.474-3.646,6.932
				c-1.037,2.561-2.235,4.437-5.002,5.418c-2.604,0.924-7.406-2.28-8.763-4.351c-5.075-7.756-8.924-18.631-20.448-16.98
				c-10.017,1.434-16.256,10.507-19.742,19.255c-1.168,2.933-1.904,5.691-3.649,8.381c-2.319,3.577-5.687,6.181-9.062,8.704
				c-4.368,3.264-10.096,6.337-12.358,11.523c-0.638,1.461-1.097,2.706-2.101,3.978c-0.49,0.62-1.17,0.73-1.381,1.498
				c-0.488,1.776,0.396,4.52,0.817,6.246c1.619,6.612,6.03,13.197,2.339,19.917c-1.527,2.781-4.583,4.939-6.496,7.492
				c-1.679,2.238-3.31,4.584-4.3,7.225c-2,5.332-1.916,10.149,0.599,15.259c3.959,8.045,14.696,13.425,23.246,9.555
				c8.121-3.677,18.481-12.803,16.83-22.901c-0.521-3.182-1.773-6.1-2.742-9.161c-0.877-2.772-0.231-6-0.764-8.862
				c-1.309-7.047-0.785-11.331,5.371-15.645c3.641-2.551,7.76-4.348,11.456-6.821c4.24-2.837,5.659-7.695,7.683-12.112
				c2.863-6.251,9.48-9.035,15.618-5.764c5.249,2.797,8.929,8.628,12.106,13.429c1.978,2.986,3.262,6.637,6.957,7.652
				c3.46,0.95,6.638-1.617,7.453-4.808c0.56-2.19-1.481-3.904-0.901-6.502c0.683-3.059,4.513-5.029,7.153-2.904
				c1.205,0.97,2.115,2.697,2.983,3.978c2.313,3.411,5.582,5.147,9.462,3.051c3.854-2.083,4.719-10.281,6.241-13.872
				c3.113-7.34,11.122-8.063,17.859-5.832c6.729,2.229,7.026,8.641,9.579,14.224c1.147,2.51,1.742,4.31,3.649,6.416
				c3.093,3.411,4.103,8.332,5.324,12.649c1.062,3.751,1.987,6.987,1.399,10.906c-0.418,2.796-3.279,8.621-6.986,7.981
				c-6.885-1.187-11.003-9.384-15.811-13.666c-8.203-7.305-18.941-4.72-22.957,5.525c-1.334,3.404,0.26,6.177-2.539,9.604
				c-1.774,2.174-4.34,3.426-6.994,4.129c-2.703,0.716-5.545,0.146-7.937-1.193c-3.274-1.833-3.368-5.114-4.231-8.29
				c-0.553-2.041-3.164-3.77-4.562-5.168c-2.314-2.314-4.229-3.43-7.22-4.807c-5.558-2.556-11.394-3.565-17.229-1.386
				c-10.154,3.793-19.322,13.103-19.539,24.269c-0.225,11.605,12.022,18.612,20.26,24.44c2.783,1.969,5.459,4.049,7.982,6.341
				c2.309,2.094,3.959,4.767,6.295,6.791c3.488,3.023,9.24,3.917,13.666,3.273c4.379-0.638,8.086-3.828,11.067-6.856
				c3.708-3.765,7.008-10.703,12.63-11.245c6.284-0.606,12.461-1.184,18.428-3.389c6.617-2.447,11.903-9.548,19.57-7.905
				c3.124,0.669,7.811,2.187,9.727,4.803c1.684,2.299,3.092,4.954,4.375,7.496c3.021,5.985,4.426,12.989,2.514,19.508
				c-1.98,6.754-13.114,8.16-19.256,8.767c-4.979,0.492-4.988-4.016-7.67-6.501c-2.116-1.962-4.424-3.61-6.809-5.235
				c-8.87-6.044-19.338-0.543-24.775,7.311c-3.117,4.501-3.715,10.477-3.272,15.779c0.562,6.741,5.058,11.858,5.881,18.372
				c0.835,6.591,7.048,20.178,15.438,17.78c2.637-0.754,3.527-0.604,5.586-2.438c1.812-1.613,3.775-1.896,5.647-3.213
				c2.88-2.026,4.794-4.153,8.188-5.427c1.725-0.647,3.151-1.069,4.319-2.632c1.316-1.762,2.033-3.678,2.762-5.732
				c1.232-3.483,3.894-5.932,6.981-7.833c4.37-2.69,9.417,1.899,9.493,6.33c0.055,3.095-0.798,6.193-1.186,9.259
				c-0.336,2.66,0.07,4.856,1.24,7.212c2.006,4.037,3.155,7.775,2.797,12.289c-0.35,4.381-1.877,5.799-5.432,7.945
				c-3.648,2.202-7.236,4.486-10.678,7C573.925,357.336,575.42,359.941,576.984,358.798L576.984,358.798z"/>
		</g>
	</g>
	<g>
		<g>
			<path fill="#FFFFFF" d="M173.98,274.351c6.537,0.305,10.662,6.735,16.701,8.675c3.326,1.069,6.78,1.256,10.174,0.824
				c0.453-0.941,0.908-1.881,1.362-2.822c-6.133,1.024-13.225-1.233-17.384-4.938c-7.394-6.585-17.952-5.728-25.936-0.753
				c-8.766,5.462-11.568,15.601-9.653,25.306c2.093,10.604,9.676,15.412,19.293,18.323c5.346,1.618,10.493,2.76,13.401,8.024
				c3.018,5.466,0.889,12.377-3.293,16.491c-5.187,5.103-17.925,5.303-23.993,1.766c-3.303-1.925-7.133-2.278-8.754-6.373
				c-0.899-2.271-0.972-4.757-2.774-6.616c-3.624-3.735-8.557-4.169-12.94-6.572c-5.439-2.983-8.193-9.498-10.636-14.861
				c-2.391-5.248-6.663-10.888-7.16-16.678c-0.373-4.346,0.411-8.12,4.568-10.246c2.64-1.351,5.2-2.826,7.657-4.485
				c7.672-5.181,12.973-14.146,9.237-23.407c-4.011-9.948-16.264-15.805-25.849-18.927c-4.506-1.468-10.479-3.51-15.148-1.952
				c-4.766,1.591-9.305,6.969-11.209,11.418c-2.261,5.282-0.825,11.449-3.486,16.593c-3.094,5.981-11.637,5.014-16.683,2.702
				c-5.462-2.503-6.146-8.587-8.771-13.352c-0.676-1.226-2.015-2.595-3.362-3.046c-3.775-1.263-7.455-2.583-10.868-4.659
				c-4.198-2.554-6.162-7.226-11.806-5.861c-4.757,1.15-7.919,6.255-9.915,10.288c-1.778,3.591-3.102,8.744-0.515,12.235
				c2.37,3.201,14.777,4.81,9.591,11.007c-3.579,4.276-8.557,5.838-11.441,10.95c-2.936,5.201-1.449,12.001-1.339,17.626
				c0.094,4.848,3.57,9.706,6.456,13.338c3.076,3.869,5.796,9.919,11.255,10.86c2.062,0.354,3.275,1.117,5.459,0.721
				c3.093-0.562,8.687-3.341,10.232,0.782c1.73,4.619,5.448,8.25,9.918,10.188c1.944,0.842,6.108,1.947,8.077,0.793
				c0.602-0.352,1.032-1.149,1.262-1.772c0.939-2.528,3.74-4.132,6.446-4.269c4.728-0.238,7.147,7.179,8.364,10.596
				c1.639,4.604,1.752,9.608,3.399,14.235c2.294,6.443,8.875,9.82,15.398,9.479c4.684-0.246,9.499-2.902,13.957-4.26
				c6.851-2.082,13.831-2.911,20.854-1.238c10.499,2.499,20.133,7.396,29.876,11.891c2.97,1.372,12.979,4.282,12.173,9.106
				c-0.73,4.384-3.653,7.83-7.261,10.204c-6.063,3.987-14.318,4.477-21.214,2.913c-4.583-1.037-8.923-3.359-13.446-4.694
				c-4.779-1.412-9.534-1.818-14.49-1.827c-0.696-0.002-1.196,0.46-1.422,1.084c-3.865,10.609,5.378,17.812,14.183,21.491
				c15.223,6.358,32.408-1.777,47.476,5.747c1.696,0.848,3.192-1.698,1.488-2.549c-11.737-5.859-24.465-3.323-37.058-3.692
				c-9.723-0.283-26.908-6.895-23.594-19.103c6.711,0.147,12.853,1.549,19.19,3.89c5.028,1.859,9.402,3.353,14.805,3.416
				c8.167,0.099,16.541-3.015,21.484-9.685c2.117-2.856,3.683-7.168,2.373-10.599c-1.541-4.037-8.189-6.001-11.655-7.55
				c-12.208-5.45-24.41-12.41-37.925-13.875c-6.805-0.738-13.838,1.288-20.228,3.354c-3.63,1.176-7.061,2.893-10.919,3.093
				c-4.613,0.242-8.427-2.656-10.706-6.412c-3.177-5.231-2.6-12.418-4.983-18.067c-1.457-3.45-3.574-8.198-7.553-9.397
				c-3.205-0.966-7.633-0.223-10.094,2.238c-1.552,1.551-0.909,3.64-3.654,3.571c-4.499-0.113-8.225-3.434-10.562-6.962
				c-2.539-3.832-1.565-7.134-7.026-6.77c-3.22,0.214-6.397,2.324-9.687,1.756c-4.358-0.751-6.492-3.421-8.944-6.831
				c-4.404-6.126-8.476-10.402-8.861-18.372c-0.17-3.52-0.495-6.907,0.164-10.407c0.895-4.756,4.849-7.549,8.508-10.137
				c2.637-1.865,6.176-4.633,5.447-8.341c-0.799-4.069-4.61-5.833-8.086-7.345c-8.497-3.698-1.526-15.283,3.59-18.925
				c4.348-3.095,7.195,1.633,10.241,3.771c2.624,1.842,5.427,3.144,8.405,4.297c4.322,1.674,6.258,3.168,7.871,7.505
				c0.827,2.223,1.975,4.151,3.126,6.211c1.944,3.478,6.858,5.041,10.489,5.783c9.327,1.908,15.8-3.617,17.037-12.605
				c0.397-2.886,0.539-5.754,1.213-8.601c0.913-3.852,3.875-6.545,6.713-9.063c5.875-5.215,17.006-0.322,23.304,2.479
				c5.48,2.437,13.064,6.683,15.957,12.163c3.709,7.025,2.333,13.833-3.204,19.358c-3.731,3.725-8.778,6.139-13.431,8.485
				c-4.597,2.319-4.062,8.591-3.688,12.943c0.415,4.823,3.782,8.997,5.791,13.237c2.287,4.826,4.169,10.021,7.532,14.243
				c3.086,3.873,6.5,5.868,11.117,7.469c3.766,1.306,7.14,2.76,8.385,6.87c0.722,2.386,1.289,4.221,2.906,6.138
				c3.139,3.722,9.7,5.458,14.223,6.32c5.523,1.053,11.713,1.011,16.875-1.476c8.103-3.901,11.82-12.868,8.702-21.397
				c-3.427-9.376-14.556-9.646-22.418-13.055c-6.098-2.645-8.718-7.842-10.57-13.917c-2.15-7.053,0.625-14.879,5.64-19.866
				C161.993,275.753,168.124,274.079,173.98,274.351z"/>
			<path fill="#FFFFFF" d="M297.994,156.292c-1.179-2.395-5.35-7.042-8.464-6.186c-4.868,1.338-7.542,1.404-12.177-0.631
				c-2.836-1.244-5.504-2.856-8.326-4.139c-3.704-1.683-8.664,0.379-10.869,3.481c-3.863,5.428,0.111,13.09-5.971,17.258
				c-3.054,2.092-8.254,1.92-10.047-1.644c-1.652-3.286-2.276-4.971-0.861-8.741c1.854-4.933,5.356-10.235,4.173-15.769
				c-0.822-3.85-3.512-7.804-7.252-9.377c-8.028-3.375-17.122,2.223-24.159,5.678c-2.978,1.463-16.694,8.413-14.896-0.303
				c1.176-5.691,5.502-9.15,10.631-11.204c7.38-2.954,17.554-2.932,23.414-8.791c5.482-5.484,4.408-17.795-1.845-22.405
				c-3.308-2.44-8.214-3.684-12.002-1.296c-6.032,3.804-11.244,8.382-17.606,11.668c-4.985,2.575-9.509,5.965-14.452,8.625
				c-2.722,1.463-5.572,2.445-8.591,3.061c-5.104,1.041-8.022-0.929-11.86-4.066c-4.921-4.025-8.994-8.945-11.783-14.663
				c-1.369-2.805-2.566-6.09-3.445-9.075c-0.967-3.284-0.638-6.712-1.399-10.027c-1.103-4.799-4.354-9.019-6.793-13.19
				c-4.743-8.111-4.447-16.325,1.616-23.619c2.132-2.567,4.858-4.589,7.644-6.385c4.532-2.922,12.21-2.514,14.596,3.258
				c1.852,4.478,1.95,7.545,6.791,9.578c5.118,2.148,11.455-0.226,16.521-1.28c2.822-0.587,13.441-0.897,12.039,5.033
				c-0.803,3.396-4.157,6.052-6.281,8.656c-5.031,6.171-1.493,17.495,3.732,22.785c2.349,2.379,5.058,1.745,7.874,1.021
				c1.578-0.405,2.594-0.646,3.806-1.789c3.07-2.896-0.079-8.252,6.864-8.724c3.765-0.255,6.491,1.203,9.582,2.995
				c2.031,1.178,4.826,1.294,7.101,1.4c3.654,0.169,7.092-0.382,10.729,0.389c3.569,0.758,7.583,3.659,10.41,5.87
				c4.476,3.5,8.699,9.896,4.76,15.039c-3.404,4.445-5.508,9.374-5.849,14.992c-0.772,12.723,11.756,15.815,21.776,17.312
				c10.606,1.583,16.84-9.19,20.359-17.64c4.153-9.97,3.759-21.292-0.54-31.099c-1.004-2.29-3.929-5.086-4.068-7.535
				c-0.139-2.403-1.521-3.881-2.832-5.89c-1.975-3.028-3.604-6.278-5.166-9.533c-1.431-2.985-2.301-6.715-4.593-9.137
				c-3.677-3.889-5.59-5.527-10.979-5.353c-6.468,0.209-13.011,0.528-18.74-2.981c-2.463-1.508-2.563-3.001-5.467-3.321
				c-2.601-0.289-4.893-0.113-7.405,0.588c-5.988,1.67-8.589,8.081-14.06,9.984c-3.354,1.167-5.638-8.389-6.674-10.488
				c-1.264-2.567-3.414-3.981-6.086-4.706c-2.854-0.775-6.758-0.255-9.565,0.551c-4.937,1.42-12.041-0.041-16.536-2.402
				c-6.782-3.56,2.413-9.32,5.442-11.304c3.971-2.598,9.855-2.741,14.429-3.728c4.587-0.989,9.154-2.078,13.743-3.067
				c5.291-1.141,10.877-2.778,16.231-1.297c3.666,1.013,6.8,3.851,9.682,6.173c1.472,1.186,4.349,4.274,6.282,4.274
				c2.874,0,4.491,0.143,6.064-2.706c2.24-4.053,2.418-7.678,6.574-10.528c7.215-4.946,21.106-0.417,25.292,6.808
				c1.076,1.855,1.244,4.562,1.831,6.61c0.594,2.068,1.387,4.085,2.132,6.102c1.639,4.43,2.949,8.696,2.904,13.386h-0.537
				c-1.904,0-1.904,2.951,0,2.951h1.967c0.848,0,1.418-0.673,1.476-1.475c0.436-6.087-1.431-11.501-3.516-17.14
				c-1.921-5.187-2.275-10.947-6.09-15.163c-6.446-7.127-20.228-9.238-28.025-3.892c-4.547,3.119-3.971,7.504-7.125,11.586
				c-2.043,2.642-12.075-6.818-14.455-8.226c-3.869-2.287-8.134-2.657-12.492-2.032c-7.649,1.094-15.188,3.125-22.726,4.789
				c-6.314,1.393-12.174,1.817-17.533,5.673c-2.479,1.783-8.128,5.403-7.268,9.246c2.461,10.998,19.287,8.184,27.036,7.63
				c5.368-0.384,7.963,1.926,9.732,6.713c0.841,2.277,1.644,4.434,2.991,6.475c2.244,3.406,6.276,2.22,9.064,0.273
				c1.979-1.381,3.459-3.583,5.284-5.186c2.949-2.59,6.564-3.75,10.437-3.69c2.592,0.04,5.529,3.234,7.807,4.387
				c2.171,1.098,4.708,1.665,7.111,1.918c4.985,0.527,13.027-1.569,16.969,1.762c5.467,4.621,7.486,13.281,11.029,19.375
				c0.955,1.643,2.034,3.206,3.116,4.766c0.528,0.764,0.175,1.856,0.403,2.69c0.6,2.175,2.642,4.261,3.721,6.257
				c3.258,6.013,4.086,13.02,3.498,19.738c-0.545,6.228-3.012,12.202-6.31,17.445c-1.779,2.829-4.096,5.812-6.978,7.586
				c-3.762,2.317-9.786,0.444-13.812-0.489c-8.61-1.995-13.184-7.877-11.361-16.766c0.647-3.158,2.28-6.021,4.082-8.646
				c2.198-3.204,3.11-2.883,2.987-6.806c-0.308-9.732-10.789-16.783-19.053-19.57c-6.616-2.231-13.188,1.201-19.485-2.955
				c-3.959-2.612-9.729-2.631-13.883-0.504c-1.385,0.709-2.057,2.984-2.522,4.324c-0.589,1.7-0.612,4.119-2.954,4.718
				c-0.602,0.153-1.31,0.145-1.862,0.475c-5.232,3.14-9.128-9.82-9.128-13.161c0-4.152,1.252-5.935,3.934-8.927
				c1.535-1.711,2.891-3.449,3.946-5.5c1.877-3.656,0.659-6.901-2.728-8.882c-4.259-2.492-9.319-1.98-13.905-1.027
				c-3.963,0.824-7.707,1.967-11.806,1.38c-5.053-0.723-5.212-5.309-6.745-9.016c-1.469-3.552-6.284-6.063-9.995-6.277
				c-5.851-0.337-10.528,3.299-14.688,7.054c-3.883,3.503-6.535,8.106-7.959,13.098c-1.545,5.419,1.278,11.614,3.836,16.215
				c2.911,5.24,6.825,10.003,6.968,16.272c0.126,5.639,2.461,10.931,4.67,16.021c2.207,5.089,6.001,9.461,9.968,13.252
				c4.19,4.004,7.913,7.307,13.841,7.197c11.094-0.205,19.959-9.059,29.451-13.609c6.286-3.014,11.592-10.65,18.751-11.171
				c8.516-0.622,11.006,12.309,7.809,18.081c-2.461,4.439-8.406,5.534-12.93,6.751c-4.292,1.154-8.574,2.188-12.656,3.979
				c-3.348,1.468-6.086,3.79-8.149,6.785c-1.696,2.464-4.108,8.282-1.98,11.099c5.144,6.814,16.684-0.836,22.251-3.564
				c4.489-2.2,9.225-4.499,14.308-4.683c2.722-0.099,4.966,1.13,6.815,3.032c3.738,3.844,2.728,8.971,1.012,13.438
				c-1.177,3.071-5.894,10.189-3.262,13.484c2.893,3.623,2.797,7.516,8.357,7.843c4.128,0.243,7.749-1.049,10.501-4.178
				c4.632-5.265-0.493-14.938,7.258-17.911c5.48-2.103,12.89,5.354,18.494,5.971c2.272,0.25,4.618,0.235,6.762-0.67
				c3.75-1.585,6.691,4.727,7.511,7.208c1.961,5.93,1.064,14.627-2.82,19.596c-3.302,4.22-3.071,9.834-2.559,14.856
				c0.672,6.569,1.122,12.587-3.356,18.016c-3.504,4.251-9.24,6.019-14.344,7.418c-5.167,1.417-10.715,3.263-16.073,3.263
				c-11.304,0-6.966-15.826-4.955-22.011c1.591-4.889,2.069-6.573-1.871-10.014c-3.214-2.809-8.288-0.806-10.969,1.644
				c-4.092,3.741-5.103,6.979-6.223,12.308c-1.54,7.327-3.605,12.852-11.522,15.105c-7.317,2.083-15.305-3.427-21.325-6.86
				c-2.457-1.401-5.992-1.555-8.021-3.496c-2.921-2.794-3.761-6.909-3.596-10.773c0.29-6.814,5.36-11.843,10.142-16.046
				c3.454-3.038,6.944-4.068,11.38-4.769c2.9-0.459,5.778-1.244,8.045-3.223c5.903-5.152,4.253-15.891-3.56-18.27
				c-5.871-1.789-10.385,0.214-15.53,3.028c-6.595,3.607-17.867,8.248-22.441-0.282c-1.666-3.105-1.904-5.378-0.096-8.417
				c1.186-1.99,1.364-3.842,1.364-6.118c0-4.728-0.401-8.082-4.754-10.581c-7.488-4.297-16.765-3.402-21.858,3.646
				c-3.095,4.281-4.264,11.115-4.805,16.251c-0.301,2.847-0.179,5.082,0.733,7.796c1.372,4.083,4.496,10.202,0.026,13.474
				c-4.754,3.481-9.528,0.952-11.376-4.065c-1.164-3.159-0.464-7.883-0.348-11.201c0.273-7.696,1.801-15.264,4.259-22.546
				c1.239-3.671,2.898-7.178,4.699-10.601c1.199-2.281,2.88-4.481,2.958-7.184c0.196-6.76-3.102-10.836-8.154-14.881
				c-2.589-2.074-5.28-3.998-7.776-6.189c-2.85-2.5-2.861-5.981-3.82-9.392c-1.168-4.155-5.57-6.669-9.452-7.572
				c-10.595-2.463-21.724,7.856-28.385,14.792c-3.849,4.008-5.122,8.873-5.859,14.239c-0.925,6.737-1.458,13.681-0.049,20.391
				c1.15,5.48,5.077,10.416,8.701,14.498c3.831,4.316,10.671,6.069,11.461,12.694c0.935,7.845-8.346,10.145-13.895,11.054
				c-3.488,0.571-6.369,1.279-9.427-0.817c-3.512-2.408-3.923-9.019-4.759-12.807c-1.057-4.795-1.705-8.5-6.747-9.785
				c-3.699-0.942-7.191,1.165-9.786,3.562c-3.234,2.986-5.333,7.274-7.089,11.229c-2.734,6.159-4.964,12.59-7.454,18.854
				c-4.339,10.918-9.879,25.067-4.911,36.7c2.06,4.824,4.424,7.921,9.408,9.805c3.984,1.505,12.325,2.035,16.093-0.054
				c4.749-2.632,7.646-6.186,10.12-10.981c2.86-5.544,6.281-15.629,12.597-18.136c0.843-0.334,1.654-0.767,2.468-1.166
				c3.388-1.659,4.677,2.043,3.351,4.854c-0.842,1.787-1.097,3.487-0.923,5.431c0.277,3.101,2.885,5.267,5.612,6.318
				c3.135,1.208,7.643,2.903,11.004,2.575c3.778-0.369,6.172-4.292,6.172-7.75c0-3.058,1.874-6.468,3.748-8.792
				c3.218-3.994,8.127-2.217,11.402,0.528c6.485,5.437,2.528,15.644,2.146,22.756c-0.611,11.384,7.487,17.602,14.96,24.645
				c3.065,2.888,4.535,4.036,8.974,3.189c2.807-0.535,4.945-3.056,5.913-5.602c1.27-3.335,1.525-6.909,1.675-10.444
				c0.148-3.541-0.436-17.195,7.116-13.941c3.041,1.311,3.45,4.711,4.591,7.39c1.004,2.359,2.173,4.555,3.628,6.668
				c2.523,3.665,6.25,6.771,10.407,8.4c2.426,0.951,4.677,1.652,7.286,1.488c3.782-0.237,7.042-1.673,10.891-0.608
				c5.164,1.428,7.135,7.168,7.657,12.181c0.847-1.102,1.725-2.181,2.638-3.235c-0.598-2.81-1.725-5.429-3.539-7.58
				c-2.854-3.383-6.489-4.874-10.902-4.822c-3.725,0.045-6.91,1.653-10.75,0.628c-3.463-0.926-6.458-2.954-9-5.418
				c-4.009-3.887-5.281-8.941-7.486-13.838c-1.66-3.689-6.217-5.346-9.888-4.391c-3.308,0.858-5.154,6.571-5.373,9.609
				c-0.308,4.293-0.062,8.604-0.668,12.88c-0.621,4.359-2.419,8.025-7.325,7.959c-2.299-0.029-5-3.773-6.604-5.211
				c-2.242-2.009-4.47-3.999-6.497-6.23c-9.645-10.62,0.209-24.526-5.529-36.332c-1.739-3.577-7.256-5.784-10.887-5.99
				c-4.158-0.236-7.204,3.104-9.081,6.37c-1.045,1.821-1.726,3.899-2.401,5.874c-0.899,2.631,1.38,1.943-1.427,5.474
				c-1.57,1.976-3.649,1.044-5.383,0.61c-5.845-1.462-12.645-2.865-8.998-10.593c1.487-3.154,2.006-6.541-1.223-8.695
				c-2.845-1.896-8.905,1.797-11.038,3.387c-4.075,3.04-7.035,8.365-9.311,12.784c-3.27,6.348-6.338,15.536-14.935,15.642
				c-3.576,0.043-6.989,0.229-10.496-0.677c-4.503-1.164-7.556-6.27-8.058-10.654c-0.4-3.496-1.35-6.609-0.74-10.203
				c0.661-3.894,1.511-7.736,2.568-11.54c1.971-7.094,5.182-13.905,7.879-20.746c2.215-5.618,4.168-11.206,7.677-16.182
				c1.655-2.347,3.888-4.312,6.681-5.097c4.839-1.36,6.117,4.221,6.942,7.685c1.229,5.161,1.445,11.368,6.115,14.57
				c4.541,3.114,8.946,1.396,14.153,0.76c3.984-0.487,8.42-1.984,10.779-5.628c5.706-8.819,0.78-15.208-6.848-20.536
				c-6.352-4.437-10.281-12.019-11.167-19.548c-0.902-7.666-0.317-17.969,3.553-24.745c4.826-8.45,30.485-27.692,35.45-10.029
				c0.667,2.375,0.932,4.684,1.998,6.934c1.104,2.332,4.151,4.134,6.098,5.662c2.537,1.988,5.128,3.875,7.5,6.065
				c5.828,5.383,3.345,11.167,0.31,16.938c-6.183,11.754-8.641,25.002-8.637,38.188c0.001,5.154,0.537,9.458,4.63,12.97
				c3.662,3.142,7.894,1.833,11.624-0.251c3.662-2.046,4.706-7.085,3.541-10.904c-1.014-3.33-2.845-6.404-3.093-9.935
				c-0.281-3.998,1.149-8.414,2.359-12.182c1.423-4.424,3.344-8.278,7.922-10.077c2.148-0.844,5.408,0.136,7.609,0.531
				c2.428,0.437,4.79,1.162,6.618,2.886c3.379,3.185,0.851,10.036-0.905,13.304c-1.802,3.354,0.256,7.32,1.875,10.34
				c2.519,4.695,6.879,5.38,11.774,5.074c5.542-0.348,10.736-2.949,15.516-5.564c4.509-2.464,9.073-3.724,13.841-0.958
				c3.596,2.085,4.053,8.724,1.131,11.588c-3.002,2.94-7.075,3.068-10.961,3.683c-2.914,0.461-5.456,2.131-7.788,3.825
				c-4.399,3.2-8.406,7.413-10.739,12.354c-3.642,7.719-1.969,19.686,7.287,22.191c6.178,1.673,11.447,6.184,17.601,8.233
				c5.694,1.896,11.046,0.754,16.125-2.13c3.494-1.985,5.221-5.939,6.324-9.592c1.94-6.417,1.673-12.111,7.453-16.556
				c2.13-1.636,5.348-1.448,7.405,0.254c1.685,1.396,0.137,4.407-0.351,5.902c-0.994,3.041-1.88,6.059-2.409,9.219
				c-0.731,4.371-0.575,10.822,3.187,13.881c3.975,3.233,8.795,3.329,13.534,1.915c4.924-1.467,9.987-2.372,14.869-4.004
				c8.566-2.865,15-8.963,15.887-18.254c0.582-6.108-1.736-12.027-0.328-18.135c0.676-2.927,3.137-5.33,4.262-8.154
				c1.062-2.671,1.601-5.841,1.787-8.703C300.729,164.492,299.892,160.145,297.994,156.292z"/>
		</g>
		<g>
			<path fill="#FFFFFF" d="M34.786,299.5c4.297,1.744,7.413,5.314,11.832,6.849c3.269,1.137,6.813,0.105,9.792-1.298
				c3.438-1.624,6.289-4.67,8.77-7.456c1.546-1.736,2.824-3.711,4.488-5.344c4.262-4.184,7.416,0.471,8.971,3.549
				c1.708,3.383,2.109,7.514,2.949,11.169c0.959,4.175,2.859,6.795,5.878,9.813c1.684,1.684,3.755,2.817,5.177,4.8
				c1.66,2.313,2.167,5.467,2.533,8.216c0.575,4.32,0.583,8.659,1.528,12.933c0.41,1.857,3.254,1.069,2.845-0.785
				c-1.568-7.103,0.321-19.562-6.579-24.487c-5.043-3.598-7.766-7.625-9.055-13.599c-0.868-4.023-1.678-7.981-3.833-11.543
				c-1.253-2.071-4.267-5.145-6.96-4.824c-4.356,0.519-6.494,3.706-9.104,6.923c-3.273,4.034-7.186,7.905-12.338,9.253
				c-6.026,1.579-10.99-4.935-16.11-7.014C33.807,295.939,33.047,298.795,34.786,299.5L34.786,299.5z"/>
		</g>
		<g>
			<path fill="#FFFFFF" d="M27.25,334.412c-3.931,3.592-9.133,5.308-13.022,8.959c-4.068,3.821-4.991,9.386-5.114,14.707
				c-0.052,2.248,1.456,4.851,2.333,6.891c1.901,4.42,2.834,7.333,1.817,12.145c-1.229,5.807-1.854,10.105,1.961,15.074
				c6.143,7.995,16.898-2.081,20.243-7.793c1.817-3.101,1.655-6.312,5.622-7.773c2.756-1.015,5.274-2.599,7.705-4.221
				c6.395-4.26,12.488-11.171,19.652-4.071c4.717,4.677,6.289,12.408,8.349,18.47c2.413,7.099,4.181,14.907,2.732,22.395
				c-1.138,5.882-4.938,11.293-10.573,13.547c-7.393,2.956-15.542-1.369-20.896-6.465c-1.521-1.446-1.647-4.241-3.241-5.836
				c-1.003-1.002-3.282-1.315-4.586-1.417c-6.344-0.49-12.102,2.167-17.92,4.324c-1.248,0.467-4.454,0.684-5.128,2.019
				c-1.079,2.136-1.909,4.273-2.53,6.589c-1.332,4.968-0.92,10.269,0.292,15.203c2.408,9.809,9.921,19.347,20.068,21.444
				c5.053,1.045,9.526-1.221,13.879-3.484c3.003-1.562,5.958-3.222,8.939-4.828c4.84-2.608,9.119-3.181,14.526-3.204
				c5.447-0.024,9.644-1.398,13.41-5.375c4.882-5.156,7.125-11.995,14.488-14.369c8.311-2.68,14.742,4.501,20.252,9.411
				c5.077,4.522,10.38,8.734,16.155,12.335c6.033,3.761,11.126,8.283,13.083,15.435c1.904,6.958-2.441,13.865-7.083,18.599
				c-4.547,4.638-11.188,8.627-17.775,8.745c-6.615,0.117-18.466-5.312-21.004-11.723c-1.624-4.102-1.859-7.658-5.637-10.398
				c-3.161-2.29-7.743-2.053-11.346-1.354c-3.742,0.729-7.618,2.782-9.718,5.99c-1.234,1.887-1.92,5.601-2.059,7.826
				c-0.332,5.337-3.522,8.608-8.384,10.347c-10.639,3.807-17.287-11.997-25.264-16.465c-9.062-5.078-14.875,3.387-15.85,11.626
				c-1.346,11.37,5.711,19.705,11.334,28.384c2.701,4.166,0.543,10.111,3.805,14.302c2.69,3.458,6.567,5.083,10.767,5.941
				c3.663,0.747,7.896,0.902,11.58,0.203c4.398-0.834,5.493-4.283,7.749-7.604c1.39-2.041,2.285-4.177,3.095-6.499
				c0.649-1.862,5.119-14.626,8.642-7.16c1.971,4.178,5.465,7.622,10.221,8.478c2.91,0.523,5.222-2.147,6.138-4.521
				c0.644-1.67,0.485-3.754,0.458-5.495c-0.017-1.073-0.04-2.14-0.022-3.212c0.071-4.18,5.129-4.542,6.834-1.175
				c4.084,8.066,9.538,17.304,18.246,20.951c8.985,3.767,16.417-5.593,20.177-12.387c3.026-5.468,6.02-8.438,11.638-11.147
				c4.445-2.144,8.84-4.523,12.067-8.343c2.545-3.015,3.356-6.854,2.795-10.679c-1.171-8.002-3.594-15.784-3.834-23.908
				c-0.232-7.838,3.444-12.508,9.139-17.347c2.562-2.179,4.91-4.041,8.207-4.933c4.311-1.169,7.555,1.066,11.059,3.257
				c7.53,4.709,12.268,12.483,8.278,21.286c-2.407,5.31-7.171,9.385-10.567,14.052c-3.032,4.165-4.236,8.23-2.698,13.222
				c0.88,2.851,2.818,5.255,3.825,8.054c1.285,3.573,0.812,7.355-0.693,10.761c-2.329,5.258-7.35,9.236-11.832,12.592
				c-4.361,3.264-9.177,5.466-12.133,10.182c-2.991,4.771-5.82,11.044-7.294,16.484c-1.892,6.987-10.692,12.265-17.571,12.741
				c-9.256,0.642-13.121-8.584-15.976-15.691c-1.385-3.45-5.715-5.556-9.021-6.563c-9.763-2.979-12.066,7.531-16.231,13.652
				c-1.833,2.691-4.443,3.81-7.644,3.631c-3.406-0.191-5.9-3.275-8.952-4.452c-3.63-1.396-8.858-0.304-11.156,2.959
				c-6.542,9.286,1.706,20.912,6.281,29.047c4.581,8.143,11.25,23.032,23.485,18.052c1.979-0.806,3.614-2.31,5.15-3.75
				c1.804-1.69,2.27-4.038,3.939-5.896c1.407-1.566,1.234-3.472,2.66-5.092c2.435-2.767,6.433-2.938,9.819-2.856
				c4.918,0.116,9.82,0.152,13.374,3.708c3.551,3.552,13.174,1.314,17.56,1.51c10.664,0.467,3.223,13.034,0.119,16.876
				c-4.411,5.458-10.587,9.002-17.641,9.288c-6.027,0.244-11.547-3.206-17.569-0.905c-3.44,1.316-5.604,4.151-6.934,7.46
				c-1.522,3.788-1.2,8.318-0.718,12.264c0.471,3.854,1.073,9.057,2.914,12.528c2.967,5.602,6.591,10.139,11.002,14.511
				c3.787,3.753,8.466,2.835,13.282,3.503c4.792,0.663,5.721,5.795,6.618,9.667c0.508,2.197,1.752,3.592,3.414,5.061
				c3.756,3.32,9.405,4.004,14.17,3.401c10.753-1.364,11.443-16.784,10.127-25.257c-0.501-3.238-1.266-6.362-2.263-9.485
				c-0.587-1.84,0.97-4.119,1.67-5.834c2.084-5.108,4.28-11.108,9.949-13.092c6.408-2.242,10.994,9.878,12.207,14.206
				c1.938,6.921,0.933,13.411-0.234,20.339c-1.762,10.432-2.545,22.552,8.125,28.142c3.287,1.721,8.402,5.687,12.308,3.565
				c4.951-2.688,8.533-6.702,11.611-11.354c1.681-2.538,3.042-5.289,4.362-8.023c1.247-2.588,3.02-4.297,4.519-6.631
				c3.806-5.926,10.383-0.891,12.9,2.854c1.538,2.292,2.167,5.415,2.862,8.051c1.8,6.824,4.251,16.927,13.165,17.271
				c9.401,0.359,14.953-6.183,18.263-14.293c1.802-4.416,2.893-9.32,3.271-14.067c0.605-7.598-2.616-14.907-1.412-22.557
				c1.723-10.945,13.678-18.032,11.993-30.146c-0.928-6.668-4.04-13.021-5.398-19.641c-1.765-8.61,1.723-15.604,4.109-23.623
				c1.257-4.224,3.829-12.029,0.971-15.894c-4.838-6.543-6.38-14.888-4.91-22.79c1.219-6.556,4.645-12.273,5.58-19.014
				c0.926-6.661,0.416-13.445-0.369-20.092c-0.325-2.766-0.749-5.518-1.169-8.269c-0.214-1.405-2.873-2.8-3.96-3.589
				c-4.745-3.453-10.794-4.897-16.544-5.325c-4.199-0.312-7.503,4.468-9.726,7.527c-3.215,4.421-4.7,9.918-4.991,15.309
				c-0.25,4.639,1.03,9.596,2.97,13.763c2.958,6.353,6.923,11.05,5.2,18.509c-2.62,11.326-10.891,20.574-8.643,32.792
				c1.139,6.188,5.044,12.071,6.877,18.135c2.549,8.437,0.507,15.385-1.773,23.531c-0.938,3.352-2.077,5.926-4,8.823
				c-1.158,1.741-0.712,3.189-1.548,4.921c-3.131,6.482-9.333,10.658-16.094,12.583c-3.485,0.991-7.202,1.005-10.764,0.509
				c-3.881-0.54-5.825-5.584-7.317-8.583c-4.303-8.645-4.176-17.991,3.871-24.197c3.894-3.001,8.074-5.304,10.984-9.391
				c2.125-2.979,0.459-9.493-1.321-12.324c-4.553-7.237-15.001-5.714-21.383-2.584c-4.987,2.443-9.09,6.581-12.792,10.619
				c-2.048,2.232-3.796,4.741-6.29,6.511c-3.398,2.413-6.549-4.092-7.19-6.173c-1.408-4.566-0.472-9.812,0.989-14.234
				c1.07-3.234,2.797-5.753,5.761-7.518c3.124-1.856,7.002-0.95,10.435-1.167c8.585-0.548,18.44-3.641,23.815-10.797
				c5.133-6.837,7.031-18.848,1.542-25.896c-3.01-3.868-5.729-6.156-10.715-6.748c-5.479-0.649-11.204,2.05-16.473,3.112
				c-0.354,0.073-1.418-1.869-1.558-2.078c-1.539-2.307-1.599-5.738-1.193-8.359c0.617-3.988,5.704-5.832,8.94-6.852
				c7.062-2.22,14.6,0.039,21.077,2.625c5.698,2.276,9.054-4.494,9.378-9.16c0.419-6.029-2.134-11.144-7.106-14.542
				c-3.298-2.254-8.306-2.811-11.956-4.565c-1.237-0.597-6.57-1.219-3.696-4.705c1.364-1.654,2.513-3.463,3.602-5.305
				c3.781-6.403,5.306-14.21,1.608-20.937c-0.916-1.668-3.465-0.18-2.547,1.488c3.804,6.92,0.732,14.452-3.215,20.556
				c-2.414,3.732-5.114,6.06-1.045,9.729c3.173,2.866,9.332,4.23,13.345,5.379c7.792,2.227,9.867,11.292,6.354,17.859
				c-2.009,3.758-7.818-0.649-10.404-1.442c-2.423-0.741-5.663-0.403-8.188-0.57c-5.544-0.367-11.038,1.051-15.497,4.418
				c-3.268,2.469-4.394,6.583-3.677,10.54c0.399,2.216,1.862,9.493,5.304,8.962c5.706-0.877,11.102-3.351,16.946-3.202
				c4.009,0.104,6.305,3.099,8.629,5.886c2.747,3.292,2.065,7.646,2.065,11.633c0,13.221-14.313,19.031-25.336,20.022
				c-4.841,0.435-8.666-0.366-13.057,2.245c-3.75,2.231-5.458,6.651-6.612,10.629c-1.892,6.534-2.08,17.038,4.578,21.143
				c3.481,2.143,5.76,1.502,8.804-1.166c5.081-4.451,8.587-9.999,14.3-13.89c4.826-3.284,10.201-4.735,15.825-2.892
				c3.508,1.15,5.342,4.109,5.496,7.671c0.23,5.323-2.626,7.709-6.68,10.571c-3.96,2.795-7.703,5.373-9.902,9.836
				c-2.768,5.614-1.919,11.625,0.142,17.31c1.606,4.434,3.806,9.056,7.6,11.957c4.03,3.083,10.758,1.964,15.307,0.914
				c4.808-1.107,9.146-3.771,12.755-7.062c1.781-1.622,3.195-3.628,4.453-5.666c1.256-2.04,1.056-4.137,2.198-6.133
				c6.014-10.524,9.28-22.621,6.07-34.628c-1.677-6.268-5.219-11.896-6.877-18.133c-1.899-7.147,2.037-14.729,4.849-21.055
				c2.102-4.724,4.21-9.635,4.532-14.853c0.303-4.979-2.732-9.706-5.051-13.853c-3.137-5.604-4.39-11.993-3.345-18.36
				c0.953-5.806,5.875-16.449,12.927-15.93c3.821,0.284,7.579,1.586,10.977,3.287c3.823,1.912,5.213,3.886,5.809,8.025
				c1.129,7.86,1.713,15.845,0.617,23.743c-0.922,6.649-4.428,12.404-5.648,18.959c-1.108,5.962-0.035,12.103,2.248,17.646
				c0.982,2.382,4.021,5.532,3.965,8.137c-0.084,3.845-0.974,7.633-1.98,11.322c-1.855,6.811-4.91,12.67-4.756,19.882
				c0.134,6.305,2.455,12.499,4.337,18.435c2.545,8.021,1.322,13.717-2.943,20.822c-2.791,4.647-6.026,8.933-7.34,14.271
				c-1.6,6.494,0.694,13.589,1.258,20.062c0.88,10.104-4.263,27.227-16.002,28.687c-11.887,1.479-12.114-15.416-15.512-22.892
				c-1.816-3.991-5.7-6.886-9.926-7.771c-5.094-1.071-7.972,3.139-10.888,6.413c-1.644,1.845-2.455,4.728-3.556,6.922
				c-1.356,2.695-2.938,5.256-4.684,7.715c-2.052,2.891-4.668,5.302-7.657,7.188c-3.206,2.023-10.264-2.641-13.1-4.332
				c-6.879-4.108-5.448-15.299-4.464-21.869c0.897-5.976,2.152-11.549,1.535-17.615c-0.49-4.844-1.938-9.49-4.236-13.771
				c-1.817-3.388-5.755-8.968-9.987-8.778c-8.858,0.391-12.292,9.785-15.104,16.684c-0.415,1.018-2.217,3.556-1.783,4.799
				c1.083,3.103,1.944,6.217,2.559,9.445c1.41,7.415,1.388,22.044-8.414,23.286c-3.452,0.438-6.933-0.485-9.918-2.174
				c-3.742-2.117-3.723-6.644-5.137-10.194c-1.708-4.292-5.453-5.835-9.755-6.125c-3.435-0.23-6.422,0.034-9.209-2.447
				c-2.248-2.002-4.167-4.089-5.939-6.534c-3.775-5.204-5.623-10.284-6.804-16.521c-0.915-4.827-1.282-10.294,0.958-14.816
				c3.815-7.706,13.188-3.54,19.593-2.982c10.151,0.884,20.265-6.575,24.683-15.322c0.941-1.861,2.394-3.107,2.619-5.221
				c0.219-2.058,0.067-3.905-0.503-5.889c-1.316-4.577-5.473-5.495-9.635-5.679c-4.05-0.178-7.946,0.489-12-0.159
				c-1.431-0.23-3.315-2.262-4.708-3.021c-3.951-2.159-9.213-1.883-13.643-1.988c-4.061-0.098-7.694,1.029-10.718,3.75
				c-1.973,1.774-1.933,4.281-3.628,6.17c-2.246,2.501-2.937,5.148-5.91,7.253c-6.324,4.474-14.633-3.253-17.092-8.602
				c-3.06-6.654-7.178-12.765-10.261-19.415c-3.24-6.987-2.759-17.889,7.834-15.793c2.742,0.544,5.162,3.429,7.941,4.35
				c2.014,0.666,4.59,0.28,6.557-0.359c9.191-2.985,7.808-20.029,19.428-16.485c6.463,1.971,7.645,9.411,10.815,14.509
				c2.897,4.657,7.133,6.896,12.504,7.49c4.917,0.544,9.837-1.911,13.706-4.666c2.157-1.535,4.005-3.448,5.748-5.427
				c2.246-2.551,2.494-6.007,3.948-9.021c3.076-6.361,4.665-12.634,10.833-16.757c4.63-3.093,9.158-6.344,13.132-10.26
				c7.091-6.985,9.15-15.794,4.334-24.653c-2.363-4.349-3.313-7.749-0.844-12.407c1.418-2.674,3.504-4.98,5.46-7.268
				c3.431-4.014,7.102-8.251,8.045-13.602c2.23-12.653-7.645-19.518-17.688-24.615c-3.043-1.546-8.641,0.565-11.318,2.117
				c-4.407,2.549-8.86,7.2-11.814,11.303c-7.437,10.322-0.056,26.9,1.243,38.016c0.709,6.078-5.855,10.212-10.341,12.671
				c-4.601,2.521-9.163,3.972-12.519,8.218c-3.143,3.977-4.726,8.884-8.227,12.623c-5.342,5.702-11.357,5.793-17.131,0.824
				c-4.122-3.546-7.08-8.438-9.734-13.118c-2.118-3.732-3.136-6.621-7.811-7.093c-3.18-0.318-5.689,2.179-6.127,5.124
				c-0.734,4.95,1.217,15.309-7.33,9.668c-3.321-2.191-4.014-8.027-8.695-8.118c-4.684-0.09-6.596,3.083-8.124,7.057
				c-1.115,2.899-1.822,5.842-3.336,8.592c-0.875,1.59-3.315,2.833-3.391,4.863c-0.186,5.012-14.304,2.19-16.628,1.479
				c-6.99-2.136-8.075-8.798-8.471-15.251c-0.107-1.752-1.467-3.457-2.458-4.789c-1.983-2.666-3.116-4.884-4.628-7.759
				c-0.984-1.867-2.24-2.872-2.976-5.155c-1.262-3.925-2.068-7.863-1.951-12.001c0.101-3.587,2.519-9.993,6.837-10.184
				c3.399-0.149,6.303,1.954,8.667,4.128c5.717,5.259,11.627,16.103,20.787,14.353c4.135-0.789,8.625-2.694,10.961-6.43
				c3.993-6.378,1.294-14.472,9.814-17.76c5.179-2,12.131-1.305,14.013,4.679c0.778,2.479,1.439,5.046,2.713,7.324
				c1.159,2.074,3.396,3.064,5.255,4.362c4.503,3.141,10.111,6.155,15.702,6.524c5.904,0.393,10.759-1.74,15.661-4.866
				c8.2-5.229,15.013-14.312,13.902-24.431c-1.332-12.121-13.163-17.303-21.705-23.621c-8.776-6.492-17.684-20.185-30.249-17.599
				c-5.032,1.035-8.825,3.984-11.843,8.076c-1.809,2.45-3.445,5.02-5.412,7.354c-3.446,4.086-8.045,4.495-13.093,4.519
				c-6.867,0.03-11.25,1.963-17.219,5.209c-7.62,4.143-14.314,8.727-23.011,4.627c-5.623-2.65-9.645-9.497-11.767-15.05
				c-2.307-6.033-2.31-12.635-0.339-18.735c1.175-3.639,4.518-3.858,7.747-5.091c2.907-1.11,5.794-2.156,8.829-2.866
				c1.831-0.426,8.626-1.381,8.749,1.908c0.079,2.144,2.061,3.896,3.481,5.25c7.463,7.101,18.401,10.001,27.245,3.751
				c8.323-5.88,9.371-16.878,8.146-26.115c-0.907-6.847-3.638-13.393-5.903-19.867c-1.667-4.765-3.845-9.212-7.767-12.525
				c-9.497-8.029-19.301,4.618-27.283,8.618c-2.421,1.212-4.105,1.365-5.75,3.688c-1.415,2-1.867,4.755-3.354,6.62
				c-1.691,2.118-3.441,4.136-5.451,5.961c-5.429,4.927-12.211,0.824-11.858-6.231c0.183-3.635,2.747-8.18,1.847-11.834
				c-1.224-4.972-4.947-9.841-4.827-15.015c0.274-11.878,9.992-13.324,17.234-19.943C30.744,335.21,28.651,333.13,27.25,334.412
				L27.25,334.412z"/>
		</g>
	</g>
</g>
</svg>
