<?xml version="1.0" encoding="utf-8"?>
<!-- Generator: Adobe Illustrator 16.0.0, SVG Export Plug-In . SVG Version: 6.00 Build 0)  -->
<svg version="1.2" baseProfile="tiny" id="Calque_1"
	 xmlns="http://www.w3.org/2000/svg" xmlns:xlink="http://www.w3.org/1999/xlink" x="0px" y="0px" width="583.235px"
	 height="679.051px" viewBox="0 0 583.235 679.051" xml:space="preserve">
<g>
	<g>
		<g>
			<path fill="#FFFFFF" d="M271.102,38.546c0.622,0,1.243,0,1.865,0c0.803,0,1.344-0.638,1.398-1.398
				c0.414-5.77-1.355-10.901-3.333-16.246c-1.817-4.914-2.154-10.374-5.769-14.37c-6.111-6.756-19.175-8.757-26.566-3.689
				c-4.062,2.785-3.549,6.762-6.568,10.215c-2.975,3.402-9.05-3.771-11.935-5.815c-9.493-6.726-21.863-1.642-32.075,0.671
				c-5.783,1.31-12.388,1.609-17.604,4.541c-3.655,2.055-8.178,5.254-9.165,9.583c-0.688,3.013,3.344,5.854,5.591,6.761
				c5.084,2.052,10.859,2.788,16.245,1.761c4.14-0.79,9.056-1.567,11.677,2.652c1.319,2.124,1.896,4.812,2.887,7.111
				c1.426,3.308,4.417,5.487,7.972,3.613c4.991-2.632,7.353-7.677,13.196-9.308c3.599-1.004,6.078,0.649,8.803,2.655
				c2.109,1.553,4.812,2.306,7.331,2.815c4.68,0.948,9.598,0.437,14.328,0.323c6.494-0.156,10.241,12.901,12.488,17.418
				c3.082,6.196,7.338,12.128,9.864,18.544c2.384,6.053,2.573,12.796,1.402,19.127c-1.096,5.924-3.88,11.455-7.693,16.081
				c-2.673,3.242-5.87,5.751-10.389,5.102c-3.428-0.493-6.802-1.112-10.108-2.156c-8.193-2.587-9.736-10.268-7.223-17.649
				c1.842-5.409,7.032-7.6,5.71-13.718c-1.794-8.299-11.29-16.335-19.733-17.285c-3.019-0.34-6.008-0.118-9.037-0.099
				c-3.66,0.021-5.881-1.837-9.062-3.091c-3.113-1.226-9.699-2.607-12.154,0.783c-1.578,2.179-1.3,4.965-3.269,6.934
				c-2.72,2.72-5.659,2.419-8.17-0.225c-1.797-1.892-2.677-4.696-3.329-7.147c-1.157-4.354-0.273-7.813,2.579-11.075
				c2.529-2.893,5.823-6.205,5.339-10.368c-0.454-3.9-5.267-5.015-8.353-5.799c-5.296-1.346-11.522,1.872-16.781,2.177
				c-4.767,0.276-7.035-2.528-8.237-6.677c-0.457-1.577-1.198-3.69-2.618-4.683c-3.604-2.521-8.542-4.782-12.911-2.629
				c-4.998,2.462-9.189,5.984-12.516,10.444c-3.307,4.436-4.217,9.608-4.072,15.023c0.064,2.425,1.791,4.386,2.922,6.401
				c1.896,3.377,3.412,6.958,4.8,10.567c4.144,10.775,5.325,22.612,13.461,31.312c3.628,3.878,8.147,6.583,12.626,9.331
				c3.673,2.254,8.804,0.43,12.343-1.078c6.096-2.597,11.873-6.683,17.627-9.972c2.893-1.653,5.623-3.39,8.278-5.406
				c3.42-2.599,6.79-6.038,11.276-6.366c7.551-0.55,9.016,9.065,8.391,14.437c-0.731,6.291-8.29,7.77-13.246,9.103
				c-7.328,1.97-15.146,3.564-19.72,10.204c-1.929,2.801-3.157,6.894-2.02,10.187c1.487,4.304,7.7,2.766,10.65,1.69
				c8.58-3.128,33.847-18.993,32.641,1.125c-0.324,5.401-3.521,10.217-4.906,15.335c-0.998,3.684,3.055,8.111,5.994,9.573
				c3.086,1.536,6.763,0.857,9.686-0.645c3.965-2.038,4.628-7.134,5.124-11.066c0.605-4.81,2.656-11.382,9.494-8.276
				c2.686,1.22,5.222,2.732,7.926,3.918c2.01,0.882,4.036,1.328,6.2,1.565c2.867,0.316,5.389-1.676,8.068-0.104
				c4.769,2.798,5.139,10.187,4.828,14.996c-0.413,6.389-5.693,10.782-6.089,17.059c-0.364,5.782,1.443,11.508,0.427,17.265
				c-1.06,6.001-6.389,9.839-11.655,11.924c-4.172,1.652-8.662,2.484-12.997,3.59c-3.068,0.782-7.037,2.216-10.107,0.665
				c-5.444-2.75-6.244-8.503-4.575-13.881c1.255-4.043,5.504-9.656,2.948-13.805c-2.072-3.362-6.233-3.907-9.636-2.74
				c-8.877,3.043-8.978,14.678-12.141,21.878c-6.586,14.993-24.246,0.131-33.816-2.46c-3.381-0.916-4.84-5.947-5.164-8.917
				c-0.329-3.019,0.588-6.064,1.86-8.76c3.198-6.777,10.935-12.405,18.181-13.329c8.26-1.053,14.458-8.227,9.923-16.413
				c-1.95-3.52-6.647-4.822-10.35-4.805c-6.137,0.027-11.858,5.248-17.556,7.031c-3.645,1.141-8.762,1.815-11.731-1.064
				c-1.621-1.572-3.462-5.456-3.146-7.797c0.301-2.226,2.324-3.954,2.642-6.312c0.354-2.614,0.383-5.779-0.572-8.281
				c-2.277-5.972-13.632-7.656-18.793-5.628c-4.187,1.646-6.274,5.582-7.743,9.534c-1.921,5.167-3.642,11.464-2.396,16.962
				c0.846,3.736,2.518,6.3,2.518,10.35c0,5.283-7.203,6.596-10.583,3.695c-4.876-4.184-3.159-15.985-2.549-21.686
				c0.743-6.937,2.97-13.674,6.017-19.917c2.366-4.848,6.408-8.928,5.105-14.747c-1.25-5.585-5.464-8.338-9.757-11.775
				c-3.205-2.565-6.552-4.972-7.745-9.13c-0.747-2.6-1.051-5.079-2.623-7.339c-5.238-7.534-15.625-3.639-21.923-0.489
				c-2.512,1.256-4.797,4.089-7.192,5.725c-1.96,1.338-3.653,2.823-5.234,4.603c-3.172,3.57-4.944,8.157-5.908,12.769
				c-1.903,9.102-0.656,20.801,4.425,28.647c2.906,4.487,6.563,6.976,10.572,10.277c6.831,5.625,4.663,13.382-3.109,16.562
				c-3.275,1.34-6.796,1.783-10.307,1.73c-4.447-0.067-6.353-3.844-7.383-7.678c-1.113-4.145-1.106-12.205-5.345-14.462
				c-7.653-4.075-13.494,4.547-16.598,10.224c-5.609,10.257-10.411,21.988-12.982,33.384c-1.293,5.732-3.119,10.35-2.182,16.34
				c0.808,5.166,3.22,10.795,7.53,13.882c3.926,2.812,9.552,2.925,14.109,2.24c6.042-0.907,8.697-4.062,12.115-9.044
				c3.442-5.018,5.65-10.69,9.501-15.437c1.642-2.024,3.42-3.922,5.59-5.385c1.289-0.869,6.442-2.432,4.996,2.394
				c-0.553,1.846-1.5,3.273-1.812,5.183c-1.223,7.47,7.155,10.159,13.008,10.205c9.413,0.075,8.174-7.524,11.14-14.275
				c1.785-4.063,6.752-3.534,9.945-1.925c3.569,1.798,4.995,5.865,5.332,9.566c0.575,6.312-2.444,12.051-1.019,18.445
				c1.049,4.709,3.023,8.268,6.187,11.921c1.802,2.081,3.895,3.917,5.958,5.731c1.748,1.537,3.414,3.609,5.763,4.028
				c7.014,1.249,10.273-4.229,11.143-10.335c0.49-3.445,0.429-6.948,0.532-10.418c0.076-2.571,0.958-4.35,2.109-6.654
				c2.078-4.156,6.11-0.188,7.221,1.472c0.778,1.164,1.067,3.088,1.628,4.404c3.354,7.876,10.799,16.286,20.211,15.694
				c3.585-0.226,6.674-1.585,10.322-0.577c2.784,0.77,4.582,3.227,5.807,5.657c2.472,4.906,1.661,10.848,0.503,15.96
				c-1.828,8.068-6.888,12.84-15.2,13.73c-7.699,0.825-12.825-3.809-18.786-7.676c-7.233-4.692-18.426,0.192-23.806,5.54
				c-2.478,2.463-5.656,7.173-5.656,10.818c0,2.69-0.078,5.387,0.106,8.07c0.195,2.841,1.766,5.54,2.741,8.151
				c3.194,8.558,13.846,10.223,21.386,12.726c5.536,1.838,8.495,6.41,8.455,12.156c-0.056,8.132-7.411,12.378-14.694,13.053
				c-6.308,0.584-14.478-1.514-19.335-5.732c-2-1.737-2.293-5.627-3.554-7.951c-1.004-1.85-3.305-3.25-5.215-3.944
				c-3.38-1.229-6.504-2.058-9.316-4.433c-2.169-1.833-3.756-4.256-5.192-6.672c-2.831-4.766-4.688-10.04-7.522-14.811
				c-1.922-3.234-2.354-6.223-2.354-9.922c0-4.757,3.015-5.952,6.455-7.798c4.25-2.281,8.285-5.031,11.338-8.808
				c6.057-7.494,4.06-17.092-2.53-23.435c-4.033-3.881-9.002-6.707-14.062-9.007c-2.32-1.055-4.723-1.925-7.13-2.756
				c-2.464-0.852-5.902-2.496-8.522-2.496c-3.434,0-7.989,3.732-10.465,5.838c-2.998,2.549-6.002,7.327-5.851,11.41
				c0.244,6.606-0.87,13.01-8.132,15.089c-6.126,1.754-12.127-2.634-14.79-7.725c-1.61-3.079-2.186-8.343-6.074-9.645
				c-3.117-1.043-6.178-2.129-9.085-3.677c-2.906-1.547-4.628-4.336-7.479-5.855c-7.905-4.209-15.972,8.882-15.972,15.301
				c0,4.479,0.959,6.404,5.138,8.192c2.184,0.934,4.593,1.897,5.991,3.922c2.329,3.373-5.239,7.208-7.007,8.668
				c-3.851,3.179-5.785,7.002-6.299,11.949c-0.542,5.22-0.346,12.531,1.982,17.322c2.522,5.192,6.878,9.509,10.86,13.643
				c3.49,3.623,6.801,3.349,11.383,2.379c3.769-0.797,6.675-1.766,8.457,2.367c0.802,1.862,1.774,3.493,3.189,4.941
				c0.973,0.997,3.347,1.206,4.031,2.184c1.326,1.894,3.271,2.377,5.487,2.816c2.001,0.396,4.09-0.148,4.839-2.165
				c0.715-1.925,2.044-2.371,3.553-3.359c3.318-2.174,6.233,0.811,7.84,3.364c4.517,7.173,3.149,16.335,8.007,23.281
				c3.753,5.366,10.351,6.145,16.117,4.052c10.9-3.957,21.007-6.377,32.477-3.263c9.81,2.663,18.864,7.654,28.101,11.778
				c4.057,1.811,9.782,3.802,8.049,9.402c-1.114,3.598-4.055,6.257-7.195,8.103c-5.907,3.472-13.704,3.72-20.176,1.991
				c-4.534-1.211-8.778-3.41-13.352-4.604c-4.037-1.054-8.025-1.319-12.181-1.327c-0.66,0-1.133,0.437-1.348,1.027
				c-3.664,10.058,5.098,16.885,13.444,20.372c14.43,6.029,30.719-1.685,45.002,5.447c1.608,0.803,3.026-1.609,1.412-2.415
				c-11.126-5.556-23.191-3.151-35.129-3.5c-9.492-0.277-26.492-6.915-22.032-19.161c-0.449,0.342-0.899,0.685-1.349,1.027
				c6.763,0.012,12.879,1.374,19.207,3.713c4.767,1.763,8.913,3.177,14.034,3.238c7.742,0.092,15.678-2.857,20.365-9.181
				c2.007-2.707,3.49-6.793,2.248-10.045c-1.46-3.826-7.763-5.689-11.047-7.156c-11.639-5.196-23.173-11.728-36.055-13.131
				c-6.298-0.687-12.759,0.913-18.724,2.749c-7.305,2.249-14.712,6.247-20.188-1.582c-5.515-7.885-2-22.007-12.204-27.047
				c-3.155-1.559-6.932,0-9.619,1.76c-2.098,1.375-0.504,4.496-4.748,3.655c-2.695-0.533-1.921-1.026-3.123-2.228
				c-0.713-0.713-2.424-0.972-3.174-1.346c-3.576-1.781-2.728-8.273-6.559-9.304c-1.882-0.507-3.726-0.101-5.613,0.242
				c-4.174,0.757-6.82,1.845-10.711-0.626c-2.779-1.765-4.888-5.061-7.032-7.51c-2.993-3.419-5.101-6.858-5.417-11.51
				c-0.549-8.055-1.243-15.571,5.952-20.947c2.607-1.948,7.249-4.3,7.354-8.093c0.105-3.825-2.621-5.868-5.779-7.458
				c-3.108-1.564-5.661-2.18-5.661-6.631c0-3.52,2.455-7.283,4.613-9.919c3.463-4.229,7.265-3.251,10.86,0.208
				c2.146,2.065,4.959,3.384,7.664,4.531c2.879,1.22,6.275,1.715,7.926,4.711c1.194,2.168,1.77,4.675,2.925,6.884
				c2.008,3.839,5.246,5.956,9.239,7.473c8.086,3.072,16.181-2.368,18.324-10.263c0.708-2.611-0.27-5.392,0.125-8.035
				c0.442-2.964,2.049-5.538,4.042-7.701c1.822-1.977,4.227-3.339,6.594-4.547c3.542-1.806,7.042-0.031,10.518,1.115
				c11.205,3.693,30.536,13.166,24.035,27.949c-2.094,4.762-6.944,7.863-11.264,10.358c-3.496,2.02-8.191,3.089-8.735,7.793
				c-0.577,4.98-0.181,10.036,2.576,14.34c2.984,4.66,4.836,9.981,7.522,14.811c2.226,4.002,5.237,7.319,9.081,9.801
				c2.344,1.513,5.48,1.858,7.998,3.015c3.683,1.692,3.809,6.208,5.529,9.378c1.898,3.497,8.043,5.895,11.607,6.752
				c5.728,1.379,11.481,1.693,17.152-0.061c8.273-2.559,12.405-10.828,10.703-19.072c-1.904-9.223-11.447-10.657-18.945-13.163
				c-5.897-1.971-9.234-5.063-11.65-10.762c-2.91-6.864-2.305-14.776,2.388-20.667c3.542-4.446,9.092-6.776,14.65-7.136
				c3.344-0.216,5.97,0.746,8.727,2.535c2.041,1.324,3.965,3.672,6.248,4.569c10.459,4.109,22.722,2.372,27.918-8.451
				c3.514-7.318,4.214-16.954,0.517-24.292c-1.645-3.265-4.668-5.362-8.112-6.314c-2.342-0.647-4.81-0.16-7.137,0.271
				c-4.598,0.853-7.944,0.02-11.838-2.35c-4.834-2.941-7.695-8.286-9.502-13.454c-1.119-3.199-3.685-6.924-7.571-6.918
				c-8.936,0.014-7.776,12.316-8.11,18.411c-0.194,3.545-0.615,8.237-3.976,10.258c-4.935,2.969-11.504-5.397-14.414-8.54
				c-4.938-5.336-6.603-11.866-5.482-18.98c0.798-5.067,2.226-10.635-0.271-15.496c-3.386-6.593-13.486-11.112-18.639-3.776
				c-2.097,2.986-2.202,7.221-3.313,10.604c-1.604,4.879-9.764,3.275-13.236,1.497c-6.583-3.372,0.5-8.798-0.636-13.364
				c-0.82-3.294-4.458-4.15-7.432-3.437c-3.765,0.904-6.764,4.914-9.044,7.725c-3.732,4.601-6.01,10.126-9.207,15.101
				c-2.194,3.413-4.605,6.882-8.919,7.53c-4.192,0.63-8.162,0.749-12.142-0.975c-4.084-1.768-5.179-5.758-6.462-9.609
				c-1.57-4.709-1.663-8.683-0.349-13.49c3.421-12.521,7.645-24.817,13.581-36.426c2.105-4.118,4.8-9.326,9.558-10.715
				c6.649-1.941,7.623,13.429,9.157,17.539c3.515,9.418,19.086,5.32,25.014,0.98c7.56-5.535,4.042-14.514-1.771-19.3
				c-4.695-3.867-10.142-7.69-11.878-13.96c-1.53-5.524-2.261-11.232-2.051-16.959c0.215-5.83,2.071-11.518,5.718-16.094
				c1.939-2.434,4.561-4.057,7.066-5.834c3.022-2.145,5.634-4.475,8.99-6.153c5.005-2.503,13.055-1.938,15.194,4.059
				c0.848,2.378,0.886,5.091,2.148,7.326c1.708,3.023,4.696,5.079,7.365,7.233c2.612,2.109,6.267,4.335,7.994,7.284
				c2.38,4.062,0.787,7.99-1.431,11.588c-3.368,5.466-5.74,11.513-7.34,17.712c-1.437,5.562-1.897,11.363-1.863,17.089
				c0.031,5.263,0.198,10.37,3.824,14.452c2.247,2.529,6.632,3.516,9.646,1.843c1.54-0.854,3.269-1.631,4.341-3.096
				c1.892-2.584,1.37-4.998,1.37-8.149c0-2.342-1.878-5.162-2.618-7.364c-1.095-3.261,0.125-7.713,0.936-10.91
				c0.908-3.581,2.125-7.413,4.622-10.191c2.83-3.149,6.378-2.686,10.053-2.097c2.156,0.346,4.233,0.876,6.138,1.97
				c3.363,1.93,2.958,8.641,1.402,11.537c-2.25,4.187-1.86,6.474,0.09,10.802c4.592,10.194,17.76,5.117,25.099,1.271
				c4.411-2.312,8.318-4.411,13.407-2.226c3.414,1.466,4.206,5.011,3.616,8.291c-0.875,4.863-5.789,5.95-9.935,6.479
				c-3.09,0.394-5.541,1.387-8.138,3.046c-7.438,4.751-14.717,13.799-12.924,23.199c0.588,3.084,2.383,8.208,5.639,9.497
				c3.406,1.349,6.509,2.542,9.735,4.379c2.951,1.68,6.057,3.023,9.284,4.064c8.445,2.724,16.545,0.526,19.913-8
				c1.614-4.086,2.531-8.393,3.97-12.539c1.183-3.407,3.689-5.998,7.117-7.173c2.416-0.828,6.212,1.239,5.502,4.184
				c-0.513,2.129-1.457,4.188-2.267,6.215c-2.149,5.385-3.032,9.571-0.615,14.945c2.528,5.623,7.524,6.094,12.996,6.094
				c1.734,0,3.963-1.116,5.662-1.55c2.193-0.56,4.398-1.069,6.588-1.642c4.346-1.137,8.592-2.676,12.233-5.359
				c8.773-6.465,6.722-16.102,6.288-25.53c-0.184-3.98,1.188-6.17,3.068-9.498c1.321-2.339,1.932-4.717,2.536-7.326
				c1.045-4.517,0.814-9.145-0.647-13.563c-1.15-3.477-3.569-6.252-6.907-7.727c-2.567-1.133-3.066,0.276-6.154,0.69
				c-4.013,0.538-8.109-1.992-11.512-3.77c-4.317-2.257-7.849-3.262-12.307-0.653c-3.853,2.255-3.749,8.423-4.319,12.224
				c-0.559,3.72-2.3,6.472-6.089,7.435c-4.415,1.122-9.867-3.238-8.535-8.155c1.363-5.035,3.947-9.402,4.627-14.681
				c0.545-4.228-1.078-8.009-4.055-10.92c-3.513-3.436-8.612-2.203-12.879-1.157c-5.458,1.337-10.516,4.247-15.468,6.797
				c-2.784,1.434-12.525,4.984-11.139-1.734c0.581-2.814,2.077-5.22,4.128-7.186c6.143-5.888,16.542-5.619,23.996-9.021
				c7.845-3.58,8.878-12.602,5.633-19.973c-1.245-2.828-5.019-6.396-8.313-6.362c-6.453,0.067-10.44,3.993-15.358,7.728
				c-5.386,4.091-11.687,7.115-17.548,10.464c-2.975,1.7-5.857,3.54-9.082,4.732c-4.249,1.572-7.296,0.461-10.975-1.765
				c-5.431-3.286-10.191-7.707-13.399-13.205c-3.307-5.665-4.363-13.262-6.442-19.479c-1.782-5.33-3.943-10.507-6.591-15.465
				c-2.228-4.171-3.175-8.028-1.84-12.707c1.09-3.822,3.659-7.066,6.431-9.806c2.669-2.638,6.605-5.537,10.439-5.954
				c4.569-0.497,8.216,3.182,9.367,7.154c1.378,4.757,3.735,6.825,8.755,7.543c5.614,0.804,11.201-2.076,16.781-2.232
				c1.692-0.047,3.89,0.74,5.431,1.402c3.708,1.593,1.524,4.895,0.372,6.697c-1.502,2.349-3.715,4.246-5.356,6.511
				c-4.336,5.985,0.126,18.54,6.527,21.604c2.763,1.322,6.25,0.286,8.317-1.782c1.225-1.225,2.061-2.263,2.673-3.897
				c0.842-2.247-0.213-3.375,3.299-4.529c2.67-0.877,5.715,0.233,8.087,1.399c2.115,1.039,3.436,2.171,5.92,2.48
				c3.02,0.375,6.003,0.163,9.036,0.13c6.609-0.073,14.143,4.967,17.936,10.225c1.301,1.803,3.619,6.737,1.678,8.785
				c-1.635,1.727-2.914,3.782-4.041,5.86c-2.312,4.266-3.047,9.125-2.153,13.862c0.898,4.761,4.224,7.564,8.439,9.414
				c4.174,1.833,10.83,3.708,15.407,2.928c9.737-1.659,15.361-13.34,17.589-21.964c2.896-11.21-0.238-20.961-5.716-30.662
				c-3.352-5.936-6.379-12.05-9.288-18.213c-1.952-4.135-4.64-9.671-9.574-11.028c-1.909-0.525-4.636,0.054-6.607,0.116
				c-2.867,0.091-5.719,0.05-8.561-0.377c-3.188-0.479-6.02-1.848-8.431-3.97c-1.945-1.712-3.537-1.85-6.205-1.891
				c-4.415-0.067-8.347,2.45-11.528,5.243c-2.143,1.881-5.817,7.902-8.877,3.258c-1.61-2.445-2.177-5.607-3.476-8.242
				c-2.298-4.664-8.597-5.733-13.254-4.393c-4.658,1.34-9.147,0.697-13.781-0.398c-2.351-0.555-7.435-2.613-5.384-6.245
				c1.061-1.88,3.112-3.071,4.792-4.333c6.415-4.819,16.361-5.177,24.074-6.924c8.507-1.926,17.193-5,25.058,0.149
				c3.788,2.48,8.37,8.815,13.533,7.395c1.543-0.424,3.175-3.612,4.03-4.98c1.163-1.862,0.623-3.679,2.181-5.635
				c0.869-1.091,3.334-2.492,4.71-2.832c7.722-1.904,19.895,0.572,22.556,9.337c2.323,7.651,6.356,16.09,5.775,24.205
				c0.466-0.466,0.932-0.932,1.398-1.398c-0.622,0-1.243,0-1.865,0C269.298,35.749,269.298,38.546,271.102,38.546L271.102,38.546z"
				/>
		</g>
		<g>
			<path fill="#FFFFFF" d="M24.969,279.085c2.613,0.097,5.32,4.667,7.872,5.743c2.635,1.11,5.523,1.591,8.365,1.018
				c2.928-0.591,5.73-1.755,8.058-3.667c4.017-3.299,5.045-8.732,10.259-10.93c6.723-2.834,7.665,7.389,8.468,11.195
				c0.746,3.534,2.686,7.054,4.138,10.331c1.635,3.688,5.355,6.481,7.75,9.644c3.312,4.375,2.614,12.354,3.409,17.595
				c0.27,1.778,2.964,1.02,2.697-0.744c-0.855-5.641-1.14-11.289-2.797-16.782c-1.123-3.722-5.819-6.929-8.007-10.036
				c-2.728-3.874-4.792-10.11-4.995-14.765c-0.148-3.38-2.378-6.363-4.989-8.273c-2.115-1.548-5.692-1.639-7.896-0.239
				c-1.664,1.057-3.196,2.312-4.561,3.734c-1.847,1.924-2.538,4.669-4.5,6.509c-3.653,3.423-8.887,4.649-13.618,3.151
				c-4.169-1.32-5.111-6.112-9.654-6.28C23.165,276.221,23.171,279.019,24.969,279.085L24.969,279.085z"/>
		</g>
		<g>
			<path fill="#FFFFFF" d="M17.455,312.125c-3.727,3.406-8.658,5.032-12.344,8.494c-3.336,3.133-5.633,8.131-5.007,12.759
				c0.423,3.13,1.766,5.899,2.955,8.794c1.537,3.743,1.206,7.356,0.648,11.264c-0.727,5.096-1.185,9.649,2.569,13.736
				c2.396,2.607,6.367,3.147,9.518,1.437c3.27-1.774,8.362-5.807,9.593-9.439c1.42-4.194,2.962-6.012,6.999-7.994
				c2.818-1.383,5.379-3.301,7.896-5.156c1.61-1.188,3.677-1.691,5.167-3.029c3.194-2.867,6.557-2.851,9.662-0.009
				c3.114,2.853,4.895,7.286,6.542,11.08c2.981,6.863,6.831,15.97,6.643,23.575c-0.318,12.879-12.216,23.743-24.764,17.119
				c-2.197-1.159-7.732-5.104-7.84-7.988c-0.033-0.887-1.095-2.344-1.866-2.796c-4.173-2.443-9.901-0.966-14.122,0.397
				c-2.799,0.904-5.51,2.081-8.287,3.055c-2.212,0.774-3.041,0.518-4.083,2.582c-2.202,4.36-2.809,9.361-2.479,14.178
				c0.628,9.194,6.151,18.953,14.134,23.691c4.381,2.6,9.04,2.493,13.708,1.036c2.686-0.839,5.21-2.193,7.623-3.616
				c1.408-0.83,2.709-1.83,4.002-2.824c1.37-1.051,3.718-1.504,5.311-2.236c6.062-2.79,13.104-0.014,19.168-3.002
				c4.66-2.298,7.221-7.81,10.289-11.69c4.796-6.069,14.527-7.355,20.668-2.194c2.001,1.682,3.485,4.049,5.127,6.06
				c1.986,2.432,4.43,3.854,7.109,5.405c11.493,6.657,27.385,17.006,19.22,32.215c-3.259,6.069-9.388,10.445-15.799,12.609
				c-7.532,2.543-14.821,0.249-20.898-4.492c-2.767-2.159-4.268-4.31-5.181-7.682c-0.427-1.578-1.158-3.604-2.218-4.884
				c-2.464-2.978-5.947-3.936-9.702-3.912c-3.791,0.024-7.591,1.602-10.625,3.779c-4.988,3.579-2.696,11.551-6.244,16.02
				c-2.146,2.702-5.818,3.862-9.103,4.237c-2.61,0.297-5.722-2.379-7.626-4.013c-3.66-3.139-6.324-7.26-10.025-10.37
				c-2.812-2.362-6.113-3.442-9.757-3.282c-3.871,0.17-6.072,5.029-7.196,8.037c-3.421,9.156,1.568,20.318,7.006,27.5
				c1.841,2.432,3.093,3.799,3.6,6.972c0.426,2.668,0.543,5.409,1.472,7.957c1.194,3.276,4.298,5.717,7.487,6.887
				c4.462,1.636,18.325,4.359,20.195-2.44c0.548-1.994,2.521-3.784,3.539-5.632c1.099-1.995,1.697-4.302,2.398-6.453
				c0.634-1.944,1.301-4.163,3.051-5.449c3.259-2.392,4.558,1.706,5.371,3.301c1.097,2.151,3.019,3.059,4.954,4.336
				c2.917,1.926,5.898,2.131,8.401-0.586c2.372-2.574,1.468-7.274,1.521-10.403c0.048-2.816,2.743-3.968,5.151-2.827
				c0.985,0.466,1.826,2.675,2.348,3.652c1.122,2.105,2.365,4.14,3.673,6.134c2.492,3.8,5.479,7.252,9.179,9.911
				c7.018,5.042,15.383,1.855,19.947-4.777c2.843-4.132,4.11-8.959,7.857-12.493c3.678-3.467,9.663-4.779,13.802-7.816
				c9.307-6.828,5.446-16.932,3.527-26.537c-1.444-7.227-2.365-15.196,2.599-21.241c3.974-4.839,9.777-9.729,16.25-9.729
				c2.665,0,6.045,2.814,8.16,4.237c3.566,2.401,6.949,5.713,7.465,10.214c0.669,5.839-1.929,10.357-5.276,14.901
				c-5.32,7.225-10.13,13.938-7.036,23.212c1.692,5.072,4.657,9.667,2.041,15.031c-3.237,6.639-9.4,10.302-15.174,14.259
				c-3.748,2.568-6.801,5.946-8.962,9.931c-1.985,3.657-3.437,6.795-4.625,10.743c-1.678,5.579-6.11,10.101-11.217,12.66
				c-7.666,3.842-14.851,0.01-18.702-6.929c-2.405-4.333-2.928-7.97-7.113-10.867c-3.153-2.183-7.504-3.007-11.071-1.507
				c-7.956,3.343-7.441,22.524-20.085,14.25c-3.434-2.247-7.232-4.503-11.381-2.332c-4.001,2.093-6.039,5.689-6.332,10.135
				c-0.311,4.707,3.542,11.018,5.668,15.04c2.709,5.124,5.408,11.415,9.21,15.783c2.996,3.442,6.549,6.936,11.452,6.936
				c4.45,0,9.239-2.021,11.242-6.376c0.777-1.689,2.671-3.16,3.124-4.906c0.79-3.046,2.681-4.702,5.691-5.607
				c4.656-1.4,12.667-0.461,16.771,1.781c0.987,0.54,0.93,1.663,2.198,2.006c2.946,0.798,5.715,0.956,8.763,0.866
				c3.672-0.108,8.95-1.168,11.203,2.545c1.981,3.265,0.059,6.192-1.456,9.001c-2.97,5.506-7.797,9.981-13.701,12.161
				c-6.653,2.455-12.917-0.973-19.621-0.573c-8.211,0.488-11.145,8.58-10.876,15.584c0.151,3.971,1.154,7.923,2.202,11.734
				c1.602,5.825,5.073,10.368,8.666,15.166c1.93,2.578,5.809,5.149,9.077,5.478c2.529,0.253,5.083,0.062,7.565,0.676
				c5.388,1.329,3.456,7.335,5.733,10.629c2.539,3.672,6.111,5.533,10.46,6.303c2.923,0.517,9.715,0.665,11.534-2.573
				c2.636-4.692,3.913-9.627,4.145-14.991c0.115-2.646-0.243-5.293-0.647-7.899c-0.432-2.786-2.864-7.165-1.61-9.738
				c1.984-4.07,2.975-8.641,5.804-12.268c4.242-5.44,11.006-2.996,13.784,2.229c5.399,10.159,3.072,22.398,1.894,33.172
				c-0.516,4.72-0.479,10.075,1.71,14.423c2.016,4.004,7.126,6.793,11.147,8.692c8.46,3.996,16.56-6.465,19.959-12.745
				c3.191-5.893,6.254-16.928,15.302-11.586c5.137,3.032,5.849,9.794,7.277,15.027c1.953,7.154,6.927,13.805,15.294,12.034
				c8.606-1.82,12.616-9.98,14.858-17.743c1.461-5.059,1.918-9.929,1.288-15.163c-0.926-7.692-2.432-14.185,1.557-21.33
				c2.391-4.283,5.551-8.181,7.332-12.792c2.146-5.557,1.658-10.128-0.016-15.744c-1.935-6.494-4.228-12.782-4.109-19.658
				c0.123-7.098,5.196-13.283,6.345-20.32c0.437-2.674,0.345-5.365,0.079-8.049c-0.178-1.797-2.526-4.142-3.4-5.779
				c-3.861-7.234-3.655-15.932-0.52-23.35c0.92-2.178,2.102-4.2,2.795-6.463c0.754-2.461,0.581-5.614,0.836-8.178
				c0.665-6.678,0.797-13.251-0.809-19.804c-1.151-4.699-3.028-8.09-7.403-10.223c-3.879-1.893-10.351-4.271-14.713-3.07
				c-3.703,1.019-7.067,5.872-8.915,8.952c-2.553,4.253-3.406,9.37-3.226,14.258c0.16,4.347,1.451,8.688,3.416,12.537
				c3.257,6.379,6.094,10.776,3.743,18.164c-1.786,5.61-4.917,10.721-6.906,16.264c-1.972,5.498-1.34,10.652,0.497,16.093
				c1.789,5.301,4.52,10.195,5.978,15.625c2.189,8.15-0.213,16.671-3.522,24.142c-1.051,2.373-2.951,4.754-3.636,7.245
				c-0.743,2.699-1.157,4.249-3.009,6.601c-4.224,5.359-10.987,8.15-17.641,8.637c-4.105,0.301-7.746-0.536-9.95-4.297
				c-1.808-3.084-3.278-6.318-4.322-9.736c-2.732-8.943,2.143-14.811,8.977-19.549c2.758-1.911,7.507-4.767,7.794-8.51
				c0.33-4.299-0.143-8.45-3.325-11.56c-6.285-6.142-16.194-2.698-22.329,1.477c-4.382,2.983-7.929,7.1-11.367,11.08
				c-2.292,2.653-4.658,4.292-7.673,1.415c-2.073-1.977-2.638-5.241-2.835-7.947c-0.338-4.629,1.009-9.137,2.989-13.255
				c3.054-6.353,11.01-4.331,16.573-5.133c8.668-1.249,17.157-4.847,21.693-12.719c4.21-7.308,3.9-18.861-2.665-24.673
				c-3.441-3.046-7.128-3.843-11.65-3.309c-2.317,0.273-4.583,0.939-6.828,1.551c-1.256,0.343-2.512,0.669-3.778,0.969
				c-1.757,0.416-1.855-0.461-2.697-1.725c-5.68-8.52,3.783-14.463,11.058-15.07c2.55-0.213,5.195,0.197,7.739,0.354
				c2.686,0.166,4.802,1.989,7.361,2.853c9.009,3.037,9.536-7.852,9.46-13.535c-0.053-4.023-2.868-6.483-5.987-8.523
				c-1.762-1.153-3.837-1.891-5.809-2.582c-1.87-0.655-12.855-2.227-9.183-6.681c5.599-6.792,9.49-16.597,4.938-24.874
				c-0.869-1.581-3.285-0.171-2.416,1.411c3.606,6.558,0.694,13.698-3.047,19.483c-1.171,1.812-2.92,2.958-2.92,5.244
				c0,2.143,1.433,3.79,2.942,5.11c1.72,1.502,3.84,1.717,5.968,2.178c3.348,0.726,6.475,2.052,9.335,3.924
				c3.647,2.387,3.461,6.309,3.449,10.109c-0.006,1.844-0.277,3.616-1.494,5.109c-2.474,3.037-6.374,0.087-8.591-1.211
				c-1.673-0.98-3.66-0.79-5.513-0.905c-2.663-0.165-5.458-0.58-8.111-0.086c-4.138,0.77-9.569,2.512-11.89,6.372
				c-2.39,3.976-1.444,8.702,0.293,12.731c1.898,4.403,4.055,3.507,8.359,2.388c6.127-1.594,13.008-4.136,17.768,1.702
				c2.348,2.88,3.516,5.158,3.516,8.958c0,3.333-0.112,6.397-1.218,9.577c-3.49,10.028-17.819,14.616-27.468,13.339
				c-16.012-2.119-21.001,28.562-6.648,33.67c3.276,1.167,7.217-4.558,8.833-6.402c4.545-5.193,9.568-9.847,16.151-12.244
				c4.527-1.648,10.684-0.369,13.325,3.831c2.074,3.298,0.918,8.21-1.633,10.688c-2.386,2.318-5.421,3.981-8.049,6.009
				c-9.214,7.105-7.603,18.092-2.966,27.403c2.012,4.043,4.53,7.539,9.301,8.203c4.781,0.664,10.042-0.106,14.435-2.113
				c4.171-1.906,8.082-4.659,10.743-8.463c0.912-1.304,2.544-3.193,2.64-4.865c0.195-3.407,2.739-6.704,4.11-9.8
				c4.948-11.172,4.956-21.875,0.167-33.011c-2.521-5.862-5.87-12.462-4.391-19.034c1.404-6.241,4.935-11.866,7.266-17.781
				c1.882-4.776,2.36-9.03,0.556-13.865c-1.834-4.918-5.395-8.896-6.301-14.184c-1.085-6.338-1.044-11.814,2.036-17.651
				c1.511-2.864,3.847-5.192,6.441-7.079c2.84-2.065,8.315,0.471,11.27,1.416c8.095,2.588,9.201,11.174,9.432,18.681
				c0.214,6.94-0.141,15.385-3.234,21.616c-5.093,10.258-3.989,21.934,2.298,31.357c3.641,5.458-1.07,15.429-3.762,20.317
				c-2.698,4.899-2.187,11.362-1.233,16.627c1.185,6.537,4.675,12.789,5.037,19.44c0.341,6.271-4.082,12.021-7.24,17.049
				c-2.826,4.497-4.521,8.726-4.59,14.095c-0.092,7.104,2.516,13.732,1.156,20.898c-1.703,8.976-8.278,25.552-20.442,19.032
				c-4.092-2.193-5.125-7.953-6.167-12.025c-1.095-4.279-2.128-8.383-5.263-11.621c-2.995-3.094-7.157-4.619-11.341-3.633
				c-4.767,1.126-7.262,8.01-9.064,11.833c-2.466,5.232-5.528,10.182-10.691,13.086c-3.584,2.017-6.529,1.42-9.821-0.728
				c-2.92-1.905-6.005-3.531-7.36-6.856c-2.388-5.858-0.875-12.949-0.051-18.958c0.768-5.597,0.825-10.779,0.001-16.356
				c-0.993-6.723-3.062-16.152-10.826-17.874c-8.552-1.897-12.697,6.444-15.22,12.884c-0.762,1.944-2.089,3.923-2.635,5.907
				c-0.456,1.654,1.37,5.009,1.801,6.686c1.925,7.497,1.583,15.407-1.837,22.401c-1.864,3.812-8.652,2.864-11.72,2.071
				c-4.306-1.115-6.16-4.23-7.106-8.316c-1.072-4.636-3.942-7.816-8.693-8.475c-2.283-0.317-4.571-0.084-6.85-0.515
				c-2.284-0.432-5.545-3.425-6.971-5.33c-3.848-5.14-6.563-9.88-8.125-16.092c-1.104-4.392-1.86-9.051-0.946-13.542
				c1.695-8.328,10.447-7.669,16.929-6.071c9.319,2.298,18.81-3.302,24.226-10.547c2.722-3.641,5.167-7.049,4.824-11.692
				c-0.271-3.659-2.463-6.456-5.93-7.494c-5.506-1.651-13.093,2.236-17.476-2.146c-2.985-2.985-7.836-2.593-11.642-2.909
				c-4.014-0.333-7.86-0.237-11.459,1.728c-3.597,1.962-5.633,6.87-7.149,10.406c-1.611,3.76-7.383,6.363-11.143,4.483
				c-2.618-1.31-4.238-2.634-6.243-4.676c-4.446-4.53-7.442-11.902-10.41-17.517c-3.207-6.064-8.186-16.959,1.178-20.236
				c3.839-1.344,7.062,2.377,10.11,3.969c1.645,0.857,4.07,1.028,5.86,0.691c3.46-0.649,5.697-2.771,7.628-5.608
				c2.794-4.104,3.892-11.156,9.934-11.114c6.97,0.048,8.952,6.699,11.496,11.77c2.443,4.869,5.792,8.024,11.09,9.386
				c8.775,2.255,17.267-3.923,21.724-10.945c1.173-1.849,1.947-3.941,2.574-6.026c0.562-1.866,1.418-2.425,2.223-3.952
				c1.199-2.278,1.632-4.867,3.043-7.142c1.897-3.057,4.827-5.453,7.752-7.458c1.989-1.363,4.158-2.29,6.045-3.796
				c2.403-1.919,4.353-4.411,6.239-6.814c2.718-3.463,4.989-7.019,4.21-11.611c-0.751-4.428-3.075-8.344-4.054-12.713
				c-1.243-5.537,2.484-10.93,5.599-15.108c5.442-7.304,10.311-14.657,6.347-23.94c-1.919-4.494-7.104-7.658-11.151-10.028
				c-4.738-2.774-8.312-2.854-13.454-0.818c-3.899,1.543-7.897,6.013-10.674,9.049c-3.648,3.987-4.425,8.493-4.52,13.719
				c-0.113,6.209,1.68,12.438,2.901,18.47c0.754,3.722,1.546,7.29-0.153,10.849c-1.322,2.766-4.122,4.661-6.634,6.222
				c-3.734,2.321-8.054,3.613-11.522,6.336c-3.752,2.947-5.437,8.079-7.7,12.093c-3.05,5.41-9.025,8.525-14.907,5.81
				c-4.97-2.296-8.489-7.561-11.3-12.024c-1.947-3.093-3.07-7.495-6.56-9.146c-2.853-1.349-5.971-0.229-7.753,2.154
				c-2.022,2.705-0.328,7.867-1.069,11.002c-1.184,5.006-8.054-0.205-9.349-2.268c-1.288-2.053-1.396-3.605-3.707-4.683
				c-2.551-1.189-6.327-0.035-7.682,2.468c-1.091,2.016-1.841,4.1-2.551,6.275c-0.506,1.552-1.03,3.049-1.71,4.54
				c-0.74,1.62-2.489,2.634-3.197,4.102c-1.175,2.44-2.411,3.903-5.326,4.154c-2.076,0.178-4.161,0.104-6.232-0.076
				c-6.396-0.557-11.043-3.45-12.088-9.986c-0.37-2.317-0.236-5.096-1.317-7.207c-1.079-2.11-2.624-3.833-4.047-5.712
				c-1.202-1.588-1.295-3.964-2.648-5.317c-2.319-2.318-2.915-5.861-3.661-9.084c-1.548-6.684,0.893-19.272,10.317-14.947
				c4.399,2.019,7.451,6.864,10.696,10.276c2.441,2.565,5.975,5.713,9.548,6.391c4.086,0.774,8.89-1.687,11.9-4.186
				c4.188-3.479,3.688-9.029,5.118-13.759c1.852-6.129,11.758-7.426,16.551-4.735c2.69,1.51,3.324,5.474,4.058,8.184
				c0.607,2.243,2.387,3.64,4.029,5.168c3.993,3.717,8.996,6.235,14.358,7.16c19.954,3.443,42.599-24.571,23.212-39.569
				c-4.302-3.327-8.17-6.863-12.905-9.77c-2.874-1.764-5.936-3.176-8.352-5.575c-2.191-2.176-3.805-4.863-6.005-7.048
				c-3.143-3.121-8.428-3.848-12.669-4.008c-5.428-0.206-9.606,3.229-12.774,7.239c-4.294,5.434-6.674,10.823-14.403,11.476
				c-2.912,0.245-5.864-0.166-8.763,0.311c-3.18,0.523-6.079,1.766-9.001,3.109c-6.647,3.06-11.843,9.039-19.95,7.364
				c-6.676-1.38-11.345-7.861-14.112-13.637c-2.572-5.369-3.097-11.605-1.853-17.376c0.793-3.677,1.857-4.994,5.306-6.204
				c3.252-1.139,6.404-2.483,9.725-3.425c1.926-0.546,7.686-1.738,9.152,0.357c0.907,1.295,0.64,2.78,1.842,3.978
				c4.012,3.999,7.996,7.519,13.669,8.75c8.897,1.933,16.352-3.286,20.364-10.933c5.675-10.813,0.843-22.323-3.082-32.885
				c-2.376-6.396-5.956-15.836-13.465-17.462c-4.041-0.875-6.493,2.181-9.7,3.799c-2.507,1.265-4.638,2.902-6.964,4.498
				c-2.704,1.854-5.882,2.882-8.439,4.883c-1.84,1.441-2.744,3.917-3.526,6.026c-1.014,2.735-3.823,5.217-5.933,7.133
				c-5.288,4.801-11.493,0.616-11.252-6.058c0.127-3.551,1.021-7.034,1.142-10.599c0.096-2.825-0.927-5.475-2.018-8.027
				c-2.162-5.062-3.074-9.345-0.14-14.416c3.128-5.407,10.099-7.101,14.54-11.161C20.766,312.884,18.783,310.912,17.455,312.125
				L17.455,312.125z"/>
		</g>
	</g>
	<g>
		<g>
			<path fill="#FFFFFF" d="M315.853,640.825c-0.621,0-1.242,0-1.864,0c-0.687,0-1.499,0.641-1.398,1.398
				c2.214,16.709,5.527,36.827,26.34,36.827c4.54,0,8.582-1.377,11.476-5.072c1.581-2.02,2.806-4.604,4.215-6.779
				c0.958-1.48,1.474-2.882,3.577-1.719c1.749,0.969,3.245,2.411,4.737,3.725c3.094,2.725,6.449,5.648,10.723,6.116
				c6.602,0.724,13.02-0.694,19.36-2.419c10.735-2.919,22.587-4.028,31.041-11.976c1.979-1.86,1.739-5.729-0.034-7.571
				c-3.705-3.848-9.512-4.542-14.59-4.489c-2.939,0.031-5.877,0.379-8.814,0.492c-4.323,0.167-6.8-0.819-8.914-4.657
				c-2.079-3.773-1.843-8.4-6.477-9.665c-4.522-1.234-7.114,2.36-9.868,5.246c-2.295,2.404-4.73,4.916-8.23,5.204
				c-3.374,0.278-6.62-2.468-9.229-4.238c-3.815-2.591-7.947-3.964-12.587-3.135c-3.635,0.648-7.018,1.812-10.424-0.141
				c-2.786-1.598-4.713-8.41-6.118-11.203c-6.043-12.007-16.278-23.25-15.527-37.378c0.34-6.401,2.936-12.592,6.186-18.02
				c1.725-2.88,3.824-6.022,6.727-7.81c3.587-2.209,9.336-0.868,13.093,0.09c7.757,1.977,12.742,7.402,10.915,15.618
				c-0.635,2.854-2.112,5.476-3.646,7.931c-1.378,2.205-3.225,3.281-3.111,5.902c0.393,9.092,8.847,16.419,16.92,19.02
				c5.755,1.855,12.385,1.599,18.334,2.838c3.889,0.811,10.989,4.854,14.629,1.214c0.887-0.887,1.947-3.097,2.114-4.397
				c0.837-6.541,7.866-4.944,10.756-1c5.206,7.105,1.71,14.64-3.66,20.202c-2.492,2.581-2.938,6.499-0.979,9.464
				c2.117,3.201,7.014,3.453,10.377,2.97c5.515-0.794,11.147-3.206,16.765-2.135c1.683,0.32,4.474,1.69,4.656,3.712
				c0.085,0.94-0.124,2.001,0.154,2.923c0.686,2.265,2.088,3.809,3.927,5.282c7.554,6.051,16.283,1.173,21.37-5.176
				c3.453-4.308,6.301-8.4,7.738-13.815c1.246-4.692-3.162-11.272-5.405-15.081c-1.572-2.668-3.52-5.125-4.882-7.905
				c-1.394-2.849-1.052-6.397-1.49-9.49c-0.776-5.468-3.186-10.643-6.243-15.184c-4.23-6.281-13.943-16.349-22.36-15.091
				c-5.65,0.845-9.834,3.995-14.487,7.098c-2.38,1.586-5.174,2.555-7.636,4.023c-2.729,1.627-5.256,3.603-7.829,5.46
				c-4.403,3.18-10.443,7.421-16.182,6.163c-5.998-1.315-7.359-11.743-4.885-16.21c2.646-4.773,9.221-5.174,13.923-6.31
				c4.038-0.977,8.002-2.24,11.675-4.206c2.966-1.589,5.419-3.948,7.089-6.86c1.099-1.917,3.163-7.921,1.344-9.812
				c-6.763-7.031-20.372,3.551-27.022,6.051c-3.205,1.205-8.555,2.971-11.799,1.405c-3.591-1.732-4.911-6.266-4.784-9.889
				c0.217-6.131,5.188-10.958,4.741-17.09c-0.614-8.418-13.059-10.977-18.12-4.718c-2.727,3.37-2.101,7.109-2.071,11.209
				c0.086,12.065-14.171,2.517-19.478,0.965c-2.394-0.701-5.122-0.884-7.604-0.854c-3.918,0.044-5.403,0.982-7.509-2.809
				c-4.135-7.444-1.927-15.983,2.496-22.666c7.345-11.097-4.983-25.206,8.758-33.837c5.211-3.272,11.809-4.064,17.697-5.39
				c3.724-0.839,8.282-2.725,11.543,0.42c3.099,2.987,3.234,7.466,2.564,11.4c-0.423,2.484-1.32,4.897-2.173,7.259
				c-0.927,2.564-0.905,4.573-0.905,7.321c0,2.971,4.95,4.323,7.194,3.837c10.456-2.264,10.408-13.757,14.019-21.61
				c2.858-6.216,8.201-7.812,14.665-6.658c6.764,1.205,11.819,6.313,18.291,8.066c6.686,1.811,7.376,9.908,5.712,15.49
				c-1.721,5.771-6.4,10.635-11.485,13.608c-2.811,1.644-6.154,2.192-9.295,2.856c-1.679,0.354-4.753,0.762-6.06,2.068
				c-3.157,3.156-3.837,6.794-2.586,11.143c2.415,8.401,11.815,9.149,18.103,4.735c3.992-2.805,8.749-4.724,13.621-5.138
				c2.502-0.213,4.93,0.319,7.135,1.49c1.373,0.73,2.433,1.944,3.336,3.173c0.691,0.94,2.059,6.065,0.729,6.995
				c-7.284,5.1-0.661,15.107,5.32,17.575c3.956,1.634,10.059,1.443,13.84-0.485c3.971-2.023,6.505-8.168,7.849-12.087
				c1.44-4.199,2.216-9.887,0.715-14.129c-1.089-3.075-3.932-6.116-3.39-9.581c0.706-4.52,5.053-5.612,8.8-4.83
				c3.307,0.689,3.735,6.309,4.243,8.991c0.68,3.589,0.652,7.288,0.43,10.918c-0.485,7.859-3.237,15.546-6.497,22.638
				c-1.969,4.281-5.213,8.219-4.865,13.146c0.267,3.768,3.12,6.889,5.682,9.376c3.214,3.118,6.909,5.669,9.883,9.043
				c3.633,4.124,2.035,10.502,6.971,13.982c7.599,5.358,16.722,0.161,23.317-4.262c4.196-2.813,7.839-5.999,10.763-10.144
				c1.188-1.683,2.535-2.948,2.938-4.996c0.63-3.197,0.791-6.598,1.197-9.838c1.526-12.171-1.277-23.287-10.774-31.481
				c-4.761-4.109-10.309-7.712-7.187-14.793c2.197-4.983,8.539-6.521,13.423-6.707c2.427-0.093,4.816,0.339,7.14,0.993
				c2.413,0.681,2.581,6.983,3.048,8.877c0.603,2.445,1.55,4.778,2.574,7.07c0.661,1.48,2.022,5.352,3.776,5.834
				c8.48,2.334,14.995-7.594,17.569-14.029c2.632-6.581,5.265-13.162,7.897-19.743c2.599-6.497,5.205-12.942,5.205-20.028
				c0-10.604-2.801-21.058-14.522-23.397c-10.161-2.027-17.204,6.034-21.88,13.844c-2.917,4.869-5.268,10.266-9.448,14.22
				c-1.321,1.25-2.906,2.172-4.604,2.797c-5.654,2.079-1.848-5.664-1.806-5.917c0.345-2.026,0.424-3.822-0.32-5.769
				c-1.049-2.745-3.889-4.144-6.434-5.164c-2.645-1.06-7.525-3.213-10.305-1.44c-3.129,1.996-5.267,7.946-5.267,11.536
				c0,4.993-4.594,6.662-8.854,5.802c-3.339-0.674-6.477-3.886-7.485-7.117c-1.828-5.846,1.154-12.747,1.535-18.689
				c0.298-4.664-1.595-8.639-4.506-12.135c-1.521-1.827-3.366-3.401-5.102-5.018c-1.753-1.634-3.153-3.748-4.9-5.32
				c-3.509-3.158-6.932-3.995-11.251-1.85c-4.196,2.083-4.737,7.856-5.147,11.929c-0.326,3.234-0.068,6.547,0.01,9.789
				c0.058,2.39-0.754,7.646-5.004,6.481c-2.085-0.57-3.584-2.13-4.726-3.862c-2.371-3.602-2.283-8.285-4.43-11.948
				c-2.352-4.014-8.487-5.595-12.49-6.94c-5.351-1.798-10.901,2.477-16.217-0.355c-4.757-2.535-5.376-9.669-5.569-14.376
				c-0.152-3.696,1.794-7.231,3.303-10.48c1.381-2.977,2.263-6.192,5.299-7.89c6.798-3.799,15.793-2.424,21.495,2.506
				c7.912,6.84,19.782,6.279,27.331-0.718c3.376-3.128,5.816-7.089,6.918-11.553c0.484-1.967,0.524-4.223,0.168-6.202
				c-0.315-1.756-0.9-3.239-1.084-5.051c-0.105-1.022,0.226-2.317-0.252-3.271c-2.367-4.735-4.206-8.263-9.029-10.792
				c-4.896-2.566-11.087-2.318-15.751-5.234c-5.792-3.623-9.282-12.119-4.34-17.708c2.905-3.284,4.934-5.616,9.64-6.207
				c3.861-0.485,7.871,0.034,11.747,0.091c5.037,0.072,13.666,6.076,13.985,11.654c0.238,4.179,4.92,5.513,8.327,6.785
				c3.02,1.128,5.879,2.105,8.393,4.2c2.373,1.979,2.211,4.894,3.516,7.434c3.139,6.113,7.036,11.866,8.701,18.614
				c2.194,8.897-4.893,11.139-11.161,14.569c-3.982,2.18-6.754,6.096-8.384,10.225c-3.279,8.308,2.562,17.947,9.04,22.89
				c3.851,2.938,8.117,5.02,12.603,6.799c3.681,1.46,10.422,4.969,14.294,3.593c8.478-3.015,14.716-9.958,14.882-19.147
				c0.134-7.411,4.524-14.023,12.509-12.724c2.49,0.406,4.788,1.568,6.903,2.891c3.827,2.392,3.017,5.873,4.943,9.163
				c2.316,3.954,8.137,5.677,11.951,7.609c2.454,1.244,4.666,2.896,6.347,5.069c1.029,1.329,3.283,2.556,4.965,2.771
				c3.819,0.489,7.34-2.342,9.453-5.311c1.374-1.93,2.548-3.963,3.423-6.173c0.942-2.378,1.897-6.313,0.913-8.772
				c-1.429-3.571-6.557-3.891-9.289-6.196c-3.55-2.997-0.614-5.016,1.973-7.188c2.146-1.804,3.932-3.766,5.51-6.076
				c5.352-7.832,4.52-18.231,2.155-26.91c-0.57-2.098-1.502-2.181-3.146-3.643c-1.733-1.543-3.038-3.569-4.403-5.425
				c-2.257-3.065-4.684-5.712-8.422-6.831c-2.063-0.617-3.882,0.015-5.891,0.536c-1.77,0.459-3.5,0.793-5.325,0.982
				c-1.229,0.128-1.755-1.701-2.225-2.49c-2.403-4.035-5.312-7.628-9.511-9.86c-2.766-1.471-6.436-2.558-8.722,0.073
				c-2.056,2.365-2.271,4.754-6.234,5.159c-3.584,0.366-6.035-4.383-7.212-7.052c-0.943-2.142-0.429-4.127-1.588-6.108
				c-1.249-2.135-1.21-4.756-1.817-7.141c-1.177-4.617-4.377-8.448-8.336-10.946c-4.878-3.079-9.809-0.177-14.824,1.342
				c-7.016,2.126-14.057,3.949-21.444,3.789c-7.641-0.164-14.41-4.451-21.209-7.48c-6.269-2.792-12.628-5.397-18.816-8.364
				c-4.405-2.11-3.849-6.716-1.713-10.324c1.965-3.319,6.774-5.049,10.175-6.298c6.706-2.465,13.56-1.742,20.191,0.477
				c5.052,1.69,23.245,10.936,23.692-0.233c0.389-9.688-10.243-15.033-18.073-17.527c-13.681-4.359-28.729,3.38-41.835-4.409
				c-1.555-0.924-2.96,1.495-1.411,2.415c11.619,6.906,25.463,3.133,38.208,3.784c6.477,0.331,13.543,4.141,17.804,8.892
				c2.59,2.888,4.552,9.935-1.517,9.098c-3.562-0.491-6.771-1.312-10.158-2.521c-5.622-2.007-10.913-4.091-16.939-4.376
				c-5.854-0.277-11.535,1.704-16.676,4.313c-7.196,3.653-11.862,14.417-3.16,19.125c5.517,2.985,11.574,5.179,17.314,7.7
				c6.157,2.703,12.149,6.293,18.717,7.853c5.751,1.365,11.814,0.617,17.525-0.524c3.404-0.681,6.746-1.699,10.069-2.69
				c4.061-1.212,8.629-3.7,12.668-1.625c3.172,1.629,5.323,4.825,6.639,8.028c0.947,2.308,0.672,4.777,1.356,7.095
				c0.207,0.7,0.761,1.364,1.155,1.96c0.695,1.053,0.343,2.317,0.632,3.443c0.647,2.521,1.886,4.843,3.418,6.935
				c1.825,2.492,5.438,5.054,8.729,3.997c1.723-0.554,3.32-1.282,4.637-2.538c0.537-0.513,0.907-1.287,1.271-1.918
				c1.552-2.69,3.731-1.99,6.072-0.987c4.998,2.142,7.833,7.625,10.394,12.094c0.237,0.416,0.723,0.711,1.207,0.693
				c5.812-0.204,11.579-3.617,16.369,0.987c3.092,2.97,4.833,7.137,8.29,9.775c3.438,2.624,3.194,10.514,3.093,14.44
				c-0.165,6.412-2.952,12.099-7.596,16.439c-2.763,2.582-7.012,3.584-5.968,8.077c0.802,3.446,5.273,6.045,8.282,7.102
				c2.063,0.726,3.168,0.922,3.168,3.313c0,2.458-0.262,4.419-1.265,6.684c-1.313,2.968-3.23,5.69-5.892,7.585
				c-3.881,2.764-6.569-1.094-9.021-3.413c-1.979-1.873-4.81-3.146-7.238-4.309c-2.789-1.334-5.464-2.562-7.784-4.658
				c-1.521-1.373-1.753-4.83-2.62-6.724c-1.773-3.871-6.679-5.962-10.491-7.092c-8.697-2.58-16.179,3.545-17.08,12.393
				c-0.302,2.961-0.086,5.689-1.051,8.586c-0.923,2.77-3.019,5.005-5.173,6.872c-1.703,1.475-5.932,4.496-8.294,3.818
				c-2.93-0.841-5.84-1.741-8.722-2.735c-10.328-3.565-24.653-11.769-22.776-24.832c0.934-6.492,6-9.891,11.382-12.471
				c4.315-2.07,8.033-4.929,9.172-9.773c1.047-4.451-1.209-9.709-2.983-13.659c-1.24-2.762-2.804-5.389-4.276-8.031
				c-0.911-1.635-1.829-3.272-2.52-5.018c-0.584-1.474-0.633-3.13-1.453-4.529c-2.193-3.745-6.674-5.503-10.526-6.899
				c-1.855-0.672-7.314-1.927-7.462-4.515c-0.128-2.232-1.362-4.054-2.537-5.928c-5.668-9.044-18.475-10.257-28.042-8.354
				c-9.07,1.804-15.094,11.929-11.558,20.574c1.529,3.74,4.484,6.784,7.867,8.899c4.558,2.851,11.009,2.65,15.863,5.196
				c3.277,1.719,4.665,4.664,6.244,7.821c1.116,2.233,0.593,5.192,1.49,7.59c2.609,6.974-3.539,15.229-8.993,18.82
				c-6.834,4.497-15.724,2.512-21.549-2.524c-3.834-3.314-8.571-4.724-13.56-4.374c-4.183,0.293-9.189,0.54-12.396,3.746
				c-3.769,3.769-5.867,10.569-7.457,15.599c-2.094,6.625,0.813,16.655,6.557,20.579c3.429,2.343,8.381,1.461,12.184,0.754
				c3.979-0.738,6.665,0.636,10.297,2.026c3.826,1.465,5.363,3.566,6.515,7.251c1.133,3.623,2.144,7.094,4.527,10.112
				c1.655,2.097,6.474,5.038,9.147,3.157c3.911-2.753,4.475-6.217,4.365-10.722c-0.089-3.717-0.178-7.358,0.399-11.049
				c1.064-6.805,7.076-10.102,11.98-4.251c3.249,3.877,7.455,6.85,10.489,10.91c4.425,5.92,1.709,13.453,0.79,20.039
				c-1.25,8.942,3.748,17.688,13.592,17.457c3.259-0.076,6.604-2.205,7.856-5.231c0.993-2.396,0.669-4.978,1.55-7.458
				c0.674-1.898,1.736-5.229,4.298-5.484c1.233-0.123,2.888,0.667,4.062,1.009c2.14,0.623,4.296,1.323,6.065,2.729
				c2.726,2.165,1.409,5.506,0.49,8.231c-0.979,2.903,0.086,7.183,3.856,7.086c9.837-0.25,14.617-12.76,18.82-19.778
				c3.378-5.641,7.844-10.739,14.734-11.489c3.077-0.334,6.091,0.631,8.744,2.103c4.228,2.344,5.498,6.849,6.652,11.202
				c1.817,6.856-0.229,15.48-2.779,21.857c-2.852,7.129-5.703,14.259-8.556,21.389c-2.148,5.371-4.481,11.017-9.63,14.173
				c-3.524,2.161-5.494,1.238-7.274-2.049c-1.781-3.291-2.812-6.909-3.59-10.547c-0.859-4.022-1.058-7.065-5.379-8.283
				c-4.069-1.148-8.47-0.992-12.555-0.06c-7.281,1.661-12.312,7.725-11.264,15.281c0.65,4.693,5.455,7.5,8.752,10.25
				c6.134,5.115,9.903,12.414,10.456,20.42c0.209,3.021-0.157,6.088-0.501,9.084c-0.345,3.002-0.195,8.857-2.147,11.23
				c-1.74,2.115-3.173,4.406-5.095,6.387c-2.534,2.611-5.705,4.58-8.721,6.578c-4.342,2.879-9.494,5.287-14.822,4.216
				c-7.216-1.451-5.396-9.813-8.997-14.339c-2.771-3.484-6.376-6.139-9.688-9.076c-1.77-1.57-3.371-3.272-4.624-5.288
				c-2.219-3.569-0.576-6.85,1.2-10.16c6.024-11.226,10.024-23.698,9.046-36.545c-0.313-4.122-0.866-9.771-3.721-12.973
				c-2.27-2.543-6.732-2.116-9.617-1.299c-4.156,1.177-5.194,4.059-5.795,7.898c-0.322,2.063,0.253,3.505,1.35,5.203
				c2.221,3.437,2.979,6.772,2.772,10.804c-0.315,6.114-3.848,16.92-11.121,17.68c-3.35,0.35-7.285-0.064-10.241-1.672
				c-3.273-1.781-6.621-8.582-2.767-11.548c2.717-2.088,2.343-6.963,0.899-9.802c-1.81-3.56-5.248-5.827-9.034-6.752
				c-3.694-0.902-7.719-0.076-11.251,1.064c-1.893,0.61-3.705,1.498-5.458,2.424c-2.487,1.315-4.57,3.641-7.525,3.691
				c-3.936,0.067-6.152,0.527-8.497-3.262c-1.713-2.77-1.995-7.111,0.404-9.51c2.161-2.161,7.189-2.359,10.028-3.053
				c2.692-0.657,5.115-1.839,7.422-3.345c7.203-4.7,12.669-13.613,11.605-22.366c-0.39-3.21-2.408-7.834-5.341-9.551
				c-2.543-1.49-5.618-1.88-8.251-3.391c-2.85-1.636-5.743-3.119-8.772-4.388c-8.81-3.692-17.733-2.142-22.221,6.582
				c-2.119,4.116-2.303,8.833-4.146,12.977c-1.362,3.061-3.912,5.872-7.055,7.1c-6.508,2.545-4.643-5.685-3.57-8.647
				c2.597-7.185,4.268-19.64-5.331-22.633c-4.397-1.371-10.588,1.337-14.835,2.246c-5.897,1.261-11.519,2.823-16.473,6.379
				c-9.406,6.751-4.93,18.723-5.615,28.29c-0.275,3.858-3.289,7.152-4.806,10.571c-0.897,2.022-1.532,4.275-1.758,6.479
				c-0.593,5.817,0.818,11.044,3.96,15.946c1.226,1.911,1.508,1.984,3.732,1.916c3.013-0.092,5.66-0.154,8.661,0.049
				c6.663,0.454,11.532,6.011,18.198,5.659c3.683-0.195,6.343-2.79,7.337-6.156c0.606-2.053,0.284-4.435,0.196-6.528
				c-0.218-5.138,3.372-7.833,8.182-8.124c6.646-0.403,7.184,6.775,5.271,11.25c-0.968,2.264-1.904,4.522-2.656,6.869
				c-1.373,4.288-1.281,9.404,1.595,13.084c2.828,3.618,5.634,4.872,10.216,4.224c6.265-0.888,11.824-3.451,17.399-6.316
				c2.676-1.376,5.317-2.421,8.209-3.243c1.175-0.334,5.725-1.388,5.802,1.196c0.039,1.312-0.193,2.604-0.494,3.874
				c-1.176,4.97-5.822,7.912-10.219,9.734c-3.738,1.551-7.761,2.412-11.694,3.301c-3.534,0.8-9.063,1.888-11.001,5.434
				c-3.607,6.6-2.835,16.083,3.773,20.655c7.686,5.315,19.088-4.604,24.838-8.708c4.859-3.467,10.287-5.789,15.256-9.103
				c2.687-1.79,5.182-3.087,8.354-3.828c4.031-0.941,7.475,1.692,10.622,3.831c4.965,3.375,8.985,8.003,11.966,13.178
				c1.516,2.632,2.519,5.501,3.296,8.425c0.84,3.154,0.239,6.675,1.161,9.725c1.66,5.499,5.637,10.022,8.295,15.074
				c1.999,3.799,3.571,7.441,1.972,11.686c-1.615,4.293-4.323,7.542-7.156,11.077c-3.975,4.959-9.732,7.423-15.721,4.279
				c-3.432-1.802-3.193-4.896-4.066-8.069c-0.517-1.878-2.459-3.057-4.018-3.996c-3.497-2.109-8.098-1.374-11.865-0.656
				c-2.573,0.491-5.103,1.176-7.682,1.643c-5.791,1.048-12.91-2.417-6.847-8.697c6.95-7.199,8.012-16.986,1.227-24.714
				c-2.167-2.468-6.191-3.92-9.254-2.236c-1.334,0.733-3.034,1.745-3.857,3.081c-2.03,3.296-1.55,8.267-7.384,6.188
				c-12.221-4.354-26.727-1.482-36.014-11.945c-2.239-2.522-3.646-5.781-4.072-9.107c-0.192-1.503,2.677-4.407,3.417-5.593
				c2.61-4.181,4.206-9.098,3.714-14.04c-1.041-10.472-13.931-13.567-22.566-13.758c-10.245-0.225-15.996,12.843-18.665,20.984
				c-1.648,5.026-2.076,10.42-1.415,15.648c0.748,5.926,3.863,10.952,6.766,16.041c3.271,5.735,6.681,11.379,9.65,17.279
				c2.239,4.451,3.306,10.506,8.886,12.041c2.245,0.617,4.724,0.088,6.959-0.312c4.218-0.752,7.488-1.1,11.422,0.949
				c4.407,2.295,7.557,5.599,12.758,5.939c4.118,0.271,7.616-3.359,10.208-6.023c1.132-1.163,7.566-8.171,8.954-3.395
				c0.715,2.463,1.883,4.939,2.997,7.248c5.174,10.711,19.099,3.838,28.276,6.562c3.229,0.959,6.983,3.953,3.475,7.251
				c-1.277,1.201-2.784,2.099-4.285,2.978c-2.731,1.598-5.814,2.55-8.835,3.428c-6.176,1.794-12.538,3.094-18.769,4.702
				c-7.714,1.992-15.719,3.201-22.289-2.112c-3.932-3.179-6.563-6.652-11.853-6.652c-0.479,0-0.979,0.263-1.208,0.692
				c-3.402,6.364-6.767,13.292-14.873,13.292c-6.298,0-11.194-1.507-15.382-6.377c-6.227-7.243-6.965-18.622-8.161-27.652
				c-0.466,0.466-0.933,0.933-1.398,1.398c0.622,0,1.243,0,1.864,0C317.657,643.622,317.657,640.825,315.853,640.825
				L315.853,640.825z"/>
		</g>
		<g>
			<path fill="#FFFFFF" d="M561.11,402.561c-6.371-5.237-13.052-9.35-21.272-5.812c-7.144,3.074-8.259,14.531-17.647,12.716
				c-4.156-0.803-4.701-7.02-5.229-10.339c-0.661-4.149-1.248-7.297-3.976-10.671c-3.523-4.358-7.592-7.433-8.918-13.151
				c-1.088-4.685-0.727-9.461-2.266-14.079c-0.567-1.702-3.269-0.974-2.697,0.743c1.386,4.155,1.45,8.51,2.04,12.814
				c0.622,4.53,2.715,8.04,5.894,11.229c4.237,4.252,6.325,8.017,7.227,13.857c0.482,3.134,0.963,6.767,2.977,9.351
				c4.105,5.269,10.974,3.677,15.115-0.506c2.854-2.882,4.786-6.538,8.062-9.022c6.26-4.747,13.893,0.884,18.715,4.848
				C560.514,405.674,562.505,403.707,561.11,402.561L561.11,402.561z"/>
		</g>
		<g>
			<path fill="#FFFFFF" d="M559.246,350.464c4.334-4.03,11.088-5.597,14.739-10.172c2.794-3.501,2.706-9.43,2.33-13.619
				c-0.18-2-1.317-3.952-2.209-5.703c-1.952-3.836-1.586-6.944-0.855-10.98c0.773-4.278,1.161-10.1-1.885-13.714
				c-6.625-7.862-16.095,1.224-19.459,7.712c-3.23,6.231-9.652,8.691-15.233,12.544c-5.557,3.836-11.768,7.976-16.772,1.305
				c-2.27-3.022-3.55-6.719-5.188-10.091c-1.64-3.378-1.862-7.238-2.655-10.854c-0.724-3.297-2.88-5.925-3.216-9.463
				c-0.999-10.518,5.736-21.949,17.156-21.695c7.505,0.167,12.729,5.961,16.368,11.797c2.235,3.587,8.455,2.325,11.836,1.536
				c2.86-0.668,5.617-1.872,8.354-2.917c2.048-0.782,4.755-1.098,6.627-2.195c3.184-1.865,2.963-9.118,3.057-12.306
				c0.284-9.636-4.167-19.792-12.146-25.399c-3.927-2.759-8.907-4.27-13.627-3.345c-6.578,1.288-12.512,5.959-18.749,8.33
				c-3.177,1.208-6.497,1.976-9.867,2.376c-2.587,0.308-5.16-0.105-7.726,0.254c-3.557,0.498-6.963,5.769-8.932,8.397
				c-2.799,3.737-5.076,8.557-9.843,10.05c-2.374,0.743-5.454-0.395-7.913-0.549c-4.787-0.302-7.46-3.167-10.163-6.787
				c-5.948-7.966-16.086-11.12-23.374-17.762c-5.107-4.654-6.889-10.665-5.818-17.424c1.181-7.458,8.641-13.089,14.816-16.547
				c6.898-3.863,13.167-1.431,19.742,1.659c2.999,1.41,5.321,3.859,7.158,6.555c1.754,2.576,2.186,5.728,3.855,8.279
				c4.761,7.276,16.756,4.565,21.167-1.393c3.669-4.958,2.338-11.111,6.875-15.71c5.861-5.94,12.489-2.521,17.192,2.503
				c2.785,2.977,5.162,6.398,8.418,8.906c2.097,1.615,7.245,4.87,10.062,3.316c7.752-4.275,8.952-12.438,7.272-20.502
				c-0.844-4.051-2.53-8.255-4.906-11.643c-1.879-2.68-4.359-4.935-5.518-8.062c-0.994-2.683-0.915-5.756-1.513-8.549
				c-2.002-9.375-16.215-12.779-23.906-9.584c-4.258,1.768-6.953,6.024-8.771,10.044c-0.968,2.138-1.677,4.397-2.444,6.611
				c-0.467,1.349-2.286,7.512-5.451,4.184c-1.063-1.118-2.004-2.367-2.979-3.56c-2.188-2.673-4.568-5.159-8.181-5.352
				c-3.789-0.203-6.273,3.279-6.652,6.565c-0.11,0.951,0.118,2.026,0.246,2.965c0.316,2.321-1.893,9.055-4.754,5.134
				c-1.594-2.184-2.903-4.617-4.312-6.922c-2.489-4.072-5.282-8.471-9.259-11.26c-3.69-2.589-7.584-3.755-12.086-3.453
				c-4.991,0.335-7.555,3.594-9.815,7.659c-2.993,5.384-4.652,11.19-10.603,14.097c-5.028,2.456-10.288,4.702-14.201,8.837
				c-3.096,3.271-2.455,10.453-2.108,14.488c0.597,6.917,2.772,13.605,3.685,20.479c0.644,4.853-5.679,11.904-8.736,14.961
				c-2.107,2.106-4.644,3.614-7.475,4.504c-3.719,1.169-6.18-0.28-9.258-2.118c-6.381-3.81-11.84-9.425-10.671-17.442
				c0.954-6.553,6.281-12.981,11.361-16.745c2.887-2.139,2.468-8.019,2.048-11.055c-0.884-6.369-4.222-11.948-2.92-18.586
				c1.901-9.694,14.184-14.995,20.861-21.077c3.73-3.397,4.766-7.338,6.256-11.927c1.864-5.741,5.364-11.008,10.394-14.408
				c4.937-3.336,13.188-4.714,17.658-0.124c3.522,3.617,4.997,9.275,8.024,13.337c4.36,5.85,12.719,7.733,16.999,1.014
				c2.343-3.676,3.793-7.823,6.946-10.944c5.195-5.144,10.239,1.954,15.212,2.938c7.768,1.538,12.769-5.501,11.741-12.597
				c-0.653-4.501-2.917-7.884-4.734-11.951c-2.67-5.974-6.091-11.753-9.956-17.04c-2.39-3.268-6.254-7.327-10.664-7.313
				c-5.286,0.016-7.976,2.935-11.176,6.664c-1.672,1.948-2.67,4.562-4.017,6.736c-1.928,3.112-4.966,4.231-8.437,4.464
				c-2.229,0.15-4.507-0.153-6.727-0.337c-3.8-0.316-6.153-1.771-9.32-3.638c-5.018-2.958-17.216,2.152-19.725-4.508
				c-2.343-6.222,3.471-11.567,7.521-15.346c2.157-2.012,4.137-4.213,7.048-5.064c3.869-1.13,7.229-0.998,11.196-0.424
				c3.255,0.47,11.544,2.538,14.113-0.489c6.706-7.899,6.594-17.91,3.219-27.282c-1.536-4.266-3.811-8.851-7.037-12.078
				c-2.559-2.558-6.321-7.615-10.595-6.796c-2.523,0.484-8.281-0.932-9.713-3.018c-1.165-1.7-1.529-3.935-2.356-5.808
				c-1.641-3.716-4.424-6.224-8.077-7.922c-8.476-3.94-15.249,0.017-18.278,8.258c-1.793,4.875-1.684,10.768-0.777,15.804
				c0.443,2.462,2.674,4.248,2.86,6.713c0.333,4.377-1.86,8.603-4.135,12.167c-1.955,3.062-5.218,7.826-9.359,7.144
				c-2.63-0.433-4.429-2.634-5.755-4.743c-2.572-4.09-3.525-9.136-5.154-13.635c-1.065-2.942,0.43-6.726,0.757-9.69
				c0.396-3.576,0.851-6.669,2.04-10.077c1.467-4.203,0.302-9.311-1.357-13.24c-3.102-7.343-12.804-13.605-20.874-11.512
				c-1.904,0.493-3.587,3.136-4.786,4.483c-1.829,2.054-3.453,4.289-4.996,6.561c-2.626,3.871-5.526,14.729-10.729,15.716
				c-4.342,0.823-7.531-1.251-8.536-5.55c-0.386-1.652-1.991-2.053-2.649-3.661c-1.592-3.894-2.019-8.192-3.8-12.021
				c-3.167-6.805-10.525-8.429-17.186-5.319c-14.153,6.608-13.065,27.752-11.06,40.551c1.841,11.737-13.683,19.127-12.044,30.822
				c0.803,5.729,2.086,10.189,4.585,15.364c3.043,6.3,1.663,15.591-0.604,21.888c-1.124,3.122-3.088,5.54-3.827,8.805
				c-0.604,2.675-0.06,5.656,0.019,8.363c0.173,5.971,2.938,9.9,4.991,15.393c1.296,3.466,0.738,6.981-0.242,10.422
				c-0.669,2.347-1.191,5.46-2.417,7.558c-2.49,4.256-2.169,9.968-2.695,14.818c-1.004,9.239-1.138,23.023,8.075,28.419
				c7.912,4.635,16.293,4.087,21.795-3.412c5.732-7.816,7.019-19.811,2.613-28.371c-1.641-3.188-4.276-5.644-5.554-9.032
				c-1.231-3.265-0.154-7.524,0.867-10.71c1.952-6.088,5.271-11.619,7.072-17.776c3.799-12.989-6.902-22.48-7.55-34.976
				c-0.359-6.957,1.566-13.874,4.254-20.22c2.763-6.524,6.589-14.318,12.849-18.033c5.25-3.115,15.399-5.089,19.955-0.184
				c4.433,4.771,8.116,14.548,6.103,20.946c-2.835,9.007-17.608,10.879-17.147,20.952c0.4,8.702,6.394,12.07,14.693,11.897
				c4.545-0.095,8.563-2.564,12.118-5.205c4.957-3.682,8.152-9.418,13.132-12.904c6.519-4.563,7.338,9.224,7.458,12.255
				c0.121,3.051,0.558,5.505-0.833,8.422c-1.884,3.948-6.238,5.893-10.171,7.071c-2.48,0.742-5.448-0.01-8.023,0.06
				c-2.064,0.056-4.129,0.418-6.14,0.86c-4.32,0.949-8.281,3.099-11.605,5.976c-3.093,2.676-5.04,6.408-6.113,10.295
				c-1.024,3.708-1.667,10.321,0.045,13.847c4.908,10.111,14.326,11.073,24.13,7.978c2.371-0.749,3.726-2.452,4.836,0.124
				c1.153,2.675,1.709,5.105,1.245,8.058c-1.155,7.347-10.92,7.439-16.683,7.602c-3.488,0.098-4.758-1.046-7.755-2.201
				c-2.32-0.895-4.958-1.432-7.356-0.563c-3.021,1.095-4.772,4.328-5.019,7.389c-0.778,9.699,5.112,14.501,13.773,17.092
				c2.692,0.806,10.767,2.155,7.235,6.953c-1.951,2.65-3.822,5.549-5.016,8.631c-2.107,5.443-2.197,10.417,0.397,15.695
				c0.795,1.619,3.207,0.201,2.414-1.411c-3.831-7.796,0.072-15.046,4.619-21.503c2.445-3.475,1.216-6.74-2.323-8.833
				c-4.722-2.793-10.519-2.489-14.971-6.06c-3.903-3.131-5.976-15.639,1.679-15.56c2.667,0.028,4.39,1.612,6.708,2.572
				c2.04,0.845,5.015,0.613,7.138,0.553c4.202-0.118,10.558-0.42,13.961-3.179c5.077-4.116,5.908-14.218,1.1-19.027
				c-0.816-0.817-1.7-0.694-2.707-0.463c-2.736,0.627-5.371,1.913-8.123,2.592c-6.853,1.69-16.368-1.387-17.145-9.635
				c-1.173-12.483,5.079-21.764,17.412-24.474c4.862-1.068,9.668,0.335,14.424-1.088c4.848-1.452,8.836-4.562,11.018-9.132
				c1.705-3.575,0.701-8.138,0.495-11.944c-0.208-3.871-0.951-7.605-3.697-10.487c-2.777-2.913-5.958-2.181-8.938-0.096
				c-2.017,1.411-3.534,3.711-5.162,5.535c-2.428,2.719-5.044,5.243-7.974,7.419c-4.637,3.443-9.573,4.742-15.197,3.462
				c-2.819-0.642-5.049-2.322-5.959-5.112c-1.405-4.314,0.646-7.628,3.881-10.242c6.528-5.274,15.122-10.612,13.354-20.323
				c-0.81-4.454-2.458-11.5-5.676-14.941c-4.12-4.408-6.643-5.541-12.833-5.382c-4.996,0.128-10.409,1.794-14.407,4.805
				c-4.832,3.641-7.629,9.396-10.293,14.684c-5.228,10.375-7.933,22.404-4.007,33.621c2.084,5.956,6.248,11.762,6.607,18.184
				c0.396,7.108-3.529,13.936-6.25,20.234c-2.022,4.685-3.552,9.694-2.986,14.843c0.754,6.854,8.219,10.764,8.219,18.007
				c0,6.301-0.425,11.41-3.395,17.075c-3.559,6.784-8.999,7.967-15.916,5.76c-14.405-4.598-10.175-24.975-8.93-36.294
				c0.271-2.465,1.428-4.057,2.085-6.283c0.764-2.586,1.542-5.183,2.282-7.779c1.478-5.188,0.394-9.932-1.899-14.664
				c-2.984-6.16-4.442-12.897-2.886-19.777c0.633-2.8,2.964-5.814,3.973-8.619c1.041-2.892,1.427-5.99,1.648-9.038
				c0.375-5.169-0.192-10.192-2.443-14.853c-1.481-3.068-2.322-5.856-2.888-9.204c-0.854-5.06-0.438-8.282,2.188-12.693
				c1.611-2.707,3.03-5.88,5.259-8.108c1.679-1.678,1.956-3.765,2.784-5.977c1.809-4.833,0.828-8.555,0.351-13.5
				c-0.82-8.475-0.594-17.932,3.469-25.612c1.969-3.724,5.201-6.22,9.255-7.264c6.416-1.653,10.06,1.722,11.938,7.474
				c1.207,3.697,1.918,7.487,3.571,11.032c0.2,0.431,1.164,1.012,1.399,1.193c0.668,0.514,0.781,2.045,1.083,2.829
				c0.686,1.774,2.071,3.031,3.613,4.056c2.522,1.678,7.207,1.752,9.802,0.233c4.584-2.685,6.096-9.178,8.548-13.593
				c1.73-3.116,3.915-5.968,6.213-8.68c2.925-3.453,5.294-4.408,9.669-3.386c6.343,1.482,10.954,6.841,12.645,12.921
				c1.658,5.965-1.704,11.448-1.948,17.363c-0.117,2.858-0.956,5.672-1.128,8.541c-0.152,2.546,0.855,4.861,1.614,7.231
				c2.016,6.295,4.787,16.25,12.944,16.68c4.136,0.217,6.889-3.032,9.228-6.066c3.707-4.81,6.306-10.006,6.42-16.16
				c0.043-2.291-1.218-3.67-2.385-5.553c-1.586-2.559-1.105-7.666-0.945-10.568c0.447-8.149,4.939-15.053,13.661-12.812
				c5.353,1.375,7.951,5.285,9.7,10.189c1.085,3.042,2.862,6.173,6.427,6.532c2.076,0.209,4.37,1.545,6.501,1.137
				c3.928-0.753,6.797,3.417,9.203,5.822c4.422,4.422,6.908,11.289,8.14,17.28c0.646,3.148,0.583,6.409,0.006,9.556
				c-0.48,2.62-2.18,7.727-5.109,8.649c-6.225,1.96-13.517-1.37-19.975-0.767c-4.755,0.444-7.383,2.789-10.696,5.832
				c-3.251,2.985-7.045,6.261-8.703,10.484c-1.546,3.938-1.056,7.489,0.78,11.238c2.18,4.454,10.807,2.558,14.492,2.558
				c5.792,0,9.295,4.442,14.936,4.739c4.596,0.242,9.093,1.015,13.481-0.794c4.253-1.752,6.1-6.23,8.228-9.956
				c1.608-2.813,4.271-5.425,7.313-6.504c5.404-1.918,10.032,4.725,12.537,8.358c3.417,4.955,6.262,10.32,8.71,15.799
				c2.204,4.93,5.492,9.723,3.072,15.336c-1.528,3.547-5.581,4.109-8.937,3.445c-1.428-0.283-3.557-2.644-5.16-3.29
				c-3.636-1.466-7.011-1.746-10.362,0.523c-2.994,2.027-4.775,5.702-6.423,8.787c-1.03,1.927-2.035,3.754-3.435,5.444
				c-2.745,3.314-8.258-0.285-10.258-2.393c-6.404-6.747-6.589-17.66-17.812-18.103c-9.31-0.368-16.805,5.69-21.194,13.407
				c-2.527,4.443-3.039,9.708-5.73,14.002c-2.971,4.741-8.971,7.921-13.305,11.265c-7.298,5.63-12.006,11.93-10.894,21.48
				c0.638,5.484,3.417,10.382,3.291,15.999c-0.088,3.985-2.789,4.891-4.921,7.398c-1.935,2.275-3.723,4.647-5.333,7.163
				c-2.396,3.746-4.182,8.546-3.571,13.049c0.777,5.745,4.233,9.755,8.585,13.349c3.085,2.549,7.102,5.127,11.163,5.264
				c4.383,0.146,8.399-2.244,11.646-4.929c3.609-2.985,6.291-7.178,8.472-11.261c0.592-1.104,2.286-3.635,2.15-4.979
				c-0.331-3.271-0.903-6.478-1.57-9.696c-1.461-7.065-3.217-14.106-2.073-21.355c1.1-6.972,10.505-9.807,16.003-12.492
				c4.196-2.05,6.527-6.761,8.459-10.727c1.367-2.806,2.67-5.781,4.772-8.133c2.792-3.122,8.7-2.137,12.007-0.733
				c5.251,2.231,8.548,7.534,11.424,12.168c2.02,3.254,3.624,8.014,7.639,9.116c2.196,0.603,6.305-0.831,6.688-3.46
				c0.35-2.401,0.026-4.571-0.251-6.971c-0.272-2.371,1.083-4.188,3.254-4.954c2.091-0.738,4.037,1.445,5.273,2.724
				c2.615,2.705,4.15,6.727,8.297,6.844c4.43,0.124,5.628-5.055,6.734-8.248c2.453-7.079,5.673-14.156,14.194-14.748
				c3.607-0.251,7.151,1.433,10.169,3.203c4.307,2.527,5.049,5.604,5.645,10.243c0.693,5.408,3.385,8.557,6.594,12.776
				c3.15,4.142,4.779,9.908,5.237,15.024c0.356,3.986-1.356,13.299-7.026,13.054c-5.374-0.233-9.301-5.358-12.494-9.076
				c-5.732-6.673-12.205-11.902-20.953-6.811c-3.271,1.904-6.598,6.054-7.082,9.875c-0.512,4.047-1.101,6.92-4.167,9.791
				c-3.361,3.146-8.414,3.512-12.381,1.488c-2.961-1.51-3.667-4.878-4.955-7.647c-0.97-2.083-2.377-3.918-3.884-5.634
				c-3.203-3.646-9.122-6.485-13.692-7.736c-10.024-2.746-20.903,4.161-26.83,12.006c-6.168,8.167-5.265,18.97,1.2,26.561
				c6.777,7.956,18.548,10.352,24.565,18.868c2.516,3.56,5.032,6.562,9.43,7.817c2.465,0.705,5.393,0.642,7.921,1.019
				c1.687,0.251,3.582,0.043,5.148-0.647c3.418-1.507,5.636-4.362,7.751-7.334c1.396-1.961,2.707-3.955,4.28-5.785
				c0.74-0.86,1.569-1.657,2.335-2.495c2.237-2.446,3.985-2.438,7.066-2.394c5.698,0.082,11.305-1.628,16.521-3.762
				c6.381-2.611,13.789-9.007,20.981-7.076c13.885,3.728,18.834,19.612,16.47,32.343c-0.69,3.718-2.303,3.721-5.579,4.868
				c-2.789,0.978-5.512,2.12-8.327,3.03c-3.132,1.012-8.625,2.472-10.774-0.976c-1.742-2.796-3.241-4.671-5.775-6.898
				c-6.797-5.973-16.674-7.044-23.976-1.42c-6.501,5.006-8.926,14.001-8.18,21.86c0.197,2.079,0.827,3.968,1.672,5.872
				c1.412,3.181,2.103,6.212,2.744,9.617c0.821,4.349,3.259,8.778,5.332,12.664c1.599,2.996,3.78,5.8,6.94,7.208
				c3.927,1.749,7.945-0.44,11.308-2.384c3.621-2.093,6.924-4.721,10.476-6.931c3.385-2.106,5.869-3.208,8.199-6.593
				c2.606-3.782,4.055-7.242,7.837-10.103c2.346-1.774,5.193-2.875,7.825-0.71c2.782,2.288,2.741,7.441,2.307,10.673
				c-0.454,3.373-1.322,6.499-0.879,9.923c0.539,4.166,3.736,7.116,3.727,11.547c-0.012,5.409-0.766,9.327-5.823,12.143
				c-3.754,2.089-7.383,4.079-10.546,7.021C555.944,349.717,557.927,351.69,559.246,350.464L559.246,350.464z"/>
		</g>
	</g>
</g>
</svg>
